<svg width="46" height="46" viewBox="0 0 46 46" fill="none" xmlns="http://www.w3.org/2000/svg">
<path d="M23.3852 45.2C35.8668 45.2 45.9852 35.0816 45.9852 22.6C45.9852 10.1184 35.8668 0 23.3852 0C10.9035 0 0.785156 10.1184 0.785156 22.6C0.785156 35.0816 10.9035 45.2 23.3852 45.2Z" fill="white"/>
<g clip-path="url(#clip0_1_1178)">
<path d="M27.147 16.7188C26.3157 15.6749 25.2169 15.135 25.1807 14.3503C25.1518 13.5656 25.1446 11.593 25.1446 11.593V8.80697H25.3181V7.48234H25.1446V7H21.8554V7.48234H21.6819V8.79978H21.8554V11.5858C21.8554 11.5858 21.8482 13.5656 21.8193 14.3431C21.7904 15.1278 20.6843 15.6677 19.853 16.7116C19.1952 17.5395 19 18.317 19 20.0376V37.8193C19 38.4673 21.0169 38.9928 23.4964 38.9928C25.9759 38.9928 28 38.4673 28 37.8193V20.0448C28 18.317 27.8048 17.5395 27.147 16.7188Z" fill="#03331F"/>
<path d="M27.1471 16.7188C26.3158 15.6749 25.217 15.135 25.1808 14.3503C25.1519 13.5656 25.1447 11.593 25.1447 11.593V8.80697H25.3182V7.48234H25.1447V7H23.8579V7.48234H24.0314V8.79978H23.8579V11.5858C23.8579 11.5858 23.8652 13.5656 23.8941 14.3431C23.923 15.1278 25.029 15.6677 25.8604 16.7116C26.5182 17.5395 26.7134 18.317 26.7134 20.0376V37.193C26.7134 37.7834 25.0363 38.8992 22.8604 38.9784C23.07 38.9784 23.2869 38.9928 23.5037 38.9928C25.9905 38.9928 28.0073 38.4673 28.0073 37.8193V20.0448C28.0073 18.317 27.8122 17.5395 27.1543 16.7188H27.1471Z" fill="#022416"/>
<path d="M21.8556 11.593C21.8556 11.593 21.8556 12.0394 21.8484 12.5865H25.152C25.152 12.0394 25.152 11.593 25.152 11.593V8.80697H25.3255V7.48234H25.152V7H21.8556V7.48234H21.6821V8.79978H21.8556V11.5858V11.593Z" fill="#330B03"/>
<path d="M25.152 12.5865C25.152 12.0394 25.152 11.593 25.152 11.593V8.80697H25.3255V7.48234H25.152V7H23.8652V7.48234H24.0387V8.79978H23.8652V11.5858C23.8652 11.5858 23.8652 12.0322 23.8725 12.5793H25.1592L25.152 12.5865Z" fill="#1F0702"/>
<path d="M26.6195 31.2754C26.6195 31.2754 25.3111 31.5345 23.5038 31.5345C21.6966 31.5345 20.3882 31.2754 20.3882 31.2754V23.4428C20.3882 23.4428 20.3882 20.7791 23.5038 20.7791C26.6195 20.7791 26.6195 23.4428 26.6195 23.4428V31.2754Z" fill="#916F3E"/>
<path d="M23.4964 31.081C22.2241 31.081 21.2265 30.9514 20.7783 30.8794V23.5076C20.7783 23.414 20.8217 21.2326 23.4964 21.2326C26.1711 21.2326 26.2145 23.414 26.2145 23.5076V30.8794C25.759 30.9514 24.7542 31.081 23.4964 31.081Z" fill="#D4B283"/>
<path d="M20.2435 38.1505L19.6001 37.8985V20.0736C19.6001 17.9498 20.3808 17.2155 21.3784 16.2796L21.4652 16.2005C22.2893 15.423 22.2965 14.3215 22.2965 14.3071V9.18134H22.9399V14.3071C22.9399 14.3647 22.9254 15.6965 21.9061 16.6612L21.8194 16.7404C20.8362 17.6619 20.2507 18.2234 20.2507 20.0664V38.1433L20.2435 38.1505Z" fill="#8CBAA7"/>
<path d="M22.9398 9.18134H22.2964V12.5865H22.9398V9.18134Z" fill="#8F4F42"/>
<path d="M22.8022 7.48953H22.1299V8.75657H22.8022V7.48953Z" fill="#8F4F42"/>
<path d="M22.9398 7H22.2964V7.48954H22.9398V7Z" fill="#8F4F42"/>
</g>
<defs>
<clipPath id="clip0_1_1178">
<rect width="9" height="32" fill="white" transform="translate(19 7)"/>
</clipPath>
</defs>
</svg>
