<svg width="54" height="54" viewBox="0 0 54 54" fill="none" xmlns="http://www.w3.org/2000/svg">
<path d="M48.7545 31.0256C51.2024 18.7864 43.2649 6.88011 31.0256 4.43225C18.7864 1.98438 6.88012 9.92187 4.43225 22.1611C1.98439 34.4004 9.92188 46.3066 22.1611 48.7545C34.4004 51.2024 46.3066 43.2649 48.7545 31.0256Z" fill="white"/>
<path d="M17.0926 24.0415C18.9457 23.2584 19.5582 19.9089 18.6046 18.7149C18.2246 18.2342 19.0698 17.5984 19.6745 17.0634C19.4885 16.8308 19.2248 16.6602 18.8372 16.5594C16.8445 16.0709 12.7584 16.8463 10.13 20.9479C10.068 21.0409 9.99818 21.2813 9.95166 21.5759C10.0525 21.5449 10.1533 21.5216 10.2618 21.4906C13.9912 20.4439 15.2163 24.8091 17.0926 24.0415Z" fill="#FFB85A"/>
<path d="M19.6823 17.0636C19.0776 17.5986 18.2324 18.2344 18.6123 18.7151C19.5583 19.9014 18.9535 23.2509 17.1004 24.0417C15.2318 24.8171 13.999 20.4441 10.2696 21.4908C10.161 21.5219 10.0602 21.5451 9.95944 21.5761C9.85865 22.2197 9.87415 23.1036 10.3781 23.2121C11.5954 23.4757 12.7895 23.8014 13.7819 24.4372L14.6503 24.9877C16.5189 26.5616 18.6046 23.5843 18.9535 22.2739C19.3489 20.8008 20.5972 18.2189 19.6746 17.0636H19.6823Z" fill="#FFD985"/>
<path d="M20.4734 24.2201C22.5979 25.1273 21.2255 22.6849 21.1092 20.3821C21.0084 18.3507 22.28 16.7225 23.5205 15.2106C22.1327 14.8617 21.179 14.4662 18.2482 16.0945C18.2249 16.1022 18.2094 16.1177 18.1939 16.1332C16.9301 19.444 18.6126 23.4293 20.4812 24.2201H20.4734Z" fill="#FFB85A"/>
<path d="M25.8079 15.9079C25.366 15.7451 23.9393 15.3109 23.9393 15.3109C23.792 15.2799 23.6525 15.2489 23.5129 15.2101C22.2723 16.722 21.0085 18.3425 21.1016 20.3817C21.2256 22.6845 22.5902 25.1268 20.4658 24.2197C18.5972 23.4211 16.9147 19.4435 18.1785 16.1328C16.7131 16.9779 16.9534 18.9861 16.7596 20.4282C16.3487 23.4211 22.1328 26.662 24.1409 23.5219C24.1409 23.5219 26.7616 16.2646 25.8079 15.9157V15.9079Z" fill="#FFD985"/>
<path d="M34.7166 19.304C28.8937 19.7382 25.8544 23.8165 24.8076 24.9718C23.7454 26.1271 22.4583 23.0412 24.2726 18.3425C25.4589 15.1171 28.7232 14.334 30.6925 14.1557C29.956 14.0316 29.1573 13.9773 28.3045 14.0083C26.242 14.0704 21.6597 14.1712 20.8534 22.4674C20.6052 25.0571 24.5828 25.2199 27.4438 28.3368C28.7464 29.7402 28.2114 24.7702 29.6226 23.5296C32.4448 20.9632 34.8019 21.2191 37.345 21.9247C38.4615 22.2348 38.6554 20.971 37.8955 19.3505C37.1279 19.242 36.0967 19.1954 34.7088 19.304H34.7166Z" fill="#FFCC66"/>
<path d="M30.9173 14.6444C28.9479 14.815 25.6759 15.5981 24.4819 18.8235C22.6676 23.5299 23.9702 26.6158 25.0324 25.4683C26.0791 24.3052 29.1262 20.2347 34.9569 19.8082C36.3525 19.6997 37.3837 19.7462 38.1591 19.8547C37.2209 17.8311 34.8483 15.3034 30.9173 14.6444ZM31.9718 15.7841H31.9873C31.9873 15.7841 31.9873 15.7841 31.9718 15.7841Z" fill="#E77626"/>
<path d="M30.6925 14.1556C28.7231 14.3262 25.4589 15.117 24.2648 18.3347C22.4505 23.0411 23.7376 26.1193 24.7998 24.964C25.8466 23.801 28.8859 19.7304 34.7088 19.2962C36.0967 19.1876 37.1279 19.2264 37.8955 19.3427C36.9651 17.3268 34.6003 14.7991 30.6847 14.1556H30.6925ZM31.7392 15.2876H31.7547C31.7547 15.2876 31.7547 15.2876 31.7392 15.2876Z" fill="#FFB85A"/>
<path d="M41.1285 28.4147C41.0355 29.5855 40.7176 30.6788 40.609 31.8495C40.5005 33.0358 31.1808 32.4776 30.1573 32.2372C27.6684 31.6635 28.436 30.1438 27.0947 28.3682C26.7458 27.903 26.9939 26.1275 28.1492 24.4682C29.1416 23.0105 30.8164 21.6304 33.3905 21.3048C33.5921 21.2815 34.3675 21.2117 34.8792 21.2117C36.1353 20.6302 38.5233 21.6149 39.2212 22.5686C40.989 24.9644 41.2603 26.7632 41.1285 28.407V28.4147Z" fill="#FFD071"/>
<path d="M41.0747 28.9419C39.3224 29.6707 32.3442 29.2132 31.4603 29.0116C29.018 28.4689 29.9251 26.4685 28.5993 24.7084C28.5528 24.6464 30.9951 22.0645 33.5693 21.7389C33.7709 21.7156 34.5462 21.6458 35.0657 21.6458C36.3295 21.0721 38.7176 22.0567 39.4232 23.0104C41.1987 25.4063 41.2142 27.2904 41.0747 28.9341V28.9419Z" fill="#E77626"/>
<path d="M41.1286 28.4147C39.3763 29.1513 32.1578 28.7713 31.2739 28.5775C28.8393 28.0348 29.134 28.7636 27.7926 26.9958C27.7461 26.9338 28.1725 24.5844 28.1493 24.4759C29.1417 23.0182 30.8165 21.6381 33.3906 21.3125C33.5922 21.2892 34.3676 21.2194 34.8793 21.2194C36.1354 20.6379 38.5235 21.6226 39.2213 22.5763C40.9891 24.9721 41.2604 26.7709 41.1286 28.4147Z" fill="#FFB85A"/>
<path d="M39.3607 36.6022C38.9653 37.1992 38.4226 37.7109 37.81 38.1451C37.81 38.1451 37.8023 38.1451 37.7945 38.1529C37.182 38.5793 36.5075 38.9282 35.8407 39.2074C35.6158 39.3004 35.391 39.3779 35.1739 39.4555C33.2045 40.1223 31.5685 40.1378 32.3438 39.6183C32.3981 39.5795 32.4601 39.5252 32.5144 39.471C33.3983 38.5638 33.9178 35.5787 30.0798 34.8731C28.9013 34.6561 27.9166 35.8346 27.7383 35.2996C27.6762 35.129 27.7072 34.7724 27.839 34.1366L27.9709 33.7334L28.0639 33.4465L28.4748 32.1439C28.5136 31.8183 28.6454 31.5391 28.8703 31.2988C30.3202 29.6706 35.3522 29.8566 36.9649 30.2753C40.5858 31.229 41.7256 32.9115 39.353 36.6022H39.3607Z" fill="#FFD985"/>
<path d="M38.7486 37.0906C38.4927 37.4783 38.1671 37.8272 37.8104 38.145C37.8104 38.145 37.8027 38.145 37.7949 38.1528C37.1824 38.5792 36.5079 38.9282 35.8411 39.2073C35.6162 39.3003 35.3913 39.3779 35.1743 39.4554C34.9494 37.4395 35.9263 33.9659 29.5762 33.3379C28.9559 33.2759 28.3977 33.5395 27.979 33.7256L28.072 33.4387L28.483 32.1361C28.5217 31.8104 28.6536 31.5313 28.8784 31.291C30.809 30.1977 34.9416 30.3916 36.376 30.7715C40.0047 31.7252 41.1367 33.4154 38.7486 37.0828V37.0906Z" fill="#E77626"/>
<path d="M39.3609 36.6022C38.9654 37.1992 38.4227 37.7109 37.8102 38.1451C37.8102 38.1451 37.8024 38.1451 37.7947 38.1529C37.1821 38.5793 36.5076 38.9282 35.8408 39.2074C35.4919 37.2302 36.7867 33.5008 30.2117 32.865C29.2503 32.772 28.4439 33.4465 28.0718 33.4465L28.4827 32.1439C28.5215 31.8183 28.6533 31.5391 28.8781 31.2988C30.328 29.6706 35.3601 29.8566 36.9728 30.2753C40.5937 31.229 41.7334 32.9115 39.3609 36.6022Z" fill="#FFB85A"/>
<path d="M28.3663 34.8653C27.2033 36.0594 27.0172 36.1292 25.7922 37.8582C24.7532 39.2848 31.429 41.0914 33.4526 38.6645C35.4608 36.1679 30.5528 32.547 28.3663 34.8653Z" fill="#FFD985"/>
<path d="M12.3788 21.8396C9.35491 21.0798 8.33145 24.0493 8.00581 26.1118C7.82748 27.2515 11.805 26.9104 13.3635 25.8792C15.1778 24.6464 14.8056 22.4676 12.3788 21.8473V21.8396Z" fill="#FFD985"/>
<path d="M25.6371 23.0181C25.6371 23.0181 25.6682 22.8707 25.8232 22.6692C25.9628 22.4598 26.1876 22.2272 26.4203 21.9868C26.5443 21.8705 26.6529 21.7542 26.7769 21.6534C26.901 21.5604 27.025 21.4829 27.1491 21.4208C27.3739 21.2968 27.5678 21.2813 27.56 21.2813V21.3045C27.56 21.3045 27.436 21.4053 27.2576 21.5682C27.1646 21.6379 27.0638 21.7387 26.9397 21.8318C26.8157 21.9248 26.6839 22.0179 26.5521 22.1109C26.428 22.2117 26.2962 22.3125 26.1876 22.421C26.0791 22.5218 25.9628 22.6149 25.893 22.7079C25.7147 22.8707 25.6604 23.0336 25.6527 23.0258H25.6294L25.6371 23.0181Z" fill="#E77626"/>
<path d="M28.8862 20.2889C28.8862 20.2889 28.9017 20.2502 28.9328 20.1726C28.956 20.1028 29.0103 19.9943 29.1033 19.878C29.2662 19.6376 29.5996 19.4128 29.9407 19.2267C30.1113 19.1337 30.2819 19.0406 30.4369 18.9631C30.5998 18.8933 30.7548 18.8313 30.8789 18.777C31.0107 18.7227 31.1115 18.6762 31.189 18.6452C31.2588 18.6064 31.3053 18.5909 31.3053 18.5909L31.3208 18.6064C31.3208 18.6064 31.2123 18.7692 30.9719 18.9398C30.8479 19.0251 30.7083 19.1104 30.5455 19.1879C30.3827 19.2577 30.2043 19.3275 30.026 19.3973C29.6771 19.5446 29.3592 19.7307 29.1731 19.9323C29.0801 20.0253 29.0103 20.1184 28.9793 20.1881C28.9405 20.2579 28.9172 20.2967 28.9172 20.2967H28.894L28.8862 20.2889Z" fill="#E77626"/>
<path d="M26.622 25.1812C26.622 25.1812 26.5289 25.3518 26.3894 25.6154C26.3739 25.6465 26.3584 25.6775 26.3429 25.7162L26.3196 25.7628C26.3196 25.7628 26.3196 25.7628 26.3196 25.7395C26.3041 25.7162 26.2731 25.7162 26.2731 25.7162C26.2498 25.7162 26.2421 25.7317 26.2421 25.7162C26.2421 25.7162 26.2498 25.7085 26.2576 25.7007C26.3041 25.6387 26.3661 25.5612 26.4126 25.4914C26.5212 25.3363 26.6297 25.1735 26.746 25.0107C26.8546 24.8478 26.9631 24.6773 27.0639 24.5222C27.1725 24.3671 27.2888 24.2353 27.3896 24.1268C27.4904 24.0105 27.5757 23.9174 27.6454 23.8632C27.6765 23.8321 27.7075 23.8089 27.723 23.7934C27.754 23.7779 27.723 23.7624 27.7695 23.7856L27.7462 23.7701C27.8005 23.7701 27.754 23.7934 27.7618 23.8089C27.754 23.8321 27.7385 23.8632 27.723 23.9019C27.692 23.9795 27.6299 24.0958 27.5602 24.2198C27.4826 24.3516 27.3973 24.4989 27.2888 24.6463C27.1725 24.7936 27.0484 24.9486 26.9166 25.1037C26.7848 25.2588 26.6608 25.4139 26.5367 25.5612C26.4747 25.631 26.4126 25.7007 26.3506 25.7705C26.3429 25.7783 26.3351 25.786 26.3196 25.8015C26.3196 25.8015 26.3118 25.8093 26.2731 25.817C26.2731 25.817 26.2421 25.817 26.2188 25.786C26.2033 25.755 26.2188 25.7628 26.2188 25.755C26.2188 25.7395 26.2188 25.7317 26.2266 25.724C26.2343 25.7007 26.2498 25.6852 26.2576 25.662C26.2808 25.631 26.3041 25.5922 26.3196 25.5612C26.4979 25.3208 26.6142 25.158 26.6142 25.158H26.6375L26.622 25.1812Z" fill="#E77626"/>
<path d="M29.2271 22.5532C29.2271 22.5532 29.2503 22.5067 29.2968 22.4369C29.3511 22.3672 29.3899 22.2431 29.5062 22.1268C29.5605 22.0648 29.6225 22.0027 29.6845 21.9407C29.7465 21.8709 29.8318 21.8167 29.9094 21.7546C30.0644 21.6228 30.2583 21.522 30.4443 21.4135C30.6304 21.3127 30.8243 21.2119 31.0026 21.1266C31.1809 21.0491 31.3515 20.9793 31.4988 20.9173C31.6539 20.863 31.7547 20.801 31.8477 20.7699C31.933 20.7312 31.9873 20.7157 31.9873 20.7157L32.0028 20.7312C32.0028 20.7312 31.964 20.7699 31.902 20.832C31.8322 20.894 31.7392 20.9948 31.5996 21.0723C31.4601 21.1576 31.305 21.2584 31.1189 21.3437C30.9328 21.4212 30.739 21.4988 30.5374 21.5841C30.3513 21.6771 30.1575 21.7624 29.9946 21.8709C29.9171 21.9252 29.8241 21.964 29.762 22.026C29.6923 22.0803 29.6302 22.1346 29.576 22.1811C29.4519 22.2741 29.3976 22.3982 29.3356 22.4602C29.2813 22.53 29.2503 22.5688 29.2503 22.5688H29.2271V22.5532Z" fill="#E77626"/>
<path d="M35.1431 20.3583C35.1431 20.3583 35.6781 20.3195 36.2053 20.2962C36.3371 20.2962 36.4689 20.2807 36.593 20.273C36.717 20.273 36.8333 20.2962 36.9341 20.3117C37.1357 20.3505 37.2675 20.4048 37.2675 20.4048V20.428C37.2675 20.428 37.1357 20.4746 36.9341 20.5056C36.8333 20.5133 36.717 20.5288 36.593 20.5288C36.4689 20.5288 36.3371 20.5056 36.2053 20.4901C35.6781 20.4513 35.1431 20.3815 35.1431 20.3815V20.3583Z" fill="#E77626"/>
<path d="M25.0013 15.5512C25.0013 15.5512 24.8695 15.7451 24.6757 16.032C24.4664 16.3111 24.2493 16.7143 24.0089 17.1019C23.9081 17.3035 23.8151 17.5051 23.7143 17.699C23.6057 17.885 23.5127 18.0556 23.4429 18.2107C23.2878 18.5131 23.1483 18.7069 23.1483 18.7069H23.125C23.125 18.7069 23.156 18.4821 23.2568 18.1564C23.2801 18.0711 23.3111 17.9858 23.3421 17.8928C23.3731 17.7998 23.4351 17.7145 23.4817 17.6137C23.5902 17.4276 23.7143 17.226 23.8383 17.0322C23.9779 16.8383 24.1097 16.6522 24.2415 16.4739C24.3656 16.2878 24.4896 16.1328 24.6137 16.0009C24.8385 15.7296 24.9936 15.5512 24.9936 15.5512L25.0091 15.5667L25.0013 15.5512Z" fill="#E77626"/>
<path d="M22.2026 20.9402C22.2026 20.9402 22.2104 21.3512 22.2026 21.7621C22.2026 21.8629 22.2026 21.9637 22.2026 22.0645C22.1949 22.1575 22.1639 22.2506 22.1406 22.3281C22.0863 22.4832 22.0243 22.584 22.0243 22.584H22.001C22.001 22.584 21.9623 22.4832 21.939 22.3281C21.939 22.2506 21.9235 22.1653 21.939 22.0645C21.9545 21.9715 21.9778 21.8707 22.001 21.7621C22.0786 21.3512 22.1794 20.948 22.1794 20.948H22.2026V20.9402Z" fill="#E77626"/>
<path d="M19.171 16.9084C19.171 16.9084 19.14 17.048 19.0935 17.2495C19.0314 17.4511 19.0314 17.7225 19.0004 17.9861C19.0004 18.1179 19.0004 18.2575 19.0004 18.3816C18.9927 18.5056 18.9617 18.6297 18.9384 18.7305C18.8841 18.9398 18.8144 19.0716 18.8144 19.0716H18.7911C18.7911 19.0716 18.7523 18.9321 18.7368 18.7305C18.7368 18.6297 18.7368 18.5134 18.7368 18.3816C18.7523 18.2497 18.7833 18.1179 18.8066 17.9784C18.8376 17.8388 18.8686 17.6992 18.8996 17.5674C18.9229 17.4356 18.9694 17.3193 19.0082 17.2263C19.0857 17.0247 19.14 16.8929 19.14 16.8929H19.1633L19.171 16.9084Z" fill="#E77626"/>
<path d="M18.9693 20.6377C18.9693 20.6377 18.9693 20.6609 18.9693 20.6997C18.9693 20.7385 18.9693 20.7927 18.9848 20.8548C19.0158 20.9711 19.0701 21.1261 19.1476 21.2735C19.1864 21.3432 19.2329 21.4208 19.2717 21.4905C19.3027 21.5603 19.3104 21.6456 19.3182 21.7076C19.3259 21.8472 19.2872 21.9403 19.2872 21.9403H19.2639C19.2639 21.9403 19.1941 21.8782 19.1243 21.7697C19.0933 21.7154 19.0468 21.6534 19.0158 21.5836C18.9925 21.5138 18.9693 21.4285 18.9538 21.3432C18.9072 21.1727 18.8762 21.0021 18.8917 20.8625C18.8917 20.7927 18.915 20.7462 18.915 20.7074C18.9227 20.6687 18.9305 20.6454 18.9305 20.6454H18.9538L18.9693 20.6377Z" fill="#E77626"/>
<path d="M12.6733 20.2583C12.6733 20.2583 12.7043 20.2583 12.7663 20.2351C12.8284 20.2273 12.9059 20.1963 13.0144 20.1885C13.0687 20.1885 13.123 20.1885 13.185 20.1808C13.247 20.1808 13.3091 20.1885 13.3711 20.1963C13.5029 20.204 13.627 20.2506 13.7588 20.2893C13.8828 20.3436 14.0069 20.3901 14.1077 20.4522C14.2085 20.5142 14.2783 20.5917 14.348 20.6615C14.4721 20.7933 14.5186 20.9096 14.5186 20.9096L14.5031 20.9251C14.5031 20.9251 14.3713 20.8864 14.2007 20.7933C14.1232 20.7468 14.0224 20.7003 13.9293 20.6382C13.8441 20.5685 13.7433 20.5064 13.6502 20.4444C13.5417 20.3979 13.4409 20.3359 13.3246 20.3126C13.216 20.2738 13.1075 20.2738 13.0067 20.2583C12.9136 20.2506 12.8206 20.2583 12.7586 20.2661C12.6965 20.2661 12.6655 20.2661 12.6655 20.2661V20.2428L12.6733 20.2583Z" fill="#E77626"/>
<path d="M14.9995 21.7934C14.9995 21.7934 15.015 21.7934 15.046 21.7857C15.077 21.7857 15.1158 21.7624 15.1778 21.7624C15.2321 21.7624 15.3096 21.7624 15.3716 21.7779C15.4414 21.7857 15.5112 21.8167 15.581 21.8554C15.643 21.8942 15.7128 21.933 15.7438 21.9872C15.7903 22.0415 15.7903 22.1035 15.7981 22.1501C15.7981 22.2043 15.7903 22.2431 15.7748 22.2741C15.767 22.3051 15.7515 22.3206 15.7515 22.3206H15.7283C15.7283 22.3206 15.6663 22.2741 15.6042 22.2121C15.581 22.1811 15.55 22.1501 15.5112 22.1113C15.4957 22.0648 15.4647 22.026 15.4336 21.9872C15.3949 21.9562 15.3561 21.9175 15.3018 21.8942C15.2553 21.8632 15.2088 21.8554 15.1623 21.8399C15.1158 21.8244 15.0692 21.8244 15.0382 21.8244C15.0072 21.8244 14.9917 21.8244 14.9917 21.8244V21.8012L14.9995 21.7934Z" fill="#E77626"/>
<path d="M30.5839 30.911C30.5839 30.911 30.6226 30.8878 30.6924 30.8568C30.77 30.8258 30.8863 30.7947 31.0258 30.7715C31.3049 30.7172 31.6926 30.7017 32.0648 30.6939C32.2509 30.6939 32.4447 30.6784 32.623 30.6862C32.8014 30.6939 32.9642 30.7172 33.1038 30.7405C33.3829 30.787 33.569 30.849 33.569 30.849V30.8723C33.569 30.8723 33.3751 30.911 33.096 30.9265C32.9564 30.9265 32.7859 30.9421 32.6153 30.9265C32.437 30.911 32.2509 30.8955 32.0648 30.88C31.6926 30.8568 31.3127 30.8413 31.0336 30.8568C30.894 30.8568 30.7777 30.88 30.7002 30.8955C30.6226 30.9188 30.5839 30.9421 30.5839 30.9343L30.5684 30.911H30.5839Z" fill="#E77626"/>
<path d="M36.0811 31.6245C36.0811 31.6245 36.1276 31.6245 36.2051 31.6245C36.2826 31.6245 36.3912 31.6245 36.5308 31.64C36.6626 31.671 36.8331 31.671 36.9882 31.7408C37.0658 31.7718 37.1588 31.7873 37.2363 31.8416C37.3139 31.8881 37.3991 31.9346 37.4767 31.9889L37.686 32.1672C37.7481 32.2293 37.8023 32.299 37.8566 32.3688C37.9574 32.5006 37.9962 32.6479 38.0504 32.7643C38.1202 33.0046 38.128 33.1752 38.128 33.1752H38.1047C38.1047 33.1752 37.9884 33.0434 37.8566 32.834C37.7791 32.7332 37.7093 32.6092 37.6162 32.4929C37.5775 32.4308 37.531 32.3688 37.4922 32.3068L37.3371 32.1285C37.2751 32.0742 37.2053 32.0354 37.1433 31.9811C37.0813 31.9269 37.0037 31.9036 36.9339 31.8648C36.7944 31.7873 36.6471 31.764 36.523 31.7175C36.3912 31.6865 36.2826 31.671 36.2051 31.6555C36.1276 31.64 36.0811 31.6322 36.0811 31.6322V31.609V31.6245Z" fill="#E77626"/>
<path d="M36.3445 34.7881C36.3445 34.7881 36.4298 34.9354 36.5927 35.137C36.7555 35.3386 36.9803 35.6022 37.1664 35.9046C37.2595 36.0519 37.337 36.2225 37.3758 36.3853C37.399 36.5559 37.3758 36.711 37.3215 36.835C37.306 36.8971 37.2517 36.9436 37.2284 36.9901C37.1974 37.0366 37.1664 37.0676 37.1354 37.0909C37.0811 37.1452 37.0424 37.1684 37.0424 37.1684L37.0191 37.1529C37.0191 37.1529 37.0811 36.9979 37.1121 36.7808C37.1277 36.6722 37.1121 36.5482 37.0966 36.4164C37.0734 36.2845 37.0346 36.1295 36.9726 35.9822C36.8408 35.6875 36.6392 35.4084 36.5151 35.1835C36.3833 34.9587 36.3213 34.8036 36.3213 34.8036H36.3445V34.7881Z" fill="#E77626"/>
<path d="M38.8491 33.9276C38.8491 33.9276 38.8879 33.9276 38.9499 33.9431C39.0119 33.9508 39.1127 33.9896 39.2058 34.0671C39.2988 34.1447 39.3764 34.2532 39.4151 34.385C39.4694 34.5168 39.4849 34.6487 39.4927 34.7882C39.4927 34.9278 39.4927 35.0673 39.4694 35.1914C39.4384 35.3155 39.3764 35.424 39.3221 35.5093C39.198 35.6876 39.043 35.7419 39.043 35.7419L39.0197 35.7264C39.0197 35.7264 39.0352 35.6876 39.0585 35.6411C39.074 35.5868 39.105 35.517 39.1282 35.424C39.1515 35.331 39.1748 35.2302 39.198 35.1216C39.229 35.0131 39.2678 34.8968 39.2833 34.7727C39.3143 34.5324 39.2756 34.2687 39.1438 34.1214C39.0817 34.0439 39.0119 34.0051 38.9499 33.9819C38.8879 33.9586 38.8569 33.9508 38.8569 33.9508V33.9276H38.8491Z" fill="#E77626"/>
<path d="M36.5 25.6C36.5 25.6 36.7171 25.4914 37.0815 25.3906C37.4382 25.2898 37.9189 25.189 38.4151 25.1348C38.6632 25.1038 38.9113 25.0882 39.1517 25.096C39.2758 25.1115 39.3921 25.1115 39.5006 25.1503C39.6092 25.1735 39.7099 25.2123 39.803 25.2511C39.896 25.2821 39.9658 25.3596 40.0356 25.4061C40.0899 25.4682 40.1286 25.5302 40.1519 25.5845C40.1752 25.7008 40.1752 25.755 40.1752 25.755H40.1519C40.1519 25.755 40.1209 25.7008 40.0744 25.6232C40.0356 25.5922 39.9891 25.5535 39.9426 25.5147C39.8728 25.4914 39.8185 25.4527 39.7332 25.4372C39.5704 25.3829 39.361 25.3751 39.1439 25.3596C38.9191 25.3441 38.6787 25.3286 38.4384 25.3364C37.9499 25.3519 37.4692 25.4216 37.1048 25.4837C36.7404 25.5457 36.5155 25.631 36.5155 25.631V25.6077L36.5 25.6Z" fill="#E77626"/>
<path d="M36.3603 23.4679C36.3603 23.4679 36.4688 23.3904 36.6394 23.2973C36.7325 23.2508 36.8333 23.1888 36.9496 23.1423C37.0659 23.088 37.2054 23.057 37.345 23.026C37.4148 23.0105 37.4923 23.0105 37.5621 23.0027C37.6396 22.9872 37.7094 23.0027 37.7792 23.026C37.849 23.0492 37.9187 23.057 37.973 23.1035C38.0273 23.1423 38.0738 23.181 38.1126 23.2198C38.1591 23.2508 38.1746 23.3051 38.1979 23.3439C38.2211 23.3826 38.2366 23.4136 38.2444 23.4447C38.2677 23.4989 38.2754 23.5299 38.2754 23.5299L38.2521 23.5454C38.2521 23.5454 38.2211 23.5299 38.1669 23.4912C38.1126 23.4602 38.0661 23.3981 37.9808 23.3671C37.942 23.3516 37.8955 23.3283 37.8567 23.3128C37.8179 23.2818 37.7637 23.2818 37.7094 23.2741C37.6629 23.2586 37.6086 23.2353 37.5466 23.2353C37.4845 23.2353 37.4303 23.2198 37.3682 23.2198C37.2442 23.2353 37.1124 23.2431 36.9961 23.2818C36.8798 23.3051 36.7712 23.3516 36.6782 23.3749C36.4921 23.4447 36.368 23.4989 36.368 23.4989L36.3525 23.4757L36.3603 23.4679Z" fill="#E77626"/>
<path d="M34.3213 21.9327C34.3213 21.9327 34.4143 21.8862 34.5539 21.8242C34.6857 21.7467 34.8873 21.7001 35.0889 21.6304C35.1897 21.6071 35.2905 21.5838 35.3913 21.5683C35.4378 21.5683 35.4843 21.5528 35.5308 21.5683C35.5774 21.5761 35.6161 21.5838 35.6626 21.5916C35.8177 21.6304 35.9185 21.6769 35.9185 21.6769V21.7001C35.9185 21.7001 35.81 21.7467 35.6626 21.7777C35.5929 21.7854 35.5076 21.8009 35.4145 21.8164C35.3215 21.8164 35.2284 21.8164 35.1277 21.8164C34.74 21.8552 34.3368 21.9482 34.3368 21.9482V21.925L34.3213 21.9327Z" fill="#E77626"/>
<path d="M30.0411 14.7451C29.0254 14.8769 28.095 15.4351 27.5755 16.3113C27.4514 16.5129 27.8391 16.4664 27.9399 16.4121C28.5447 16.0477 29.1417 15.6755 29.7387 15.3033C29.9326 15.1793 29.793 15.094 29.6302 15.094C29.7387 15.063 29.8473 15.0397 29.9636 15.0242C30.2039 14.9932 30.359 14.6986 30.0334 14.7373L30.0411 14.7451Z" fill="#FFF8F0"/>
<path d="M26.1337 17.8001C25.8546 18.0483 25.6685 18.3506 25.6142 18.6996C25.5832 18.9089 26.0717 18.8391 26.1027 18.6608C26.1492 18.3662 26.281 18.1103 26.5214 17.9009C26.7385 17.7071 26.281 17.6761 26.1414 17.7924L26.1337 17.8001Z" fill="#FFF8F0"/>
<path d="M25.0714 19.7771C24.9473 20.1958 24.831 20.6067 24.7069 21.0254C24.6449 21.227 25.1489 21.1727 25.1954 20.9944C25.3195 20.5757 25.4358 20.1648 25.5598 19.7461C25.6141 19.5445 25.1256 19.6065 25.0714 19.7771Z" fill="#FFF8F0"/>
<path d="M32.1426 23.2506C31.2276 23.3514 30.398 23.7934 29.9251 24.5299C29.801 24.7238 30.2972 24.7005 30.3903 24.5687C30.7547 24.0027 31.3517 23.5995 32.0728 23.522C32.3131 23.4987 32.4915 23.2196 32.1503 23.2584L32.1426 23.2506Z" fill="#FFF8F0"/>
<path d="M30.7467 25.1042V25.1662C30.7389 25.2438 31.2351 25.1973 31.2429 25.0654V25.0034C31.2429 24.9259 30.7544 24.9724 30.7467 25.1042Z" fill="#FFF8F0"/>
<path d="M32.0495 31.7952C31.7394 31.5703 31.2587 31.6246 30.9408 31.7952C30.8632 31.8417 30.8632 31.8882 30.964 31.896C31.0803 31.9115 31.2354 31.8882 31.3362 31.834C31.406 31.7952 31.5068 31.8805 31.5611 31.9192C31.6774 32.0045 32.1271 31.8495 32.0573 31.7952H32.0495Z" fill="#FFF8F0"/>
<path d="M20.9619 15.3186C20.3648 15.3961 19.8066 15.7993 19.7058 16.3653C19.667 16.5901 20.1555 16.5359 20.1865 16.3343C20.2408 16.0164 20.5044 15.683 20.8766 15.6365C20.9851 15.621 21.1247 15.5744 21.1557 15.4581C21.179 15.3573 21.0549 15.3031 20.9541 15.3108L20.9619 15.3186Z" fill="#FFF8F0"/>
<path d="M12.3941 18.8466C11.8902 19.1722 11.642 19.7227 11.8902 20.1724C11.9599 20.2965 12.4407 20.1491 12.3941 20.0716C12.1848 19.6994 12.3166 19.18 12.7585 18.8931C12.9834 18.7458 12.5027 18.7768 12.3941 18.8466Z" fill="#FFF8F0"/>
<path d="M31.0569 35.3851C31.0569 35.3851 30.0645 34.7803 29.5062 35.199C28.9402 35.6177 27.6841 36.8583 27.3042 37.0986C26.9243 37.339 26.1024 37.998 27.6376 38.0755C29.1806 38.1531 32.7859 36.6179 31.2275 35.4704C29.6845 34.3384 31.0569 35.3851 31.0569 35.3851Z" fill="#FFF8F0"/>
<path d="M8.78893 25.3442C8.78893 25.3442 9.83566 23.7935 10.5955 23.5531C12.1152 23.0724 10.5722 21.669 9.57204 22.8941C8.56408 24.1114 8.45553 25.5458 8.78118 25.3442H8.78893Z" fill="#FFF8F0"/>
<path d="M21.0317 20.979C21.0472 20.9169 21.055 20.8704 21.055 20.8704C21.055 20.8704 21.0395 20.9092 21.0317 20.979Z" fill="#F7DFAD"/>
<g style="mix-blend-mode:multiply" opacity="0.46">
<path d="M24.0323 23.3744C21.055 22.5525 20.9852 21.3352 21.0317 20.9786C20.9387 21.3895 20.5355 22.917 19.4268 23.0255C18.1397 23.1573 17.2403 22.4207 17.2403 22.4207C17.2403 22.4207 16.8603 24.1653 15.55 24.3436C14.2397 24.5219 13.7202 23.5217 13.7202 23.5217C13.7202 23.5217 13.1232 24.9251 12.6657 25.4679C12.2082 26.0106 10.549 26.3828 8.47882 26.5688C8.40128 26.5688 8.3315 26.5688 8.26172 26.5766C9.14562 27.1116 12.0764 26.7317 13.3635 25.8788C13.8287 25.5686 14.1466 25.1887 14.325 24.7933L14.6506 25.0026C16.0307 26.1657 17.5349 24.8476 18.3645 23.545C19.481 24.4211 20.9697 24.9639 22.249 24.7623C23.4121 25.5299 25.0946 26.2354 26.6298 27.5768C26.7461 25.9951 27.9556 24.6305 27.9556 24.6305C27.9556 24.6305 27.5834 24.3824 24.0246 23.3899L24.0323 23.3744Z" fill="#FFCC66"/>
</g>
<g style="mix-blend-mode:multiply" opacity="0.46">
<path d="M40.4233 24.5532C40.6327 25.9178 40.7335 27.5771 40.2527 28.5385C39.3068 30.3761 38.1205 30.7095 38.1205 30.7095C38.1205 30.7095 39.6325 30.8491 39.144 32.5238C38.6478 34.1986 35.7247 38.0443 34.4841 37.4706L33.2513 36.9045C33.2513 36.9045 31.6619 39.4244 27.2656 39.3857C28.8241 39.9284 31.1811 40.1067 32.6621 39.3004C32.6155 39.3624 32.5768 39.4167 32.5225 39.4632C32.4682 39.5175 32.4062 39.5717 32.3519 39.6105C31.5766 40.13 33.2048 40.1145 35.1819 39.4477C35.399 39.3702 35.6239 39.2926 35.8487 39.1996C36.5155 38.9282 37.1901 38.5793 37.8026 38.1451C37.8026 38.1451 37.8104 38.1451 37.8181 38.1374C38.4307 37.7032 38.9734 37.1914 39.3688 36.5944C40.6637 34.6018 40.9118 33.1984 40.2837 32.1672C40.4853 32.0741 40.6094 31.9733 40.6171 31.8415C40.7102 30.8491 40.9428 29.9109 41.0669 28.934C41.0669 28.934 41.0669 28.934 41.0746 28.934C41.0746 28.8642 41.0824 28.7866 41.0901 28.7169C41.1056 28.6161 41.1211 28.5153 41.1289 28.4067C41.2297 27.2514 41.1134 26.0186 40.4233 24.5455V24.5532Z" fill="#FFCC66"/>
</g>
</svg>
