<svg width="393" height="216" viewBox="0 0 393 216" fill="none" xmlns="http://www.w3.org/2000/svg">
<path fill-rule="evenodd" clip-rule="evenodd" d="M0 115.058C0 115.058 15.5073 152.761 113.036 135.058C210.564 117.353 254.311 120.256 298 168.433C326 199.31 398 204 398 204V-18H0V115.058Z" fill="#011B3E"/>
<path style="mix-blend-mode:screen" d="M376.546 44.7802L374.202 43.4767C374.372 42.6473 374.457 41.7839 374.44 40.9036C374.423 39.871 374.253 38.8892 373.981 37.9412L376.292 36.5192C376.546 36.3499 376.648 36.0283 376.529 35.7913L375.748 34.0984C375.646 33.8445 375.34 33.7091 375.035 33.7937L372.385 34.6232C371.434 33.269 370.211 32.1348 368.784 31.3053L369.599 28.4782C369.684 28.1905 369.548 27.8688 369.293 27.7842L367.595 27.0563C367.357 26.9208 367.017 27.0393 366.864 27.3102L365.302 29.951V29.9679C364.486 29.7987 363.62 29.714 362.754 29.7479C361.938 29.7648 361.157 29.8664 360.41 30.0526C360.41 30.0356 360.41 30.0187 360.393 30.0018L358.694 27.4287C358.524 27.1748 358.201 27.0732 357.964 27.2086L356.299 28.0212C356.044 28.1228 355.925 28.4444 356.027 28.7322L356.978 31.4915C355.501 32.4056 354.244 33.6752 353.309 35.148L350.439 34.3862C350.133 34.3016 349.827 34.4539 349.742 34.7248L349.046 36.4515C348.927 36.6885 349.046 37.0101 349.318 37.1625L351.883 38.5845C351.662 39.4986 351.56 40.4635 351.594 41.4453C351.611 42.2918 351.73 43.1043 351.917 43.8999L349.454 45.4235C349.199 45.5928 349.08 45.9144 349.216 46.1514L349.997 47.8443C350.082 48.0982 350.405 48.2336 350.711 48.132L353.377 47.2856C354.363 48.8092 355.688 50.0957 357.25 51.0099L356.588 53.583C356.52 53.8877 356.656 54.1924 356.927 54.277L358.66 54.9541C358.898 55.0726 359.221 54.9541 359.373 54.6833L360.664 52.3472C361.531 52.5334 362.431 52.618 363.348 52.6011C364.197 52.5672 365.03 52.4657 365.828 52.2625L367.204 54.4971C367.357 54.7679 367.697 54.8695 367.934 54.7341L369.633 53.9723C369.888 53.8877 370.024 53.566 369.939 53.2782L369.191 50.8575C370.771 49.8587 372.096 48.5045 373.03 46.8793L375.561 47.5395C375.85 47.6242 376.173 47.4718 376.258 47.201L376.954 45.4912C377.073 45.2542 376.954 44.9157 376.682 44.7802H376.546ZM363.161 49.2493C358.694 49.3509 354.974 45.8298 354.872 41.3607C354.77 36.9085 358.303 33.2013 362.788 33.0997C367.255 32.9981 370.975 36.5192 371.077 40.9883C371.179 45.4574 367.646 49.1477 363.161 49.2493ZM362.822 34.7248C359.255 34.8094 356.418 37.755 356.503 41.3268C356.588 44.8818 359.543 47.6919 363.127 47.6242C366.694 47.5395 369.531 44.594 369.446 41.0221C369.361 37.4672 366.389 34.6402 362.822 34.7248ZM363.025 43.5445C361.718 43.5783 360.63 42.5288 360.596 41.2253C360.579 39.9049 361.616 38.8215 362.924 38.8045C364.248 38.7707 365.336 39.8033 365.353 41.1068C365.386 42.4272 364.35 43.5106 363.025 43.5445Z" fill="white"/>
</svg>
