<svg width="54" height="54" viewBox="0 0 54 54" fill="none" xmlns="http://www.w3.org/2000/svg">
<path d="M48.7545 31.0256C51.2024 18.7864 43.2649 6.88011 31.0256 4.43225C18.7864 1.98438 6.88012 9.92187 4.43225 22.1611C1.98439 34.4004 9.92188 46.3066 22.1611 48.7545C34.4004 51.2024 46.3066 43.2649 48.7545 31.0256Z" fill="white"/>
<g clip-path="url(#clip0_1_1524)">
<path d="M41.3425 29.6125C41.0442 27.3595 39.3162 25.616 37.4756 24.4612C35.9334 23.4875 34.2054 22.8309 32.4436 22.3893C28.7287 21.4666 24.7211 21.4553 21.0005 22.3554C19.1937 22.7969 17.415 23.4705 15.839 24.4725C14.0378 25.6216 12.3605 27.3312 12.0509 29.5389C12.0002 29.9125 11.9834 30.2691 12.0059 30.6144C12.0059 30.6994 12.0171 30.7843 12.0284 30.8635C12.0453 30.9937 12.0622 31.1183 12.0847 31.2485C12.1016 31.3447 12.1241 31.4409 12.1522 31.5371C12.1522 31.5541 12.1522 31.5655 12.1635 31.5824C12.1747 31.6447 12.1916 31.7013 12.2141 31.7579C12.231 31.8259 12.2535 31.8881 12.2761 31.956C12.3042 32.0466 12.3436 32.1372 12.3774 32.2278C12.3943 32.2844 12.4224 32.3353 12.4449 32.3863C12.4731 32.4599 12.5125 32.5334 12.5462 32.607C13.0753 33.6882 13.9534 34.6223 14.9778 35.3978C15.051 35.4544 15.1242 35.5054 15.203 35.562C15.6533 35.8903 16.1317 36.1846 16.6158 36.4507C16.7171 36.5073 16.8128 36.5583 16.9085 36.6092C17.0098 36.6602 17.1111 36.7111 17.2068 36.762C17.4038 36.8639 17.6008 36.9545 17.7978 37.0394C17.9948 37.13 18.1918 37.2149 18.3888 37.2885C18.4563 37.3168 18.5183 37.3451 18.5858 37.3678C17.1336 36.7564 15.8109 35.9129 14.7245 34.7695C14.6626 34.7015 14.6063 34.6393 14.5444 34.5713C15.8897 36.0488 17.8822 37.1243 19.5933 37.73C19.3232 37.6451 19.053 37.5489 18.7715 37.4357C18.901 37.4923 19.0305 37.5432 19.1599 37.5885C19.9592 37.8885 20.7866 38.1206 21.6253 38.3018C22.7735 38.5452 23.9387 38.6867 25.0813 38.7546C25.177 38.7603 25.2727 38.766 25.3683 38.7716C25.5822 38.7829 25.7905 38.7886 25.9988 38.7999C26.0888 38.7999 26.1789 38.7999 26.2746 38.7999C26.404 38.7999 26.5335 38.7999 26.6629 38.7999C26.8262 38.7999 26.9838 38.7999 27.1526 38.7999C24.7492 37.1526 23.1394 35.1884 22.7341 33.3429C22.3626 32.8731 22.16 32.2334 22.205 31.373C22.2895 29.5389 23.3308 28.5992 24.828 28.3501C25.616 28.2199 26.4547 28.1973 27.2821 28.2822C29.7869 27.8124 33.0402 28.1011 36.3724 29.2502C37.8302 29.754 39.1755 30.3767 40.3744 31.0843C40.3744 30.9088 40.3744 30.7333 40.3631 30.5578C40.38 30.739 40.3857 30.9145 40.38 31.0899C40.6671 31.2598 40.9485 31.4296 41.2131 31.6107C41.3031 31.2994 41.3763 30.9711 41.3763 30.6541C41.3763 30.6541 41.3763 30.6541 41.3763 30.6427C41.3763 30.6258 41.3763 30.6088 41.3763 30.5918C41.3932 30.2691 41.3819 29.9408 41.3425 29.6181V29.6125Z" fill="#70F1FF"/>
<path d="M14.5444 34.5769C14.4825 34.509 14.4206 34.4411 14.3699 34.3675C13.4975 33.3429 12.9571 32.1258 13.0247 30.7446C13.0247 30.7106 13.0247 30.6767 13.0247 30.6427C13.0247 30.5465 13.0416 30.4502 13.0528 30.354C13.0528 30.337 13.0528 30.3257 13.0584 30.3087C13.0584 30.2408 13.0753 30.1672 13.0866 30.0936C13.0978 30.02 13.1147 29.9521 13.1316 29.8785C13.1316 29.8672 13.1316 29.8615 13.1372 29.8502C13.1541 29.7653 13.1823 29.6804 13.2048 29.5955C13.2217 29.5389 13.2329 29.4879 13.2554 29.437C13.8465 27.5293 15.4112 26.1367 17.2068 25.1574C17.2743 25.1178 17.3362 25.0838 17.4038 25.0499C19.1374 24.1045 21.1131 23.5328 23.0831 23.2384C23.2745 23.2101 23.4602 23.1818 23.6516 23.1592C25.025 22.9723 26.4209 22.9271 27.8112 22.995C28.0814 23.0063 28.3515 23.0233 28.6217 23.0459C28.7568 23.0516 28.8863 23.0686 29.0157 23.0856C30.9126 23.2667 32.7982 23.6913 34.5431 24.4272C34.6275 24.4668 34.7176 24.5064 34.8076 24.5404C35.1735 24.6932 35.545 24.8687 35.8996 25.0612C35.7983 24.9989 35.7082 24.948 35.6238 24.897L35.9221 25.0725C36.378 25.3102 36.8283 25.5763 37.2505 25.8707C37.2617 25.8763 37.273 25.8876 37.2843 25.8933C38.6295 26.8443 39.7271 28.067 40.1605 29.6238C40.1886 29.7143 40.2112 29.7992 40.228 29.8898C40.2449 29.9577 40.2618 30.0313 40.2731 30.0993C40.2731 30.1163 40.2787 30.1332 40.2787 30.1559C40.29 30.2012 40.2956 30.2521 40.3012 30.2974C40.3181 30.388 40.3294 30.4785 40.335 30.5635C40.3519 30.7446 40.3575 30.9201 40.3519 31.0956C40.6389 31.2654 40.9204 31.4352 41.1849 31.6164C41.275 31.305 41.3482 30.9767 41.3482 30.6597C41.3482 30.6597 41.3482 30.6597 41.3482 30.6484C41.3482 30.6314 41.3482 30.6144 41.3482 30.5974C41.365 30.2748 41.3538 29.9464 41.3144 29.6238C41.0161 27.3708 39.2881 25.6273 37.4475 24.4725C35.9052 23.4988 34.1772 22.8421 32.4154 22.4006C28.7005 21.4779 24.6929 21.4666 20.9724 22.3666C19.1656 22.8082 17.3869 23.4818 15.8109 24.4838C14.0378 25.6216 12.3605 27.3311 12.0509 29.5389C12.0002 29.9125 11.9834 30.2691 12.0059 30.6144C12.0059 30.6993 12.0171 30.7842 12.0284 30.8635C12.0453 30.9937 12.0622 31.1182 12.0847 31.2484C12.1016 31.3446 12.1241 31.4409 12.1522 31.5371C12.1522 31.5541 12.1522 31.5654 12.1635 31.5824C12.1747 31.6447 12.1916 31.7013 12.2141 31.7579C12.231 31.8258 12.2535 31.8881 12.2761 31.956C12.3042 32.0466 12.3436 32.1371 12.3774 32.2277C12.3943 32.2843 12.4224 32.3353 12.4449 32.3862C12.4731 32.4598 12.5125 32.5334 12.5462 32.607C13.0753 33.6882 13.9534 34.6222 14.9778 35.3978C15.051 35.4544 15.1242 35.5053 15.203 35.5619C15.6533 35.8902 16.1317 36.1846 16.6158 36.4507C16.7171 36.5073 16.8128 36.5582 16.9085 36.6092C17.0098 36.6601 17.1111 36.7111 17.2068 36.762C17.4038 36.8639 17.6008 36.9545 17.7978 37.0394C17.9948 37.13 18.1918 37.2149 18.3888 37.2885C18.4563 37.3168 18.5183 37.3451 18.5858 37.3677C17.1336 36.7563 15.8109 35.9129 14.7245 34.7694C14.6626 34.7015 14.6063 34.6392 14.5444 34.5713V34.5769Z" fill="#B5F7F5"/>
<path d="M13.0249 30.7441C13.0305 30.6139 13.0362 30.4894 13.053 30.3592C13.0418 30.4498 13.0305 30.546 13.0249 30.6479C13.0249 30.6819 13.0249 30.7158 13.0249 30.7498V30.7441Z" fill="#70F1FF"/>
<path d="M28.6274 23.0459C28.3572 23.0232 28.0871 23.0063 27.8169 22.9949C28.0871 23.0119 28.3572 23.0176 28.6274 23.0459Z" fill="#70F1FF"/>
<path d="M37.149 25.7968L36.7212 25.5364C36.8844 25.6383 37.0251 25.7232 37.149 25.7968Z" fill="#EEFFFF"/>
<path d="M35.6406 24.8916C35.7194 24.9425 35.8151 24.9935 35.9164 25.0557C35.9221 25.0557 35.9333 25.0557 35.9389 25.067L35.6406 24.8916Z" fill="#B5F7F5"/>
<path d="M32.4493 23.725C33.1248 23.9062 33.8396 24.1383 34.5488 24.427C32.804 23.6967 30.9183 23.2722 29.0215 23.0854C30.1866 23.2042 31.3292 23.4193 32.4493 23.725Z" fill="#B5F7F5"/>
<path d="M21.0734 23.6683C21.7376 23.4928 22.4074 23.357 23.0885 23.2438C21.1185 23.5381 19.1428 24.1042 17.4092 25.0552C18.6081 24.4269 19.9027 23.974 21.0791 23.6683H21.0734Z" fill="#B5F7F5"/>
<path d="M21.6255 38.3073C20.7868 38.1318 19.9538 37.894 19.1602 37.594C19.9594 37.894 20.7868 38.1261 21.6255 38.3073Z" fill="#EEFFFF"/>
<path d="M18.6479 37.396C18.8168 37.4639 18.9857 37.5319 19.1545 37.5941C19.0251 37.5489 18.8956 37.4922 18.7662 37.4413C18.7268 37.43 18.6873 37.413 18.6479 37.396Z" fill="#EEFFFF"/>
<path d="M19.5875 37.7355C17.8764 37.1298 15.8838 36.0542 14.5386 34.5768C14.6005 34.6447 14.6568 34.707 14.7187 34.7749C15.805 35.9184 17.1278 36.7618 18.58 37.3732C18.5968 37.3789 18.625 37.3902 18.6419 37.4015C18.6869 37.4185 18.7207 37.4298 18.7601 37.4468C19.0415 37.56 19.3117 37.6562 19.5819 37.7412L19.5875 37.7355Z" fill="#B5F7F5"/>
<path d="M22.813 31.3388C22.5935 31.9784 22.5766 32.6577 22.7286 33.354C23.1508 33.8805 23.7868 34.1918 24.5692 34.3446C26.3704 34.7069 28.4361 34.5484 30.0628 33.637L30.2147 33.5465C30.9521 33.088 31.6444 32.3917 31.6894 31.4746C31.7345 30.5123 31.0309 29.7424 30.2767 29.2669C29.393 28.7008 28.346 28.4008 27.2766 28.2876C25.0082 28.7122 23.3534 29.7538 22.813 31.3388Z" fill="#7CF2FF"/>
<path d="M40.3742 31.0897C40.3348 32.3577 39.772 33.5465 38.9502 34.5145C39.7945 33.5465 40.3574 32.403 40.3799 31.0954L40.3742 31.0897Z" fill="#B5F7F5"/>
<path d="M38.9446 34.5087C38.9052 34.554 38.8714 34.5936 38.832 34.6332C38.8039 34.6729 38.7701 34.7068 38.7363 34.7408C38.7082 34.7748 38.6744 34.8087 38.635 34.8427C37.5487 35.9862 36.2091 36.824 34.7456 37.4297C34.7625 37.4297 34.785 37.424 34.8019 37.4127C34.9482 37.3561 35.0946 37.2995 35.2409 37.2372C35.5899 37.0957 35.9333 36.9428 36.271 36.7787C36.4004 36.7164 36.5186 36.6485 36.6425 36.5919C36.6875 36.5692 36.7325 36.5409 36.7832 36.5183C36.9126 36.4447 37.0477 36.3654 37.1772 36.2919C37.2335 36.2636 37.2954 36.2239 37.3461 36.19C37.4755 36.1107 37.5993 36.0315 37.7232 35.9522C37.8526 35.8673 37.9708 35.7824 38.0947 35.6918C38.1622 35.6465 38.2241 35.6012 38.2804 35.556C38.3986 35.4654 38.5168 35.3748 38.635 35.2786C39.3836 34.7748 40.0647 33.9483 40.5263 33.1898C40.8246 32.8897 41.0047 32.2784 41.1285 31.8821C41.1567 31.7972 41.1848 31.7123 41.2073 31.6217C40.9371 31.4462 40.6613 31.2707 40.3743 31.1009C40.3518 32.4086 39.7889 33.552 38.9446 34.52V34.5087Z" fill="#98F4F1"/>
<path d="M40.3516 30.5578C40.346 30.4729 40.3347 30.3823 40.3179 30.2917C40.3179 30.2464 40.3066 30.1955 40.2953 30.1502C40.2953 30.1332 40.2953 30.1162 40.2897 30.0936C40.2785 30.0257 40.2616 29.9521 40.2447 29.8842C40.2278 29.7936 40.2053 29.7087 40.1771 29.6181C39.8056 28.3444 38.9276 27.2519 37.92 26.4028C37.5148 26.0631 37.0757 25.7574 36.6254 25.4801L36.5072 25.4121C35.9669 25.0895 35.404 24.7951 34.8243 24.5404C34.7342 24.5064 34.6442 24.4668 34.5597 24.4272C33.8449 24.1385 33.13 23.9064 32.4602 23.7252C31.3457 23.4195 30.1975 23.2044 29.0324 23.0856C28.9029 23.0686 28.7734 23.0573 28.6384 23.0459C28.3682 23.0233 28.098 23.012 27.8278 22.995C27.1242 22.961 26.4263 22.961 25.734 22.995C25.0585 23.0233 24.3606 23.0742 23.6682 23.1591C23.4769 23.1875 23.2855 23.2158 23.0997 23.2384C22.4243 23.3516 21.7489 23.4875 21.0847 23.663C19.9083 23.9686 18.6193 24.4215 17.4148 25.0498C17.3472 25.0838 17.2853 25.1178 17.2178 25.1574C16.5029 25.565 15.8275 26.0348 15.214 26.5839C14.3528 27.3594 13.6211 28.3274 13.2608 29.4313C13.2439 29.4822 13.227 29.5332 13.2102 29.5898C13.1876 29.6747 13.1651 29.7596 13.1426 29.8445C13.1426 29.8558 13.1426 29.8615 13.137 29.8728C13.1201 29.9464 13.1088 30.0144 13.092 30.0879C13.0751 30.1559 13.0638 30.2295 13.0638 30.3031C13.0582 30.32 13.0582 30.3314 13.0582 30.3483C13.0413 30.4785 13.0357 30.6087 13.03 30.7333C12.9794 32.0749 13.5366 33.3316 14.3753 34.3562C14.4316 34.4298 14.4935 34.4977 14.5498 34.5656C15.895 36.0431 17.8876 37.1186 19.5987 37.7243C19.3285 37.6394 19.0584 37.5432 18.7769 37.43C18.9064 37.4866 19.0358 37.5375 19.1653 37.5828C19.9646 37.8828 20.792 38.1149 21.6307 38.2961C22.7789 38.5395 23.944 38.681 25.0867 38.7489C25.1824 38.7546 25.278 38.7603 25.3737 38.7659C25.5876 38.7772 25.7959 38.7829 26.0041 38.7942C26.0942 38.7942 26.1843 38.7942 26.2799 38.7942C26.4094 38.7942 26.5389 38.7942 26.6683 38.7942C26.8316 38.7942 26.9892 38.7942 27.158 38.7942H27.1693C27.2987 38.7942 27.4282 38.7942 27.5633 38.7886C27.6815 38.7886 27.7997 38.7829 27.9123 38.7772C28.2218 38.7659 28.537 38.7489 28.8522 38.7206C28.993 38.715 29.1393 38.7036 29.28 38.6867C30.1187 38.6074 30.9686 38.4885 31.8073 38.3131C31.9199 38.2904 32.0324 38.2678 32.1506 38.2395C32.2407 38.2225 32.3308 38.1942 32.4208 38.1715C32.7248 38.0979 33.0231 38.0187 33.3214 37.9281C33.4678 37.8885 33.6085 37.8375 33.7548 37.7866C34.0869 37.679 34.4134 37.5602 34.7342 37.4243C34.4303 37.5432 34.1263 37.6451 33.8224 37.7413C35.4434 37.1696 37.3234 36.1846 38.6518 34.826C38.7193 34.7581 38.7812 34.6902 38.8488 34.6166C38.8882 34.5769 38.9219 34.5373 38.9613 34.492C39.7831 33.524 40.346 32.3409 40.3854 31.0673C40.3854 30.8918 40.3854 30.7163 40.3741 30.5408L40.3516 30.5578ZM30.2144 33.5467L30.0624 33.6372C28.4357 34.5486 26.37 34.7071 24.5688 34.3448C23.7921 34.1863 23.1504 33.8807 22.7282 33.3542C22.3568 32.8844 22.1541 32.2447 22.1992 31.3843C22.2836 29.5502 23.3249 28.6105 24.8221 28.3614C25.6101 28.2312 26.4488 28.2086 27.2762 28.2935C28.34 28.4067 29.387 28.7067 30.2763 29.2728C31.0305 29.754 31.7341 30.5238 31.6891 31.4805C31.6441 32.3919 30.9517 33.0938 30.2144 33.5523V33.5467Z" fill="#7CF2FF"/>
<path d="M38.8323 34.6335C38.7647 34.7071 38.7028 34.775 38.6353 34.843C38.6747 34.809 38.7028 34.775 38.7366 34.7411C38.7703 34.7071 38.8041 34.6732 38.8323 34.6335Z" fill="#B5F7F5"/>
<path d="M36.2713 36.7731C35.9335 36.9372 35.5902 37.0901 35.2412 37.2316C35.5902 37.0901 35.9335 36.9429 36.2713 36.7731Z" fill="#B5F7F5"/>
<path d="M33.8057 37.7586C34.1096 37.6624 34.4136 37.5549 34.7175 37.4416C34.7231 37.4416 34.7344 37.4416 34.7457 37.4303C36.2147 36.8246 37.5544 35.9868 38.6351 34.8433C37.3011 36.2019 35.4267 37.1869 33.8057 37.7586Z" fill="#B5F7F5"/>
<path d="M30.4455 34.022C28.8188 34.939 26.7531 35.0919 24.9519 34.7296C23.4885 34.4352 21.2201 33.5012 21.3045 31.6671C21.3946 29.833 23.708 28.9896 25.2052 28.7461C27.012 28.4518 29.0834 28.6499 30.6594 29.6519C31.4136 30.133 32.1172 30.9029 32.0722 31.8596C32.0272 32.8332 31.2391 33.5691 30.4399 34.022C28.3066 35.2277 32.5731 32.8162 30.4399 34.022H30.4455Z" fill="#B5F7F5"/>
<path d="M30.215 33.5467L30.063 33.6373C30.1193 33.609 30.1699 33.575 30.215 33.5467Z" fill="#EEFFFF"/>
<path d="M40.3184 30.2916C40.3184 30.2407 40.3072 30.1954 40.2959 30.1501C40.3072 30.1954 40.3128 30.2463 40.3184 30.2916Z" fill="#B5F7F5"/>
<path d="M38.8323 34.6337C38.8041 34.6733 38.7703 34.7072 38.7366 34.7412C38.7084 34.7752 38.6747 34.8091 38.6353 34.8431C38.7028 34.7752 38.7647 34.7072 38.8323 34.6337Z" fill="#B5F7F5"/>
<path d="M38.2808 35.5505C38.399 35.46 38.5172 35.3694 38.6354 35.2731C38.5172 35.3694 38.4046 35.46 38.2808 35.5505Z" fill="#B5F7F5"/>
<path d="M38.6356 34.8435C37.5492 35.9869 36.2096 36.8247 34.7461 37.4304C34.7405 37.4361 34.7293 37.4418 34.718 37.4418C34.414 37.5606 34.1101 37.6625 33.8062 37.7588C35.4272 37.187 37.3072 36.202 38.6356 34.8435Z" fill="#B5F7F5"/>
<path d="M37.3467 36.1847C37.4761 36.1054 37.6 36.0262 37.7238 35.9469C37.6 36.0262 37.4761 36.1111 37.3467 36.1847Z" fill="#B5F7F5"/>
<path d="M36.7837 36.5132C36.9132 36.4396 37.0482 36.3603 37.1777 36.2868C37.0482 36.366 36.9188 36.4396 36.7837 36.5132Z" fill="#B5F7F5"/>
<path d="M36.7217 25.5365L37.1495 25.7969C37.0256 25.7233 36.8849 25.6384 36.7217 25.5365Z" fill="#EEFFFF"/>
<path d="M36.643 36.5864C36.5191 36.6543 36.3953 36.7166 36.2715 36.7732C36.4009 36.7109 36.5191 36.643 36.643 36.5864Z" fill="#B5F7F5"/>
<path d="M35.6411 24.8917L35.9394 25.0672C35.9394 25.0672 35.9225 25.0558 35.9169 25.0558C35.8156 24.9936 35.7255 24.9426 35.6411 24.8917Z" fill="#B5F7F5"/>
<path d="M35.2412 37.2376C35.5902 37.0961 35.9335 36.9432 36.2713 36.7791C35.9335 36.9489 35.5902 37.1017 35.2412 37.2376Z" fill="#B5F7F5"/>
<path d="M33.3052 37.9396C33.4515 37.8943 33.5922 37.849 33.7386 37.798C33.5979 37.849 33.4515 37.8943 33.3052 37.9396Z" fill="#EEFFFF"/>
<path d="M34.5547 24.4271C33.8399 24.1384 33.125 23.9063 32.4552 23.7251C31.3407 23.4195 30.1925 23.2044 29.0273 23.0855C30.9242 23.2666 32.8098 23.6912 34.5547 24.4271Z" fill="#B5F7F5"/>
<path d="M31.791 38.3244C31.9036 38.3017 32.0162 38.2791 32.1344 38.2508C32.0162 38.2791 31.9092 38.3017 31.791 38.3244Z" fill="#EEFFFF"/>
<path d="M28.8413 38.7321C28.982 38.7265 29.1284 38.7151 29.2691 38.6982C29.1284 38.7095 28.982 38.7265 28.8413 38.7321Z" fill="#EEFFFF"/>
<path d="M23.0834 23.2386C22.408 23.3518 21.7325 23.4876 21.0683 23.6631C19.8919 23.9688 18.603 24.4217 17.3984 25.05C19.1321 24.1047 21.1077 23.5329 23.0778 23.2386H23.0834Z" fill="#B5F7F5"/>
<path d="M21.6255 38.3074C20.7868 38.1319 19.9538 37.8998 19.1602 37.5941C19.9594 37.8941 20.7868 38.1262 21.6255 38.3074Z" fill="#EEFFFF"/>
<path d="M18.7662 37.4414C18.8956 37.498 19.0251 37.549 19.1545 37.5943C18.98 37.532 18.8168 37.4641 18.6479 37.3961C18.693 37.4131 18.7268 37.4244 18.7662 37.4414Z" fill="#EEFFFF"/>
<path d="M19.5882 37.736C19.318 37.6511 19.0479 37.5548 18.7664 37.4416C18.727 37.4303 18.6876 37.4133 18.6482 37.3963C18.6313 37.3907 18.6032 37.3793 18.5863 37.368C17.1341 36.7567 15.8114 35.9132 14.725 34.7697C14.6631 34.7018 14.6068 34.6395 14.5449 34.5716C15.8902 36.0491 17.8827 37.1246 19.5938 37.7303L19.5882 37.736Z" fill="#B5F7F5"/>
<path d="M18.5859 37.3737C18.5859 37.3737 18.631 37.3907 18.6479 37.402C18.631 37.3963 18.6085 37.385 18.5859 37.3737Z" fill="#B5F7F5"/>
<path d="M17.7979 37.0391C17.9949 37.1297 18.1919 37.2146 18.3889 37.2882C18.1919 37.209 17.9949 37.1297 17.7979 37.0391Z" fill="#B5F7F5"/>
<path d="M16.9087 36.6148C17.01 36.6657 17.1113 36.7167 17.207 36.7676C17.1057 36.7167 17.01 36.6657 16.9087 36.6148Z" fill="#B5F7F5"/>
<path d="M16.6216 36.4564C16.7229 36.513 16.8186 36.5639 16.9143 36.6149C16.8186 36.5639 16.7173 36.513 16.6216 36.4564Z" fill="#B5F7F5"/>
<path d="M14.9839 35.4038C15.0571 35.4604 15.1302 35.5113 15.209 35.5679C15.1302 35.517 15.0571 35.466 14.9839 35.4038Z" fill="#B5F7F5"/>
<path d="M13.2052 29.5957C13.1827 29.6806 13.1602 29.7655 13.1377 29.8504C13.1546 29.7655 13.1827 29.6806 13.2052 29.5957Z" fill="#B5F7F5"/>
<path d="M12.3833 32.2335C12.4002 32.2901 12.4283 32.341 12.4508 32.392C12.4283 32.3354 12.4058 32.2901 12.3833 32.2335Z" fill="#B5F7F5"/>
<path d="M12.1694 31.5822C12.1807 31.6444 12.1976 31.701 12.2201 31.7576C12.1976 31.701 12.1807 31.6388 12.1694 31.5822Z" fill="#B5F7F5"/>
<path d="M12.0908 31.2541C12.1077 31.3504 12.1302 31.4466 12.1584 31.5428C12.1302 31.4523 12.1077 31.356 12.0908 31.2541Z" fill="#B5F7F5"/>
<path d="M12.0117 30.6205C12.0117 30.7055 12.023 30.7904 12.0342 30.8696C12.023 30.7904 12.0173 30.7055 12.0117 30.6205Z" fill="#B5F7F5"/>
<path d="M36.4116 19.8535V19.9158C36.4003 20.3856 36.299 20.8215 36.1302 21.2234C35.5054 22.7065 33.9575 23.7538 32.5334 24.3765C30.8111 25.1293 28.9086 25.4577 27.0398 25.4916C25.1542 25.5256 23.2349 25.2539 21.4618 24.5859C19.8239 23.9689 18.0058 22.8877 17.3022 21.1951C17.2347 21.0423 17.184 20.8838 17.139 20.7253C16.5367 18.5232 18.2704 16.7061 20.0434 15.7324C21.6588 14.8437 23.5107 14.3965 25.34 14.2493C27.2481 14.0965 29.1956 14.255 31.0306 14.7928C32.8655 15.3249 34.8356 16.2929 35.8656 17.9798C36.2033 18.5459 36.4172 19.1912 36.4172 19.8535H36.4116Z" fill="#B5F7F5"/>
<path d="M26.7191 25.6893C24.7997 25.6893 23.0098 25.378 21.3943 24.7666C19.869 24.1892 17.8933 23.1137 17.1222 21.2682C17.0603 21.1211 17.004 20.9569 16.9477 20.7758C16.3229 18.4888 18.0847 16.5811 19.9478 15.5622C21.4619 14.73 23.2687 14.2206 25.3232 14.0564C27.3157 13.8923 29.2857 14.0847 31.0813 14.6055C32.7192 15.081 34.9088 16.0377 36.0289 17.8774C36.406 18.5114 36.6086 19.1907 36.6086 19.8531V19.9153C36.5974 20.3965 36.4961 20.8607 36.3103 21.2966C35.573 23.0457 33.6761 24.0873 32.6123 24.5515C30.9687 25.2704 29.0944 25.6497 27.0455 25.6837C26.9386 25.6837 26.8316 25.6837 26.7191 25.6837V25.6893ZM26.7078 14.3847C26.2575 14.3847 25.8016 14.4017 25.3513 14.4413C23.3531 14.5998 21.597 15.0923 20.1335 15.9018C18.3999 16.8528 16.7507 18.6077 17.3192 20.6739C17.3642 20.838 17.4205 20.9852 17.4768 21.1211C18.1916 22.8419 20.0772 23.8609 21.5294 24.41C23.1899 25.0383 25.0642 25.3383 27.0343 25.3044C29.0324 25.2704 30.8561 24.9025 32.4547 24.2062C33.4678 23.7646 35.269 22.7797 35.9557 21.155C36.1189 20.7588 36.209 20.3455 36.2203 19.9153V19.8587C36.2203 19.27 36.0401 18.6586 35.6968 18.0869C34.6442 16.3547 32.5447 15.4433 30.9743 14.9848C29.6291 14.5942 28.1938 14.3961 26.7078 14.3961V14.3847Z" fill="white"/>
<path d="M35.8605 20.6911C35.7648 20.5326 35.6578 20.3797 35.5453 20.2325C34.8923 21.6591 33.3895 22.678 31.9992 23.2894C30.2768 24.0422 28.3743 24.3762 26.5056 24.4045C24.62 24.4385 22.7006 24.1668 20.9276 23.4988C19.633 23.012 18.2315 22.2365 17.3534 21.0986C17.3365 21.1326 17.3196 21.1666 17.3027 21.1949C18.0063 22.8874 19.8244 23.9687 21.4623 24.5857C23.2354 25.2537 25.1547 25.5254 27.0403 25.4914C28.9091 25.4631 30.8116 25.1291 32.5339 24.3762C33.9636 23.7535 35.5115 22.7063 36.1306 21.2232C36.0518 21.0364 35.9674 20.8609 35.8605 20.6911Z" fill="#EDAE83"/>
<path d="M20.3081 19.0157C21.9235 18.1269 23.7753 17.6797 25.6047 17.5325C27.5128 17.3797 29.4603 17.5382 31.2953 18.076C32.7868 18.5118 34.3685 19.2364 35.4605 20.4025C35.4886 20.3459 35.5224 20.295 35.5505 20.2384C34.4642 18.8289 32.6912 17.9911 31.0307 17.5042C29.1958 16.9721 27.2482 16.808 25.3401 16.9608C23.5108 17.108 21.659 17.5552 20.0435 18.4439C18.9516 19.044 17.8765 19.9667 17.353 21.0988C17.46 21.2403 17.5782 21.3762 17.702 21.5064C18.248 20.4478 19.2668 19.5874 20.3081 19.0157Z" fill="#DDAE8E"/>
<path d="M20.9271 23.4987C22.7002 24.1666 24.6196 24.4384 26.5052 24.4044C28.3739 24.3761 30.2764 24.0421 31.9987 23.2892C33.3384 22.7062 34.7681 21.7382 35.4548 20.3966C34.3628 19.2304 32.7811 18.5059 31.2895 18.07C29.4546 17.5379 27.5071 17.3737 25.5989 17.5265C23.7696 17.6737 21.9178 18.1209 20.3024 19.0097C19.2667 19.5814 18.2479 20.4475 17.6963 21.5004C18.5744 22.4175 19.7902 23.0628 20.9215 23.493L20.9271 23.4987Z" fill="#EDBE9D"/>
<path d="M35.0837 29.1876L34.5996 28.3498C34.791 28.2366 36.5246 27.2516 37.6897 27.4498C37.7179 27.4498 37.8924 27.3818 38.1344 27.0422C38.8211 26.0742 39.2827 24.1156 38.838 22.8589C38.7085 22.4853 38.5397 22.406 38.4215 22.3777C37.8136 22.2305 36.6653 23.0853 36.2094 23.5212L35.5452 22.8192C35.7253 22.6438 37.3577 21.1323 38.641 21.438C38.9956 21.5229 39.474 21.7833 39.7386 22.5362C40.3409 24.2344 39.7048 26.6742 38.7592 27.8064C38.2695 28.3951 37.8192 28.4574 37.5209 28.4121C36.9017 28.3045 35.6916 28.8366 35.078 29.1989L35.0837 29.1876Z" fill="#BCF8FF"/>
<path d="M36.4118 19.8701C36.4118 20.1305 36.4118 20.2381 36.4118 19.8701C36.4118 20.2381 36.3442 20.606 36.226 20.957C35.6969 22.508 34.2898 23.5609 32.8151 24.2459C32.8376 26.2611 32.6293 29.4991 31.2109 31.3445C30.4229 32.3691 29.5054 33.0427 28.5767 33.4899C30.5017 33.1559 32.3254 32.3068 33.7832 30.8916C35.2129 29.4878 36.1529 27.6933 36.3442 25.6837C36.5243 23.7647 36.3893 21.8004 36.4174 19.8758L36.4118 19.8701Z" fill="#A9FBFF"/>
<path d="M18.5409 25.4967C18.5409 25.4967 18.2538 27.829 19.312 29.0064C20.3702 30.1838 21.3046 30.648 21.3046 30.648C21.3046 30.648 20.4715 29.5385 20.7586 28.0724L21.0456 26.6062L18.5409 25.4967Z" fill="#EEFFFF"/>
<path d="M32.8148 24.2511C32.4489 24.421 32.0831 24.5681 31.7229 24.6927C31.3401 24.8285 30.9517 24.9361 30.5633 25.038C29.1111 25.4059 27.597 25.5418 26.1054 25.4852C24.248 25.4173 22.3624 25.0493 20.6681 24.2568C18.9232 23.4416 17.0095 21.9472 17.0095 19.8244C17.0208 20.6452 17.0039 21.4604 17.0039 22.2812C17.0039 23.7247 16.8744 25.2248 17.1896 26.6456C17.8819 29.776 20.4374 32.1536 23.398 33.1499C23.4881 33.1782 23.5838 33.2008 23.6738 33.2235C25.278 33.6763 26.961 33.7669 28.5764 33.4895C29.5052 33.048 30.4226 32.3687 31.2106 31.3441C32.6291 29.4987 32.843 26.2607 32.8148 24.2455V24.2511Z" fill="#CCFFFF"/>
</g>
<defs>
<clipPath id="clip0_1_1524">
<rect width="29.3817" height="24.8112" fill="white" transform="translate(12 14)"/>
</clipPath>
</defs>
</svg>
