<svg width="54" height="54" viewBox="0 0 54 54" fill="none" xmlns="http://www.w3.org/2000/svg">
<path d="M48.7545 31.0256C51.2024 18.7864 43.2649 6.88011 31.0256 4.43225C18.7864 1.98438 6.88012 9.92187 4.43225 22.1611C1.98439 34.4004 9.92188 46.3066 22.1611 48.7545C34.4004 51.2024 46.3066 43.2649 48.7545 31.0256Z" fill="white"/>
<g clip-path="url(#clip0_1_1384)">
<path d="M32.5879 24.9226V29.3242L36.4588 29.5705V24.6763L32.5879 24.9226Z" fill="#545353"/>
<path d="M47.6924 27.0591C47.6924 26.0524 46.9393 25.2064 45.9545 25.1046C45.6911 25.0778 45.4226 25.0725 45.1434 25.0832L36.459 25.458V27.1823H47.6924V27.0538V27.0591Z" fill="#898483"/>
<path d="M36.459 27.1876V28.7833L45.1434 29.1581C45.4226 29.1688 45.6911 29.1581 45.9545 29.1367C46.9393 29.0403 47.6924 28.1943 47.6924 27.1822H36.459V27.1876Z" fill="#7A7675"/>
<path d="M34.1943 27.1232C34.1943 33.9184 28.7803 39.4231 22.0971 39.4231C15.414 39.4231 10 33.9131 10 27.1232C10 20.3334 15.414 14.8234 22.0971 14.8234C28.7803 14.8234 34.1943 20.328 34.1943 27.1232Z" fill="#A29A97"/>
<path d="M33.6096 27.1233C33.6096 33.5865 28.4537 38.8288 22.097 38.8288C15.7404 38.8288 10.5845 33.5865 10.5845 27.1233C10.5845 20.6601 15.7404 15.4178 22.097 15.4178C28.4537 15.4178 33.6096 20.6601 33.6096 27.1233Z" fill="#545353"/>
<path d="M30.8552 27.1234C30.8552 32.0444 26.9317 36.0283 22.097 36.0283C17.2624 36.0283 13.3389 32.039 13.3389 27.1234C13.3389 22.2077 17.2571 18.2184 22.097 18.2184C26.937 18.2184 30.8552 22.2077 30.8552 27.1234Z" fill="#686767"/>
<path d="M32.5882 25.8065C32.5882 26.117 32.4723 26.3687 32.3248 26.3687C32.1774 26.3687 32.0615 26.117 32.0615 25.8065C32.0615 25.4959 32.1774 25.2442 32.3248 25.2442C32.4723 25.2442 32.5882 25.4959 32.5882 25.8065Z" fill="#686767"/>
<path d="M32.5882 28.4409C32.5882 28.7514 32.4723 29.0031 32.3248 29.0031C32.1774 29.0031 32.0615 28.7514 32.0615 28.4409C32.0615 28.1303 32.1774 27.8786 32.3248 27.8786C32.4723 27.8786 32.5882 28.1303 32.5882 28.4409Z" fill="#686767"/>
<path d="M21.8552 17.4307L20.0909 16.0277L21.8236 15.7118L20.6175 14.2071L22.2607 13.9073L21.4233 12.3544L23.2297 12.9648L22.8979 11.9849C22.4819 11.8564 22.0395 11.76 21.5813 11.7065C18.7111 11.3691 16.1989 12.7667 15.9672 14.8229C15.9461 15.005 15.9461 15.1817 15.9619 15.3584C16.1199 17.2058 18.1265 18.8443 20.7439 19.1496C20.923 19.171 21.102 19.187 21.2758 19.1924L20.3753 18.2714L21.8604 17.4253L21.8552 17.4307Z" fill="#EBA851"/>
<path d="M29.9181 13.372C29.8602 13.206 29.7812 13.04 29.6917 12.89C28.8016 11.4068 26.6476 11.0266 24.52 11.8459L25.3731 12.4135L23.5825 13.0614L25.1783 13.7629L24.0618 15.0266L25.9261 15.4603L24.7464 16.7936L26.9847 16.8044L26.3264 18.3947L27.5956 18.5554C29.5442 17.1471 30.5027 14.9945 29.9234 13.372H29.9181Z" fill="#EBA851"/>
<path d="M19.4953 13.6717C19.785 14.1483 19.5059 14.8605 18.8686 15.2621C18.2314 15.6583 17.4835 15.5941 17.1886 15.1175C16.8989 14.6409 17.1781 13.9287 17.8153 13.5271C18.4526 13.1309 19.2004 13.1951 19.4901 13.6717H19.4953Z" fill="white"/>
<path d="M26.663 21.9772C25.7361 21.3186 24.5669 21.083 23.4346 21.0883C20.6223 21.1044 17.8627 22.5984 16.2827 24.9652C15.5402 26.079 15.0451 27.4926 15.4717 28.7671C16.0036 30.3467 17.7574 31.1553 19.39 31.3052C21.0226 31.4551 22.671 31.1339 24.3036 31.2999C25.9046 31.4605 27.6636 32.0602 29.0224 31.1874C30.1652 30.4538 30.5497 28.8688 30.2705 27.5248C29.9967 26.1754 29.1962 25.008 28.3957 23.8996C27.8901 23.1981 27.3634 22.4859 26.6577 21.9826L26.663 21.9772Z" fill="white"/>
<path d="M29.6014 27.412C29.3539 26.1858 28.6271 25.1255 27.8951 24.1135C27.4316 23.4709 26.9524 22.8284 26.3151 22.3732C25.5252 21.811 24.5403 21.5861 23.5713 21.5646C25.3724 22.2179 26.8681 23.8672 27.379 25.811C27.9793 27.8565 27.2842 29.7039 25.957 31.1068C26.8523 31.2193 27.7213 31.2246 28.4639 30.748C29.5066 30.0787 29.849 28.6383 29.6014 27.412Z" fill="#E0E0E0"/>
<path d="M27.3845 25.811C26.8684 23.8672 25.378 22.2179 23.5768 21.5646C23.5136 21.5646 23.4452 21.5646 23.382 21.5646C20.8225 21.5753 18.3103 22.9408 16.8726 25.0934C16.1985 26.1055 15.7456 27.3906 16.1353 28.5526C16.6198 29.9877 18.2155 30.7266 19.7007 30.8605C21.1858 30.9997 22.6868 30.7052 24.1719 30.8551C24.7565 30.914 25.3622 31.0372 25.9573 31.1122C27.2844 29.7092 27.9796 27.8618 27.3792 25.8163L27.3845 25.811Z" fill="#F2F2F2"/>
<path d="M24.7829 26.8391C24.7829 28.6543 23.3346 30.1215 21.5545 30.1215C20.8752 30.1215 20.2484 29.9074 19.7271 29.5432C18.8792 28.9489 18.3262 27.9582 18.3262 26.8337C18.3262 25.0185 19.7745 23.5513 21.5545 23.5513C21.8337 23.5513 22.1075 23.5888 22.3656 23.653C23.7559 24.0171 24.7882 25.3023 24.7882 26.8337L24.7829 26.8391Z" fill="#F9BF3B"/>
<path d="M23.7665 26.3625C23.7665 28.1778 22.3182 29.645 20.5381 29.645C20.259 29.645 19.9851 29.6075 19.7271 29.5432C18.8792 28.9489 18.3262 27.9582 18.3262 26.8337C18.3262 25.0185 19.7745 23.5513 21.5545 23.5513C21.8337 23.5513 22.1075 23.5888 22.3656 23.653C23.2135 24.242 23.7665 25.238 23.7665 26.3625Z" fill="#FED45C"/>
<path d="M18.995 27.0482C18.995 25.4846 20.2116 24.2102 21.7389 24.1298C21.602 24.1031 21.465 24.0923 21.3228 24.0923C19.9272 24.0923 18.7949 25.3079 18.7949 26.8019C18.7949 27.5087 19.0477 28.1566 19.4638 28.6385C19.1688 28.1834 18.995 27.6318 18.995 27.0482Z" fill="white"/>
</g>
<defs>
<clipPath id="clip0_1_1384">
<rect width="37.6923" height="28" fill="white" transform="translate(10 11.4229)"/>
</clipPath>
</defs>
</svg>
