<svg width="63" height="63" viewBox="0 0 63 63" fill="none" xmlns="http://www.w3.org/2000/svg">
<path d="M44.0551 50.0988C54.3906 43.1011 57.0965 29.0497 50.0988 18.7142C43.1011 8.37862 29.0497 5.67275 18.7142 12.6704C8.37862 19.6681 5.67275 33.7195 12.6704 44.055C19.6681 54.3906 33.7195 57.0965 44.0551 50.0988Z" fill="white"/>
<g clip-path="url(#clip0_1_1597)">
<path d="M31.9976 40.3439C31.9976 40.3439 22.8696 40.3439 19.2598 37.6878C19.2598 37.6878 19.2861 39.578 20.1699 40.5141C21.234 41.6428 25.4506 43.0045 31.9976 43.0045C38.5445 43.0045 42.7612 41.6428 43.8252 40.5141C44.709 39.5735 44.7354 37.6878 44.7354 37.6878C41.1255 40.3439 31.9976 40.3439 31.9976 40.3439Z" fill="url(#paint0_linear_1_1597)"/>
<g style="mix-blend-mode:multiply">
<path d="M43.8252 39.7706C42.7612 40.8993 38.5445 42.261 31.9976 42.261C25.4506 42.261 21.234 40.8993 20.1699 39.7706C19.6599 39.2286 19.4356 38.3686 19.3345 37.7371C19.3081 37.7192 19.2818 37.7013 19.2598 37.6833C19.2598 37.6833 19.2861 39.5735 20.1699 40.5096C21.234 41.6384 25.4506 43 31.9976 43C38.5445 43 42.7612 41.6384 43.8252 40.5096C44.709 39.569 44.7354 37.6833 44.7354 37.6833C44.7134 37.7013 44.6826 37.7192 44.6562 37.7371C44.5595 38.3642 44.3352 39.2286 43.8208 39.7706H43.8252Z" fill="#FADAB2"/>
</g>
<path d="M18.9567 35.3632C18.9567 35.3632 18.1652 36.3083 17.9674 36.5949C17.6596 37.0428 17.3474 38.1984 18.3807 38.4179C19.027 38.5568 19.2996 38.0506 19.4711 38.8255C19.6338 39.5422 20.0735 39.3943 20.6011 39.1614C20.9924 38.9912 21.287 38.9509 21.4805 39.2465C21.7531 39.6676 21.5333 40.2946 22.2456 40.0841C22.9535 39.8736 23.4195 39.4571 23.8108 40.0438C24.1978 40.6306 24.2022 40.1827 24.9145 40.0393C25.6268 39.8915 26.0137 40.962 26.5809 40.9799C27.1481 40.9979 27.6977 40.5858 27.9131 40.4469C28.1242 40.3081 28.7705 40.9799 29.3289 40.3932C29.6587 40.0438 29.7862 40.8904 30.2831 40.9128C30.7843 40.9351 30.8942 40.4111 31.2856 40.3977C31.6769 40.3797 31.9979 40.756 32.6398 40.4693C33.2818 40.1827 33.827 38.5478 33.7346 38.3373C33.6379 38.1268 21.4145 37.7819 18.9655 35.3632H18.9567Z" fill="url(#paint1_linear_1_1597)"/>
<g style="mix-blend-mode:screen">
<path d="M33.7258 38.3373C33.6554 38.821 33.1806 40.0438 32.6354 40.2857C31.9934 40.5724 31.6724 40.1961 31.2811 40.214C30.8898 40.2319 30.7799 40.756 30.2786 40.7291C29.7774 40.7067 29.6543 39.8602 29.3245 40.2095C28.7661 40.7963 28.1197 40.1289 27.9087 40.2678C27.6976 40.4066 27.1436 40.8187 26.5764 40.7963C26.0092 40.7784 25.6223 39.7124 24.91 39.8557C24.1977 39.999 24.1933 40.4469 23.8064 39.8602C23.4195 39.2734 22.949 39.69 22.2411 39.9005C21.5288 40.111 21.753 39.4839 21.476 39.0629C21.287 38.7673 20.9924 38.8076 20.5967 38.9778C20.069 39.2107 19.6293 39.3585 19.4667 38.6419C19.2908 37.867 19.0226 38.3731 18.3762 38.2343C17.8838 38.1313 17.7035 37.8132 17.6727 37.4639C17.6463 37.8849 17.8002 38.297 18.3762 38.4179C19.0226 38.5568 19.2952 38.0506 19.4667 38.8255C19.6293 39.5422 20.069 39.3944 20.5967 39.1614C20.988 38.9912 21.2826 38.9509 21.476 39.2466C21.7486 39.6676 21.5288 40.2947 22.2411 40.0841C22.949 39.8736 23.4151 39.4571 23.8064 40.0438C24.1933 40.6306 24.1977 40.1827 24.91 40.0393C25.6223 39.8915 26.0092 40.962 26.5764 40.9799C27.1436 40.9979 27.6932 40.5858 27.9087 40.4469C28.1197 40.3081 28.7661 40.9799 29.3245 40.3932C29.6543 40.0438 29.7818 40.8904 30.2786 40.9128C30.7799 40.9352 30.8898 40.4111 31.2811 40.3977C31.6724 40.3798 31.9934 40.756 32.6354 40.4693C33.2773 40.1827 33.8225 38.5478 33.7302 38.3373H33.7258Z" fill="#2E4206"/>
</g>
<g style="mix-blend-mode:multiply">
<path d="M18.9566 35.3632C18.9566 35.3632 18.9082 35.4214 18.8335 35.511C18.8994 35.941 19.0445 36.4561 19.26 36.7159C20.4735 38.1671 25.4508 39.2331 31.9978 39.2286C32.5166 39.2286 33.0223 39.2152 33.5235 39.1973C33.6818 38.7942 33.7653 38.4269 33.7258 38.3328C33.629 38.1223 21.4057 37.7774 18.9566 35.3587V35.3632Z" fill="#E2EBD1"/>
</g>
<path d="M45.0476 35.7887C45.0476 35.7887 46.4326 37.2131 46.4151 37.6117C46.3975 38.0058 45.861 39.2734 45.2455 38.8524C44.6343 38.4314 44.4057 38.3955 44.1595 39.2689C43.9572 39.9811 43.1218 39.7079 42.7085 39.2107C42.2908 38.7091 41.8819 38.9106 41.5917 39.4929C41.3366 40.0035 41.2663 40.6395 40.4749 40.4021C39.6834 40.1648 39.1602 39.6855 38.7293 40.3574C38.2984 41.0292 37.1376 39.7482 36.5221 40.2319C35.9549 40.6754 35.6822 41.2621 35.2909 41.0785C34.7149 40.8142 34.7853 40.5634 34.1741 40.3484C33.9059 40.2543 33.3387 41.3204 32.5033 40.7157C32.1823 40.4873 32.1647 39.8512 31.6327 39.7796C31.1007 39.7079 30.4104 40.1065 29.852 40.1334C29.2936 40.1603 29.1704 39.5601 28.7352 39.5422C28.2999 39.5243 27.4425 40.0662 26.4576 39.6318C25.7365 39.3137 25.8024 38.5478 25.908 38.3059C26.0135 38.0641 43.2053 37.8312 45.0476 35.7887Z" fill="url(#paint2_linear_1_1597)"/>
<g style="mix-blend-mode:screen">
<path d="M45.25 38.5747C44.6388 38.1536 44.4102 38.1178 44.164 38.9912C43.9617 39.7034 43.1263 39.4302 42.713 38.933C42.2953 38.4313 41.8864 38.6329 41.5962 39.2197C41.3412 39.7303 41.2708 40.3663 40.4794 40.1244C39.6879 39.887 39.1647 39.4078 38.7338 40.0841C38.3029 40.756 37.1421 39.475 36.5266 39.9542C35.9594 40.3977 35.6868 40.9844 35.2954 40.8008C34.7195 40.5365 34.7898 40.2857 34.1786 40.0707C33.9104 39.9766 33.3432 41.0426 32.5078 40.438C32.1868 40.2095 32.1693 39.5735 31.6372 39.5018C31.1052 39.4302 30.4149 39.8288 29.8565 39.8557C29.2981 39.8826 29.175 39.2824 28.7397 39.2645C28.3044 39.2465 27.447 39.7885 26.4621 39.3496C26.04 39.1614 25.8905 38.8255 25.8597 38.5254C25.8201 38.8569 25.8993 39.3764 26.4621 39.6228C27.447 40.0572 28.3044 39.5198 28.7397 39.5332C29.175 39.5511 29.2981 40.1513 29.8565 40.1244C30.4149 40.0976 31.1052 39.6989 31.6372 39.7706C32.1693 39.8423 32.1868 40.4738 32.5078 40.7067C33.3432 41.3069 33.9104 40.2454 34.1786 40.3394C34.7854 40.5544 34.7195 40.8053 35.2954 41.0695C35.6868 41.2487 35.9594 40.6619 36.5266 40.223C37.1421 39.7392 38.3029 41.0247 38.7338 40.3484C39.1691 39.6765 39.6879 40.1513 40.4794 40.3932C41.2708 40.6306 41.3456 39.999 41.5962 39.4839C41.8864 38.9016 42.2909 38.7001 42.713 39.2017C43.1307 39.7034 43.9661 39.9766 44.164 39.26C44.4102 38.3866 44.6344 38.4269 45.25 38.8434C45.8612 39.2645 46.402 38.0014 46.4196 37.6027C46.4196 37.5758 46.402 37.5355 46.3932 37.5042C46.2745 38.0058 45.7908 38.9375 45.2544 38.5657L45.25 38.5747Z" fill="#2E4206"/>
</g>
<g style="mix-blend-mode:multiply">
<path d="M44.74 36.5725C44.9115 36.3889 45.0258 36.1336 45.1006 35.838C45.0742 35.8066 45.0478 35.7842 45.0478 35.7842C43.2055 37.8267 26.0181 38.0551 25.9081 38.3015C25.8642 38.3955 25.8466 38.6867 25.8642 38.8793C27.6757 39.1614 29.7422 39.2331 31.9978 39.2331C38.5448 39.2331 43.6716 37.7057 44.7356 36.5725H44.74Z" fill="#E2EBD1"/>
</g>
<path d="M31.9978 35.193C31.9978 35.193 22.5665 35.1303 18.9566 32.4697C18.9566 32.4697 18.3762 35.4259 19.26 36.3665C20.324 37.4952 25.4508 39.0271 31.9978 39.0271C38.5448 39.0271 43.6715 37.4997 44.7356 36.3665C45.6194 35.4259 45.039 32.4697 45.039 32.4697C41.4291 35.1258 31.9978 35.193 31.9978 35.193Z" fill="url(#paint3_linear_1_1597)"/>
<g style="mix-blend-mode:multiply">
<path d="M44.7401 35.9813C43.6761 37.11 38.5493 38.6419 32.0024 38.6419C25.4554 38.6419 20.3286 37.11 19.2646 35.9813C18.9128 35.6095 18.7941 34.9153 18.7765 34.2166C18.7589 35.0317 18.8468 35.9186 19.2646 36.362C20.3286 37.4907 25.4554 39.0226 32.0024 39.0226C38.5493 39.0226 43.6761 37.4952 44.7401 36.362C45.1579 35.9186 45.2458 35.0362 45.2282 34.2166C45.2106 34.9153 45.0919 35.6051 44.7401 35.9768V35.9813Z" fill="#D6675C"/>
</g>
<path d="M43.6846 32.4339C44.1199 34.3375 42.0446 36.4606 39.0459 37.1727C36.0472 37.8849 33.264 36.9129 32.8287 35.0093C32.3934 33.1057 34.4687 30.9827 37.4674 30.2705C40.4661 29.5583 43.2449 30.5303 43.6802 32.4339H43.6846Z" fill="url(#paint4_linear_1_1597)"/>
<g style="mix-blend-mode:multiply">
<path d="M43.7197 32.6623C43.7461 34.4315 41.7807 36.2724 39.0327 36.9219C36.034 37.6341 33.2507 36.6621 32.8154 34.7585C32.7979 34.6824 32.7935 34.6062 32.7803 34.5301C32.7803 34.6913 32.7935 34.8481 32.833 35.0049C33.2683 36.9085 36.0516 37.8804 39.0502 37.1683C41.9258 36.483 43.9484 34.5032 43.7197 32.6578V32.6623Z" fill="#EE4230"/>
</g>
<path d="M42.4272 32.3667C42.7701 33.8582 41.1477 35.5155 38.7997 36.0709C36.4562 36.6263 34.2797 35.8693 33.9412 34.3778C33.6026 32.8863 35.225 31.229 37.5686 30.6736C39.9121 30.1182 42.0886 30.8752 42.4272 32.3667Z" fill="url(#paint5_linear_1_1597)"/>
<path d="M30.7884 34.4719C30.7533 36.0395 28.5152 37.2578 25.7848 37.1951C23.0543 37.1324 20.8691 35.8111 20.9042 34.2434C20.9394 32.6758 23.1818 31.4574 25.9123 31.5202C28.6428 31.5829 30.828 32.9042 30.7928 34.4674L30.7884 34.4719Z" fill="url(#paint6_linear_1_1597)"/>
<g style="mix-blend-mode:multiply">
<path d="M25.7848 36.9488C23.1466 36.8861 21.0229 35.6498 20.913 34.1538C20.913 34.1852 20.9042 34.2165 20.9042 34.2479C20.8691 35.8156 23.0543 37.1369 25.7848 37.1996C28.5152 37.2623 30.7533 36.044 30.7884 34.4763C30.7884 34.4226 30.784 34.3733 30.7796 34.324C30.6609 35.8469 28.4581 37.016 25.7848 36.9577V36.9488Z" fill="#EE4230"/>
</g>
<path d="M29.7115 34.3823C29.6851 35.6095 27.9307 36.5591 25.7982 36.5143C23.6614 36.465 21.9554 35.4349 21.9817 34.2076C22.0081 32.9848 23.7625 32.0308 25.895 32.08C28.0319 32.1293 29.7379 33.1595 29.7115 34.3868V34.3823Z" fill="url(#paint7_linear_1_1597)"/>
<path d="M27.5308 33.8403C27.5308 33.8403 28.353 35.2378 28.5069 35.5558C29.0917 36.7517 29.9007 37.5087 31.1055 36.9443C31.7034 36.6621 33.0489 36.362 33.9591 36.3083C34.8648 36.259 36.1179 36.5681 36.8038 36.1022C37.4898 35.6364 38.4263 35.8559 38.7517 35.7842C39.0814 35.717 40.5236 35.6364 39.1958 33.473C37.8679 31.3052 27.5088 33.3745 27.5308 33.8403Z" fill="url(#paint8_linear_1_1597)"/>
<g style="mix-blend-mode:screen">
<path d="M38.8525 35.3274C38.5227 35.3946 37.5862 35.1796 36.9047 35.6454C36.2188 36.1112 34.9657 35.8021 34.0599 35.8514C33.1541 35.9007 31.8043 36.2053 31.2063 36.4874C30.0016 37.0518 29.1969 36.2948 28.6121 35.0989C28.4802 34.8257 27.8603 33.7686 27.6844 33.4686C27.5877 33.5133 27.5305 33.5581 27.5349 33.5895C27.5349 33.5895 28.3571 34.987 28.511 35.305C29.0958 36.5054 29.9048 37.2578 31.1096 36.6935C31.7076 36.4113 33.053 36.1112 33.9632 36.0575C34.8689 36.0037 36.122 36.3172 36.808 35.8514C37.4939 35.3856 38.4304 35.6051 38.7558 35.5334C38.9536 35.4931 39.5516 35.4438 39.7099 34.9422C39.4769 35.2557 39.024 35.2915 38.8569 35.3274H38.8525Z" fill="#873A00"/>
</g>
<g style="mix-blend-mode:multiply">
<path d="M38.7472 35.5334C38.4175 35.6051 37.4809 35.3856 36.7994 35.8514C36.1179 36.3172 34.8604 36.0082 33.9546 36.0574C33.0489 36.1067 31.699 36.4113 31.101 36.6935C29.8963 37.2578 29.0917 36.5009 28.5025 35.305C28.3794 35.0541 27.8385 34.127 27.6231 33.7552C27.5615 33.791 27.5264 33.8224 27.5264 33.8493C27.5264 33.8493 28.3486 35.2467 28.5025 35.5647C29.0873 36.7607 29.8963 37.5176 31.101 36.9533C31.699 36.6711 33.0445 36.371 33.9546 36.3172C34.8604 36.268 36.1135 36.577 36.7994 36.1112C37.4853 35.6454 38.4219 35.8648 38.7472 35.7932C38.9891 35.7439 39.8289 35.6857 39.7321 34.7988C39.653 35.4393 38.9627 35.4931 38.7472 35.5379V35.5334Z" fill="#F2CC9D"/>
</g>
<path d="M20.1352 30.6288C20.1352 30.6288 18.1522 33.2132 17.7037 33.8224C17.2553 34.4315 19.5197 34.3554 21.0234 34.754C22.5271 35.1527 25.8776 35.7977 26.8053 35.9186C27.7287 36.035 28.0232 31.4216 28.0232 31.4216L20.1352 30.6288Z" fill="url(#paint9_linear_1_1597)"/>
<g style="mix-blend-mode:screen">
<path d="M21.0233 34.5525C22.527 34.9511 25.8774 35.5961 26.8052 35.717C27.6142 35.8201 27.9396 32.2995 28.0099 31.4171H28.0011C27.9176 32.416 27.5878 35.717 26.8052 35.6185C25.8818 35.502 22.5314 34.8526 21.0233 34.4539C19.8009 34.1314 18.0818 34.118 17.7168 33.8C17.7124 33.8045 17.7036 33.8134 17.6992 33.8224C17.6904 33.8358 17.686 33.8448 17.6816 33.8582C17.9411 34.2165 19.7482 34.2165 21.0233 34.557V34.5525Z" fill="#873A00"/>
</g>
<g style="mix-blend-mode:multiply">
<path d="M26.8051 35.717C25.8818 35.6006 22.5314 34.9511 21.0232 34.5525C19.7525 34.2166 17.9454 34.2166 17.6816 33.8582C17.3606 34.4226 19.5503 34.3644 21.0232 34.754C22.527 35.1527 25.8774 35.7977 26.8051 35.9186C27.7285 36.0351 28.0231 31.4216 28.0231 31.4216H28.0099C27.9395 32.304 27.6142 35.8245 26.8051 35.7215V35.717Z" fill="#F2CC9D"/>
</g>
<path d="M44.7137 30.3153L46.2878 32.4563C46.6615 33.1953 45.4524 33.7059 44.3312 34.1315C43.21 34.557 42.2998 35.0586 41.4248 34.9198C40.7213 34.8078 38.6592 31.5381 38.6592 31.5381L44.7137 30.3198V30.3153Z" fill="url(#paint10_linear_1_1597)"/>
<g style="mix-blend-mode:screen">
<path d="M41.4204 34.7943C42.2998 34.9332 43.2099 34.4315 44.3267 34.006C45.3072 33.6343 46.3405 33.1908 46.3405 32.5951C46.3405 32.5862 46.3317 32.5772 46.3317 32.5683C46.1998 33.1057 45.2413 33.5089 44.3311 33.8537C43.2099 34.2793 42.2998 34.7809 41.4248 34.6421C40.8356 34.548 39.3143 32.2637 38.8218 31.5067L38.7339 31.5246C39.0944 32.0845 40.796 34.7003 41.4292 34.7988L41.4204 34.7943Z" fill="#873A00"/>
</g>
<g style="mix-blend-mode:multiply">
<path d="M44.3268 34.006C43.2056 34.436 42.2954 34.9332 41.4204 34.7944C40.7917 34.6958 39.0857 32.08 38.7251 31.5202L38.6548 31.5336C38.6548 31.5336 40.7125 34.8078 41.4204 34.9153C42.2998 35.0541 43.21 34.557 44.3268 34.127C45.3381 33.7418 46.4197 33.2849 46.3449 32.6578C46.2746 33.2222 45.2677 33.6432 44.3268 34.0016V34.006Z" fill="#F2CC9D"/>
</g>
<path d="M45.061 28.8238C45.061 28.8238 46.5648 29.6748 46.7802 29.9973C47.1232 30.5079 47.1628 31.8919 46.1779 31.6545C45.5007 31.4933 45.2061 31.2693 45.0566 32.1875C44.9159 33.0386 44.4499 32.8863 43.8915 32.6399C43.4738 32.4563 43.166 32.4249 42.9813 32.7832C42.7131 33.2939 42.9681 34.0195 42.2207 33.809C41.4732 33.5984 40.9675 33.1281 40.5894 33.8403C40.2113 34.5525 40.1849 34.0239 39.4374 33.8851C38.6899 33.7507 38.3294 35.0228 37.7402 35.0721C37.151 35.1213 36.5575 34.6645 36.3288 34.5122C36.1002 34.3599 35.4582 35.1795 34.8515 34.5122C34.4909 34.118 34.3986 35.1213 33.8753 35.1751C33.3565 35.2243 33.2158 34.6152 32.8113 34.6152C32.4068 34.6152 32.0858 35.0721 31.4043 34.7675C30.7228 34.4629 30.5557 32.9131 30.6436 32.6578C30.736 32.4025 42.6032 31.7889 45.0566 28.8193L45.061 28.8238Z" fill="url(#paint11_linear_1_1597)"/>
<g style="mix-blend-mode:screen">
<path d="M46.182 31.5157C45.5049 31.3544 45.2103 31.1305 45.0608 32.0487C44.9201 32.9042 44.454 32.7474 43.8956 32.5011C43.4779 32.3174 43.1702 32.2861 42.9855 32.6444C42.7173 33.155 42.9723 33.8806 42.2248 33.6701C41.4774 33.4551 40.9717 32.9893 40.5936 33.7015C40.2154 34.4092 40.1891 33.8851 39.4416 33.7463C38.6941 33.6119 38.3336 34.8839 37.7444 34.9332C37.1552 34.9825 36.5616 34.5256 36.333 34.3733C36.1044 34.221 35.4624 35.0407 34.8556 34.3733C34.4951 33.9792 34.4028 34.9825 33.8795 35.0362C33.3607 35.0855 33.22 34.4763 32.8155 34.4763C32.411 34.4763 32.09 34.9332 31.4085 34.6286C30.8545 34.3778 30.6434 33.3163 30.6302 32.7877C30.6038 33.2356 30.8017 34.4943 31.4085 34.7675C32.09 35.0721 32.4066 34.6152 32.8155 34.6152C33.2244 34.6152 33.3607 35.2243 33.8795 35.1751C34.4028 35.1258 34.4951 34.1225 34.8556 34.5122C35.4624 35.1751 36.1044 34.3599 36.333 34.5122C36.5616 34.6645 37.1552 35.1213 37.7444 35.0721C38.3336 35.0228 38.6941 33.7463 39.4416 33.8851C40.1891 34.0195 40.2154 34.548 40.5936 33.8403C40.9717 33.1326 41.4774 33.5984 42.2248 33.809C42.9723 34.0195 42.7173 33.2939 42.9855 32.7833C43.1746 32.4249 43.4779 32.4563 43.8956 32.6399C44.454 32.8863 44.9201 33.0386 45.0608 32.1875C45.2103 31.2693 45.5049 31.4933 46.182 31.6545C46.8152 31.8023 47.0218 31.2872 46.9999 30.7632C46.9823 31.2335 46.758 31.6501 46.182 31.5157Z" fill="#2E4206"/>
</g>
<g style="mix-blend-mode:multiply">
<path d="M30.6481 32.6623C30.6042 32.7832 30.6217 33.1953 30.7229 33.6253C31.1977 33.6343 31.633 33.6388 32.0024 33.6388C35.3968 33.6388 44.0147 33.3476 44.9908 29.6255C45.048 29.415 45.0567 29.1552 45.026 28.8596C42.4978 31.7979 30.7405 32.407 30.6481 32.6578V32.6623Z" fill="#E2EBD1"/>
</g>
<path d="M19.26 28.8238C19.26 28.8238 17 30.4228 17 30.8349C17 31.2469 17.51 32.5907 18.1652 32.1741C18.8247 31.762 19.4315 31.7172 19.2776 32.6534C19.1237 33.5895 20.3416 33.155 20.7945 32.6534C21.2518 32.1517 22.4653 32.0756 22.3158 32.6534C22.162 33.2312 22.2411 34.2076 23.0765 33.9881C23.9119 33.7731 24.4747 33.2983 24.9012 34.0195C25.3233 34.7406 25.6619 34.127 26.4973 33.9881C27.3327 33.8493 27.8955 33.6119 27.9922 34.3644C28.089 35.1168 28.4891 35.1661 29.1442 35.2154C29.8038 35.2647 29.408 34.7048 29.6631 34.548C29.9181 34.3912 29.8741 35.1168 30.2698 35.2154C30.6655 35.3139 30.6743 33.8761 31.2327 33.8269C31.7911 33.7731 31.7384 34.445 32.3232 34.4987C32.9036 34.5525 33.0575 33.9299 33.5147 33.9299C33.972 33.9299 34.3238 34.3957 35.0844 34.0867C35.8451 33.7776 35.9946 33.2625 35.8934 33.0027C35.7923 32.7429 21.9993 31.8382 19.2644 28.8238H19.26Z" fill="url(#paint12_linear_1_1597)"/>
<g style="mix-blend-mode:multiply">
<path d="M35.823 33.4999C35.9285 33.3073 35.9417 33.1237 35.8934 33.0027C35.7922 32.7429 21.9992 31.8382 19.2643 28.8238C19.2643 28.8238 19.1456 28.9089 18.9697 29.0388C18.9565 29.2582 18.9697 29.4598 19.0137 29.63C19.3259 30.8259 20.4339 31.668 21.9025 32.2592C22.0563 32.2726 22.1795 32.3174 22.2542 32.3936C25.3452 33.5133 29.7861 33.6388 32.0021 33.6388C32.9562 33.6388 34.3281 33.6164 35.823 33.4999Z" fill="#E2EBD1"/>
</g>
<g style="mix-blend-mode:screen">
<path d="M18.1652 32.0397C17.5584 32.4249 17.0747 31.2962 17.0088 30.8035C17.0088 30.8125 17 30.8259 17 30.8349C17 31.2469 17.51 32.5907 18.1652 32.1741C18.7236 31.8203 19.2468 31.7441 19.2952 32.3085C19.3216 31.6053 18.7676 31.6635 18.1652 32.0397Z" fill="#2E4206"/>
<path d="M35.0799 33.9523C34.3192 34.2614 33.9675 33.8 33.5102 33.8C33.0529 33.8 32.9034 34.4181 32.3186 34.3689C31.7339 34.3151 31.7866 33.6477 31.2282 33.697C30.6698 33.7463 30.6654 35.1885 30.2653 35.0855C29.8696 34.987 29.9091 34.2614 29.6585 34.4181C29.4035 34.5704 29.7992 35.1348 29.1397 35.0855C28.4846 35.0362 28.0844 34.987 27.9877 34.2345C27.891 33.482 27.3282 33.7239 26.4928 33.8582C25.6574 33.9971 25.3232 34.6107 24.8967 33.8896C24.4702 33.1685 23.9074 33.6432 23.072 33.8582C22.474 34.015 22.2673 33.5581 22.2542 33.0744C22.2322 33.6029 22.4168 34.1628 23.072 33.9926C23.9074 33.7776 24.4702 33.3028 24.8967 34.024C25.3188 34.7451 25.6574 34.1315 26.4928 33.9926C27.3282 33.8538 27.891 33.6164 27.9877 34.3689C28.0844 35.1213 28.4846 35.1706 29.1397 35.2199C29.7992 35.2691 29.4035 34.7093 29.6585 34.5525C29.9135 34.3957 29.8696 35.1213 30.2653 35.2199C30.661 35.3184 30.6698 33.8806 31.2282 33.8314C31.7866 33.7776 31.7339 34.4495 32.3186 34.5032C32.899 34.557 33.0529 33.9344 33.5102 33.9344C33.9675 33.9344 34.3192 34.4002 35.0799 34.0911C35.7526 33.8179 35.9505 33.379 35.9153 33.1058C35.8801 33.3745 35.6515 33.7239 35.0799 33.9568V33.9523Z" fill="#2E4206"/>
<path d="M22.3158 32.519C22.4697 31.9412 21.2517 32.0173 20.7944 32.519C20.3635 32.9983 19.2599 33.3924 19.2775 32.6399C19.2775 32.6444 19.2775 32.6489 19.2775 32.6534C19.1236 33.5895 20.3416 33.155 20.7944 32.6534C21.2121 32.192 22.2542 32.0935 22.3114 32.5279V32.519H22.3158Z" fill="#2E4206"/>
</g>
<path d="M31.9977 20C22.4741 20.112 18.4377 27.1755 19.0137 29.3612C19.9898 33.0834 28.6077 33.3745 32.0021 33.3745C35.3965 33.3745 44.0144 33.0834 44.9905 29.3612C45.5621 27.1755 41.5258 20.112 32.0021 20H31.9977Z" fill="url(#paint13_linear_1_1597)"/>
<g style="mix-blend-mode:screen">
<path d="M32.0024 20.7749C40.4884 20.8734 44.6127 26.4902 45.0084 29.2582C45.4393 26.9649 41.3854 20.112 31.998 20C22.6107 20.112 18.5567 26.9694 18.992 29.2627C19.3833 26.4946 23.512 20.8734 32.0024 20.7749Z" fill="#87552E"/>
</g>
<g style="mix-blend-mode:multiply">
<path d="M44.986 28.6177C44.0099 32.3398 35.392 32.631 31.9976 32.631C28.6032 32.631 19.9853 32.3398 19.0092 28.6177C19.0004 28.5819 18.996 28.5416 18.9872 28.5013C18.9432 28.8327 18.9476 29.1239 19.0092 29.3568C19.9853 33.0789 28.6032 33.37 31.9976 33.37C35.392 33.37 44.0099 33.0789 44.986 29.3568C45.0476 29.1239 45.052 28.8327 45.008 28.5013C44.9992 28.5416 44.9948 28.5819 44.986 28.6177Z" fill="#FADAB2"/>
</g>
<g style="mix-blend-mode:screen">
<path d="M41.0203 28.8909C41.1038 29.1194 40.9851 29.2761 40.7917 29.3523C40.5982 29.4239 40.4047 29.3881 40.3212 29.1597C40.2376 28.9313 40.2376 28.2952 40.3827 28.2415C40.5146 28.1922 40.9367 28.667 41.0203 28.8909Z" fill="#87552E"/>
</g>
<g style="mix-blend-mode:screen">
<path d="M40.739 29.2134C40.5587 29.2806 40.3829 29.2493 40.2905 29.0611C40.2993 29.097 40.3081 29.1328 40.3169 29.1597C40.4004 29.3881 40.5939 29.424 40.7874 29.3523C40.9808 29.2806 41.0996 29.1194 41.016 28.8909C41.0072 28.8641 40.994 28.8372 40.972 28.8014C41.0204 29.0029 40.9105 29.1418 40.7346 29.2134H40.739Z" fill="#87552E"/>
</g>
<g style="mix-blend-mode:screen">
<path d="M39.9304 25.89C39.693 25.8765 39.6007 25.6974 39.6095 25.4869C39.6226 25.2763 39.7326 25.1106 39.9744 25.1241C40.2118 25.1375 40.7834 25.3973 40.7746 25.554C40.7658 25.6974 40.1679 25.8989 39.9304 25.8855V25.89Z" fill="#87552E"/>
</g>
<g style="mix-blend-mode:screen">
<path d="M39.7542 25.5003C39.7674 25.3077 39.8686 25.1554 40.0708 25.1464C40.0356 25.1375 40.0005 25.133 39.9741 25.133C39.7366 25.1196 39.6223 25.2853 39.6091 25.4958C39.5959 25.7063 39.6883 25.881 39.9301 25.8989C39.9565 25.8989 39.9917 25.8989 40.0268 25.8989C39.829 25.8631 39.7454 25.7019 39.7542 25.5093V25.5003Z" fill="#87552E"/>
</g>
<g style="mix-blend-mode:screen">
<path d="M21.3311 27.7756C21.164 27.601 21.2124 27.4084 21.3575 27.2606C21.507 27.1127 21.6961 27.068 21.8675 27.2382C22.0346 27.4128 22.2896 27.9906 22.1797 28.1026C22.0786 28.2056 21.5026 27.9458 21.3355 27.7756H21.3311Z" fill="#87552E"/>
</g>
<g style="mix-blend-mode:screen">
<path d="M21.4586 27.3636C21.5949 27.2247 21.7664 27.1844 21.9247 27.3143C21.9027 27.283 21.8807 27.2561 21.8631 27.2382C21.6961 27.0635 21.5026 27.1127 21.3531 27.2606C21.208 27.4084 21.1596 27.6054 21.3267 27.7757C21.3443 27.7936 21.3707 27.816 21.4015 27.8384C21.2784 27.6771 21.3179 27.5024 21.4542 27.3636H21.4586Z" fill="#87552E"/>
</g>
<g style="mix-blend-mode:screen">
<path d="M25.0774 27.0724C24.84 27.059 24.7476 26.8798 24.7564 26.6738C24.7696 26.4633 24.8839 26.2976 25.1214 26.311C25.3588 26.3244 25.9304 26.5842 25.9216 26.741C25.9128 26.8843 25.3148 27.0859 25.0774 27.0724Z" fill="#87552E"/>
</g>
<g style="mix-blend-mode:screen">
<path d="M24.9012 26.6828C24.9144 26.4902 25.0155 26.3379 25.2178 26.3289C25.1826 26.32 25.1474 26.3155 25.1211 26.311C24.8836 26.2976 24.7693 26.4633 24.7561 26.6738C24.7429 26.8843 24.8353 27.059 25.0771 27.0724C25.1035 27.0724 25.1386 27.0724 25.1738 27.0724C24.976 27.0366 24.8924 26.8754 24.9012 26.6828Z" fill="#87552E"/>
</g>
<g style="mix-blend-mode:screen">
<path d="M37.7007 27.695C37.4852 27.798 37.3182 27.6861 37.2346 27.4935C37.1467 27.3009 37.1731 27.1038 37.3885 27.0008C37.604 26.8978 38.2283 26.853 38.2943 27.0008C38.3558 27.1307 37.9205 27.5965 37.7051 27.6995L37.7007 27.695Z" fill="#87552E"/>
</g>
<g style="mix-blend-mode:screen">
<path d="M37.3665 27.4352C37.2874 27.2606 37.3094 27.0769 37.4809 26.9694C37.4457 26.9784 37.4149 26.9918 37.3885 27.0008C37.1731 27.1038 37.1467 27.3009 37.2346 27.4935C37.3226 27.6861 37.4852 27.7936 37.7007 27.695C37.7271 27.6861 37.7535 27.6682 37.7842 27.6458C37.5908 27.7085 37.4457 27.6099 37.3665 27.4308V27.4352Z" fill="#87552E"/>
</g>
<g style="mix-blend-mode:screen">
<path d="M37.9955 29.1866C37.7624 29.1283 37.7009 28.9402 37.7492 28.7342C37.7976 28.5281 37.9383 28.3848 38.1713 28.443C38.4044 28.5013 38.9188 28.8551 38.8836 29.0119C38.8529 29.1507 38.2285 29.2448 37.9955 29.1866Z" fill="#87552E"/>
</g>
<g style="mix-blend-mode:screen">
<path d="M37.8943 28.77C37.9383 28.5819 38.0658 28.452 38.2681 28.4789C38.2329 28.4654 38.2021 28.452 38.1757 28.4475C37.9427 28.3893 37.802 28.5326 37.7536 28.7387C37.7053 28.9447 37.7668 29.1328 37.9999 29.191C38.0262 29.2 38.0614 29.2045 38.0966 29.2045C37.9075 29.1328 37.8548 28.9626 37.8987 28.7745L37.8943 28.77Z" fill="#87552E"/>
</g>
<g style="mix-blend-mode:screen">
<path d="M34.5919 27.7353C34.3941 27.601 34.3985 27.3994 34.5128 27.2247C34.6271 27.05 34.8074 26.9649 35.0052 27.0993C35.2031 27.2337 35.568 27.7488 35.4845 27.8832C35.4054 28.0041 34.7898 27.8697 34.5919 27.7353Z" fill="#87552E"/>
</g>
<g style="mix-blend-mode:screen">
<path d="M34.6359 27.3054C34.7414 27.1441 34.9041 27.068 35.0844 27.162C35.058 27.1351 35.0316 27.1128 35.0096 27.0993C34.8073 26.9649 34.6315 27.05 34.5172 27.2247C34.4028 27.3994 34.394 27.601 34.5963 27.7353C34.6183 27.7533 34.6491 27.7667 34.6798 27.7801C34.5259 27.6458 34.5347 27.4666 34.6403 27.3054H34.6359Z" fill="#87552E"/>
</g>
<g style="mix-blend-mode:screen">
<path d="M34.6583 22.6874C34.544 22.5262 34.6012 22.3739 34.7375 22.2709C34.8738 22.1679 35.0364 22.1544 35.1508 22.3157C35.2651 22.4769 35.4058 22.9741 35.3047 23.0547C35.2123 23.1264 34.7726 22.8487 34.6583 22.6874Z" fill="#87552E"/>
</g>
<g style="mix-blend-mode:screen">
<path d="M34.8078 22.3694C34.9353 22.2754 35.0804 22.2619 35.1903 22.3873C35.1771 22.3605 35.164 22.3336 35.1508 22.3157C35.032 22.1544 34.8738 22.1679 34.7375 22.2709C34.6012 22.3739 34.544 22.5262 34.6583 22.6874C34.6715 22.7054 34.6891 22.7278 34.7111 22.7457C34.6319 22.6023 34.6847 22.4635 34.8078 22.3694Z" fill="#87552E"/>
</g>
<g style="mix-blend-mode:screen">
<path d="M35.8715 25.1914C35.8188 24.9854 35.9375 24.8555 36.109 24.8107C36.2848 24.7614 36.4519 24.8107 36.5047 25.0212C36.5575 25.2272 36.5047 25.7826 36.3728 25.8185C36.2541 25.8498 35.9243 25.3974 35.8671 25.1914H35.8715Z" fill="#87552E"/>
</g>
<g style="mix-blend-mode:screen">
<path d="M36.1484 24.9315C36.3111 24.8867 36.4606 24.9315 36.5266 25.1017C36.5266 25.0703 36.5178 25.039 36.5134 25.0166C36.4606 24.8105 36.2935 24.7612 36.1176 24.806C35.9418 24.8553 35.8231 24.9807 35.8802 25.1868C35.8846 25.2092 35.8978 25.2405 35.911 25.2674C35.8846 25.0882 35.9901 24.9762 36.1528 24.9315H36.1484Z" fill="#87552E"/>
</g>
<g style="mix-blend-mode:screen">
<path d="M30.1382 29.5628C29.9624 29.4464 29.9712 29.2672 30.0679 29.1149C30.169 28.9626 30.3273 28.8865 30.5032 29.0029C30.6791 29.1194 31 29.5718 30.9209 29.6882C30.8505 29.7957 30.3097 29.6793 30.1382 29.5628Z" fill="#87552E"/>
</g>
<g style="mix-blend-mode:screen">
<path d="M30.1777 29.1867C30.27 29.0434 30.4107 28.9762 30.569 29.0613C30.547 29.0389 30.5206 29.021 30.503 29.0075C30.3272 28.8911 30.1689 28.9627 30.0678 29.1195C29.9666 29.2718 29.9622 29.451 30.1381 29.5674C30.1601 29.5809 30.1865 29.5943 30.2128 29.6077C30.0765 29.4913 30.0853 29.3345 30.1733 29.1912L30.1777 29.1867Z" fill="#87552E"/>
</g>
<g style="mix-blend-mode:screen">
<path d="M27.043 27.6323C26.8671 27.5159 26.8759 27.3367 26.9727 27.1844C27.0738 27.0321 27.2321 26.956 27.408 27.0724C27.5838 27.1889 27.9048 27.6413 27.8257 27.7577C27.7553 27.8652 27.2145 27.7488 27.043 27.6278V27.6323Z" fill="#87552E"/>
</g>
<g style="mix-blend-mode:screen">
<path d="M27.0825 27.2562C27.1748 27.1129 27.3155 27.0457 27.4738 27.1308C27.4518 27.1084 27.4254 27.0905 27.4078 27.077C27.232 26.9606 27.0737 27.0323 26.9725 27.189C26.8714 27.3413 26.867 27.5205 27.0429 27.6369C27.0649 27.6504 27.0913 27.6638 27.1176 27.6772C26.9813 27.5608 26.9857 27.404 27.0781 27.2607L27.0825 27.2562Z" fill="#87552E"/>
</g>
<g style="mix-blend-mode:screen">
<path d="M25.3543 24.1524C25.2927 23.9105 25.429 23.7627 25.6313 23.709C25.8335 23.6552 26.027 23.709 26.0929 23.9508C26.1545 24.1882 26.0929 24.8332 25.939 24.878C25.7983 24.9138 25.4158 24.3898 25.3543 24.1524Z" fill="#87552E"/>
</g>
<g style="mix-blend-mode:screen">
<path d="M25.6708 23.852C25.8599 23.8027 26.0314 23.852 26.1105 24.0491C26.1105 24.0132 26.1017 23.9774 26.0929 23.9505C26.0314 23.7087 25.8379 23.6504 25.6313 23.7087C25.429 23.7624 25.2927 23.9147 25.3543 24.1521C25.3631 24.179 25.3762 24.2103 25.3894 24.2461C25.3587 24.0401 25.4862 23.9057 25.6708 23.8565V23.852Z" fill="#87552E"/>
</g>
<g style="mix-blend-mode:screen">
<path d="M33.6909 24.6224C33.7657 24.3895 33.9548 24.3447 34.1526 24.4074C34.3505 24.4701 34.478 24.6224 34.4076 24.8553C34.3329 25.0882 33.9504 25.5854 33.8009 25.5361C33.6646 25.4913 33.6206 24.8508 33.6953 24.6224H33.6909Z" fill="#87552E"/>
</g>
<g style="mix-blend-mode:screen">
<path d="M34.1086 24.5463C34.2889 24.6045 34.4076 24.7433 34.3681 24.9449C34.3856 24.9135 34.3988 24.8777 34.4076 24.8553C34.4824 24.6224 34.3505 24.4701 34.1526 24.4074C33.9547 24.3447 33.7657 24.3895 33.6909 24.6224C33.6821 24.6493 33.6733 24.6806 33.6689 24.7165C33.7525 24.5283 33.924 24.488 34.1042 24.5463H34.1086Z" fill="#87552E"/>
</g>
<g style="mix-blend-mode:screen">
<path d="M23.6748 25.5542C23.7452 25.3213 23.9387 25.2765 24.1365 25.3392C24.3344 25.4019 24.4619 25.5542 24.3915 25.7871C24.3168 26.02 23.9343 26.5172 23.7804 26.4679C23.6441 26.4231 23.6001 25.7826 23.6748 25.5542Z" fill="#87552E"/>
</g>
<g style="mix-blend-mode:screen">
<path d="M24.0881 25.4779C24.2684 25.5361 24.3871 25.675 24.3475 25.8765C24.3651 25.8407 24.3783 25.8093 24.3871 25.7825C24.4575 25.5496 24.33 25.3973 24.1321 25.3346C23.9342 25.2719 23.7452 25.3166 23.6704 25.5496C23.6616 25.5764 23.6528 25.6078 23.6484 25.6436C23.732 25.4555 23.9035 25.4152 24.0837 25.4734L24.0881 25.4779Z" fill="#87552E"/>
</g>
<g style="mix-blend-mode:screen">
<path d="M27.2536 28.5731C27.4734 28.479 27.6361 28.6 27.7109 28.7926C27.79 28.9896 27.7548 29.1867 27.535 29.2808C27.3152 29.3748 26.6908 29.3928 26.6292 29.2405C26.5765 29.1061 27.0294 28.6627 27.2536 28.5731Z" fill="#87552E"/>
</g>
<g style="mix-blend-mode:screen">
<path d="M27.5788 28.8506C27.6492 29.0298 27.6228 29.209 27.4425 29.3075C27.4777 29.2985 27.5129 29.2896 27.5349 29.2761C27.7547 29.1821 27.7899 28.985 27.7107 28.7879C27.6316 28.5953 27.4733 28.4744 27.2535 28.5684C27.2271 28.5774 27.2007 28.5953 27.1699 28.6132C27.3634 28.5595 27.5085 28.667 27.5788 28.8461V28.8506Z" fill="#87552E"/>
</g>
<g style="mix-blend-mode:screen">
<path d="M29.8393 27.0545C30.0064 27.2292 29.958 27.4218 29.8085 27.5696C29.659 27.7174 29.4656 27.7577 29.2985 27.5831C29.1314 27.4084 28.8852 26.8261 28.9951 26.7141C29.0962 26.6156 29.6722 26.8798 29.8349 27.0545H29.8393Z" fill="#87552E"/>
</g>
<g style="mix-blend-mode:screen">
<path d="M29.7029 27.4621C29.5666 27.5965 29.3907 27.6368 29.2368 27.5069C29.2588 27.5383 29.2808 27.5651 29.2984 27.5831C29.4655 27.7577 29.6589 27.713 29.8084 27.5696C29.9579 27.4218 30.0063 27.2292 29.8392 27.0545C29.8216 27.0366 29.7952 27.0142 29.7644 26.9918C29.8876 27.1575 29.8436 27.3322 29.7073 27.4666L29.7029 27.4621Z" fill="#87552E"/>
</g>
<g style="mix-blend-mode:screen">
<path d="M33.2027 30.1316C32.996 30.2526 32.8201 30.154 32.719 29.9749C32.6179 29.7912 32.6223 29.5897 32.8333 29.4687C33.04 29.3478 33.6556 29.2493 33.7347 29.3881C33.805 29.5135 33.4093 30.0152 33.2027 30.1316Z" fill="#87552E"/>
</g>
<g style="mix-blend-mode:screen">
<path d="M32.8467 29.8987C32.7544 29.7285 32.7588 29.5494 32.9215 29.4284C32.8863 29.4419 32.8555 29.4553 32.8335 29.4687C32.6269 29.5897 32.6181 29.7912 32.7192 29.9749C32.8203 30.1585 32.9918 30.2526 33.2029 30.1317C33.2249 30.1182 33.2556 30.1003 33.282 30.0734C33.0974 30.154 32.9391 30.0645 32.8467 29.8987Z" fill="#87552E"/>
</g>
<g style="mix-blend-mode:screen">
<path d="M34.8783 29.9928C34.8256 30.1764 34.6717 30.2167 34.5134 30.1719C34.3551 30.1227 34.2496 30.0017 34.3067 29.8181C34.3595 29.6345 34.6629 29.2313 34.7816 29.2672C34.8915 29.303 34.9355 29.8091 34.8783 29.9973V29.9928Z" fill="#87552E"/>
</g>
<g style="mix-blend-mode:screen">
<path d="M34.544 30.06C34.3989 30.0152 34.3022 29.9077 34.333 29.7464C34.3198 29.7733 34.311 29.8002 34.3022 29.8181C34.2494 30.0062 34.3506 30.1227 34.5088 30.172C34.6671 30.2212 34.821 30.1809 34.8738 29.9928C34.8782 29.9704 34.887 29.9435 34.887 29.9166C34.821 30.0645 34.6847 30.1048 34.5396 30.06H34.544Z" fill="#87552E"/>
</g>
<g style="mix-blend-mode:screen">
<path d="M32.4334 22.2888C32.6005 22.4635 32.5389 22.6695 32.3807 22.8263C32.218 22.9831 32.0157 23.0368 31.8486 22.8621C31.6816 22.6874 31.4485 22.0917 31.5716 21.9708C31.6816 21.8633 32.2707 22.1096 32.4334 22.2843V22.2888Z" fill="#87552E"/>
</g>
<g style="mix-blend-mode:screen">
<path d="M32.2752 22.7188C32.1257 22.8666 31.941 22.9159 31.7871 22.786C31.8091 22.8173 31.8267 22.8442 31.8487 22.8621C32.0157 23.0368 32.218 22.9831 32.3807 22.8263C32.5434 22.6695 32.6005 22.4635 32.4335 22.2888C32.4159 22.2664 32.3895 22.2485 32.3587 22.2261C32.4774 22.3918 32.4247 22.5755 32.2752 22.7188Z" fill="#87552E"/>
</g>
<g style="mix-blend-mode:screen">
<path d="M28.0322 22.7725C28.1597 22.9069 28.1157 23.0637 27.9926 23.1846C27.8695 23.3055 27.7156 23.3459 27.5881 23.216C27.4606 23.0816 27.2803 22.6292 27.377 22.5351C27.4606 22.4545 27.9091 22.6426 28.0366 22.777L28.0322 22.7725Z" fill="#87552E"/>
</g>
<g style="mix-blend-mode:screen">
<path d="M27.9133 23.0995C27.799 23.2115 27.6583 23.2473 27.5396 23.1488C27.5571 23.1712 27.5703 23.1936 27.5879 23.207C27.7154 23.3414 27.8693 23.3011 27.9924 23.1757C28.1155 23.0547 28.1595 22.898 28.032 22.7636C28.0188 22.7457 27.9968 22.7322 27.9748 22.7143C28.0672 22.8397 28.0276 22.9786 27.9133 23.0906V23.0995Z" fill="#87552E"/>
</g>
<g style="mix-blend-mode:screen">
<path d="M29.3513 24.6851C29.1138 24.7209 28.9863 24.5687 28.9599 24.3581C28.9292 24.1476 29.0083 23.964 29.2457 23.9281C29.4832 23.8923 30.09 24.0267 30.1163 24.1835C30.1383 24.3268 29.5931 24.6493 29.3557 24.6851H29.3513Z" fill="#87552E"/>
</g>
<g style="mix-blend-mode:screen">
<path d="M29.105 24.3402C29.0787 24.1476 29.1446 23.9819 29.3425 23.9281C29.3073 23.9281 29.2721 23.9281 29.2457 23.9326C29.0083 23.9685 28.9292 24.1521 28.9599 24.3626C28.9907 24.5687 29.1182 24.7254 29.3513 24.6896C29.3777 24.6896 29.4084 24.6762 29.4436 24.6672C29.2414 24.6717 29.127 24.5328 29.1007 24.3447L29.105 24.3402Z" fill="#87552E"/>
</g>
<g style="mix-blend-mode:screen">
<path d="M31.0789 25.169C31.0349 24.9943 31.1405 24.8868 31.29 24.851C31.4395 24.8152 31.5802 24.86 31.6241 25.0346C31.6637 25.2093 31.6109 25.6796 31.4966 25.711C31.3955 25.7379 31.1229 25.3482 31.0789 25.169Z" fill="#87552E"/>
</g>
<g style="mix-blend-mode:screen">
<path d="M31.3164 24.9538C31.4571 24.918 31.5802 24.9628 31.6329 25.1061C31.6329 25.0793 31.6285 25.0524 31.6241 25.0345C31.5802 24.8553 31.4439 24.8105 31.29 24.8508C31.1405 24.8867 31.0394 24.9942 31.0789 25.1688C31.0833 25.1868 31.0921 25.2136 31.1009 25.2405C31.0833 25.0882 31.1757 24.9942 31.312 24.9583L31.3164 24.9538Z" fill="#87552E"/>
</g>
<g style="mix-blend-mode:screen">
<path d="M32.2749 27.7535C32.1122 27.7759 32.0287 27.6728 32.0067 27.534C31.9847 27.3907 32.0375 27.2653 32.2002 27.2429C32.3628 27.2205 32.7762 27.31 32.7937 27.4175C32.8069 27.5161 32.4376 27.7356 32.2749 27.7579V27.7535Z" fill="#87552E"/>
</g>
<g style="mix-blend-mode:screen">
<path d="M32.1034 27.5159C32.0858 27.386 32.1298 27.2695 32.2661 27.2337C32.2397 27.2337 32.2177 27.2337 32.2002 27.2337C32.0375 27.2561 31.9847 27.386 32.0067 27.5248C32.0287 27.6682 32.1122 27.7712 32.2749 27.7443C32.2925 27.7443 32.3145 27.7353 32.3409 27.7264C32.2046 27.7264 32.1254 27.6368 32.1078 27.5069L32.1034 27.5159Z" fill="#87552E"/>
</g>
<g style="mix-blend-mode:screen">
<path d="M36.4038 30.571C36.2411 30.5933 36.1576 30.4903 36.1356 30.347C36.1136 30.2037 36.1664 30.0783 36.3291 30.0559C36.4918 30.0335 36.9051 30.123 36.9226 30.2305C36.9358 30.3291 36.5665 30.5486 36.4038 30.571Z" fill="#87552E"/>
</g>
<g style="mix-blend-mode:screen">
<path d="M36.2367 30.3332C36.2191 30.2033 36.2631 30.0869 36.3994 30.051C36.373 30.051 36.351 30.051 36.3335 30.051C36.1708 30.0779 36.118 30.2033 36.14 30.3422C36.162 30.4855 36.2455 30.5885 36.4082 30.5661C36.4258 30.5661 36.4478 30.5572 36.4742 30.5482C36.3379 30.5482 36.2587 30.4586 36.2411 30.3287L36.2367 30.3332Z" fill="#87552E"/>
</g>
<g style="mix-blend-mode:screen">
<path d="M29.2807 30.2974C29.4302 30.2257 29.5401 30.2974 29.6017 30.4317C29.6632 30.5616 29.6456 30.696 29.4961 30.7677C29.351 30.8393 28.9245 30.8707 28.8806 30.7721C28.841 30.6826 29.1356 30.3645 29.2807 30.2974Z" fill="#87552E"/>
</g>
<g style="mix-blend-mode:screen">
<path d="M29.5094 30.4765C29.5622 30.5975 29.549 30.7184 29.4347 30.7945C29.4611 30.7856 29.4787 30.7811 29.4962 30.7721C29.6457 30.7005 29.6589 30.5661 29.6018 30.4362C29.5402 30.3063 29.4303 30.2302 29.2808 30.3018C29.2632 30.3108 29.2456 30.3198 29.2236 30.3377C29.3555 30.2929 29.4567 30.3601 29.5094 30.481V30.4765Z" fill="#87552E"/>
</g>
<g style="mix-blend-mode:screen">
<path d="M38.444 24.1566C38.5364 24.2954 38.4792 24.4164 38.3649 24.497C38.2462 24.5776 38.1143 24.5821 38.0219 24.4477C37.9296 24.3089 37.8329 23.8878 37.9208 23.8296C38 23.7759 38.3561 24.0222 38.444 24.1566Z" fill="#87552E"/>
</g>
<g style="mix-blend-mode:screen">
<path d="M38.3078 24.4164C38.1979 24.4925 38.0792 24.497 37.9868 24.3895C38 24.4119 38.0088 24.4343 38.0176 24.4477C38.1099 24.5866 38.2418 24.5776 38.3606 24.497C38.4749 24.4164 38.532 24.2909 38.4397 24.1566C38.4309 24.1431 38.4133 24.1207 38.3957 24.1028C38.4573 24.2282 38.4089 24.3402 38.3034 24.4119L38.3078 24.4164Z" fill="#87552E"/>
</g>
<g style="mix-blend-mode:screen">
<path d="M41.8161 27.3951C41.7018 27.2786 41.7281 27.1487 41.8293 27.0457C41.926 26.9427 42.0579 26.9114 42.1766 27.0278C42.2909 27.1443 42.4712 27.5339 42.3965 27.6146C42.3305 27.6862 41.9348 27.516 41.8161 27.3996V27.3951Z" fill="#87552E"/>
</g>
<g style="mix-blend-mode:screen">
<path d="M41.8996 27.1172C41.992 27.0232 42.1107 26.9918 42.2162 27.0769C42.1986 27.0545 42.1854 27.0366 42.1722 27.0232C42.0579 26.9067 41.926 26.9381 41.8249 27.0411C41.7281 27.1441 41.6974 27.2785 41.8117 27.3905C41.8249 27.4039 41.8425 27.4173 41.8644 27.4352C41.7765 27.3233 41.8073 27.2068 41.8952 27.1128L41.8996 27.1172Z" fill="#87552E"/>
</g>
<g style="mix-blend-mode:screen">
<path d="M24.7258 29.6434C24.6114 29.527 24.6378 29.3926 24.7389 29.2896C24.8357 29.1866 24.9676 29.1552 25.0863 29.2717C25.2006 29.3881 25.3809 29.7778 25.3061 29.8584C25.2402 29.9301 24.8445 29.7599 24.7258 29.6434Z" fill="#87552E"/>
</g>
<g style="mix-blend-mode:screen">
<path d="M24.8093 29.3612C24.9016 29.2672 25.0203 29.2358 25.1259 29.3209C25.1083 29.303 25.0951 29.2851 25.0819 29.2717C24.9676 29.1552 24.8357 29.1866 24.7345 29.2896C24.6378 29.3926 24.607 29.527 24.7213 29.6434C24.7345 29.6569 24.7521 29.6703 24.7741 29.6837C24.6862 29.5762 24.7126 29.4553 24.8049 29.3612H24.8093Z" fill="#87552E"/>
</g>
<g style="mix-blend-mode:screen">
<path d="M27.2891 25.2452C27.4078 25.1333 27.5397 25.1736 27.6321 25.2766C27.7288 25.3841 27.7508 25.5185 27.6321 25.6304C27.5134 25.7424 27.1176 25.9037 27.0473 25.823C26.9813 25.7514 27.1704 25.3572 27.2891 25.2452Z" fill="#87552E"/>
</g>
<g style="mix-blend-mode:screen">
<path d="M27.5573 25.3435C27.6452 25.4421 27.6672 25.563 27.5793 25.6705C27.6013 25.6571 27.6189 25.6436 27.632 25.6302C27.7508 25.5182 27.7288 25.3838 27.632 25.2763C27.5353 25.1688 27.4078 25.133 27.2891 25.245C27.2759 25.2584 27.2583 25.2763 27.2451 25.2943C27.355 25.2136 27.4738 25.245 27.5617 25.3435H27.5573Z" fill="#87552E"/>
</g>
<g style="mix-blend-mode:screen">
<path d="M24.1541 27.704C24.3168 27.704 24.3915 27.816 24.3915 27.9593C24.3915 28.1026 24.33 28.2236 24.1673 28.228C24.0046 28.2325 23.6045 28.0937 23.6001 27.9817C23.6001 27.8832 23.9914 27.713 24.1541 27.704Z" fill="#87552E"/>
</g>
<g style="mix-blend-mode:screen">
<path d="M24.295 27.9593C24.295 28.0937 24.2379 28.2012 24.1016 28.2191C24.128 28.2191 24.1499 28.2236 24.1675 28.2191C24.3302 28.2146 24.3962 28.0937 24.3918 27.9503C24.3918 27.807 24.3126 27.695 24.1543 27.695C24.1367 27.695 24.1148 27.695 24.0884 27.704C24.2247 27.7174 24.2906 27.8205 24.295 27.9503V27.9593Z" fill="#87552E"/>
</g>
<g style="mix-blend-mode:multiply">
<g style="mix-blend-mode:screen">
<path d="M40.7873 29.3523C40.5938 29.424 40.4004 29.3881 40.3168 29.1597C40.2685 29.0253 40.2465 28.7431 40.2685 28.5237C40.2025 28.7297 40.2157 29.1507 40.2817 29.3254C40.3652 29.5539 40.5587 29.5942 40.7521 29.518C40.9104 29.4598 41.0115 29.3433 41.0027 29.1776C40.9588 29.2538 40.8796 29.312 40.7829 29.3478L40.7873 29.3523Z" fill="#FADAB2"/>
</g>
<g style="mix-blend-mode:screen">
<path d="M39.9296 25.89C39.6966 25.8765 39.6043 25.7063 39.6131 25.5003C39.5955 25.5496 39.5823 25.5988 39.5779 25.6571C39.5647 25.8676 39.657 26.0423 39.8989 26.0602C40.1363 26.0736 40.7343 25.8721 40.7431 25.7287C40.7431 25.7018 40.7299 25.675 40.7079 25.6481C40.5452 25.7735 40.1231 25.9034 39.9296 25.89Z" fill="#FADAB2"/>
</g>
<g style="mix-blend-mode:screen">
<path d="M21.3309 27.7757C21.2605 27.704 21.2385 27.6278 21.2341 27.5562C21.1726 27.6771 21.177 27.816 21.3001 27.9459C21.4672 28.1205 22.0476 28.3759 22.1487 28.2728C22.1751 28.246 22.1795 28.1833 22.1707 28.1116C22.052 28.1922 21.498 27.9459 21.3353 27.7801L21.3309 27.7757Z" fill="#FADAB2"/>
</g>
<g style="mix-blend-mode:screen">
<path d="M25.0771 27.0724C24.8441 27.059 24.7517 26.8888 24.7605 26.6828C24.7429 26.732 24.7297 26.7813 24.7297 26.8395C24.7166 27.0501 24.8089 27.2247 25.0507 27.2427C25.2881 27.2561 25.8861 27.0545 25.8949 26.9112C25.8949 26.8888 25.8817 26.8575 25.8597 26.8306C25.6971 26.956 25.275 27.0859 25.0815 27.0724H25.0771Z" fill="#FADAB2"/>
</g>
<g style="mix-blend-mode:screen">
<path d="M38.2501 27.1575C38.1402 27.3457 37.8632 27.6234 37.7005 27.695C37.485 27.798 37.3179 27.6861 37.2344 27.4935C37.208 27.4397 37.1992 27.3815 37.1904 27.3277C37.1421 27.4263 37.1465 27.5427 37.1992 27.6592C37.2872 27.8518 37.4498 27.9638 37.6653 27.8608C37.8807 27.7577 38.316 27.2919 38.2545 27.162C38.2545 27.162 38.2457 27.1575 38.2457 27.1531L38.2501 27.1575Z" fill="#FADAB2"/>
</g>
<g style="mix-blend-mode:screen">
<path d="M37.995 29.1866C37.8059 29.1418 37.7356 29.0029 37.74 28.8461C37.7356 28.8641 37.7224 28.882 37.718 28.8999C37.6696 29.1059 37.7312 29.2941 37.9642 29.3523C38.1973 29.4105 38.8216 29.3164 38.8524 29.1776C38.8568 29.1507 38.8436 29.1149 38.8172 29.0746C38.6501 29.1731 38.1885 29.2313 37.995 29.1821V29.1866Z" fill="#FADAB2"/>
</g>
<g style="mix-blend-mode:screen">
<path d="M34.5917 27.7353C34.4906 27.6682 34.4422 27.5786 34.4378 27.489C34.3807 27.6368 34.3983 27.7936 34.561 27.9011C34.7588 28.0354 35.3744 28.1698 35.4535 28.0489C35.4711 28.0175 35.4667 27.9683 35.4491 27.9056C35.2952 27.9772 34.772 27.8563 34.5917 27.7353Z" fill="#FADAB2"/>
</g>
<g style="mix-blend-mode:screen">
<path d="M35.3043 23.0547C35.2208 23.1174 34.8603 22.898 34.7064 22.7367V22.7457C34.6844 22.7278 34.6668 22.7054 34.6536 22.6874C34.6228 22.6427 34.6052 22.6023 34.6008 22.562C34.5525 22.6471 34.5481 22.7501 34.6228 22.8576C34.636 22.8756 34.6536 22.898 34.6756 22.9159C34.6756 22.9159 34.6756 22.9069 34.6756 22.9024C34.8295 23.0637 35.19 23.2832 35.2736 23.2204C35.3043 23.1981 35.3131 23.1309 35.3043 23.0547Z" fill="#FADAB2"/>
</g>
<g style="mix-blend-mode:screen">
<path d="M36.3772 25.8138C36.2585 25.8452 35.9288 25.3928 35.8716 25.1868C35.8628 25.1644 35.8716 25.142 35.8672 25.1196C35.832 25.1823 35.8144 25.2584 35.8408 25.3525C35.8936 25.5585 36.2234 26.0109 36.3465 25.9795C36.4168 25.9616 36.4608 25.8049 36.4828 25.6257C36.4564 25.7242 36.4212 25.7959 36.3772 25.8093V25.8138Z" fill="#FADAB2"/>
</g>
<g style="mix-blend-mode:screen">
<path d="M30.1379 29.5628C30.0543 29.5046 30.0103 29.4329 30.0016 29.3568C29.9444 29.4911 29.9576 29.63 30.1071 29.7285C30.283 29.845 30.8238 29.9614 30.8897 29.8584C30.9073 29.8271 30.8985 29.7778 30.8765 29.7196C30.727 29.7688 30.2917 29.6658 30.1379 29.5628Z" fill="#FADAB2"/>
</g>
<g style="mix-blend-mode:screen">
<path d="M27.0426 27.6323C26.9591 27.5741 26.9151 27.5024 26.9063 27.4263C26.8492 27.5607 26.8624 27.6995 27.0119 27.798C27.1877 27.9145 27.7286 28.031 27.7945 27.9279C27.8121 27.8966 27.8033 27.8473 27.7813 27.7891C27.6318 27.8384 27.1965 27.7353 27.0426 27.6323Z" fill="#FADAB2"/>
</g>
<g style="mix-blend-mode:screen">
<path d="M25.9388 24.8777C25.7981 24.9135 25.4156 24.3895 25.354 24.1521C25.3452 24.1207 25.3496 24.0939 25.3496 24.0625C25.3145 24.1297 25.2969 24.2148 25.3232 24.3178C25.3848 24.5552 25.7673 25.0793 25.908 25.0434C25.9872 25.021 26.0399 24.8464 26.0663 24.6493C26.0355 24.7702 25.9916 24.8598 25.9388 24.8777Z" fill="#FADAB2"/>
</g>
<g style="mix-blend-mode:screen">
<path d="M33.796 25.5361C33.6861 25.5003 33.6377 25.0613 33.6641 24.7792C33.6641 24.7792 33.6641 24.7836 33.6597 24.7881C33.585 25.021 33.6289 25.6615 33.7652 25.7018C33.9147 25.7511 34.3016 25.2495 34.372 25.021C34.3852 24.9762 34.3896 24.9359 34.3852 24.8956C34.2841 25.142 33.9367 25.5854 33.7916 25.5361H33.796Z" fill="#FADAB2"/>
</g>
<g style="mix-blend-mode:screen">
<path d="M23.7755 26.4678C23.6656 26.4319 23.6172 25.993 23.6436 25.7108C23.6436 25.7108 23.6436 25.7153 23.6392 25.7198C23.5644 25.9527 23.6084 26.5932 23.7447 26.6335C23.8942 26.6828 24.2811 26.1811 24.3515 25.9527C24.3647 25.9079 24.3647 25.8676 24.3647 25.8273C24.2636 26.0736 23.9162 26.517 23.7711 26.4678H23.7755Z" fill="#FADAB2"/>
</g>
<g style="mix-blend-mode:screen">
<path d="M27.5395 29.2806C27.3284 29.3702 26.7525 29.3881 26.6513 29.2582C26.6117 29.3209 26.5898 29.3747 26.603 29.4105C26.6601 29.5583 27.2845 29.5404 27.5087 29.4508C27.6714 29.3836 27.733 29.2537 27.7198 29.1149C27.689 29.1821 27.6318 29.2448 27.5395 29.2851V29.2806Z" fill="#FADAB2"/>
</g>
<g style="mix-blend-mode:screen">
<path d="M29.8081 27.5696C29.6586 27.7174 29.4652 27.7577 29.2981 27.5831C29.2805 27.5651 29.2585 27.5383 29.2365 27.5069C29.1222 27.3457 29.0035 27.0635 28.9771 26.8798C28.9771 26.8798 28.9683 26.8798 28.9639 26.8798C28.8628 26.9784 29.0475 27.4442 29.2058 27.6726C29.2278 27.704 29.2497 27.7309 29.2673 27.7488C29.4344 27.9235 29.6279 27.8787 29.7774 27.7353C29.8653 27.6502 29.9093 27.5427 29.9049 27.4352C29.8829 27.48 29.8521 27.5248 29.8081 27.5651V27.5696Z" fill="#FADAB2"/>
</g>
<g style="mix-blend-mode:screen">
<path d="M33.6994 29.5538C33.6027 29.7554 33.3521 30.0465 33.1982 30.1316C32.9915 30.2526 32.8156 30.154 32.7145 29.9749C32.6793 29.9122 32.6618 29.845 32.6574 29.7823C32.6002 29.8898 32.6134 30.0197 32.6837 30.1406C32.7849 30.3242 32.9563 30.4183 33.1674 30.2974C33.374 30.1809 33.7698 29.6793 33.6994 29.5494V29.5538Z" fill="#FADAB2"/>
</g>
<g style="mix-blend-mode:screen">
<path d="M34.5128 30.172C34.3897 30.1361 34.3017 30.0555 34.2929 29.9346C34.2841 29.9525 34.2753 29.9704 34.2709 29.9838C34.2182 30.172 34.3193 30.2884 34.4776 30.3377C34.6359 30.387 34.7854 30.3466 34.8425 30.1585C34.8557 30.1227 34.8601 30.0689 34.8645 30.0152C34.803 30.1809 34.6623 30.2168 34.5128 30.172Z" fill="#FADAB2"/>
</g>
<g style="mix-blend-mode:screen">
<path d="M32.3761 22.8263C32.2134 22.9831 32.0112 23.0368 31.8441 22.8621C31.8265 22.8397 31.8045 22.8129 31.7825 22.786C31.6726 22.6203 31.5539 22.3291 31.5363 22.141C31.4264 22.2485 31.5978 22.7233 31.7561 22.9517C31.7781 22.9831 31.7957 23.0099 31.8177 23.0278C31.9848 23.2025 32.187 23.1488 32.3497 22.992C32.4508 22.8935 32.4992 22.7815 32.4948 22.665C32.4684 22.7233 32.4333 22.777 32.3849 22.8263H32.3761Z" fill="#FADAB2"/>
</g>
<g style="mix-blend-mode:screen">
<path d="M27.988 23.1801C27.8649 23.3011 27.711 23.3414 27.5835 23.2115C27.5703 23.1981 27.5527 23.1757 27.5351 23.1533C27.5351 23.1533 27.5439 23.1533 27.5439 23.1577C27.4603 23.0458 27.3768 22.8442 27.3548 22.6964C27.3504 22.6964 27.3416 22.6964 27.3372 22.6964C27.2537 22.7815 27.39 23.1533 27.5131 23.3235C27.5131 23.3235 27.5087 23.3235 27.5043 23.319C27.5219 23.3414 27.5351 23.3638 27.5527 23.3772C27.6802 23.5116 27.8341 23.4713 27.9572 23.3503C28.0363 23.2697 28.0803 23.1757 28.0671 23.0861C28.0495 23.1219 28.0232 23.1533 27.9924 23.1846L27.988 23.1801Z" fill="#FADAB2"/>
</g>
<g style="mix-blend-mode:screen">
<path d="M30.0501 24.3044C29.927 24.4343 29.6368 24.6 29.4434 24.6627C29.4082 24.6761 29.3774 24.6851 29.351 24.6851C29.1136 24.7209 28.9861 24.5687 28.9597 24.3581C28.9597 24.3313 28.9597 24.3044 28.9597 24.2775C28.9289 24.3492 28.9157 24.4343 28.9289 24.5239C28.9597 24.7299 29.0872 24.8867 29.3202 24.8508C29.3466 24.8508 29.3818 24.8374 29.4126 24.8284C29.672 24.7433 30.0985 24.4791 30.0809 24.3537C30.0809 24.3357 30.0677 24.3178 30.0545 24.2999L30.0501 24.3044Z" fill="#FADAB2"/>
</g>
<g style="mix-blend-mode:screen">
<path d="M31.4919 25.7063C31.3995 25.7287 31.1797 25.4286 31.1005 25.236C31.0874 25.2136 31.083 25.1868 31.0786 25.1688C31.0786 25.1554 31.0786 25.1464 31.0786 25.133C31.0434 25.1868 31.0258 25.2539 31.0478 25.339C31.0522 25.357 31.061 25.3838 31.0698 25.4062C31.1489 25.5988 31.3732 25.8989 31.4611 25.8765C31.5226 25.8586 31.5666 25.7063 31.5886 25.5451C31.5666 25.6302 31.5314 25.6974 31.4919 25.7063Z" fill="#FADAB2"/>
</g>
<g style="mix-blend-mode:screen">
<path d="M32.3363 27.7353C32.3144 27.7443 32.2924 27.7488 32.2704 27.7533C32.1077 27.7757 32.0242 27.6726 32.0022 27.5338C32.0022 27.5248 32.0022 27.5159 32.0022 27.5069C31.9714 27.5607 31.9582 27.6278 31.9714 27.6995C31.9934 27.8428 32.0769 27.9459 32.2396 27.9235C32.2572 27.9235 32.2792 27.9145 32.3012 27.9055C32.477 27.8473 32.7672 27.6682 32.754 27.5831C32.754 27.5651 32.7277 27.5472 32.7057 27.5293C32.609 27.6144 32.4507 27.704 32.3319 27.7398L32.3363 27.7353Z" fill="#FADAB2"/>
</g>
<g style="mix-blend-mode:screen">
<path d="M36.4692 30.5572C36.4472 30.5661 36.4252 30.5706 36.4032 30.5751C36.2405 30.5975 36.157 30.4945 36.135 30.3511C36.135 30.3422 36.135 30.3332 36.135 30.3242C36.1042 30.378 36.091 30.4452 36.1042 30.5168C36.1262 30.6602 36.2097 30.7632 36.3724 30.7363C36.39 30.7363 36.412 30.7274 36.4384 30.7229C36.6143 30.6647 36.9044 30.4855 36.8913 30.4004C36.8913 30.3825 36.8649 30.3646 36.8429 30.3466C36.7462 30.4317 36.5879 30.5213 36.4692 30.5572Z" fill="#FADAB2"/>
</g>
<g style="mix-blend-mode:screen">
<path d="M29.4961 30.7677C29.4961 30.7677 29.4565 30.7856 29.4345 30.7901C29.2719 30.8393 28.9905 30.8528 28.9069 30.7901C28.863 30.8528 28.8322 30.911 28.8454 30.9423C28.8849 31.0319 29.2191 31.014 29.3994 30.9603C29.4258 30.9513 29.4433 30.9468 29.4609 30.9379C29.5753 30.8841 29.6104 30.7856 29.5928 30.687C29.5709 30.7184 29.5401 30.7497 29.4961 30.7721V30.7677Z" fill="#FADAB2"/>
</g>
<g style="mix-blend-mode:screen">
<path d="M38.36 24.497C38.2413 24.5776 38.1094 24.5821 38.0171 24.4477C38.0083 24.4298 37.9951 24.4119 37.9863 24.3895C37.9863 24.3895 37.9907 24.3895 37.9951 24.3984C37.9423 24.2954 37.8983 24.1297 37.8896 23.9998C37.8104 24.0536 37.8852 24.3984 37.9687 24.5686C37.9687 24.5686 37.9643 24.5686 37.9599 24.5597C37.9731 24.5821 37.9819 24.6045 37.9907 24.6179C38.083 24.7568 38.2149 24.7478 38.3336 24.6717C38.426 24.609 38.4743 24.5194 38.4524 24.4164C38.4304 24.4477 38.404 24.4791 38.3688 24.5059L38.36 24.497Z" fill="#FADAB2"/>
</g>
<g style="mix-blend-mode:screen">
<path d="M41.8601 27.4308C41.8601 27.4308 41.8601 27.4352 41.8645 27.4397C41.8425 27.4263 41.8249 27.4129 41.8117 27.3949C41.7722 27.3546 41.7546 27.3143 41.7458 27.274C41.6886 27.3636 41.6842 27.4711 41.781 27.5651C41.7941 27.5786 41.8117 27.592 41.8337 27.6055C41.8337 27.6055 41.8337 27.601 41.8293 27.5965C41.9744 27.7085 42.2998 27.8428 42.3613 27.7757C42.3877 27.7488 42.3789 27.6861 42.3613 27.6144C42.2602 27.6368 41.9964 27.5293 41.8645 27.4263L41.8601 27.4308Z" fill="#FADAB2"/>
</g>
<g style="mix-blend-mode:screen">
<path d="M24.7737 29.6748C24.7737 29.6748 24.7737 29.6793 24.7781 29.6837C24.7561 29.6703 24.7385 29.6569 24.7253 29.6434C24.6857 29.6031 24.6682 29.5628 24.6594 29.5225C24.6022 29.6121 24.5978 29.7196 24.6945 29.8092C24.7077 29.8226 24.7253 29.836 24.7473 29.8539C24.7473 29.8539 24.7473 29.8495 24.7429 29.845C24.888 29.957 25.2134 30.0913 25.2749 30.0241C25.3013 29.9973 25.2925 29.9346 25.2749 29.8629C25.1782 29.8853 24.91 29.7778 24.7781 29.6748H24.7737Z" fill="#FADAB2"/>
</g>
<g style="mix-blend-mode:screen">
<path d="M27.6317 25.6257C27.6317 25.6257 27.6009 25.6526 27.5789 25.666C27.5789 25.666 27.5789 25.6615 27.5833 25.6571C27.4338 25.7646 27.1085 25.89 27.0425 25.8183C27.0337 25.8094 27.0425 25.7914 27.0425 25.778C27.0073 25.8721 26.9897 25.9572 27.0161 25.984C27.0821 26.0557 27.4074 25.9303 27.5569 25.8228C27.5569 25.8228 27.5569 25.8273 27.5525 25.8317C27.5745 25.8183 27.5921 25.8049 27.6053 25.7914C27.6801 25.7242 27.6932 25.6436 27.6757 25.572C27.6625 25.5899 27.6537 25.6078 27.6361 25.6257H27.6317Z" fill="#FADAB2"/>
</g>
<g style="mix-blend-mode:screen">
<path d="M24.1668 28.2236C24.1668 28.2236 24.1273 28.2236 24.1009 28.2236C23.9602 28.2056 23.7447 28.1295 23.648 28.0534C23.5996 28.0892 23.5645 28.1205 23.5645 28.1519C23.5645 28.2504 23.881 28.3669 24.0657 28.3938C24.0921 28.3938 24.1141 28.3982 24.1317 28.3982C24.2943 28.3938 24.3603 28.2773 24.3559 28.1295C24.3559 28.125 24.3559 28.1205 24.3559 28.1116C24.3207 28.1788 24.2636 28.2236 24.1624 28.228L24.1668 28.2236Z" fill="#FADAB2"/>
</g>
</g>
</g>
<defs>
<linearGradient id="paint0_linear_1_1597" x1="32.002" y1="43" x2="32.002" y2="37.6834" gradientUnits="userSpaceOnUse">
<stop stop-color="#C46D1D"/>
<stop offset="0.05" stop-color="#C77020"/>
<stop offset="0.68" stop-color="#EB9F47"/>
<stop offset="1" stop-color="#FAB157"/>
</linearGradient>
<linearGradient id="paint1_linear_1_1597" x1="25.1229" y1="40.9533" x2="25.6273" y2="37.801" gradientUnits="userSpaceOnUse">
<stop stop-color="#A2CF48"/>
<stop offset="0.02" stop-color="#9FCC46"/>
<stop offset="0.47" stop-color="#759C26"/>
<stop offset="0.81" stop-color="#5A7F13"/>
<stop offset="1" stop-color="#51740C"/>
</linearGradient>
<linearGradient id="paint2_linear_1_1597" x1="36.7662" y1="41.6147" x2="35.7016" y2="36.0664" gradientUnits="userSpaceOnUse">
<stop stop-color="#A2CF48"/>
<stop offset="0.02" stop-color="#9FCC46"/>
<stop offset="0.47" stop-color="#759C26"/>
<stop offset="0.81" stop-color="#5A7F13"/>
<stop offset="1" stop-color="#51740C"/>
</linearGradient>
<linearGradient id="paint3_linear_1_1597" x1="32.0022" y1="39.0226" x2="32.0022" y2="35.6767" gradientUnits="userSpaceOnUse">
<stop stop-color="#330600"/>
<stop offset="1" stop-color="#6B1C0A"/>
</linearGradient>
<linearGradient id="paint4_linear_1_1597" x1="38.2937" y1="37.461" x2="38.2447" y2="32.1006" gradientUnits="userSpaceOnUse">
<stop stop-color="#A80909"/>
<stop offset="0.86" stop-color="#E53B2B"/>
<stop offset="1" stop-color="#F04431"/>
</linearGradient>
<linearGradient id="paint5_linear_1_1597" x1="38.213" y1="36.2982" x2="38.1747" y2="32.1082" gradientUnits="userSpaceOnUse">
<stop stop-color="#F04431"/>
<stop offset="0.14" stop-color="#E53B2B"/>
<stop offset="1" stop-color="#A80909"/>
</linearGradient>
<linearGradient id="paint6_linear_1_1597" x1="25.0698" y1="37.2059" x2="26.0297" y2="33.0192" gradientUnits="userSpaceOnUse">
<stop stop-color="#A80909"/>
<stop offset="0.86" stop-color="#E53B2B"/>
<stop offset="1" stop-color="#F04431"/>
</linearGradient>
<linearGradient id="paint7_linear_1_1597" x1="25.2437" y1="36.5124" x2="25.9929" y2="33.235" gradientUnits="userSpaceOnUse">
<stop stop-color="#F04431"/>
<stop offset="0.14" stop-color="#E53B2B"/>
<stop offset="1" stop-color="#A80909"/>
</linearGradient>
<linearGradient id="paint8_linear_1_1597" x1="33.6381" y1="37.4325" x2="33.6381" y2="33.052" gradientUnits="userSpaceOnUse">
<stop stop-color="#D3680D"/>
<stop offset="0.12" stop-color="#D97A16"/>
<stop offset="0.37" stop-color="#E49C28"/>
<stop offset="0.6" stop-color="#ECB534"/>
<stop offset="0.82" stop-color="#F1C33C"/>
<stop offset="1" stop-color="#F3C93F"/>
</linearGradient>
<linearGradient id="paint9_linear_1_1597" x1="22.4084" y1="35.2915" x2="22.9505" y2="32.729" gradientUnits="userSpaceOnUse">
<stop stop-color="#D3680D"/>
<stop offset="0.12" stop-color="#D97A16"/>
<stop offset="0.37" stop-color="#E49C28"/>
<stop offset="0.6" stop-color="#ECB534"/>
<stop offset="0.82" stop-color="#F1C33C"/>
<stop offset="1" stop-color="#F3C93F"/>
</linearGradient>
<linearGradient id="paint10_linear_1_1597" x1="44.0984" y1="35.1845" x2="42.629" y2="32.3985" gradientUnits="userSpaceOnUse">
<stop stop-color="#D3680D"/>
<stop offset="0.12" stop-color="#D97A16"/>
<stop offset="0.37" stop-color="#E49C28"/>
<stop offset="0.6" stop-color="#ECB534"/>
<stop offset="0.82" stop-color="#F1C33C"/>
<stop offset="1" stop-color="#F3C93F"/>
</linearGradient>
<linearGradient id="paint11_linear_1_1597" x1="39.798" y1="34.7003" x2="38.7305" y2="31.8555" gradientUnits="userSpaceOnUse">
<stop stop-color="#A2CF48"/>
<stop offset="0.02" stop-color="#9FCC46"/>
<stop offset="0.47" stop-color="#759C26"/>
<stop offset="0.81" stop-color="#5A7F13"/>
<stop offset="1" stop-color="#51740C"/>
</linearGradient>
<linearGradient id="paint12_linear_1_1597" x1="25.7762" y1="35.0631" x2="26.8874" y2="30.3063" gradientUnits="userSpaceOnUse">
<stop stop-color="#A2CF48"/>
<stop offset="0.02" stop-color="#9FCC46"/>
<stop offset="0.47" stop-color="#759C26"/>
<stop offset="0.81" stop-color="#5A7F13"/>
<stop offset="1" stop-color="#51740C"/>
</linearGradient>
<linearGradient id="paint13_linear_1_1597" x1="31.9977" y1="33.3745" x2="31.9977" y2="20" gradientUnits="userSpaceOnUse">
<stop stop-color="#C46D1D"/>
<stop offset="0.05" stop-color="#C77020"/>
<stop offset="0.68" stop-color="#EB9F47"/>
<stop offset="1" stop-color="#FAB157"/>
</linearGradient>
<clipPath id="clip0_1_1597">
<rect width="30" height="23" fill="white" transform="translate(17 20)"/>
</clipPath>
</defs>
</svg>
