<svg width="46" height="46" viewBox="0 0 46 46" fill="none" xmlns="http://www.w3.org/2000/svg">
<path d="M23.3852 45.2C35.8668 45.2 45.9852 35.0816 45.9852 22.6C45.9852 10.1184 35.8668 0 23.3852 0C10.9035 0 0.785156 10.1184 0.785156 22.6C0.785156 35.0816 10.9035 45.2 23.3852 45.2Z" fill="white"/>
<path d="M10.3051 14.97C10.2951 14.87 10.3051 14.77 10.3051 14.68C10.4151 13.93 11.0751 13.4 11.7351 13.02C13.0851 12.23 14.5951 11.73 16.1451 11.53C17.1651 11.4 18.2051 11.39 19.2351 11.48C19.7551 11.52 20.2651 11.59 20.7751 11.68C21.0351 11.72 21.2851 11.77 21.5351 11.82C21.6351 11.84 21.7251 11.85 21.8351 11.85C21.9551 11.85 22.0851 11.9 22.2051 11.93C22.4051 11.98 22.5951 12.02 22.7951 12.07C24.5751 12.51 26.3351 13.06 28.0051 13.83C29.4451 14.48 30.8351 15.3 31.9851 16.39C32.9851 17.34 33.7751 18.52 34.1151 19.87C34.4851 21.36 34.2751 22.9 33.7651 24.32C33.2251 25.83 32.3251 27.2 30.9951 28.11C29.8051 28.93 28.3851 29.33 26.9551 29.45C23.9951 29.71 20.9851 28.94 18.1951 27.96C17.8851 27.85 17.5951 27.74 17.3051 27.6C17.0851 27.5 16.8451 27.45 16.6151 27.34C15.9151 26.97 15.3151 26.43 14.5951 26.08C14.1951 25.89 13.7551 25.76 13.3751 25.51C12.9551 25.24 12.6251 24.84 12.2451 24.51C11.8751 24.2 11.4551 23.95 11.1051 23.62C10.7251 23.25 10.4451 22.8 10.1651 22.34C10.0751 22.19 9.98509 22.04 9.89509 21.89C9.85509 21.83 9.81509 21.77 9.78509 21.7C9.78509 21.69 9.77509 21.68 9.77509 21.67C9.77509 21.65 9.77509 21.63 9.76509 21.61C9.75509 21.58 9.73509 21.55 9.72509 21.52C9.66509 21.4 9.60509 21.27 9.54509 21.15C9.50509 21.08 9.47509 21.01 9.43509 20.93C9.41509 20.9 9.39509 20.86 9.38509 20.83C9.38509 20.8 9.36509 20.77 9.34509 20.74C9.19509 20.42 9.09509 20.08 9.06509 19.73C9.04509 19.47 9.05509 19.21 9.08509 18.96C9.14509 18.5 9.15509 17.94 9.55509 17.7C9.86509 17.51 10.2551 17.61 10.5951 17.76C10.6751 17.8 10.7551 17.83 10.8351 17.88C10.9151 17.93 10.9851 17.98 11.0551 18.03C11.2551 18.18 11.4351 18.34 11.6151 18.5C11.7951 18.66 11.9751 18.83 12.1751 18.98C12.2751 19.05 12.3751 19.12 12.4751 19.19C12.5051 19.21 12.5251 19.22 12.5551 19.24C12.5551 19.24 12.5751 19.24 12.5851 19.24C12.6251 19.25 12.6551 19.28 12.6951 19.3C12.9851 19.46 13.2951 19.57 13.6151 19.66C13.9651 19.76 14.3251 19.83 14.6951 19.89C15.6451 20.05 16.6451 20.18 17.5351 19.86C17.8751 19.74 18.2051 19.53 18.3251 19.19C18.4651 18.8 18.2751 18.35 18.0151 18.02C17.1651 16.93 15.6951 16.59 14.3451 16.31C13.8451 16.21 13.3451 16.11 12.8551 16.01C12.6551 15.97 12.4651 15.92 12.2651 15.94C12.0651 15.95 11.8751 15.88 11.6851 15.83C11.4251 15.75 11.1551 15.67 10.8951 15.59C10.7751 15.55 10.6551 15.51 10.5551 15.44C10.4051 15.32 10.3251 15.14 10.2951 14.95L10.3051 14.97Z" fill="url(#paint0_linear_1_807)"/>
<path d="M31.5851 16.02C31.4651 15.92 31.3351 15.81 31.2051 15.71C31.1851 15.7 31.1651 15.68 31.1451 15.67C31.0151 15.57 30.8951 15.48 30.7651 15.39C30.7451 15.37 30.7251 15.36 30.7051 15.34C30.5751 15.25 30.4451 15.16 30.3151 15.07C30.2951 15.06 30.2751 15.04 30.2551 15.03C29.8551 14.78 29.4451 14.56 29.0451 14.33C28.7051 14.15 28.3651 13.99 28.0251 13.83C27.2251 13.46 26.3951 13.15 25.5651 12.87C25.7451 13.05 25.9351 13.2 26.1351 13.35C26.6951 13.74 27.3451 14.04 27.9551 14.34C27.9551 14.34 27.9551 14.34 27.9651 14.34C28.4351 14.57 28.9051 14.81 29.3651 15.06C29.5751 15.18 29.8351 15.28 30.0251 15.44C30.0851 15.49 30.1251 15.56 30.1851 15.61C30.3851 15.77 30.6051 15.91 30.8051 16.08C31.0151 16.25 31.2151 16.42 31.4051 16.61C32.3551 17.51 33.0951 18.62 33.4151 19.89C33.7651 21.29 33.5651 22.75 33.0851 24.09C32.5051 25.73 31.4551 27.16 29.9251 28.01C28.5151 28.79 26.8651 29.02 25.2651 28.98C25.0651 28.98 24.8651 28.96 24.6651 28.95C24.5251 28.95 24.3751 28.95 24.2451 28.91C24.1451 28.88 24.0651 28.87 23.9551 28.87C23.7051 28.86 23.4551 28.85 23.2051 28.85C22.7051 28.85 22.2051 28.87 21.6951 28.91C21.6151 28.91 21.5351 28.92 21.4551 28.93C22.9051 29.27 24.4251 29.51 25.8951 29.5C25.9051 29.5 25.9151 29.5 25.9251 29.5C26.2451 29.48 26.5651 29.5 26.8851 29.47C26.9151 29.47 26.9551 29.47 26.9851 29.47C27.1051 29.46 27.2251 29.45 27.3551 29.43C27.3851 29.43 27.4151 29.43 27.4451 29.42C27.5951 29.4 27.7351 29.38 27.8751 29.35C27.9051 29.35 27.9251 29.34 27.9551 29.33C28.0751 29.31 28.1951 29.28 28.3151 29.26C28.3451 29.26 28.3851 29.25 28.4151 29.24C28.5551 29.21 28.6951 29.17 28.8351 29.13C28.8551 29.13 28.8651 29.12 28.8851 29.11C29.0051 29.07 29.1251 29.03 29.2551 28.99C29.2851 28.98 29.3251 28.97 29.3551 28.96C29.6251 28.86 29.8951 28.75 30.1551 28.62C30.1851 28.6 30.2151 28.59 30.2451 28.57C30.3551 28.51 30.4551 28.46 30.5651 28.4C30.5851 28.39 30.6151 28.37 30.6451 28.36C30.6651 28.35 30.6851 28.33 30.7151 28.32C30.7751 28.28 30.8451 28.24 30.9051 28.2C30.9351 28.18 30.9651 28.16 30.9951 28.14C31.0551 28.1 31.1151 28.05 31.1751 28.01C31.2051 27.99 31.2251 27.97 31.2551 27.95C31.3251 27.9 31.3951 27.84 31.4551 27.79C31.4851 27.77 31.5151 27.74 31.5451 27.71C31.5951 27.67 31.6451 27.62 31.6951 27.58C31.7251 27.56 31.7451 27.53 31.7751 27.51C31.8451 27.44 31.9151 27.37 31.9851 27.3C32.0051 27.28 32.0151 27.27 32.0351 27.25C32.0951 27.19 32.1451 27.13 32.2051 27.07C32.2251 27.04 32.2551 27.02 32.2751 26.99C32.3251 26.93 32.3851 26.86 32.4351 26.8C32.4551 26.78 32.4651 26.76 32.4851 26.74C32.5451 26.66 32.6151 26.57 32.6751 26.49C32.6951 26.46 32.7151 26.43 32.7351 26.4C32.7751 26.34 32.8251 26.27 32.8651 26.21C32.8851 26.18 32.9051 26.14 32.9251 26.11C32.9851 26.02 33.0351 25.93 33.0951 25.83C33.0951 25.82 33.1151 25.8 33.1151 25.79C33.1651 25.7 33.2151 25.61 33.2651 25.52C33.2751 25.49 33.2951 25.46 33.3051 25.44C33.3551 25.34 33.4051 25.23 33.4551 25.13V25.12C33.5051 25.01 33.5551 24.89 33.6051 24.78C33.6151 24.75 33.6251 24.72 33.6351 24.69C33.6851 24.57 33.7251 24.45 33.7751 24.33C34.2751 22.91 34.4951 21.37 34.1251 19.88C33.7951 18.53 33.0051 17.36 31.9951 16.4C31.8751 16.28 31.7451 16.17 31.6151 16.06C31.6051 16.05 31.5851 16.04 31.5751 16.03L31.5851 16.02Z" fill="#583B37"/>
<path d="M11.3152 18.86C11.4352 18.93 11.5452 19.06 11.6652 19.15C12.4052 19.74 13.2452 20.2 14.1352 20.5C14.5852 20.65 15.0452 20.76 15.5052 20.83C15.7052 20.86 15.9452 20.92 16.1452 20.88C16.2152 20.87 16.2752 20.84 16.3352 20.82C16.5452 20.76 16.7652 20.76 16.9852 20.7C17.9352 20.47 19.2452 19.93 19.0552 18.72C18.9852 18.25 18.7152 17.85 18.3852 17.52C18.2252 17.36 18.0452 17.21 17.8552 17.08C17.7052 16.97 17.5252 16.89 17.3852 16.78C17.3152 16.73 17.2652 16.68 17.1752 16.64C17.0552 16.59 16.9452 16.54 16.8252 16.49C16.3552 16.3 15.8652 16.13 15.3752 15.99C14.3952 15.71 13.3852 15.53 12.3652 15.47C12.2952 15.47 12.2252 15.47 12.1552 15.46C11.7552 15.44 11.2552 15.36 11.1452 14.98C11.0952 14.82 11.1452 14.66 11.1952 14.52C11.2452 14.4 11.2252 14.27 11.2952 14.15C11.4552 13.87 11.7652 13.71 12.0452 13.58C12.9452 13.14 13.8952 12.8 14.8652 12.56C15.3552 12.44 15.8552 12.38 16.3452 12.27C16.5052 12.24 16.6452 12.15 16.8052 12.12C17.1852 12.04 17.6452 12.1 18.0352 12.13C18.6752 12.18 19.3252 12.27 19.9552 12.39C20.3752 12.47 20.7952 12.54 21.2252 12.63C21.6152 12.71 22.0552 12.75 22.4252 12.9C23.0452 13.15 23.4352 13.8 23.7752 14.33C24.0952 14.83 24.5852 15.36 25.1652 15.28C25.4552 15.24 25.6952 15.06 25.9552 14.93C27.5552 14.13 29.2152 15.42 30.4052 16.41C31.7452 17.52 33.0952 19.32 32.8552 21.15C32.7552 21.92 32.5452 22.82 31.8152 23.07C31.6252 23.14 31.4052 23.14 31.2152 23.22C31.0252 23.3 30.8552 23.48 30.8852 23.68C30.9352 23.94 31.2552 24.12 31.3652 24.36C31.4852 24.62 31.5752 24.94 31.5852 25.23C31.6152 25.76 31.2352 26.16 30.8952 26.51C30.2952 27.13 29.5752 27.62 28.7752 27.94C27.4852 28.47 26.0652 28.6 24.6752 28.52C24.4052 28.51 24.1552 28.48 23.9052 28.38C23.3852 28.18 22.8452 28.09 22.3852 27.74C21.9152 27.39 21.5552 26.87 21.0052 26.68C20.5452 26.52 20.0552 26.62 19.5852 26.71C19.1452 26.79 18.6952 26.86 18.2452 26.89C17.3752 26.95 16.4352 26.38 15.6552 26.05C15.3452 25.92 15.0452 25.77 14.7452 25.62C13.5452 24.99 12.5452 24.31 11.6952 23.28C11.2152 22.7 10.7852 22.07 10.3652 21.45C10.0852 21.05 9.80521 20.64 9.65521 20.17C9.51521 19.74 9.5252 19.21 9.7152 18.8C9.8052 18.61 9.9652 18.44 10.1852 18.41C10.5052 18.37 10.7252 18.6 10.9852 18.73C11.0952 18.78 11.2152 18.83 11.3152 18.88C11.3152 18.88 11.3152 18.88 11.3252 18.88L11.3152 18.86Z" fill="url(#paint1_linear_1_807)"/>
<path d="M21.8049 19.2C21.8449 19.03 21.8649 18.86 21.8849 18.68C21.9149 18.33 21.9149 17.98 21.8849 17.63C21.8549 17.34 21.7949 17.05 21.7149 16.77C21.6449 16.53 21.5549 16.3 21.5449 16.06C21.5149 15.66 21.6749 15.27 21.8349 14.9C22.0149 14.49 22.1949 14.07 22.2749 13.63C22.3249 13.37 22.3249 13.08 22.2749 12.82C22.1149 12.77 21.9349 12.73 21.7649 12.7C21.7849 12.8 21.8249 12.89 21.8549 12.98C21.9249 13.24 21.8549 13.52 21.7849 13.77C21.6349 14.22 21.4349 14.65 21.3049 15.1C21.1749 15.55 21.1249 16.05 21.2849 16.5C21.3549 16.69 21.4649 16.87 21.5149 17.07C21.5649 17.26 21.5649 17.45 21.5649 17.65C21.5649 18.12 21.5649 18.59 21.5549 19.05C21.5549 19.14 21.5549 19.24 21.6149 19.31C21.6549 19.36 21.7249 19.39 21.7849 19.37C21.8549 19.35 21.8449 19.26 21.8549 19.2H21.8049Z" fill="#F3938E"/>
<path d="M20.6949 19.5C20.7849 19.55 20.9249 19.52 20.9449 19.41C20.8649 19.02 20.7849 18.63 20.5849 18.29C20.4249 18.02 20.1849 17.79 20.0849 17.5C19.9749 17.2 20.0149 16.87 20.0049 16.55C19.9949 16.19 19.9149 15.83 19.7649 15.5C19.6549 15.24 19.4949 14.99 19.4149 14.72C19.2649 14.23 19.3549 13.7 19.3449 13.18C19.3449 12.9 19.2949 12.61 19.1649 12.35C19.1449 12.3 19.1149 12.26 19.0849 12.22C18.8849 12.19 18.6849 12.16 18.4849 12.14C18.4949 12.17 18.5149 12.19 18.5249 12.22C18.7449 12.7 18.9449 13.21 18.9349 13.74C18.9349 13.97 18.8849 14.2 18.9349 14.42C18.9649 14.55 19.0149 14.67 19.0749 14.78C19.2249 15.11 19.3749 15.43 19.5249 15.76C19.5749 15.88 19.6349 15.99 19.6649 16.12C19.7349 16.41 19.6649 16.72 19.7349 17.01C19.7849 17.22 19.9149 17.4 19.9749 17.61C20.0349 17.83 19.9949 18.08 20.0949 18.29C20.2049 18.53 20.4549 18.69 20.5249 18.94C20.5549 19.04 20.5449 19.15 20.5649 19.25C20.5849 19.35 20.6149 19.46 20.7049 19.52L20.6949 19.5Z" fill="#F3938E"/>
<path d="M20.1353 19.42C20.1853 19.36 20.1553 19.28 20.1353 19.22C20.0953 19.11 20.0353 19.02 19.9753 18.93C19.8153 18.72 19.6053 18.55 19.4553 18.33C19.2853 18.08 19.1953 17.78 19.1053 17.48C18.9653 17.03 18.7953 16.58 18.6153 16.14C18.5053 15.88 18.3953 15.62 18.2253 15.4C17.9753 15.06 17.6153 14.82 17.2953 14.55C16.6053 13.97 16.0353 13.22 15.6553 12.39C15.4953 12.42 15.3353 12.45 15.1753 12.48C15.2253 12.57 15.2853 12.65 15.3553 12.72C15.9953 13.49 16.6353 14.25 17.2653 15C17.4153 15.18 17.5553 15.35 17.7253 15.51C17.8553 15.64 18.0053 15.75 18.1253 15.89C18.2753 16.07 18.3753 16.29 18.4653 16.5C18.6753 16.98 18.8853 17.46 19.0953 17.93C19.1553 18.06 19.2153 18.2 19.2553 18.33C19.2953 18.46 19.3253 18.59 19.3753 18.71C19.4253 18.83 19.5053 18.94 19.5753 19.05C19.6753 19.2 19.8053 19.41 19.9753 19.45C20.0353 19.46 20.1053 19.45 20.1453 19.41L20.1353 19.42Z" fill="#F3938E"/>
<path d="M15.1353 15.91C15.2153 15.93 15.2853 15.95 15.3653 15.97C15.5253 16.02 15.6853 16.07 15.8453 16.12C15.5853 15.8 15.3153 15.47 15.0553 15.15C14.7853 14.82 14.5053 14.47 14.4353 14.05C14.3853 13.79 14.4253 13.52 14.3553 13.26C14.3253 13.16 14.2853 13.06 14.2253 12.97C14.1753 12.89 14.1253 12.82 14.0653 12.75C13.9353 12.79 13.8053 12.83 13.6753 12.88C13.7053 12.92 13.7353 12.95 13.7553 12.98C13.9753 13.26 14.1053 13.62 14.1053 13.97C14.1053 14.13 14.0853 14.29 14.1253 14.44C14.1553 14.54 14.2053 14.63 14.2553 14.72C14.4453 15.07 14.6453 15.42 14.9253 15.69C14.9953 15.76 15.0653 15.82 15.1353 15.89V15.91Z" fill="#F3938E"/>
<path d="M13.3253 15.55C13.4553 15.57 13.5853 15.59 13.7153 15.61C13.6153 15.5 13.5653 15.35 13.4953 15.21C13.3353 14.89 13.0553 14.65 12.8653 14.34C12.7153 14.1 12.6353 13.83 12.4653 13.6C12.4153 13.53 12.3553 13.47 12.2953 13.42C12.2053 13.46 12.1153 13.5 12.0253 13.55C12.0053 13.55 11.9853 13.57 11.9653 13.58C11.9953 13.59 12.0253 13.6 12.0353 13.61C12.2653 13.72 12.3653 14 12.4353 14.25C12.4953 14.5 12.5653 14.78 12.7753 14.94C12.9353 15.06 13.1653 15.1 13.2553 15.28C13.2953 15.36 13.2953 15.46 13.3353 15.55H13.3253Z" fill="#F3938E"/>
<path d="M10.1149 20.93C10.2549 20.9 10.3649 20.82 10.4649 20.72C10.7049 20.51 10.9249 20.25 11.2249 20.14C11.3449 20.09 11.4749 20.07 11.6049 20.03C11.8249 19.95 12.0149 19.79 12.1349 19.6C12.1449 19.58 12.1649 19.55 12.1749 19.53C12.0749 19.46 11.9649 19.39 11.8649 19.31C11.8149 19.36 11.7749 19.43 11.7349 19.47C11.4149 19.82 10.8349 19.78 10.4649 20.07C10.3449 20.17 10.2549 20.29 10.1649 20.42C10.1349 20.47 10.0949 20.53 10.0349 20.52C10.0049 20.52 9.97492 20.5 9.94492 20.5C9.88492 20.48 9.83492 20.51 9.79492 20.55C9.86492 20.68 9.93492 20.81 10.0149 20.93C10.0449 20.93 10.0749 20.93 10.1049 20.93H10.1149Z" fill="#F3938E"/>
<path d="M12.1151 22.24C12.2651 22.17 12.3951 22.06 12.5251 21.96C12.7251 21.79 12.9151 21.6 13.0851 21.41C13.1851 21.3 13.2751 21.14 13.3951 21.05C13.4351 21.02 13.4751 21 13.5051 20.97C13.6151 20.86 13.7151 20.74 13.8151 20.62C13.8651 20.56 13.9151 20.5 13.9451 20.43C13.7851 20.37 13.6351 20.31 13.4851 20.25C13.4351 20.33 13.3951 20.42 13.3551 20.5C13.3051 20.59 13.2551 20.67 13.2051 20.75C13.1251 20.87 13.0251 20.99 12.9051 21.08C12.8751 21.11 12.8451 21.13 12.8051 21.15C12.6851 21.23 12.5351 21.28 12.4251 21.37C12.2651 21.5 12.1751 21.7 11.9951 21.79C11.9051 21.84 11.7951 21.85 11.6951 21.88C11.4251 21.96 11.1951 22.16 10.9951 22.35C11.0651 22.44 11.1251 22.53 11.1951 22.62C11.4351 22.39 11.8151 22.39 12.1251 22.24H12.1151Z" fill="#F3938E"/>
<path d="M13.2552 24.35C13.4152 24.28 13.6052 24.28 13.7252 24.16C13.8152 24.07 13.8452 23.95 13.9052 23.84C14.0252 23.65 14.2552 23.55 14.4752 23.51C14.6952 23.47 14.9252 23.47 15.1452 23.41C15.8352 23.24 16.2752 22.56 16.8852 22.2C17.3052 21.95 17.8152 21.85 18.1752 21.52C18.3852 21.33 18.5252 21.09 18.6952 20.87C18.7952 20.74 18.8952 20.61 19.0252 20.49C19.0852 20.43 19.1552 20.38 19.2152 20.34C19.2552 20.31 19.2952 20.29 19.2952 20.23C19.2952 20.14 19.2152 20.04 19.1252 20.03C19.0052 20.01 18.8552 20.17 18.7752 20.24C18.5452 20.45 18.3552 20.7 18.1352 20.93C17.9252 21.15 17.7152 21.36 17.4752 21.55C17.2152 21.76 16.9152 21.93 16.5952 22.04C16.4252 22.1 16.2552 22.13 16.1152 22.24C15.9752 22.35 15.8852 22.51 15.7752 22.65C15.5552 22.92 15.2352 23.09 14.8952 23.14C14.5552 23.18 14.1852 23.1 13.8752 23.25C13.4752 23.44 13.3052 23.96 12.8852 24.1C12.7952 24.13 12.6952 24.15 12.6152 24.19C12.7352 24.29 12.8652 24.4 12.9852 24.49C13.0752 24.44 13.1552 24.37 13.2452 24.33L13.2552 24.35Z" fill="#F3938E"/>
<path d="M17.865 24.1C17.965 23.96 18.055 23.81 18.175 23.69C18.295 23.57 18.435 23.49 18.575 23.39C19.015 23.08 19.375 22.66 19.695 22.23C19.855 22.01 20.005 21.79 20.155 21.56C20.255 21.42 20.495 21.08 20.255 20.94C20.135 20.87 20.015 21 19.955 21.09C19.875 21.21 19.825 21.35 19.775 21.48C19.645 21.84 19.465 22.19 19.185 22.44C18.825 22.76 18.315 22.9 17.995 23.25C17.805 23.46 17.695 23.73 17.515 23.95C17.385 24.11 17.225 24.23 17.075 24.36C16.845 24.54 16.615 24.73 16.385 24.91C16.195 25.06 16.005 25.21 15.785 25.31C15.605 25.39 15.405 25.43 15.265 25.56C15.205 25.62 15.165 25.7 15.145 25.78C15.315 25.86 15.485 25.94 15.665 26.02C15.665 26.02 15.675 26.02 15.685 26.02C15.695 26.02 15.705 26.01 15.715 26C16.555 25.51 17.345 24.9 17.895 24.09L17.865 24.1Z" fill="#F3938E"/>
<path d="M17.665 26.82C17.845 26.85 18.015 26.87 18.195 26.86C18.245 26.75 18.265 26.63 18.315 26.52C18.465 26.19 18.815 25.99 18.945 25.66C19.045 25.42 19.005 25.14 19.095 24.89C19.195 24.63 19.415 24.44 19.615 24.25C20.135 23.74 20.545 23.12 20.795 22.43C20.835 22.31 20.875 22.19 20.955 22.1C21.005 22.04 21.075 21.98 21.135 21.93C21.175 21.89 21.265 21.84 21.275 21.78C21.295 21.7 21.185 21.6 21.105 21.6C21.045 21.6 21.015 21.68 20.985 21.73C20.935 21.82 20.885 21.9 20.835 21.99C20.735 22.16 20.635 22.33 20.535 22.51C20.425 22.71 20.305 22.9 20.195 23.1C20.075 23.3 19.965 23.5 19.815 23.67C19.655 23.85 19.475 23.99 19.305 24.16C19.015 24.45 18.795 24.8 18.665 25.19C18.515 25.63 18.465 26.14 18.095 26.43C17.985 26.52 17.845 26.58 17.755 26.69C17.715 26.73 17.695 26.78 17.675 26.83L17.665 26.82Z" fill="#F3938E"/>
<path d="M29.0349 20.31C29.0549 19.85 29.0649 19.38 29.0049 18.92C28.9849 18.77 28.9449 18.6 28.8049 18.53C28.6949 18.48 28.5649 18.51 28.4749 18.58C28.3849 18.65 28.3149 18.76 28.2649 18.86C27.7349 19.79 27.3749 20.81 27.0249 21.82C26.9949 21.92 26.9549 22.02 26.9649 22.12C26.9749 22.22 27.0449 22.33 27.1449 22.35C27.3149 22.38 27.4249 22.18 27.4749 22.02C27.6949 21.32 27.9349 20.63 28.1949 19.95C28.2649 19.75 28.4049 19.52 28.6149 19.55C28.6549 19.55 28.6449 20.02 28.6449 20.07C28.6449 20.25 28.6249 20.42 28.5949 20.6C28.5449 20.95 28.4849 21.31 28.4749 21.67C28.4749 21.88 28.4149 22.48 28.7349 22.49C28.8449 22.49 28.9549 22.42 28.9749 22.31C29.0049 22.12 28.9949 21.9 28.9949 21.71C29.0049 21.3 29.0249 20.89 29.0349 20.47C29.0349 20.42 29.0349 20.37 29.0349 20.31Z" fill="#F3938E"/>
<path d="M27.295 25.96C27.525 25.77 27.665 25.51 27.805 25.25C27.935 25 28.065 24.75 28.195 24.5C28.405 24.07 28.605 23.6 28.675 23.11C28.695 22.97 28.675 22.77 28.505 22.73C28.285 22.68 28.185 22.9 28.125 23.07C27.965 23.54 27.805 24 27.645 24.47C27.525 24.82 27.375 25.2 27.045 25.35C26.975 25.38 26.885 25.4 26.815 25.38C26.755 25.36 26.715 25.32 26.675 25.27C26.385 24.91 26.475 24.38 26.585 23.93C26.655 23.64 26.735 23.34 26.885 23.07C26.955 22.95 27.055 22.83 27.065 22.68C27.075 22.54 26.965 22.37 26.825 22.39C26.705 22.41 26.645 22.55 26.615 22.67C26.555 22.9 26.485 23.12 26.425 23.35C26.265 23.92 26.105 24.49 26.075 25.09C26.065 25.47 26.145 25.91 26.485 26.09C26.745 26.23 27.075 26.14 27.305 25.95L27.295 25.96Z" fill="#F3938E"/>
<path d="M25.1749 28.52C25.3849 28.52 25.5849 28.52 25.7949 28.52C25.7449 28.3 25.5249 28.1 25.3849 27.89C25.2949 27.76 25.2449 27.61 25.1949 27.46C24.9549 26.8 24.7149 26.11 24.7749 25.42C24.8149 24.82 25.0749 24.27 25.2449 23.7C25.2649 23.65 25.2749 23.6 25.2949 23.54C25.4149 23.12 25.4649 22.69 25.3749 22.26C25.3449 22.14 25.345 21.96 25.2449 21.87C25.1949 21.82 25.1049 21.8 25.0449 21.8C24.9649 21.8 24.985 21.83 24.9949 21.9C24.9949 21.95 25.0049 22 25.0149 22.05C25.0549 22.46 24.9749 22.86 24.8749 23.25C24.7649 23.65 24.6249 24.05 24.5149 24.45C24.4149 24.84 24.3349 25.25 24.3849 25.66C24.4849 26.66 25.2249 27.55 25.2049 28.53L25.1749 28.52Z" fill="#F3938E"/>
<path d="M25.4753 21.58C25.4753 21.58 25.5253 21.52 25.5353 21.49C25.5653 21.42 25.5953 21.35 25.6253 21.29C25.7553 21 25.8853 20.72 26.0153 20.43C26.2853 19.86 26.5553 19.29 26.8053 18.71C26.9453 18.38 27.0853 18.06 27.2053 17.72C27.4453 17.08 27.6753 16.39 28.1953 15.96C28.3953 15.8 28.6353 15.68 28.8253 15.51C28.8753 15.46 28.9353 15.4 28.9553 15.33C28.7853 15.23 28.6153 15.13 28.4353 15.04C28.3653 15.09 28.2953 15.16 28.2453 15.24C28.1553 15.38 28.0953 15.53 28.0153 15.67C27.8953 15.88 27.7153 16.05 27.5353 16.2C27.3753 16.34 27.2153 16.47 27.0853 16.63C26.7153 17.09 26.6853 17.73 26.5453 18.3C26.3153 19.27 25.7553 20.11 25.3153 21C25.2553 21.12 25.1953 21.26 25.2253 21.39C25.2453 21.47 25.3553 21.62 25.4553 21.58H25.4753Z" fill="#F3938E"/>
<path d="M21.8052 27.22C21.9852 27.39 22.1652 27.57 22.3652 27.72C22.3852 27.73 22.3952 27.74 22.4152 27.75C22.3152 27.33 22.5452 26.89 22.6052 26.45C22.6652 25.98 22.5252 25.5 22.5552 25.02C22.5852 24.52 22.8152 24.05 22.9752 23.58C23.0252 23.44 23.0652 23.3 23.1052 23.16C23.1652 22.9 23.1952 22.64 23.1452 22.38C23.1352 22.3 23.1252 22.14 23.0652 22.09C22.9852 22.02 22.8252 22.09 22.7752 22.16C22.6852 22.27 22.6752 22.41 22.6552 22.55C22.5152 23.49 21.9552 24.34 21.9752 25.29C21.9752 25.56 22.0352 25.82 22.0252 26.09C22.0252 26.4 21.9452 26.7 21.8652 27C21.8452 27.07 21.8252 27.15 21.8152 27.23L21.8052 27.22Z" fill="#F3938E"/>
<path d="M23.6949 19.26C23.8449 19.17 23.8849 19.02 23.9749 18.88C24.0949 18.66 24.2849 18.49 24.4149 18.28C24.5949 17.97 24.6349 17.6 24.7149 17.26C24.8049 16.88 24.9449 16.52 25.1449 16.19C25.2949 15.95 25.4749 15.7 25.4349 15.42C25.4249 15.35 25.3949 15.28 25.3849 15.2C25.3149 15.23 25.2349 15.25 25.1549 15.26C25.0549 15.27 24.9649 15.26 24.8749 15.25C24.8549 15.31 24.8349 15.37 24.8149 15.44C24.7249 15.8 24.7149 16.18 24.5549 16.51C24.4049 16.79 24.1549 17.01 24.0249 17.3C23.8749 17.64 23.9049 18.05 23.7649 18.39C23.6849 18.58 23.5449 18.74 23.4449 18.93C23.3949 19.01 23.2549 19.24 23.3849 19.32C23.4749 19.38 23.6349 19.32 23.7149 19.27L23.6949 19.26Z" fill="#F3938E"/>
<path d="M28.6649 27.67C28.7049 27.75 28.7649 27.83 28.8349 27.89C28.9649 27.83 29.0949 27.77 29.2149 27.71C29.1549 27.66 29.0549 27.62 29.0049 27.56C28.9449 27.48 28.9449 27.38 28.9449 27.28C28.9649 26.2 29.0749 25.13 29.2649 24.07C29.2949 23.91 29.3249 23.76 29.3849 23.61C29.4449 23.48 29.5249 23.34 29.5049 23.19C29.4949 23.1 29.4149 22.97 29.3049 23.01C29.2149 23.05 29.1949 23.18 29.1849 23.26C29.1849 23.4 29.1649 23.53 29.1249 23.67C29.0749 23.83 29.0049 23.99 28.9349 24.14C28.5149 25.1 28.5549 26.19 28.5949 27.24C28.5949 27.39 28.6049 27.54 28.6649 27.67Z" fill="#F3938E"/>
<path d="M29.4651 22.31C29.3851 22.43 29.2851 22.55 29.2951 22.7C29.2951 22.8 29.3851 22.91 29.4851 22.93C29.5751 22.95 29.6351 22.88 29.6551 22.8C29.7351 22.53 29.7951 22.26 29.8951 22C30.0951 21.47 30.3551 20.96 30.5651 20.43C30.6851 20.13 30.7951 19.83 30.8751 19.52C30.9551 19.21 31.0151 18.87 31.2551 18.67C31.3851 18.57 31.5451 18.52 31.6951 18.46C31.8251 18.4 31.9451 18.33 32.0251 18.21C31.9451 18.08 31.8551 17.96 31.7651 17.84C31.4251 18.1 31.0951 18.37 30.8351 18.71C30.0651 19.75 30.1951 21.25 29.4551 22.32L29.4651 22.31Z" fill="#F3938E"/>
<path d="M18.5752 19.98C18.9452 20.03 19.3152 20.16 19.6352 20.37C19.7952 20.47 19.9452 20.6 20.0852 20.73C20.2052 20.86 20.2552 21.02 20.3552 21.16C20.5552 21.42 20.8152 21.63 21.0952 21.79C21.2252 21.86 21.3952 21.91 21.4952 22C21.6052 22.1 21.7052 22.2 21.7552 22.34C21.7752 22.41 21.7852 22.48 21.8252 22.54C21.8952 22.65 22.0552 22.66 22.1752 22.62C22.3652 22.55 22.4952 22.29 22.7152 22.28C22.7852 22.28 22.8552 22.31 22.9252 22.34C23.1452 22.42 23.3752 22.43 23.5952 22.45C23.8552 22.47 24.1752 22.51 24.4252 22.43C24.4952 22.41 24.5552 22.37 24.6152 22.35C24.7252 22.32 24.8452 22.34 24.9552 22.35C25.0352 22.35 25.1152 22.26 25.1952 22.23C25.2752 22.2 25.3552 22.18 25.4452 22.17C25.6252 22.15 25.8052 22.19 25.9752 22.25C26.2952 22.37 26.5852 22.57 26.9152 22.69C27.4552 22.89 28.0552 22.85 28.6252 22.98C29.3552 23.14 29.9952 23.56 30.6952 23.82C30.9452 23.91 31.1952 23.95 31.4452 24.01C31.6152 24.05 31.7852 24.08 31.9452 24.04C32.1052 24 32.2552 23.85 32.2352 23.68C32.2152 23.48 31.9952 23.38 31.8052 23.31C31.6552 23.26 31.5552 23.19 31.3952 23.19C31.2652 23.19 31.1352 23.19 31.0052 23.18C30.7452 23.16 30.4852 23.11 30.2352 23.02C29.7952 22.88 29.3952 22.66 28.9652 22.5C28.6052 22.37 28.2352 22.28 27.8652 22.2C27.4952 22.11 27.1252 22.03 26.7452 21.94C26.6552 21.92 26.5552 21.9 26.4652 21.88C26.3852 21.86 26.2952 21.85 26.2252 21.81C26.1752 21.78 26.1352 21.75 26.0852 21.73C25.9952 21.7 25.9052 21.67 25.8252 21.63C25.6952 21.57 25.5752 21.49 25.4852 21.37C25.3452 21.17 25.3452 20.81 25.1252 20.66C25.0052 20.58 24.9252 20.47 24.8352 20.36C24.7252 20.23 24.6152 20.1 24.4852 19.98C24.3252 19.83 24.1352 19.72 24.0052 19.55C23.9352 19.46 23.8452 19.39 23.7652 19.32C23.5952 19.15 23.4452 18.95 23.3252 18.73C23.2952 18.67 23.2552 18.6 23.1952 18.56C22.9452 18.42 22.7352 18.83 22.5652 18.93C22.4852 18.97 22.4152 18.95 22.3252 18.93C22.1752 18.9 22.0352 18.9 21.8852 18.88C21.3752 18.86 20.8052 18.91 20.3352 19.11C20.1452 19.19 19.9152 19.19 19.7052 19.19C19.4952 19.19 19.2852 19.16 19.0752 19.12C19.0352 19.44 18.8752 19.74 18.5852 20L18.5752 19.98Z" fill="#EAA183"/>
<path d="M20.3951 20.71C20.4651 20.79 20.5451 20.87 20.6151 20.94C20.6751 21 20.7351 21.08 20.8051 21.12C20.8251 21.13 20.8551 21.14 20.8751 21.16C20.9151 21.18 20.9351 21.21 20.9751 21.24C21.1151 21.36 21.2551 21.46 21.4151 21.54C21.7251 21.71 22.0751 21.83 22.4151 21.89C22.9951 22 23.3751 22.05 23.9651 22.02C24.1151 22.02 24.4751 21.94 24.6051 21.87C24.8151 21.76 24.9351 21.5 24.8951 21.26C24.8151 20.83 24.6451 20.7 24.4751 20.51C24.3251 20.34 24.0951 20.11 23.9251 19.98C23.6251 19.75 23.2851 19.58 22.9351 19.45C22.8751 19.43 22.8151 19.41 22.7651 19.39C22.7151 19.37 22.6551 19.34 22.5951 19.34C22.4851 19.33 22.3751 19.28 22.2551 19.26C21.8851 19.2 21.5151 19.23 21.1551 19.28C21.1151 19.28 21.0751 19.28 21.0351 19.3C21.0051 19.3 20.9851 19.32 20.9651 19.33C20.8951 19.36 20.8151 19.37 20.7351 19.39C20.5751 19.43 20.4251 19.48 20.2651 19.51C20.1451 19.53 20.0251 19.55 19.9051 19.55C19.7751 19.55 19.6551 19.51 19.5251 19.52C19.4151 19.52 19.3151 19.52 19.2051 19.52C19.1751 19.52 18.9451 19.49 18.9351 19.51C18.8951 19.6 18.8351 19.69 18.7651 19.78C18.7851 19.76 18.9751 19.87 19.0051 19.88C19.0551 19.9 19.0851 19.91 19.1351 19.92C19.2251 19.94 19.3051 19.97 19.3851 20C19.5251 20.06 19.6851 20.13 19.8151 20.22C19.9451 20.31 20.0551 20.42 20.1651 20.53C20.2351 20.6 20.3051 20.67 20.3751 20.75L20.3951 20.71Z" fill="#D1775F"/>
<path d="M19.9751 19.64C19.9751 19.64 20.0751 19.62 20.1251 19.62C20.3951 19.6 20.6751 19.58 20.9451 19.58C20.9951 19.58 21.0551 19.58 21.1051 19.56C21.1451 19.55 21.1851 19.54 21.2251 19.54C21.3451 19.54 21.4751 19.56 21.5951 19.58C21.6151 19.58 21.6451 19.58 21.6651 19.58C21.8051 19.6 21.9351 19.62 22.0751 19.65C22.1451 19.66 22.2051 19.68 22.2751 19.69C22.3051 19.69 22.3251 19.71 22.3551 19.7C22.3851 19.7 22.4051 19.7 22.4351 19.7C22.6751 19.72 22.9151 19.76 23.1451 19.85C23.3651 19.93 23.5851 20.06 23.7551 20.23C23.9851 20.46 24.1251 20.76 24.3351 21C24.3851 21.05 24.4251 21.1 24.4651 21.16C24.5051 21.22 24.5051 21.29 24.4951 21.36C24.4951 21.38 24.4951 21.39 24.4751 21.41C24.4451 21.45 24.3951 21.48 24.3551 21.5C24.2551 21.55 24.1451 21.58 24.0351 21.6C23.9851 21.6 23.9451 21.6 23.8951 21.6C23.6751 21.6 23.4651 21.57 23.2451 21.58C23.1351 21.58 23.0151 21.61 22.9051 21.62C22.6551 21.64 22.4051 21.6 22.1751 21.51C22.0551 21.47 21.9451 21.41 21.8351 21.34C21.7851 21.31 21.7451 21.27 21.6851 21.25C21.6351 21.24 21.5951 21.23 21.5551 21.21C21.3951 21.14 21.2351 21.05 21.0851 20.96C20.9751 20.89 20.8751 20.81 20.7551 20.75C20.7051 20.73 20.6751 20.68 20.6351 20.64C20.5851 20.59 20.5451 20.55 20.4951 20.5C20.4551 20.46 20.4151 20.43 20.3751 20.4C20.1851 20.26 19.9751 20.15 19.8251 19.97C19.7951 19.94 19.7751 19.9 19.7651 19.86C19.7451 19.78 19.8051 19.7 19.8751 19.66C19.9051 19.64 19.9351 19.63 19.9651 19.62L19.9751 19.64Z" fill="#DC9886"/>
<path d="M22.385 20.42C22.295 20.59 22.385 20.81 22.515 20.94C22.645 21.07 22.845 21.14 23.025 21.2C23.175 21.25 23.345 21.3 23.505 21.28C23.635 21.26 23.765 21.2 23.825 21.08C23.855 21.03 23.865 20.98 23.875 20.92C23.875 20.91 23.875 20.9 23.875 20.89C23.855 20.71 23.735 20.55 23.585 20.44C23.435 20.33 23.265 20.27 23.085 20.22C22.955 20.19 22.825 20.17 22.695 20.2C22.565 20.22 22.445 20.3 22.385 20.41V20.42Z" fill="#7B2828"/>
<path d="M20.4649 20.14C20.4649 20.14 20.5149 20.21 20.5449 20.23C20.5749 20.26 20.6149 20.29 20.6449 20.31C20.7149 20.36 20.7949 20.4 20.8849 20.43C21.0449 20.5 21.2149 20.55 21.3849 20.57C21.4649 20.57 21.5349 20.57 21.6149 20.55C21.6849 20.53 21.7549 20.47 21.7849 20.4C21.8149 20.33 21.8049 20.24 21.7649 20.18C21.7249 20.11 21.6749 20.05 21.6149 20.01C21.4649 19.89 21.2849 19.82 21.0949 19.79C21.0149 19.78 20.9349 19.77 20.8549 19.79C20.8149 19.79 20.7749 19.79 20.7349 19.79C20.6949 19.79 20.6549 19.8 20.6149 19.82C20.6049 19.82 20.5849 19.83 20.5749 19.84C20.4849 19.9 20.4349 20.02 20.4749 20.13L20.4649 20.14Z" fill="#7B2828"/>
<path d="M42.6955 25.55C41.3155 25.53 39.5655 26.02 38.5555 26.3C37.6655 26.55 36.8554 27.09 36.0554 27.59C35.2254 28.11 35.6254 28.86 36.3654 29.19C37.2254 29.57 38.2754 29.72 39.1854 29.69C39.8454 29.67 40.4054 29.72 41.2154 29.53C41.6654 29.42 42.4354 29.37 42.8454 29.17C42.4054 29.08 41.8254 29.25 41.3854 29.13C41.6954 29.03 42.4154 29 42.5954 28.75C42.0554 28.78 41.5255 28.87 40.9855 28.89C41.2955 28.71 41.8754 28.67 42.1054 28.37C41.5854 28.4 41.0655 28.49 40.5555 28.55C40.8555 28.46 41.3855 28.35 41.5555 28.08C41.0455 28.11 40.5354 28.19 40.0254 28.21C40.3054 28.05 40.8254 27.98 41.0254 27.67C40.7354 27.69 40.4354 27.73 40.1354 27.77C40.6654 27.55 41.2754 27.47 41.7954 27.25C41.4354 27.19 40.9255 27.26 40.5555 27.32C41.0555 27.16 41.5754 26.98 42.0654 26.81C41.7854 26.76 41.3354 26.79 41.0254 26.83C41.5354 26.7 41.9854 26.57 42.4654 26.3C42.1154 26.23 41.7154 26.39 41.3554 26.44C41.7454 26.3 42.0154 26.15 42.4654 25.89C41.9554 25.92 41.6255 25.98 41.1655 26.22L42.6854 25.55H42.6955Z" fill="url(#paint2_linear_1_807)"/>
<path d="M12.7051 28.85C13.3951 27.91 14.6151 27.16 15.5851 26.7C15.4251 26.93 15.2751 27.16 15.1751 27.42C15.8651 27.04 16.4651 26.73 17.2051 26.48C17.0651 26.65 16.8851 26.98 16.7751 27.17C17.5651 26.66 18.1151 26.51 18.6751 26.19C18.5551 26.39 18.3951 26.6 18.3051 26.83C18.8051 26.61 19.2751 26.32 19.9551 26.07C19.8051 26.24 19.6451 26.43 19.5351 26.63C20.0451 26.48 20.6651 26.19 21.2151 26.14C21.0551 26.28 20.7651 26.47 20.6351 26.63C21.1751 26.55 21.8351 26.26 22.3851 26.19C22.2051 26.36 21.9851 26.5 21.8751 26.65C22.6351 26.45 22.9651 26.31 23.7051 26.21C23.6151 26.28 23.3351 26.52 23.2551 26.61C23.7551 26.57 24.4451 26.29 24.9551 26.27C24.8851 26.31 24.6151 26.54 24.5251 26.59C25.1651 26.5 25.8151 26.44 26.4551 26.35C26.3651 26.41 26.2951 26.52 26.2151 26.59C26.7851 26.56 27.3551 26.49 27.9251 26.57C27.8051 26.6 27.7151 26.7 27.6251 26.76C27.9751 26.84 28.4051 26.8 28.7151 26.98C27.9651 27.38 26.7251 27.36 25.8651 27.5C23.9251 27.8 21.9551 28 20.0251 28.34C18.4251 28.62 16.8251 28.77 15.2051 28.97C14.2851 29.08 13.2951 29.38 12.3651 29.27C12.3151 29.1 12.5551 28.88 12.6951 28.9L12.7051 28.85Z" fill="url(#paint3_linear_1_807)"/>
<path d="M36.3853 27.35C36.0553 27.21 35.6853 27.15 35.3253 27.14C33.5353 27.11 26.1553 26.25 20.0253 27.07C12.9853 28.01 7.51532 30.71 7.21532 32.06C7.07532 32.7 12.9953 36.44 22.4453 34.48C31.8953 32.52 36.0453 30.08 36.8453 29.32C37.5253 28.67 37.5053 27.82 36.3853 27.35Z" fill="#A59C8B"/>
<path d="M36.3853 27.35C36.0553 27.21 35.6853 27.15 35.3253 27.14C33.5353 27.11 26.1553 26.25 20.0253 27.07C12.9853 28.01 7.51532 30.71 7.21532 32.06C7.07532 32.7 12.9953 36.44 22.4453 34.48C31.8953 32.52 36.0453 30.08 36.8453 29.32C37.5253 28.67 37.5053 27.82 36.3853 27.35Z" fill="url(#paint4_linear_1_807)"/>
<path style="mix-blend-mode:screen" opacity="0.55" d="M23.4355 27.56C21.6155 27.68 19.7255 27.9 17.9155 28.19C16.6855 28.39 15.4655 28.62 14.8055 29.1C14.4655 29.35 14.1755 29.99 14.3855 30.54C14.8055 31.66 23.4555 30.23 25.3155 29.91C27.4755 29.54 28.9755 29.18 30.8255 28.82C31.5155 28.69 32.8755 28.42 33.7055 28.22C34.0255 28.14 33.5555 27.83 33.2255 27.8C31.8855 27.71 30.4055 27.51 29.2455 27.53C27.3655 27.56 25.3055 27.43 23.4355 27.55V27.56Z" fill="url(#paint5_linear_1_807)"/>
<path d="M11.6155 30.73C11.6655 31.13 11.3755 31.49 10.9855 31.54C10.5855 31.59 10.2255 31.3 10.1755 30.91C10.1255 30.51 10.4155 30.15 10.8055 30.1C11.2055 30.05 11.5655 30.34 11.6155 30.74V30.73Z" fill="#D4DAD9"/>
<path d="M11.3752 30.76C11.4052 31.03 11.2152 31.27 10.9452 31.31C10.6752 31.34 10.4352 31.15 10.3952 30.88C10.3652 30.61 10.5552 30.37 10.8252 30.33C11.0952 30.3 11.3352 30.49 11.3752 30.76Z" fill="#3B3326"/>
<path d="M11.2054 30.6C11.2054 30.66 11.1654 30.72 11.1054 30.72C11.0454 30.72 10.9854 30.68 10.9854 30.62C10.9854 30.56 11.0254 30.5 11.0854 30.5C11.1454 30.5 11.2054 30.54 11.2054 30.6Z" fill="white"/>
<path d="M7.29516 31.85C7.29516 31.85 7.33516 31.87 7.37516 31.85C7.73516 31.74 8.05516 32.45 8.08516 32.47C8.11516 32.49 8.06516 32.12 8.02516 31.98C7.98516 31.84 7.86516 31.32 7.86516 31.32C7.85516 31.28 7.82516 31.26 7.80516 31.25C7.55516 31.46 7.38516 31.67 7.28516 31.85H7.29516Z" fill="#465D72"/>
<path d="M13.0454 33C13.7954 32.85 14.4854 33.1 15.1954 33.19C16.0254 33.3 16.8854 33.33 17.7154 33.53C17.1054 33.81 16.3954 33.53 15.7654 33.68C16.2354 33.89 16.7554 33.95 17.2254 34.06C16.7654 34.12 16.2954 34.1 15.8454 34.01C16.0754 34.16 16.5054 34.36 16.6954 34.42C15.9654 34.49 15.1054 34.09 14.4154 33.9C14.1254 33.82 11.9854 33.2 13.0454 33Z" fill="url(#paint6_linear_1_807)"/>
<path d="M12.6451 33.57C12.6451 33.57 13.8951 32.7 13.7351 30.78C13.6851 30.19 13.2651 29.34 12.8251 28.75C12.5651 28.84 12.4451 28.88 12.2051 28.97C12.6951 29.59 13.1251 30.19 13.2151 31.03C13.2951 31.76 13.1151 32.55 12.6451 33.57Z" fill="#465D72"/>
<g style="mix-blend-mode:multiply" opacity="0.55">
<path d="M33.2452 30.06C33.3852 30 34.0352 29.49 32.9752 29.73C32.3652 29.87 31.7452 29.98 31.4952 30.04C30.7752 30.22 22.3752 31.49 21.0852 31.64C20.5052 31.71 19.8052 31.72 19.3252 32.13C18.9852 32.42 18.9652 32.77 19.3552 32.99C19.8252 33.25 20.5552 33.28 21.0852 33.28C21.6852 33.28 22.2752 33.23 22.8552 33.11C24.4952 32.78 26.1352 32.48 27.7652 32.06C29.2852 31.66 31.5152 30.74 33.2452 30.06Z" fill="#989DC5"/>
</g>
<defs>
<linearGradient id="paint0_linear_1_807" x1="6.11791" y1="14.8166" x2="33.6692" y2="24.5378" gradientUnits="userSpaceOnUse">
<stop stop-color="#FCC4B9"/>
<stop offset="0.15" stop-color="#F7BFB3"/>
<stop offset="0.35" stop-color="#EBB1A3"/>
<stop offset="0.51" stop-color="#DCA090"/>
<stop offset="1" stop-color="#ECA481"/>
</linearGradient>
<linearGradient id="paint1_linear_1_807" x1="32.5718" y1="25.1394" x2="10.7725" y2="15.5146" gradientUnits="userSpaceOnUse">
<stop stop-color="#D74948"/>
<stop offset="0.03" stop-color="#D74543"/>
<stop offset="0.15" stop-color="#DA3A32"/>
<stop offset="0.29" stop-color="#DC3328"/>
<stop offset="0.46" stop-color="#DD3125"/>
<stop offset="0.51" stop-color="#CD291F"/>
<stop offset="0.62" stop-color="#B51D16"/>
<stop offset="0.73" stop-color="#A4150F"/>
<stop offset="0.85" stop-color="#9A100C"/>
<stop offset="1" stop-color="#970F0B"/>
</linearGradient>
<linearGradient id="paint2_linear_1_807" x1="36.0677" y1="27.7602" x2="42.4179" y2="27.5697" gradientUnits="userSpaceOnUse">
<stop stop-color="#ACC3CB"/>
<stop offset="1" stop-color="#578C9C"/>
</linearGradient>
<linearGradient id="paint3_linear_1_807" x1="20.0339" y1="22.7167" x2="21.466" y2="36.65" gradientUnits="userSpaceOnUse">
<stop stop-color="#578C9C"/>
<stop offset="0.69" stop-color="#ACC3CB"/>
<stop offset="1" stop-color="#E3F3F3"/>
</linearGradient>
<linearGradient id="paint4_linear_1_807" x1="22.0197" y1="26.8836" x2="22.6115" y2="35.2332" gradientUnits="userSpaceOnUse">
<stop stop-color="#578C9C"/>
<stop offset="0.69" stop-color="#ACC3CB"/>
<stop offset="1" stop-color="#E3F3F3"/>
</linearGradient>
<linearGradient id="paint5_linear_1_807" x1="23.8602" y1="26.2771" x2="24.3326" y2="32.8985" gradientUnits="userSpaceOnUse">
<stop stop-color="#578C9C"/>
<stop offset="0.69" stop-color="#ACC3CB"/>
<stop offset="1" stop-color="#E3F3F3"/>
</linearGradient>
<linearGradient id="paint6_linear_1_807" x1="15.1027" y1="33.5199" x2="20.8054" y2="29.3406" gradientUnits="userSpaceOnUse">
<stop stop-color="#578C9C"/>
<stop offset="0.69" stop-color="#ACC3CB"/>
</linearGradient>
</defs>
</svg>
