<svg width="46" height="46" viewBox="0 0 46 46" fill="none" xmlns="http://www.w3.org/2000/svg">
<path d="M23.3852 45.2C35.8668 45.2 45.9852 35.0816 45.9852 22.6C45.9852 10.1184 35.8668 0 23.3852 0C10.9035 0 0.785156 10.1184 0.785156 22.6C0.785156 35.0816 10.9035 45.2 23.3852 45.2Z" fill="white"/>
<path d="M39.3015 14.745L40.0001 15.9404C40.0001 15.9404 39.9622 18.2428 38.9928 19.2095C38.0234 20.1762 36.924 21.9693 33.2577 22.4475C25.5027 23.4505 14.2221 19.1731 13.9893 18.5962C13.7564 18.0193 17.3631 18.7262 19.3398 19.064C21.3165 19.3966 25.389 20.4413 28.8766 19.064C32.3642 17.6867 34.46 16.0132 36.1659 15.4518C37.8718 14.8957 38.9603 14.7086 39.3069 14.745H39.3015Z" fill="#FFB405"/>
<path d="M39.3016 14.7451C39.1987 14.7347 39.0362 14.7451 38.8088 14.7711C38.7871 15.2077 38.6571 17.0943 37.8015 17.9467C36.8321 18.9134 35.7328 20.7065 32.061 21.1846C26.3476 21.9226 18.7226 19.7969 15.0129 18.3936C14.3306 18.3417 13.9027 18.3781 13.984 18.5911C14.2168 19.168 25.4974 23.4455 33.2524 22.4424C36.9242 21.9694 38.0181 20.1711 38.9875 19.2044C39.9569 18.2377 39.9948 15.9353 39.9948 15.9353L39.2962 14.7399L39.3016 14.7451Z" fill="#FFA305"/>
<path d="M38.1806 15.2857C38.1806 15.2857 35.6516 16.4655 34.3464 17.6505C33.0413 18.8355 29.5103 20.6234 26.7755 20.7221C24.0406 20.8261 16.421 19.6099 15.9715 19.3708C15.522 19.1317 15.8632 18.9342 18.7876 19.5111C21.712 20.088 26.4072 20.0984 27.9073 19.8697C30.9346 19.4072 33.7128 17.3802 35.0179 16.5019C36.3177 15.6235 37.2708 15.3169 38.186 15.2857H38.1806Z" fill="#FFEE00"/>
<path d="M10.7775 15.8209C10.7775 15.8209 11.6603 19.6877 12.0123 20.696C12.3589 21.6991 15.8519 26.4235 21.9335 27.1303C28.0206 27.8372 28.6867 27.7696 29.8673 27.437C31.3349 27.0264 32.8296 26.647 33.0624 26.7561C33.2953 26.8705 34.7683 27.9099 34.2268 29.1729C33.6852 30.4358 30.3547 34.0792 24.5763 34.0636C19.2637 34.048 13.1387 32.9773 10.1548 28.8091C7.17079 24.6408 7.97771 22.328 8.56258 21.2885C9.14746 20.2491 9.60778 18.8354 9.49406 18.2377C9.38033 17.6452 8.58966 16.1068 8.82794 15.665C9.10955 15.1505 10.9292 14.1474 10.7829 15.8209H10.7775Z" fill="#FFC105"/>
<path d="M30.6851 29.8382C30.6851 29.8382 30.6851 29.8174 30.6851 29.807C30.6851 29.7654 30.6905 29.7238 30.6959 29.6822C30.6959 29.6251 30.6959 29.5679 30.6959 29.5107C30.6743 29.5003 30.6472 29.4951 30.6255 29.4899C30.593 29.4848 30.5659 29.4795 30.5334 29.4692C30.501 29.4692 30.4251 29.4588 30.4035 29.4588C30.2464 29.4536 30.0948 29.4484 29.9377 29.4588C29.732 29.4692 29.5207 29.4796 29.315 29.4899C27.8798 29.9213 25.8165 30.176 22.8326 29.9213C17.9044 29.5003 14.7147 28.1802 12.1369 25.1242C10.1656 22.7854 10.1819 20.7896 10.2739 20.6441C10.366 20.4986 10.9455 19.194 10.9455 19.194C10.9455 19.194 10.2739 19.3811 9.90568 19.4123C9.74322 19.4279 9.54826 19.3396 9.38038 19.2356C9.21791 19.8801 8.90381 20.6493 8.5518 21.2886C8.50848 21.3613 8.47057 21.4393 8.42725 21.5276C8.77926 22.3956 9.4237 23.6378 10.5068 25.462C13.9294 31.2622 24.311 31.387 28.5189 30.6853C29.3962 30.5398 30.1002 30.3007 30.6634 30.0201C30.6634 29.9577 30.6634 29.8953 30.6797 29.8278L30.6851 29.8382Z" fill="#FFD105"/>
<path d="M24.9394 31.8185C19.6268 31.8029 13.5018 30.7322 10.5178 26.564C9.02857 24.485 8.4816 22.8635 8.38412 21.6317C7.8534 22.8011 7.45807 25.0515 10.155 28.8092C13.139 32.9775 19.2639 34.0481 24.5766 34.0637C30.3549 34.0793 33.6801 30.4412 34.227 29.173C34.4545 28.6377 34.3245 28.144 34.0808 27.7386C32.8515 29.3134 29.7484 31.8237 24.9448 31.8081L24.9394 31.8185Z" fill="#FFB405"/>
<path d="M34.2271 28.3726C33.6855 29.6355 30.355 33.2788 24.5766 33.2632C19.264 33.2477 13.139 32.177 10.155 28.0087C8.65494 25.9194 8.1188 24.2926 8.02132 23.0661C7.91301 24.3654 8.30835 26.2364 10.155 28.8143C13.139 32.9826 19.264 34.0532 24.5766 34.0688C30.355 34.0844 33.6801 30.4463 34.2271 29.1781C34.3733 28.8299 34.3733 28.5077 34.2867 28.2062C34.2704 28.2634 34.2542 28.3154 34.2271 28.3726Z" fill="#FFA305"/>
<path d="M34.1457 27.8477C33.9832 28.3726 33.3875 28.5337 32.8947 28.7052C31.3946 29.2249 27.2733 29.1678 21.3217 28.3778C19.5129 28.1387 13.6858 26.2988 12.4673 23.747C11.8607 22.4788 10.7018 21.1275 11.238 19.007C11.3788 18.4561 12.1857 19.2409 12.1857 19.8074C12.1965 21.3874 12.7435 23.0765 14.0378 24.1264C14.8068 24.75 15.8195 25.1087 16.7239 25.4985C17.7095 25.9247 18.6843 26.382 19.7187 26.6886C20.5906 26.9485 21.4517 27.0265 22.356 27.12C23.3092 27.2188 24.2515 27.3747 25.1992 27.5098C26.2444 27.6606 27.3058 27.7541 28.3619 27.8477C29.4017 27.9412 30.4523 28.0088 31.4921 27.9724C31.9578 27.9568 32.3585 27.936 32.7918 27.8269C33.0138 27.7697 33.0409 27.7697 33.1979 27.6762C33.2196 27.6606 33.2304 27.6554 33.2359 27.6554C33.2359 27.6554 33.2467 27.6398 33.2575 27.6242C33.2575 27.6242 33.2413 27.645 33.2359 27.6502C33.2413 27.6398 33.2521 27.6294 33.2575 27.619C33.4254 27.0785 34.3135 27.3071 34.1402 27.8529L34.1457 27.8477Z" fill="#FFA305"/>
<path d="M12.3967 15.4156C12.3967 15.4156 13.0574 17.349 13.756 17.6088C14.4546 17.8687 15.4619 18.2065 17.7473 19.3603C20.0326 20.5142 26.163 22.3748 30.5821 21.8135C35.0012 21.2574 36.2792 21.0547 36.8695 21.1274C37.5573 21.2106 39.0303 21.7043 39.0303 21.7043L39.534 22.6814C39.534 22.6814 39.404 23.6221 39.1224 24.1939C38.8354 24.7656 36.6746 27.4838 31.676 27.9879C26.5096 28.5076 19.2636 28.1646 14.1784 24.5889C10.068 21.6991 11.4653 18.8354 11.4653 18.8354L10.2522 16.2056C10.2522 16.2056 9.3207 15.4104 9.71062 14.9894C10.1005 14.5684 10.7721 13.872 11.1836 14.1214C11.5952 14.3709 12.4509 15.0985 12.3967 15.4156Z" fill="#FFC105"/>
<path d="M32.1256 25.7115C26.8563 26.4391 19.4316 26.3612 14.081 22.8997C12.478 21.8603 11.6495 20.8 11.2433 19.8697C11.1891 20.9611 11.5899 22.7698 14.1785 24.5941C19.2637 28.1698 26.5043 28.5129 31.6761 27.9931C36.6746 27.489 38.8354 24.7708 39.1225 24.1991C39.4041 23.6274 39.534 22.6866 39.534 22.6866L39.2308 22.0993C38.4238 23.1492 36.2631 25.145 32.1256 25.7167V25.7115Z" fill="#FFB405"/>
<path d="M38.8084 21.9071C38.8084 21.9071 37.0104 21.4081 36.431 21.4965C35.8515 21.5849 28.6164 23.5754 23.4608 21.9071C18.3052 20.2388 16.4422 19.1213 15.462 18.6692C14.4872 18.217 12.9005 17.8064 12.9005 17.8064L12.5322 18.1286C12.5322 18.1286 13.507 18.1858 14.6064 18.6692C15.7057 19.1525 20.6501 22.167 24.2514 22.7543C29.7753 23.6638 34.2593 22.4372 36.458 21.8447C37.2704 21.6264 38.8084 21.9019 38.8084 21.9019V21.9071Z" fill="#FFEE00"/>
<path d="M38.8085 21.6316C38.8085 21.6316 38.7219 21.7771 38.8085 22.1305C38.8952 22.4891 39.2959 22.9309 39.5342 22.6814C39.7725 22.432 39.2093 21.4133 38.8085 21.6316Z" fill="#EBA605"/>
<path d="M9.9491 14.7399C9.9491 14.7399 10.7668 15.1973 10.886 15.5975C11.0105 15.9925 11.2705 16.0237 11.4059 16.0341C11.5413 16.0496 11.9095 17.1775 11.9366 17.4529C11.9691 17.7336 12.6677 17.5725 12.7923 17.4529C12.9168 17.3334 13.3446 17.2814 13.3446 17.2814C13.3446 17.2814 13.6154 17.5465 13.6858 17.5777C13.7562 17.6088 12.7489 17.8063 12.4619 18.1286C12.1695 18.4508 11.4709 18.8406 11.4709 18.8406L10.2578 16.2108C10.2578 16.2108 8.92556 15.2649 9.95451 14.7451L9.9491 14.7399Z" fill="#FFB405"/>
</svg>
