<svg width="54" height="54" viewBox="0 0 54 54" fill="none" xmlns="http://www.w3.org/2000/svg">
<path d="M48.7545 31.0256C51.2024 18.7864 43.2649 6.88011 31.0256 4.43225C18.7864 1.98438 6.88012 9.92187 4.43225 22.1611C1.98439 34.4004 9.92188 46.3066 22.1611 48.7545C34.4004 51.2024 46.3066 43.2649 48.7545 31.0256Z" fill="white"/>
<path d="M31.5918 18.3444C28.6687 19.9804 24.0011 19.9339 21.1556 18.2359C19.76 17.4062 19.0001 16.3285 19.0079 15.2508V36.759C19.0079 37.8367 19.6979 38.9144 21.0936 39.7441C23.9313 41.4421 28.6067 41.4886 31.5298 39.8526C33.0107 39.023 33.8248 37.9142 33.8248 36.7977V15.2973C33.8248 16.406 33.0727 17.5148 31.5918 18.3522V18.3444Z" fill="#FF871A"/>
<path d="M31.5918 18.3444C28.6687 19.9804 24.0011 19.9339 21.1556 18.2359C19.76 17.4062 19.0001 16.3285 19.0079 15.2508V36.759C19.0079 37.8367 19.6979 38.9144 21.0936 39.7441C23.9313 41.4421 28.6067 41.4886 31.5298 39.8526C33.0107 39.023 33.8248 37.9142 33.8248 36.7977V15.2973C33.8248 16.406 33.0727 17.5148 31.5918 18.3522V18.3444Z" fill="#FF871A"/>
<path d="M31.4059 12.4901C28.7231 10.9006 24.3192 10.8541 21.5667 12.3893C18.8064 13.9245 18.7444 16.4676 21.4271 18.0571C24.1021 19.6465 28.5138 19.6931 31.2663 18.1579C34.0188 16.6227 34.0808 14.0795 31.4059 12.4901Z" fill="#98F4F1"/>
<path d="M31.5917 21.5386C28.6687 23.1746 24.001 23.128 21.1633 21.43C20.7213 21.1664 20.3569 20.8873 20.0623 20.5849C18.403 18.9334 18.8295 16.7779 21.3106 15.3978C24.2337 13.7618 28.9013 13.8083 31.7468 15.5063C32.5997 16.0103 33.1889 16.6151 33.5146 17.2509C34.2822 18.7318 33.6386 20.4066 31.5917 21.5463V21.5386Z" fill="#FF9624"/>
<path d="M31.5917 21.5382C28.6687 23.1742 24.001 23.1277 21.1633 21.4297C20.7213 21.166 20.3569 20.8869 20.0623 20.5845C19.2869 19.1036 19.9382 17.4289 21.9851 16.2891C24.9082 14.6531 29.5758 14.6996 32.4213 16.3976C32.8555 16.6613 33.2277 16.9404 33.5223 17.2428C34.2899 18.7237 33.6464 20.3984 31.5995 21.5382H31.5917Z" fill="#FFC33E"/>
<g opacity="0.63">
<path d="M22.0397 20.1665V38.7051C21.9544 38.6663 21.8769 38.6198 21.7993 38.5733C20.8922 38.0383 20.3727 37.3715 20.3805 36.7667V19.3679C20.3805 19.3679 20.427 19.3989 20.458 19.4144C20.9387 19.7013 21.4737 19.9494 22.0397 20.1665Z" fill="#E9FFFE"/>
</g>
<path d="M31.5298 39.8526C28.6067 41.4885 23.9391 41.442 21.0936 39.744C19.6979 38.9144 19.0001 37.8366 19.0079 36.7589C19.0079 37.3559 19.0932 37.7359 19.1397 37.9064C19.2017 38.1313 19.2948 38.4337 19.38 38.6585C19.4498 38.8446 19.5661 39.085 19.6669 39.2555C19.9228 39.682 20.1089 39.9844 20.6361 40.5116C21.1091 40.9846 21.6518 41.318 21.8612 41.4498C22.4194 41.7909 23.9701 42.5973 26.3039 42.6206C27.1956 42.6283 28.0407 42.5043 28.5447 42.3879C29.6689 42.1166 30.1186 41.884 30.7622 41.5506C31.3747 41.2017 31.7004 40.9303 31.8089 40.8295C31.995 40.6589 32.2431 40.4341 32.4137 40.248C32.561 40.0852 32.7548 39.8526 32.8711 39.6587C33.189 39.1547 33.3441 38.8989 33.5689 38.1856C33.6232 38.0072 33.6775 37.7746 33.7008 37.5885C33.7318 37.3559 33.755 37.038 33.7628 36.7977C33.7628 37.9064 33.0107 39.0152 31.5298 39.8526Z" fill="#CCFFFF"/>
<path d="M31.731 12.3042C28.8777 10.6061 24.1791 10.5596 21.2483 12.2034C18.3097 13.8394 18.2477 16.5453 21.101 18.2433C23.9542 19.9414 28.6451 19.9879 31.5837 18.3519C34.5223 16.7159 34.5843 14.0099 31.731 12.3119V12.3042ZM31.2658 18.1581C28.5133 19.6932 24.1093 19.6545 21.4266 18.0573C18.7516 16.4678 18.8137 13.9246 21.5662 12.3895C24.3187 10.8543 28.7226 10.9008 31.3976 12.4902C34.0726 14.0797 34.0105 16.6229 31.258 18.1581H31.2658Z" fill="#CCFFFF"/>
<path d="M19.4497 38.7825L19 37.5264V15.1963H19.4497V38.7825Z" fill="#CCFFFF"/>
<path d="M33.8247 37.9992L33.375 38.759V15.6381L33.8247 15.4132V37.9992Z" fill="#CCFFFF"/>
</svg>
