<svg width="63" height="63" viewBox="0 0 63 63" fill="none" xmlns="http://www.w3.org/2000/svg">
<path d="M44.0551 50.0988C54.3906 43.1011 57.0965 29.0497 50.0988 18.7142C43.1011 8.37862 29.0497 5.67275 18.7142 12.6704C8.37862 19.6681 5.67275 33.7195 12.6704 44.055C19.6681 54.3906 33.7195 57.0965 44.0551 50.0988Z" fill="white"/>
<path d="M40.9355 40.0402C43.8283 39.4766 47.0609 33.2849 40.231 28.2619C41.2505 26.5461 41.0764 25.4851 38.3577 25.4851C36.758 25.4851 33.1026 25.4686 28.204 26.8694C25.5433 27.6319 18.4149 29.3477 15.1492 32.4146C11.4441 35.8959 13.1599 36.6999 15.5802 38.8798C18.7714 41.3333 28.7842 42.4191 40.9438 40.0485L40.9355 40.0402Z" fill="#E77A15"/>
<path d="M38.6812 26.1563C39.4189 26.6951 40.0074 27.2587 40.4633 27.8306C41.1264 26.5127 40.8943 25.659 39.021 25.5098C38.9298 25.717 38.8221 25.9242 38.6812 26.1563Z" fill="#D16E13"/>
<path d="M41.3086 29.1733C43.3808 33.5167 39.3773 37.9345 39.3773 37.9345C26.6458 38.2827 17.2131 39.2193 14.0137 36.7659C13.6573 36.4426 13.3174 36.1525 13.0024 35.879C13.1351 36.9068 14.2458 37.6859 15.5637 38.8712C18.7548 41.3247 28.1875 42.4436 40.9273 40.0399C43.5963 39.5343 46.3482 34.0637 41.3086 29.1733Z" fill="#D16E13"/>
<path d="M29.9451 40.0484C29.9783 40.1562 30.0943 40.2142 30.2103 40.1728C30.3264 40.1396 30.3844 40.0236 30.3512 39.9158C30.3181 39.8081 30.1938 39.75 30.086 39.7915C29.9782 39.8246 29.9119 39.9407 29.9451 40.0484Z" fill="#AD5B10"/>
<path d="M26.936 39.3359C26.8863 39.4353 26.936 39.5597 27.0355 39.6177C27.1432 39.6674 27.2676 39.6343 27.3173 39.5348C27.367 39.4354 27.3173 39.311 27.2178 39.2613C27.1101 39.2115 26.9857 39.2447 26.936 39.3442V39.3359Z" fill="#AD5B10"/>
<path d="M25.8252 39.6672C25.7754 39.7666 25.8252 39.891 25.9246 39.9407C26.0324 39.9987 26.1567 39.9573 26.2065 39.8578C26.2562 39.7583 26.2065 39.634 26.107 39.5843C25.9992 39.5263 25.8749 39.5677 25.8252 39.6672Z" fill="#AD5B10"/>
<path d="M29.2488 39.4682C29.282 39.576 29.398 39.634 29.514 39.5925C29.6218 39.5594 29.6881 39.4433 29.655 39.3356C29.6218 39.2278 29.4975 39.1698 29.3897 39.2113C29.282 39.2444 29.2157 39.3605 29.2488 39.4682Z" fill="#AD5B10"/>
<path d="M24.4243 39.8161C24.3746 39.9156 24.4243 40.0399 24.5238 40.0896C24.6315 40.1476 24.7558 40.1062 24.8056 40.0067C24.8553 39.9073 24.8056 39.7829 24.7061 39.7332C24.5984 39.6835 24.474 39.7166 24.4243 39.8161Z" fill="#AD5B10"/>
<path d="M29.1323 40.9433C29.0826 41.0428 29.1323 41.1671 29.2318 41.2169C29.3395 41.2666 29.4638 41.2335 29.5136 41.134C29.5633 41.0345 29.5136 40.9102 29.4141 40.8604C29.3064 40.8024 29.182 40.8439 29.1323 40.9433Z" fill="#AD5B10"/>
<path d="M30.5415 39.5593C30.5746 39.667 30.6989 39.725 30.8067 39.6836C30.9145 39.6504 30.9808 39.5344 30.9476 39.4266C30.9145 39.3189 30.7901 39.2609 30.6824 39.3023C30.5663 39.3355 30.5083 39.4515 30.5415 39.5593Z" fill="#AD5B10"/>
<path d="M31.3374 40.0484C31.3705 40.1562 31.4949 40.2142 31.6026 40.1728C31.7104 40.1396 31.7767 40.0236 31.7435 39.9158C31.7104 39.8081 31.5861 39.75 31.4783 39.7915C31.3623 39.8246 31.3042 39.9407 31.3374 40.0484Z" fill="#AD5B10"/>
<path d="M32.4565 39.7586C32.4897 39.8664 32.6057 39.9244 32.7218 39.883C32.8295 39.8498 32.8958 39.7338 32.8627 39.626C32.8295 39.5183 32.7052 39.4602 32.5974 39.5017C32.4814 39.5431 32.4234 39.6509 32.4565 39.7586Z" fill="#AD5B10"/>
<path d="M33.2602 40.0484C33.2934 40.1562 33.4177 40.2142 33.5255 40.1728C33.6332 40.1396 33.6995 40.0236 33.6664 39.9158C33.6332 39.8081 33.5089 39.75 33.4011 39.7915C33.2851 39.8246 33.2271 39.9407 33.2602 40.0484Z" fill="#AD5B10"/>
<path d="M35.6394 39.6426C35.598 39.7503 35.656 39.8664 35.7637 39.9078C35.8715 39.9492 35.9958 39.9078 36.0373 39.8C36.0787 39.7006 36.0207 39.5763 35.9129 39.5348C35.8052 39.4934 35.6809 39.5348 35.6394 39.6426Z" fill="#AD5B10"/>
<path d="M35.7883 40.3139C35.7469 40.4133 35.8049 40.5377 35.9127 40.5791C36.0204 40.6205 36.1448 40.5791 36.1862 40.4713C36.2277 40.3636 36.1696 40.2476 36.0619 40.2061C35.9541 40.1647 35.8298 40.2061 35.7883 40.3139Z" fill="#AD5B10"/>
<path d="M36.2693 39.4684C36.2279 39.5679 36.2859 39.6923 36.3936 39.7337C36.5014 39.7751 36.6257 39.7337 36.6671 39.6259C36.7086 39.5265 36.6506 39.4021 36.5345 39.3607C36.4268 39.3192 36.3024 39.3607 36.261 39.4684H36.2693Z" fill="#AD5B10"/>
<path d="M36.949 39.7582C36.9075 39.8577 36.9656 39.982 37.0733 40.0235C37.1811 40.0649 37.3054 40.0235 37.3469 39.9157C37.3883 39.8163 37.3303 39.6919 37.2225 39.6505C37.1148 39.609 36.9904 39.6505 36.949 39.7582Z" fill="#AD5B10"/>
<path d="M38.1509 39.7912C38.184 39.899 38.3083 39.957 38.4161 39.9156C38.5239 39.8824 38.5902 39.7664 38.557 39.6586C38.5238 39.5509 38.3995 39.4928 38.2917 39.5343C38.1757 39.5674 38.1177 39.6835 38.1509 39.7912Z" fill="#AD5B10"/>
<path d="M38.5154 40.1229C38.5486 40.2307 38.6729 40.2887 38.7807 40.2472C38.8884 40.2141 38.9547 40.098 38.9216 39.9903C38.8884 39.8825 38.7724 39.8245 38.6563 39.8659C38.5486 39.8991 38.4823 40.0151 38.5154 40.1229Z" fill="#AD5B10"/>
<path d="M39.4106 39.7002C39.4438 39.8079 39.5681 39.8659 39.6759 39.8245C39.7836 39.7913 39.8499 39.6753 39.8168 39.5675C39.7836 39.4598 39.6593 39.4018 39.5515 39.4432C39.4355 39.4764 39.3775 39.5924 39.4106 39.7002Z" fill="#AD5B10"/>
<path d="M39.626 38.9956C39.6591 39.1034 39.7834 39.1614 39.8912 39.12C39.999 39.0868 40.0652 38.9708 40.0321 38.863C39.9989 38.7553 39.8746 38.6972 39.7669 38.7387C39.6508 38.7718 39.5928 38.8879 39.626 38.9956Z" fill="#AD5B10"/>
<path d="M40.596 39.5925C40.6291 39.7003 40.7452 39.7583 40.8612 39.7169C40.969 39.6837 41.0353 39.5677 41.0021 39.4599C40.969 39.3521 40.8446 39.2941 40.7369 39.3356C40.6291 39.3687 40.5628 39.4847 40.596 39.5925Z" fill="#AD5B10"/>
<path d="M34.1968 39.8163C34.2299 39.924 34.3542 39.982 34.462 39.9406C34.5697 39.9074 34.6361 39.7914 34.6029 39.6836C34.5697 39.5759 34.4454 39.5262 34.3376 39.5593C34.2216 39.5925 34.1636 39.7085 34.1968 39.8163Z" fill="#AD5B10"/>
<path d="M22.5014 39.5014C22.4517 39.6008 22.5014 39.7251 22.6009 39.7832C22.7087 39.8329 22.833 39.7997 22.8827 39.7003C22.9325 39.6008 22.8827 39.4765 22.7833 39.4268C22.6755 39.3687 22.5512 39.4102 22.5014 39.5096V39.5014Z" fill="#AD5B10"/>
<path d="M26.8943 40.1641C26.9275 40.2719 27.0518 40.3299 27.1596 40.2885C27.2756 40.2553 27.3336 40.1393 27.3005 40.0315C27.2673 39.9238 27.1513 39.8657 27.0352 39.9072C26.9275 39.9403 26.8612 40.0564 26.8943 40.1641Z" fill="#AD5B10"/>
<path d="M28.2041 39.7586C28.2372 39.8664 28.3616 39.9244 28.4693 39.883C28.5854 39.8498 28.6434 39.7338 28.6102 39.626C28.5771 39.5183 28.4527 39.4602 28.345 39.5017C28.2289 39.5348 28.1709 39.6509 28.2041 39.7586Z" fill="#AD5B10"/>
<path d="M31.0802 40.2885C31.0471 40.1808 30.9228 40.131 30.815 40.1642C30.7072 40.2056 30.641 40.3217 30.6741 40.4211C30.7073 40.5289 30.8316 40.5869 30.9393 40.5455C31.0471 40.5123 31.1134 40.3963 31.0802 40.2885Z" fill="#AD5B10"/>
<path d="M34.0976 40.9765C34.1473 40.877 34.0976 40.7527 33.9981 40.703C33.8903 40.6532 33.766 40.6864 33.7163 40.7858C33.6666 40.8853 33.7163 41.0096 33.8157 41.0594C33.9235 41.1091 34.0478 41.076 34.0976 40.9765Z" fill="#AD5B10"/>
<path d="M35.2001 40.6288C35.2498 40.5293 35.2001 40.405 35.1006 40.3553C34.9929 40.2973 34.8686 40.3387 34.8188 40.4382C34.7691 40.5376 34.8188 40.662 34.9183 40.7117C35.026 40.7614 35.1504 40.7283 35.2001 40.6288Z" fill="#AD5B10"/>
<path d="M31.7849 40.8607C31.7517 40.753 31.6274 40.7033 31.5196 40.7364C31.4119 40.7696 31.3455 40.8856 31.3787 40.9934C31.4119 41.1011 31.5362 41.1509 31.6439 41.1177C31.7517 41.0846 31.818 40.9685 31.7849 40.8607Z" fill="#AD5B10"/>
<path d="M30.4836 40.7863C30.4504 40.6785 30.3261 40.6288 30.2183 40.6619C30.1106 40.7034 30.0443 40.8194 30.0774 40.9189C30.1106 41.0267 30.2349 41.0764 30.3426 41.0432C30.4504 41.0018 30.5167 40.8857 30.4836 40.7863Z" fill="#AD5B10"/>
<path d="M29.6794 40.2971C29.6462 40.1894 29.5219 40.1396 29.4141 40.1728C29.3064 40.2142 29.2401 40.3303 29.2732 40.4297C29.3064 40.5375 29.4307 40.5872 29.5385 40.5541C29.6545 40.5209 29.7125 40.3966 29.6794 40.2971Z" fill="#AD5B10"/>
<path d="M28.569 40.5956C28.5359 40.4878 28.4115 40.4381 28.3038 40.4712C28.196 40.5044 28.1297 40.6287 28.1629 40.7282C28.196 40.8359 28.3203 40.8857 28.4281 40.8525C28.5441 40.8111 28.6022 40.695 28.569 40.5956Z" fill="#AD5B10"/>
<path d="M27.7565 40.3137C27.7234 40.206 27.599 40.1562 27.4913 40.1894C27.3835 40.2308 27.3172 40.3469 27.3504 40.4463C27.3835 40.5541 27.5079 40.6038 27.6156 40.5707C27.7317 40.5375 27.7897 40.4132 27.7565 40.3137Z" fill="#AD5B10"/>
<path d="M26.8283 40.5543C26.7951 40.4466 26.6708 40.3968 26.563 40.43C26.4553 40.4714 26.389 40.5875 26.4222 40.6869C26.4553 40.7947 26.5796 40.8444 26.6874 40.8113C26.7951 40.7698 26.8615 40.6538 26.8283 40.5543Z" fill="#AD5B10"/>
<path d="M22.6175 41.0015C22.6838 40.9103 22.6672 40.786 22.576 40.7114C22.4848 40.6368 22.3522 40.6451 22.2776 40.7362C22.2113 40.8191 22.2279 40.9517 22.3191 41.0263C22.4103 41.1009 22.5429 41.0927 22.6092 41.0015H22.6175Z" fill="#AD5B10"/>
<path d="M23.7698 40.9024C23.8361 40.8112 23.8196 40.6869 23.7284 40.6123C23.6372 40.5377 23.5046 40.546 23.4383 40.6372C23.372 40.7201 23.3885 40.8527 23.4797 40.9273C23.5709 41.0019 23.7035 40.9936 23.7698 40.9024Z" fill="#AD5B10"/>
<path d="M25.1707 41.0347C25.237 40.9518 25.2205 40.8192 25.1293 40.7446C25.0381 40.67 24.9055 40.6783 24.8392 40.7695C24.7729 40.8524 24.7894 40.985 24.8806 41.0596C24.9718 41.1342 25.1044 41.1259 25.1707 41.0347Z" fill="#AD5B10"/>
<path d="M26.1321 40.9516C26.2067 40.8688 26.1819 40.7361 26.0907 40.6615C25.9995 40.5869 25.8669 40.5952 25.7923 40.6864C25.726 40.7776 25.7425 40.9019 25.8337 40.9765C25.9249 41.0511 26.0575 41.0428 26.1238 40.9516H26.1321Z" fill="#AD5B10"/>
<path d="M27.6986 41.0846C27.6903 40.9768 27.5825 40.8939 27.4665 40.9105C27.3505 40.9271 27.2593 41.0265 27.2759 41.1343C27.2842 41.242 27.3919 41.3249 27.508 41.3083C27.624 41.2918 27.7069 41.1923 27.6986 41.0846Z" fill="#AD5B10"/>
<path d="M22.9742 39.8243C22.9908 39.932 23.0903 40.015 23.2146 39.9984C23.3306 39.9818 23.4135 39.8823 23.4052 39.7746C23.3886 39.6668 23.2892 39.5839 23.1648 39.6005C23.0488 39.6171 22.9659 39.7165 22.9742 39.8243Z" fill="#AD5B10"/>
<path d="M34.1224 40.1396C34.0893 40.0318 33.965 39.9821 33.8572 40.0153C33.7412 40.0567 33.6831 40.1727 33.7163 40.2722C33.7494 40.38 33.8738 40.4297 33.9815 40.3965C34.0976 40.3551 34.1556 40.239 34.1224 40.1396Z" fill="#AD5B10"/>
<path d="M32.8212 40.5623C32.788 40.4546 32.6637 40.4048 32.5559 40.438C32.4399 40.4794 32.3819 40.5955 32.415 40.6949C32.4482 40.8027 32.5725 40.8524 32.6803 40.8193C32.7963 40.7861 32.8543 40.6701 32.8212 40.5623Z" fill="#AD5B10"/>
<path d="M42.5938 34.8759C42.486 34.8427 42.37 34.9007 42.3368 35.0168C42.3037 35.1245 42.3534 35.2489 42.4612 35.282C42.5689 35.3152 42.685 35.2571 42.7181 35.1411C42.7513 35.0251 42.7015 34.909 42.5938 34.8759Z" fill="#AD5B10"/>
<path d="M42.8172 32.0582C42.7675 31.9587 42.6432 31.9173 42.5354 31.9753C42.4276 32.025 42.3862 32.1494 42.4359 32.2489C42.4856 32.3483 42.61 32.3898 42.7178 32.3317C42.8255 32.282 42.8669 32.1577 42.8172 32.0582Z" fill="#AD5B10"/>
<path d="M42.9168 31.2706C42.8671 31.1711 42.7427 31.1297 42.635 31.1877C42.5272 31.2374 42.4858 31.3618 42.5355 31.4612C42.5853 31.5607 42.7096 31.6021 42.8173 31.5441C42.9251 31.4944 42.9665 31.3701 42.9168 31.2706Z" fill="#AD5B10"/>
<path d="M43.0244 33.9972C42.9167 33.964 42.8006 34.0221 42.7675 34.1381C42.7343 34.2542 42.7841 34.3702 42.8918 34.4034C42.9996 34.4365 43.1156 34.3785 43.1488 34.2624C43.1819 34.1547 43.1322 34.0304 43.0244 33.9972Z" fill="#AD5B10"/>
<path d="M43.5386 33.2348C43.4308 33.2017 43.3148 33.2597 43.2816 33.3757C43.2485 33.4918 43.2982 33.6078 43.406 33.641C43.5137 33.6741 43.6298 33.6161 43.6629 33.5001C43.7044 33.3923 43.6463 33.268 43.5386 33.2348Z" fill="#AD5B10"/>
<path d="M42.8008 35.5312C42.693 35.498 42.577 35.556 42.5438 35.6721C42.5107 35.7881 42.5604 35.9042 42.6682 35.9373C42.7677 35.9705 42.892 35.9125 42.9251 35.7964C42.9583 35.6887 42.9085 35.5643 42.8008 35.5312Z" fill="#AD5B10"/>
<path d="M43.3394 34.8759C43.2316 34.8427 43.1156 34.9007 43.0824 35.0168C43.0493 35.1245 43.099 35.2489 43.2067 35.282C43.3145 35.3152 43.4305 35.2571 43.4637 35.1411C43.5051 35.0251 43.4471 34.909 43.3394 34.8759Z" fill="#AD5B10"/>
<path d="M42.3945 36.128C42.2868 36.0949 42.1708 36.1529 42.1376 36.2689C42.1044 36.3767 42.1542 36.501 42.2619 36.5342C42.3697 36.5673 42.4857 36.5093 42.5189 36.3933C42.552 36.2855 42.5023 36.1612 42.3945 36.128Z" fill="#AD5B10"/>
<path d="M42.4441 37.7277C42.3612 37.6531 42.2286 37.6531 42.154 37.7443C42.0711 37.8272 42.0711 37.9598 42.154 38.0344C42.2369 38.109 42.3695 38.1007 42.4524 38.0178C42.5353 37.9349 42.5353 37.8023 42.4524 37.7277H42.4441Z" fill="#AD5B10"/>
<path d="M43.215 37.1138C43.1322 37.0392 42.9996 37.0475 42.925 37.1304C42.8421 37.2133 42.8421 37.3459 42.925 37.4288C43.0078 37.5034 43.1405 37.4951 43.2233 37.4122C43.3062 37.3293 43.3062 37.1967 43.2233 37.1221L43.215 37.1138Z" fill="#AD5B10"/>
<path d="M43.215 36.2604C43.1322 36.1858 42.9996 36.194 42.925 36.2769C42.8421 36.3598 42.8421 36.4925 42.925 36.567C43.0078 36.6416 43.1405 36.6334 43.2233 36.5505C43.3062 36.4676 43.3062 36.335 43.2233 36.2604H43.215Z" fill="#AD5B10"/>
<path d="M43.9197 35.6966C43.8368 35.622 43.7041 35.6219 43.6295 35.7131C43.5467 35.796 43.5467 35.9286 43.6295 36.0032C43.7124 36.0778 43.8451 36.0696 43.928 35.9867C44.0108 35.9038 44.0108 35.7712 43.928 35.6966H43.9197Z" fill="#AD5B10"/>
<path d="M42.3615 38.4072C42.2786 38.3326 42.146 38.3409 42.0631 38.4238C41.9803 38.5067 41.9803 38.6393 42.0631 38.7222C42.146 38.7968 42.2786 38.7885 42.3615 38.7056C42.4444 38.6227 42.4444 38.4901 42.3615 38.4072Z" fill="#AD5B10"/>
<path d="M41.7312 38.7715C41.6483 38.6969 41.5157 38.7052 41.4328 38.788C41.3499 38.8709 41.3499 39.0036 41.4328 39.0865C41.5157 39.1611 41.6483 39.1528 41.7312 39.0699C41.8141 38.987 41.8141 38.8544 41.7312 38.7715Z" fill="#AD5B10"/>
<path d="M41.9634 37.2055C41.8556 37.1723 41.7396 37.2303 41.7064 37.3463C41.6733 37.4624 41.723 37.5784 41.8308 37.6116C41.9385 37.6447 42.0546 37.5867 42.0877 37.4707C42.1292 37.3546 42.0711 37.2386 41.9634 37.2055Z" fill="#AD5B10"/>
<path d="M41.251 37.6774C41.1432 37.6442 41.0272 37.7023 40.994 37.8183C40.9609 37.9344 41.0106 38.0504 41.1184 38.0836C41.2261 38.1167 41.3422 38.0587 41.3753 37.9426C41.4085 37.8266 41.3587 37.7106 41.251 37.6774Z" fill="#AD5B10"/>
<path d="M40.8779 38.5647C40.7702 38.5315 40.6542 38.5895 40.621 38.7056C40.5878 38.8133 40.6376 38.9377 40.7453 38.9708C40.8531 39.004 40.9691 38.946 41.0023 38.8299C41.0354 38.7139 40.9857 38.5978 40.8779 38.5647Z" fill="#AD5B10"/>
<path d="M43.0244 32.7955C42.9167 32.7623 42.8006 32.8203 42.7675 32.9364C42.7343 33.0524 42.7841 33.1685 42.8918 33.2016C42.9996 33.2348 43.1156 33.1768 43.1488 33.0607C43.1819 32.953 43.1322 32.8286 43.0244 32.7955Z" fill="#AD5B10"/>
<path d="M43.2236 32.0743C43.1159 32.0412 42.9999 32.0992 42.9667 32.2152C42.9335 32.3313 42.9833 32.4473 43.091 32.4805C43.1988 32.5136 43.3148 32.4556 43.348 32.3396C43.3811 32.2318 43.3314 32.1075 43.2236 32.0743Z" fill="#AD5B10"/>
<path d="M42.4527 33.2348C42.3449 33.2017 42.2289 33.2597 42.1957 33.3757C42.1625 33.4918 42.2123 33.6078 42.32 33.641C42.4278 33.6741 42.5438 33.6161 42.577 33.5001C42.6184 33.3923 42.5604 33.268 42.4527 33.2348Z" fill="#AD5B10"/>
<path d="M43.8452 34.2046C43.7375 34.1714 43.6214 34.2294 43.5883 34.3455C43.5551 34.4615 43.6049 34.5776 43.7126 34.6107C43.8204 34.6439 43.9364 34.5859 43.9696 34.4698C44.011 34.3538 43.953 34.2377 43.8452 34.2046Z" fill="#AD5B10"/>
<path d="M18.158 36.5754C18.1911 36.6832 18.3072 36.7412 18.4232 36.6997C18.531 36.6666 18.5973 36.5505 18.5641 36.4428C18.531 36.335 18.4149 36.277 18.2989 36.3185C18.1911 36.3599 18.1248 36.4677 18.158 36.5754Z" fill="#D16E13"/>
<path d="M24.0179 30.4586C24.051 30.5663 24.1753 30.6244 24.2831 30.5829C24.3991 30.5498 24.4572 30.4337 24.424 30.326C24.3908 30.2182 24.2748 30.1602 24.1588 30.2016C24.051 30.2348 23.9847 30.3508 24.0179 30.4586Z" fill="#D16E13"/>
<path d="M22.667 29.9694C22.7001 30.0772 22.8161 30.1352 22.9322 30.0938C23.0482 30.0606 23.1063 29.9446 23.0731 29.8368C23.04 29.729 22.9156 29.671 22.8079 29.7125C22.6918 29.7456 22.6338 29.8617 22.667 29.9694Z" fill="#D16E13"/>
<path d="M21.4983 30.1103C21.5315 30.2181 21.6558 30.2761 21.7636 30.2347C21.8713 30.2015 21.9376 30.0855 21.9045 29.9777C21.8713 29.87 21.747 29.8119 21.6392 29.8534C21.5315 29.8865 21.4652 30.0026 21.4983 30.1103Z" fill="#D16E13"/>
<path d="M19.4507 30.4586C19.4838 30.5663 19.5999 30.6244 19.7159 30.5829C19.8319 30.5415 19.89 30.4337 19.8568 30.326C19.8236 30.2182 19.7076 30.1602 19.5916 30.2016C19.4755 30.2348 19.4175 30.3508 19.4507 30.4586Z" fill="#D16E13"/>
<path d="M23.8027 33.3266C23.8359 33.4343 23.9602 33.4924 24.068 33.4509C24.184 33.4178 24.242 33.3017 24.2089 33.194C24.1757 33.0862 24.0514 33.0282 23.9436 33.0696C23.8276 33.1028 23.7696 33.2188 23.8027 33.3266Z" fill="#D16E13"/>
<path d="M22.6751 34.5615C22.7082 34.6693 22.8326 34.7273 22.9403 34.6858C23.0564 34.6527 23.1144 34.5366 23.0812 34.4289C23.0481 34.3211 22.932 34.2631 22.816 34.3045C22.7082 34.3377 22.6419 34.4537 22.6751 34.5615Z" fill="#D16E13"/>
<path d="M16.8647 31.536C16.8979 31.6438 17.0222 31.7018 17.1299 31.6604C17.246 31.6272 17.304 31.5112 17.2709 31.4034C17.2377 31.2957 17.1134 31.2376 17.0056 31.2791C16.8896 31.3122 16.8316 31.4283 16.8647 31.536Z" fill="#D16E13"/>
<path d="M18.1577 30.9558C18.1908 31.0635 18.3069 31.1132 18.4229 31.0801C18.5307 31.0469 18.597 30.9309 18.5638 30.8231C18.5307 30.7154 18.4146 30.6574 18.2986 30.6988C18.1825 30.732 18.1245 30.848 18.1577 30.9558Z" fill="#D16E13"/>
<path d="M19.4507 31.3373C19.4838 31.445 19.5999 31.503 19.7159 31.4616C19.8319 31.4284 19.89 31.3124 19.8568 31.2046C19.8236 31.0969 19.6993 31.0389 19.5916 31.0803C19.4755 31.1135 19.4175 31.2295 19.4507 31.3373Z" fill="#D16E13"/>
<path d="M20.7937 31.2794C20.8269 31.3872 20.9429 31.4452 21.059 31.4038C21.175 31.3706 21.233 31.2546 21.1999 31.1468C21.1667 31.039 21.0507 30.981 20.9347 31.0225C20.8269 31.0556 20.7606 31.1717 20.7937 31.2794Z" fill="#D16E13"/>
<path d="M22.2112 31.4782C22.2444 31.5859 22.3687 31.6439 22.4765 31.6025C22.5925 31.5693 22.6505 31.4533 22.6174 31.3455C22.5842 31.2378 22.4599 31.1798 22.3521 31.2212C22.2444 31.2544 22.1781 31.3704 22.2112 31.4782Z" fill="#D16E13"/>
<path d="M23.4212 31.2462C23.4543 31.3539 23.5786 31.412 23.6864 31.3705C23.8024 31.3374 23.8605 31.2213 23.8273 31.1136C23.7942 31.0058 23.6781 30.9478 23.5621 30.9892C23.4543 31.0224 23.388 31.1384 23.4212 31.2462Z" fill="#D16E13"/>
<path d="M24.9546 30.9145C24.9877 31.0223 25.1038 31.0803 25.2198 31.0389C25.3276 31.0057 25.3939 30.8897 25.3607 30.7819C25.3276 30.6742 25.2032 30.6161 25.0955 30.6576C24.9794 30.6907 24.9214 30.8068 24.9546 30.9145Z" fill="#D16E13"/>
<path d="M19.3929 36.0124C19.426 36.1201 19.5503 36.1782 19.6581 36.1367C19.7741 36.1036 19.8322 35.9875 19.799 35.8798C19.7658 35.772 19.6415 35.714 19.5338 35.7554C19.426 35.7886 19.3597 35.9046 19.3929 36.0124Z" fill="#D16E13"/>
<path d="M20.0478 36.7828C20.081 36.8905 20.2053 36.9486 20.3131 36.9071C20.4208 36.874 20.4871 36.7579 20.454 36.6502C20.4208 36.5424 20.3048 36.4844 20.1887 36.5258C20.0727 36.559 20.0147 36.675 20.0478 36.7828Z" fill="#D16E13"/>
<path d="M23.1142 35.5559C23.1474 35.6636 23.2717 35.7216 23.3795 35.6802C23.4872 35.6387 23.5536 35.531 23.5204 35.4232C23.4872 35.3155 23.3712 35.2575 23.2552 35.2989C23.1391 35.3321 23.0811 35.4481 23.1142 35.5559Z" fill="#D16E13"/>
<path d="M18.7549 37.4707C18.788 37.5785 18.9123 37.6365 19.0201 37.5951C19.1278 37.5619 19.1942 37.4458 19.161 37.3381C19.1278 37.2303 19.0118 37.1723 18.8958 37.2138C18.7797 37.2469 18.7217 37.363 18.7549 37.4707Z" fill="#D16E13"/>
<path d="M24.7309 32.3814C24.7641 32.4892 24.8801 32.5472 24.9962 32.5058C25.1122 32.4726 25.1702 32.3566 25.1371 32.2488C25.1039 32.1411 24.9796 32.0831 24.8719 32.1245C24.7558 32.1576 24.6978 32.2737 24.7309 32.3814Z" fill="#D16E13"/>
<path d="M23.3716 32.1661C23.4047 32.2738 23.5208 32.3319 23.6368 32.2904C23.7528 32.2573 23.8109 32.1412 23.7777 32.0335C23.7446 31.9257 23.6202 31.8677 23.5125 31.9091C23.3964 31.9423 23.3384 32.0583 23.3716 32.1661Z" fill="#D16E13"/>
<path d="M22.6753 33.4509C22.7084 33.5586 22.8328 33.6167 22.9405 33.5752C23.0566 33.5421 23.1146 33.426 23.0814 33.3183C23.0483 33.2105 22.9239 33.1525 22.8162 33.1939C22.7001 33.2271 22.6421 33.3431 22.6753 33.4509Z" fill="#D16E13"/>
<path d="M21.3076 32.3648C21.3407 32.4726 21.4651 32.5306 21.5728 32.4892C21.6889 32.456 21.7469 32.34 21.7137 32.2322C21.6806 32.1245 21.5563 32.0664 21.4485 32.1079C21.3325 32.141 21.2744 32.2571 21.3076 32.3648Z" fill="#D16E13"/>
<path d="M20.7273 33.6748C20.7605 33.7826 20.8765 33.8406 20.9926 33.7992C21.1086 33.766 21.1666 33.65 21.1335 33.5422C21.1003 33.4345 20.9843 33.3764 20.8682 33.4179C20.7605 33.451 20.6942 33.5671 20.7273 33.6748Z" fill="#D16E13"/>
<path d="M19.6416 32.4731C19.6747 32.5809 19.7991 32.6389 19.9068 32.5974C20.0229 32.5643 20.0809 32.4482 20.0477 32.3405C20.0146 32.2327 19.8985 32.1747 19.7825 32.2162C19.6665 32.2493 19.6084 32.3654 19.6416 32.4731Z" fill="#D16E13"/>
<path d="M18.1577 33.1278C18.1908 33.2356 18.3069 33.2936 18.4229 33.2521C18.5307 33.219 18.597 33.0947 18.5638 32.9952C18.5307 32.8874 18.4063 32.8294 18.2986 32.8709C18.1825 32.904 18.1245 33.0201 18.1577 33.1278Z" fill="#D16E13"/>
<path d="M17.9424 32.0085C17.9755 32.1163 18.0998 32.1743 18.2076 32.1329C18.3236 32.0997 18.3817 31.9837 18.3485 31.8759C18.3153 31.7682 18.191 31.7102 18.0833 31.7516C17.9672 31.7848 17.9092 31.9008 17.9424 32.0085Z" fill="#D16E13"/>
<path d="M16.0527 32.4565C16.0859 32.5643 16.2102 32.6223 16.318 32.5808C16.4257 32.5477 16.492 32.4316 16.4588 32.3239C16.4257 32.2161 16.3097 32.1581 16.1936 32.1996C16.0776 32.2327 16.0196 32.3488 16.0527 32.4565Z" fill="#D16E13"/>
<path d="M20.7934 35.0919C20.8266 35.1996 20.9426 35.2577 21.0587 35.2162C21.1747 35.1831 21.2327 35.067 21.1996 34.9593C21.1664 34.8515 21.0504 34.7935 20.9344 34.8349C20.8183 34.8681 20.7603 34.9841 20.7934 35.0919Z" fill="#D16E13"/>
<path d="M17.3125 37.5125C17.3456 37.6203 17.47 37.6783 17.5777 37.6369C17.6938 37.6037 17.7518 37.4877 17.7186 37.3799C17.6855 37.2722 17.5694 37.2142 17.4534 37.2556C17.3374 37.2888 17.2793 37.4048 17.3125 37.5125Z" fill="#D16E13"/>
<path d="M24.4736 33.9733C24.5068 34.081 24.6228 34.1391 24.7389 34.0976C24.8466 34.0645 24.9129 33.9484 24.8798 33.8406C24.8466 33.7329 24.7223 33.6749 24.6145 33.7163C24.4985 33.7495 24.4405 33.8655 24.4736 33.9733Z" fill="#D16E13"/>
<path d="M24.018 35.2334C24.0512 35.3412 24.1672 35.3992 24.2833 35.3578C24.3993 35.3246 24.4573 35.2086 24.4242 35.1008C24.391 34.9931 24.275 34.935 24.1589 34.9765C24.0429 35.0096 23.9849 35.1257 24.018 35.2334Z" fill="#D16E13"/>
<path d="M23.4214 36.5754C23.4545 36.6832 23.5705 36.7412 23.6866 36.6997C23.8026 36.6666 23.8607 36.5505 23.8275 36.4428C23.7943 36.335 23.6783 36.277 23.5623 36.3185C23.4462 36.3516 23.3882 36.4677 23.4214 36.5754Z" fill="#D16E13"/>
<path d="M25.6841 34.0225C25.7172 34.1302 25.8333 34.1883 25.9493 34.1468C26.0571 34.1137 26.1234 33.9976 26.0902 33.8899C26.0571 33.7821 25.9327 33.7241 25.825 33.7655C25.7089 33.7987 25.6509 33.9147 25.6841 34.0225Z" fill="#D16E13"/>
<path d="M24.4736 36.2192C24.5068 36.3269 24.6228 36.3849 24.7389 36.3435C24.8549 36.3103 24.9129 36.1943 24.8798 36.0865C24.8466 35.9788 24.7223 35.9208 24.6145 35.9622C24.4985 35.9954 24.4405 36.1114 24.4736 36.2192Z" fill="#D16E13"/>
<path d="M25.4687 35.2913C25.5019 35.399 25.6179 35.4571 25.7339 35.4156C25.85 35.3742 25.908 35.2664 25.8749 35.1587C25.8417 35.0509 25.7174 34.9929 25.6096 35.0343C25.4936 35.0675 25.4356 35.1835 25.4687 35.2913Z" fill="#D16E13"/>
<path d="M21.1333 36.3521C21.1664 36.4598 21.2908 36.5178 21.3985 36.4764C21.5146 36.4432 21.5726 36.3272 21.5394 36.2195C21.5063 36.1117 21.3819 36.0537 21.2742 36.0951C21.1581 36.1283 21.1001 36.2443 21.1333 36.3521Z" fill="#D16E13"/>
<path d="M22.3518 36.1115C22.385 36.2192 22.501 36.2773 22.6171 36.2358C22.7331 36.2027 22.7911 36.0866 22.758 35.9789C22.7248 35.8711 22.6005 35.8131 22.4927 35.8545C22.385 35.8877 22.3187 36.0037 22.3518 36.1115Z" fill="#D16E13"/>
<path d="M14.2456 35.4734C14.2787 35.5811 14.4031 35.6392 14.5108 35.5977C14.6186 35.5646 14.6849 35.4485 14.6517 35.3408C14.6186 35.233 14.5025 35.175 14.3865 35.2164C14.2704 35.2579 14.2124 35.3656 14.2456 35.4734Z" fill="#D16E13"/>
<path d="M15.1492 35.1504C15.1824 35.2581 15.2984 35.3161 15.4145 35.2747C15.5305 35.2415 15.5885 35.1255 15.5553 35.0177C15.5222 34.91 15.3979 34.852 15.2901 34.8934C15.1823 34.9266 15.1161 35.0426 15.1492 35.1504Z" fill="#D16E13"/>
<path d="M14.5522 36.4923C14.5854 36.6001 14.7097 36.6581 14.8175 36.6167C14.9335 36.5835 14.9915 36.4675 14.9584 36.3597C14.9252 36.252 14.8009 36.194 14.6931 36.2354C14.5771 36.2686 14.5191 36.3846 14.5522 36.4923Z" fill="#D16E13"/>
<path d="M13.6819 34.7603C13.7151 34.868 13.8394 34.926 13.9471 34.8846C14.0632 34.8431 14.1212 34.7354 14.0881 34.6276C14.0549 34.5199 13.9306 34.4619 13.8228 34.5033C13.7151 34.5365 13.6488 34.6525 13.6819 34.7603Z" fill="#D16E13"/>
<path d="M14.6767 33.8317C14.7099 33.9395 14.8259 33.9975 14.942 33.9561C15.058 33.9229 15.116 33.8069 15.0829 33.6991C15.0497 33.5914 14.9254 33.5333 14.8177 33.5748C14.7016 33.6079 14.6436 33.724 14.6767 33.8317Z" fill="#D16E13"/>
<path d="M13.4829 36.0204C13.516 36.1282 13.6321 36.1862 13.7481 36.1448C13.8642 36.1116 13.9222 35.9956 13.8891 35.8878C13.8559 35.78 13.7316 35.722 13.6238 35.7635C13.5078 35.7966 13.4497 35.9127 13.4829 36.0204Z" fill="#D16E13"/>
<path d="M18.3652 34.3547C18.3984 34.4625 18.5227 34.5205 18.6305 34.4791C18.7465 34.4459 18.8045 34.3299 18.7714 34.2221C18.7382 34.1144 18.6139 34.0563 18.5061 34.0978C18.3901 34.1309 18.3321 34.247 18.3652 34.3547Z" fill="#D16E13"/>
<path d="M18.3652 35.4156C18.3984 35.5233 18.5227 35.5813 18.6305 35.5399C18.7465 35.5067 18.8045 35.3907 18.7714 35.2829C18.7382 35.1752 18.6139 35.1172 18.5061 35.1586C18.3901 35.1918 18.3321 35.3078 18.3652 35.4156Z" fill="#D16E13"/>
<path d="M17.3125 34.943C17.3456 35.0508 17.47 35.1088 17.5777 35.0673C17.6938 35.0259 17.7518 34.9181 17.7186 34.8104C17.6855 34.7026 17.5694 34.6446 17.4534 34.686C17.3374 34.7192 17.2793 34.8352 17.3125 34.943Z" fill="#D16E13"/>
<path d="M16.0525 34.7603C16.0857 34.868 16.2017 34.926 16.3178 34.8846C16.4338 34.8514 16.4918 34.7354 16.4587 34.6276C16.4255 34.5199 16.3095 34.4619 16.1934 34.5033C16.0857 34.5365 16.0194 34.6525 16.0525 34.7603Z" fill="#D16E13"/>
<path d="M16.5911 35.7552C16.6243 35.863 16.7403 35.921 16.8563 35.8795C16.9641 35.8464 17.0304 35.7303 16.9973 35.6226C16.9641 35.5148 16.8398 35.4568 16.732 35.4982C16.6243 35.5314 16.5579 35.6475 16.5911 35.7552Z" fill="#D16E13"/>
<path d="M17.5032 36.3521C17.5364 36.4598 17.6524 36.5178 17.7685 36.4764C17.8762 36.4432 17.9425 36.3272 17.9093 36.2195C17.8762 36.1117 17.7519 36.0537 17.6441 36.0951C17.5364 36.1283 17.4701 36.2443 17.5032 36.3521Z" fill="#D16E13"/>
<path d="M16.5911 36.7828C16.6243 36.8905 16.7403 36.9486 16.8563 36.9071C16.9641 36.874 17.0304 36.7579 16.9973 36.6502C16.9641 36.5424 16.8398 36.4844 16.732 36.5258C16.6243 36.559 16.5579 36.675 16.5911 36.7828Z" fill="#D16E13"/>
<path d="M15.1406 33.1278C15.1738 33.2356 15.2898 33.2936 15.4058 33.2521C15.5219 33.219 15.5799 33.1029 15.5468 32.9952C15.5136 32.8874 15.3976 32.8294 15.2815 32.8709C15.1655 32.904 15.1074 33.0201 15.1406 33.1278Z" fill="#D16E13"/>
<path d="M15.406 34.0889C15.4392 34.1967 15.5552 34.2547 15.6713 34.2133C15.7873 34.1801 15.8453 34.0641 15.8122 33.9563C15.779 33.8486 15.663 33.7905 15.547 33.832C15.4392 33.8651 15.3729 33.9812 15.406 34.0889Z" fill="#D16E13"/>
<path d="M16.409 33.5671C16.4421 33.6749 16.5665 33.7329 16.6742 33.6915C16.7903 33.6583 16.8483 33.5423 16.8151 33.4345C16.782 33.3268 16.6659 33.2687 16.5499 33.3102C16.4421 33.3433 16.3758 33.4594 16.409 33.5671Z" fill="#D16E13"/>
<path d="M17.3125 33.7739C17.3456 33.8817 17.47 33.9397 17.5777 33.8982C17.6938 33.8651 17.7518 33.749 17.7186 33.6413C17.6855 33.5335 17.5611 33.4755 17.4534 33.517C17.3374 33.5501 17.2793 33.6661 17.3125 33.7739Z" fill="#D16E13"/>
<path d="M19.3929 33.9733C19.426 34.081 19.5503 34.1391 19.6581 34.0976C19.7741 34.0645 19.8322 33.9484 19.799 33.8406C19.7658 33.7329 19.6498 33.6749 19.5338 33.7163C19.426 33.7495 19.3597 33.8655 19.3929 33.9733Z" fill="#D16E13"/>
<path d="M19.6084 35.0175C19.6415 35.1252 19.7576 35.1832 19.8736 35.1418C19.9897 35.1086 20.0477 34.9926 20.0145 34.8848C19.9814 34.7771 19.8653 34.7191 19.7493 34.7605C19.6332 34.7937 19.5752 34.9097 19.6084 35.0175Z" fill="#D16E13"/>
<path d="M21.5647 34.2218C21.5979 34.3296 21.7222 34.3876 21.83 34.3462C21.9377 34.313 22.0041 34.197 21.9709 34.0892C21.9377 33.9815 21.8217 33.9234 21.7057 33.9649C21.5979 33.998 21.5316 34.1141 21.5647 34.2218Z" fill="#D16E13"/>
<path d="M28.3694 32.9118C28.4026 33.0196 28.5269 33.0776 28.6346 33.0362C28.7424 33.003 28.8087 32.887 28.7756 32.7792C28.7424 32.6715 28.6264 32.6134 28.5103 32.6549C28.4026 32.688 28.3363 32.8041 28.3694 32.9118Z" fill="#D16E13"/>
<path d="M34.2383 26.795C34.2714 26.9028 34.3957 26.9608 34.5035 26.9194C34.6113 26.8862 34.6776 26.7702 34.6444 26.6624C34.6112 26.5547 34.4869 26.4966 34.3792 26.5381C34.2631 26.5712 34.2051 26.6873 34.2383 26.795Z" fill="#D16E13"/>
<path d="M32.8789 26.3058C32.912 26.4136 33.0281 26.4716 33.1441 26.4302C33.2519 26.397 33.3182 26.281 33.285 26.1732C33.2519 26.0654 33.1358 26.0074 33.0198 26.0489C32.9038 26.082 32.8457 26.1981 32.8789 26.3058Z" fill="#D16E13"/>
<path d="M31.7185 26.4468C31.7517 26.5545 31.876 26.6125 31.9838 26.5711C32.0915 26.5379 32.1579 26.4219 32.1247 26.3141C32.0916 26.2064 31.9672 26.1484 31.8595 26.1898C31.7517 26.2312 31.6854 26.339 31.7185 26.4468Z" fill="#D16E13"/>
<path d="M29.6626 26.795C29.6957 26.9028 29.8118 26.9608 29.9278 26.9194C30.0355 26.8862 30.1019 26.7702 30.0687 26.6624C30.0356 26.5547 29.9195 26.4966 29.8035 26.5381C29.6874 26.5712 29.6294 26.6873 29.6626 26.795Z" fill="#D16E13"/>
<path d="M34.0224 29.663C34.0556 29.7708 34.1799 29.8288 34.2877 29.7873C34.4037 29.7542 34.4618 29.6381 34.4286 29.5304C34.3954 29.4226 34.2711 29.3646 34.1634 29.406C34.0473 29.4392 33.9893 29.5552 34.0224 29.663Z" fill="#D16E13"/>
<path d="M32.8953 30.8979C32.9285 31.0057 33.0445 31.0637 33.1605 31.0223C33.2766 30.9808 33.3346 30.8731 33.3014 30.7653C33.2683 30.6575 33.1522 30.5995 33.0362 30.641C32.9284 30.6741 32.8621 30.7902 32.8953 30.8979Z" fill="#D16E13"/>
<path d="M27.0764 27.8722C27.1096 27.98 27.2257 28.038 27.3417 27.9965C27.4577 27.9634 27.5158 27.8473 27.4826 27.7396C27.4495 27.6318 27.3334 27.5821 27.2174 27.6153C27.1096 27.6484 27.0433 27.7645 27.0764 27.8722Z" fill="#D16E13"/>
<path d="M28.3696 27.2922C28.4028 27.3999 28.5271 27.458 28.6348 27.4165C28.7509 27.3834 28.8089 27.2673 28.7757 27.1596C28.7426 27.0518 28.6265 26.9938 28.5105 27.0352C28.3945 27.0684 28.3364 27.1844 28.3696 27.2922Z" fill="#D16E13"/>
<path d="M29.6626 27.6737C29.6957 27.7815 29.8118 27.8395 29.9278 27.798C30.0355 27.7649 30.1019 27.6488 30.0687 27.5411C30.0356 27.4333 29.9112 27.3753 29.8035 27.4167C29.6874 27.4499 29.6294 27.5659 29.6626 27.6737Z" fill="#D16E13"/>
<path d="M31.0053 27.6152C31.0385 27.723 31.1546 27.781 31.2706 27.7395C31.3783 27.7064 31.4446 27.5903 31.4115 27.4826C31.3783 27.3748 31.2623 27.3168 31.1462 27.3583C31.0302 27.3914 30.9722 27.5075 31.0053 27.6152Z" fill="#D16E13"/>
<path d="M32.4309 27.8146C32.4641 27.9223 32.5884 27.9804 32.6962 27.9389C32.8039 27.9058 32.8702 27.7897 32.8371 27.682C32.8039 27.5742 32.6796 27.5162 32.5718 27.5576C32.4641 27.5908 32.3978 27.7068 32.4309 27.8146Z" fill="#D16E13"/>
<path d="M33.6414 27.582C33.6745 27.6898 33.7989 27.7478 33.9066 27.7063C34.0227 27.6732 34.0807 27.5571 34.0475 27.4494C34.0144 27.3416 33.8984 27.2836 33.7823 27.3251C33.6746 27.3582 33.6082 27.4743 33.6414 27.582Z" fill="#D16E13"/>
<path d="M35.1665 27.251C35.1996 27.3587 35.3157 27.4167 35.4317 27.3753C35.5395 27.3421 35.6058 27.2261 35.5726 27.1183C35.5395 27.0106 35.4234 26.9526 35.3074 26.994C35.1914 27.0272 35.1333 27.1432 35.1665 27.251Z" fill="#D16E13"/>
<path d="M29.6128 32.3482C29.6459 32.456 29.7619 32.5057 29.878 32.4725C29.994 32.4394 30.0521 32.3233 30.0189 32.2156C29.9858 32.1078 29.8614 32.0498 29.7537 32.0913C29.6376 32.1244 29.5796 32.2405 29.6128 32.3482Z" fill="#D16E13"/>
<path d="M30.2593 33.1192C30.2924 33.227 30.4167 33.285 30.5245 33.2436C30.6322 33.2104 30.6986 33.0943 30.6654 32.9866C30.6322 32.8788 30.5079 32.8208 30.4001 32.8623C30.2841 32.8954 30.2261 33.0115 30.2593 33.1192Z" fill="#D16E13"/>
<path d="M33.3261 31.8923C33.3593 32 33.4836 32.058 33.5914 32.0166C33.7074 31.9834 33.7654 31.8674 33.7323 31.7597C33.6991 31.6519 33.5831 31.5939 33.4671 31.6353C33.351 31.6685 33.293 31.7845 33.3261 31.8923Z" fill="#D16E13"/>
<path d="M34.9427 28.7179C34.9758 28.8256 35.0919 28.8836 35.2079 28.8422C35.324 28.809 35.382 28.693 35.3488 28.5852C35.3156 28.4775 35.1913 28.4195 35.0836 28.4609C34.9758 28.4941 34.9095 28.6101 34.9427 28.7179Z" fill="#D16E13"/>
<path d="M34.9012 26.1237C34.9343 26.2314 35.0504 26.2895 35.1664 26.248C35.2824 26.2149 35.3405 26.0988 35.3073 25.9911C35.2742 25.8833 35.1498 25.8253 35.0421 25.8667C34.9343 25.8999 34.868 26.0159 34.9012 26.1237Z" fill="#D16E13"/>
<path d="M36.053 28.3031C36.0862 28.4109 36.2105 28.4689 36.3183 28.4275C36.426 28.3943 36.4923 28.2783 36.4592 28.1705C36.426 28.0628 36.3017 28.0047 36.1939 28.0462C36.0862 28.0793 36.0199 28.1954 36.053 28.3031Z" fill="#D16E13"/>
<path d="M33.5918 28.5025C33.6249 28.6103 33.741 28.6683 33.857 28.6269C33.9731 28.5937 34.0311 28.4777 33.9979 28.3699C33.9648 28.2622 33.8404 28.2041 33.7327 28.2456C33.6166 28.2787 33.5586 28.3948 33.5918 28.5025Z" fill="#D16E13"/>
<path d="M32.8955 29.7873C32.9286 29.895 33.053 29.953 33.1607 29.9116C33.2685 29.8784 33.3348 29.7624 33.3016 29.6546C33.2685 29.5469 33.1441 29.4889 33.0364 29.5303C32.9203 29.5635 32.8623 29.6795 32.8955 29.7873Z" fill="#D16E13"/>
<path d="M31.5195 28.7012C31.5527 28.809 31.677 28.867 31.7848 28.8256C31.9008 28.7924 31.9588 28.6764 31.9256 28.5686C31.8925 28.4609 31.7682 28.4028 31.6604 28.4443C31.5444 28.4774 31.4864 28.5935 31.5195 28.7012Z" fill="#D16E13"/>
<path d="M30.9389 30.0113C30.9721 30.119 31.0964 30.1771 31.2042 30.1356C31.3202 30.1025 31.3783 29.9864 31.3451 29.8786C31.312 29.7709 31.1959 29.7129 31.0799 29.7543C30.9638 29.7875 30.9058 29.9035 30.9389 30.0113Z" fill="#D16E13"/>
<path d="M29.853 28.8095C29.8862 28.9173 30.0022 28.9753 30.1182 28.9339C30.226 28.9007 30.2923 28.7847 30.2592 28.6769C30.226 28.5692 30.11 28.5112 29.9939 28.5526C29.8779 28.5857 29.8198 28.7018 29.853 28.8095Z" fill="#D16E13"/>
<path d="M28.3696 29.4636C28.4028 29.5714 28.5271 29.6294 28.6348 29.588C28.7509 29.5548 28.8089 29.4388 28.7757 29.331C28.7426 29.2233 28.6183 29.1652 28.5105 29.2067C28.3945 29.2398 28.3364 29.3559 28.3696 29.4636Z" fill="#D16E13"/>
<path d="M28.1626 28.345C28.1957 28.4527 28.32 28.5107 28.4278 28.4693C28.5355 28.4361 28.6019 28.3201 28.5687 28.2124C28.5356 28.1046 28.4195 28.0466 28.3035 28.088C28.1874 28.1212 28.1294 28.2372 28.1626 28.345Z" fill="#D16E13"/>
<path d="M26.264 28.7929C26.2971 28.9007 26.4214 28.9587 26.5292 28.9173C26.637 28.8759 26.7032 28.7681 26.6701 28.6603C26.6369 28.5526 26.5209 28.4945 26.4048 28.536C26.2971 28.5691 26.2308 28.6852 26.264 28.7929Z" fill="#D16E13"/>
<path d="M31.0053 31.4283C31.0385 31.5361 31.1546 31.5941 31.2706 31.5526C31.3866 31.5195 31.4446 31.4034 31.4115 31.2957C31.3783 31.1879 31.2623 31.1299 31.1462 31.1714C31.0302 31.2045 30.9722 31.3206 31.0053 31.4283Z" fill="#D16E13"/>
<path d="M34.6858 30.3091C34.719 30.4168 34.835 30.4748 34.951 30.4334C35.0671 30.4002 35.1251 30.2842 35.092 30.1764C35.0588 30.0687 34.9345 30.0107 34.8267 30.0521C34.719 30.0853 34.6527 30.2013 34.6858 30.3091Z" fill="#D16E13"/>
<path d="M34.2383 31.5692C34.2714 31.677 34.3875 31.735 34.5035 31.6935C34.6195 31.6604 34.6776 31.5443 34.6444 31.4366C34.6112 31.3288 34.4952 31.2708 34.3792 31.3123C34.2631 31.3454 34.2051 31.4615 34.2383 31.5692Z" fill="#D16E13"/>
<path d="M33.6414 32.9118C33.6745 33.0196 33.7989 33.0776 33.9066 33.0362C34.0144 32.9947 34.0807 32.887 34.0475 32.7792C34.0144 32.6715 33.8901 32.6134 33.7823 32.6549C33.6746 32.688 33.6082 32.8041 33.6414 32.9118Z" fill="#D16E13"/>
<path d="M35.4233 29.7294C35.4565 29.8372 35.5808 29.8952 35.6886 29.8538C35.7963 29.8206 35.8626 29.7046 35.8295 29.5968C35.7963 29.4891 35.672 29.431 35.5642 29.4725C35.4482 29.5056 35.3902 29.6217 35.4233 29.7294Z" fill="#D16E13"/>
<path d="M34.6858 32.5556C34.719 32.6633 34.835 32.7213 34.951 32.6799C35.0671 32.6467 35.1251 32.5307 35.092 32.423C35.0588 32.3152 34.9345 32.2572 34.8267 32.2986C34.719 32.3318 34.6527 32.4478 34.6858 32.5556Z" fill="#D16E13"/>
<path d="M35.6801 31.6277C35.7133 31.7354 35.8294 31.7935 35.9454 31.752C36.0614 31.7189 36.1195 31.6028 36.0863 31.4951C36.0532 31.3873 35.9288 31.3293 35.8211 31.3707C35.705 31.4039 35.647 31.5199 35.6801 31.6277Z" fill="#D16E13"/>
<path d="M31.3535 32.6885C31.3866 32.7962 31.5027 32.8543 31.6187 32.8128C31.7348 32.7797 31.7928 32.6636 31.7597 32.5559C31.7265 32.4481 31.6022 32.3901 31.4944 32.4315C31.3784 32.4647 31.3203 32.5807 31.3535 32.6885Z" fill="#D16E13"/>
<path d="M31.9917 31.8344C32.0248 31.9422 32.1409 32.0002 32.2569 31.9587C32.3729 31.9256 32.431 31.8095 32.3978 31.7018C32.3647 31.594 32.2486 31.536 32.1326 31.5775C32.0165 31.6189 31.9585 31.7267 31.9917 31.8344Z" fill="#D16E13"/>
<path d="M28.5849 30.6992C28.6181 30.8069 28.7424 30.8649 28.8502 30.8235C28.9662 30.7903 29.0243 30.6743 28.9911 30.5665C28.9579 30.4588 28.8336 30.4008 28.7259 30.4422C28.6098 30.4754 28.5518 30.5914 28.5849 30.6992Z" fill="#D16E13"/>
<path d="M28.5849 31.752C28.6181 31.8597 28.7424 31.9178 28.8502 31.8763C28.9662 31.8432 29.0243 31.7271 28.9911 31.6194C28.9579 31.5116 28.8336 31.4536 28.7259 31.495C28.6098 31.5282 28.5518 31.6442 28.5849 31.752Z" fill="#D16E13"/>
<path d="M27.5239 31.2794C27.5571 31.3872 27.6731 31.4452 27.7891 31.4038C27.9052 31.3706 27.9632 31.2546 27.93 31.1468C27.8969 31.039 27.7726 30.981 27.6648 31.0225C27.5488 31.0556 27.4907 31.1717 27.5239 31.2794Z" fill="#D16E13"/>
<path d="M26.264 31.0967C26.2971 31.2044 26.4132 31.2624 26.5292 31.221C26.637 31.1878 26.7032 31.0718 26.6701 30.9641C26.6369 30.8563 26.5126 30.7983 26.4048 30.8397C26.2971 30.8729 26.2308 30.9889 26.264 31.0967Z" fill="#D16E13"/>
<path d="M23.5535 29.0083C23.5867 29.1161 23.7027 29.1741 23.8187 29.1326C23.9348 29.0995 23.9928 28.9834 23.9597 28.8757C23.9265 28.7679 23.8105 28.7099 23.6944 28.7514C23.5867 28.7845 23.5203 28.9006 23.5535 29.0083Z" fill="#D16E13"/>
<path d="M26.2312 32.2239C26.2644 32.3317 26.3804 32.3897 26.4965 32.3482C26.6125 32.3151 26.6705 32.199 26.6374 32.0913C26.6042 31.9835 26.4799 31.9255 26.3722 31.967C26.2644 32.0001 26.1981 32.1162 26.2312 32.2239Z" fill="#D16E13"/>
<path d="M25.0044 29.9282C25.0375 30.036 25.1536 30.094 25.2696 30.0525C25.3857 30.0111 25.4437 29.9033 25.4105 29.7956C25.3774 29.6878 25.253 29.6298 25.1453 29.6712C25.0292 29.7044 24.9712 29.8205 25.0044 29.9282Z" fill="#D16E13"/>
<path d="M26.6204 29.9036C26.6535 30.0113 26.7779 30.0694 26.8856 30.0279C26.9934 29.9948 27.0597 29.8787 27.0265 29.771C26.9934 29.6632 26.8691 29.6052 26.7613 29.6466C26.6536 29.6798 26.5872 29.7958 26.6204 29.9036Z" fill="#D16E13"/>
<path d="M27.5242 30.1103C27.5574 30.2181 27.6734 30.2761 27.7894 30.2347C27.9055 30.2015 27.9635 30.0855 27.9303 29.9777C27.8972 29.87 27.7729 29.8119 27.6651 29.8534C27.5574 29.8865 27.491 30.0026 27.5242 30.1103Z" fill="#D16E13"/>
<path d="M29.6131 30.3091C29.6462 30.4168 29.7705 30.4748 29.8783 30.4334C29.9943 30.4002 30.0524 30.2842 30.0192 30.1764C29.9861 30.0687 29.87 30.0107 29.754 30.0521C29.6462 30.0853 29.5799 30.2013 29.6131 30.3091Z" fill="#D16E13"/>
<path d="M29.8284 31.3539C29.8616 31.4616 29.9776 31.5196 30.0936 31.4782C30.2097 31.445 30.2677 31.329 30.2346 31.2213C30.2014 31.1135 30.0854 31.0555 29.9693 31.0969C29.8616 31.1301 29.7952 31.2461 29.8284 31.3539Z" fill="#D16E13"/>
<path d="M31.7763 30.5663C31.8095 30.674 31.9255 30.732 32.0416 30.6906C32.1576 30.6574 32.2156 30.5414 32.1825 30.4336C32.1493 30.3259 32.0333 30.2679 31.9173 30.3093C31.8012 30.3425 31.7432 30.4585 31.7763 30.5663Z" fill="#D16E13"/>
<path d="M38.6228 31.5446C38.656 31.6524 38.7803 31.7104 38.8881 31.6689C38.9958 31.6358 39.0621 31.5198 39.029 31.412C38.9958 31.3042 38.8715 31.2462 38.7637 31.2877C38.656 31.3208 38.5897 31.4369 38.6228 31.5446Z" fill="#D16E13"/>
<path d="M25.6841 28.105C25.7172 28.2128 25.8333 28.2708 25.9493 28.2293C26.0653 28.1879 26.1234 28.0801 26.0902 27.9724C26.0571 27.8646 25.9327 27.8066 25.825 27.8481C25.7089 27.8812 25.6509 27.9973 25.6841 28.105Z" fill="#D16E13"/>
<path d="M25.22 29.0083C25.2532 29.1161 25.3692 29.1741 25.4853 29.1326C25.6013 29.0995 25.6593 28.9834 25.6261 28.8757C25.593 28.7679 25.4687 28.7099 25.3609 28.7514C25.2532 28.7845 25.1868 28.9006 25.22 29.0083Z" fill="#D16E13"/>
<path d="M27.2176 31.8677C27.2507 31.9754 27.3668 32.0334 27.4828 31.992C27.5906 31.9588 27.6569 31.8428 27.6237 31.735C27.5905 31.6273 27.4662 31.5693 27.3585 31.6107C27.2507 31.6439 27.1844 31.7599 27.2176 31.8677Z" fill="#D16E13"/>
<path d="M36.5176 25.9163C36.5507 26.0241 36.6668 26.0821 36.7828 26.0407C36.8988 26.0075 36.9568 25.8915 36.9237 25.7837C36.8905 25.676 36.7745 25.6179 36.6585 25.6594C36.5424 25.6925 36.4844 25.8086 36.5176 25.9163Z" fill="#D16E13"/>
<path d="M29.5218 35.0839C29.5549 35.1916 29.6793 35.2414 29.787 35.2082C29.8948 35.1751 29.9611 35.0591 29.9279 34.9513C29.8947 34.8435 29.7704 34.7855 29.6627 34.8269C29.5549 34.8601 29.4886 34.9761 29.5218 35.0839Z" fill="#D16E13"/>
<path d="M28.3945 36.3188C28.4277 36.4266 28.5437 36.4846 28.6597 36.4431C28.7758 36.41 28.8338 36.294 28.8006 36.1862C28.7675 36.0784 28.6514 36.0204 28.5354 36.0619C28.4194 36.095 28.3614 36.2111 28.3945 36.3188Z" fill="#D16E13"/>
<path d="M37.3296 26.5046C37.3627 26.6123 37.4787 26.6704 37.5948 26.6289C37.7025 26.5958 37.7689 26.4797 37.7357 26.372C37.7026 26.2642 37.5865 26.2062 37.4705 26.2476C37.3544 26.2808 37.2964 26.3968 37.3296 26.5046Z" fill="#D16E13"/>
<path d="M38.6225 25.9163C38.6557 26.0241 38.7717 26.0821 38.8878 26.0407C39.0038 26.0075 39.0618 25.8915 39.0287 25.7837C38.9955 25.676 38.8712 25.6179 38.7634 25.6594C38.6474 25.6925 38.5894 25.8086 38.6225 25.9163Z" fill="#D16E13"/>
<path d="M39.916 26.3058C39.9491 26.4136 40.0735 26.4716 40.1812 26.4302C40.289 26.397 40.3553 26.281 40.3221 26.1732C40.289 26.0654 40.1646 26.0074 40.0569 26.0489C39.9408 26.082 39.8828 26.1981 39.916 26.3058Z" fill="#D16E13"/>
<path d="M26.513 33.0362C26.5461 33.1439 26.6705 33.2019 26.7782 33.1605C26.886 33.1273 26.9523 33.0113 26.9191 32.9035C26.886 32.7958 26.7699 32.7377 26.6539 32.7792C26.5461 32.8123 26.4798 32.9284 26.513 33.0362Z" fill="#D16E13"/>
<path d="M27.9301 33.2269C27.9633 33.3346 28.0876 33.3926 28.1954 33.3512C28.3114 33.318 28.3695 33.202 28.3363 33.0942C28.3032 32.9865 28.1871 32.9285 28.0711 32.9699C27.955 33.0031 27.897 33.1191 27.9301 33.2269Z" fill="#D16E13"/>
<path d="M29.1406 33.0029C29.1738 33.1107 29.2981 33.1687 29.4058 33.1272C29.5219 33.0941 29.5799 32.978 29.5467 32.8703C29.5136 32.7625 29.3975 32.7045 29.2815 32.746C29.1655 32.7791 29.1074 32.8952 29.1406 33.0029Z" fill="#D16E13"/>
<path d="M31.7348 33.8982C31.768 34.006 31.884 34.064 32.0001 34.0225C32.1078 33.9894 32.1741 33.8733 32.141 33.7656C32.1078 33.6578 31.9835 33.5998 31.8757 33.6412C31.7597 33.6744 31.7017 33.7904 31.7348 33.8982Z" fill="#D16E13"/>
<path d="M39.8662 30.9724C39.8993 31.0801 40.0154 31.1382 40.1314 31.0967C40.2475 31.0636 40.3055 30.9475 40.2723 30.8398C40.2392 30.732 40.1148 30.674 40.0071 30.7154C39.891 30.7486 39.833 30.8646 39.8662 30.9724Z" fill="#D16E13"/>
<path d="M25.7671 38.5401C25.8002 38.6479 25.9246 38.7059 26.0323 38.6644C26.1484 38.6313 26.2064 38.5152 26.1732 38.4075C26.1401 38.2997 26.024 38.2417 25.908 38.2832C25.7919 38.3163 25.7339 38.4324 25.7671 38.5401Z" fill="#D16E13"/>
<path d="M28.834 37.3052C28.8671 37.4129 28.9914 37.471 29.0992 37.4295C29.2152 37.3964 29.2733 37.2803 29.2401 37.1726C29.2069 37.0648 29.0909 37.0068 28.9749 37.0482C28.8588 37.0814 28.8008 37.1974 28.834 37.3052Z" fill="#D16E13"/>
<path d="M30.45 34.1388C30.4831 34.2465 30.5992 34.2962 30.7152 34.2631C30.823 34.2299 30.8893 34.1139 30.8562 34.0061C30.823 33.8984 30.7069 33.8404 30.5909 33.8818C30.4832 33.915 30.4168 34.031 30.45 34.1388Z" fill="#D16E13"/>
<path d="M29.0908 33.9234C29.124 34.0312 29.2483 34.0892 29.356 34.0477C29.4721 34.0146 29.5301 33.8985 29.4969 33.7908C29.4638 33.683 29.3394 33.625 29.2317 33.6665C29.1156 33.6996 29.0576 33.8157 29.0908 33.9234Z" fill="#D16E13"/>
<path d="M28.3945 35.2082C28.4277 35.3159 28.552 35.374 28.6597 35.3325C28.7758 35.2994 28.8338 35.1833 28.8006 35.0756C28.7675 34.9678 28.6432 34.9098 28.5354 34.9512C28.4194 34.9844 28.3614 35.1004 28.3945 35.2082Z" fill="#D16E13"/>
<path d="M27.0268 34.1222C27.06 34.2299 27.1843 34.2879 27.2921 34.2465C27.4081 34.2133 27.4662 34.0973 27.433 33.9895C27.3998 33.8818 27.2755 33.8238 27.1677 33.8652C27.0517 33.9067 26.9937 34.0144 27.0268 34.1222Z" fill="#D16E13"/>
<path d="M26.4466 35.4316C26.4797 35.5393 26.6041 35.5973 26.7118 35.5559C26.8196 35.5227 26.8859 35.4067 26.8527 35.2989C26.8196 35.1912 26.6952 35.1332 26.5875 35.1746C26.4797 35.2078 26.4134 35.3238 26.4466 35.4316Z" fill="#D16E13"/>
<path d="M40.1064 27.4331C40.1396 27.5408 40.2556 27.5989 40.3717 27.5574C40.4794 27.5243 40.5457 27.4082 40.5126 27.3005C40.4794 27.1927 40.3634 27.1347 40.2473 27.1761C40.1313 27.2093 40.0733 27.3253 40.1064 27.4331Z" fill="#D16E13"/>
<path d="M38.6225 28.0964C38.6557 28.2042 38.7717 28.2622 38.8878 28.2207C38.9955 28.1876 39.0618 28.0715 39.0287 27.9638C38.9955 27.856 38.8712 27.798 38.7634 27.8395C38.6474 27.8726 38.5894 27.9887 38.6225 28.0964Z" fill="#D16E13"/>
<path d="M38.4072 26.9692C38.4404 27.0769 38.5564 27.1349 38.6724 27.0935C38.7885 27.0603 38.8465 26.9443 38.8133 26.8365C38.7802 26.7288 38.6559 26.6708 38.5481 26.7122C38.4321 26.7454 38.374 26.8614 38.4072 26.9692Z" fill="#D16E13"/>
<path d="M36.5176 27.4165C36.5507 27.5242 36.675 27.5823 36.7828 27.5408C36.8906 27.5077 36.9568 27.3916 36.9237 27.2839C36.8905 27.1761 36.7745 27.1181 36.6585 27.1595C36.5424 27.1927 36.4844 27.3087 36.5176 27.4165Z" fill="#D16E13"/>
<path d="M26.513 36.8413C26.5461 36.949 26.6622 37.007 26.7782 36.9656C26.886 36.9324 26.9523 36.8164 26.9191 36.7086C26.886 36.6009 26.7616 36.5429 26.6539 36.5843C26.5461 36.6257 26.4798 36.7335 26.513 36.8413Z" fill="#D16E13"/>
<path d="M30.1933 35.73C30.2265 35.8378 30.3425 35.8958 30.4586 35.8543C30.5746 35.8212 30.6326 35.7051 30.5995 35.5974C30.5663 35.4896 30.442 35.4316 30.3343 35.473C30.2182 35.5062 30.1602 35.6223 30.1933 35.73Z" fill="#D16E13"/>
<path d="M29.7371 36.9822C29.7703 37.0899 29.8946 37.1479 30.0023 37.1065C30.1101 37.0733 30.1764 36.9573 30.1432 36.8495C30.1101 36.7418 29.9857 36.6838 29.878 36.7252C29.7702 36.7584 29.7039 36.8744 29.7371 36.9822Z" fill="#D16E13"/>
<path d="M29.1406 38.3328C29.1738 38.4405 29.2898 38.4985 29.4058 38.4571C29.5219 38.4239 29.5799 38.3079 29.5467 38.2001C29.5136 38.0924 29.3975 38.0344 29.2815 38.0758C29.1655 38.109 29.1074 38.225 29.1406 38.3328Z" fill="#D16E13"/>
<path d="M31.4033 35.7798C31.4364 35.8876 31.5525 35.9456 31.6685 35.9041C31.7846 35.871 31.8426 35.755 31.8095 35.6472C31.7763 35.5394 31.6603 35.4814 31.5442 35.5229C31.4282 35.556 31.3701 35.6721 31.4033 35.7798Z" fill="#D16E13"/>
<path d="M30.1933 37.9685C30.2265 38.0762 30.3425 38.1343 30.4586 38.0928C30.5746 38.0597 30.6326 37.9436 30.5995 37.8359C30.5663 37.7281 30.442 37.6701 30.3343 37.7115C30.2182 37.7447 30.1602 37.8607 30.1933 37.9685Z" fill="#D16E13"/>
<path d="M31.1878 37.0486C31.2209 37.1563 31.337 37.2144 31.453 37.1729C31.569 37.1398 31.6271 37.0237 31.5939 36.916C31.5608 36.8082 31.4364 36.7502 31.3287 36.7916C31.2209 36.8248 31.1546 36.9408 31.1878 37.0486Z" fill="#D16E13"/>
<path d="M26.853 38.1008C26.8862 38.2085 27.0022 38.2665 27.1182 38.2251C27.2343 38.1919 27.2923 38.0759 27.2591 37.9682C27.226 37.8604 27.1017 37.8024 26.9939 37.8438C26.8779 37.877 26.8198 37.993 26.853 38.1008Z" fill="#D16E13"/>
<path d="M28.0711 37.8608C28.1042 37.9686 28.2203 38.0266 28.3363 37.9851C28.4441 37.952 28.5104 37.8359 28.4772 37.7282C28.4441 37.6204 28.3198 37.5624 28.212 37.6039C28.1042 37.637 28.0379 37.7531 28.0711 37.8608Z" fill="#D16E13"/>
<path d="M38.8382 29.3227C38.8713 29.4305 38.9957 29.4885 39.1034 29.4471C39.2195 29.4139 39.2775 29.2979 39.2443 29.1901C39.2112 29.0824 39.0868 29.0243 38.9791 29.0658C38.8713 29.0989 38.805 29.215 38.8382 29.3227Z" fill="#D16E13"/>
<path d="M38.8382 30.3841C38.8713 30.4919 38.9957 30.5499 39.1034 30.5085C39.2195 30.4753 39.2775 30.3593 39.2443 30.2515C39.2112 30.1438 39.0868 30.0857 38.9791 30.1272C38.8713 30.1603 38.805 30.2764 38.8382 30.3841Z" fill="#D16E13"/>
<path d="M37.7771 29.9036C37.8103 30.0113 37.9263 30.0694 38.0424 30.0279C38.1584 29.9948 38.2165 29.8787 38.1833 29.771C38.1501 29.6632 38.0341 29.6052 37.9181 29.6466C37.8103 29.6798 37.744 29.7958 37.7771 29.9036Z" fill="#D16E13"/>
<path d="M36.5174 29.7294C36.5505 29.8372 36.6749 29.8952 36.7826 29.8538C36.8987 29.8206 36.9567 29.7046 36.9235 29.5968C36.8904 29.4891 36.7743 29.431 36.6583 29.4725C36.5505 29.5056 36.4842 29.6217 36.5174 29.7294Z" fill="#D16E13"/>
<path d="M37.0561 30.7238C37.0893 30.8315 37.2136 30.8896 37.3214 30.8481C37.4291 30.815 37.4954 30.6989 37.4623 30.5912C37.4291 30.4834 37.3131 30.4254 37.197 30.4668C37.081 30.5 37.023 30.616 37.0561 30.7238Z" fill="#D16E13"/>
<path d="M37.9677 31.312C38.0009 31.4198 38.1252 31.4778 38.233 31.4363C38.349 31.4032 38.407 31.2871 38.3739 31.1794C38.3407 31.0716 38.2164 31.0136 38.1087 31.0551C37.9926 31.0882 37.9346 31.2043 37.9677 31.312Z" fill="#D16E13"/>
<path d="M37.0561 31.752C37.0893 31.8597 37.2136 31.9178 37.3214 31.8763C37.4291 31.8432 37.4954 31.7271 37.4623 31.6194C37.4291 31.5116 37.3048 31.4536 37.197 31.495C37.081 31.5282 37.023 31.6442 37.0561 31.752Z" fill="#D16E13"/>
<path d="M36.8738 28.5271C36.907 28.6349 37.0313 28.6929 37.1391 28.6514C37.2551 28.6183 37.3131 28.5022 37.28 28.3945C37.2468 28.2867 37.1308 28.2287 37.0147 28.2702C36.907 28.3033 36.8407 28.4194 36.8738 28.5271Z" fill="#D16E13"/>
<path d="M37.7771 28.7345C37.8103 28.8422 37.9263 28.9002 38.0424 28.8588C38.1584 28.8256 38.2165 28.7096 38.1833 28.6018C38.1501 28.4941 38.0258 28.4361 37.9181 28.4775C37.8103 28.519 37.744 28.6267 37.7771 28.7345Z" fill="#D16E13"/>
<path d="M39.8662 28.9338C39.8993 29.0416 40.0154 29.0996 40.1314 29.0582C40.2475 29.025 40.3055 28.909 40.2723 28.8012C40.2392 28.6935 40.1148 28.6354 40.0071 28.6769C39.891 28.7183 39.833 28.8261 39.8662 28.9338Z" fill="#D16E13"/>
<path d="M40.0735 29.986C40.1067 30.0938 40.231 30.1518 40.3387 30.1104C40.4548 30.0772 40.5128 29.9612 40.4797 29.8534C40.4465 29.7457 40.3305 29.6876 40.2144 29.7291C40.1067 29.7622 40.0404 29.8783 40.0735 29.986Z" fill="#D16E13"/>
<path d="M27.2837 35.9792C27.3168 36.0869 27.4329 36.145 27.5489 36.1035C27.6567 36.0704 27.723 35.9543 27.6898 35.8466C27.6567 35.7388 27.5406 35.6808 27.4246 35.7222C27.3085 35.7554 27.2505 35.8714 27.2837 35.9792Z" fill="#D16E13"/>
<path d="M40.0984 26.8939C40.0984 26.8939 37.3466 27.9051 34.8599 28.5019C29.2816 29.853 28.8008 31.8423 28.7677 35.3981C28.7428 38.954 32.854 40.6035 36.9984 39.8907C41.7479 38.1583 43.1156 32.4639 42.1955 30.9637C41.2755 29.4634 41.9054 26.8856 40.0902 26.8856L40.0984 26.8939Z" fill="#C96508"/>
<path d="M40.2306 28.2619C40.2306 28.2619 45.0049 25.2199 46.0161 23.9848C47.0274 22.7498 47.3341 21.4899 48.2127 22.211C49.257 23.0565 48.9918 24.1921 48.9918 24.1921C48.9918 24.1921 50.4921 25.0624 50.3097 25.8747C50.1439 26.5792 49.2488 26.6455 47.649 26.9688C46.0493 27.2921 41.8303 30.4915 41.2833 30.7899C40.7362 31.0883 39.4349 28.7758 40.2306 28.2619Z" fill="#D7D9DB"/>
<path d="M41.8472 27.201C42.1041 27.0269 42.3776 26.8363 42.6595 26.6456C43.0159 26.9357 43.5795 27.4165 43.7702 27.7315C44.0603 28.2122 44.4001 27.6486 45.0881 27.201C45.8175 26.7202 46.6795 26.2312 47.3426 25.9577C47.7405 25.7919 48.0223 25.4769 48.1301 24.8967C48.1881 24.5569 48.5279 24.3662 48.5859 23.7529C48.6274 23.3053 48.3455 22.609 48.2709 22.2609C49.2407 23.0981 48.9921 24.1922 48.9921 24.1922C48.9921 24.1922 49.0004 24.1922 49.0169 24.2087C48.9921 24.2502 48.9672 24.2916 48.9341 24.3331C48.6854 24.6895 49.4645 25.4189 49.6137 25.2863C49.6635 25.2366 49.8292 25.1122 50.0116 25.0293C50.2271 25.2863 50.3763 25.5847 50.31 25.8748C50.1442 26.5793 49.249 26.6456 47.6493 26.9689C46.4723 27.201 43.8862 28.9914 42.3776 30.044C41.9632 29.3312 41.5819 28.121 41.8472 27.1927V27.201Z" fill="#B4B6B8"/>
<path d="M30.0024 32.398C29.6294 33.2103 29.099 34.4287 29.4056 36.2025C29.7786 38.3742 31.1131 39.6838 32.7211 39.6341C34.1551 39.5844 37.0064 39.4269 39.2112 35.8129C41.2586 32.4477 42.0792 30.9889 42.8169 30.1683C43.5546 29.3477 43.3888 28.1459 42.9826 27.4413C42.7588 27.0517 42.4604 26.4135 42.0211 26.6622C41.5818 26.9108 38.6973 28.0298 36.9899 28.6266C35.6139 29.1073 34.5695 29.1322 32.9284 29.8368C31.2872 30.5413 30.6324 31.022 29.9941 32.398H30.0024Z" fill="#E77A15"/>
<path d="M30.1434 36.5506C32.2819 38.1337 35.9869 38.457 38.1918 34.8431C40.2474 31.4778 41.0597 30.4583 41.7974 29.6377C42.477 28.8835 42.7506 28.3779 42.9993 27.4412C43.4137 28.1458 43.5795 29.3476 42.8335 30.1682C42.0958 30.9888 41.2752 32.4476 39.2278 35.8129C37.023 39.4268 34.1717 39.5843 32.7378 39.634C31.7431 39.6671 30.8562 39.1781 30.2346 38.2912C29.3311 36.6252 29.7206 36.2356 30.1434 36.5506Z" fill="#D16E13"/>
<path d="M40.6782 28.0216C40.7694 28.1044 40.9186 28.0962 41.0098 27.9967C41.101 27.8972 41.101 27.748 41.0098 27.6651C40.9186 27.5823 40.7694 27.5905 40.6782 27.6817C40.5871 27.7812 40.5871 27.9304 40.6782 28.0133V28.0216Z" fill="#D16E13"/>
<path d="M38.5977 28.6427C38.6889 28.7256 38.838 28.7173 38.9292 28.6261C39.0204 28.5267 39.0204 28.3775 38.9292 28.2946C38.838 28.2117 38.6889 28.22 38.5977 28.3112C38.5065 28.4106 38.5065 28.5598 38.5977 28.6427Z" fill="#D16E13"/>
<path d="M36.7329 29.5715C36.8241 29.6544 36.9733 29.6461 37.0645 29.5467C37.1557 29.4472 37.1557 29.298 37.0645 29.2151C36.9733 29.1322 36.8241 29.1405 36.7329 29.2317C36.6418 29.3312 36.6418 29.4804 36.7329 29.5633V29.5715Z" fill="#D16E13"/>
<path d="M34.1548 29.7787C34.246 29.8616 34.3952 29.8533 34.4864 29.7538C34.5775 29.6544 34.5775 29.5052 34.4864 29.4223C34.3952 29.3394 34.246 29.3477 34.1548 29.4472C34.0636 29.5466 34.0636 29.6958 34.1548 29.7787Z" fill="#D16E13"/>
<path d="M33.0196 31.2455C33.1107 31.3367 33.2599 31.3201 33.3511 31.2289C33.4423 31.1295 33.4423 30.9803 33.3511 30.8974C33.2599 30.8145 33.1107 30.8228 33.0196 30.9139C32.9284 31.0134 32.9284 31.1626 33.0196 31.2455Z" fill="#D16E13"/>
<path d="M31.3784 32C31.4696 32.0829 31.6188 32.0746 31.71 31.9751C31.8012 31.8757 31.8012 31.7265 31.71 31.6436C31.6188 31.5607 31.4696 31.569 31.3784 31.6684C31.2873 31.7679 31.2873 31.9171 31.3784 32Z" fill="#D16E13"/>
<path d="M30.1016 33.6164C30.1928 33.6993 30.342 33.691 30.4331 33.5916C30.5243 33.4921 30.5243 33.3429 30.4331 33.26C30.342 33.1771 30.1928 33.1854 30.1016 33.2849C30.0104 33.3843 30.0104 33.5335 30.1016 33.6164Z" fill="#D16E13"/>
<path d="M31.3784 33.9976C31.4696 34.0888 31.6188 34.0722 31.71 33.981C31.8012 33.8816 31.8012 33.7324 31.71 33.6495C31.6188 33.5666 31.4696 33.5749 31.3784 33.6744C31.2873 33.7738 31.2873 33.923 31.3784 34.0059V33.9976Z" fill="#D16E13"/>
<path d="M32.5635 32.995C32.6547 33.0778 32.8039 33.0696 32.895 32.9701C32.9862 32.8706 32.9862 32.7214 32.895 32.6385C32.8039 32.5557 32.6547 32.5639 32.5635 32.6634C32.4723 32.7629 32.4723 32.9121 32.5635 32.995Z" fill="#D16E13"/>
<path d="M34.2876 32.6966C34.3788 32.7794 34.528 32.7712 34.6192 32.6717C34.7103 32.5722 34.7103 32.423 34.6192 32.3401C34.528 32.2572 34.3788 32.2655 34.2876 32.365C34.1964 32.4644 34.1964 32.6137 34.2876 32.6966Z" fill="#D16E13"/>
<path d="M35.0337 31.3865C35.1249 31.4694 35.2741 31.4611 35.3653 31.3616C35.4564 31.2622 35.4564 31.113 35.3653 31.0301C35.2741 30.9472 35.1249 30.9555 35.0337 31.055C34.9425 31.1544 34.9425 31.3036 35.0337 31.3865Z" fill="#D16E13"/>
<path d="M37.1055 31.3121C37.1967 31.4032 37.3459 31.3867 37.437 31.2872C37.5282 31.1877 37.5282 31.0385 37.437 30.9557C37.3459 30.8728 37.1967 30.8811 37.1055 30.9805C37.0143 31.08 37.0143 31.2292 37.1055 31.3121Z" fill="#D16E13"/>
<path d="M38.1831 30.4254C38.2743 30.5083 38.4235 30.5 38.5147 30.4005C38.6059 30.301 38.6059 30.1519 38.5147 30.069C38.4235 29.9861 38.2743 29.9944 38.1831 30.0938C38.092 30.1933 38.092 30.3425 38.1831 30.4254Z" fill="#D16E13"/>
<path d="M39.5259 29.2566C39.6171 29.3478 39.7663 29.3312 39.8574 29.2401C39.9486 29.1406 39.9486 28.9914 39.8574 28.9085C39.7663 28.8256 39.6171 28.8339 39.5259 28.9334C39.4347 29.0328 39.4347 29.182 39.5259 29.2649V29.2566Z" fill="#D16E13"/>
<path d="M41.1343 29.2237C41.2255 29.3066 41.3747 29.2983 41.4658 29.1988C41.557 29.0994 41.557 28.9502 41.4658 28.8673C41.3747 28.7844 41.2255 28.7927 41.1343 28.8922C41.0431 28.9916 41.0431 29.1408 41.1343 29.2237Z" fill="#D16E13"/>
<path d="M42.2197 27.8057C42.3109 27.8886 42.4601 27.8803 42.5513 27.7891C42.6425 27.6897 42.6425 27.5405 42.5513 27.4576C42.4601 27.3747 42.3109 27.383 42.2197 27.4824C42.1286 27.5819 42.1286 27.7311 42.2197 27.814V27.8057Z" fill="#D16E13"/>
<path d="M40.1065 30.8315C40.1976 30.9144 40.3469 30.9061 40.438 30.8067C40.5292 30.7072 40.5292 30.558 40.438 30.4751C40.3469 30.3922 40.1976 30.4005 40.1065 30.5C40.0153 30.5994 40.0153 30.7486 40.1065 30.8315Z" fill="#D16E13"/>
<path d="M38.6475 31.3616C38.7387 31.4528 38.8879 31.4362 38.979 31.345C39.0702 31.2456 39.0702 31.0964 38.979 31.0135C38.8879 30.9306 38.7387 30.9389 38.6475 31.0384C38.5563 31.1378 38.5563 31.287 38.6475 31.3699V31.3616Z" fill="#D16E13"/>
<path d="M38.6558 33.0196C38.747 33.1024 38.8962 33.0942 38.9874 32.9947C39.0785 32.8952 39.0785 32.746 38.9874 32.6631C38.8962 32.5803 38.747 32.5885 38.6558 32.688C38.5646 32.7875 38.5646 32.9367 38.6558 33.0196Z" fill="#D16E13"/>
<path d="M42.5518 29.5214C42.643 29.6043 42.7922 29.596 42.8833 29.5048C42.9745 29.4054 42.9745 29.2562 42.8833 29.1733C42.7922 29.0904 42.643 29.0987 42.5518 29.1899C42.4606 29.2893 42.4606 29.4385 42.5518 29.5214Z" fill="#AD5B10"/>
<path d="M41.2002 30.566C41.2914 30.6489 41.4406 30.6406 41.5318 30.5495C41.6229 30.45 41.6229 30.3008 41.5318 30.2179C41.4406 30.135 41.2914 30.1433 41.2002 30.2428C41.109 30.3422 41.109 30.4914 41.2002 30.5743V30.566Z" fill="#AD5B10"/>
<path d="M41.2173 31.8759C41.3085 31.9588 41.4577 31.9505 41.5489 31.851C41.64 31.7516 41.64 31.6024 41.5489 31.5195C41.4577 31.4366 41.3085 31.4449 41.2173 31.536C41.1261 31.6355 41.1261 31.7847 41.2173 31.8676V31.8759Z" fill="#AD5B10"/>
<path d="M39.9322 32.5719C40.0233 32.6631 40.1725 32.6465 40.2637 32.5554C40.3549 32.4559 40.3549 32.3067 40.2637 32.2238C40.1725 32.1409 40.0233 32.1492 39.9322 32.2487C39.841 32.3481 39.841 32.4973 39.9322 32.5802V32.5719Z" fill="#AD5B10"/>
<path d="M39.8745 33.7493C39.9657 33.8322 40.1149 33.8239 40.2061 33.7245C40.2973 33.625 40.2973 33.4758 40.2061 33.3929C40.1149 33.31 39.9657 33.3183 39.8745 33.4178C39.7834 33.5172 39.7834 33.6664 39.8745 33.7493Z" fill="#AD5B10"/>
<path d="M38.7886 34.6526C38.8798 34.7355 39.029 34.7272 39.1201 34.636C39.2113 34.5366 39.2113 34.3874 39.1201 34.2962C39.029 34.2133 38.8798 34.2216 38.7886 34.3211C38.6974 34.4205 38.6974 34.5697 38.7886 34.6526Z" fill="#AD5B10"/>
<path d="M38.7139 35.8211C38.8051 35.9122 38.9543 35.8957 39.0454 35.7962C39.1366 35.6967 39.1366 35.5475 39.0454 35.4647C38.9543 35.3818 38.8051 35.3901 38.7139 35.4895C38.6227 35.589 38.6227 35.7382 38.7139 35.8211Z" fill="#AD5B10"/>
<path d="M37.1558 36.9071C37.247 36.99 37.3962 36.9817 37.4874 36.8822C37.5785 36.7828 37.5785 36.6336 37.4874 36.5507C37.3962 36.4678 37.247 36.4761 37.1558 36.5756C37.0646 36.675 37.0646 36.8242 37.1558 36.9071Z" fill="#AD5B10"/>
<path d="M36.8736 37.9185C36.9647 38.0014 37.1139 37.9931 37.2051 37.8937C37.2963 37.7942 37.2963 37.645 37.2051 37.5621C37.1139 37.4709 36.9647 37.4875 36.8736 37.5787C36.7824 37.6782 36.7824 37.8274 36.8736 37.9102V37.9185Z" fill="#AD5B10"/>
<path d="M35.3902 38.0176C35.4813 38.1005 35.6306 38.0922 35.7217 37.9927C35.8129 37.8933 35.8129 37.7441 35.7217 37.6612C35.6306 37.57 35.4813 37.5866 35.3902 37.6778C35.299 37.7772 35.299 37.9264 35.3902 38.0093V38.0176Z" fill="#AD5B10"/>
<path d="M34.2378 38.996C34.329 39.0789 34.4782 39.0706 34.5694 38.9794C34.6605 38.8799 34.6605 38.7308 34.5694 38.6479C34.4782 38.565 34.329 38.5733 34.2378 38.6644C34.1466 38.7639 34.1466 38.9131 34.2378 38.996Z" fill="#AD5B10"/>
<path d="M33.0938 38.5732C33.1849 38.6561 33.3341 38.6478 33.4253 38.5484C33.5165 38.4489 33.5165 38.2997 33.4253 38.2168C33.3341 38.1256 33.1849 38.1422 33.0938 38.2334C33.0026 38.3329 33.0026 38.482 33.0938 38.5649V38.5732Z" fill="#AD5B10"/>
<path d="M31.8091 39.1698C31.9003 39.2527 32.0495 39.2444 32.1407 39.145C32.2318 39.0455 32.2318 38.8963 32.1407 38.8134C32.0495 38.7305 31.9003 38.7388 31.8091 38.83C31.7179 38.9294 31.7179 39.0786 31.8091 39.1615V39.1698Z" fill="#AD5B10"/>
<path d="M30.8809 38.0424C30.9721 38.1253 31.1213 38.117 31.2124 38.0258C31.3036 37.9263 31.3036 37.7772 31.2124 37.6943C31.1213 37.6031 30.9721 37.6197 30.8809 37.7191C30.7897 37.8186 30.7897 37.9678 30.8809 38.0507V38.0424Z" fill="#AD5B10"/>
<path d="M30.0274 37.4952C30.1185 37.5781 30.2677 37.5699 30.3589 37.4787C30.4501 37.3792 30.4501 37.23 30.3589 37.1471C30.2677 37.0642 30.1185 37.0725 30.0274 37.1637C29.9362 37.2632 29.9362 37.4124 30.0274 37.4952Z" fill="#AD5B10"/>
<path d="M36.6997 32.6962C36.7909 32.7791 36.9401 32.7708 37.0313 32.6797C37.1225 32.5802 37.1225 32.431 37.0313 32.3481C36.9401 32.2652 36.7909 32.2735 36.6997 32.373C36.6086 32.4724 36.6086 32.6216 36.6997 32.7045V32.6962Z" fill="#D16E13"/>
<path d="M36.8404 34.3209C36.9315 34.4038 37.0807 34.3955 37.1719 34.2961C37.2631 34.1966 37.2631 34.0474 37.1719 33.9645C37.0807 33.8816 36.9315 33.8899 36.8404 33.9894C36.7492 34.0889 36.7492 34.2381 36.8404 34.3209Z" fill="#D16E13"/>
<path d="M35.1001 33.716C35.1913 33.7989 35.3405 33.7906 35.4317 33.6994C35.5228 33.5999 35.5228 33.4508 35.4317 33.3679C35.3405 33.285 35.1913 33.2933 35.1001 33.3844C35.0089 33.4839 35.0089 33.6331 35.1001 33.716Z" fill="#D16E13"/>
<path d="M33.5332 35.382C33.6244 35.4649 33.7736 35.4566 33.8648 35.3572C33.9559 35.2577 33.9559 35.1085 33.8648 35.0256C33.7736 34.9345 33.6244 34.951 33.5332 35.0505C33.442 35.15 33.442 35.2992 33.5332 35.382Z" fill="#D16E13"/>
<path d="M33.1602 34.188C33.2514 34.2709 33.4005 34.2626 33.4917 34.1632C33.5829 34.0637 33.5829 33.9145 33.4917 33.8316C33.4005 33.7487 33.2514 33.757 33.1602 33.8565C33.069 33.956 33.069 34.1052 33.1602 34.188Z" fill="#D16E13"/>
<path d="M31.5274 35.6722C31.6185 35.7633 31.7677 35.7468 31.8589 35.6473C31.9501 35.5478 31.9501 35.3986 31.8589 35.3158C31.7677 35.2329 31.6185 35.2412 31.5274 35.3406C31.4362 35.4401 31.4362 35.5893 31.5274 35.6722Z" fill="#D16E13"/>
<path d="M29.9776 35.0086C30.0687 35.0915 30.218 35.0832 30.3091 34.9837C30.4003 34.8842 30.4003 34.735 30.3091 34.6522C30.218 34.561 30.0687 34.5776 29.9776 34.677C29.8864 34.7765 29.8864 34.9257 29.9776 35.0086Z" fill="#D16E13"/>
<path d="M29.9029 36.3518C29.994 36.4347 30.1432 36.4264 30.2344 36.3352C30.3256 36.2358 30.3256 36.0866 30.2344 36.0037C30.1432 35.9208 29.994 35.9291 29.9029 36.0286C29.8117 36.128 29.8117 36.2772 29.9029 36.3601V36.3518Z" fill="#D16E13"/>
<path d="M30.9224 36.7994C31.0136 36.8823 31.1628 36.874 31.2539 36.7746C31.3451 36.6751 31.3451 36.5259 31.2539 36.443C31.1628 36.3601 31.0136 36.3684 30.9224 36.4679C30.8312 36.5674 30.8312 36.7165 30.9224 36.7994Z" fill="#D16E13"/>
<path d="M32.4971 36.5755C32.5883 36.6584 32.7375 36.6501 32.8286 36.5506C32.9198 36.4511 32.9198 36.3019 32.8286 36.2191C32.7375 36.1362 32.5883 36.1445 32.4971 36.2439C32.4059 36.3434 32.4059 36.4926 32.4971 36.5755Z" fill="#D16E13"/>
<path d="M34.3208 37.2634C34.412 37.3463 34.5612 37.338 34.6524 37.2468C34.7435 37.1474 34.7435 36.9982 34.6524 36.9153C34.5612 36.8241 34.412 36.8407 34.3208 36.9401C34.2296 37.0396 34.2296 37.1888 34.3208 37.2717V37.2634Z" fill="#D16E13"/>
<path d="M35.3736 35.6306C35.4647 35.7135 35.6139 35.7053 35.7051 35.6141C35.7963 35.5146 35.7963 35.3654 35.7051 35.2825C35.6139 35.1996 35.4647 35.2079 35.3736 35.3074C35.2824 35.4069 35.2824 35.5561 35.3736 35.6389V35.6306Z" fill="#D16E13"/>
<path d="M36.4678 36.2604C36.559 36.3433 36.7082 36.335 36.7993 36.2355C36.8905 36.1361 36.8905 35.9869 36.7993 35.904C36.7082 35.8211 36.559 35.8294 36.4678 35.9289C36.3766 36.0283 36.3766 36.1775 36.4678 36.2604Z" fill="#D16E13"/>
<path d="M37.9761 34.4039C38.0673 34.4868 38.2165 34.4785 38.3076 34.379C38.3988 34.2795 38.3988 34.1303 38.3076 34.0474C38.2165 33.9563 38.0673 33.9729 37.9761 34.064C37.8849 34.1635 37.8849 34.3127 37.9761 34.3956V34.4039Z" fill="#D16E13"/>
<path d="M20.8769 39.9326C20.8769 39.9326 22.7253 41.3085 25.4192 39.3192C28.113 37.3382 28.4694 35.7633 28.2208 35.5478C27.9721 35.324 27.2924 35.7468 26.1983 36.2441C25.1042 36.7331 25.1456 35.4649 26.1983 34.1719C27.251 32.8788 25.9745 28.519 21.6975 29.1986C17.4205 29.8783 14.7598 33.5005 14.6604 33.832C14.5609 34.1719 13.0026 35.0173 14.0055 35.6473C15.0085 36.2772 15.7628 36.327 17.2962 35.755C15.8705 36.4182 13.3507 39.8911 20.8686 39.9326H20.8769Z" fill="#C96508"/>
<path d="M15.1078 31.8924C16.7489 30.2263 21.3906 28.7095 24.1674 29.7456C26.9441 30.7817 25.7671 33.9562 23.2888 35.8875C20.8104 37.8188 19.2936 38.5151 19.9235 38.4571C20.5535 38.399 26.3971 36.4015 27.1513 35.2079C27.9139 34.0143 28.0134 35.8792 26.538 37.6282C25.0708 39.3771 18.4481 42.4191 16.5583 40.3469C14.6685 38.2747 18.2243 35.3239 18.9289 34.6691C19.3102 34.3127 16.3511 35.6637 14.8259 35.5394C13.5412 35.4399 13.4086 33.5998 15.0995 31.8924H15.1078Z" fill="#E77A15"/>
<path d="M23.2974 34.7264C20.8191 36.6576 19.3022 37.3539 19.9322 37.2959C20.1808 37.271 21.275 36.9395 22.5349 36.467C22.7752 36.2847 23.0322 36.094 23.2974 35.8868C24.9883 34.5689 26.0659 32.6873 25.7095 31.2865C25.4608 32.4552 24.5407 33.7483 23.2974 34.7181V34.7264Z" fill="#D16E13"/>
<path d="M27.5161 34.8343C27.342 35.3151 27.0271 35.8953 26.5546 36.4589C25.0875 38.2079 18.4648 41.2498 16.5749 39.1776C16.3428 38.9207 16.1936 38.6554 16.1108 38.3736C15.9367 39.0533 16.0196 39.733 16.5749 40.3381C18.4648 42.4103 25.0875 39.36 26.5546 37.6194C27.7482 36.202 27.9057 34.71 27.5161 34.8343Z" fill="#D16E13"/>
<path d="M18.9457 33.5082C19.327 33.1518 16.3679 34.5029 14.8428 34.3785C14.4035 34.3454 14.1051 34.105 13.9642 33.7403C13.6824 34.7184 14.0305 35.4809 14.8428 35.5473C15.5308 35.6053 16.5005 35.3566 17.3377 35.108C17.9842 34.3537 18.6722 33.7652 18.9457 33.5082Z" fill="#D16E13"/>
<path d="M17.6941 36.3762C17.7273 36.4839 17.8516 36.5419 17.9593 36.5005C18.0671 36.4673 18.1334 36.3513 18.1003 36.2435C18.0671 36.1358 17.9511 36.0777 17.835 36.1192C17.7273 36.1523 17.661 36.2684 17.6941 36.3762Z" fill="#D16E13"/>
<path d="M23.554 30.2673C23.5871 30.375 23.7032 30.4331 23.8192 30.3916C23.9353 30.3585 23.9933 30.2424 23.9602 30.1347C23.927 30.0269 23.811 29.9689 23.6949 30.0103C23.5872 30.0435 23.5208 30.1595 23.554 30.2673Z" fill="#D16E13"/>
<path d="M22.2029 29.7787C22.2361 29.8865 22.3521 29.9445 22.4681 29.903C22.5759 29.8699 22.6422 29.7539 22.6091 29.6461C22.5759 29.5383 22.4599 29.4803 22.3438 29.5218C22.2361 29.5549 22.1698 29.671 22.2029 29.7787Z" fill="#D16E13"/>
<path d="M21.0345 29.9197C21.0676 30.0274 21.1919 30.0854 21.2997 30.044C21.4074 30.0108 21.4738 29.8948 21.4406 29.787C21.4074 29.6793 21.2831 29.6213 21.1754 29.6627C21.0676 29.6959 21.0013 29.8119 21.0345 29.9197Z" fill="#D16E13"/>
<path d="M18.9868 30.2593C19.0199 30.367 19.136 30.4251 19.252 30.3836C19.3681 30.3505 19.4261 30.2344 19.3929 30.1267C19.3598 30.0189 19.2437 29.9609 19.1277 30.0023C19.0116 30.0355 18.9536 30.1515 18.9868 30.2593Z" fill="#D16E13"/>
<path d="M23.3388 33.1353C23.372 33.243 23.4963 33.2927 23.6041 33.2596C23.7201 33.2264 23.7781 33.1104 23.745 33.0026C23.7118 32.8949 23.5875 32.8369 23.4797 32.8783C23.3637 32.9115 23.3057 33.0275 23.3388 33.1353Z" fill="#D16E13"/>
<path d="M22.2112 34.3622C22.2444 34.47 22.3687 34.528 22.4765 34.4866C22.5925 34.4534 22.6505 34.3373 22.6174 34.2296C22.5842 34.1218 22.4599 34.0638 22.3521 34.1053C22.2444 34.1384 22.1781 34.2545 22.2112 34.3622Z" fill="#D16E13"/>
<path d="M16.4009 31.3453C16.434 31.4531 16.55 31.5111 16.6661 31.4696C16.7738 31.4365 16.8402 31.3204 16.807 31.2127C16.7738 31.1049 16.6578 31.0469 16.5417 31.0884C16.4257 31.1215 16.3677 31.2376 16.4009 31.3453Z" fill="#D16E13"/>
<path d="M17.6941 30.7565C17.7273 30.8643 17.8516 30.9223 17.9593 30.8808C18.0754 30.8477 18.1334 30.7316 18.1003 30.6239C18.0671 30.5161 17.9511 30.4581 17.835 30.4995C17.7273 30.5327 17.661 30.6487 17.6941 30.7565Z" fill="#D16E13"/>
<path d="M18.9868 31.1379C19.0199 31.2457 19.1443 31.3037 19.252 31.2623C19.3598 31.2291 19.4261 31.1131 19.3929 31.0053C19.3598 30.8976 19.2437 30.8396 19.1277 30.881C19.0116 30.9141 18.9536 31.0302 18.9868 31.1379Z" fill="#D16E13"/>
<path d="M20.3299 31.0881C20.363 31.1959 20.4791 31.2539 20.5951 31.2124C20.7112 31.1793 20.7692 31.0632 20.736 30.9555C20.7029 30.8477 20.5868 30.7897 20.4708 30.8312C20.363 30.8643 20.2967 30.9804 20.3299 31.0881Z" fill="#D16E13"/>
<path d="M21.7473 31.2789C21.7805 31.3866 21.9048 31.4447 22.0126 31.4032C22.1286 31.3701 22.1867 31.254 22.1535 31.1463C22.1204 31.0385 21.996 30.9805 21.8883 31.0219C21.7805 31.0551 21.7142 31.1711 21.7473 31.2789Z" fill="#D16E13"/>
<path d="M22.9573 31.0549C22.9905 31.1627 23.1148 31.2207 23.2226 31.1792C23.3386 31.1461 23.3966 31.03 23.3635 30.9223C23.3303 30.8145 23.2143 30.7565 23.0982 30.798C22.9905 30.8311 22.9242 30.9472 22.9573 31.0549Z" fill="#D16E13"/>
<path d="M24.4907 30.7239C24.5239 30.8316 24.6399 30.8896 24.7559 30.8482C24.872 30.815 24.93 30.699 24.8969 30.5912C24.8637 30.4835 24.7394 30.4255 24.6316 30.4669C24.5156 30.5001 24.4575 30.6161 24.4907 30.7239Z" fill="#D16E13"/>
<path d="M18.9292 35.8125C18.9623 35.9203 19.0784 35.9783 19.1944 35.9369C19.3105 35.9037 19.3685 35.7876 19.3353 35.6799C19.3022 35.5721 19.1778 35.5141 19.0701 35.5556C18.9541 35.5887 18.896 35.7048 18.9292 35.8125Z" fill="#D16E13"/>
<path d="M19.584 36.5921C19.6171 36.6999 19.7414 36.7579 19.8492 36.7164C19.9652 36.6833 20.0233 36.5672 19.9901 36.4595C19.9569 36.3517 19.8409 36.2937 19.7249 36.3352C19.6088 36.3683 19.5508 36.4844 19.584 36.5921Z" fill="#D16E13"/>
<path d="M19.584 37.8523C19.6171 37.96 19.7414 38.018 19.8492 37.9766C19.9652 37.9434 20.0233 37.8274 19.9901 37.7196C19.9569 37.6119 19.8409 37.5539 19.7249 37.5953C19.6088 37.6285 19.5508 37.7445 19.584 37.8523Z" fill="#D16E13"/>
<path d="M18.291 37.2714C18.3241 37.3792 18.4485 37.4372 18.5562 37.3957C18.664 37.3626 18.7303 37.2465 18.6971 37.1388C18.664 37.031 18.5479 36.973 18.4319 37.0144C18.3158 37.0559 18.2578 37.1636 18.291 37.2714Z" fill="#D16E13"/>
<path d="M24.2669 32.1908C24.3 32.2985 24.4244 32.3565 24.5321 32.3151C24.6482 32.2819 24.7062 32.1659 24.673 32.0581C24.6399 31.9504 24.5155 31.8924 24.4078 31.9338C24.3 31.967 24.2337 32.083 24.2669 32.1908Z" fill="#D16E13"/>
<path d="M22.9077 31.9748C22.9408 32.0825 23.0569 32.1406 23.1729 32.0991C23.289 32.066 23.347 31.95 23.3139 31.8422C23.2807 31.7344 23.1564 31.6764 23.0486 31.7178C22.9326 31.751 22.8745 31.867 22.9077 31.9748Z" fill="#D16E13"/>
<path d="M22.2114 33.2602C22.2446 33.3679 22.3689 33.4259 22.4766 33.3845C22.5844 33.343 22.6507 33.2353 22.6176 33.1275C22.5844 33.0198 22.4601 32.9618 22.3523 33.0032C22.2363 33.0364 22.1782 33.1524 22.2114 33.2602Z" fill="#D16E13"/>
<path d="M18.9871 40.7442C19.0203 40.852 19.1363 40.91 19.2523 40.8686C19.3684 40.8354 19.4264 40.7194 19.3932 40.6116C19.3601 40.5039 19.2357 40.4458 19.128 40.4873C19.0202 40.5204 18.9539 40.6365 18.9871 40.7442Z" fill="#AD5B10"/>
<path d="M25.22 32.448C25.2532 32.5557 25.3775 32.6137 25.4853 32.5723C25.6013 32.5391 25.6593 32.4231 25.6261 32.3153C25.593 32.2076 25.4687 32.1496 25.3609 32.191C25.2532 32.2242 25.1868 32.3402 25.22 32.448Z" fill="#AD5B10"/>
<path d="M24.6733 33.4669C24.7065 33.5747 24.8308 33.6327 24.9386 33.5913C25.0546 33.5581 25.1126 33.4421 25.0795 33.3343C25.0463 33.2265 24.922 33.1685 24.8142 33.21C24.6982 33.2431 24.6402 33.3592 24.6733 33.4669Z" fill="#AD5B10"/>
<path d="M18.2908 40.164C18.324 40.2718 18.44 40.3298 18.556 40.2884C18.6638 40.2552 18.7301 40.1391 18.6969 40.0314C18.6638 39.9236 18.5477 39.8656 18.4317 39.9071C18.3239 39.9402 18.2577 40.0563 18.2908 40.164Z" fill="#AD5B10"/>
<path d="M23.7944 34.5689C23.8276 34.6767 23.9519 34.7347 24.0597 34.6933C24.1757 34.6601 24.2337 34.5441 24.2005 34.4363C24.1674 34.3286 24.0514 34.2706 23.9353 34.312C23.8193 34.3451 23.7613 34.4612 23.7944 34.5689Z" fill="#AD5B10"/>
<path d="M23.3388 35.4234C23.372 35.5312 23.4963 35.5809 23.6041 35.5478C23.7118 35.5146 23.7781 35.3985 23.745 35.2908C23.7118 35.183 23.5875 35.1333 23.4797 35.1665C23.3637 35.1996 23.3057 35.3157 23.3388 35.4234Z" fill="#AD5B10"/>
<path d="M19.584 40.2557C19.6171 40.3634 19.7331 40.4215 19.8492 40.38C19.9652 40.3469 20.0233 40.2308 19.9901 40.1231C19.9569 40.0153 19.8326 39.9573 19.7249 39.9987C19.6088 40.0319 19.5508 40.1479 19.584 40.2557Z" fill="#AD5B10"/>
<path d="M20.5786 40.4544C20.6117 40.5622 20.7278 40.6202 20.8438 40.5787C20.9516 40.5456 21.0179 40.4295 20.9848 40.3218C20.9516 40.214 20.8273 40.156 20.7195 40.1975C20.6035 40.2306 20.5454 40.3467 20.5786 40.4544Z" fill="#AD5B10"/>
<path d="M20.885 39.7911C20.9182 39.8989 21.0342 39.9569 21.1503 39.9154C21.2663 39.8823 21.3244 39.7662 21.2912 39.6585C21.2581 39.5507 21.1337 39.4927 21.026 39.5342C20.9182 39.5673 20.8519 39.6834 20.885 39.7911Z" fill="#AD5B10"/>
<path d="M21.5317 39.9657C21.5649 40.0734 21.6892 40.1314 21.7969 40.09C21.913 40.0568 21.971 39.9408 21.9379 39.833C21.9047 39.7253 21.7804 39.6755 21.6726 39.7087C21.5566 39.7419 21.4986 39.8579 21.5317 39.9657Z" fill="#AD5B10"/>
<path d="M22.9573 39.5924C22.9905 39.7001 23.1065 39.7582 23.2226 39.7167C23.3386 39.6836 23.3966 39.5675 23.3635 39.4598C23.3303 39.352 23.206 39.294 23.0982 39.3354C22.9905 39.3686 22.9242 39.4846 22.9573 39.5924Z" fill="#AD5B10"/>
<path d="M23.3388 39.0533C23.372 39.1611 23.4963 39.2191 23.6041 39.1777C23.7118 39.1362 23.7781 39.0285 23.745 38.9207C23.7118 38.813 23.5875 38.755 23.4797 38.7964C23.3637 38.8296 23.3057 38.9456 23.3388 39.0533Z" fill="#AD5B10"/>
<path d="M24.0517 38.8546C24.0849 38.9624 24.2009 39.0204 24.317 38.9789C24.4247 38.9458 24.4911 38.8297 24.4579 38.722C24.4247 38.6142 24.3004 38.5562 24.1927 38.5977C24.0766 38.6308 24.0186 38.7469 24.0517 38.8546Z" fill="#AD5B10"/>
<path d="M24.6733 38.2664C24.7065 38.3741 24.8308 38.4321 24.9386 38.3907C25.0546 38.3575 25.1126 38.2415 25.0795 38.1337C25.0463 38.026 24.922 37.968 24.8142 38.0094C24.6982 38.0426 24.6402 38.1586 24.6733 38.2664Z" fill="#AD5B10"/>
<path d="M25.784 37.6449C25.8171 37.7527 25.9415 37.8107 26.0492 37.7692C26.157 37.7361 26.2233 37.62 26.1901 37.5123C26.157 37.4045 26.0326 37.3465 25.9249 37.388C25.8171 37.4211 25.7508 37.5371 25.784 37.6449Z" fill="#AD5B10"/>
<path d="M26.4717 37.1059C26.5048 37.2137 26.6209 37.2717 26.7369 37.2302C26.8447 37.1888 26.911 37.0811 26.8778 36.9733C26.8446 36.8655 26.7286 36.8075 26.6126 36.8489C26.4965 36.8821 26.4385 36.9981 26.4717 37.1059Z" fill="#AD5B10"/>
<path d="M22.1035 39.5924C22.1366 39.7001 22.2527 39.7582 22.3687 39.7167C22.4848 39.6836 22.5428 39.5675 22.5097 39.4598C22.4765 39.352 22.3522 39.294 22.2444 39.3354C22.1284 39.3686 22.0703 39.4846 22.1035 39.5924Z" fill="#AD5B10"/>
<path d="M22.2112 35.7048C22.2444 35.8126 22.3687 35.8706 22.4765 35.8292C22.5842 35.796 22.6505 35.68 22.6174 35.5722C22.5842 35.4645 22.4599 35.4064 22.3521 35.4479C22.2444 35.481 22.1781 35.5971 22.2112 35.7048Z" fill="#AD5B10"/>
<path d="M21.747 36.5921C21.7802 36.6999 21.9045 36.7579 22.0123 36.7164C22.1283 36.6833 22.1864 36.5672 22.1532 36.4595C22.1201 36.3517 21.9957 36.2937 21.888 36.3352C21.7719 36.3683 21.7139 36.4844 21.747 36.5921Z" fill="#AD5B10"/>
<path d="M20.6284 36.9982C20.6615 37.106 20.7776 37.164 20.8936 37.1226C21.0097 37.0894 21.0677 36.9734 21.0346 36.8656C21.0014 36.7578 20.8854 36.6998 20.7693 36.7413C20.6533 36.7744 20.5952 36.8905 20.6284 36.9982Z" fill="#AD5B10"/>
<path d="M17.2466 34.5364C17.2797 34.6441 17.404 34.7021 17.5118 34.6607C17.6278 34.6275 17.6859 34.5115 17.6527 34.4037C17.6195 34.296 17.5035 34.238 17.3875 34.2794C17.2714 34.3126 17.2134 34.4286 17.2466 34.5364Z" fill="#AD5B10"/>
<path d="M16.1274 34.5689C16.1606 34.6767 16.2849 34.7347 16.3927 34.6933C16.5087 34.6601 16.5667 34.5441 16.5336 34.4363C16.5004 34.3286 16.3844 34.2706 16.2683 34.312C16.1523 34.3451 16.0943 34.4612 16.1274 34.5689Z" fill="#AD5B10"/>
<path d="M15.1575 35.2907C15.1907 35.3985 15.315 35.4565 15.4227 35.4151C15.5305 35.3819 15.5968 35.2659 15.5636 35.1581C15.5305 35.0504 15.4062 34.9923 15.2984 35.0338C15.1906 35.0669 15.1244 35.183 15.1575 35.2907Z" fill="#AD5B10"/>
<path d="M14.105 34.8261C14.1381 34.9339 14.2542 34.9919 14.3702 34.9505C14.4862 34.9173 14.5443 34.8013 14.5111 34.6935C14.478 34.5858 14.3619 34.5277 14.2459 34.5692C14.1298 34.6023 14.0718 34.7184 14.105 34.8261Z" fill="#AD5B10"/>
<path d="M16.4012 39.7911C16.4343 39.8989 16.5503 39.9569 16.6664 39.9154C16.7824 39.8823 16.8405 39.7662 16.8073 39.6585C16.7741 39.5507 16.6581 39.4927 16.5421 39.5342C16.4343 39.5673 16.368 39.6834 16.4012 39.7911Z" fill="#AD5B10"/>
<path d="M17.2466 40.4544C17.2797 40.5622 17.404 40.6202 17.5118 40.5787C17.6278 40.5456 17.6859 40.4295 17.6527 40.3218C17.6195 40.214 17.5035 40.156 17.3875 40.1975C17.2714 40.2306 17.2134 40.3467 17.2466 40.4544Z" fill="#AD5B10"/>
<path d="M20.8437 32.1655C20.8769 32.2733 21.0012 32.3313 21.109 32.2899C21.225 32.2567 21.283 32.1407 21.2499 32.0329C21.2167 31.9252 21.0924 31.8671 20.9846 31.9086C20.8686 31.9417 20.8106 32.0578 20.8437 32.1655Z" fill="#D16E13"/>
<path d="M20.2635 33.4835C20.2966 33.5913 20.421 33.6493 20.5287 33.6079C20.6365 33.5747 20.7028 33.4587 20.6696 33.3509C20.6365 33.2431 20.5204 33.1851 20.4044 33.2266C20.2966 33.2597 20.2303 33.3758 20.2635 33.4835Z" fill="#D16E13"/>
<path d="M19.1777 32.2732C19.2109 32.381 19.3269 32.439 19.443 32.3975C19.5507 32.3644 19.617 32.2483 19.5839 32.1406C19.5507 32.0328 19.4347 31.9748 19.3186 32.0162C19.2026 32.0494 19.1446 32.1654 19.1777 32.2732Z" fill="#D16E13"/>
<path d="M17.6943 32.9279C17.7275 33.0356 17.8518 33.0937 17.9595 33.0522C18.0756 33.0191 18.1336 32.903 18.1005 32.7953C18.0673 32.6875 17.943 32.6295 17.8352 32.6709C17.7192 32.7041 17.6612 32.8201 17.6943 32.9279Z" fill="#D16E13"/>
<path d="M17.4783 31.8093C17.5115 31.917 17.6358 31.975 17.7436 31.9336C17.8513 31.9004 17.9176 31.7844 17.8844 31.6766C17.8513 31.5689 17.727 31.5109 17.6192 31.5523C17.5115 31.5855 17.4451 31.7015 17.4783 31.8093Z" fill="#D16E13"/>
<path d="M15.5887 32.2572C15.6218 32.365 15.7461 32.423 15.8539 32.3815C15.9617 32.3484 16.028 32.2323 15.9948 32.1246C15.9616 32.0168 15.8373 31.9588 15.7296 32.0003C15.6218 32.0334 15.5555 32.1495 15.5887 32.2572Z" fill="#D16E13"/>
<path d="M20.5784 35.423C20.6116 35.5308 20.7276 35.5888 20.8436 35.5474C20.9514 35.5142 21.0177 35.3981 20.9846 35.2904C20.9514 35.1826 20.8271 35.1246 20.7193 35.1661C20.6116 35.1992 20.5452 35.3153 20.5784 35.423Z" fill="#D16E13"/>
<path d="M16.8486 37.3126C16.8818 37.4204 17.0061 37.4784 17.1139 37.437C17.2299 37.4038 17.2879 37.2878 17.2548 37.18C17.2216 37.0723 17.0973 37.0142 16.9895 37.0557C16.8735 37.0888 16.8155 37.2049 16.8486 37.3126Z" fill="#D16E13"/>
<path d="M16.4009 38.2664C16.434 38.3741 16.55 38.4321 16.6661 38.3907C16.7821 38.3575 16.8402 38.2415 16.807 38.1337C16.7738 38.026 16.6578 37.968 16.5417 38.0094C16.4257 38.0426 16.3677 38.1586 16.4009 38.2664Z" fill="#D16E13"/>
<path d="M17.6941 38.3741C17.7273 38.4818 17.8516 38.5399 17.9593 38.4984C18.0754 38.4653 18.1334 38.3492 18.1003 38.2415C18.0671 38.1337 17.9428 38.0757 17.835 38.1171C17.7273 38.1503 17.661 38.2663 17.6941 38.3741Z" fill="#D16E13"/>
<path d="M17.2464 39.2607C17.2795 39.3685 17.3956 39.4265 17.5116 39.385C17.6194 39.3519 17.6857 39.2358 17.6525 39.1281C17.6194 39.0203 17.5033 38.9623 17.3873 39.0038C17.2795 39.0369 17.2132 39.153 17.2464 39.2607Z" fill="#D16E13"/>
<path d="M18.9292 38.6725C18.9623 38.7802 19.0784 38.8383 19.1944 38.7968C19.3022 38.7637 19.3685 38.6476 19.3353 38.5399C19.3022 38.4321 19.1861 38.3741 19.0701 38.4155C18.9541 38.4487 18.896 38.5647 18.9292 38.6725Z" fill="#D16E13"/>
<path d="M18.7715 39.5924C18.8046 39.7001 18.929 39.7582 19.0367 39.7167C19.1527 39.6836 19.2108 39.5675 19.1776 39.4598C19.1444 39.352 19.0201 39.294 18.9124 39.3354C18.7963 39.3686 18.7383 39.4846 18.7715 39.5924Z" fill="#D16E13"/>
<path d="M19.7993 39.2607C19.8324 39.3685 19.9485 39.4265 20.0645 39.385C20.1806 39.3519 20.2386 39.2358 20.2055 39.1281C20.1723 39.0203 20.048 38.9623 19.9402 39.0038C19.8242 39.0369 19.7661 39.153 19.7993 39.2607Z" fill="#D16E13"/>
<path d="M20.6284 38.6725C20.6615 38.7802 20.7859 38.8383 20.8936 38.7968C21.0097 38.7637 21.0677 38.6476 21.0346 38.5399C21.0014 38.4321 20.8771 38.3741 20.7693 38.4155C20.6533 38.4487 20.5952 38.5647 20.6284 38.6725Z" fill="#D16E13"/>
<path d="M21.1009 39.1444C21.134 39.2522 21.2501 39.3102 21.3661 39.2687C21.4739 39.2356 21.5402 39.1195 21.507 39.0118C21.4738 38.904 21.3495 38.846 21.2418 38.8875C21.134 38.9206 21.0677 39.0367 21.1009 39.1444Z" fill="#D16E13"/>
<path d="M21.8882 38.2664C21.9213 38.3741 22.0457 38.4321 22.1534 38.3907C22.2694 38.3575 22.3275 38.2415 22.2943 38.1337C22.2611 38.026 22.1368 37.968 22.0291 38.0094C21.913 38.0426 21.855 38.1586 21.8882 38.2664Z" fill="#D16E13"/>
<path d="M22.9077 38.3741C22.9408 38.4818 23.0569 38.5399 23.1729 38.4984C23.289 38.4653 23.347 38.3492 23.3139 38.2415C23.2807 38.1337 23.1564 38.0757 23.0486 38.1171C22.9326 38.1503 22.8745 38.2663 22.9077 38.3741Z" fill="#D16E13"/>
<path d="M23.3388 37.5865C23.372 37.6942 23.4963 37.7522 23.6041 37.7108C23.7201 37.6776 23.7781 37.5616 23.745 37.4538C23.7118 37.3461 23.5958 37.2881 23.4797 37.3295C23.3637 37.371 23.3057 37.4787 23.3388 37.5865Z" fill="#D16E13"/>
<path d="M24.2669 37.6861C24.3 37.7939 24.4244 37.8519 24.5321 37.8105C24.6482 37.7773 24.7062 37.6613 24.673 37.5535C24.6399 37.4458 24.5155 37.3877 24.4078 37.4292C24.3 37.4623 24.2337 37.5784 24.2669 37.6861Z" fill="#D16E13"/>
<path d="M24.889 37.1139C24.9221 37.2217 25.0382 37.2797 25.1542 37.2382C25.2702 37.2051 25.3282 37.089 25.2951 36.9813C25.2619 36.8735 25.1376 36.8155 25.0298 36.8569C24.9221 36.8901 24.8558 37.0061 24.889 37.1139Z" fill="#D16E13"/>
<path d="M25.7923 36.509C25.8254 36.6168 25.9415 36.6748 26.0575 36.6334C26.1653 36.6002 26.2316 36.4842 26.1984 36.3764C26.1653 36.2687 26.0409 36.2106 25.9332 36.2521C25.8254 36.2852 25.7591 36.4013 25.7923 36.509Z" fill="#D16E13"/>
<path d="M26.5713 36.0199C26.6044 36.1276 26.7205 36.1857 26.8365 36.1442C26.9443 36.1111 27.0106 35.995 26.9774 35.8872C26.9442 35.7795 26.8199 35.7215 26.7122 35.7629C26.5961 35.7961 26.5381 35.9121 26.5713 36.0199Z" fill="#D16E13"/>
<path d="M14.677 32.9279C14.7102 33.0356 14.8345 33.0937 14.9423 33.0522C15.0583 33.0191 15.1163 32.903 15.0832 32.7953C15.05 32.6875 14.9257 32.6295 14.818 32.6709C14.7102 32.7041 14.6439 32.8201 14.677 32.9279Z" fill="#D16E13"/>
<path d="M14.9422 33.8983C14.9753 34.006 15.0997 34.064 15.2074 34.0226C15.3235 33.9894 15.3815 33.8734 15.3483 33.7656C15.3152 33.6579 15.1991 33.5999 15.0831 33.6413C14.9753 33.6745 14.909 33.7905 14.9422 33.8983Z" fill="#D16E13"/>
<path d="M15.9451 33.3679C15.9783 33.4756 16.1026 33.5336 16.2103 33.4922C16.3181 33.459 16.3844 33.343 16.3513 33.2352C16.3181 33.1275 16.2021 33.0695 16.086 33.1109C15.9783 33.1441 15.9119 33.2601 15.9451 33.3679Z" fill="#D16E13"/>
<path d="M16.8484 33.5746C16.8816 33.6823 17.0059 33.7404 17.1137 33.6989C17.2297 33.6658 17.2877 33.5497 17.2546 33.442C17.2214 33.3342 17.0971 33.2762 16.9893 33.3176C16.8816 33.3508 16.8153 33.4668 16.8484 33.5746Z" fill="#D16E13"/>
<path d="M18.9292 33.7734C18.9623 33.8811 19.0867 33.9391 19.1944 33.8977C19.3022 33.8562 19.3685 33.7485 19.3353 33.6407C19.3022 33.533 19.1861 33.475 19.0701 33.5164C18.9541 33.5496 18.896 33.6656 18.9292 33.7734Z" fill="#D16E13"/>
<path d="M19.1443 34.8261C19.1775 34.9339 19.2935 34.9919 19.4095 34.9505C19.5256 34.9173 19.5836 34.8013 19.5505 34.6935C19.5173 34.5858 19.4013 34.5277 19.2852 34.5692C19.1775 34.6023 19.1112 34.7184 19.1443 34.8261Z" fill="#D16E13"/>
<path d="M21.1009 34.0306C21.134 34.1383 21.2501 34.1963 21.3661 34.1549C21.4739 34.1217 21.5402 34.0057 21.507 33.8979C21.4738 33.7902 21.3578 33.7322 21.2418 33.7736C21.134 33.8068 21.0677 33.9228 21.1009 34.0306Z" fill="#D16E13"/>
</svg>
