<svg width="54" height="54" viewBox="0 0 54 54" fill="none" xmlns="http://www.w3.org/2000/svg">
<path d="M48.7545 31.0256C51.2024 18.7864 43.2649 6.88011 31.0256 4.43225C18.7864 1.98439 6.88012 9.92187 4.43225 22.1611C1.98439 34.4004 9.92188 46.3066 22.1611 48.7545C34.4004 51.2024 46.3066 43.2649 48.7545 31.0256Z" fill="white"/>
<path d="M32.871 20.8863C32.8102 19.6009 32.0633 17.6816 30.7259 16.0835C29.536 14.6592 29.2407 13.0438 29.1713 12.4011H29.4405V11.4805H29.1365V10.9594H29.4405V10.0388C29.4405 9.73488 28.0943 9.4917 26.4355 9.4917C24.7767 9.4917 23.4305 9.73488 23.4305 10.0388V10.9594H23.7345V11.4805H23.4305V12.4011H23.6998C23.6303 13.0438 23.335 14.6592 22.1452 16.0835C20.8077 17.6816 20.0608 19.6009 20 20.8863C20 20.921 20 20.9558 20 20.9818V40.8008C20 40.8008 20 40.8181 20 40.8268C20 41.7561 22.8834 42.5117 26.4355 42.5117C29.9876 42.5117 32.871 41.7561 32.871 40.8268C32.871 40.8181 32.871 40.8095 32.871 40.8008V20.8863Z" fill="#909FAB"/>
<path d="M31.6553 21.0948C31.6206 20.3305 31.2558 19.1754 30.5263 18.0377C29.4233 17.8119 27.9903 17.6729 26.427 17.6729C24.8637 17.6729 23.4308 17.8119 22.3278 18.0377C21.5982 19.1841 21.2335 20.3392 21.1987 21.1034C21.1987 21.1208 21.1987 21.1382 21.1987 21.1642V40.0713C21.1987 40.0713 21.1987 40.0886 21.1987 40.0973C21.1987 40.4795 23.0486 41.2351 26.427 41.2351C29.8055 41.2351 31.6553 40.4795 31.6553 40.0887C31.6553 40.08 31.6553 21.1382 31.6553 21.1382C31.6553 21.1295 31.6553 21.1121 31.6553 21.1034V21.0948Z" fill="#EDEDED"/>
<path d="M24.6551 13.2783C24.6551 13.2783 24.6551 15.0327 23.1874 16.8304C22.2494 17.9768 21.876 19.2448 21.902 28.1469C21.9368 38.3082 21.876 39.9323 21.876 39.9323L23.005 40.3318C23.005 40.3318 23.0137 23.1444 23.2656 20.3218C23.5869 16.7436 24.9331 16.926 24.6551 13.287V13.2783Z" fill="#BDD2E0"/>
<path d="M28.5634 13.2783C28.5634 13.2783 28.5634 15.0327 30.0312 16.8304C30.9691 17.9768 31.3426 19.2448 31.3165 28.1469C31.2818 38.3082 31.3426 39.9323 31.3426 39.9323L30.2135 40.3318C30.2135 40.3318 30.2049 23.1444 29.953 20.3218C29.6317 16.7436 28.2855 16.926 28.5634 13.287V13.2783Z" fill="#74808A"/>
<path d="M29.4404 17.8553C29.6576 18.4632 29.8573 19.2101 29.9528 20.3218C30.2047 23.1444 30.2134 40.3318 30.2134 40.3318L31.3424 39.9323C31.3424 39.9323 31.2816 38.3082 31.3164 28.1469C31.3337 22.6754 31.1948 20.0873 30.8734 18.6369C30.7692 18.4371 30.6476 18.2287 30.526 18.029C30.196 17.9595 29.8313 17.8987 29.4404 17.8553Z" fill="#D1D1D1"/>
<path d="M23.7259 11.2374C23.7259 11.2374 23.7259 10.9334 26.4269 10.9334C29.1279 10.9334 29.1279 11.2374 29.1279 11.2374V10.9595C29.1279 10.9595 29.1279 10.6295 26.3835 10.6295C23.639 10.6295 23.7259 10.9595 23.7259 10.9595V11.2374Z" fill="#6B7780"/>
<path d="M23.6475 12.679C23.6475 12.679 23.6822 12.3751 26.4266 12.3751C29.1711 12.3751 29.2058 12.679 29.2058 12.679L29.1711 12.4011C29.1711 12.4011 29.1711 12.0711 26.3919 12.0711C23.6127 12.0711 23.6996 12.4011 23.6996 12.4011L23.6648 12.679H23.6475Z" fill="#6B7780"/>
<path d="M23.005 40.3318C23.005 40.3318 23.0137 23.1443 23.2656 20.3217C23.3698 19.184 23.5695 18.4284 23.7953 17.8118C23.335 17.8639 22.9095 17.9247 22.5273 17.9942C22.0757 19.2969 21.8847 21.7547 21.902 28.1468C21.9368 38.3082 21.876 39.9322 21.876 39.9322L23.005 40.3318Z" fill="white"/>
</svg>
