<svg width="54" height="54" viewBox="0 0 54 54" fill="none" xmlns="http://www.w3.org/2000/svg">
<path d="M49.5504 31.0256C51.9983 18.7864 44.0608 6.88011 31.8215 4.43225C19.5823 1.98438 7.67601 9.92187 5.22815 22.1611C2.78028 34.4004 10.7178 46.3066 22.957 48.7545C35.1963 51.2024 47.1025 43.2649 49.5504 31.0256Z" fill="white"/>
<path d="M21.1151 28.4228C21.0851 28.3628 21.0451 28.3128 21.0151 28.2528C20.9751 28.1828 20.9351 28.1228 20.8951 28.0528C20.4251 27.2228 20.0751 26.3328 19.8051 25.4228C19.6651 24.9628 19.5451 24.5028 19.4351 24.0428C19.3851 23.8428 19.3551 23.6328 19.2651 23.4528C19.1651 23.2628 19.1151 23.0428 19.0351 22.8528C18.9351 22.6128 18.8151 22.3728 18.6851 22.1328C18.4151 21.6528 18.0851 21.2028 17.6951 20.8228C17.1651 20.3128 16.5051 19.9428 15.8051 19.7228C15.4451 19.6128 15.0751 19.5428 14.7051 19.5228C14.5151 19.5128 14.3251 19.5028 14.1451 19.5228C14.1051 19.5228 14.0651 19.5328 14.0251 19.5528C13.8951 19.5928 13.7551 19.5828 13.6251 19.6028C13.0951 19.6928 12.5851 19.9128 12.1651 20.2528C11.0151 21.2228 10.7851 22.9828 11.2451 24.4128C11.2951 24.5628 11.3351 24.7228 11.4151 24.8528C11.4351 24.8828 11.4551 24.9028 11.4651 24.9328C11.5051 25.0328 11.5251 25.1428 11.5551 25.2428C11.6251 25.4528 11.7251 25.6528 11.8351 25.8428C12.0551 26.2328 12.3451 26.5928 12.6551 26.9128C12.8351 27.1028 13.0151 27.2828 13.2051 27.4528C13.2951 27.5328 13.3951 27.6028 13.4651 27.7028C13.4951 27.7428 13.5351 27.7728 13.5751 27.8028C13.6551 27.8728 13.7451 27.9528 13.8251 28.0228C13.9851 28.1728 14.1451 28.3328 14.3051 28.4928C14.6151 28.8128 14.9051 29.1528 15.1551 29.5228C15.3551 29.8228 15.5251 30.1328 15.6951 30.4528C15.7451 30.5528 15.7951 30.6628 15.8351 30.7728C15.9151 30.9928 15.9651 31.2228 16.0051 31.4528C16.0651 31.7828 16.1051 32.1228 16.1651 32.4528C16.2851 33.0828 16.5251 33.6928 16.8451 34.2528C17.0451 34.6028 17.3051 34.9328 17.6451 35.1528C17.7151 35.1928 17.7751 35.2328 17.8451 35.2728C17.9151 35.3228 17.9851 35.3728 18.0551 35.4128C18.2051 35.5028 18.3551 35.5728 18.5151 35.6428C18.6151 35.6828 18.7151 35.7128 18.8151 35.7428C19.0751 35.8228 19.3351 35.8428 19.6151 35.8428C20.0451 35.8428 20.4651 35.7728 20.8751 35.6328C21.4751 35.4328 22.0351 35.0828 22.4651 34.6128C22.4651 34.6128 22.4751 34.6028 22.4751 34.5928C22.9451 34.0628 23.1551 33.3728 23.1251 32.6728C23.1151 32.3228 23.0451 31.9828 22.9351 31.6428C22.8851 31.4828 22.8251 31.2928 22.7451 31.1428C22.6451 30.9628 22.5851 30.7528 22.4951 30.5628C22.1351 29.7828 21.5951 29.1128 21.1451 28.3928L21.1151 28.4228Z" fill="url(#paint0_radial_1_910)"/>
<path d="M14.3052 20.3428C14.3252 20.1628 14.1652 20.0028 13.9952 19.9628C13.8252 19.9228 13.6352 19.9628 13.4652 20.0128C13.3152 20.0528 13.1652 20.0928 13.0152 20.1328C12.8952 20.1628 12.7652 20.2028 12.7152 20.3128C12.6452 20.4428 12.7452 20.6028 12.8552 20.7028C13.0652 20.8828 13.3552 20.9528 13.6152 20.9028C13.8852 20.8528 14.1252 20.6728 14.2452 20.4228L14.2952 20.3528L14.3052 20.3428Z" fill="#A87832"/>
<path d="M14.5552 21.2428C14.2752 21.1428 14.0552 21.4428 13.8052 21.5228C13.6252 21.5828 13.4152 21.5428 13.3052 21.6828C13.1952 21.8128 13.2452 22.0628 13.3652 22.1928C13.4952 22.3328 13.6852 22.3728 13.8652 22.3628C14.0552 22.3428 14.2252 22.2728 14.4252 22.2128C14.5452 22.1828 14.6752 22.1528 14.7852 22.0728C15.0552 21.8728 14.8652 21.3428 14.5652 21.2328L14.5552 21.2428Z" fill="#A87832"/>
<path d="M15.3849 23.2928C15.4249 23.2128 15.4249 23.1128 15.3849 23.0328C15.3849 23.0128 15.3649 23.0028 15.3649 22.9928C15.3449 22.9528 15.3349 22.9028 15.3149 22.8628C15.2649 22.7828 15.1949 22.7128 15.1049 22.6628C15.0849 22.6628 15.0649 22.6428 15.0449 22.6328C14.8849 22.5728 14.7049 22.5828 14.5349 22.6328C14.3649 22.6828 14.2149 22.7728 14.0749 22.8628C13.9749 22.9228 13.8749 22.9828 13.7849 23.0528C13.7249 23.0928 13.7149 23.1728 13.7349 23.2428C13.7449 23.2828 13.7649 23.3228 13.7849 23.3528C13.9349 23.5728 14.1549 23.7928 14.4249 23.7828C14.5249 23.7828 14.6249 23.7328 14.7249 23.6928C14.9249 23.6028 15.2949 23.5228 15.3949 23.3028L15.3849 23.2928Z" fill="#A87832"/>
<path d="M15.8752 24.2828C15.9452 23.9728 15.5952 23.8328 15.3452 23.8828C15.1652 23.9128 14.9952 24.0128 14.8352 24.1028C14.7252 24.1628 14.6252 24.2228 14.5152 24.2928C14.4552 24.3228 14.3952 24.3628 14.3752 24.4228C14.3252 24.5328 14.4152 24.6428 14.4952 24.7228C14.6252 24.8528 14.7752 24.9828 14.9552 24.9828C15.0552 24.9828 15.1452 24.9328 15.2252 24.8928C15.4852 24.7628 15.8052 24.5928 15.8752 24.2828Z" fill="#A87832"/>
<path d="M16.2453 25.6828C16.3253 25.6328 16.3853 25.5628 16.4553 25.5028C16.5053 25.4528 16.5453 25.4128 16.5353 25.3328C16.5153 25.2328 16.4553 25.1328 16.3753 25.0728C16.2653 24.9728 16.1053 24.9328 15.9553 24.9628C15.8253 24.9828 15.7153 25.0628 15.6153 25.1328C15.5053 25.2028 15.3953 25.2828 15.2753 25.3528C15.2353 25.3828 15.1853 25.4128 15.1553 25.4528C15.1053 25.5228 15.0953 25.6228 15.1253 25.7028C15.1553 25.7828 15.2053 25.8528 15.2653 25.9228C15.3153 25.9728 15.3853 26.0228 15.4553 26.0328C15.5453 26.0428 15.6353 26.0128 15.7153 25.9728C15.8853 25.8928 16.0653 25.8128 16.2253 25.6928L16.2453 25.6828Z" fill="#A87832"/>
<path d="M16.8153 26.9028C16.9353 26.8328 17.0753 26.7428 17.1353 26.6028C17.1953 26.4728 17.0853 26.3628 17.0253 26.2528C16.9853 26.1828 16.9453 26.1028 16.8753 26.0628C16.7353 25.9728 16.5453 26.0428 16.3853 26.1228C16.1953 26.2228 16.0053 26.3328 15.8953 26.5128C15.8653 26.5628 15.8453 26.6128 15.8353 26.6628C15.8253 26.7628 15.8753 26.8528 15.9153 26.9428C15.9653 27.0328 16.0253 27.1228 16.1253 27.1628C16.2653 27.2128 16.4153 27.1428 16.5353 27.0628C16.6253 27.0128 16.7153 26.9528 16.8053 26.9028H16.8153Z" fill="#A87832"/>
<path d="M17.685 27.8728C17.755 27.8028 17.815 27.7128 17.815 27.6128C17.815 27.5228 17.765 27.4328 17.705 27.3628C17.675 27.3328 17.645 27.3028 17.615 27.2728C17.545 27.2028 17.555 27.0728 17.455 27.0228C17.375 26.9828 17.275 27.0228 17.195 27.0728C17.105 27.1228 17.005 27.1828 16.915 27.2328C16.775 27.3128 16.615 27.4128 16.585 27.5728C16.565 27.7028 16.635 27.8228 16.705 27.9328C16.765 28.0128 16.825 28.0928 16.915 28.1328C17.045 28.1828 17.195 28.1328 17.325 28.0628C17.455 28.0028 17.575 27.9728 17.685 27.8728Z" fill="#A87832"/>
<path d="M18.4553 28.5928C18.4753 28.4628 18.3853 28.3728 18.3053 28.2728C18.2453 28.1928 18.1653 28.1228 18.0653 28.1228C18.0053 28.1228 17.9353 28.1328 17.8753 28.1628C17.6953 28.2328 17.5153 28.3128 17.3453 28.4228C17.2553 28.4828 17.1553 28.5528 17.1353 28.6628C17.1353 28.7228 17.1353 28.7728 17.1553 28.8328C17.1953 28.9728 17.2353 29.1128 17.3553 29.1928C17.4753 29.2728 17.6253 29.2528 17.7653 29.2228C17.9353 29.1828 18.1053 29.1228 18.2453 29.0028C18.3653 28.9028 18.4253 28.7628 18.4453 28.6128L18.4553 28.5928Z" fill="#A87832"/>
<path d="M19.1052 30.0628C19.3052 29.8228 19.1052 29.5628 18.9452 29.3728C18.9152 29.3328 18.8752 29.2928 18.8352 29.2728C18.7852 29.2528 18.7352 29.2528 18.6852 29.2628C18.4452 29.3028 18.2352 29.4428 18.0452 29.5928C17.9852 29.6428 17.9152 29.6928 17.8852 29.7628C17.8452 29.8828 17.9152 30.0028 17.9852 30.1028C18.0852 30.2228 18.2052 30.3428 18.3552 30.3728C18.4952 30.3928 18.6252 30.3428 18.7552 30.2928C18.8852 30.2328 19.0152 30.1728 19.1052 30.0628Z" fill="#A87832"/>
<path d="M19.6651 31.2428C19.7751 31.1928 19.9351 31.1028 19.9151 30.9628C19.9151 30.9128 19.8751 30.8628 19.8451 30.8228C19.8051 30.7528 19.7751 30.6728 19.7251 30.6028C19.6751 30.5228 19.6051 30.4528 19.5151 30.4328C19.4151 30.4128 19.3151 30.4628 19.2251 30.5128C19.0751 30.5928 18.9451 30.6928 18.8151 30.8028C18.7951 30.8228 18.7751 30.8328 18.7651 30.8628C18.7451 30.9028 18.7651 30.9528 18.7851 30.9928C18.8551 31.1228 18.9551 31.2428 19.0851 31.3328C19.1451 31.3728 19.2051 31.4028 19.2751 31.4028C19.3351 31.4028 19.3951 31.3728 19.4551 31.3428C19.5251 31.3128 19.5851 31.2728 19.6551 31.2428H19.6651Z" fill="#A87832"/>
<path d="M16.5351 33.6828C16.5351 33.6828 16.5851 33.6828 16.6051 33.6728C16.6951 33.6528 16.7851 33.6128 16.8851 33.6028C16.9351 33.6028 16.9951 33.5728 17.0351 33.5528C17.0951 33.5328 17.1451 33.5128 17.1951 33.4928C17.2851 33.4528 17.3751 33.4128 17.4551 33.3428C17.5851 33.2128 17.6351 33.0028 17.5651 32.8328C17.4951 32.6628 17.3151 32.5428 17.1251 32.5428C17.0251 32.5428 16.9251 32.5728 16.8251 32.6128C16.7551 32.6328 16.6851 32.6628 16.6151 32.6828C16.5951 32.6828 16.5751 32.6828 16.5551 32.6828C16.5151 32.6828 16.4851 32.7128 16.4451 32.7328C16.3751 32.7728 16.2951 32.8128 16.2251 32.8528C16.3051 33.1428 16.4051 33.4228 16.5251 33.6928L16.5351 33.6828Z" fill="#A87832"/>
<path d="M17.9651 34.5728C17.9651 34.5728 18.0551 34.4928 18.0951 34.4528C18.1651 34.3728 18.2151 34.2728 18.2151 34.1628C18.2151 34.1228 18.2151 34.0828 18.1951 34.0528C18.1451 33.8828 17.9951 33.7428 17.8251 33.7028C17.7151 33.6728 17.5951 33.6728 17.4851 33.7128C17.4351 33.7328 17.3851 33.7728 17.3351 33.7928C17.3151 33.7928 17.2951 33.7928 17.2751 33.8128C17.1251 33.8728 16.9951 33.9728 16.8751 34.0628C16.8351 34.0928 16.8051 34.1228 16.7651 34.1528C16.7851 34.1928 16.8051 34.2228 16.8251 34.2628C16.9451 34.4728 17.0851 34.6628 17.2551 34.8428C17.3651 34.8428 17.4851 34.8028 17.5851 34.7528C17.6751 34.7128 17.7651 34.6628 17.8551 34.6328C17.8951 34.6228 17.9351 34.6028 17.9751 34.5728H17.9651Z" fill="#A87832"/>
<path d="M17.8253 35.2828C17.8953 35.3328 17.9653 35.3828 18.0353 35.4228C18.1853 35.5128 18.3353 35.5828 18.4953 35.6528C18.5053 35.6528 18.5253 35.6728 18.5453 35.6728C18.5653 35.6728 18.5753 35.6728 18.5953 35.6528C18.6253 35.6328 18.6453 35.6228 18.6753 35.6028C18.7053 35.5828 18.7453 35.5628 18.7753 35.5428C18.8553 35.4628 18.8653 35.3428 18.8253 35.2528C18.7653 35.1128 18.6553 34.9928 18.5053 34.9328C18.4053 34.8928 18.2953 34.8928 18.1953 34.9328C18.1553 34.9528 18.1153 34.9728 18.0653 34.9928C18.0453 34.9928 18.0253 35.0028 18.0153 35.0128C17.9653 35.0428 17.9153 35.0728 17.8653 35.1128C17.8453 35.1228 17.7253 35.2328 17.7153 35.2328C17.7553 35.2528 17.7953 35.2728 17.8253 35.3028V35.2828Z" fill="#A87832"/>
<path d="M20.3752 31.5828C20.3352 31.4828 20.2152 31.3528 20.1152 31.3228C19.9652 31.2928 19.8452 31.4428 19.7352 31.5028C19.6552 31.5528 19.5552 31.5628 19.4752 31.6028C19.3852 31.6328 19.2952 31.6928 19.2652 31.7728C19.2052 31.9128 19.3152 32.0828 19.4652 32.1428C19.6052 32.2028 19.7752 32.1728 19.9252 32.1428C20.0752 32.1128 20.2352 32.0628 20.3352 31.9428C20.4152 31.8428 20.4352 31.7028 20.3952 31.5828H20.3752Z" fill="#A87832"/>
<path d="M20.8353 32.6528C20.8453 32.5728 20.8553 32.4928 20.8053 32.4228C20.7553 32.3428 20.6653 32.2828 20.5753 32.2528C20.4553 32.2128 20.3353 32.2528 20.2153 32.2928C20.0452 32.3528 19.8753 32.4028 19.7053 32.4628C19.6753 32.4628 19.6452 32.4828 19.6252 32.5028C19.5552 32.5528 19.5453 32.6528 19.5653 32.7328C19.6053 32.9028 19.7553 33.0228 19.9153 33.0828C20.0753 33.1328 20.2552 33.1228 20.4252 33.0828C20.5252 33.0528 20.6253 33.0228 20.7053 32.9528C20.7853 32.8828 20.8153 32.7828 20.8353 32.6728V32.6528Z" fill="#A87832"/>
<path d="M21.015 33.1728C20.875 33.1128 20.715 33.1428 20.575 33.1828C20.455 33.2228 20.325 33.2628 20.215 33.3228C20.135 33.3628 20.045 33.4028 19.985 33.4728C19.925 33.5428 19.885 33.6428 19.915 33.7228C19.945 33.8128 20.035 33.8728 20.125 33.9028C20.215 33.9328 20.315 33.9128 20.405 33.9028C20.565 33.8828 20.725 33.8628 20.875 33.8228C20.985 33.7928 21.085 33.7328 21.145 33.6228C21.235 33.4628 21.185 33.2428 21.015 33.1728Z" fill="#A87832"/>
<path d="M21.5449 34.2628C21.5049 34.1028 21.4449 34.0028 21.2649 33.9728C21.1449 33.9528 21.0149 33.9928 20.9049 34.0428C20.8149 34.0728 20.7249 34.1028 20.6349 34.1428C20.5449 34.1728 20.4449 34.2128 20.3849 34.2828C20.2749 34.4128 20.3049 34.6428 20.4549 34.7328C20.5749 34.8028 20.7249 34.7828 20.8649 34.7728C20.9949 34.7628 21.1249 34.7528 21.2549 34.7028C21.4349 34.6428 21.5949 34.4828 21.5449 34.2728V34.2628Z" fill="#A87832"/>
<path d="M21.3151 35.3828C21.4251 35.3228 21.5351 35.2428 21.6351 35.1628C21.7151 35.1028 21.7851 35.0228 21.7951 34.9228C21.7951 34.8528 21.7751 34.7828 21.7151 34.7428C21.6251 34.6828 21.5151 34.7428 21.4351 34.7828C21.3051 34.8528 21.1651 34.9228 21.0251 34.9628C20.8851 35.0028 20.7251 35.0528 20.6851 35.1928C20.6451 35.3328 20.7751 35.4728 20.9151 35.4928C21.0551 35.5128 21.1951 35.4528 21.3251 35.3828H21.3151Z" fill="#A87832"/>
<path d="M19.0753 35.4028C19.0553 35.5328 19.1853 35.6628 19.3153 35.6928C19.4453 35.7328 19.5853 35.7028 19.7253 35.6828C19.8353 35.6628 19.9553 35.6428 20.0653 35.6228C20.1553 35.6028 20.2553 35.5828 20.2953 35.5028C20.3453 35.4028 20.2753 35.2828 20.1853 35.2028C20.0253 35.0628 19.7953 34.9928 19.5953 35.0228C19.3853 35.0528 19.2053 35.1728 19.1153 35.3528L19.0753 35.4028Z" fill="#A87832"/>
<path d="M18.7655 34.7028C18.7655 34.7028 18.7955 34.7128 18.8155 34.7228C18.9155 34.7428 19.0255 34.7328 19.1255 34.7228C19.2855 34.7228 19.4555 34.7428 19.6155 34.7028C19.7755 34.6628 19.9355 34.5428 19.9455 34.3828C19.9455 34.2628 19.8855 34.1528 19.8255 34.0528C19.7755 33.9728 19.7055 33.9128 19.6255 33.8728C19.5755 33.8528 19.5255 33.8328 19.4755 33.8228C19.3755 33.8128 19.2855 33.8228 19.1855 33.8428C19.0455 33.8728 18.8955 33.9028 18.7755 33.9828C18.6955 34.0328 18.6355 34.1128 18.5955 34.1928C18.5755 34.2328 18.5755 34.2828 18.5655 34.3228C18.5555 34.3628 18.5655 34.3928 18.5655 34.4328C18.5655 34.4528 18.5755 34.4728 18.5855 34.4928C18.5855 34.5028 18.5855 34.5228 18.5855 34.5328C18.5855 34.5628 18.6055 34.5928 18.6255 34.6128C18.6555 34.6528 18.6955 34.6728 18.7455 34.6928L18.7655 34.7028Z" fill="#A87832"/>
<path d="M18.1051 33.0128C18.0551 33.0528 18.0051 33.1128 17.9951 33.1828C17.9951 33.2428 18.0151 33.3128 18.0551 33.3628C18.1251 33.4828 18.2351 33.5928 18.3651 33.6128C18.4251 33.6228 18.4851 33.6128 18.5551 33.6128C18.7151 33.5928 18.8851 33.5628 19.0451 33.5228C19.1351 33.5028 19.2151 33.4828 19.2951 33.4328C19.3751 33.3828 19.4351 33.3128 19.4551 33.2228C19.4651 33.1628 19.4551 33.1028 19.4351 33.0428C19.3951 32.9328 19.3151 32.8228 19.2051 32.7728C19.1351 32.7328 19.0651 32.7228 18.9851 32.7228C18.9451 32.7228 18.9151 32.7428 18.8751 32.7528C18.8651 32.7528 18.8551 32.7528 18.8351 32.7528C18.7851 32.7528 18.7451 32.7828 18.6951 32.7928C18.5951 32.8328 18.4851 32.8528 18.3951 32.8928C18.3751 32.8928 18.3551 32.9028 18.3251 32.9128C18.2951 32.9128 18.2751 32.9228 18.2451 32.9328C18.1951 32.9528 18.1451 32.9728 18.1051 33.0128Z" fill="#A87832"/>
<path d="M17.7352 32.2428C17.6852 32.4928 17.9752 32.6228 18.1852 32.6028C18.3352 32.5828 18.4652 32.5128 18.5952 32.4528C18.6852 32.4128 18.7652 32.3628 18.8552 32.3228C18.9052 32.3028 18.9452 32.2728 18.9652 32.2228C19.0052 32.1428 18.9352 32.0428 18.8652 31.9628C18.7552 31.8428 18.6252 31.7228 18.4752 31.7228C18.3952 31.7228 18.3252 31.7528 18.2552 31.7828C18.0452 31.8728 17.7852 31.9928 17.7352 32.2428Z" fill="#A87832"/>
<path d="M17.3853 31.0428C17.3253 31.0828 17.2753 31.1328 17.2153 31.1828C17.1753 31.2228 17.1453 31.2528 17.1553 31.3228C17.1753 31.4128 17.2253 31.4928 17.2953 31.5528C17.3953 31.6428 17.5253 31.6828 17.6453 31.6728C17.7453 31.6628 17.8353 31.6028 17.9253 31.5528C18.0153 31.4928 18.1053 31.4428 18.1953 31.3828C18.2253 31.3628 18.2653 31.3428 18.2853 31.3028C18.3253 31.2428 18.3253 31.1628 18.3053 31.0928C18.2853 31.0228 18.2353 30.9528 18.1753 30.9028C18.1253 30.8528 18.0753 30.8128 18.0153 30.7928C17.9353 30.7728 17.8653 30.8028 17.7953 30.8328C17.6553 30.8928 17.5053 30.9528 17.3853 31.0428Z" fill="#A87832"/>
<path d="M16.8554 29.9528C16.7554 30.0128 16.6454 30.0728 16.5954 30.1928C16.5554 30.3028 16.6454 30.4028 16.7054 30.5128C16.7454 30.5728 16.7754 30.6428 16.8354 30.6828C16.9554 30.7728 17.1154 30.7128 17.2354 30.6528C17.3854 30.5828 17.5454 30.4928 17.6354 30.3528C17.6554 30.3128 17.6754 30.2728 17.6854 30.2228C17.6854 30.1428 17.6454 30.0528 17.6054 29.9728C17.5554 29.8928 17.5054 29.8028 17.4254 29.7628C17.3054 29.7028 17.1854 29.7628 17.0754 29.8228C17.0054 29.8628 16.9254 29.9028 16.8554 29.9428V29.9528Z" fill="#A87832"/>
<path d="M16.0652 29.0228C16.0052 29.0828 15.9652 29.1628 15.9752 29.2528C15.9752 29.3328 16.0252 29.4128 16.0852 29.4828C16.1152 29.5128 16.1452 29.5428 16.1652 29.5628C16.2352 29.6328 16.2252 29.7428 16.3152 29.7928C16.3852 29.8328 16.4652 29.7928 16.5352 29.7628C16.6152 29.7228 16.6852 29.6828 16.7652 29.6428C16.8852 29.5828 17.0152 29.5028 17.0252 29.3628C17.0352 29.2528 16.9752 29.1328 16.9052 29.0328C16.8552 28.9528 16.7952 28.8828 16.7152 28.8428C16.5952 28.7828 16.4752 28.8328 16.3652 28.8728C16.2552 28.9128 16.1552 28.9428 16.0652 29.0228Z" fill="#A87832"/>
<path d="M15.3555 28.3128C15.3555 28.4328 15.4255 28.5228 15.5055 28.6228C15.5655 28.7028 15.6355 28.7628 15.7255 28.7828C15.7855 28.7828 15.8355 28.7828 15.8855 28.7628C16.0455 28.7128 16.1855 28.6428 16.3255 28.5628C16.4055 28.5128 16.4855 28.4528 16.4955 28.3528C16.4955 28.3028 16.4855 28.2528 16.4655 28.1928C16.4255 28.0628 16.3755 27.9228 16.2655 27.8428C16.1555 27.7628 16.0255 27.7628 15.9055 27.7828C15.7555 27.8128 15.6055 27.8528 15.5055 27.9628C15.4055 28.0528 15.3555 28.1728 15.3555 28.3128Z" fill="#A87832"/>
<path d="M14.6755 26.8628C14.5155 27.0828 14.7155 27.3428 14.8755 27.5328C14.9055 27.5728 14.9355 27.6128 14.9855 27.6328C15.0255 27.6528 15.0755 27.6528 15.1155 27.6528C15.3255 27.6328 15.4955 27.5128 15.6655 27.3928C15.7155 27.3528 15.7755 27.3128 15.7955 27.2428C15.8255 27.1328 15.7555 27.0128 15.6855 26.9128C15.5955 26.7828 15.4755 26.6628 15.3355 26.6228C15.2155 26.5928 15.0955 26.6228 14.9855 26.6728C14.8755 26.7128 14.7555 26.7728 14.6855 26.8628H14.6755Z" fill="#A87832"/>
<path d="M14.0655 25.6628C13.9755 25.7028 13.8255 25.7828 13.8555 25.9228C13.8655 25.9728 13.9055 26.0228 13.9355 26.0728C13.9755 26.1428 14.0155 26.2228 14.0655 26.2928C14.1155 26.3728 14.1855 26.4428 14.2655 26.4728C14.3555 26.5028 14.4455 26.4728 14.5255 26.4228C14.6555 26.3528 14.7655 26.2628 14.8755 26.1628C14.8955 26.1528 14.9055 26.1328 14.9155 26.1128C14.9255 26.0728 14.9155 26.0228 14.8855 25.9828C14.8155 25.8428 14.7055 25.7228 14.5855 25.6228C14.5255 25.5828 14.4655 25.5428 14.4055 25.5328C14.3455 25.5328 14.2955 25.5528 14.2455 25.5728C14.1855 25.6028 14.1255 25.6328 14.0655 25.6528V25.6628Z" fill="#A87832"/>
<path d="M13.3855 25.2628C13.4255 25.3628 13.5455 25.5128 13.6555 25.5428C13.7955 25.5828 13.8955 25.4428 13.9855 25.3928C14.0555 25.3528 14.1455 25.3428 14.2155 25.3128C14.2955 25.2828 14.3655 25.2428 14.3955 25.1528C14.4355 25.0128 14.3255 24.8328 14.1855 24.7628C14.0455 24.6928 13.8955 24.7128 13.7655 24.7328C13.6255 24.7528 13.4855 24.7928 13.4055 24.9128C13.3455 25.0028 13.3355 25.1528 13.3855 25.2728V25.2628Z" fill="#A87832"/>
<path d="M12.8552 24.1228C12.8552 24.2028 12.8552 24.2828 12.9052 24.3628C12.9552 24.4428 13.0552 24.5228 13.1352 24.5628C13.2552 24.6128 13.3652 24.5828 13.4652 24.5628C13.6152 24.5228 13.7652 24.4728 13.9252 24.4328C13.9552 24.4328 13.9752 24.4128 13.9952 24.4028C14.0552 24.3528 14.0552 24.2528 14.0252 24.1728C13.9752 23.9928 13.8252 23.8428 13.6652 23.7828C13.5052 23.7128 13.3452 23.7128 13.1852 23.7428C13.0952 23.7628 13.0052 23.7928 12.9352 23.8628C12.8652 23.9328 12.8452 24.0328 12.8452 24.1428L12.8552 24.1228Z" fill="#A87832"/>
<path d="M12.6351 23.5528C12.7751 23.6328 12.9151 23.6128 13.0451 23.5728C13.1551 23.5428 13.2651 23.5028 13.3751 23.4528C13.4451 23.4228 13.5251 23.3828 13.5751 23.3128C13.6251 23.2428 13.6551 23.1428 13.6151 23.0428C13.5851 22.9428 13.4951 22.8628 13.3951 22.8328C13.3051 22.8028 13.2151 22.8028 13.1251 22.8128C12.9751 22.8128 12.8251 22.8328 12.6851 22.8628C12.5851 22.8828 12.4951 22.9428 12.4551 23.0528C12.3851 23.2228 12.4551 23.4528 12.6251 23.5528H12.6351Z" fill="#A87832"/>
<path d="M11.9954 22.3228C12.0554 22.5028 12.1254 22.6228 12.2954 22.6728C12.4154 22.7028 12.5254 22.6728 12.6354 22.6328C12.7154 22.6028 12.7954 22.5828 12.8754 22.5528C12.9554 22.5228 13.0454 22.4928 13.1054 22.4228C13.2054 22.2928 13.1454 22.0328 12.9954 21.9228C12.8754 21.8328 12.7254 21.8428 12.5954 21.8428C12.4754 21.8428 12.3454 21.8428 12.2254 21.8828C12.0554 21.9428 11.9254 22.1028 11.9954 22.3328V22.3228Z" fill="#A87832"/>
<path d="M12.0853 21.0928C11.9853 21.1528 11.8853 21.2328 11.8053 21.3128C11.7353 21.3728 11.6753 21.4528 11.6753 21.5728C11.6753 21.6528 11.7153 21.7328 11.7753 21.7828C11.8653 21.8528 11.9653 21.8028 12.0353 21.7628C12.1553 21.6928 12.2753 21.6328 12.4153 21.5928C12.5453 21.5528 12.6953 21.5228 12.7253 21.3628C12.7453 21.2128 12.6053 21.0428 12.4653 21.0028C12.3253 20.9628 12.1953 21.0228 12.0853 21.0928Z" fill="#A87832"/>
<path d="M23.095 32.7028C23.095 32.5128 23.065 32.3328 23.025 32.1528C22.955 32.1728 22.875 32.1828 22.805 32.2028C22.715 32.2228 22.615 32.2328 22.545 32.2828C22.355 32.4028 22.435 32.7528 22.635 32.8528C22.785 32.9328 22.935 32.8428 23.095 32.7828C23.095 32.7628 23.095 32.7328 23.095 32.7128V32.7028Z" fill="#A87832"/>
<path d="M22.315 31.7528C22.315 31.7528 22.405 31.7528 22.445 31.7528C22.595 31.7228 22.745 31.6928 22.905 31.6628C22.855 31.5028 22.795 31.3328 22.715 31.1828C22.685 31.1228 22.655 31.0628 22.635 31.0028C22.475 31.0628 22.175 31.1028 22.095 31.2628C22.015 31.4228 22.155 31.6828 22.315 31.7528Z" fill="#A87832"/>
<path d="M22.1451 29.9928C21.9451 30.0728 21.7351 30.1928 21.6851 30.4128C21.6351 30.6628 21.9151 30.8028 22.1251 30.7828C22.2551 30.7728 22.3751 30.7128 22.4951 30.6628C22.4951 30.6428 22.4751 30.6128 22.4651 30.5928C22.3651 30.3828 22.2651 30.1928 22.1451 29.9928Z" fill="#A87832"/>
<path d="M21.375 29.2128C21.315 29.2528 21.255 29.3028 21.205 29.3528C21.165 29.3928 21.135 29.4228 21.145 29.4928C21.165 29.5828 21.215 29.6628 21.275 29.7228C21.365 29.8128 21.495 29.8628 21.615 29.8528C21.715 29.8428 21.805 29.7928 21.895 29.7428C21.915 29.7328 21.945 29.7128 21.965 29.7028C21.835 29.5028 21.705 29.3128 21.575 29.1128C21.505 29.1428 21.445 29.1728 21.375 29.2128Z" fill="#A87832"/>
<path d="M21.0148 28.2628C21.0148 28.2628 20.9548 28.1628 20.9348 28.1228C20.8748 28.1528 20.8248 28.1828 20.7648 28.2128C20.6648 28.2628 20.5548 28.3328 20.5048 28.4428C20.4548 28.5528 20.5448 28.6628 20.6048 28.7628C20.6348 28.8328 20.6748 28.8928 20.7348 28.9428C20.8548 29.0328 21.0148 28.9828 21.1448 28.9228C21.2248 28.8828 21.3048 28.8428 21.3748 28.7928C21.2948 28.6728 21.2148 28.5528 21.1348 28.4228C21.1048 28.3628 21.0648 28.3128 21.0348 28.2528L21.0148 28.2628Z" fill="#A87832"/>
<path d="M20.5552 27.9228C20.6252 27.8828 20.6952 27.8528 20.7752 27.8128C20.6352 27.5528 20.5152 27.2928 20.3952 27.0228C20.2952 27.0628 20.1952 27.0828 20.1152 27.1528C20.0652 27.1928 20.0252 27.2328 19.9852 27.2928C19.9552 27.3428 19.9252 27.4028 19.9152 27.4628C19.8952 27.5828 19.9152 27.7128 19.9752 27.8128C20.0052 27.8628 20.0452 27.9128 20.0952 27.9428C20.1652 27.9828 20.2452 27.9828 20.3252 27.9728C20.3552 27.9728 20.3852 27.9528 20.4252 27.9528C20.4752 27.9528 20.5152 27.9328 20.5552 27.9128V27.9228Z" fill="#A87832"/>
<path d="M19.9649 25.9128C19.8249 25.9328 19.6849 25.9828 19.5749 26.0728C19.4749 26.1628 19.4249 26.2828 19.4149 26.4228C19.4049 26.5428 19.4849 26.6328 19.5549 26.7328C19.6149 26.8128 19.6849 26.8828 19.7749 26.8928C19.8349 26.9028 19.8849 26.8928 19.9349 26.8728C20.0549 26.8428 20.1649 26.7928 20.2749 26.7428C20.1649 26.4728 20.0649 26.1928 19.9749 25.9028L19.9649 25.9128Z" fill="#A87832"/>
<path d="M19.6749 24.9628C19.6249 24.9228 19.5649 24.8928 19.4949 24.8728C19.3749 24.8428 19.2549 24.8828 19.1449 24.9228C19.0349 24.9628 18.9149 25.0128 18.8349 25.0928C18.6649 25.2828 18.8349 25.5028 18.9749 25.6628C19.0049 25.6928 19.0349 25.7228 19.0749 25.7428C19.1149 25.7628 19.1549 25.7628 19.2049 25.7528C19.4149 25.7328 19.5949 25.6228 19.7649 25.5128C19.7849 25.5028 19.8049 25.4828 19.8249 25.4728C19.8249 25.4528 19.8149 25.4328 19.8049 25.4128C19.7549 25.2628 19.7149 25.1028 19.6749 24.9528V24.9628Z" fill="#A87832"/>
<path d="M18.5551 23.9328C18.5551 23.9328 18.4651 23.9728 18.4251 24.0028C18.4051 24.0228 18.3751 24.0328 18.3551 24.0428C18.3351 24.0628 18.3051 24.0728 18.2851 24.0928C18.2451 24.1328 18.2051 24.1928 18.2051 24.2528C18.2051 24.3128 18.2351 24.3628 18.2651 24.4128C18.3151 24.5128 18.3851 24.6128 18.4851 24.6428C18.5451 24.6628 18.6151 24.6428 18.6751 24.6428C18.7051 24.6428 18.7451 24.6228 18.7751 24.6228C18.8951 24.5928 19.0051 24.5528 19.1151 24.5028C19.1651 24.4828 19.2251 24.4528 19.2751 24.4228C19.2951 24.4228 19.3051 24.4028 19.3051 24.3928C19.3451 24.3228 19.3751 24.2628 19.3551 24.1828C19.3551 24.1028 19.3051 24.0328 19.2651 23.9728C19.2251 23.9028 19.1651 23.8428 19.0951 23.8028C19.0551 23.7828 19.0051 23.7728 18.9551 23.7728C18.9351 23.7728 18.9051 23.7728 18.8851 23.7928C18.8851 23.7928 18.8651 23.8028 18.8651 23.8128C18.8651 23.8128 18.8651 23.8128 18.8451 23.8128C18.8151 23.8228 18.7751 23.8328 18.7451 23.8428C18.6751 23.8728 18.6151 23.8928 18.5451 23.9228L18.5551 23.9328Z" fill="#A87832"/>
<path d="M17.8251 23.4428C17.8651 23.5428 17.9951 23.6928 18.1051 23.7228C18.2551 23.7628 18.3751 23.6228 18.4851 23.5628C18.5651 23.5228 18.6551 23.5128 18.7451 23.4828C18.8351 23.4528 18.9151 23.4028 18.9551 23.3228C19.0151 23.1828 18.8951 22.9928 18.7451 22.9328C18.5951 22.8628 18.4351 22.8828 18.2751 22.9028C18.1251 22.9228 17.9551 22.9628 17.8651 23.0828C17.7951 23.1828 17.7751 23.3228 17.8251 23.4428Z" fill="#A87832"/>
<path d="M17.2849 22.2528C17.2849 22.3328 17.2749 22.4228 17.3249 22.4928C17.3749 22.5828 17.4749 22.6528 17.5649 22.6928C17.6849 22.7428 17.8149 22.7128 17.9249 22.6828C18.0949 22.6428 18.2649 22.5928 18.4349 22.5528C18.4649 22.5528 18.4949 22.5328 18.5149 22.5228C18.5849 22.4728 18.5849 22.3728 18.5649 22.2928C18.5149 22.1128 18.3649 21.9628 18.1949 21.8928C18.0249 21.8228 17.8449 21.8228 17.6749 21.8528C17.5749 21.8728 17.4749 21.9028 17.3949 21.9728C17.3149 22.0428 17.2849 22.1428 17.2749 22.2628L17.2849 22.2528Z" fill="#A87832"/>
<path d="M17.5453 20.9228C17.3853 20.9328 17.2153 20.9428 17.0553 20.9728C16.9353 20.9928 16.8353 21.0528 16.7853 21.1628C16.7053 21.3328 16.7653 21.5628 16.9453 21.6628C17.0953 21.7428 17.2553 21.7228 17.3953 21.6828C17.5253 21.6528 17.6453 21.6128 17.7653 21.5628C17.8453 21.5328 17.9353 21.4828 17.9953 21.4228C18.0353 21.3728 18.0653 21.3028 18.0653 21.2328C17.9753 21.1328 17.8853 21.0328 17.7953 20.9328C17.7053 20.9128 17.6153 20.9128 17.5353 20.9128L17.5453 20.9228Z" fill="#A87832"/>
<path d="M16.325 20.4328C16.375 20.6128 16.455 20.7328 16.635 20.7828C16.765 20.8128 16.895 20.7828 17.005 20.7428C17.095 20.7128 17.185 20.6828 17.275 20.6628C17.325 20.6428 17.375 20.6328 17.425 20.6028C17.145 20.3728 16.845 20.1728 16.515 20.0128C16.365 20.0828 16.255 20.2328 16.315 20.4328H16.325Z" fill="#A87832"/>
<path d="M15.8049 19.9828C15.8249 19.8528 15.7049 19.7228 15.5649 19.6828C15.4349 19.6428 15.2949 19.6628 15.1549 19.6828C15.0349 19.7028 14.9249 19.7228 14.8049 19.7428C14.7149 19.7528 14.6149 19.7828 14.5749 19.8528C14.5249 19.9428 14.5949 20.0728 14.6749 20.1528C14.8349 20.3028 15.0549 20.3728 15.2649 20.3528C15.4749 20.3328 15.6549 20.2128 15.7549 20.0428L15.7949 19.9928L15.8049 19.9828Z" fill="#A87832"/>
<path d="M16.1049 20.7528C15.9049 20.6528 15.7149 20.8328 15.5049 20.8628C15.3449 20.8828 15.1649 20.8328 15.0449 20.9328C14.9349 21.0228 14.9549 21.2228 15.0649 21.3328C15.1749 21.4428 15.3449 21.4828 15.4949 21.4828C15.6449 21.4828 15.7949 21.4328 15.9449 21.4028C16.0349 21.3828 16.1349 21.3728 16.2049 21.3228C16.3949 21.2028 16.3149 20.8528 16.1149 20.7528H16.1049Z" fill="#A87832"/>
<path d="M16.655 22.3328C16.735 22.1728 16.595 21.9128 16.435 21.8428C16.395 21.8328 16.345 21.8428 16.305 21.8428C16.015 21.9028 15.715 21.9628 15.425 22.0228C15.395 22.0228 15.365 22.0328 15.345 22.0528C15.295 22.1028 15.325 22.1928 15.365 22.2528C15.485 22.4428 15.655 22.6328 15.875 22.6428C15.955 22.6428 16.035 22.6228 16.115 22.5928C16.275 22.5328 16.575 22.4928 16.655 22.3328Z" fill="#A87832"/>
<path d="M17.065 23.1828C17.115 22.9328 16.835 22.7928 16.625 22.8128C16.475 22.8228 16.345 22.8928 16.215 22.9528C16.125 22.9928 16.045 23.0328 15.955 23.0828C15.905 23.1028 15.865 23.1328 15.835 23.1728C15.795 23.2528 15.865 23.3528 15.925 23.4328C16.025 23.5528 16.155 23.6728 16.305 23.6828C16.385 23.6828 16.455 23.6628 16.525 23.6328C16.735 23.5428 16.995 23.4328 17.055 23.1828H17.065Z" fill="#A87832"/>
<path d="M17.3851 24.3828C17.4451 24.3428 17.5051 24.2928 17.5551 24.2428C17.5951 24.2028 17.6251 24.1728 17.6151 24.1028C17.5951 24.0128 17.5451 23.9328 17.4851 23.8728C17.3951 23.7828 17.2651 23.7328 17.1451 23.7428C17.0451 23.7528 16.9551 23.8028 16.8651 23.8528C16.7751 23.9028 16.6851 23.9628 16.5951 24.0128C16.5551 24.0328 16.5251 24.0528 16.4951 24.0828C16.4551 24.1328 16.4451 24.2228 16.4651 24.2928C16.4851 24.3628 16.5351 24.4328 16.5851 24.4928C16.6351 24.5428 16.6851 24.5928 16.7451 24.6028C16.8251 24.6228 16.8951 24.6028 16.9651 24.5728C17.1051 24.5128 17.2551 24.4628 17.3851 24.3728V24.3828Z" fill="#A87832"/>
<path d="M17.8849 25.4928C17.9849 25.4428 18.0949 25.3728 18.1449 25.2628C18.1949 25.1528 18.1049 25.0428 18.0449 24.9428C18.0149 24.8728 17.9749 24.8128 17.9149 24.7628C17.7949 24.6728 17.6349 24.7228 17.5049 24.7828C17.3549 24.8528 17.1949 24.9328 17.0949 25.0728C17.0749 25.1128 17.0549 25.1528 17.0449 25.2028C17.0449 25.2828 17.0749 25.3728 17.1149 25.4528C17.1549 25.5328 17.2149 25.6228 17.2949 25.6628C17.4149 25.7228 17.5349 25.6628 17.6449 25.6128C17.7149 25.5728 17.7949 25.5328 17.8649 25.4928H17.8849Z" fill="#A87832"/>
<path d="M18.6449 26.4328C18.7049 26.3728 18.7449 26.2928 18.7449 26.2028C18.7449 26.1228 18.6949 26.0428 18.6449 25.9728C18.6149 25.9428 18.5949 25.9128 18.5649 25.8828C18.5049 25.8128 18.5049 25.7028 18.4249 25.6428C18.3549 25.6028 18.2749 25.6328 18.2049 25.6628C18.1249 25.7028 18.0449 25.7428 17.9649 25.7828C17.8449 25.8428 17.7149 25.9228 17.6949 26.0628C17.6749 26.1728 17.7449 26.2928 17.8049 26.4028C17.8549 26.4828 17.9149 26.5628 17.9849 26.6028C18.0949 26.6628 18.2249 26.6228 18.3349 26.5828C18.4449 26.5428 18.5449 26.5228 18.6349 26.4428L18.6449 26.4328Z" fill="#A87832"/>
<path d="M19.3448 27.1728C19.3448 27.0528 19.2748 26.9628 19.2048 26.8628C19.1448 26.7828 19.0748 26.7128 18.9848 26.7028C18.9248 26.6928 18.8748 26.7028 18.8248 26.7228C18.6648 26.7728 18.5148 26.8328 18.3748 26.9128C18.2948 26.9628 18.2148 27.0228 18.1948 27.1228C18.1948 27.1728 18.1948 27.2228 18.2148 27.2828C18.2548 27.4128 18.2948 27.5528 18.4048 27.6428C18.5148 27.7228 18.6448 27.7228 18.7648 27.7128C18.9148 27.6928 19.0648 27.6428 19.1748 27.5428C19.2748 27.4528 19.3248 27.3328 19.3348 27.1928L19.3448 27.1728Z" fill="#A87832"/>
<path d="M19.9851 28.6328C20.1451 28.4128 19.9551 28.1528 19.8051 27.9528C19.7751 27.9128 19.7451 27.8728 19.7051 27.8528C19.6651 27.8328 19.6151 27.8228 19.5751 27.8328C19.3651 27.8428 19.1851 27.9628 19.0251 28.0828C18.9651 28.1228 18.9151 28.1628 18.8951 28.2328C18.8651 28.3428 18.9251 28.4628 18.9951 28.5628C19.0851 28.6928 19.1951 28.8228 19.3351 28.8628C19.4551 28.9028 19.5751 28.8628 19.6851 28.8228C19.7951 28.7828 19.9151 28.7328 19.9851 28.6328Z" fill="#A87832"/>
<path d="M20.5647 29.8528C20.6547 29.8128 20.8047 29.7428 20.7747 29.5928C20.7647 29.5428 20.7247 29.4928 20.7047 29.4428C20.6647 29.3728 20.6247 29.2928 20.5847 29.2128C20.5347 29.1328 20.4747 29.0528 20.3847 29.0328C20.2947 29.0028 20.2047 29.0328 20.1247 29.0828C19.9947 29.1528 19.8747 29.2328 19.7747 29.3328C19.7547 29.3428 19.7447 29.3628 19.7347 29.3828C19.7247 29.4228 19.7347 29.4728 19.7647 29.5128C19.8347 29.6528 19.9347 29.7828 20.0547 29.8828C20.1047 29.9328 20.1747 29.9728 20.2347 29.9728C20.2947 29.9728 20.3447 29.9528 20.3947 29.9328C20.4547 29.9028 20.5147 29.8828 20.5747 29.8528H20.5647Z" fill="#A87832"/>
<path d="M21.235 30.2628C21.195 30.1628 21.075 30.0128 20.975 29.9728C20.845 29.9228 20.735 30.0628 20.635 30.1228C20.565 30.1628 20.475 30.1728 20.405 30.1928C20.325 30.2128 20.245 30.2628 20.225 30.3528C20.175 30.4928 20.295 30.6728 20.425 30.7528C20.565 30.8228 20.705 30.8128 20.845 30.7928C20.985 30.7728 21.125 30.7428 21.215 30.6228C21.285 30.5328 21.295 30.3928 21.245 30.2628H21.235Z" fill="#A87832"/>
<path d="M21.7347 31.4228C21.7347 31.3428 21.7347 31.2628 21.6947 31.1828C21.6447 31.0928 21.5547 31.0228 21.4647 30.9828C21.3547 30.9328 21.2347 30.9528 21.1347 30.9828C20.9847 31.0228 20.8247 31.0628 20.6747 31.1028C20.6447 31.1028 20.6247 31.1128 20.6047 31.1328C20.5447 31.1728 20.5447 31.2728 20.5647 31.3628C20.6147 31.5428 20.7547 31.6928 20.9147 31.7628C21.0747 31.8328 21.2347 31.8428 21.3847 31.8128C21.4747 31.7928 21.5647 31.7628 21.6347 31.7028C21.7047 31.6328 21.7247 31.5328 21.7347 31.4228Z" fill="#A87832"/>
<path d="M21.9448 32.0028C21.8148 31.9228 21.6648 31.9428 21.5348 31.9728C21.4248 32.0028 21.3048 32.0328 21.2048 32.0828C21.1248 32.1128 21.0548 32.1528 21.0048 32.2228C20.9548 32.2928 20.9248 32.3928 20.9548 32.4828C20.9848 32.5828 21.0748 32.6628 21.1648 32.6928C21.2548 32.7228 21.3448 32.7228 21.4348 32.7228C21.5848 32.7228 21.7348 32.7128 21.8748 32.6928C21.9848 32.6728 22.0648 32.6128 22.1148 32.5128C22.1848 32.3528 22.1148 32.1128 21.9548 32.0128L21.9448 32.0028Z" fill="#A87832"/>
<path d="M22.5551 33.2328C22.5051 33.0528 22.4351 32.9328 22.2651 32.8728C22.1451 32.8328 22.0351 32.8728 21.9251 32.9028C21.8451 32.9328 21.7651 32.9528 21.6751 32.9828C21.5851 33.0128 21.5051 33.0428 21.4451 33.1128C21.3451 33.2428 21.3951 33.5028 21.5451 33.6128C21.6651 33.7128 21.8051 33.7028 21.9451 33.7028C22.0651 33.7028 22.1951 33.7028 22.3151 33.6728C22.4851 33.6228 22.6251 33.4628 22.5551 33.2328Z" fill="#A87832"/>
<path d="M22.4349 34.4728C22.5349 34.4128 22.6249 34.3528 22.7049 34.2728C22.7549 34.1828 22.8049 34.0928 22.8549 34.0028C22.8549 33.9228 22.8249 33.8428 22.7549 33.7928C22.6649 33.7228 22.5649 33.7628 22.4949 33.8028C22.3749 33.8628 22.2449 33.9228 22.1149 33.9628C21.9849 33.9928 21.8249 34.0328 21.8049 34.1828C21.7749 34.3328 21.9149 34.5128 22.0549 34.5528C22.1949 34.5928 22.3249 34.5428 22.4449 34.4728H22.4349Z" fill="#A87832"/>
<path d="M16.8951 32.1528C16.9551 32.1028 17.0051 32.0528 17.0351 31.9828C17.0751 31.8728 17.0551 31.7428 16.9851 31.6528C16.9851 31.6528 16.9751 31.6328 16.9651 31.6328C16.9651 31.6328 16.9651 31.6328 16.9551 31.6228C16.9151 31.5828 16.8651 31.5428 16.8151 31.5228C16.7851 31.5128 16.7551 31.5028 16.7251 31.4928C16.7151 31.4928 16.7051 31.4928 16.6851 31.4928C16.6851 31.4928 16.6751 31.4928 16.6651 31.4928C16.6251 31.4928 16.5951 31.4928 16.5551 31.4928C16.4151 31.5228 16.3051 31.6128 16.1951 31.6928C16.1351 31.7428 16.0751 31.7928 16.0151 31.8328C16.0451 32.0128 16.0651 32.1828 16.1051 32.3628C16.1551 32.3628 16.2151 32.3828 16.2651 32.3728C16.3351 32.3728 16.4051 32.3428 16.4751 32.3328C16.6251 32.3128 16.7651 32.2528 16.8851 32.1528H16.8951Z" fill="#A87832"/>
<path d="M16.3649 30.6528C16.2549 30.5328 15.9449 30.5728 15.7949 30.5828C15.7749 30.5828 15.7549 30.5828 15.7349 30.5928C15.7649 30.6528 15.7949 30.7228 15.8149 30.7828C15.8649 30.9228 15.9049 31.0728 15.9349 31.2128C16.0549 31.2128 16.3149 31.1428 16.3949 31.0728C16.5049 30.9728 16.4749 30.7628 16.3649 30.6528Z" fill="#A87832"/>
<path d="M15.835 30.0128C15.835 30.0128 15.895 29.9928 15.915 29.9728C15.965 29.9228 15.915 29.8328 15.885 29.7628C15.765 29.5728 15.585 29.3828 15.365 29.3828C15.285 29.3828 15.205 29.4128 15.135 29.4428C15.115 29.4428 15.095 29.4528 15.085 29.4628C15.105 29.4828 15.125 29.5128 15.135 29.5328C15.265 29.7128 15.375 29.9028 15.475 30.1028C15.595 30.0728 15.715 30.0428 15.835 30.0128Z" fill="#A87832"/>
<path d="M15.025 29.0928C15.105 29.0428 15.195 28.9928 15.275 28.9528C15.315 28.9228 15.365 28.9028 15.385 28.8528C15.415 28.7628 15.355 28.6628 15.285 28.5928C15.185 28.4728 15.055 28.3628 14.905 28.3628C14.825 28.3628 14.755 28.3928 14.695 28.4328C14.585 28.4828 14.475 28.5528 14.375 28.6328C14.545 28.8128 14.705 29.0028 14.855 29.2028C14.915 29.1728 14.965 29.1428 15.025 29.1128V29.0928Z" fill="#A87832"/>
<path d="M14.635 28.0228C14.635 28.0228 14.705 27.9728 14.725 27.9428C14.765 27.8828 14.765 27.8028 14.745 27.7328C14.725 27.6628 14.675 27.5928 14.625 27.5428C14.575 27.4928 14.525 27.4528 14.465 27.4428C14.395 27.4228 14.325 27.4628 14.255 27.4928C14.115 27.5628 13.985 27.6228 13.865 27.7228C13.805 27.7628 13.755 27.8228 13.705 27.8728C13.685 27.8928 13.675 27.9128 13.665 27.9328C13.715 27.9728 13.765 28.0228 13.805 28.0628C13.905 28.1528 14.005 28.2528 14.105 28.3528C14.105 28.3528 14.105 28.3528 14.115 28.3528C14.215 28.3328 14.295 28.2828 14.375 28.2228C14.465 28.1628 14.545 28.1028 14.635 28.0428V28.0228Z" fill="#A87832"/>
<path d="M13.365 27.6328C13.415 27.6128 13.465 27.5928 13.515 27.5728C13.655 27.4928 13.805 27.4028 13.885 27.2528C13.905 27.2128 13.925 27.1728 13.925 27.1228C13.925 27.0328 13.885 26.9528 13.845 26.8828C13.805 26.8028 13.745 26.7228 13.675 26.6828C13.565 26.6328 13.445 26.7028 13.355 26.7628C13.285 26.8128 13.215 26.8528 13.155 26.9028C13.065 26.9628 12.965 27.0328 12.915 27.1528C12.915 27.1728 12.915 27.1928 12.915 27.2028C13.005 27.2928 13.105 27.3928 13.195 27.4828C13.255 27.5328 13.315 27.5928 13.375 27.6428L13.365 27.6328Z" fill="#A87832"/>
<path d="M12.645 26.9428C12.645 26.9428 12.675 26.9328 12.685 26.9228C12.775 26.8728 12.875 26.8228 12.965 26.7628C13.105 26.6828 13.265 26.5828 13.295 26.4328C13.315 26.3128 13.255 26.2028 13.185 26.1128C13.135 26.0428 13.065 25.9728 12.975 25.9428C12.845 25.9028 12.695 25.9628 12.565 26.0228C12.435 26.0828 12.315 26.1228 12.205 26.2228C12.175 26.2528 12.145 26.2828 12.125 26.3228C12.285 26.5328 12.455 26.7328 12.625 26.9228L12.645 26.9428Z" fill="#A87832"/>
<path d="M11.8847 25.9628C11.8847 25.9628 11.9147 25.9828 11.9347 25.9828C11.9847 25.9828 12.0347 25.9728 12.0747 25.9528C12.2147 25.8928 12.3547 25.8228 12.4747 25.7328C12.5547 25.6728 12.6347 25.6228 12.6947 25.5528C12.7547 25.4828 12.8047 25.4028 12.8047 25.3128C12.8047 25.2228 12.7847 25.1428 12.7247 25.0728C12.6647 25.0128 12.5747 24.9728 12.4947 24.9628C12.4247 24.9528 12.3647 24.9628 12.2947 24.9628C12.2747 24.9628 12.2447 24.9628 12.2247 24.9828C12.1847 25.0028 12.1347 25.0028 12.0947 25.0128C11.9647 25.0528 11.8347 25.1028 11.7347 25.2128C11.6747 25.2828 11.6347 25.3728 11.6147 25.4628C11.6747 25.6028 11.7347 25.7328 11.8047 25.8628C11.8247 25.8928 11.8447 25.9328 11.8647 25.9628H11.8847Z" fill="#A87832"/>
<path d="M11.2349 24.0328C11.0949 24.2528 11.2649 24.4828 11.4049 24.6528C11.4349 24.6828 11.4649 24.7228 11.4949 24.7428C11.5349 24.7628 11.5749 24.7628 11.6049 24.7428C11.7949 24.7128 11.9449 24.5728 12.0849 24.4428C12.1349 24.4028 12.1849 24.3528 12.2049 24.2828C12.2349 24.1728 12.1649 24.0628 12.1049 23.9728C12.0249 23.8628 11.9249 23.7528 11.7949 23.7228C11.6849 23.7028 11.5849 23.7528 11.4849 23.8028C11.3849 23.8528 11.2849 23.9128 11.2249 24.0128L11.2349 24.0328Z" fill="#A87832"/>
<path d="M11.4053 22.5128C11.4053 22.5128 11.3153 22.4528 11.2853 22.4828C11.2753 22.4828 11.2653 22.5028 11.2553 22.5228C11.1353 22.7528 11.1353 23.0228 11.1353 23.2728C11.1353 23.3428 11.1353 23.4328 11.1953 23.4728C11.2553 23.5228 11.3453 23.5028 11.4153 23.4728C11.4953 23.4328 11.5653 23.3828 11.6253 23.3228C11.6753 23.2728 11.7153 23.2028 11.7353 23.1328C11.7553 23.0728 11.7153 23.0128 11.6953 22.9628C11.6653 22.8828 11.6253 22.8028 11.5853 22.7328C11.5453 22.6628 11.4953 22.5928 11.4253 22.5328C11.4253 22.5328 11.4053 22.5228 11.4053 22.5128Z" fill="#A87832"/>
<g style="mix-blend-mode:multiply" opacity="0.55">
<path d="M20.0448 35.1228C18.5048 34.6428 17.6448 33.2728 17.3648 31.7428C17.2948 31.3828 17.2848 31.0128 17.2848 30.6428C17.2848 30.5228 17.3048 30.4028 17.2848 30.2828C17.2248 30.0628 17.3448 29.7928 17.4648 29.6128C17.5948 29.4028 17.7748 29.2328 17.9748 29.0828C18.1948 28.9128 18.4448 28.7828 18.6748 28.6328C18.7848 28.5628 18.9048 28.4828 19.0048 28.3928C19.2348 28.2128 19.3748 27.9628 19.4848 27.6928C19.5048 27.6428 19.5248 27.5828 19.5248 27.5328C19.5248 27.3928 19.3748 27.3028 19.2448 27.2528C18.7348 27.0628 18.1748 27.0728 17.6248 27.0328C17.3048 27.0128 16.9848 26.9628 16.6848 26.8528C16.5348 26.8028 16.3948 26.7328 16.2748 26.6428C16.2148 26.6028 16.1548 26.5628 16.0948 26.5228C16.0648 26.5028 16.0448 26.4828 16.0248 26.4628C15.8848 26.3128 15.7548 26.1328 15.6248 25.9728C14.5648 24.6328 13.7648 22.9128 14.4148 21.2028C14.6748 20.5228 15.1448 20.0428 15.7148 19.7028C15.3848 19.6128 15.0548 19.5528 14.7148 19.5228C14.5248 19.5128 14.3348 19.5028 14.1548 19.5228C14.1148 19.5228 14.0748 19.5328 14.0348 19.5528C13.9048 19.5928 13.7648 19.5828 13.6348 19.6028C13.1048 19.6928 12.5948 19.9128 12.1748 20.2528C11.0248 21.2228 10.7948 22.9828 11.2548 24.4128C11.3048 24.5628 11.3448 24.7228 11.4248 24.8528C11.4448 24.8828 11.4648 24.9028 11.4748 24.9328C11.5148 25.0328 11.5348 25.1428 11.5648 25.2428C11.6348 25.4528 11.7348 25.6528 11.8448 25.8428C12.0648 26.2328 12.3548 26.5928 12.6648 26.9128C12.8448 27.1028 13.0248 27.2828 13.2148 27.4528C13.3048 27.5328 13.4048 27.6028 13.4748 27.7028C13.5048 27.7428 13.5448 27.7728 13.5848 27.8028C13.6648 27.8728 13.7548 27.9528 13.8348 28.0228C13.9948 28.1728 14.1548 28.3328 14.3148 28.4928C14.6248 28.8128 14.9148 29.1528 15.1648 29.5228C15.3648 29.8228 15.5348 30.1328 15.7048 30.4528C15.7548 30.5528 15.8048 30.6628 15.8448 30.7728C15.9248 30.9928 15.9748 31.2228 16.0148 31.4528C16.0748 31.7828 16.1148 32.1228 16.1748 32.4528C16.2948 33.0828 16.5348 33.6928 16.8548 34.2528C17.0548 34.6028 17.3148 34.9328 17.6548 35.1528C17.7248 35.1928 17.7848 35.2328 17.8548 35.2728C17.9248 35.3228 17.9948 35.3728 18.0648 35.4128C18.2148 35.5028 18.3648 35.5728 18.5248 35.6428C18.6248 35.6828 18.7248 35.7128 18.8248 35.7428C19.0848 35.8228 19.3448 35.8428 19.6248 35.8428C20.0548 35.8428 20.4748 35.7728 20.8848 35.6328C21.1248 35.5528 21.3548 35.4428 21.5748 35.3228C21.0648 35.3228 20.5448 35.2528 20.0848 35.1128L20.0448 35.1228Z" fill="#957A40"/>
</g>
<g style="mix-blend-mode:multiply" opacity="0.55">
<path d="M20.5049 35.7428C20.6149 35.7128 20.7349 35.6828 20.8449 35.6428C21.3349 35.4728 21.8049 35.2128 22.1949 34.8528C22.1449 34.8228 22.0949 34.8028 22.0449 34.7728C21.9249 34.7128 21.8049 34.6628 21.6649 34.6528C21.4149 34.6228 21.1449 34.6828 20.9349 34.8328C20.9049 34.8528 20.8849 34.8728 20.8549 34.8928C20.6149 35.1028 20.4849 35.4228 20.5049 35.7428Z" fill="#957A40"/>
</g>
<g style="mix-blend-mode:multiply" opacity="0.55">
<path d="M14.0052 20.4028C14.2752 20.2028 14.4952 19.9428 14.6652 19.6528C14.6852 19.6128 14.7052 19.5728 14.7252 19.5328C14.7252 19.5328 14.7052 19.5328 14.6952 19.5328C14.5052 19.5228 14.3152 19.5128 14.1352 19.5328C14.0952 19.5328 14.0552 19.5428 14.0152 19.5628C13.8852 19.6028 13.7452 19.5928 13.6152 19.6128C13.0852 19.7028 12.5752 19.9228 12.1552 20.2628C12.1152 20.3028 12.0752 20.3328 12.0352 20.3728C12.0952 20.5128 12.1852 20.6528 12.3052 20.7328C12.5352 20.8928 12.8352 20.8828 13.1052 20.8228C13.4252 20.7528 13.7352 20.6028 14.0052 20.4028Z" fill="#957A40"/>
</g>
<g style="mix-blend-mode:screen" opacity="0.55">
<path d="M13.7251 19.5928C13.7251 19.5928 13.7351 19.5928 13.7451 19.5928C13.7051 19.5928 13.6551 19.5928 13.6151 19.6028C13.5851 19.6028 13.5451 19.6228 13.5151 19.6228C13.5851 19.6228 13.6551 19.6128 13.7251 19.5928Z" fill="url(#paint1_radial_1_910)"/>
<path d="M22.4353 34.6328C22.4353 34.6328 22.4353 34.6228 22.4453 34.6128C22.9153 34.0828 23.1253 33.3928 23.0953 32.6928C23.0853 32.3428 23.0153 32.0028 22.9053 31.6628C22.8553 31.5028 22.7953 31.3128 22.7153 31.1628C22.6153 30.9828 22.5553 30.7728 22.4653 30.5828C22.1053 29.8028 21.5653 29.1328 21.1153 28.4128C21.0853 28.3528 21.0453 28.3028 21.0153 28.2428C20.9753 28.1728 20.9353 28.1128 20.8953 28.0428C20.4253 27.2128 20.0753 26.3228 19.8053 25.4128C19.6653 24.9528 19.5453 24.4928 19.4353 24.0328C19.3853 23.8328 19.3553 23.6228 19.2653 23.4428C19.1653 23.2528 19.1153 23.0328 19.0353 22.8428C18.9353 22.6028 18.8153 22.3628 18.6853 22.1228C18.4153 21.6428 18.0853 21.1928 17.6953 20.8128C17.1653 20.3028 16.5053 19.9328 15.8053 19.7128C15.4453 19.6028 15.0753 19.5328 14.7053 19.5128C14.5153 19.5028 14.3253 19.4928 14.1453 19.5128C14.1053 19.5128 14.0653 19.5228 14.0253 19.5428C13.9953 19.5428 13.9553 19.5528 13.9253 19.5628C14.0853 19.5628 14.2553 19.5628 14.4153 19.5628C14.7853 19.5828 15.1653 19.6528 15.5153 19.7628C16.2153 19.9828 16.8753 20.3528 17.4053 20.8628C17.8053 21.2428 18.1353 21.6928 18.3953 22.1728C18.5253 22.4028 18.6353 22.6428 18.7453 22.8928C18.8253 23.0828 18.8753 23.3128 18.9753 23.4928C19.0753 23.6728 19.1053 23.8828 19.1453 24.0828C19.2553 24.5428 19.3753 25.0128 19.5153 25.4628C19.7853 26.3728 20.1353 27.2628 20.6053 28.0928C20.6453 28.1628 20.6853 28.2228 20.7253 28.2928C20.7553 28.3528 20.7953 28.4028 20.8253 28.4628C21.2753 29.1828 21.8153 29.8528 22.1753 30.6328C22.2653 30.8228 22.3153 31.0328 22.4253 31.2128C22.5153 31.3628 22.5653 31.5428 22.6153 31.7128C22.7253 32.0428 22.7953 32.3928 22.8053 32.7428C22.8353 33.4428 22.6253 34.1328 22.1553 34.6628C22.1553 34.6628 22.1553 34.6728 22.1453 34.6828C21.7253 35.1528 21.1553 35.4928 20.5553 35.7028C20.3853 35.7628 20.2053 35.8028 20.0353 35.8328C20.3153 35.8028 20.5853 35.7428 20.8553 35.6528C21.4553 35.4528 22.0153 35.1028 22.4453 34.6328H22.4353Z" fill="url(#paint2_radial_1_910)"/>
</g>
<path d="M42.3552 34.3728C42.3552 34.3728 42.7452 30.3528 37.7052 28.4728C32.6752 26.5928 30.5552 25.9428 30.9052 29.6928C31.2552 33.4328 33.4752 36.5428 37.4652 37.4728C41.4552 38.4028 42.4552 35.5828 42.3452 34.3828L42.3552 34.3728Z" fill="#8F410C"/>
<path d="M38.6653 29.9228C38.0753 29.5528 37.4153 29.2828 36.8353 28.8828C36.2853 28.5028 35.8253 28.0028 35.2853 27.5928C34.4453 27.3128 33.7353 27.1128 33.1353 27.0228C33.1753 27.0528 33.2453 27.0828 33.2753 27.0928C33.4153 27.1528 33.5653 27.2028 33.7153 27.2528C33.9953 27.3528 34.2853 27.4628 34.5253 27.6528C34.9553 27.9928 35.1853 28.5128 35.5153 28.9428C35.8653 29.3928 36.3253 29.7528 36.8553 29.9728C37.3553 30.1828 37.9053 30.2728 38.4053 30.4928C39.4253 30.9528 40.1353 31.9628 41.1853 32.3728C40.4253 31.4628 39.6553 30.5428 38.6553 29.9128L38.6653 29.9228Z" fill="#7A2700"/>
<path d="M36.5254 30.6428C37.4054 30.9828 37.9954 31.7928 38.7154 32.4128C39.7854 33.3328 41.1554 33.8228 42.3654 34.5528C42.3654 34.4928 42.3654 34.4328 42.3654 34.3728C42.3654 34.3728 42.3854 34.1228 42.3454 33.7128C42.1254 33.6228 41.9054 33.5428 41.6954 33.4728C41.3854 33.3628 41.0754 33.2528 40.7754 33.1228C39.2754 32.4528 38.0954 31.1328 36.5254 30.6528V30.6428Z" fill="#7A2700"/>
<path d="M40.6354 34.4928C40.4054 34.2928 40.1954 34.0628 39.9354 33.9128C39.5054 33.6528 38.9654 33.6028 38.5454 33.3228C38.0654 33.0028 37.8154 32.4328 37.3854 32.0528C36.9254 31.6528 36.3054 31.5028 35.8154 31.1328C35.1254 30.6228 34.8054 29.7628 34.3354 29.0428C34.2854 28.9728 34.2354 28.9028 34.1854 28.8228C33.7754 28.2428 33.2454 27.7428 32.6454 27.3628C32.4054 27.2128 32.1454 27.1028 31.8854 27.0228C31.7354 27.0628 31.6054 27.1328 31.4854 27.2228C31.9954 27.4828 32.4554 27.8528 32.8654 28.2528C33.3654 28.7628 33.8054 29.3328 34.2254 29.9028C34.3354 30.0528 34.4554 30.2128 34.5154 30.3928C34.5754 30.5828 34.5854 30.7828 34.6454 30.9628C34.9254 31.7628 36.0754 31.8028 36.6954 32.3928C36.8954 32.5728 37.0254 32.8128 37.2054 33.0128C37.8954 33.7928 39.0654 33.9328 39.9354 34.5128C40.4154 34.8328 40.8054 35.2928 41.3054 35.5828C41.5254 35.7128 41.7753 35.8028 42.0253 35.8628C42.0853 35.7428 42.1354 35.6228 42.1754 35.5028C41.6253 35.2028 41.0954 34.8728 40.6254 34.4528L40.6354 34.4928Z" fill="#7A2700"/>
<path d="M34.595 31.7928C34.295 31.6028 33.945 31.5028 33.675 31.2728C33.285 30.9328 33.135 30.4028 32.905 29.9428C32.765 29.6628 32.575 29.4028 32.355 29.1728C31.965 28.7728 31.485 28.4628 30.955 28.2828C30.955 28.2828 30.955 28.2828 30.945 28.2828C30.915 28.4728 30.895 28.6828 30.895 28.9228C31.335 29.2328 31.685 29.7528 31.935 30.2428C32.205 30.7628 32.465 31.3328 32.985 31.5928C33.205 31.7028 33.455 31.7528 33.675 31.8328C34.145 32.0128 34.515 32.3828 34.935 32.6628C35.345 32.9528 35.875 33.1728 36.355 33.0128C35.635 32.9428 35.215 32.1828 34.605 31.7928H34.595Z" fill="#7A2700"/>
<path d="M41.0151 37.0728C41.3251 36.8628 41.5751 36.6128 41.7651 36.3328C41.3751 36.1828 40.9951 35.9428 40.6551 35.7028C40.1051 35.3328 39.5651 34.9528 39.0151 34.5828C38.5651 34.2728 38.1151 33.9628 37.5951 33.8028C36.9351 33.5928 36.2351 33.6328 35.5551 33.4828C34.8251 33.3228 34.1651 32.9428 33.5151 32.5628C34.0751 33.3328 34.8751 33.9128 35.7851 34.2028C36.2351 34.3528 36.7051 34.4228 37.1651 34.5428C38.3851 34.8628 39.5151 35.5328 40.3851 36.4528C40.5851 36.6628 40.7851 36.8828 41.0051 37.0628L41.0151 37.0728Z" fill="#7A2700"/>
<path d="M39.1253 36.7828C38.7653 36.5228 38.3353 36.4028 37.9553 36.1728C37.5853 35.9628 37.2853 35.6528 36.9253 35.4228C35.9453 34.7928 34.6253 34.7528 33.7853 33.9528C33.2253 33.4128 32.9753 32.6228 32.4853 32.0228C32.2153 31.6928 31.8653 31.4028 31.4753 31.2328C31.3853 31.1928 31.2753 31.1828 31.1753 31.1928C31.2453 31.4928 31.3353 31.7828 31.4353 32.0728C31.7353 32.1628 32.0553 32.2828 32.2453 32.5428C32.4953 32.8828 32.5053 33.4128 32.8653 33.6228C33.0253 33.7128 33.2153 33.7228 33.3753 33.8028C33.7053 33.9628 33.8153 34.3728 34.0553 34.6628C34.2553 34.9128 34.5553 35.0728 34.8453 35.2228C35.9953 35.8028 37.2053 36.2928 38.2453 37.0628C38.5053 37.2528 38.7553 37.4528 39.0153 37.6528C39.3153 37.6528 39.5953 37.6228 39.8453 37.5728C39.6253 37.2928 39.4153 37.0028 39.1253 36.7928V36.7828Z" fill="#7A2700"/>
<path d="M37.205 37.3928C36.845 37.2028 36.495 36.9928 36.175 36.7528C35.865 36.5228 35.575 36.2728 35.245 36.0728C34.865 35.8428 34.435 35.7028 34.015 35.5628C33.865 35.5128 33.725 35.4828 33.585 35.4428C34.545 36.3428 35.755 37.0128 37.205 37.3928Z" fill="#7A2700"/>
<g style="mix-blend-mode:multiply" opacity="0.55">
<path d="M37.0351 34.3428C35.5251 33.7028 34.2751 32.7328 33.3351 31.3828C32.7751 30.5728 32.3751 29.6828 31.9551 28.8028C31.7651 28.4328 31.5851 28.0628 31.4251 27.6728C31.3951 27.6228 31.3851 27.5928 31.3651 27.5528C31.3151 27.5328 31.2851 27.5028 31.2451 27.4728C30.9251 27.9028 30.8151 28.6028 30.9151 29.6828C31.2651 33.4228 33.4851 36.5328 37.4751 37.4628C41.2851 38.3428 42.3651 35.8228 42.3551 34.5428C40.9251 35.5928 38.9651 35.1528 37.0251 34.3428H37.0351Z" fill="#8F410C"/>
</g>
<path d="M33.4151 34.0428C33.4151 34.0428 30.2751 31.5028 25.9251 34.6628C21.5751 37.8228 19.8751 39.2328 23.1951 41.0028C26.5151 42.7728 30.3351 42.6328 33.3051 39.8228C36.2751 37.0028 34.4751 34.6228 33.4151 34.0428Z" fill="#8F410C"/>
<path d="M27.6753 34.6628C27.0353 34.9528 26.4553 35.3528 25.8053 35.6128C25.1753 35.8628 24.5153 35.9728 23.8753 36.1928C23.1753 36.7428 22.6153 37.2228 22.2153 37.6728C22.2653 37.6628 22.3253 37.6128 22.3553 37.5928C22.4853 37.5128 22.6053 37.4128 22.7353 37.3128C22.9753 37.1328 23.2253 36.9528 23.5153 36.8528C24.0353 36.6828 24.5953 36.7728 25.1353 36.7328C25.7053 36.6928 26.2553 36.5028 26.7353 36.1828C27.1953 35.8828 27.5653 35.4628 28.0253 35.1728C28.9753 34.5728 30.2053 34.5328 31.1253 33.8928C29.9553 34.0228 28.7553 34.1628 27.6853 34.6428L27.6753 34.6628Z" fill="#7A2700"/>
<path d="M27.085 36.8428C27.855 36.2928 28.865 36.2528 29.765 35.9928C31.125 35.6028 32.285 34.7328 33.565 34.1328C33.515 34.1028 33.465 34.0628 33.415 34.0428C33.415 34.0428 33.215 33.8828 32.855 33.6928C32.655 33.8228 32.475 33.9728 32.295 34.1028C32.035 34.3028 31.775 34.4928 31.495 34.6728C30.105 35.5528 28.355 35.8028 27.085 36.8528V36.8428Z" fill="#7A2700"/>
<path d="M32.5649 35.5428C32.2749 35.6228 31.9649 35.6728 31.6949 35.8028C31.2449 36.0228 30.9049 36.4428 30.4349 36.6328C29.9049 36.8528 29.2849 36.7528 28.7349 36.9028C28.1449 37.0628 27.6749 37.5028 27.1049 37.7028C26.2949 37.9928 25.4049 37.7928 24.5449 37.7828C24.4549 37.7828 24.3749 37.7828 24.2849 37.7828C23.5749 37.8128 22.8649 37.9728 22.2149 38.2628C21.9549 38.3828 21.7249 38.5328 21.5149 38.7128C21.4649 38.8628 21.4549 39.0128 21.4649 39.1528C21.9649 38.8728 22.5249 38.6828 23.0849 38.5728C23.7849 38.4328 24.5049 38.3828 25.2149 38.3428C25.4049 38.3328 25.6049 38.3228 25.7849 38.3728C25.9749 38.4228 26.1449 38.5328 26.3349 38.5828C27.1649 38.7928 27.8249 37.8528 28.6549 37.6628C28.9149 37.6028 29.1949 37.6128 29.4549 37.5828C30.4949 37.4428 31.2549 36.5428 32.2149 36.1328C32.7449 35.9128 33.3449 35.8328 33.8649 35.5828C34.0949 35.4728 34.3049 35.3128 34.4949 35.1328C34.4249 35.0228 34.3549 34.9128 34.2849 34.8128C33.7349 35.1028 33.1649 35.3728 32.5549 35.5228L32.5649 35.5428Z" fill="#7A2700"/>
<path d="M26.9749 39.0928C26.6549 39.2428 26.3749 39.4728 26.0249 39.5728C25.5249 39.7128 25.0049 39.5428 24.4849 39.4828C24.1649 39.4428 23.8449 39.4628 23.5349 39.5128C22.9849 39.6128 22.4649 39.8528 22.0249 40.1928C22.1649 40.3228 22.3349 40.4528 22.5249 40.5928C23.0349 40.4028 23.6449 40.3928 24.2049 40.4528C24.7849 40.5128 25.4049 40.6128 25.9149 40.3228C26.1249 40.2028 26.3049 40.0228 26.5049 39.8828C26.9149 39.5928 27.4249 39.4828 27.8949 39.2928C28.3649 39.1028 28.8349 38.7928 28.9649 38.3028C28.5049 38.8628 27.6449 38.7928 26.9849 39.0928H26.9749Z" fill="#7A2700"/>
<path d="M34.9249 36.6428C34.9249 36.2628 34.8449 35.9228 34.7249 35.6028C34.3849 35.8428 33.9749 36.0228 33.5849 36.1828C32.9749 36.4328 32.3549 36.6828 31.7449 36.9328C31.2449 37.1328 30.7349 37.3428 30.3049 37.6828C29.7649 38.1128 29.4149 38.7328 28.9149 39.2028C28.3749 39.7228 27.6949 40.0628 27.0249 40.3928C27.9749 40.3528 28.9049 40.0028 29.6449 39.4028C30.0149 39.1028 30.3349 38.7528 30.6949 38.4328C31.6349 37.5928 32.8249 37.0128 34.0649 36.8028C34.3449 36.7528 34.6449 36.7128 34.9149 36.6228L34.9249 36.6428Z" fill="#7A2700"/>
<path d="M33.6352 38.0628C33.2252 38.2128 32.8752 38.5128 32.4852 38.7128C32.1052 38.9028 31.6852 38.9828 31.2952 39.1628C30.2252 39.6328 29.4652 40.7128 28.3352 40.9728C27.5752 41.1428 26.7852 40.9128 26.0152 40.9928C25.5952 41.0328 25.1552 41.1628 24.7952 41.3928C24.7052 41.4528 24.6452 41.5328 24.5952 41.6128C24.8852 41.7128 25.1752 41.8028 25.4752 41.8828C25.7152 41.6828 25.9952 41.4828 26.3152 41.4728C26.7352 41.4528 27.1852 41.7428 27.5552 41.5528C27.7152 41.4728 27.8252 41.3228 27.9852 41.2328C28.3052 41.0528 28.7052 41.1828 29.0752 41.1428C29.3952 41.1128 29.6952 40.9528 29.9752 40.7928C31.0952 40.1528 32.1752 39.4228 33.3852 38.9728C33.6852 38.8628 33.9952 38.7628 34.3052 38.6528C34.4652 38.4028 34.5952 38.1528 34.6952 37.9128C34.3352 37.9428 33.9752 37.9628 33.6452 38.0828L33.6352 38.0628Z" fill="#7A2700"/>
<path d="M33.0953 39.9928C32.7353 40.1828 32.3753 40.3628 31.9953 40.5028C31.6353 40.6328 31.2653 40.7328 30.9153 40.9028C30.5153 41.0928 30.1653 41.3728 29.8053 41.6428C29.6853 41.7328 29.5753 41.8328 29.4653 41.9328C30.7453 41.6228 31.9753 40.9928 33.0953 39.9928Z" fill="#7A2700"/>
<g style="mix-blend-mode:multiply" opacity="0.55">
<path d="M30.4549 38.4628C29.0949 39.3728 27.5949 39.8828 25.9449 39.9128C24.9649 39.9328 23.9949 39.7728 23.0349 39.6428C22.6249 39.6028 22.2149 39.5428 21.8049 39.4628C21.7549 39.4628 21.7149 39.4528 21.6749 39.4428C21.6349 39.4628 21.5849 39.4828 21.5449 39.5028C21.7249 40.0028 22.2449 40.4928 23.2049 41.0028C26.5249 42.7728 30.3449 42.6328 33.3149 39.8228C36.1549 37.1328 34.6349 34.8428 33.5749 34.1328C33.6649 35.9128 32.2149 37.3028 30.4649 38.4628H30.4549Z" fill="#8F410C"/>
</g>
<path d="M37.7955 18.1628C37.6555 16.6728 36.9655 15.2428 35.8855 14.2128C35.4155 13.7628 34.8755 13.3828 34.3455 13.0128C32.7455 11.8928 31.0555 10.7528 29.1255 10.4828C28.3955 10.3828 27.6655 10.4128 26.9355 10.4828C26.0255 10.5528 25.1055 10.6828 24.2555 11.0228C24.2155 11.0428 24.1655 11.0628 24.1255 11.0828C23.7955 11.2228 23.4855 11.4028 23.1855 11.6028C23.0355 11.7028 22.8955 11.8128 22.7555 11.9228C22.6255 12.0328 22.4855 12.1528 22.3755 12.2828C22.1455 12.5628 22.0255 12.9028 21.8155 13.1928C21.7555 13.2728 21.6855 13.3528 21.5955 13.4028C21.5355 13.4328 21.4455 13.4528 21.4155 13.5128C21.3655 13.6328 21.2855 13.7528 21.2255 13.8728C21.1355 14.0628 21.0455 14.2628 20.9755 14.4528C20.4155 15.9828 20.4755 17.7128 21.0655 19.2228C21.3755 20.0228 21.8255 20.7528 22.3055 21.4628C22.7855 22.1828 23.3155 22.8928 24.0355 23.3828C24.5955 23.7628 25.2555 23.9828 25.9055 24.1928C27.9355 24.8528 30.1055 25.4628 32.1855 24.9628C32.9055 24.7928 33.5855 24.4828 34.2455 24.1628C35.1755 23.7128 36.0855 23.2028 36.8855 22.5428C37.2555 22.2428 37.5955 21.8928 37.8055 21.4728C38.0055 21.0628 38.0055 20.6728 37.9355 20.2228C37.8655 19.8228 37.8655 19.4028 37.8555 18.9928C37.8555 18.7228 37.8355 18.4428 37.8155 18.1728L37.7955 18.1628Z" fill="url(#paint3_radial_1_910)"/>
<path style="mix-blend-mode:multiply" opacity="0.85" d="M36.0455 21.4428C35.6855 21.4028 35.2455 21.4428 34.9655 21.4028C34.0055 21.2328 32.9255 20.9228 32.0555 20.4528C30.3855 19.5528 29.0955 18.4828 27.2055 18.0128C25.2355 17.5228 22.3455 16.0528 21.1655 13.9928C21.0955 14.1428 21.0255 14.2828 20.9755 14.4428C20.4155 15.9728 20.4755 17.7028 21.0655 19.2128C21.3755 20.0128 21.8255 20.7428 22.3055 21.4528C22.7855 22.1728 23.3155 22.8828 24.0355 23.3728C24.5955 23.7528 25.2555 23.9728 25.9055 24.1828C27.9355 24.8428 30.1055 25.4528 32.1855 24.9528C32.9055 24.7828 33.5855 24.4728 34.2455 24.1528C35.1755 23.7028 36.0855 23.1928 36.8855 22.5328C37.0955 22.3628 37.2955 22.1728 37.4655 21.9628C36.9855 21.9828 36.4855 21.8328 36.0555 21.4428H36.0455Z" fill="url(#paint4_radial_1_910)"/>
<path d="M31.0054 19.2428C29.6054 18.5928 28.2154 17.9528 26.8154 17.3028C25.6754 16.7728 24.5354 16.2428 23.5154 15.5228C23.2154 15.3128 22.9354 15.0828 22.6654 14.8328C22.2154 14.4228 21.8054 13.9728 21.4354 13.4928C21.2854 13.7528 21.1554 14.0128 21.0454 14.2928C23.3554 17.2228 26.9854 18.7328 30.4554 20.1128C31.7254 20.6228 32.9954 21.1228 34.2754 21.6328C35.0254 21.9328 35.7954 22.2328 36.6054 22.2928C36.7954 22.3028 36.9954 22.2928 37.1954 22.2828C37.4454 22.0428 37.6754 21.7828 37.8254 21.4728C35.4554 21.2928 33.1954 20.2628 31.0254 19.2628L31.0054 19.2428Z" fill="url(#paint5_radial_1_910)"/>
<path d="M37.3253 21.6028C36.4953 21.5428 35.5553 21.4228 34.7753 21.1228C33.4653 20.6028 31.8553 19.9528 30.5353 19.4428C28.4353 18.6128 26.0853 17.6028 24.3053 16.4128C23.0953 15.6028 22.3153 14.7628 21.3653 13.6028C21.3053 13.7128 21.2453 13.8128 21.1953 13.9228C22.1053 15.0428 22.8153 15.8528 23.9653 16.6528C25.8053 17.9228 28.2453 18.9728 30.4453 19.8428C31.7553 20.3628 33.3653 21.0128 34.6853 21.5228C35.4653 21.8328 36.3953 21.9428 37.2353 22.0028C37.3053 22.0028 37.3653 22.0028 37.4353 22.0028C37.5453 21.8728 37.6453 21.7428 37.7253 21.6028C37.5953 21.6028 37.4653 21.6028 37.3453 21.6028H37.3253Z" fill="#542409"/>
<path d="M25.1354 12.1128C25.2354 12.1328 25.3354 12.1528 25.4154 12.2028C25.5054 12.2628 25.5654 12.3528 25.6454 12.4128C25.6754 12.4428 25.7254 12.4528 25.7654 12.4728C25.8454 12.5228 25.9154 12.5828 25.9754 12.6528C26.1054 12.7828 26.2254 12.9328 26.3754 13.0428C26.6254 13.2128 26.9454 13.2528 27.2054 13.4128C27.5554 13.6128 27.7854 14.0128 28.1754 14.1428C27.6954 14.1928 27.3154 13.7428 26.8654 13.5728C26.6254 13.4828 26.3454 13.4628 26.1454 13.2928C25.9454 13.1328 25.8554 12.8728 25.6754 12.7028C25.4954 12.5328 25.2454 12.4628 25.0054 12.4028C24.4354 12.2628 23.8654 12.1128 23.2954 11.9728C23.3254 11.9728 23.4254 11.9228 23.4454 11.9128C23.5054 11.8928 23.5554 11.8828 23.6154 11.8628C23.7354 11.8428 23.8554 11.8328 23.9854 11.8428C24.2454 11.8628 24.4854 12.0228 24.7454 12.0628C24.8754 12.0828 25.0154 12.0928 25.1454 12.1128H25.1354Z" fill="#8C4A13"/>
<path d="M28.8157 12.5628C29.1557 12.7628 29.4457 13.0528 29.7957 13.2428C30.1757 13.4428 30.6257 13.4928 30.9957 13.7228C31.3457 13.9428 31.5857 14.3028 31.9357 14.5228C32.1957 14.6828 32.5257 14.7728 32.6757 15.0328C32.2157 14.8928 31.7757 14.6828 31.3657 14.4228C31.2657 14.3528 31.1657 14.2828 31.0757 14.2028C30.9857 14.1228 30.9057 14.0228 30.8157 13.9528C30.4957 13.7028 30.0357 13.7428 29.6657 13.5728C29.4557 13.4828 29.2757 13.3228 29.0857 13.1828C28.6357 12.8528 28.1057 12.6228 27.5657 12.5128C27.4057 12.4828 27.2557 12.4628 27.0957 12.4428C27.2557 12.3828 27.4357 12.3028 27.6057 12.2828C27.8557 12.2628 28.1257 12.2928 28.3657 12.3728C28.5257 12.4228 28.6757 12.4828 28.8157 12.5728V12.5628Z" fill="#8C4A13"/>
<path d="M27.9257 11.1528C28.1757 11.2728 28.3957 11.4528 28.6557 11.5728C29.1657 11.8028 29.7857 11.7628 30.2657 12.0428C30.5157 12.1828 30.7157 12.4028 30.9757 12.5128C31.2157 12.6028 31.5357 12.6328 31.6357 12.8628C31.2557 12.6928 30.7857 12.7628 30.4257 12.5528C30.2857 12.4728 30.1657 12.3528 30.0257 12.2628C29.8657 12.1628 29.6757 12.1128 29.4957 12.0628C29.0557 11.9428 28.6257 11.8228 28.1857 11.7028C28.0857 11.6728 27.9857 11.6428 27.8957 11.5928C27.7957 11.5428 27.7157 11.4628 27.6257 11.4128C27.5357 11.3628 27.4257 11.3428 27.3257 11.3128C26.8957 11.2028 26.4557 11.1428 26.0157 11.0928C25.8857 11.0828 25.7657 11.0728 25.6357 11.0528C25.8657 11.0028 26.0957 10.9928 26.3257 10.9728C26.6757 10.9428 27.0257 10.9228 27.3657 10.9728C27.5557 11.0028 27.7457 11.0628 27.9157 11.1428L27.9257 11.1528Z" fill="#8C4A13"/>
<path d="M33.2157 13.6228C33.5657 13.8328 33.8457 14.1528 34.2157 14.3228C34.4357 14.4228 34.6757 14.4628 34.9057 14.5528C35.2257 14.6828 35.5157 14.8928 35.7157 15.1728C35.7857 15.2628 35.8457 15.3628 35.9257 15.4428C36.0057 15.5128 36.1057 15.5628 36.1957 15.6228C36.4757 15.8128 36.6557 16.1428 36.6557 16.4828C36.5157 16.1228 35.9957 16.1028 35.7457 15.8128C35.6457 15.7028 35.5957 15.5628 35.5157 15.4428C35.1557 14.9128 34.4057 14.8828 33.8757 14.5228C33.7257 14.4228 33.5957 14.2928 33.4457 14.1728C32.8857 13.7428 32.1957 13.6428 31.5257 13.5228C31.5057 13.5228 31.4057 13.5128 31.4157 13.4728C31.4157 13.4428 31.5357 13.4228 31.5557 13.4228C31.7657 13.3828 31.9857 13.3628 32.2057 13.3628C32.5557 13.3628 32.9057 13.4328 33.2157 13.6128V13.6228Z" fill="#8C4A13"/>
<path d="M31.4956 11.7028C31.7056 11.8628 31.9056 12.0428 32.1456 12.1428C32.3856 12.2428 32.6556 12.2528 32.8556 12.4128C33.0656 12.5728 33.1756 12.8628 33.4056 12.9828C33.5056 13.0328 33.6256 13.0528 33.7356 13.0928C33.9056 13.1528 34.0556 13.2828 34.1456 13.4428C33.7056 13.3728 33.2456 13.2828 32.9156 12.9828C32.7556 12.8328 32.6256 12.6328 32.4356 12.5328C32.3156 12.4728 32.1856 12.4428 32.0556 12.4028C31.6456 12.2628 31.3156 11.9628 30.9356 11.7528C30.5556 11.5328 30.1256 11.4228 29.6956 11.3428C29.4756 11.3028 29.2556 11.2728 29.0356 11.2428C29.0256 11.2428 28.7856 11.2328 28.7856 11.1928C28.7856 11.1328 29.2456 11.1228 29.2856 11.1228C29.5856 11.1128 29.8856 11.1128 30.1856 11.1628C30.5956 11.2328 30.9956 11.3928 31.3556 11.6228C31.3956 11.6528 31.4356 11.6828 31.4756 11.7128L31.4956 11.7028Z" fill="#8C4A13"/>
<path d="M34.6357 15.6528C34.9257 15.9028 35.1257 16.2428 35.4457 16.4528C35.6057 16.5528 35.7857 16.6228 35.9557 16.7128C36.5157 17.0028 36.9357 17.4928 37.3457 17.9728C36.9957 17.9128 36.6757 17.7228 36.4457 17.4528C36.3457 17.3328 36.2657 17.2028 36.1357 17.1228C35.9757 17.0328 35.7757 17.0428 35.6157 16.9728C35.3357 16.8528 35.2057 16.5128 34.9557 16.3328C34.7957 16.2228 34.5957 16.1728 34.4357 16.0528C34.3357 15.9728 34.2657 15.8728 34.1857 15.7928C33.8757 15.4928 33.4657 15.4228 33.0757 15.3228C33.2457 15.2828 33.4357 15.2328 33.6157 15.2428C33.8557 15.2628 34.0857 15.3228 34.3057 15.4328C34.4357 15.4928 34.5457 15.5728 34.6557 15.6628L34.6357 15.6528Z" fill="#8C4A13"/>
<path d="M29.9558 14.7528C30.3458 14.9028 30.6958 15.1328 31.0758 15.2828C31.5858 15.4728 32.1758 15.5228 32.5558 15.9128C32.6858 16.0428 32.7758 16.2028 32.9158 16.3128C33.1558 16.4928 33.4858 16.5028 33.7458 16.6428C34.0258 16.7928 34.1958 17.0828 34.4358 17.2828C34.7558 17.5428 35.2258 17.7028 35.3158 18.1028C35.1458 17.7828 34.6558 17.8128 34.4158 17.5428C34.3258 17.4428 34.2758 17.3228 34.1858 17.2328C34.0158 17.0728 33.7558 17.0828 33.5558 16.9728C33.3958 16.8828 33.2858 16.7228 33.1258 16.6328C32.9558 16.5428 32.7558 16.5528 32.5858 16.4728C32.3358 16.3428 32.2158 16.0528 31.9858 15.8928C31.7358 15.7128 31.4158 15.7228 31.1258 15.6428C30.6558 15.5228 30.2658 15.1928 29.8058 15.0128C29.5858 14.9528 29.3758 14.8828 29.1558 14.8528C28.9258 14.8228 28.6958 14.8128 28.4658 14.7928C28.8458 14.6928 29.2058 14.5728 29.5958 14.6428C29.7158 14.6628 29.8358 14.7028 29.9558 14.7428V14.7528Z" fill="#8C4A13"/>
<path d="M35.6554 18.6128C35.8454 18.7428 36.0254 18.8828 36.2254 18.9828C36.4754 19.0928 36.7654 19.1228 37.0054 19.2728C37.3454 19.4828 37.4854 19.8928 37.6154 20.2728C37.2854 20.1528 37.1754 19.7228 36.8854 19.5228C36.7354 19.4228 36.5454 19.3828 36.3754 19.3328C36.1654 19.2628 35.9654 19.1428 35.7854 19.0028C35.6954 18.9328 35.6254 18.8428 35.5254 18.7828C35.4154 18.7128 35.2854 18.6728 35.1654 18.6328C34.7454 18.4928 34.3154 18.3728 33.8854 18.2428C33.7654 18.2028 33.6454 18.1728 33.5254 18.1328C33.7754 18.1028 34.0554 18.1328 34.3054 18.1528C34.6154 18.1828 34.9154 18.2628 35.1954 18.3828C35.3554 18.4528 35.5154 18.5328 35.6654 18.6328L35.6554 18.6128Z" fill="#8C4A13"/>
<path d="M28.3955 15.2328C28.5855 15.4028 28.7555 15.5928 28.9855 15.7128C29.1855 15.8128 29.4155 15.8428 29.6355 15.9028C30.0555 16.0128 30.4455 16.2228 30.7655 16.5228C30.8855 16.6328 30.9955 16.7628 31.1355 16.8528C31.2855 16.9528 31.4655 17.0028 31.6355 17.0728C32.0855 17.2628 32.4655 17.6028 32.8455 17.9228C32.5655 17.9528 32.2855 17.8728 32.0655 17.7028C31.9555 17.6228 31.8655 17.5228 31.7455 17.4428C31.5355 17.3028 31.2855 17.2428 31.0455 17.1528C30.7855 17.0528 30.5455 16.9128 30.3455 16.7328C30.2155 16.6228 30.1055 16.5028 29.9655 16.4128C29.8055 16.3128 29.6255 16.2528 29.4455 16.1928C28.9755 16.0428 28.4955 15.8928 28.0955 15.6028C27.9655 15.5028 27.8455 15.3928 27.6955 15.3128C27.5855 15.2428 27.4655 15.1928 27.3455 15.1428C26.8655 14.9428 26.3855 14.7428 25.9155 14.5528C25.9255 14.5528 26.0055 14.5128 26.0255 14.5128C26.0655 14.5028 26.1155 14.4928 26.1555 14.4828C26.2255 14.4828 26.2955 14.4828 26.3655 14.4828C26.5455 14.4828 26.7155 14.4828 26.8955 14.5128C27.2455 14.5628 27.5955 14.6828 27.9055 14.8528C28.0855 14.9528 28.2455 15.0728 28.3955 15.2028V15.2328Z" fill="#8C4A13"/>
<path d="M24.2956 13.5628C24.4256 13.7428 24.5156 13.9628 24.7056 14.0828C24.8556 14.1828 25.0356 14.2128 25.1856 14.3128C25.3956 14.4528 25.4956 14.7228 25.6856 14.8928C26.0256 15.2128 26.6556 15.2328 26.8256 15.6728C26.4056 15.5928 25.9556 15.5028 25.6456 15.2028C25.4456 15.0128 25.3156 14.7328 25.0756 14.5928C24.9756 14.5328 24.8656 14.4928 24.7556 14.4528C24.5856 14.3828 24.4156 14.2828 24.2556 14.1828C24.1756 14.1328 24.0956 14.0828 24.0356 14.0128C23.9556 13.9228 23.9156 13.8028 23.8556 13.7028C23.6056 13.2628 23.1156 13.0628 22.6556 12.9428C22.5256 12.9028 22.3856 12.8828 22.2456 12.8428C22.4456 12.6528 22.6556 12.6528 22.8956 12.7228C23.2456 12.8228 23.5756 12.9028 23.8756 13.1228C24.0456 13.2428 24.1856 13.3928 24.3056 13.5628H24.2956Z" fill="#8C4A13"/>
<path d="M24.8457 15.2528C25.0457 15.3528 25.2757 15.4028 25.4557 15.5328C25.6457 15.6628 25.7757 15.8828 25.9757 16.0128C26.2657 16.1928 26.6557 16.1428 26.9557 16.3128C27.1957 16.4528 27.3457 16.7128 27.5857 16.8428C27.7657 16.9428 27.9757 16.9628 28.1657 17.0428C28.3557 17.1228 28.5357 17.2828 28.5157 17.4928C28.2657 17.3628 27.9957 17.2728 27.7257 17.2328C27.6057 17.2128 27.4757 17.2028 27.3757 17.1328C27.2957 17.0728 27.2457 16.9828 27.1757 16.9128C26.7957 16.4628 26.0457 16.5628 25.5957 16.1828C25.4657 16.0728 25.3657 15.9328 25.2457 15.8228C24.9057 15.5028 24.4057 15.4028 24.0957 15.0628C24.0057 14.9628 23.9257 14.8428 23.8357 14.7428C23.6057 14.5028 23.2757 14.4028 22.9557 14.3328C22.8957 14.3228 22.5857 14.2728 22.7957 14.2128C22.9757 14.1628 23.1857 14.1628 23.3657 14.1828C23.6457 14.2128 23.8557 14.3328 24.0557 14.5328C24.3057 14.7828 24.5157 15.0928 24.8357 15.2628L24.8457 15.2528Z" fill="#8C4A13"/>
<path d="M30.7354 17.6828C31.0454 17.9228 31.2754 18.2628 31.6254 18.4528C32.0054 18.6628 32.4654 18.6628 32.8554 18.8428C33.2654 19.0328 33.5754 19.4028 34.0054 19.5228C34.1554 19.5628 34.3054 19.5828 34.4454 19.6328C34.7054 19.7328 34.8954 19.9528 35.0654 20.1628C34.6654 20.0328 34.2554 19.9028 33.8554 19.7628C33.7254 19.7228 33.5854 19.6728 33.4654 19.6028C33.3154 19.5128 33.1954 19.3828 33.0354 19.3028C32.6954 19.1328 32.2554 19.2228 31.9354 19.0128C31.8054 18.9228 31.6954 18.7828 31.5554 18.7128C31.2854 18.5628 30.8954 18.6528 30.6954 18.4228C30.5854 18.2928 30.5654 18.1028 30.4554 17.9828C30.3854 17.9128 30.2954 17.8828 30.2054 17.8428C29.9654 17.7828 29.7354 17.6628 29.5054 17.5828C29.2754 17.4928 29.0254 17.4128 28.7954 17.3128C29.2954 17.2528 29.7854 17.2328 30.2654 17.4128C30.4354 17.4728 30.5854 17.5628 30.7254 17.6728L30.7354 17.6828Z" fill="#8C4A13"/>
<path d="M36.5054 20.3128C36.7154 20.4528 36.9754 20.5028 37.2154 20.5928C37.4554 20.6828 37.6954 20.8428 37.7454 21.0928C37.4654 20.8128 37.0254 20.8328 36.6654 20.6828C36.2554 20.5028 35.9654 20.1028 35.5454 19.9528C35.4354 19.9128 35.3254 19.8928 35.2254 19.8428C35.0654 19.7628 34.9354 19.6228 34.7854 19.5228C34.6454 19.4428 34.4954 19.3928 34.3354 19.3328C34.3254 19.3328 34.2354 19.3028 34.2454 19.2828C34.2454 19.2628 34.3454 19.2728 34.3554 19.2728C34.5554 19.2728 34.7554 19.3128 34.9454 19.3528C35.1654 19.4028 35.3954 19.4528 35.6054 19.5528C35.7854 19.6428 35.9554 19.7628 36.0954 19.9128C36.2254 20.0528 36.3554 20.2128 36.5154 20.3228L36.5054 20.3128Z" fill="#8C4A13"/>
<path d="M31.8956 23.7428C31.8156 23.7328 31.7456 23.7128 31.6756 23.6828C31.6056 23.6428 31.5556 23.5728 31.4956 23.5328C31.4656 23.5128 31.4356 23.5028 31.4056 23.4928C31.3456 23.4628 31.2856 23.4128 31.2356 23.3628C31.1256 23.2728 31.0356 23.1628 30.9156 23.0828C30.7156 22.9628 30.4656 22.9328 30.2556 22.8228C29.9756 22.6828 29.7856 22.3928 29.4756 22.3028C29.8456 22.2628 30.1556 22.5828 30.5156 22.7028C30.7056 22.7728 30.9256 22.7828 31.0856 22.8928C31.2456 23.0028 31.3256 23.1928 31.4756 23.3128C31.6256 23.4328 31.8156 23.4828 32.0056 23.5228C32.4556 23.6228 32.8956 23.7228 33.3456 23.8128C33.3256 23.8128 33.2456 23.8528 33.2256 23.8628C33.1856 23.8728 33.1356 23.8928 33.0956 23.9028C33.0056 23.9228 32.9056 23.9328 32.8156 23.9228C32.6056 23.9228 32.4256 23.8028 32.2156 23.7728C32.1156 23.7528 32.0056 23.7528 31.9056 23.7428H31.8956Z" fill="#7D3B13"/>
<path d="M28.6757 23.2328C28.4057 23.0928 28.1757 22.8828 27.8957 22.7528C27.5957 22.6128 27.2457 22.5828 26.9457 22.4228C26.6657 22.2628 26.4657 22.0028 26.1857 21.8528C25.9757 21.7428 25.7257 21.6828 25.5957 21.4928C25.9557 21.5928 26.3057 21.7328 26.6357 21.9228C26.7157 21.9728 26.7957 22.0228 26.8657 22.0828C26.9357 22.1428 27.0057 22.2128 27.0757 22.2628C27.3357 22.4428 27.6857 22.4028 27.9857 22.5228C28.1557 22.5928 28.2957 22.7028 28.4457 22.7928C28.8057 23.0328 29.2257 23.1928 29.6457 23.2628C29.7657 23.2828 29.8857 23.2928 30.0157 23.3028C29.8957 23.3528 29.7557 23.4128 29.6257 23.4228C29.4357 23.4428 29.2257 23.4228 29.0357 23.3728C28.9157 23.3428 28.7957 23.2928 28.6757 23.2328Z" fill="#7D3B13"/>
<path d="M29.4158 24.2428C29.2158 24.1528 29.0358 24.0328 28.8358 23.9428C28.4358 23.7828 27.9558 23.8228 27.5758 23.6228C27.3758 23.5228 27.2158 23.3628 27.0058 23.2928C26.8158 23.2228 26.5658 23.2128 26.4858 23.0428C26.7858 23.1628 27.1458 23.1028 27.4358 23.2528C27.5458 23.3128 27.6458 23.3928 27.7558 23.4528C27.8858 23.5228 28.0258 23.5628 28.1758 23.5928L29.2058 23.8428C29.2858 23.8628 29.3658 23.8828 29.4358 23.9128C29.5158 23.9528 29.5758 24.0028 29.6558 24.0428C29.7258 24.0728 29.8058 24.0928 29.8858 24.1128C30.2158 24.1928 30.5658 24.2228 30.9058 24.2528C31.0058 24.2528 31.1058 24.2628 31.1958 24.2728C31.0258 24.3128 30.8458 24.3228 30.6658 24.3328C30.3958 24.3528 30.1258 24.3728 29.8558 24.3328C29.7058 24.3128 29.5658 24.2728 29.4258 24.2128L29.4158 24.2428Z" fill="#7D3B13"/>
<path d="M25.2358 22.5128C24.9558 22.3628 24.7258 22.1328 24.4358 22.0128C24.2658 21.9428 24.0758 21.9128 23.8958 21.8528C23.6458 21.7628 23.4158 21.6128 23.2458 21.4128C23.1858 21.3428 23.1358 21.2728 23.0758 21.2228C23.0058 21.1728 22.9358 21.1428 22.8558 21.0928C22.6258 20.9628 22.4758 20.7128 22.4658 20.4728C22.5858 20.7328 22.9858 20.7428 23.1958 20.9428C23.2758 21.0228 23.3258 21.1228 23.3958 21.2128C23.6858 21.5928 24.2758 21.6128 24.6958 21.8628C24.8158 21.9328 24.9258 22.0328 25.0358 22.1128C25.4858 22.4128 26.0258 22.4828 26.5458 22.5628C26.5658 22.5628 26.6358 22.5628 26.6358 22.5928C26.6358 22.6128 26.5458 22.6328 26.5258 22.6328C26.3658 22.6728 26.1958 22.6828 26.0258 22.6828C25.7558 22.6828 25.4758 22.6428 25.2358 22.5128Z" fill="#7D3B13"/>
<path d="M26.6356 23.8928C26.4656 23.7828 26.3056 23.6528 26.1156 23.5828C25.9256 23.5128 25.7156 23.5028 25.5556 23.3928C25.3856 23.2828 25.2956 23.0628 25.1056 22.9828C25.0256 22.9428 24.9356 22.9328 24.8456 22.9128C24.7056 22.8728 24.5856 22.7828 24.5156 22.6628C24.8556 22.7128 25.2156 22.7728 25.4856 22.9828C25.6156 23.0928 25.7256 23.2328 25.8756 23.3028C25.9656 23.3428 26.0756 23.3628 26.1756 23.3928C26.4956 23.4828 26.7656 23.7028 27.0656 23.8528C27.3656 24.0028 27.7056 24.0828 28.0356 24.1328C28.2056 24.1628 28.3756 24.1728 28.5456 24.1928C28.5456 24.1928 28.7356 24.1928 28.7356 24.2228C28.7356 24.2628 28.3856 24.2828 28.3556 24.2828C28.1256 24.2928 27.8856 24.3028 27.6556 24.2628C27.3356 24.2128 27.0156 24.1028 26.7356 23.9428C26.7056 23.9228 26.6656 23.9028 26.6356 23.8828V23.8928Z" fill="#7D3B13"/>
<path d="M24.0555 21.0528C23.8255 20.8728 23.6555 20.6328 23.3955 20.4828C23.2655 20.4128 23.1255 20.3628 22.9955 20.3028C22.5455 20.1028 22.2055 19.7428 21.8755 19.4028C22.1455 19.4428 22.4055 19.5728 22.5955 19.7728C22.6755 19.8528 22.7455 19.9528 22.8455 20.0128C22.9755 20.0728 23.1255 20.0628 23.2555 20.1228C23.4755 20.2128 23.5855 20.4528 23.7955 20.5828C23.9255 20.6628 24.0855 20.6928 24.2055 20.7828C24.2855 20.8328 24.3455 20.9128 24.4155 20.9728C24.6655 21.1828 24.9855 21.2328 25.2955 21.3028C25.1655 21.3328 25.0155 21.3728 24.8755 21.3628C24.6955 21.3628 24.5055 21.3128 24.3355 21.2328C24.2355 21.1928 24.1455 21.1328 24.0555 21.0628V21.0528Z" fill="#7D3B13"/>
<path d="M27.7155 21.6528C27.4155 21.5528 27.1355 21.3828 26.8255 21.2828C26.4255 21.1528 25.9655 21.1228 25.6555 20.8428C25.5555 20.7528 25.4755 20.6328 25.3555 20.5528C25.1655 20.4228 24.9055 20.4228 24.7055 20.3228C24.4855 20.2128 24.3455 20.0028 24.1455 19.8628C23.8855 19.6728 23.5155 19.5628 23.4355 19.2728C23.5855 19.5028 23.9555 19.4728 24.1555 19.6728C24.2255 19.7428 24.2655 19.8328 24.3455 19.8928C24.4855 20.0028 24.6855 19.9928 24.8455 20.0728C24.9755 20.1328 25.0655 20.2528 25.1855 20.3128C25.3155 20.3728 25.4755 20.3628 25.6055 20.4228C25.8055 20.5128 25.9055 20.7228 26.0855 20.8428C26.2855 20.9628 26.5355 20.9628 26.7655 21.0128C27.1355 21.0928 27.4555 21.3328 27.8155 21.4528C27.9855 21.4928 28.1455 21.5428 28.3255 21.5628C28.5055 21.5828 28.6855 21.5828 28.8555 21.5928C28.5655 21.6728 28.2955 21.7628 27.9855 21.7128C27.8855 21.6928 27.7955 21.6728 27.7055 21.6428L27.7155 21.6528Z" fill="#7D3B13"/>
<path d="M23.1557 18.9128C23.0057 18.8228 22.8657 18.7228 22.6957 18.6528C22.4957 18.5728 22.2657 18.5628 22.0857 18.4528C21.8157 18.3028 21.6857 18.0128 21.5757 17.7328C21.8357 17.8128 21.9357 18.1328 22.1657 18.2728C22.2857 18.3428 22.4257 18.3728 22.5657 18.4128C22.7357 18.4628 22.8957 18.5428 23.0357 18.6528C23.1057 18.7028 23.1657 18.7628 23.2457 18.8028C23.3357 18.8528 23.4357 18.8828 23.5357 18.9028C23.8657 19.0028 24.2057 19.0828 24.5357 19.1728C24.6257 19.2028 24.7257 19.2228 24.8157 19.2528C24.6257 19.2828 24.4057 19.2628 24.2157 19.2528C23.9757 19.2328 23.7457 19.1828 23.5157 19.0928C23.3857 19.0428 23.2657 18.9828 23.1457 18.9128H23.1557Z" fill="#7D3B13"/>
<path d="M28.9057 21.2828C28.7557 21.1628 28.6157 21.0228 28.4357 20.9428C28.2757 20.8728 28.0957 20.8528 27.9257 20.8128C27.5957 20.7428 27.2857 20.5828 27.0257 20.3728C26.9257 20.2928 26.8357 20.2028 26.7257 20.1428C26.6057 20.0728 26.4657 20.0328 26.3357 19.9828C25.9757 19.8428 25.6657 19.6128 25.3657 19.3728C25.5757 19.3528 25.8057 19.4028 25.9757 19.5228C26.0657 19.5828 26.1357 19.6528 26.2257 19.7028C26.3957 19.8028 26.5857 19.8428 26.7757 19.9028C26.9757 19.9728 27.1657 20.0728 27.3357 20.1928C27.4357 20.2728 27.5257 20.3528 27.6357 20.4228C27.7657 20.4928 27.9057 20.5328 28.0457 20.5728C28.4157 20.6728 28.7957 20.7728 29.1157 20.9828C29.2257 21.0528 29.3157 21.1328 29.4357 21.1928C29.5257 21.2428 29.6157 21.2728 29.7157 21.3128C30.0957 21.4528 30.4657 21.5928 30.8457 21.7228C30.8457 21.7228 30.7757 21.7528 30.7657 21.7528C30.7357 21.7628 30.6957 21.7728 30.6657 21.7728C30.6057 21.7728 30.5557 21.7728 30.5057 21.7728C30.3657 21.7728 30.2357 21.7728 30.0957 21.7628C29.8157 21.7328 29.5457 21.6528 29.2957 21.5228C29.1557 21.4528 29.0257 21.3728 28.8957 21.2728L28.9057 21.2828Z" fill="#7D3B13"/>
<path d="M32.7255 22.7328C32.5955 22.5928 32.4755 22.4328 32.2955 22.3328C32.1455 22.2528 31.9655 22.2328 31.8255 22.1528C31.6155 22.0428 31.4955 21.8428 31.3055 21.7128C30.9555 21.4628 30.3655 21.4328 30.1655 21.1128C30.5755 21.1828 31.0055 21.2628 31.3255 21.4928C31.5355 21.6428 31.6755 21.8428 31.9155 21.9628C32.0155 22.0128 32.1255 22.0428 32.2355 22.0728C32.4055 22.1328 32.5655 22.2128 32.7255 22.2828C32.8055 22.3228 32.8855 22.3628 32.9455 22.4128C33.0255 22.4828 33.0755 22.5728 33.1455 22.6528C33.4155 22.9828 33.8955 23.1428 34.3455 23.2528C34.4755 23.2828 34.6055 23.3128 34.7355 23.3328C34.5655 23.4628 34.3655 23.4628 34.1255 23.4028C33.7855 23.3228 33.4655 23.2528 33.1655 23.0828C32.9955 22.9828 32.8455 22.8728 32.7255 22.7428V22.7328Z" fill="#7D3B13"/>
<path d="M31.6558 21.2228C31.4958 21.1528 31.3158 21.1228 31.1658 21.0328C31.0158 20.9328 30.9058 20.7828 30.7458 20.6928C30.5158 20.5628 30.2158 20.6028 29.9758 20.4828C29.7858 20.3828 29.6558 20.1928 29.4658 20.1028C29.3258 20.0328 29.1558 20.0228 29.0058 19.9628C28.8558 19.9028 28.7058 19.7928 28.7158 19.6428C28.9158 19.7328 29.1258 19.7928 29.3358 19.8228C29.4258 19.8328 29.5258 19.8428 29.6058 19.8928C29.6758 19.9328 29.7158 20.0028 29.7658 20.0528C30.0758 20.3728 30.6558 20.2928 31.0158 20.5628C31.1158 20.6428 31.1958 20.7428 31.2958 20.8228C31.5658 21.0528 31.9658 21.1228 32.2158 21.3628C32.2958 21.4328 32.3558 21.5228 32.4258 21.5928C32.6158 21.7628 32.8758 21.8328 33.1258 21.8728C33.1758 21.8728 33.4158 21.9128 33.2558 21.9628C33.1158 22.0028 32.9558 22.0028 32.8158 21.9928C32.5958 21.9728 32.4258 21.8828 32.2658 21.7428C32.0558 21.5628 31.8858 21.3428 31.6358 21.2228H31.6558Z" fill="#7D3B13"/>
<path d="M27.0059 19.5228C26.7559 19.3528 26.5659 19.1028 26.2859 18.9728C25.9859 18.8228 25.6259 18.8328 25.3159 18.7028C24.9959 18.5728 24.7359 18.3028 24.3959 18.2228C24.2859 18.1928 24.1659 18.1828 24.0459 18.1428C23.8459 18.0728 23.6859 17.9128 23.5459 17.7628C23.8659 17.8528 24.1859 17.9428 24.4959 18.0328C24.5959 18.0628 24.7059 18.0928 24.8059 18.1428C24.9259 18.2028 25.0259 18.3028 25.1459 18.3528C25.4159 18.4728 25.7559 18.4028 26.0059 18.5528C26.1159 18.6128 26.1959 18.7128 26.3059 18.7728C26.5259 18.8728 26.8259 18.8028 26.9859 18.9728C27.0759 19.0628 27.0959 19.2028 27.1959 19.2828C27.2459 19.3328 27.3259 19.3528 27.3959 19.3828C27.5759 19.4228 27.7659 19.5028 27.9459 19.5628C28.1259 19.6228 28.3259 19.6828 28.5059 19.7528C28.1259 19.8028 27.7359 19.8228 27.3659 19.7028C27.2359 19.6628 27.1159 19.6028 26.9959 19.5228H27.0059Z" fill="#7D3B13"/>
<path d="M21.8756 17.2428C21.7256 17.1128 21.5356 17.0428 21.3656 16.9428C21.1956 16.8428 21.0256 16.6928 21.0156 16.5028C21.1956 16.7428 21.5356 16.7928 21.7956 16.9528C22.0956 17.1328 22.2656 17.4728 22.5756 17.6428C22.6556 17.6828 22.7356 17.7228 22.8056 17.7728C22.9156 17.8528 22.9956 17.9728 23.1056 18.0628C23.2056 18.1428 23.3156 18.2028 23.4256 18.2628C23.4256 18.2628 23.4956 18.2928 23.4856 18.3128C23.4856 18.3328 23.4056 18.3128 23.3956 18.3128C23.2456 18.2828 23.0956 18.2328 22.9556 18.1728C22.7856 18.1128 22.6256 18.0328 22.4756 17.9328C22.3456 17.8428 22.2356 17.7328 22.1456 17.6028C22.0556 17.4828 21.9856 17.3528 21.8756 17.2528V17.2428Z" fill="#7D3B13"/>
<path d="M21.7257 15.8328C21.5757 15.7028 21.3857 15.6328 21.2157 15.5328C21.0457 15.4328 20.8757 15.2828 20.8657 15.0928C21.0457 15.3328 21.3857 15.3828 21.6457 15.5428C21.9457 15.7328 22.1157 16.0628 22.4257 16.2328C22.5057 16.2728 22.5857 16.3128 22.6557 16.3628C22.7657 16.4428 22.8457 16.5628 22.9557 16.6528C23.0557 16.7328 23.1657 16.7928 23.2757 16.8528C23.2857 16.8528 23.3457 16.8828 23.3357 16.9028C23.3357 16.9228 23.2557 16.9028 23.2457 16.9028C23.0957 16.8728 22.9457 16.8228 22.8057 16.7628C22.6357 16.7028 22.4757 16.6228 22.3257 16.5228C22.1957 16.4328 22.0857 16.3228 21.9957 16.1928C21.9057 16.0728 21.8357 15.9428 21.7257 15.8428V15.8328Z" fill="#7D3B13"/>
<path d="M35.6353 23.0128C35.4853 22.8928 35.4053 22.7028 35.2453 22.5928C35.0853 22.4828 34.8653 22.4628 34.6753 22.4028C34.3153 22.2828 34.0153 21.9628 33.6353 22.0028C33.9353 22.0928 34.1353 22.3728 34.4153 22.5228C34.6253 22.6328 34.8753 22.6528 35.0753 22.7828C35.1953 22.8628 35.2953 22.9628 35.3953 23.0628C35.4453 23.1128 35.5053 23.1528 35.5653 23.1928C35.5953 23.2128 35.6353 23.2128 35.6553 23.2328C35.6953 23.2628 35.7253 23.2928 35.7653 23.3228C35.8353 23.2828 35.9053 23.2328 35.9753 23.1828C35.8453 23.1528 35.7253 23.1028 35.6253 23.0228L35.6353 23.0128Z" fill="#7D3B13"/>
<defs>
<radialGradient id="paint0_radial_1_910" cx="0" cy="0" r="1" gradientUnits="userSpaceOnUse" gradientTransform="translate(21.0066 30.8865) rotate(59.14) scale(9.18 9.18)">
<stop stop-color="#CA9A54"/>
<stop offset="1" stop-color="#CA9A54"/>
</radialGradient>
<radialGradient id="paint1_radial_1_910" cx="0" cy="0" r="1" gradientUnits="userSpaceOnUse" gradientTransform="translate(27.446 27.4695) rotate(59.1386) scale(6.12984 6.13)">
<stop stop-color="#CA9A54"/>
<stop offset="1" stop-color="#D2A96E"/>
</radialGradient>
<radialGradient id="paint2_radial_1_910" cx="0" cy="0" r="1" gradientUnits="userSpaceOnUse" gradientTransform="translate(27.4409 27.4613) rotate(59.14) scale(6.13)">
<stop stop-color="#CA9A54"/>
<stop offset="1" stop-color="#D2A96E"/>
</radialGradient>
<radialGradient id="paint3_radial_1_910" cx="0" cy="0" r="1" gradientUnits="userSpaceOnUse" gradientTransform="translate(32.785 14.4164) rotate(14.71) scale(10.86 10.86)">
<stop stop-color="#ECAF74"/>
<stop offset="1" stop-color="#A16129"/>
</radialGradient>
<radialGradient id="paint4_radial_1_910" cx="0" cy="0" r="1" gradientUnits="userSpaceOnUse" gradientTransform="translate(32.785 14.4164) rotate(14.71) scale(10.86 10.86)">
<stop stop-color="#ECAF74"/>
<stop offset="1" stop-color="#A16129"/>
</radialGradient>
<radialGradient id="paint5_radial_1_910" cx="0" cy="0" r="1" gradientUnits="userSpaceOnUse" gradientTransform="translate(30.1088 16.3399) rotate(14.71) scale(12.47 12.47)">
<stop stop-color="#ECAF74"/>
<stop offset="1" stop-color="#A16129"/>
</radialGradient>
</defs>
</svg>
