<svg width="46" height="46" viewBox="0 0 46 46" fill="none" xmlns="http://www.w3.org/2000/svg">
<path d="M23.3852 45.2C35.8668 45.2 45.9852 35.0816 45.9852 22.6C45.9852 10.1184 35.8668 0 23.3852 0C10.9035 0 0.785156 10.1184 0.785156 22.6C0.785156 35.0816 10.9035 45.2 23.3852 45.2Z" fill="white"/>
<g style="mix-blend-mode:screen">
<path d="M33.9454 14.27C33.5654 12.66 31.9054 11.67 30.3754 11.46C28.8454 11.25 27.3754 11.52 26.5854 13.12C25.7854 14.71 27.4554 15.24 27.8354 14.7C28.2254 14.15 28.3954 13.24 30.0454 13.67C31.6954 14.1 31.6354 15.93 30.8754 16.97C30.1454 17.96 28.8054 18.93 27.8054 19.88C28.0554 20.24 28.2954 20.6 28.5454 20.96C28.5954 21.04 28.6554 21.11 28.7054 21.19C29.5954 20.4 30.6354 19.76 31.2354 19.42C32.2854 18.83 33.0954 18.27 33.6754 17.05C33.6754 17.05 34.3354 15.9 33.9554 14.29L33.9454 14.27Z" fill="#F5C18F"/>
</g>
<path d="M33.9454 14.27C33.5654 12.66 31.9054 11.67 30.3754 11.46C28.8454 11.25 27.3754 11.52 26.5854 13.12C25.7854 14.71 27.4554 15.24 27.8354 14.7C28.2254 14.15 28.3954 13.24 30.0454 13.67C31.6954 14.1 31.6354 15.93 30.8754 16.97C30.1454 17.96 28.8054 18.93 27.8054 19.88C28.0554 20.24 28.2954 20.6 28.5454 20.96C28.5954 21.04 28.6554 21.11 28.7054 21.19C29.5954 20.4 30.6354 19.76 31.2354 19.42C32.2854 18.83 33.0954 18.27 33.6754 17.05C33.6754 17.05 34.3354 15.9 33.9554 14.29L33.9454 14.27Z" fill="#ECECEC"/>
<g style="mix-blend-mode:screen" opacity="0.55">
<path d="M33.5555 14.49C33.9355 16.1 33.2755 17.25 33.2755 17.25C32.6955 18.47 31.8855 19.03 30.8355 19.62C30.7155 19.69 30.5755 19.77 30.4155 19.86C30.4155 19.86 30.4155 19.87 30.4155 19.88C30.7255 19.68 31.0055 19.52 31.2255 19.39C32.2755 18.8 33.0855 18.24 33.6655 17.02C33.6655 17.02 34.3255 15.87 33.9455 14.26C33.5655 12.65 31.9055 11.66 30.3755 11.45C29.3655 11.31 28.3755 11.39 27.6055 11.91C28.3155 11.59 29.1355 11.55 29.9855 11.67C31.5155 11.88 33.1755 12.86 33.5555 14.48V14.49Z" fill="#C6AD56"/>
</g>
<g style="mix-blend-mode:multiply">
<path d="M30.1951 13.22C28.2051 12.8 28.0951 13.71 27.6851 14.27C27.4751 14.55 26.8851 14.55 26.4351 14.29C26.6851 14.94 27.5651 15.08 27.8351 14.7C28.2251 14.15 28.3951 13.24 30.0451 13.67C31.6951 14.1 31.6351 15.93 30.8751 16.97C30.1451 17.96 28.8051 18.93 27.8051 19.88C27.8751 19.99 27.9451 20.09 28.0251 20.19C29.2151 19.04 30.8951 17.91 31.7051 16.75C32.5051 15.61 32.2651 13.65 30.2051 13.22H30.1951Z" fill="#ECECEC"/>
</g>
<path d="M22.4452 9.58998C22.4452 9.58998 20.9752 7.57001 18.3652 7.52001C15.7652 7.47001 15.7152 8.15001 15.8652 8.49001C16.0152 8.83001 16.9852 8.87999 17.5852 9.05999C18.1852 9.23999 20.7652 11.02 20.8252 14.51C20.8252 14.51 23.1352 12.23 22.4452 9.58998Z" fill="url(#paint0_linear_1_851)"/>
<g style="mix-blend-mode:screen">
<path d="M22.4452 9.58998C22.4452 9.58998 20.9752 7.57001 18.3652 7.52001C15.7652 7.47001 15.7152 8.15001 15.8652 8.49001C16.0152 8.83001 16.9852 8.87999 17.5852 9.05999C18.1852 9.23999 20.7652 11.02 20.8252 14.51C20.8252 14.51 23.1352 12.23 22.4452 9.58998Z" fill="#F5C18F"/>
</g>
<path d="M22.4452 9.58998C22.4452 9.58998 20.9752 7.57001 18.3652 7.52001C15.7652 7.47001 15.7152 8.15001 15.8652 8.49001C16.0152 8.83001 16.9852 8.87999 17.5852 9.05999C18.1852 9.23999 20.7652 11.02 20.8252 14.51C20.8252 14.51 23.1352 12.23 22.4452 9.58998Z" fill="#ECECEC"/>
<g style="mix-blend-mode:screen">
<path d="M22.4452 9.58998C22.4452 9.58998 20.9752 7.57001 18.3652 7.52001C15.7652 7.47001 15.7152 8.15001 15.8652 8.49001C16.0152 8.83001 16.9852 8.87999 17.5852 9.05999C18.1852 9.23999 20.7652 11.02 20.8252 14.51C20.8252 14.51 23.1352 12.23 22.4452 9.58998Z" fill="#F5C18F"/>
</g>
<path d="M17.4352 8.42002C16.7452 8.40002 16.2352 8.43001 15.8652 8.50001C16.0352 8.83001 16.9852 8.88001 17.5752 9.06001C18.1752 9.24001 20.7552 11.02 20.8152 14.51C20.8152 14.51 21.4352 13.9 21.9352 12.94C21.9152 12.87 20.8552 8.54002 17.4352 8.42002Z" fill="#ECECEC"/>
<g style="mix-blend-mode:screen">
<path d="M23.1451 37.89L18.2451 36.78C18.2451 36.78 18.4551 38.1 19.0351 38.81C19.6151 39.52 20.5051 39.97 23.1451 39.97C25.7851 39.97 26.6851 39.51 27.2551 38.81C27.8251 38.11 28.0451 36.78 28.0451 36.78L23.1451 37.89Z" fill="#F5C18F"/>
</g>
<g style="mix-blend-mode:multiply" opacity="0.55">
<path d="M23.1451 37.89L18.2451 36.78C18.2451 36.78 18.4551 38.1 19.0351 38.81C19.6151 39.52 20.5051 39.97 23.1451 39.97C25.7851 39.97 26.6851 39.51 27.2551 38.81C27.8251 38.11 28.0451 36.78 28.0451 36.78L23.1451 37.89Z" fill="#C6AD56"/>
</g>
<path d="M23.1451 37.89L18.2451 36.78C18.2451 36.78 18.4551 38.1 19.0351 38.81C19.6151 39.52 20.5051 39.97 23.1451 39.97C25.7851 39.97 26.6851 39.51 27.2551 38.81C27.8251 38.11 28.0451 36.78 28.0451 36.78L23.1451 37.89Z" fill="#ECECEC"/>
<g style="mix-blend-mode:multiply">
<path d="M23.1451 37.89L18.2451 36.78C18.2451 36.78 18.4551 38.1 19.0351 38.81C19.6151 39.52 20.5051 39.97 23.1451 39.97C25.7851 39.97 26.6851 39.51 27.2551 38.81C27.8251 38.11 28.0451 36.78 28.0451 36.78L23.1451 37.89Z" fill="#ECECEC"/>
</g>
<path d="M27.4853 16.27C26.7153 13.76 27.0753 10.09 27.6853 9.23001C27.8853 8.94001 28.0353 8.70001 28.1353 8.48001H18.1653C18.2653 8.70001 18.4153 8.94001 18.6153 9.23001C19.2253 10.09 19.5853 13.75 18.8153 16.27C18.0453 18.78 14.6553 25.49 14.6553 30.24C14.6553 34.24 16.6453 36.27 18.5753 37.28C20.5053 38.29 21.1353 38.6 23.1453 38.6C25.1553 38.6 25.7853 38.3 27.7153 37.28C29.6453 36.26 31.6353 34.24 31.6353 30.24C31.6353 25.48 28.2553 18.78 27.4753 16.27H27.4853Z" fill="#CFC0B6"/>
<path d="M27.485 16.27C26.715 13.76 27.075 10.09 27.685 9.23001C27.905 8.93001 28.055 8.67 28.155 8.44H18.155C18.255 8.67 18.405 8.93001 18.625 9.23001C19.235 10.09 19.595 13.75 18.825 16.27C18.055 18.78 14.665 25.49 14.665 30.24C14.665 34.24 16.655 36.27 18.585 37.28C20.515 38.29 21.145 38.6 23.155 38.6C25.165 38.6 25.795 38.3 27.725 37.28C29.655 36.26 31.645 34.24 31.645 30.24C31.645 25.48 28.265 18.78 27.485 16.27Z" fill="#ECECEC"/>
<path d="M28.3552 21.67H17.9252C17.0152 24.03 16.0952 26.83 16.0952 29.09C16.0952 32.41 17.7452 34.09 19.3452 34.93C20.9452 35.77 21.4752 36.02 23.1452 36.02C24.8152 36.02 25.3352 35.77 26.9452 34.93C28.5452 34.09 30.1952 32.41 30.1952 29.09C30.1952 26.83 29.2752 24.03 28.3652 21.67H28.3552Z" fill="#F4E637"/>
<g style="mix-blend-mode:multiply">
<path d="M28.1151 7.66001C27.7151 7.21001 23.1351 7.42002 23.1351 7.42002C23.1351 7.42002 18.5551 7.20001 18.1551 7.66001C17.7551 8.11001 17.8951 8.49001 18.5151 9.16001C18.6551 9.31001 18.7851 9.59001 18.8951 9.94001C19.7851 10.19 21.4451 10.53 23.0451 10.51C25.6251 10.48 26.8751 10.03 27.4251 9.79001C27.5251 9.51001 27.6351 9.29003 27.7551 9.15003C28.3751 8.48003 28.5151 8.11003 28.1151 7.65003V7.66001Z" fill="#ECECEC"/>
</g>
<g style="mix-blend-mode:screen" opacity="0.75">
<path d="M24.3352 37.28C24.7952 36.27 25.2652 34.24 25.2652 30.24C25.2652 25.48 24.4652 18.78 24.2852 16.27C24.1052 13.76 24.1852 10.09 24.3352 9.23001C24.3852 8.93001 24.4252 8.67 24.4452 8.44H26.2552C26.1952 8.67 26.1052 8.93001 25.9752 9.23001C25.6052 10.09 25.3952 13.75 25.8552 16.27C26.3152 18.78 28.3452 25.49 28.3452 30.24C28.3452 34.24 27.1552 36.27 25.9952 37.28C25.8352 37.42 25.6852 37.55 25.5552 37.66C25.5552 37.66 25.1052 37.78 24.6252 37.85C24.2652 37.91 24.0352 37.91 24.0352 37.91C24.1252 37.74 24.2152 37.53 24.3352 37.27V37.28Z" fill="#C6AD56"/>
</g>
<g style="mix-blend-mode:multiply" opacity="0.32">
<path d="M22.0554 37.28C21.5954 36.27 21.1254 34.24 21.1254 30.24C21.1254 25.48 21.9254 18.78 22.1054 16.27C22.2854 13.76 22.2054 10.09 22.0554 9.23001C22.0054 8.93001 21.9654 8.67 21.9454 8.44H20.1354C20.1954 8.67 20.2854 8.93001 20.4154 9.23001C20.7854 10.09 20.9954 13.75 20.5354 16.27C20.0754 18.78 18.0454 25.49 18.0454 30.24C18.0454 34.24 19.2354 36.27 20.3954 37.28C20.5554 37.42 20.6954 37.54 20.8354 37.66C20.8354 37.66 21.2154 37.79 21.5854 37.84C22.0954 37.91 22.3554 37.93 22.3554 37.93C22.2654 37.76 22.1654 37.54 22.0554 37.28Z" fill="#C6B4AE"/>
</g>
<g style="mix-blend-mode:multiply">
<path d="M14.6553 29.92C14.7653 33.7 16.6853 35.65 18.5653 36.63C20.4953 37.64 21.1253 37.95 23.1353 37.95C25.1453 37.95 25.7753 37.65 27.7053 36.63C29.5853 35.65 31.5053 33.7 31.6153 29.93C31.5653 28.13 31.0653 26.08 30.4153 24.09C28.8253 27.7 25.3053 29.73 21.8553 28.96C18.5353 28.22 17.6753 24.86 17.7353 21.12C17.7253 20.4 17.7453 19.65 17.8053 18.9C16.5653 21.97 14.7653 26.42 14.6553 29.92Z" fill="#ECECEC"/>
</g>
<path d="M27.7151 9.2C27.7151 9.2 27.7351 9.16999 27.7451 9.15999C28.3651 8.48999 28.5051 8.11999 28.1051 7.65999C27.7051 7.19999 23.1251 7.42 23.1251 7.42C23.1251 7.42 20.6551 7.3 19.1851 7.42C18.6551 7.46 17.3951 7.50999 16.3651 7.68999C15.4251 7.84999 15.6851 8.52001 15.9751 8.55001C16.7551 8.63001 18.2351 8.86001 18.5151 9.15001C18.5251 9.16001 18.5351 9.17999 18.5451 9.18999C19.5651 9.71999 21.2351 10.06 23.1351 10.06C25.0351 10.06 26.6951 9.70999 27.7251 9.18999L27.7151 9.2Z" fill="#ECECEC"/>
<g style="mix-blend-mode:multiply">
<path d="M27.6052 8.02002C27.6052 8.18002 26.6252 9.05002 23.1352 9.05002C21.8952 9.05002 20.6352 8.73 19.6452 8.53C18.4052 8.28 17.5552 8.12 17.5552 8.03C17.5552 7.94 18.4452 7.90002 19.6952 7.80002C20.6952 7.72002 21.9152 7.57001 23.1552 7.57001C26.8552 7.57001 27.6152 7.87002 27.6152 8.02002H27.6052Z" fill="#ECECEC"/>
</g>
<path d="M27.9254 8.96002C28.0154 8.85002 28.0954 8.76 28.1554 8.66C28.3154 8.42 28.3654 8.21001 28.3154 8.01001C28.2554 8.17001 28.0654 8.34001 27.7454 8.57001C27.7354 8.57001 27.7254 8.59001 27.7154 8.60001C26.6954 8.96001 25.0254 9.35001 23.1254 9.35001C21.6254 9.35001 20.2654 9.10001 19.2554 8.82001C18.6754 8.64001 16.4554 8.43001 15.7354 8.35001C15.7854 8.46001 15.9554 8.65001 16.1754 8.73001C16.3454 8.79001 16.5254 8.83002 16.7054 8.86002C16.8054 8.87002 16.9054 8.89002 17.0054 8.90002C17.0954 8.90002 17.1954 8.91001 17.2854 8.92001C17.2954 8.92001 17.3054 8.92001 17.3254 8.92001C17.3454 8.92001 17.3554 8.92001 17.3754 8.92001C17.4154 8.92001 17.4454 8.92 17.4854 8.94C17.6054 8.97 17.7054 9.03001 17.8154 9.07001C17.8554 9.09001 17.9054 9.10002 17.9454 9.11002C18.0254 9.13002 18.1054 9.15001 18.1854 9.17001C18.3554 9.21001 18.5154 9.26002 18.6754 9.30002C18.7154 9.31002 18.7554 9.32002 18.7954 9.33002C18.8354 9.33002 18.8754 9.34002 18.9154 9.36002C18.9854 9.39002 19.0654 9.42001 19.1354 9.45001C19.2354 9.49001 19.3354 9.52002 19.4354 9.55002C19.5954 9.60002 19.7754 9.65001 19.9554 9.70001C20.8654 9.93001 21.9554 10.07 23.1354 10.07C23.3754 10.07 23.6054 10.07 23.8354 10.05C24.0654 10.03 24.2854 10.02 24.5054 10C24.7254 9.98 24.9354 9.95001 25.1454 9.92001C25.3554 9.89001 25.5554 9.86001 25.7554 9.82001C25.9554 9.78001 26.1354 9.74 26.3254 9.69C26.4154 9.67 26.5054 9.64003 26.5954 9.62003C27.0254 9.50003 27.4154 9.35002 27.7354 9.18002C27.7454 9.17002 27.7554 9.15001 27.7654 9.14001C27.8154 9.08001 27.8654 9.03001 27.9054 8.98001C27.9054 8.97001 27.9254 8.96001 27.9354 8.95001L27.9254 8.96002Z" fill="#ECECEC"/>
<g style="mix-blend-mode:multiply">
<path d="M27.9254 8.96002C28.0154 8.85002 28.0954 8.76 28.1554 8.66C28.3154 8.42 28.3654 8.21001 28.3154 8.01001C28.2554 8.17001 28.0654 8.34001 27.7454 8.57001C27.7354 8.57001 27.7254 8.59001 27.7154 8.60001C26.6954 8.96001 25.0254 9.35001 23.1254 9.35001C21.6254 9.35001 20.2654 9.10001 19.2554 8.82001C18.6754 8.64001 16.4554 8.43001 15.7354 8.35001C15.7854 8.46001 15.9554 8.65001 16.1754 8.73001C16.3454 8.79001 16.5254 8.83002 16.7054 8.86002C16.8054 8.87002 16.9054 8.89002 17.0054 8.90002C17.0954 8.90002 17.1954 8.91001 17.2854 8.92001C17.2954 8.92001 17.3054 8.92001 17.3254 8.92001C17.3454 8.92001 17.3554 8.92001 17.3754 8.92001C17.4154 8.92001 17.4454 8.92 17.4854 8.94C17.6054 8.97 17.7054 9.03001 17.8154 9.07001C17.8554 9.09001 17.9054 9.10002 17.9454 9.11002C18.0254 9.13002 18.1054 9.15001 18.1854 9.17001C18.3554 9.21001 18.5154 9.26002 18.6754 9.30002C18.7154 9.31002 18.7554 9.32002 18.7954 9.33002C18.8354 9.33002 18.8754 9.34002 18.9154 9.36002C18.9854 9.39002 19.0654 9.42001 19.1354 9.45001C19.2354 9.49001 19.3354 9.52002 19.4354 9.55002C19.5954 9.60002 19.7754 9.65001 19.9554 9.70001C20.8654 9.93001 21.9554 10.07 23.1354 10.07C23.3754 10.07 23.6054 10.07 23.8354 10.05C24.0654 10.03 24.2854 10.02 24.5054 10C24.7254 9.98 24.9354 9.95001 25.1454 9.92001C25.3554 9.89001 25.5554 9.86001 25.7554 9.82001C25.9554 9.78001 26.1354 9.74 26.3254 9.69C26.4154 9.67 26.5054 9.64003 26.5954 9.62003C27.0254 9.50003 27.4154 9.35002 27.7354 9.18002C27.7454 9.17002 27.7554 9.15001 27.7654 9.14001C27.8154 9.08001 27.8654 9.03001 27.9054 8.98001C27.9054 8.97001 27.9254 8.96001 27.9354 8.95001L27.9254 8.96002Z" fill="#ECECEC"/>
</g>
<path d="M21.1951 8.47C21.8751 8.74 22.6351 8.73 23.3551 8.72C24.0451 8.71 24.7551 8.77 25.3751 8.44L25.5851 6.32001L23.1351 6.49002L20.6851 6.32001L20.8851 8.34C20.9851 8.39 21.0851 8.43001 21.1951 8.48001V8.47Z" fill="url(#paint1_linear_1_851)"/>
<path opacity="0.55" d="M21.125 10.37L21.315 12.31C21.345 12.57 21.535 12.79 21.795 12.85C22.125 12.92 22.615 12.99 23.145 12.99C23.675 12.99 24.165 12.91 24.495 12.85C24.755 12.8 24.945 12.58 24.975 12.31L25.165 10.37C24.415 10.46 23.745 10.49 23.175 10.5C22.195 10.52 21.445 10.43 21.125 10.36V10.37Z" fill="#996B50"/>
<path d="M25.5851 6.31C25.5851 6.47 24.4851 6.59 23.1351 6.59C21.7851 6.59 20.6851 6.46 20.6851 6.31C20.6851 6.16 21.7851 6.03 23.1351 6.03C24.4851 6.03 25.5851 6.16 25.5851 6.31Z" fill="#AE8974"/>
<path d="M23.1453 22.7C26.0172 22.7 28.3453 22.2389 28.3453 21.67C28.3453 21.1012 26.0172 20.64 23.1453 20.64C20.2734 20.64 17.9453 21.1012 17.9453 21.67C17.9453 22.2389 20.2734 22.7 23.1453 22.7Z" fill="#FFFBA8"/>
<path d="M23.6853 24.58C23.6853 24.78 23.5253 24.94 23.3253 24.94C23.1253 24.94 22.9653 24.78 22.9653 24.58C22.9653 24.38 23.1253 24.22 23.3253 24.22C23.5253 24.22 23.6853 24.38 23.6853 24.58Z" fill="#D9C54C"/>
<path d="M24.8754 28.9C25.1847 28.9 25.4354 28.6493 25.4354 28.34C25.4354 28.0307 25.1847 27.78 24.8754 27.78C24.5661 27.78 24.3154 28.0307 24.3154 28.34C24.3154 28.6493 24.5661 28.9 24.8754 28.9Z" fill="#D9C54C"/>
<path d="M20.1352 31.11C20.1352 31.54 19.7852 31.89 19.3552 31.89C18.9252 31.89 18.5752 31.54 18.5752 31.11C18.5752 30.68 18.9252 30.33 19.3552 30.33C19.7852 30.33 20.1352 30.68 20.1352 31.11Z" fill="#D9C54C"/>
<path d="M23.3254 32.51C23.3254 32.85 23.0454 33.13 22.7054 33.13C22.3654 33.13 22.0854 32.85 22.0854 32.51C22.0854 32.17 22.3654 31.89 22.7054 31.89C23.0454 31.89 23.3254 32.17 23.3254 32.51Z" fill="#D9C54C"/>
<path d="M27.1651 32.93C27.4081 32.93 27.6051 32.733 27.6051 32.49C27.6051 32.247 27.4081 32.05 27.1651 32.05C26.9221 32.05 26.7251 32.247 26.7251 32.49C26.7251 32.733 26.9221 32.93 27.1651 32.93Z" fill="#D9C54C"/>
<path d="M28.3154 30.5C28.5916 30.5 28.8154 30.2761 28.8154 30C28.8154 29.7239 28.5916 29.5 28.3154 29.5C28.0393 29.5 27.8154 29.7239 27.8154 30C27.8154 30.2761 28.0393 30.5 28.3154 30.5Z" fill="#D9C54C"/>
<path d="M27.8153 25.47C27.8153 25.65 27.6653 25.8 27.4853 25.8C27.3053 25.8 27.1553 25.65 27.1553 25.47C27.1553 25.29 27.3053 25.14 27.4853 25.14C27.6653 25.14 27.8153 25.29 27.8153 25.47Z" fill="#D9C54C"/>
<path d="M19.9651 26.83C20.2137 26.83 20.4151 26.6285 20.4151 26.38C20.4151 26.1315 20.2137 25.93 19.9651 25.93C19.7166 25.93 19.5151 26.1315 19.5151 26.38C19.5151 26.6285 19.7166 26.83 19.9651 26.83Z" fill="#D9C54C"/>
<path d="M21.4954 28.32C21.7439 28.32 21.9454 28.1186 21.9454 27.87C21.9454 27.6215 21.7439 27.42 21.4954 27.42C21.2469 27.42 21.0454 27.6215 21.0454 27.87C21.0454 28.1186 21.2469 28.32 21.4954 28.32Z" fill="#D9C54C"/>
<path d="M18.4552 24.34C18.4552 24.58 18.2652 24.77 18.0252 24.77C17.7852 24.77 17.5952 24.58 17.5952 24.34C17.5952 24.1 17.7852 23.91 18.0252 23.91C18.2652 23.91 18.4552 24.1 18.4552 24.34Z" fill="#D9C54C"/>
<path d="M17.8755 28.99C18.1516 28.99 18.3755 28.7662 18.3755 28.49C18.3755 28.2139 18.1516 27.99 17.8755 27.99C17.5993 27.99 17.3755 28.2139 17.3755 28.49C17.3755 28.7662 17.5993 28.99 17.8755 28.99Z" fill="#D9C54C"/>
<path d="M20.5353 33.92C20.7562 33.92 20.9353 33.7409 20.9353 33.52C20.9353 33.2991 20.7562 33.12 20.5353 33.12C20.3143 33.12 20.1353 33.2991 20.1353 33.52C20.1353 33.7409 20.3143 33.92 20.5353 33.92Z" fill="#D9C54C"/>
<path d="M23.1452 29.89C23.1452 30.11 22.9752 30.28 22.7552 30.28C22.5352 30.28 22.3652 30.11 22.3652 29.89C22.3652 29.67 22.5352 29.5 22.7552 29.5C22.9752 29.5 23.1452 29.67 23.1452 29.89Z" fill="#D9C54C"/>
<path d="M24.6355 34.88C24.6355 35.09 24.4655 35.26 24.2555 35.26C24.0455 35.26 23.8755 35.09 23.8755 34.88C23.8755 34.67 24.0455 34.5 24.2555 34.5C24.4655 34.5 24.6355 34.67 24.6355 34.88Z" fill="#D9C54C"/>
<path d="M24.8753 25.95C25.0078 25.95 25.1153 25.8426 25.1153 25.71C25.1153 25.5775 25.0078 25.47 24.8753 25.47C24.7427 25.47 24.6353 25.5775 24.6353 25.71C24.6353 25.8426 24.7427 25.95 24.8753 25.95Z" fill="#D9C54C"/>
<path d="M21.0552 24.58C21.3423 24.58 21.5752 24.3472 21.5752 24.06C21.5752 23.7728 21.3423 23.54 21.0552 23.54C20.768 23.54 20.5352 23.7728 20.5352 24.06C20.5352 24.3472 20.768 24.58 21.0552 24.58Z" fill="#D9C54C"/>
<path d="M28.0551 27.7C28.0551 27.86 27.9251 27.98 27.7751 27.98C27.6251 27.98 27.4951 27.85 27.4951 27.7C27.4951 27.55 27.6251 27.42 27.7751 27.42C27.9251 27.42 28.0551 27.55 28.0551 27.7Z" fill="#D9C54C"/>
<path d="M25.7551 31.1C26.0258 31.1 26.2451 30.8806 26.2451 30.61C26.2451 30.3394 26.0258 30.12 25.7551 30.12C25.4845 30.12 25.2651 30.3394 25.2651 30.61C25.2651 30.8806 25.4845 31.1 25.7551 31.1Z" fill="#D9C54C"/>
<path d="M26.4052 24.21C26.5985 24.21 26.7552 24.0533 26.7552 23.86C26.7552 23.6667 26.5985 23.51 26.4052 23.51C26.2119 23.51 26.0552 23.6667 26.0552 23.86C26.0552 24.0533 26.2119 24.21 26.4052 24.21Z" fill="#D9C54C"/>
<path d="M29.0454 27.14C29.1725 27.14 29.2754 27.037 29.2754 26.91C29.2754 26.783 29.1725 26.68 29.0454 26.68C28.9184 26.68 28.8154 26.783 28.8154 26.91C28.8154 27.037 28.9184 27.14 29.0454 27.14Z" fill="#D9C54C"/>
<defs>
<linearGradient id="paint0_linear_1_851" x1="15.9984" y1="11.2173" x2="22.5851" y2="10.7983" gradientUnits="userSpaceOnUse">
<stop stop-color="white"/>
<stop offset="1"/>
</linearGradient>
<linearGradient id="paint1_linear_1_851" x1="20.6951" y1="7.51" x2="25.5851" y2="7.51" gradientUnits="userSpaceOnUse">
<stop offset="0.3" stop-color="#895334"/>
<stop offset="0.8" stop-color="#996B50"/>
</linearGradient>
</defs>
</svg>
