<svg width="54" height="54" viewBox="0 0 54 54" fill="none" xmlns="http://www.w3.org/2000/svg">
<path d="M48.7545 31.0256C51.2024 18.7864 43.2649 6.88011 31.0256 4.43225C18.7864 1.98438 6.88012 9.92187 4.43225 22.1611C1.98439 34.4004 9.92188 46.3066 22.1611 48.7545C34.4004 51.2024 46.3066 43.2649 48.7545 31.0256Z" fill="white"/>
<path d="M38.0406 30.8658C31.7281 34.4074 21.6391 34.3035 15.5069 30.6363C12.9765 29.1278 11.5118 27.2423 11.1128 25.3021C11.3751 26.5701 11.7905 27.6303 11.9872 28.1386C12.2551 28.8218 12.6212 29.5596 13.0803 30.3357C14.2772 32.3579 15.8567 33.6094 16.1573 33.839C16.5727 34.156 17.2722 34.6861 18.1959 35.1671C18.6823 35.4239 19.3545 35.7191 19.8628 35.9322C20.1416 36.0524 20.5296 36.1836 20.8193 36.2765C21.8249 36.5935 22.754 36.8176 23.5902 36.9488C25.1915 37.2002 26.0496 37.2111 26.8803 37.222C27.9734 37.2384 29.8426 37.1127 31.5204 36.7028C32.1544 36.5498 32.8157 36.3913 33.9197 35.9705C34.2859 35.8284 34.7668 35.6152 35.1221 35.4513C35.3735 35.3365 35.696 35.1507 35.9419 35.025C36.5813 34.6533 37.3738 34.1888 38.4232 33.2433C39.4124 32.3469 40.0628 31.4288 40.3087 31.079C41.3909 29.5432 42.3036 27.4172 42.7408 25.3841C42.3145 27.3953 40.7405 29.341 38.0297 30.8604L38.0406 30.8658Z" fill="#D82A2A"/>
<path d="M18.8574 29.7623C18.8574 29.8607 18.8684 29.9536 18.8957 30.0356C18.9175 29.9645 18.9121 29.8826 18.8574 29.7623Z" fill="#FFFEFD"/>
<path d="M41.0631 26.6958C40.9976 26.2477 40.5877 25.8542 40.4674 25.4333C40.1996 24.4933 40.0247 24.1818 39.2432 24.0889C39.1065 24.0725 38.9535 24.0615 38.7732 24.0506C38.9808 24.3676 39.5001 24.4058 39.1229 24.9415C38.877 25.2858 38.3031 25.3623 37.9096 25.3514C38.8497 26.2695 36.8494 27.7452 36.0405 27.1112C36.0077 27.8272 35.8984 28.1605 35.2316 28.5704C34.9256 28.7617 33.439 29.4285 33.3843 28.7344C33.3789 29.0951 33.7341 29.2099 33.5319 29.6089C33.3789 29.9149 33.0072 30.0734 32.6957 30.1718C31.9633 30.4013 31.6737 30.0789 31.0998 29.6854C30.9632 30.057 31.1709 30.221 30.8101 30.4943C30.515 30.7183 30.2035 30.7621 29.8537 30.7785C29.5531 30.7948 29.2744 30.8058 29.012 30.6418C28.788 30.5052 28.4546 29.9368 28.2469 30.1335C28.0665 30.3084 28.154 30.7183 27.9135 30.9369C27.6566 31.1665 27.1866 31.3031 26.8478 31.3031C26.5308 31.3031 26.2028 31.2266 25.9296 31.0572C25.6344 30.8659 25.6017 30.4997 25.3393 30.303C24.995 30.6036 25.0988 30.7566 24.5687 30.8714C24.2954 30.926 24.0714 30.9752 23.7872 30.9752C23.0548 30.9752 22.94 30.4997 22.6285 29.986C22.4809 30.4177 22.4536 30.6965 21.9563 30.7894C21.5518 30.8659 21.1201 30.8276 20.7047 30.8276C20.1254 30.8276 19.1088 30.6801 18.9011 30.0461C18.8246 30.3139 18.3109 30.2756 18.0267 30.2756C17.5512 30.2756 17.0593 30.0734 16.633 29.8439C16.2778 29.6526 16.2176 29.3575 16.0974 28.9858C15.9662 28.5868 16.2176 28.4283 16.2122 28.0731C15.7422 28.0403 15.2612 28.1441 14.824 27.9583C14.3867 27.7725 14.0534 27.3571 13.8675 26.9254C13.6271 26.3734 13.7692 25.7121 14.0042 25.1765C12.933 25.0999 12.0312 25.8104 11.9219 26.3515C12.5723 27.7998 13.8675 29.1443 15.7422 30.2647C18.7153 32.0409 22.7105 33.0192 26.9953 33.0192C31.2802 33.0192 34.9201 32.1175 37.8331 30.4833C38.5218 30.0953 39.1339 29.6799 39.6749 29.2427C39.6859 29.2208 39.7023 29.2044 39.7132 29.1826C39.9427 28.7016 40.1996 28.2261 40.5166 27.7998C40.7626 27.4774 41.1342 27.1385 41.0686 26.6958H41.0631Z" fill="#FFF9F3"/>
<path d="M38.7675 24.0515C38.7948 24.0241 38.8112 24.0023 38.8331 23.975C38.8003 23.9914 38.7675 24.0023 38.7456 24.0241C38.7511 24.0351 38.762 24.046 38.7675 24.0515Z" fill="#FFFEFD"/>
<path d="M13.8622 26.9199C14.048 27.3517 14.3814 27.7671 14.8186 27.9529C15.2559 28.1387 15.7368 28.0349 16.2068 28.0677C16.2123 28.4229 15.9609 28.5814 16.0921 28.9804C16.2123 29.352 16.2724 29.6471 16.6277 29.8384C17.054 30.068 17.5458 30.2702 18.0213 30.2702C18.3055 30.2702 18.8193 30.3085 18.8958 30.0406C18.8685 29.9587 18.8521 29.8658 18.8575 29.7674C18.9122 29.8876 18.9122 29.9696 18.8958 30.0406C19.098 30.6746 20.12 30.8222 20.6994 30.8222C21.1093 30.8222 21.5465 30.8605 21.9509 30.7839C22.4483 30.691 22.4756 30.4123 22.6232 29.9805C22.9402 30.4943 23.0495 30.9698 23.7818 30.9698C24.0605 30.9698 24.2901 30.926 24.5634 30.8659C25.0935 30.7566 24.9897 30.5981 25.334 30.2975C25.5963 30.4943 25.6236 30.8605 25.9242 31.0517C26.1975 31.2266 26.5254 31.3031 26.8424 31.2977C27.1867 31.2977 27.6568 31.1556 27.9082 30.9315C28.1486 30.7184 28.0612 30.303 28.2415 30.1281C28.4492 29.9313 28.7826 30.4997 29.0067 30.6364C29.269 30.8003 29.5478 30.7894 29.8484 30.773C30.1981 30.7566 30.5097 30.7074 30.8048 30.4888C31.1655 30.221 30.9578 30.0516 31.0945 29.6799C31.6629 30.0734 31.958 30.3904 32.6903 30.1664C32.9964 30.0734 33.3735 29.9095 33.5265 29.6034C33.7288 29.2044 33.3735 29.0897 33.379 28.729C33.4282 29.4231 34.9147 28.7563 35.2263 28.565C35.8876 28.1551 35.9969 27.8217 36.0351 27.1058C36.844 27.7397 38.8498 26.2641 37.9043 25.3459C38.2978 25.3568 38.8771 25.2803 39.1176 24.936C39.4947 24.4004 38.9755 24.3621 38.7678 24.0452C38.7624 24.0342 38.7514 24.0288 38.746 24.0178C38.7678 23.996 38.8006 23.985 38.8334 23.9686C39.2105 23.5369 38.7569 23.0559 38.3033 22.7663C37.7403 22.411 37.3796 22.8428 36.8713 22.6734C36.2155 22.4547 37.09 21.1103 35.893 20.8534C35.3793 20.7441 35.0186 20.9244 34.6743 20.52C34.4994 20.3178 34.4502 19.7658 34.1824 19.5909C33.8927 19.4051 32.8816 19.5909 32.581 19.6346C32.5592 19.6346 32.5373 19.6401 32.5154 19.6455C32.04 19.7275 31.5044 19.9461 31.0398 19.9024C31.1109 19.1099 30.3621 18.8367 29.668 18.9132C28.9411 18.9952 28.2962 19.7494 27.5638 19.6237C27.624 19.0662 26.8479 18.7547 26.4161 18.7492C25.6674 18.7383 25.3558 19.2411 24.8038 19.6292C24.219 19.1537 24.0715 18.8148 23.2626 18.8585C22.3936 18.9023 21.9291 18.8531 21.388 19.5745C21.2459 19.7658 20.9508 20.3287 20.7267 20.3998C20.6611 20.4216 20.1638 20.2413 20.0217 20.2413C19.486 20.2194 18.8138 20.3178 18.3984 20.684C18.3493 20.7277 18.3055 20.7769 18.2673 20.8206C17.9284 21.2414 18.0159 21.7716 17.7371 22.2252C17.3382 22.8756 16.8791 22.2252 16.2451 22.3892C15.6439 22.5477 15.1957 23.0669 14.9389 23.6189C14.7858 23.9468 14.7585 24.384 14.6765 24.7557C14.6328 24.9415 14.5836 25.1164 14.4907 25.253C14.3268 25.2038 14.1628 25.1765 14.0043 25.1656C13.7693 25.7012 13.6272 26.3625 13.8677 26.9145L13.8622 26.9199Z" fill="#FFFEFD"/>
<path d="M41.5605 21.3669C40.8391 20.2028 39.6859 19.1207 38.1337 18.197C35.1606 16.4208 31.1654 15.4425 26.8806 15.4425C22.5957 15.4425 18.9558 16.3388 16.0428 17.973C13.1079 19.6235 11.4737 21.8096 11.4409 24.1324C11.43 24.8866 11.594 25.6299 11.9164 26.3514C12.0421 25.7338 13.2172 24.8866 14.4851 25.2637C14.5781 25.1271 14.7803 23.9575 14.9388 23.6241C15.1956 23.0721 15.6493 22.5529 16.245 22.3944C16.879 22.2305 17.3381 22.8809 17.737 22.2305C18.0158 21.7768 17.9283 21.2467 18.2672 20.8259C18.6279 20.0607 21.2458 19.7765 21.3879 19.5852C21.929 18.8584 22.399 18.913 23.2625 18.8693C24.0714 18.831 24.2189 19.1699 24.8037 19.6399C25.3557 19.2464 25.6673 18.749 26.416 18.76C26.8478 18.7654 27.6239 19.077 27.5637 19.6344C28.2906 19.7601 28.9355 19.0059 29.6679 18.9239C30.362 18.8474 31.1107 19.1207 31.0397 19.9132C31.4933 19.935 32.0125 19.6946 32.5153 19.6563C34.9584 19.6836 34.0784 21.1647 35.8875 20.8587C37.0953 20.6565 36.2045 22.4655 36.8658 22.6786C37.374 22.8481 37.7348 22.4163 38.2977 22.7715C38.7786 23.0776 39.2705 23.6023 38.7622 24.0504C38.9426 24.0559 39.0956 24.0723 39.2377 24.0887C40.0247 24.1871 40.1996 24.4931 40.462 25.4332C40.5822 25.8595 40.9921 26.253 41.0577 26.6957C41.1233 27.1329 40.7462 27.4772 40.5057 27.7997C40.1887 28.2205 39.9318 28.7015 39.7023 29.1824C39.6914 29.2043 39.675 29.2207 39.664 29.2425C41.4348 27.8051 42.3967 26.1054 42.424 24.3292C42.4404 23.3126 42.1398 22.3125 41.555 21.3724L41.5605 21.3669Z" fill="#F76969"/>
<path d="M34.6303 22.6238C34.6303 22.6238 34.7123 22.8096 34.7396 23.1211C34.7506 23.2742 34.7396 23.4819 34.6412 23.6841C34.5866 23.777 34.5265 23.8808 34.4445 23.9519L34.3789 24.0175L34.3243 24.0612C34.286 24.094 34.2259 24.1322 34.1822 24.1596C33.8105 24.3782 33.3678 24.4656 33.0344 24.3618C32.8705 24.3126 32.7502 24.2142 32.7065 24.1268C32.6792 24.0885 32.6737 24.0503 32.6628 24.0284C32.6573 24.0065 32.6519 23.9956 32.6519 23.9956C32.6519 23.9956 32.6956 24.0284 32.7666 24.0667C32.8377 24.1049 32.947 24.1213 33.0727 24.1104C33.3241 24.0885 33.6629 23.9573 33.9581 23.777C33.9963 23.7551 34.0182 23.7442 34.0619 23.7169L34.122 23.6731C34.122 23.6731 34.1439 23.6513 34.1603 23.6404C34.2204 23.5857 34.2696 23.5365 34.3188 23.4764C34.357 23.4163 34.4008 23.3562 34.4281 23.2906C34.4554 23.225 34.4773 23.1539 34.5046 23.0884C34.5429 22.9463 34.5757 22.8315 34.5975 22.7495C34.6248 22.6621 34.6412 22.6183 34.6412 22.6183L34.6303 22.6238Z" fill="#FFF5E9"/>
<path d="M32.0399 21.1656C32.0399 21.1656 32.0508 21.1984 32.0672 21.253C32.0782 21.3132 32.111 21.3897 32.111 21.4935C32.111 21.5482 32.1273 21.6083 32.111 21.6684C32.0946 21.7285 32.0782 21.7996 32.0508 21.8706C32.0071 21.9253 31.9689 21.9909 31.9142 22.051C31.8486 22.133 31.8104 22.1384 31.7502 22.1876C31.6136 22.2641 31.4824 22.3188 31.3458 22.3406C31.2146 22.368 31.0835 22.3625 30.9742 22.3297C30.9195 22.3242 30.8758 22.286 30.8375 22.2587C30.7993 22.2368 30.7719 22.204 30.761 22.1767C30.7282 22.122 30.7173 22.0892 30.7173 22.0892C30.7173 22.0892 30.7501 22.1056 30.7993 22.133C30.8211 22.1494 30.8485 22.1603 30.8867 22.1603C30.925 22.1603 30.9578 22.1712 31.0015 22.1603C31.0835 22.1548 31.1818 22.1275 31.2857 22.0892C31.3895 22.0564 31.4988 21.9963 31.5863 21.9471C31.6245 21.9198 31.7174 21.8706 31.7229 21.8488C31.7557 21.8105 31.794 21.7777 31.8322 21.7449C31.8486 21.7012 31.8759 21.6575 31.9033 21.6192C31.9306 21.581 31.9361 21.5263 31.9525 21.488C31.9852 21.4006 32.0071 21.3186 32.018 21.264C32.0344 21.2093 32.0454 21.1765 32.0454 21.1765L32.0399 21.1656Z" fill="#FFF5E9"/>
<path d="M22.1695 22.4005C22.4483 22.3732 22.6942 22.324 22.9456 22.2584C23.0713 22.2256 23.1915 22.1874 23.3063 22.1546C23.4211 22.1109 23.5359 22.0726 23.6452 22.0234C23.7545 21.9688 23.8583 21.9196 23.9458 21.854C24.0332 21.7884 24.1097 21.7173 24.1753 21.6408C24.1917 21.5971 24.2245 21.5589 24.2409 21.5097C24.2464 21.4605 24.2792 21.4113 24.2737 21.3566C24.2737 21.302 24.2901 21.2419 24.2737 21.1872C24.2628 21.1271 24.2573 21.067 24.2464 21.0014L24.301 21.0451C24.301 21.0451 24.2682 21.0342 24.2518 21.0287C24.23 21.0178 24.23 21.0287 24.2081 21.0287C24.1753 21.056 24.1316 21.0943 24.0933 21.1271C24.1097 21.0779 24.1152 21.0287 24.1425 20.9686C24.1644 20.9467 24.1972 20.903 24.23 20.903C24.2628 20.8975 24.2956 20.8921 24.3338 20.8866H24.3611L24.3885 20.9303C24.4267 20.9905 24.465 21.0506 24.5032 21.1162C24.5415 21.1817 24.5524 21.2583 24.5743 21.3348C24.5961 21.4113 24.5797 21.4987 24.5797 21.5807C24.5743 21.6627 24.536 21.7447 24.5087 21.8212C24.4322 21.9688 24.3283 22.0999 24.2026 22.1928C24.0824 22.2857 23.9512 22.3623 23.8146 22.4169C23.5413 22.5262 23.2626 22.5754 22.9784 22.5754C22.7051 22.5754 22.4045 22.5317 22.1641 22.395L22.1695 22.4005Z" fill="#FFF5E9"/>
<path d="M30.3839 26.5706C30.3839 26.5706 30.4112 26.6362 30.4768 26.7346C30.5314 26.8275 30.6462 26.9477 30.7993 27.0407C30.9577 27.1336 31.16 27.1992 31.3895 27.2319C31.6191 27.2647 31.8705 27.2702 32.1219 27.2483C32.6247 27.2101 33.133 27.0789 33.4226 26.8712C33.5647 26.7674 33.6412 26.6362 33.6467 26.5269C33.6631 26.4176 33.6303 26.3466 33.6358 26.3466C33.6303 26.3466 33.6904 26.3957 33.7341 26.5214C33.7833 26.6417 33.756 26.8712 33.603 27.0516C33.3078 27.4232 32.7285 27.6418 32.1547 27.691C31.865 27.7074 31.5699 27.691 31.3021 27.6091C31.0343 27.5325 30.7938 27.4014 30.6353 27.2319C30.4768 27.0625 30.4057 26.8822 30.3893 26.7565C30.373 26.6963 30.3839 26.6472 30.3784 26.6144V26.5652L30.3839 26.5706Z" fill="#FFF5E9"/>
<path d="M27.7334 24.5699C27.7334 24.5699 27.7553 24.5972 27.7826 24.6519C27.7935 24.6792 27.8154 24.712 27.8482 24.7339C27.8755 24.7612 27.9028 24.783 27.9465 24.8049C27.9793 24.8322 28.0285 24.8486 28.0777 24.865C28.1214 24.8869 28.187 24.8869 28.2362 24.9033C28.351 24.9142 28.4767 24.9251 28.6024 24.9087C28.7281 24.9087 28.8538 24.876 28.9686 24.8486C29.0232 24.8268 29.0833 24.8158 29.1271 24.794C29.1763 24.7721 29.22 24.7503 29.2528 24.7229C29.2965 24.7011 29.3074 24.6628 29.3402 24.6409C29.3511 24.6082 29.3675 24.5808 29.3675 24.5535C29.3675 24.4988 29.3675 24.4606 29.3675 24.4606C29.3675 24.4606 29.3839 24.4879 29.4113 24.548C29.4222 24.5808 29.4113 24.6191 29.4167 24.6683C29.4003 24.7065 29.3894 24.7721 29.3457 24.8104C29.1981 24.9962 28.9139 25.111 28.6243 25.1328C28.4822 25.1438 28.3346 25.1328 28.198 25.0946C28.1324 25.0727 28.0668 25.0508 28.0121 25.0126C27.9575 24.9798 27.9028 24.947 27.87 24.9033C27.8263 24.8705 27.799 24.8213 27.7826 24.7721C27.7607 24.7284 27.7498 24.6956 27.7498 24.6628C27.7443 24.6027 27.7389 24.5699 27.7389 24.5699H27.7334Z" fill="#FFF5E9"/>
<path d="M24.4322 27.8327C24.4322 27.8327 24.4978 27.8327 24.6016 27.8436C24.7055 27.86 24.8695 27.9092 25.0389 27.9803C25.2083 28.0513 25.3941 28.1442 25.5854 28.2153C25.6783 28.2535 25.7822 28.2699 25.8751 28.2918C25.9352 28.2918 26.1046 28.3137 26.1975 28.3082C26.285 28.2809 26.3724 28.3027 26.4599 28.2535C26.5036 28.2371 26.5528 28.2207 26.5965 28.2043L26.7222 28.1333C26.8097 28.0896 26.8807 28.0185 26.9572 27.9639C27.0283 27.8983 27.0939 27.8327 27.1594 27.7781C27.2742 27.6523 27.3835 27.543 27.4546 27.4611C27.5256 27.3845 27.5693 27.3354 27.5693 27.3354C27.5693 27.3354 27.5584 27.3955 27.5311 27.4993C27.5038 27.6032 27.4491 27.7507 27.3671 27.9202C27.3179 28.0021 27.2687 28.095 27.2032 28.1825C27.1266 28.2645 27.0665 28.3738 26.9518 28.4448C26.9026 28.4831 26.8479 28.5213 26.7933 28.5651C26.7331 28.5979 26.673 28.6252 26.6074 28.6525C26.4872 28.7181 26.3232 28.7236 26.1757 28.7509C26.0336 28.7509 25.9571 28.7345 25.7876 28.7126C25.651 28.6798 25.5308 28.6306 25.4215 28.5705C25.2028 28.4503 25.0389 28.3137 24.9022 28.1989C24.7656 28.0841 24.6563 27.9912 24.5689 27.9311C24.4759 27.871 24.4268 27.8382 24.4268 27.8382L24.4322 27.8327Z" fill="#FFF5E9"/>
<path d="M17.3162 28.5761C17.3162 28.5761 17.3326 28.6198 17.349 28.7018C17.3599 28.74 17.3654 28.7947 17.3873 28.833C17.4146 28.8767 17.4201 28.9204 17.4638 28.9587C17.4911 29.0024 17.5348 29.0297 17.5786 29.0516C17.6277 29.0734 17.6769 29.0953 17.7425 29.1008C17.8026 29.1172 17.8737 29.1117 17.9447 29.1172C18.0212 29.1172 18.0978 29.1172 18.1743 29.1008C18.3328 29.0898 18.4913 29.0461 18.6443 29.0188C18.7919 28.9805 18.934 28.9423 19.0597 28.9095C19.1143 28.8876 19.1799 28.8767 19.2236 28.8548C19.2673 28.833 19.3165 28.822 19.3493 28.8002L19.4641 28.7455C19.4641 28.7455 19.4477 28.7892 19.4094 28.8657C19.3657 28.9368 19.2947 29.0352 19.1799 29.1281C18.9613 29.3194 18.6115 29.4943 18.2235 29.538C18.0267 29.5544 17.819 29.5544 17.6277 29.4724C17.5294 29.4451 17.4419 29.374 17.3709 29.3084C17.2998 29.2319 17.2506 29.1499 17.2342 29.0625C17.2014 28.986 17.2178 28.904 17.2233 28.8384C17.2233 28.7728 17.2506 28.7346 17.2616 28.6909C17.2944 28.6143 17.3162 28.5706 17.3162 28.5706V28.5761Z" fill="#FFF5E9"/>
<path d="M26.8805 15.8799C31.0834 15.8799 35.002 16.8364 37.9096 18.5743C40.5712 20.1648 42.0196 22.2033 41.9868 24.3184C41.9594 26.4772 40.4018 28.5322 37.609 30.0953C34.7616 31.6912 30.9905 32.5711 26.9844 32.5711C22.776 32.5711 18.8629 31.6147 15.9553 29.8767C13.2937 28.2863 11.8453 26.2477 11.8781 24.1326C11.9055 21.9738 13.4631 19.9188 16.2559 18.3557C19.1088 16.7598 22.8799 15.8799 26.8805 15.8799ZM26.8805 15C22.8963 15 18.912 15.8581 15.8296 17.5906C9.5171 21.1321 9.375 26.9746 15.5071 30.6418C18.6442 32.5165 22.8143 33.462 26.9898 33.462C31.1654 33.462 34.9583 32.6039 38.0462 30.8714C44.3587 27.3298 44.5008 21.4874 38.3632 17.8201C35.2261 15.94 31.0506 15 26.8805 15Z" fill="#F79797"/>
</svg>
