<svg width="54" height="54" viewBox="0 0 54 54" fill="none" xmlns="http://www.w3.org/2000/svg">
<path d="M48.7545 31.0256C51.2024 18.7864 43.2649 6.88011 31.0256 4.43225C18.7864 1.98438 6.88012 9.92187 4.43225 22.1611C1.98439 34.4004 9.92188 46.3066 22.1611 48.7545C34.4004 51.2024 46.3066 43.2649 48.7545 31.0256Z" fill="white"/>
<g clip-path="url(#clip0_1_1362)">
<path d="M26.2977 18.427C32.3144 18.427 37.4628 20.8461 39.5407 24.2731C40.0214 25.0717 40.3316 25.9169 40.4556 26.8085C40.8666 25.9324 41.0837 25.0097 41.0837 24.0483C41.0759 18.7604 34.4467 14.4649 26.2822 14.4649V18.427H26.29H26.2977Z" fill="#D6F3FF"/>
<path d="M11.4966 24.0405C11.4966 25.0097 11.7214 25.9479 12.1401 26.8318C12.2642 25.9324 12.5743 25.0717 13.0628 24.2731C15.1407 20.8538 20.2813 18.4347 26.298 18.427V14.4649C18.1258 14.4649 11.4966 18.7604 11.4966 24.0405Z" fill="#D6F3FF"/>
<path d="M39.7966 28.7313C39.3701 29.2586 38.8739 29.7625 38.3157 30.2278C37.4473 30.9488 36.4393 31.5924 35.3073 32.1429C32.7797 33.3602 29.655 34.089 26.2822 34.089V38.8031H26.29C30.4381 38.8031 34.1908 37.1826 36.9045 34.562C37.928 33.5773 38.7964 32.453 39.4942 31.2202C39.8664 30.5689 40.1765 29.8788 40.4401 29.1655C40.5254 28.9329 40.6029 28.7003 40.6805 28.4677C40.8976 27.7699 41.0604 27.0488 41.1689 26.3045C40.9441 26.9558 40.6184 27.5761 40.2075 28.1731C40.0757 28.3592 39.9361 28.5452 39.7888 28.7313H39.7966Z" fill="#A4D9EA"/>
<path d="M17.2418 32.1274C16.1098 31.5769 15.0941 30.9256 14.2335 30.1968C13.6752 29.7238 13.179 29.2276 12.7525 28.6926C12.6052 28.5065 12.4657 28.3204 12.3339 28.1266C11.9539 27.5683 11.6438 26.9791 11.4189 26.3665C11.5197 27.0644 11.6826 27.7389 11.8842 28.398C11.9539 28.6383 12.0392 28.8709 12.1168 29.1035C12.3804 29.8168 12.6905 30.5069 13.0627 31.166C13.7605 32.4065 14.6289 33.5385 15.6524 34.531C18.3738 37.1672 22.1265 38.7954 26.2824 38.7954V34.0813C22.9019 34.0813 19.7695 33.3524 17.2341 32.1274H17.2418Z" fill="#A4D9EA"/>
<path d="M26.2978 18.4268H26.29V18.5354C27.5073 18.6129 28.6471 19.1712 29.2829 20.3652C29.8954 21.5127 30.1745 22.9161 31.5547 23.5364C32.2525 23.8465 32.927 24.1101 33.5861 24.4435C34.0048 24.1567 34.4157 23.8388 34.8266 23.4976C35.2453 23.1487 35.8579 23.7302 35.4392 24.0791C35.129 24.335 34.7801 24.6296 34.4002 24.9165C34.8111 25.2266 35.0903 25.6143 35.2531 26.0563C35.3306 26.2734 35.3849 26.506 35.4082 26.7386C35.4237 26.9247 35.4314 27.1107 35.4082 27.3046C35.3616 27.8318 34.4932 27.8318 34.5475 27.3046C34.5785 26.9712 34.5475 26.6921 34.47 26.4439C34.3847 26.1648 34.2451 25.94 34.059 25.7384C33.9505 25.6221 33.8264 25.5213 33.6946 25.4282C33.6171 25.4825 33.5318 25.5368 33.4543 25.5911C33.2062 25.7461 32.958 25.8935 32.7022 26.0175C31.7252 26.5137 30.6785 26.7773 29.6706 26.4284C28.9185 26.1726 28.3525 25.8779 27.8097 25.3972C27.3057 25.374 26.8018 25.3585 26.29 25.3585V26.4517C27.0189 26.2734 27.7787 26.2579 28.5153 26.5215C28.934 26.6688 29.3449 26.9014 29.7403 27.1728C30.9189 27.9714 32.0354 29.1189 33.2217 29.4756C33.338 29.4756 33.4543 29.4756 33.5783 29.4678C34.4545 29.4058 35.005 29.0801 35.3849 28.6304C35.7726 28.173 35.9819 27.5837 36.1525 26.9867C36.2068 26.7929 36.261 26.599 36.3153 26.4052C36.6255 25.3119 36.9821 24.3505 38.3622 24.3815C38.9205 24.397 38.9205 25.2189 38.3622 25.2034C37.6877 25.1879 37.3853 25.9322 37.1759 26.7153C37.1217 26.9247 37.0752 27.134 37.0209 27.3278C36.9278 27.7155 36.8425 28.0644 36.7262 28.266C36.8891 28.4056 36.9744 28.6692 36.7883 28.8785C36.703 28.9793 36.6177 29.0569 36.5247 29.1499C35.3771 30.3207 33.9427 30.6619 32.33 30.1424C31.9811 30.1036 31.64 30.0881 31.3221 30.0958C30.066 30.1424 29.0193 30.5998 28.2052 31.8016C27.9028 32.2436 27.1584 31.8326 27.4608 31.3829C27.9415 30.6774 28.5541 30.0183 29.3604 29.6461C29.4922 29.5841 29.624 29.5298 29.7636 29.4911C30.2133 29.3515 30.6242 29.3127 31.0197 29.3127C30.8026 29.0956 30.5932 28.863 30.3761 28.6459C29.1821 27.4286 27.6934 26.9944 26.29 27.3511V33.6004C29.5 33.6004 32.4696 32.9336 34.9042 31.8016C36.0439 31.2744 37.0596 30.6463 37.9203 29.933C38.4785 29.4756 38.967 28.9871 39.3934 28.4676C39.5408 28.2893 39.6803 28.1032 39.8044 27.9171C40.0603 27.5527 40.2774 27.1728 40.4557 26.7851C40.3316 25.9012 40.0215 25.0483 39.5408 24.2497C37.4628 20.8304 32.3223 18.4036 26.2978 18.4036V18.4268Z" fill="#FFD255"/>
<path d="M28.6936 24.909C29.8178 25.6301 30.8956 25.6611 31.95 25.2967C32.2292 25.2036 32.5083 25.0796 32.7874 24.9245C31.7174 24.4515 30.4459 24.1337 29.8643 23.304C29.3371 22.5519 29.0812 21.4897 28.5307 20.7764C27.895 19.9623 27.1119 19.4971 26.2822 19.3575V22.9939C26.7397 23.2342 27.1506 23.5211 27.5616 23.9553C27.9415 24.3585 28.3214 24.6609 28.6936 24.9012V24.909Z" fill="#FFD255"/>
<path d="M26.2823 27.3664C25.5768 27.5447 24.8945 27.9247 24.2742 28.5139C23.8788 28.8861 23.2662 28.3046 23.6617 27.9324C24.0416 27.568 24.4913 27.2501 24.972 26.9787C25.3829 26.7539 25.8249 26.5755 26.2823 26.4592V25.366C26.7863 25.366 27.298 25.3815 27.802 25.4048C27.6935 25.3117 27.5849 25.2187 27.4841 25.1101C27.3911 25.0093 27.298 24.9318 27.205 24.8465C26.8949 24.5519 26.5925 24.3115 26.2823 24.1177C24.313 22.8849 22.4599 23.7068 20.9092 25.2342C20.6843 25.4513 20.475 25.6916 20.2656 25.932C20.2191 25.9863 20.1726 26.0406 20.1261 26.0948C19.94 26.3197 19.6764 26.2499 19.529 26.0716C19.405 25.9243 19.3585 25.6994 19.5135 25.5133C19.5135 25.5133 19.529 25.4978 19.529 25.4901C20.7541 24.0169 23.0414 21.7761 25.3287 22.5902C25.6853 22.7143 25.9877 22.8539 26.2746 23.0012V19.3648C25.3209 19.202 24.3052 19.4811 23.398 20.1944C22.9716 20.5278 22.3591 19.9463 22.7855 19.6129C23.7314 18.8686 25.0418 18.4576 26.2746 18.5352V18.4266C20.2579 18.4266 15.1173 20.8535 13.0394 24.2728C12.5509 25.0791 12.2408 25.9398 12.1167 26.8314C12.2873 27.1958 12.4966 27.5525 12.7292 27.8936C12.861 28.0797 13.0006 28.2658 13.1479 28.4519C13.5666 28.9714 14.0551 29.4676 14.6133 29.9251C15.4817 30.6384 16.4974 31.2742 17.6372 31.8092C20.0718 32.9412 23.0491 33.6157 26.2668 33.6157V27.3664H26.2823ZM25.2046 32.0263C25.631 31.6929 26.2513 32.2744 25.8171 32.6078C23.6151 34.3135 22.235 32.0263 20.9634 30.1809C20.63 29.6925 20.2966 29.235 19.971 28.8938C19.7074 29.1032 19.4515 29.3823 19.1956 29.739C18.8855 30.1809 18.3428 30.3515 17.831 30.4833C16.8231 30.7314 15.8694 30.2662 15.063 29.6614C14.6909 29.3823 14.3575 29.0722 14.0551 28.8008C13.6596 28.4286 14.2722 27.8471 14.6676 28.2193C15.001 28.5294 15.4274 28.9016 15.8849 29.204C16.8231 29.8165 17.9318 30.1111 18.7614 28.8938C18.8933 28.7 19.0251 28.4907 19.1879 28.3046C19.0483 28.2193 18.9088 28.1262 18.7692 28.0332C18.1877 27.6533 17.5752 27.2346 17.0324 26.7616C16.8541 26.6066 16.6913 26.4515 16.5362 26.2887C15.5127 25.2264 14.9932 23.9549 16.0787 22.4739C16.3966 22.0398 17.1487 22.4507 16.8231 22.8926C15.8694 24.1875 16.3966 25.1799 17.3581 26.0173C17.5364 26.1724 17.738 26.3274 17.9396 26.4748C18.5676 26.9245 19.2732 27.3354 19.8547 27.7231C19.8857 27.7463 19.9167 27.7696 19.9477 27.7928C20.7929 27.4207 21.6923 27.3974 22.6537 27.4439C23.2042 27.4672 23.212 28.2891 22.6537 28.2658C21.9016 28.2348 21.2891 28.2658 20.7463 28.4596C21.041 28.8086 21.4054 29.3591 21.8241 29.9483C22.8165 31.3517 24.0803 32.9102 25.2046 32.034V32.0263Z" fill="#FFD255"/>
<path d="M27.5614 23.9628C27.1505 23.5286 26.7473 23.2417 26.2821 23.0013C25.9952 22.854 25.6851 22.7145 25.3362 22.5904C23.0489 21.7763 20.7616 24.017 19.5365 25.4902C19.5365 25.4902 19.521 25.5057 19.521 25.5135C19.366 25.6995 19.4125 25.9244 19.5365 26.0717C19.6839 26.25 19.9475 26.3198 20.1336 26.095C20.1801 26.0407 20.2266 25.9864 20.2731 25.9322C20.4825 25.6918 20.6996 25.4514 20.9167 25.2343C22.4596 23.7069 24.3127 22.885 26.2898 24.1178C26.5922 24.3117 26.9024 24.552 27.2125 24.8467C27.7087 24.8622 28.205 24.8854 28.7012 24.9242C28.329 24.6838 27.9568 24.3815 27.5692 23.9783L27.5614 23.9628Z" fill="#FFFCD4"/>
<path d="M26.2822 27.3668C27.6856 27.0101 29.1743 27.4443 30.3683 28.6616C30.5777 28.8787 30.787 29.1113 31.0119 29.3284C30.6164 29.3284 30.2055 29.3672 29.7558 29.5067C29.6162 29.5533 29.4844 29.5998 29.3526 29.6618C28.5462 30.034 27.9337 30.693 27.453 31.3986C27.1506 31.8483 27.895 32.2592 28.1973 31.8173C29.0115 30.6232 30.0582 30.158 31.3142 30.1115C31.6399 30.096 31.9733 30.1115 32.3222 30.158C33.9349 30.6698 35.3693 30.3364 36.5168 29.1656C36.6021 29.0725 36.6952 28.995 36.7805 28.8942C36.9588 28.6849 36.8813 28.4212 36.7184 28.2817C36.8347 28.0801 36.92 27.7312 37.0131 27.3435C37.0596 27.1419 37.1061 26.9326 37.1681 26.731C37.3775 25.9479 37.6876 25.2035 38.3544 25.219C38.9127 25.2346 38.9127 24.4127 38.3544 24.3972C36.9665 24.3584 36.6099 25.3198 36.3075 26.4208C36.2532 26.6147 36.199 26.8085 36.1447 27.0024C35.9741 27.5994 35.7648 28.1886 35.3771 28.6461C34.9972 29.0958 34.4467 29.4214 33.5705 29.4835C33.4465 29.4912 33.3302 29.4912 33.2139 29.4912C32.0353 29.1346 30.9111 27.987 29.7325 27.1884C29.3294 26.9171 28.9262 26.6845 28.5075 26.5371C27.7709 26.2813 27.0111 26.289 26.2822 26.4674V27.3745V27.3668Z" fill="#FFFAB3"/>
<path d="M23.6693 27.9248C23.2739 28.297 23.8864 28.8785 24.2818 28.5063C24.8944 27.9171 25.5844 27.5449 26.29 27.3588V26.4516C25.8325 26.5602 25.3983 26.7385 24.9796 26.9711C24.4989 27.2347 24.0492 27.5604 23.6693 27.9248Z" fill="#FFFCD4"/>
<path d="M22.7932 19.613C22.359 19.9464 22.9793 20.5279 23.4057 20.1945C24.3129 19.4811 25.3286 19.2098 26.2822 19.3648V18.5352C25.0494 18.4577 23.7391 18.8686 22.7932 19.613Z" fill="#FFFCD4"/>
<path d="M28.5307 20.7839C29.0812 21.4895 29.3371 22.5517 29.8643 23.3115C30.4459 24.1411 31.7097 24.459 32.7874 24.932C32.5083 25.0793 32.2292 25.2034 31.95 25.3042C30.9033 25.6686 29.8178 25.6376 28.6936 24.9165C28.1973 24.8777 27.7011 24.8545 27.2049 24.839C27.2979 24.9243 27.391 25.0095 27.484 25.1026C27.5926 25.2111 27.7011 25.3042 27.8019 25.3972C28.3447 25.8779 28.9107 26.1726 29.6628 26.4284C30.6707 26.7773 31.7252 26.5137 32.6944 26.0175C32.9502 25.8857 33.1983 25.7461 33.4465 25.5911C33.5317 25.5368 33.6093 25.4825 33.6868 25.4282C33.8186 25.5213 33.9427 25.6298 34.0512 25.7384C34.2373 25.94 34.3769 26.1726 34.4622 26.4439C34.5397 26.692 34.5707 26.9789 34.5397 27.3046C34.4932 27.8318 35.3538 27.8318 35.4003 27.3046C35.4158 27.1107 35.4081 26.9247 35.4003 26.7386C35.3771 26.4982 35.3306 26.2734 35.2453 26.0563C35.0824 25.6221 34.8033 25.2266 34.3924 24.9165C34.7723 24.6296 35.1212 24.335 35.4314 24.0791C35.85 23.7302 35.2375 23.1487 34.8188 23.4976C34.4079 23.8388 33.997 24.1567 33.5783 24.4435C32.9192 24.1101 32.2369 23.8465 31.5469 23.5364C30.1667 22.9161 29.8798 21.5127 29.2751 20.3652C28.6393 19.1712 27.4995 18.6129 26.2822 18.5354V19.365C27.1119 19.5046 27.895 19.9698 28.5307 20.7839Z" fill="#FFFAB3"/>
<path d="M22.6615 28.2582C23.2197 28.2815 23.212 27.4596 22.6615 27.4363C21.7001 27.3898 20.8006 27.4131 19.9555 27.7852C19.9245 27.762 19.8935 27.7387 19.8625 27.7155C19.281 27.3278 18.5754 26.9168 17.9474 26.4671C17.7458 26.3198 17.5442 26.1648 17.3658 26.0097C16.4044 25.1723 15.8772 24.1721 16.8309 22.885C17.1488 22.4508 16.4044 22.0399 16.0865 22.4663C15.001 23.9395 15.5205 25.2111 16.544 26.2811C16.699 26.4439 16.8696 26.6067 17.0402 26.754C17.5829 27.227 18.1955 27.6457 18.777 28.0256C18.9243 28.1186 19.0639 28.2117 19.1957 28.297C19.0329 28.4831 18.901 28.6846 18.7692 28.8862C17.9396 30.1035 16.8386 29.8089 15.8927 29.1964C15.4275 28.894 15.0088 28.5218 14.6754 28.2117C14.28 27.8395 13.6674 28.421 14.0629 28.7932C14.3575 29.0723 14.6986 29.3825 15.0708 29.6538C15.8772 30.2586 16.8309 30.7316 17.8388 30.4757C18.3428 30.3516 18.8933 30.1733 19.2034 29.7314C19.4593 29.3747 19.7152 29.1033 19.9788 28.8862C20.3122 29.2274 20.6378 29.6848 20.9712 30.1733C22.2428 32.0187 23.6229 34.2982 25.8249 32.6002C26.2591 32.2668 25.6388 31.6852 25.2124 32.0187C24.0881 32.8948 22.8243 31.3363 21.8319 29.933C21.4209 29.3514 21.0488 28.7932 20.7541 28.4443C21.2969 28.2504 21.9016 28.2194 22.6615 28.2504V28.2582Z" fill="#FFFCD4"/>
<path d="M26.2822 13.9998V14.465C34.4389 14.465 41.0759 18.7604 41.0759 24.0406C41.0759 25.002 40.851 25.9247 40.4479 26.8008C40.2695 27.1885 40.0447 27.5684 39.7966 27.9328C39.6648 28.1189 39.533 28.305 39.3856 28.4833C38.9669 29.0028 38.4707 29.4913 37.9125 29.9487C37.0441 30.6621 36.0284 31.2901 34.8964 31.8173C32.4695 32.9493 29.4999 33.6161 26.2822 33.6161V34.0891C29.655 34.0891 32.7719 33.368 35.3073 32.143C36.4393 31.6002 37.4473 30.9567 38.3157 30.2279C38.8739 29.7626 39.3701 29.2587 39.7966 28.7314C39.9439 28.5453 40.0835 28.3593 40.2153 28.1732C40.6262 27.5762 40.9518 26.9559 41.1767 26.3046C41.4326 25.5758 41.5721 24.8237 41.5721 24.0406C41.5721 18.5046 34.718 13.9998 26.2822 13.9998Z" fill="#1DA7E1"/>
<path d="M12.7523 28.7006C13.1787 29.2356 13.675 29.7318 14.2332 30.2048C15.1016 30.9336 16.1096 31.5849 17.2416 32.1354C19.777 33.3605 22.9016 34.0893 26.2899 34.0893V33.6163C23.0722 33.6163 20.0871 32.9418 17.6603 31.8098C16.5205 31.2748 15.5048 30.6468 14.6364 29.9257C14.0781 29.4682 13.5897 28.972 13.171 28.4525C13.0237 28.2664 12.8841 28.0804 12.7523 27.8943C12.5197 27.5531 12.3103 27.1965 12.1398 26.832C11.7211 25.9481 11.4962 25.01 11.4962 24.0408C11.4962 18.7606 18.1255 14.4652 26.2821 14.4652V14C17.8541 14 11 18.5048 11 24.0408C11 24.8471 11.1473 25.6302 11.4187 26.3746C11.6435 26.9871 11.9459 27.5686 12.3336 28.1346C12.4654 28.3285 12.605 28.5145 12.7523 28.7006Z" fill="#27AAE1"/>
</g>
<defs>
<clipPath id="clip0_1_1362">
<rect width="30.572" height="24.7957" fill="white" transform="translate(11 14)"/>
</clipPath>
</defs>
</svg>
