<svg width="54" height="54" viewBox="0 0 54 54" fill="none" xmlns="http://www.w3.org/2000/svg">
<path d="M48.7545 31.0256C51.2024 18.7864 43.2649 6.88011 31.0256 4.43225C18.7864 1.98439 6.88012 9.92187 4.43225 22.1611C1.98439 34.4004 9.92188 46.3066 22.1611 48.7545C34.4004 51.2024 46.3066 43.2649 48.7545 31.0256Z" fill="white"/>
<path d="M30.285 13C23.2587 13 17.5596 18.7969 17.5596 25.9436C17.5596 33.0904 23.2587 38.8873 30.285 38.8873C37.3113 38.8873 43.0105 33.0904 43.0105 25.9436C43.0105 18.7969 37.3163 13 30.285 13ZM30.285 30.9663C27.5607 30.9663 25.3471 28.7198 25.3471 25.9436C25.3471 23.1675 27.5556 20.921 30.285 20.921C33.0144 20.921 35.218 23.1675 35.218 25.9436C35.218 28.7198 33.0094 30.9663 30.285 30.9663Z" fill="url(#paint0_linear_1_1765)"/>
<g style="mix-blend-mode:multiply">
<path d="M30.2851 20.4217C27.5607 20.4217 25.3472 22.6681 25.3472 25.4443C25.3472 25.5309 25.3572 25.6124 25.3622 25.6939C25.4924 23.0399 27.6409 20.926 30.2851 20.926C32.9294 20.926 35.0778 23.0399 35.208 25.6939C35.208 25.6124 35.223 25.5258 35.223 25.4443C35.223 22.6732 33.0145 20.4217 30.2901 20.4217H30.2851Z" fill="#FADAB2"/>
<path d="M30.285 38.3879C23.3389 38.3879 17.6948 32.7286 17.5646 25.6939C17.5646 25.7754 17.5596 25.862 17.5596 25.9435C17.5596 33.0953 23.2587 38.8871 30.285 38.8871C37.3113 38.8871 43.0105 33.0902 43.0105 25.9435C43.0105 25.8569 43.0105 25.7754 43.0055 25.6939C42.8753 32.7286 37.2312 38.3879 30.285 38.3879Z" fill="#FADAB2"/>
</g>
<path d="M30.3804 37.4966C29.4138 36.8191 28.5324 37.2674 27.646 37.3336C27.4256 37.303 27.2053 37.247 26.9799 37.1655C26.7545 37.084 26.5342 36.9719 26.3088 36.8242C25.9983 36.7071 25.6978 36.5746 25.4024 36.432C24.3557 36.0143 23.2689 35.6322 22.3925 34.858C22.2173 34.7001 22.052 34.532 21.8967 34.3384C18.8769 32.3569 18.4362 28.786 18.8669 25.7399C18.8669 25.424 18.8769 25.1133 18.8919 24.8026C19.0772 21.3795 20.2441 18.155 23.0836 16.6676C23.3641 16.5199 23.6646 16.3925 23.9801 16.2804C26.3439 14.0442 29.4188 13.5959 32.4437 14.5434C32.6741 14.5944 32.9044 14.6453 33.1298 14.7064C35.9994 15.3839 39.5101 16.2753 40.3414 19.9735C40.4616 20.2639 40.5718 20.5644 40.6569 20.8752C40.747 21.1859 40.8122 21.5119 40.8622 21.843C40.9924 22.1435 41.1076 22.4543 41.2078 22.7599C41.4482 23.5036 41.6034 24.2677 41.6635 25.0471C41.6836 25.3069 41.6936 25.5718 41.6886 25.8315C41.8238 26.2747 41.8889 26.7077 41.8939 27.1407C41.8939 27.3546 41.8839 27.5686 41.8689 27.7825C42.1393 31.0121 40.3865 33.2432 37.9826 35.4336C37.7673 35.6119 37.5369 35.78 37.2915 35.9277C36.5703 36.376 35.734 36.6765 34.7724 36.7784C34.512 36.9057 34.2516 37.028 33.9862 37.135C33.1949 37.4559 32.3736 37.6443 31.387 37.5832C31.0515 37.5577 30.7159 37.5272 30.3704 37.4915L30.3804 37.4966ZM30.2301 20.1365C29.4138 19.3979 28.0917 19.8462 27.1302 20.4524C26.9449 20.5593 26.7646 20.6816 26.5943 20.8089C26.389 20.9618 26.1886 21.1299 26.0033 21.3081C25.187 22.3218 24.1353 23.4221 24.0502 24.8179C24.0352 25.098 24.1103 25.3833 24.1203 25.694C24.1904 28.3632 25.4625 29.6724 27.3755 31.0477C27.5959 31.2056 27.8213 31.3584 28.0516 31.4909C28.7478 31.8933 29.499 32.1786 30.2852 32.3008C30.5607 32.3008 30.8311 32.2804 31.0965 32.2499C31.397 32.2091 31.6875 32.148 31.9729 32.0665C32.2584 31.985 32.5338 31.8831 32.7993 31.766C33.3602 31.4603 33.8009 31.0172 34.2716 30.8338C34.497 30.6453 34.7023 30.4415 34.8976 30.2276C35.5537 28.7809 36.8708 27.8895 36.4401 26.1626C36.4401 25.8978 36.4251 25.6431 36.4101 25.3884C36.35 24.3849 36.1847 23.4731 35.6989 22.6427C35.5787 22.4339 35.4335 22.2301 35.2682 22.0366C35.0228 21.8226 34.7825 21.6291 34.5421 21.4559C34.3067 21.2878 34.0663 21.1349 33.8309 21.0076C33.5955 20.8803 33.3602 20.7682 33.1198 20.6765C32.4086 20.4014 31.6825 20.2894 30.8862 20.2945C30.6658 20.2384 30.4455 20.1875 30.2201 20.1365H30.2301Z" fill="url(#paint1_linear_1_1765)"/>
<g style="mix-blend-mode:screen">
<path d="M24.1199 26.2648C24.1901 28.934 25.4621 30.2431 27.3752 31.6185C27.5955 31.7815 27.8209 31.9292 28.0513 32.0616C28.7474 32.4692 29.4986 32.7493 30.2849 32.8716C30.5603 32.8716 30.8307 32.8563 31.0962 32.8206C31.3966 32.7799 31.6871 32.7188 31.9726 32.6373C32.258 32.5557 32.5335 32.4539 32.7989 32.3316C33.3598 32.026 33.8005 31.5828 34.2713 31.3994C34.4966 31.211 34.702 31.0072 34.8973 30.7933C35.5032 29.4536 36.6751 28.5876 36.5049 27.1053C36.3696 28.2616 35.4231 29.0664 34.8973 30.2227C34.702 30.4367 34.4966 30.6404 34.2713 30.8289C33.8005 31.0072 33.3598 31.4555 32.7989 31.7611C32.5335 31.8783 32.253 31.9801 31.9726 32.0616C31.6871 32.1431 31.3966 32.2043 31.0962 32.245C30.8307 32.2807 30.5603 32.296 30.2849 32.296C29.4986 32.1788 28.7474 31.8935 28.0513 31.486C27.8209 31.3536 27.5955 31.2008 27.3752 31.0429C25.4621 29.6624 24.1951 28.3584 24.1199 25.6891C24.1199 25.5261 24.0949 25.3733 24.0749 25.2205C24.0699 25.2765 24.0548 25.3275 24.0498 25.3784C24.0348 25.6586 24.1099 25.9438 24.1199 26.2546V26.2648Z" fill="#451712"/>
<path d="M18.8615 26.3054C18.8615 25.9896 18.8715 25.6789 18.8865 25.3681C19.0718 21.945 20.2387 18.7155 23.0783 17.2332C23.3587 17.0854 23.6592 16.9581 23.9747 16.846C26.3385 14.6098 29.4134 14.1615 32.4383 15.109C32.6687 15.1599 32.899 15.216 33.1244 15.272C35.994 15.9495 39.5047 16.8409 40.336 20.5391C40.4562 20.8295 40.5664 21.13 40.6515 21.4407C40.7417 21.7515 40.8068 22.0724 40.8568 22.4086C40.987 22.7091 41.1022 23.0147 41.2024 23.3255C41.4428 24.0692 41.598 24.8333 41.6581 25.6126C41.6782 25.8724 41.6882 26.1322 41.6832 26.3971C41.7933 26.7588 41.8534 27.1103 41.8735 27.4617C41.8735 27.3548 41.8885 27.2478 41.8885 27.1357C41.8835 26.7027 41.8184 26.2698 41.6832 25.8266C41.6832 25.5617 41.6832 25.3019 41.6581 25.0421C41.598 24.2628 41.4428 23.4987 41.2024 22.755C41.1022 22.4442 40.987 22.1386 40.8568 21.8381C40.8118 21.5069 40.7417 21.1809 40.6515 20.8702C40.5614 20.5595 40.4562 20.2589 40.336 19.9686C39.5047 16.2704 35.994 15.3739 33.1244 14.7015C32.899 14.6403 32.6687 14.5894 32.4383 14.5385C29.4084 13.591 26.3335 14.0393 23.9747 16.2755C23.6592 16.3876 23.3587 16.5149 23.0783 16.6626C20.2337 18.145 19.0668 21.3745 18.8865 24.7976C18.8715 25.1083 18.8615 25.4191 18.8615 25.7349C18.7613 26.443 18.7112 27.1867 18.7263 27.9253C18.7413 27.3751 18.7864 26.8301 18.8615 26.3003V26.3054Z" fill="#451712"/>
<path d="M41.8884 28.0373C41.8884 28.1443 41.8884 28.2513 41.8784 28.3531C41.8884 28.4754 41.8934 28.5976 41.8934 28.7148C41.9035 28.4958 41.9035 28.2665 41.8934 28.0322L41.8884 28.0373Z" fill="#451712"/>
</g>
<g style="mix-blend-mode:multiply">
<path d="M36.4501 25.3376C36.4501 25.0728 36.435 24.8181 36.42 24.5634C36.3599 23.5599 36.1946 22.6481 35.7089 21.8177C35.5887 21.6089 35.4434 21.4051 35.2782 21.2167C35.0328 20.9976 34.7924 20.8041 34.552 20.636C34.3166 20.4628 34.0762 20.315 33.8409 20.1877C33.6055 20.0603 33.3701 19.9483 33.1297 19.8566C32.4186 19.5815 31.6924 19.4694 30.8961 19.4745C30.6758 19.4185 30.4554 19.3676 30.2301 19.3166C29.4137 18.578 28.0916 19.0263 27.1301 19.6325C26.9448 19.7394 26.7645 19.8617 26.5942 19.989C26.3889 20.1418 26.1886 20.3099 26.0033 20.4882C25.1869 21.5019 24.1352 22.6022 24.0501 23.9979C24.0401 24.1762 24.0651 24.3596 24.0902 24.5481C24.2855 23.2848 25.237 22.2609 25.9982 21.3185C26.1835 21.1403 26.3839 20.9722 26.5892 20.8193C26.7595 20.692 26.9398 20.5697 27.1251 20.4628C28.0916 19.8566 29.4087 19.4083 30.225 20.1469C30.4504 20.1979 30.6708 20.2488 30.8911 20.3049C31.6874 20.3049 32.4136 20.4169 33.1247 20.6869C33.3601 20.7786 33.6005 20.8856 33.8358 21.018C34.0712 21.1453 34.3066 21.2982 34.547 21.4663C34.7874 21.6395 35.0278 21.833 35.2732 22.047C35.4384 22.2405 35.5837 22.4443 35.7039 22.6531C36.1896 23.4835 36.3549 24.3953 36.415 25.3988C36.43 25.6484 36.44 25.9082 36.445 26.173C36.4651 26.2545 36.4801 26.3361 36.4951 26.4125C36.5502 26.0864 36.5452 25.735 36.445 25.3427L36.4501 25.3376Z" fill="#D6675C"/>
<path d="M37.9923 34.6084C37.777 34.7867 37.5466 34.9548 37.3012 35.1025C36.58 35.5507 35.7437 35.8513 34.7822 35.9532C34.5217 36.0805 34.2613 36.2028 33.9959 36.3097C33.2046 36.6307 32.3833 36.8242 31.3967 36.758C31.0612 36.7325 30.7256 36.6969 30.3801 36.6663C29.4135 35.9888 28.5321 36.4371 27.6457 36.5033C27.4253 36.4727 27.205 36.4167 26.9796 36.3352C26.7543 36.2537 26.5339 36.1416 26.3085 35.9939C25.998 35.8768 25.6976 35.7443 25.4021 35.6017C24.3554 35.184 23.2686 34.8019 22.3922 34.0277C22.217 33.8698 22.0517 33.7017 21.8964 33.5081C19.6378 32.0258 18.8265 29.6571 18.7364 27.2833C18.6562 29.922 19.3774 32.688 21.8964 34.3384C22.0517 34.5269 22.217 34.7001 22.3922 34.858C23.2636 35.6373 24.3554 36.0143 25.4021 36.432C25.6976 36.5746 26.003 36.7071 26.3085 36.8242C26.5339 36.972 26.7593 37.084 26.9796 37.1655C27.2 37.247 27.4253 37.3031 27.6457 37.3336C28.5371 37.2674 29.4135 36.8242 30.3801 37.4966C30.7206 37.5323 31.0612 37.5628 31.3967 37.5883C32.3833 37.6494 33.2046 37.461 33.9959 37.1401C34.2613 37.0331 34.5167 36.9108 34.7822 36.7835C35.7487 36.6816 36.58 36.3811 37.3012 35.9328C37.5416 35.7851 37.772 35.617 37.9923 35.4387C40.3311 33.3094 42.0488 31.1343 41.8936 28.0423C41.7333 30.7013 40.1157 32.6727 37.9923 34.6084Z" fill="#D6675C"/>
<path d="M41.8834 26.7995C41.8834 26.8505 41.8834 26.9014 41.8784 26.9523C41.8884 27.0797 41.8934 27.1968 41.8985 27.3191C41.8985 27.258 41.9035 27.1968 41.9035 27.1357C41.9035 27.0237 41.8934 26.9065 41.8834 26.7944V26.7995Z" fill="#D6675C"/>
</g>
<path d="M38.974 19.5967C39.2445 19.9889 39.3496 20.3811 39.2144 20.4779C39.0792 20.5747 38.7537 20.3302 38.4883 19.943C38.2228 19.5508 38.1126 19.1535 38.2479 19.0618C38.3831 18.965 38.7086 19.2095 38.974 19.5967Z" fill="url(#paint2_linear_1_1765)"/>
<path d="M23.6392 22.9484C23.9096 23.3407 24.0148 23.738 23.8796 23.8297C23.7444 23.9265 23.4188 23.687 23.1484 23.2948C22.883 22.9026 22.7728 22.5103 22.908 22.4136C23.0432 22.3168 23.3688 22.5613 23.6342 22.9484H23.6392Z" fill="url(#paint3_linear_1_1765)"/>
<path d="M35.7688 18.3946C35.5935 18.7665 35.3481 19.011 35.2179 18.9499C35.0927 18.8887 35.1327 18.5373 35.308 18.1654C35.4833 17.7935 35.7287 17.549 35.8589 17.6102C35.9891 17.6713 35.9491 18.0228 35.7688 18.3946Z" fill="url(#paint4_linear_1_1765)"/>
<path d="M31.3866 16.7033C30.986 16.683 30.6655 16.5454 30.6705 16.4028C30.6805 16.2602 31.011 16.1634 31.4167 16.1838C31.8173 16.2041 32.1428 16.3417 32.1328 16.4843C32.1228 16.6269 31.7923 16.7237 31.3916 16.7033H31.3866Z" fill="url(#paint5_linear_1_1765)"/>
<path d="M36.5851 32.7747C36.9056 32.9937 37.1059 33.2637 37.0308 33.3757C36.9557 33.4929 36.6352 33.4063 36.3096 33.1873C35.9891 32.9682 35.7888 32.6983 35.8639 32.5811C35.939 32.4639 36.2596 32.5505 36.5851 32.7696V32.7747Z" fill="url(#paint6_linear_1_1765)"/>
<path d="M34.5766 16.8611C34.9071 16.7949 35.1976 16.8611 35.2226 17.0088C35.2476 17.1566 35.0023 17.3247 34.6717 17.3909C34.3412 17.452 34.0507 17.3909 34.0257 17.2432C34.0006 17.0954 34.246 16.9273 34.5766 16.8611Z" fill="url(#paint7_linear_1_1765)"/>
<path d="M37.3111 23.2999C37.0907 23.5597 36.8203 23.687 36.7101 23.5903C36.5999 23.4935 36.6901 23.2031 36.9104 22.9484C37.1358 22.6886 37.4012 22.5613 37.5114 22.6581C37.6216 22.7549 37.5314 23.0452 37.3061 23.2999H37.3111Z" fill="url(#paint8_linear_1_1765)"/>
<path d="M23.6193 31.0224C23.9147 31.1854 24.1 31.4248 24.0299 31.5573C23.9598 31.6897 23.6643 31.6592 23.3689 31.4961C23.0734 31.3331 22.8881 31.0937 22.9582 30.9613C23.0283 30.8339 23.3238 30.8594 23.6193 31.0224Z" fill="url(#paint9_linear_1_1765)"/>
<path d="M38.4729 34.8173C38.3527 35.1383 38.1474 35.3573 38.0122 35.3013C37.872 35.2503 37.8619 34.9447 37.9821 34.6238C38.1023 34.3029 38.3077 34.0889 38.4429 34.1399C38.5831 34.1908 38.5931 34.4964 38.4729 34.8173Z" fill="url(#paint10_linear_1_1765)"/>
<path d="M34.9425 31.3025C34.8223 31.6234 34.617 31.8424 34.4768 31.7864C34.3416 31.7354 34.3265 31.4298 34.4467 31.1089C34.5669 30.788 34.7723 30.574 34.9075 30.625C35.0477 30.6759 35.0577 30.9815 34.9425 31.3025Z" fill="url(#paint11_linear_1_1765)"/>
<path d="M37.2112 30.7168C37.091 31.0377 36.8857 31.2516 36.7505 31.2007C36.6102 31.1447 36.6002 30.8441 36.7204 30.5232C36.8406 30.2023 37.0459 29.9832 37.1812 30.0393C37.3214 30.0953 37.3314 30.3959 37.2112 30.7168Z" fill="url(#paint12_linear_1_1765)"/>
<path d="M41.6984 26.0405C41.5782 26.3614 41.3729 26.5804 41.2326 26.5244C41.0974 26.4735 41.0824 26.1678 41.2026 25.8469C41.3228 25.526 41.5281 25.307 41.6633 25.363C41.8036 25.4139 41.8136 25.7196 41.6984 26.0354V26.0405Z" fill="url(#paint13_linear_1_1765)"/>
<path d="M20.2236 24.5582C20.1034 24.8791 19.8981 25.0981 19.7579 25.0421C19.6227 24.9912 19.6076 24.6855 19.7228 24.3646C19.843 24.0437 20.0483 23.8297 20.1886 23.8807C20.3238 23.9316 20.3388 24.2373 20.2186 24.5582H20.2236Z" fill="url(#paint14_linear_1_1765)"/>
<path d="M39.9504 27.6706C39.7951 27.9762 39.5647 28.1647 39.4345 28.0985C39.3043 28.0272 39.3244 27.7266 39.4796 27.4261C39.6349 27.1205 39.8652 26.932 39.9954 26.9982C40.1256 27.0695 40.1056 27.3701 39.9504 27.6706Z" fill="url(#paint15_linear_1_1765)"/>
<path d="M27.6308 18.4302C27.8611 18.6798 27.9613 18.9651 27.8561 19.0669C27.751 19.1688 27.4755 19.0516 27.2451 18.802C27.0148 18.5524 26.9146 18.2672 27.0198 18.1653C27.125 18.0634 27.4004 18.1806 27.6308 18.4302Z" fill="url(#paint16_linear_1_1765)"/>
<path d="M27.125 33.2584C27.3454 33.4621 27.4706 33.6913 27.4005 33.7728C27.3303 33.8493 27.095 33.7525 26.8696 33.5487C26.6442 33.345 26.524 33.1157 26.5942 33.0342C26.6643 32.9578 26.8997 33.0546 27.125 33.2584Z" fill="url(#paint17_linear_1_1765)"/>
<path d="M39.8452 31.3483C40.0656 31.552 40.1908 31.7812 40.1207 31.8577C40.0506 31.9392 39.8152 31.8373 39.5898 31.6335C39.3645 31.4298 39.2443 31.2005 39.3144 31.1241C39.3845 31.0426 39.6199 31.1445 39.8452 31.3483Z" fill="url(#paint18_linear_1_1765)"/>
<path d="M41.2476 29.7029C41.4729 29.9067 41.5931 30.1359 41.523 30.2123C41.4529 30.2938 41.2125 30.1919 40.9922 29.9882C40.7668 29.7844 40.6466 29.5552 40.7167 29.4788C40.7868 29.3973 41.0222 29.4992 41.2426 29.7029H41.2476Z" fill="url(#paint19_linear_1_1765)"/>
<path d="M40.4413 23.7991C40.1709 23.9213 39.9155 23.9468 39.8704 23.85C39.8253 23.7532 40.0156 23.575 40.2861 23.4476C40.5615 23.3203 40.8169 23.2999 40.857 23.3967C40.902 23.4935 40.7117 23.6717 40.4413 23.7991Z" fill="url(#paint20_linear_1_1765)"/>
<path d="M38.6083 21.8379C38.8336 22.0417 38.9538 22.2709 38.8837 22.3473C38.8136 22.4288 38.5782 22.3269 38.3579 22.1232C38.1325 21.9194 38.0123 21.6902 38.0824 21.6087C38.1526 21.5272 38.3879 21.629 38.6133 21.8328L38.6083 21.8379Z" fill="url(#paint21_linear_1_1765)"/>
<path d="M35.9791 21.5273C36.1994 21.7311 36.3246 21.9603 36.2545 22.0418C36.1844 22.1182 35.949 22.0214 35.7237 21.8177C35.5033 21.6139 35.3781 21.3847 35.4482 21.3032C35.5183 21.2217 35.7537 21.3235 35.9791 21.5273Z" fill="url(#paint22_linear_1_1765)"/>
<path d="M38.0225 27.2884C38.2478 27.4922 38.368 27.7214 38.2979 27.7978C38.2278 27.8793 37.9924 27.7774 37.7671 27.5737C37.5417 27.3699 37.4215 27.1407 37.4916 27.0643C37.5617 26.9879 37.7971 27.0847 38.0225 27.2884Z" fill="url(#paint23_linear_1_1765)"/>
<path d="M25.2768 30.4874C25.0364 30.6657 24.791 30.737 24.7259 30.6504C24.6658 30.5638 24.8111 30.3499 25.0565 30.1716C25.3019 29.9933 25.5473 29.922 25.6074 30.0086C25.6675 30.0952 25.5222 30.3091 25.2768 30.4874Z" fill="url(#paint24_linear_1_1765)"/>
<path d="M28.8777 16.5658C28.5521 16.8307 28.2266 16.9631 28.1515 16.8663C28.0764 16.7696 28.2767 16.4792 28.6072 16.2143C28.9328 15.9494 29.2583 15.817 29.3334 15.9138C29.4085 16.0106 29.2032 16.3009 28.8777 16.5658Z" fill="url(#paint25_linear_1_1765)"/>
<path d="M24.5907 20.488C24.4505 20.8548 24.2351 21.1146 24.1099 21.0636C23.9847 21.0127 23.9948 20.6765 24.13 20.3097C24.2702 19.943 24.4855 19.6832 24.6107 19.7341C24.741 19.7851 24.7259 20.1213 24.5907 20.488Z" fill="url(#paint26_linear_1_1765)"/>
<path d="M22.1118 18.5728C22.2421 18.9395 22.2471 19.2808 22.1118 19.3267C21.9866 19.3725 21.7763 19.1127 21.6461 18.7409C21.5159 18.369 21.5109 18.0328 21.6411 17.987C21.7713 17.9411 21.9766 18.2009 22.1118 18.5728Z" fill="url(#paint27_linear_1_1765)"/>
<path d="M21.2001 20.8344C20.7844 21.1503 20.3587 21.2827 20.2535 21.135C20.1434 20.9873 20.3938 20.6103 20.8094 20.2996C21.2251 19.9838 21.6508 19.8513 21.7559 19.999C21.8611 20.1468 21.6157 20.5237 21.2001 20.8344Z" fill="url(#paint28_linear_1_1765)"/>
<path d="M39.4145 29.5554C39.1641 29.8559 38.8786 30.0291 38.7735 29.9374C38.6683 29.8508 38.7885 29.5299 39.0389 29.2345C39.2893 28.9339 39.5748 28.7607 39.6799 28.8524C39.7851 28.939 39.6649 29.2549 39.4145 29.5554Z" fill="url(#paint29_linear_1_1765)"/>
<path d="M26.8442 31.6031C26.5938 31.9037 26.3083 32.0769 26.2032 31.9852C26.098 31.8986 26.2182 31.5828 26.4686 31.2822C26.719 30.9817 27.0044 30.8085 27.1096 30.9002C27.2148 30.9919 27.0946 31.3077 26.8442 31.6031Z" fill="url(#paint30_linear_1_1765)"/>
<path d="M24.881 18.1092C25.1464 18.3996 25.2766 18.7052 25.1815 18.802C25.0813 18.8988 24.7859 18.7409 24.5254 18.4505C24.26 18.1653 24.1248 17.8545 24.225 17.7578C24.3251 17.661 24.6206 17.8189 24.881 18.1092Z" fill="url(#paint31_linear_1_1765)"/>
<path d="M22.7927 21.3847C22.5373 21.6801 22.2117 21.8126 22.0665 21.6852C21.9213 21.5579 22.0114 21.2115 22.2668 20.9161C22.5222 20.6206 22.8478 20.4882 22.993 20.6155C23.1382 20.7429 23.0481 21.0892 22.7927 21.3847Z" fill="url(#paint32_linear_1_1765)"/>
<path d="M32.9594 18.8682C32.7691 19.0821 32.5337 19.184 32.4286 19.0872C32.3234 18.9904 32.3885 18.7408 32.5788 18.5218C32.7641 18.3078 33.0045 18.206 33.1096 18.3028C33.2148 18.3995 33.1497 18.6491 32.9594 18.8682Z" fill="url(#paint33_linear_1_1765)"/>
<path d="M33.47 15.6745C33.6953 15.8528 33.8055 16.0871 33.7204 16.1992C33.6352 16.3112 33.3798 16.2603 33.1595 16.0871C32.9341 15.9088 32.8189 15.6745 32.904 15.5624C32.9892 15.4504 33.2446 15.5013 33.47 15.6745Z" fill="url(#paint34_linear_1_1765)"/>
<path d="M24.0199 29.1172C23.8446 29.4891 23.5992 29.7387 23.469 29.6725C23.3388 29.6113 23.3789 29.2599 23.5592 28.888C23.7345 28.5162 23.9798 28.2716 24.1101 28.3328C24.2353 28.3939 24.1952 28.7454 24.0199 29.1172Z" fill="url(#paint35_linear_1_1765)"/>
<path d="M28.9727 33.3706C28.7974 33.7425 28.552 33.987 28.4218 33.9259C28.2966 33.8647 28.3316 33.5133 28.5069 33.1414C28.6822 32.7696 28.9276 32.525 29.0578 32.5862C29.183 32.6473 29.1479 32.9988 28.9727 33.3706Z" fill="url(#paint36_linear_1_1765)"/>
<path d="M19.6378 27.4312C19.2371 27.4108 18.9116 27.2732 18.9216 27.1306C18.9316 26.988 19.2622 26.8861 19.6678 26.9116C20.0685 26.9319 20.389 27.0695 20.384 27.2121C20.3739 27.3547 20.0434 27.4515 19.6428 27.4312H19.6378Z" fill="url(#paint37_linear_1_1765)"/>
<path d="M22.8228 27.5839C23.1533 27.5177 23.4438 27.5839 23.4688 27.7317C23.4939 27.8794 23.2485 28.0475 22.9179 28.1137C22.5874 28.1799 22.2969 28.1137 22.2669 27.966C22.2419 27.8183 22.4872 27.6502 22.8178 27.5839H22.8228Z" fill="url(#paint38_linear_1_1765)"/>
<path d="M21.2055 29.591C21.0152 29.805 20.7798 29.9068 20.6746 29.8101C20.5695 29.7133 20.6346 29.4637 20.8249 29.2446C21.0102 29.0307 21.2506 28.9288 21.3557 29.0256C21.4609 29.1224 21.3958 29.372 21.2055 29.591Z" fill="url(#paint39_linear_1_1765)"/>
<path d="M21.7161 26.402C21.9414 26.5803 22.0566 26.8147 21.9665 26.9267C21.8813 27.0388 21.6259 26.9929 21.4056 26.8147C21.1802 26.6364 21.065 26.402 21.1501 26.29C21.2353 26.1779 21.4907 26.2289 21.7161 26.402Z" fill="url(#paint40_linear_1_1765)"/>
<path d="M35.238 35.8005C35.0627 36.1672 34.8173 36.4168 34.6871 36.3557C34.5619 36.2946 34.5969 35.9431 34.7772 35.5713C34.9525 35.1994 35.1979 34.9549 35.3281 35.016C35.4533 35.0771 35.4183 35.4286 35.238 35.8005Z" fill="url(#paint41_linear_1_1765)"/>
<path d="M30.851 34.1144C30.4503 34.094 30.1298 33.9565 30.1348 33.8139C30.1448 33.6712 30.4754 33.5693 30.881 33.5948C31.2817 33.6152 31.6022 33.7527 31.5972 33.8954C31.5922 34.038 31.2566 34.1348 30.856 34.1144H30.851Z" fill="url(#paint42_linear_1_1765)"/>
<path d="M34.0409 34.2672C34.3715 34.201 34.6619 34.2672 34.687 34.4149C34.712 34.5626 34.4666 34.7307 34.1361 34.797C33.8055 34.8632 33.5151 34.797 33.49 34.6492C33.465 34.5015 33.7104 34.3334 34.0409 34.2672Z" fill="url(#paint43_linear_1_1765)"/>
<path d="M32.4233 36.2743C32.238 36.4882 31.9976 36.5901 31.8924 36.4933C31.7873 36.3965 31.8524 36.1469 32.0427 35.9279C32.233 35.7139 32.4683 35.612 32.5735 35.7088C32.6787 35.8056 32.6136 36.0603 32.4233 36.2743Z" fill="url(#paint44_linear_1_1765)"/>
<path d="M32.9341 33.0853C33.1594 33.2636 33.2746 33.4979 33.1845 33.61C33.0994 33.722 32.8439 33.6711 32.6186 33.4979C32.3932 33.3247 32.278 33.0853 32.3682 32.9732C32.4533 32.8612 32.7087 32.9121 32.9341 33.0853Z" fill="url(#paint45_linear_1_1765)"/>
<path d="M26.9143 16.3162C26.9944 16.5912 26.9493 16.851 26.8141 16.8918C26.6789 16.9325 26.5036 16.739 26.4235 16.4639C26.3434 16.1837 26.3884 15.929 26.5236 15.8883C26.6589 15.8475 26.8341 16.0411 26.9143 16.3162Z" fill="url(#paint46_linear_1_1765)"/>
<path d="M21.6758 22.7295C21.8761 22.9434 21.9412 23.2134 21.821 23.3255C21.7008 23.4375 21.4454 23.356 21.2451 23.137C21.0448 22.918 20.9797 22.6531 21.0999 22.541C21.22 22.4289 21.4755 22.5105 21.6758 22.7295Z" fill="url(#paint47_linear_1_1765)"/>
<path d="M40.5215 21.405C40.2761 21.5578 40.0057 21.5731 39.9206 21.4304C39.8354 21.2878 39.9656 21.0484 40.216 20.8956C40.4614 20.7428 40.7319 20.7275 40.822 20.8701C40.9071 21.0127 40.7769 21.2522 40.5265 21.405H40.5215Z" fill="url(#paint48_linear_1_1765)"/>
<path d="M37.3761 16.5812C37.5464 16.9531 37.5664 17.3097 37.4212 17.381C37.2759 17.4523 37.0155 17.2078 36.8452 16.8359C36.675 16.4641 36.6549 16.1075 36.8002 16.0362C36.9454 15.9649 37.2058 16.2094 37.3761 16.5812Z" fill="url(#paint49_linear_1_1765)"/>
<path d="M23.4891 24.8585C23.3338 24.9553 23.1636 24.9655 23.1135 24.8738C23.0584 24.7872 23.1435 24.6344 23.2988 24.5376C23.454 24.4408 23.6243 24.4306 23.6744 24.5223C23.7295 24.6089 23.6443 24.7617 23.4891 24.8585Z" fill="url(#paint50_linear_1_1765)"/>
<path d="M36.7602 19.9277C36.605 20.0245 36.4347 20.0347 36.3796 19.943C36.3245 19.8564 36.4096 19.7036 36.5649 19.6068C36.7201 19.51 36.8904 19.505 36.9405 19.5915C36.9956 19.6781 36.9105 19.831 36.7552 19.9277H36.7602Z" fill="url(#paint51_linear_1_1765)"/>
<path d="M37.5716 25.098C37.4164 25.1948 37.2461 25.1999 37.196 25.1133C37.1409 25.0267 37.2261 24.8739 37.3813 24.7771C37.5366 24.6803 37.7068 24.6701 37.7569 24.7618C37.812 24.8484 37.7269 25.0012 37.5716 25.098Z" fill="url(#paint52_linear_1_1765)"/>
<path d="M24.9515 16.7899C24.7962 16.8867 24.626 16.8969 24.5759 16.8052C24.5208 16.7186 24.6059 16.5658 24.7612 16.469C24.9164 16.3722 25.0867 16.362 25.1368 16.4537C25.1919 16.5403 25.1067 16.6931 24.9515 16.7899Z" fill="url(#paint53_linear_1_1765)"/>
<path d="M26.7592 34.7918C26.9896 35.0414 27.0897 35.3267 26.9846 35.4285C26.8794 35.5304 26.6039 35.4133 26.3736 35.1637C26.1432 34.9141 26.043 34.6288 26.1482 34.5269C26.2584 34.425 26.5288 34.5473 26.7592 34.7918Z" fill="url(#paint54_linear_1_1765)"/>
<path d="M19.8432 30.4365C20.0735 30.6861 20.1737 30.9713 20.0685 31.0732C19.9634 31.1751 19.6879 31.0579 19.4576 30.8032C19.2272 30.5536 19.127 30.2684 19.2322 30.1665C19.3374 30.0646 19.6128 30.1818 19.8432 30.4314V30.4365Z" fill="url(#paint55_linear_1_1765)"/>
<path d="M39.3246 17.7984C39.555 18.048 39.6551 18.3333 39.55 18.4351C39.4448 18.537 39.1694 18.4199 38.939 18.1703C38.7086 17.9207 38.6085 17.6354 38.7136 17.5335C38.8188 17.4316 39.0942 17.5539 39.3246 17.8035V17.7984Z" fill="url(#paint56_linear_1_1765)"/>
<path d="M22.0717 25.0472C22.3021 25.2968 22.4022 25.5821 22.2971 25.684C22.1919 25.7858 21.9164 25.6687 21.6861 25.4191C21.4557 25.1695 21.3555 24.8842 21.4607 24.7823C21.5659 24.6805 21.8413 24.8027 22.0717 25.0472Z" fill="url(#paint57_linear_1_1765)"/>
<path d="M24.005 34.4658C24.2705 34.7561 24.4057 35.0618 24.3055 35.1586C24.2054 35.2553 23.9099 35.0974 23.6495 34.8122C23.384 34.5269 23.2488 34.2162 23.349 34.1194C23.4491 34.0226 23.7446 34.1805 24.005 34.4658Z" fill="url(#paint58_linear_1_1765)"/>
<path d="M22.2018 31.3178C22.4672 31.6081 22.6025 31.9138 22.5023 32.0106C22.4021 32.1074 22.1117 31.9494 21.8462 31.6591C21.5808 31.3738 21.4456 31.0631 21.5458 30.9663C21.6459 30.8695 21.9414 31.0274 22.2018 31.3178Z" fill="url(#paint59_linear_1_1765)"/>
<path d="M26.0432 32.678C26.1233 32.9531 26.0782 33.2129 25.943 33.2536C25.8078 33.2944 25.6325 33.1008 25.5524 32.8257C25.4723 32.5506 25.5173 32.2909 25.6526 32.2501C25.7878 32.2094 25.9631 32.4029 26.0432 32.678Z" fill="url(#paint60_linear_1_1765)"/>
<path d="M24.08 33.1464C23.9248 33.2432 23.7545 33.2534 23.6994 33.1617C23.6443 33.0751 23.7295 32.9223 23.8847 32.8255C24.04 32.7287 24.2102 32.7236 24.2603 32.8102C24.3154 32.8968 24.2303 33.0496 24.075 33.1464H24.08Z" fill="url(#paint61_linear_1_1765)"/>
<path d="M21.7563 32.8765C21.9866 33.1261 22.0868 33.4114 21.9816 33.5133C21.8765 33.6151 21.601 33.498 21.3706 33.2484C21.1403 32.9988 21.0401 32.7135 21.1453 32.6116C21.2504 32.5098 21.5259 32.6269 21.7563 32.8765Z" fill="url(#paint62_linear_1_1765)"/>
<path d="M29.7042 36.7173C29.9696 37.0025 30.1048 37.3133 30.0047 37.4101C29.9045 37.5017 29.614 37.3489 29.3486 37.0586C29.0832 36.7733 28.953 36.4626 29.0481 36.3658C29.1483 36.269 29.4438 36.4269 29.7092 36.7173H29.7042Z" fill="url(#paint63_linear_1_1765)"/>
<path d="M36.9509 28.5618C37.031 28.8419 36.986 29.0966 36.8507 29.1374C36.7155 29.1781 36.5402 28.9846 36.4601 28.7095C36.38 28.4344 36.425 28.1746 36.5603 28.1339C36.6955 28.0931 36.8708 28.2867 36.9509 28.5618Z" fill="url(#paint64_linear_1_1765)"/>
<path d="M29.7742 35.398C29.619 35.4948 29.4487 35.4998 29.3986 35.4132C29.3436 35.3267 29.4287 35.1738 29.5839 35.077C29.7392 34.9803 29.9045 34.9701 29.9595 35.0618C30.0146 35.1484 29.9295 35.3012 29.7742 35.398Z" fill="url(#paint65_linear_1_1765)"/>
<path d="M39.104 25.8673C39.0439 26.1067 38.9187 26.285 38.8286 26.2595C38.7334 26.2341 38.7034 26.0201 38.7635 25.7807C38.8236 25.5413 38.9438 25.363 39.0389 25.3885C39.1341 25.414 39.1641 25.6279 39.104 25.8673Z" fill="url(#paint66_linear_1_1765)"/>
<path d="M35.1777 33.0496C35.1176 33.289 34.9924 33.4673 34.9023 33.4418C34.8071 33.4163 34.7771 33.2024 34.8372 32.963C34.8973 32.7236 35.0175 32.5453 35.1126 32.5708C35.2078 32.5962 35.2378 32.8051 35.1777 33.0496Z" fill="url(#paint67_linear_1_1765)"/>
<path d="M36.7051 35.714C36.645 35.9534 36.5198 36.1317 36.4296 36.1062C36.3345 36.0807 36.3044 35.8668 36.3645 35.6274C36.4246 35.388 36.5448 35.2097 36.64 35.2351C36.7351 35.2606 36.7652 35.4746 36.7051 35.714Z" fill="url(#paint68_linear_1_1765)"/>
<path d="M41.8736 28.3787C41.9988 28.5926 42.0338 28.8066 41.9487 28.8575C41.8635 28.9085 41.6983 28.7811 41.5681 28.5672C41.4429 28.3532 41.4078 28.1444 41.493 28.0934C41.5781 28.0425 41.7484 28.1749 41.8686 28.3838L41.8736 28.3787Z" fill="url(#paint69_linear_1_1765)"/>
<path d="M30.4403 14.788C30.5655 15.002 30.6006 15.2159 30.5155 15.2669C30.4303 15.3178 30.2651 15.1904 30.1398 14.9765C30.0146 14.7677 29.9796 14.5537 30.0647 14.5028C30.1449 14.4518 30.3151 14.5843 30.4403 14.7931V14.788Z" fill="url(#paint70_linear_1_1765)"/>
<path d="M25.7378 20.1161C25.9231 20.274 26.0233 20.4676 25.9582 20.544C25.8981 20.6204 25.6927 20.5491 25.5074 20.3912C25.3221 20.2333 25.222 20.0397 25.2821 19.9633C25.3422 19.8869 25.5475 19.9531 25.7328 20.1161H25.7378Z" fill="url(#paint71_linear_1_1765)"/>
<path d="M29.8042 18.2011C29.9895 18.3641 30.0897 18.5525 30.0246 18.6289C29.9645 18.7054 29.7591 18.6391 29.5739 18.4761C29.3886 18.3182 29.2884 18.1246 29.3485 18.0533C29.4136 17.9769 29.6139 18.0431 29.7992 18.2011H29.8042Z" fill="url(#paint72_linear_1_1765)"/>
<path d="M38.9736 32.4485C39.209 32.6217 39.3292 32.8611 39.2441 32.9884C39.1589 33.1158 38.8935 33.075 38.6581 32.9018C38.4227 32.7286 38.3026 32.4892 38.3877 32.367C38.4728 32.2396 38.7383 32.2804 38.9736 32.4536V32.4485Z" fill="url(#paint73_linear_1_1765)"/>
<path d="M34.772 19.78C35.0074 19.9532 35.1275 20.1926 35.0424 20.32C34.9523 20.4473 34.6918 20.4066 34.4565 20.2334C34.2211 20.0602 34.1009 19.8208 34.186 19.6934C34.2762 19.5712 34.5366 19.6068 34.772 19.78Z" fill="url(#paint74_linear_1_1765)"/>
<path d="M39.0843 23.8348C39.2646 24.0692 39.3096 24.334 39.1895 24.4308C39.0693 24.5276 38.8289 24.4105 38.6486 24.1761C38.4683 23.9418 38.4232 23.6769 38.5384 23.5852C38.6586 23.4885 38.899 23.6056 39.0793 23.8399L39.0843 23.8348Z" fill="url(#paint75_linear_1_1765)"/>
<path d="M22.9135 26.5195C17.63 26.5195 11.0444 27.5434 11.0444 33.4574C11.0444 38.3782 17.1292 41.0066 22.9135 41.0066C28.6978 41.0066 34.7826 38.368 34.7826 33.4421C34.7826 29.8204 28.6978 26.5246 22.9135 26.5246V26.5195ZM22.9135 33.87C21.1607 33.87 19.7434 33.4371 19.7434 32.8971C19.7434 32.3571 21.1607 31.9293 22.9135 31.9293C24.6663 31.9293 26.0836 32.3622 26.0836 32.8971C26.0836 33.432 24.6613 33.87 22.9135 33.87Z" fill="url(#paint76_linear_1_1765)"/>
<g style="mix-blend-mode:multiply">
<path d="M22.9132 30.7779C20.5694 30.7779 18.6714 31.7355 18.6714 32.5404C18.6714 33.3452 20.5694 33.9921 22.9132 33.9921C25.257 33.9921 27.155 33.3452 27.155 32.5404C27.155 31.7355 25.257 30.7779 22.9132 30.7779ZM22.9132 33.8699C21.1604 33.8699 19.7431 33.4369 19.7431 32.8969C19.7431 32.357 21.1604 31.9291 22.9132 31.9291C24.666 31.9291 26.0833 32.3621 26.0833 32.8969C26.0833 33.4318 24.661 33.8699 22.9132 33.8699Z" fill="#FADAB2"/>
</g>
<g style="mix-blend-mode:multiply">
<path d="M22.9135 39.6463C17.2644 39.6463 11.3349 37.7463 11.0595 33.0039C11.0544 33.1567 11.0444 33.3044 11.0444 33.4572C11.0444 38.3779 17.1292 41.0064 22.9135 41.0064C28.6978 41.0064 34.7826 38.3678 34.7826 33.4419C34.7826 33.2891 34.7776 33.1414 34.7676 32.9937C34.4871 37.7361 28.5576 39.6514 22.9085 39.6514L22.9135 39.6463Z" fill="#FADAB2"/>
</g>
<path d="M32.2883 28.2819C30.5555 26.9422 27.6258 26.3615 26.0884 26.1323C24.5509 25.898 21.0853 25.8216 19.4878 26.1323C18.1206 26.4023 14.3645 27.1205 12.0558 29.861C11.4048 30.6302 10.7537 31.649 11.1143 32.3876C11.4749 33.1211 12.1159 32.9683 12.5015 32.9836C12.8871 32.9989 12.9472 33.8598 13.7185 34.6595C14.4847 35.4593 15.1908 34.4761 15.6416 34.6595C16.0923 34.8429 15.9621 37.6751 16.8585 37.7413C17.755 37.8025 18.0104 36.0807 18.9719 36.1418C19.9335 36.203 19.9034 39.4427 20.9451 39.5293C21.9868 39.6108 21.9217 36.3303 22.9183 36.1418C23.9099 35.9585 24.1753 37.288 25.1919 38.0521C26.5191 39.0556 26.7945 36.8805 26.8596 35.8362C26.9247 34.7869 28.1116 34.8989 28.3019 35.5917C28.4922 36.2845 28.973 37.2167 29.8895 37.0078C30.806 36.7939 29.7442 33.7935 30.6607 33.5134C31.5722 33.2383 31.6723 34.8989 32.5337 34.6239C33.4001 34.3488 32.724 32.2705 33.2048 31.9444C33.6856 31.6235 34.4168 32.3163 34.6021 31.7814C34.7873 31.2466 34.0211 29.6267 32.2933 28.2921L32.2883 28.2819ZM26.8796 32.9836C26.1184 33.6917 24.6661 33.9922 22.9133 33.9922C21.2856 33.9922 19.3275 33.6 18.6714 33.004C18.5412 32.8614 18.4661 32.4233 18.6714 32.1431C18.8768 31.8629 18.9719 31.8018 18.9419 31.4911C18.9118 31.1804 19.012 30.6964 19.4076 30.8238C20.4543 31.16 20.1288 29.5197 20.9952 30.2584C21.3608 30.5691 21.9567 30.8747 22.117 30.2584C22.2772 29.642 22.5026 29.4128 22.9183 29.5197C23.2688 29.6114 23.4641 30.7932 23.8598 30.783C24.6611 30.7678 24.8714 29.372 25.3171 30.4316C25.6677 31.2619 26.2636 30.1565 26.5691 30.783C26.7494 31.1549 26.5792 31.3739 26.9898 31.6235C27.2202 31.7611 27.2052 32.6831 26.8796 32.9836Z" fill="url(#paint77_linear_1_1765)"/>
<g style="mix-blend-mode:screen">
<path d="M12.0508 30.2226C14.3595 27.4872 18.1155 26.7638 19.4827 26.4939C21.0803 26.178 24.5458 26.2646 26.0833 26.4939C27.6208 26.7231 30.5505 27.3038 32.2833 28.6435C33.6956 29.7387 34.4668 31.0173 34.602 31.7406C34.7573 31.1803 33.986 29.5961 32.2833 28.2767C30.5505 26.937 27.6208 26.3563 26.0833 26.1271C24.5458 25.8928 21.0803 25.8164 19.4827 26.1271C18.1155 26.3971 14.3595 27.1153 12.0508 29.8559C11.4798 30.5333 10.9139 31.3993 11.0241 32.0972C11.1042 31.4808 11.58 30.7829 12.0508 30.2226Z" fill="#8A0707"/>
<path d="M18.947 31.5879C18.947 31.6235 18.937 31.6592 18.937 31.6948C18.937 31.6643 18.947 31.6286 18.947 31.5879Z" fill="#8A0707"/>
<path d="M18.6713 33.3656C19.3273 33.9616 21.2905 34.3538 22.9131 34.3538C24.6659 34.3538 26.1182 34.0533 26.8795 33.3452C27.0948 33.1415 27.1699 32.6678 27.1299 32.3316C27.1048 32.5863 27.0247 32.841 26.8795 32.9785C26.1182 33.6865 24.6659 33.9871 22.9131 33.9871C21.2855 33.9871 19.3273 33.5949 18.6713 32.9989C18.6262 32.9479 18.5861 32.8613 18.5661 32.7544C18.511 32.9989 18.5761 33.2587 18.6713 33.3656Z" fill="#8A0707"/>
<path d="M30.285 36.0808C30.295 35.6988 30.265 35.2505 30.2549 34.8328C30.2449 35.22 30.275 35.6682 30.285 36.0808Z" fill="#8A0707"/>
</g>
<g style="mix-blend-mode:multiply">
<path d="M26.985 31.3127C26.5744 31.0631 26.7447 30.8441 26.5644 30.4722C26.2589 29.8406 25.6679 30.951 25.3124 30.1156C24.8666 29.0612 24.6563 30.4569 23.855 30.4722C23.4544 30.4824 23.2641 29.3006 22.9135 29.2089C22.4978 29.0968 22.2725 29.3312 22.1122 29.9475C21.9519 30.5639 21.356 30.2583 20.9904 29.9475C20.124 29.2089 20.4495 30.8441 19.4028 30.513C19.0072 30.3856 18.9071 30.8695 18.9371 31.1803C18.9371 31.2006 18.9371 31.2159 18.9371 31.2363C18.9722 30.9765 19.1024 30.7269 19.3978 30.8186C20.4445 31.1548 20.119 29.5145 20.9854 30.2532C21.351 30.5639 21.9469 30.8695 22.1072 30.2532C22.2675 29.6368 22.4928 29.4076 22.9085 29.5145C23.259 29.6062 23.4544 30.788 23.85 30.7778C24.6513 30.7626 24.8616 29.3668 25.3073 30.4264C25.6579 31.2567 26.2539 30.1513 26.5594 30.7778C26.7396 31.1497 26.5694 31.3687 26.98 31.6183C27.0602 31.6693 27.1052 31.8119 27.1253 31.9902C27.1503 31.6846 27.1002 31.384 26.98 31.3076L26.985 31.3127Z" fill="#EE4230"/>
<path d="M29.8794 36.6868C28.968 36.9008 28.4872 35.9686 28.2919 35.2758C28.1016 34.583 26.9147 34.4761 26.8496 35.5203C26.7845 36.5697 26.514 38.7397 25.1819 37.7362C24.1653 36.9721 23.8998 35.6426 22.9082 35.8259C21.9166 36.0093 21.9767 39.2949 20.9351 39.2134C19.8934 39.1319 19.9234 35.8871 18.9619 35.8259C18.0003 35.7648 17.7449 37.4866 16.8485 37.4254C15.952 37.3643 16.0823 34.5321 15.6315 34.3436C15.1858 34.1602 14.4797 35.1434 13.7084 34.3436C12.9372 33.5439 12.8771 32.683 12.4915 32.6626C12.1059 32.6473 11.4648 32.8002 11.1043 32.0666C11.0492 31.9597 11.0241 31.8323 11.0091 31.6999C10.9841 31.9546 11.0091 32.1889 11.1043 32.3723C11.4648 33.1058 12.1059 32.953 12.4915 32.9683C12.8771 32.9835 12.9372 33.8444 13.7084 34.6442C14.4747 35.4439 15.1808 34.4608 15.6315 34.6442C16.0823 34.8275 15.952 37.6598 16.8485 37.726C17.7449 37.7871 18.0003 36.0654 18.9619 36.1265C19.9234 36.1876 19.8934 39.4273 20.9351 39.5139C21.9767 39.5954 21.9116 36.315 22.9082 36.1265C23.8998 35.9431 24.1653 37.2726 25.1819 38.0367C26.509 39.0402 26.7845 36.8651 26.8496 35.8209C26.9147 34.7715 28.1016 34.8836 28.2919 35.5763C28.4822 36.2691 28.963 37.2013 29.8794 36.9925C30.245 36.9059 30.2951 36.3659 30.2801 35.7343C30.2701 36.2233 30.1849 36.6104 29.8794 36.6817V36.6868Z" fill="#EE4230"/>
<path d="M18.5563 32.4233C18.5763 32.3214 18.6064 32.2246 18.6665 32.138C18.8718 31.8578 18.9669 31.7967 18.9369 31.486C18.9369 31.4554 18.9369 31.4198 18.9369 31.3892C18.9119 31.5369 18.8217 31.6235 18.6715 31.8273C18.5463 32.0005 18.5262 32.2297 18.5613 32.4182L18.5563 32.4233Z" fill="#EE4230"/>
<path d="M32.524 34.3028C31.6576 34.5829 31.5625 32.9172 30.651 33.1974C30.2854 33.3094 30.2353 33.8647 30.2504 34.4963C30.2654 33.9971 30.3455 33.5947 30.651 33.503C31.5625 33.2279 31.6626 34.8886 32.524 34.6135C33.0048 34.4607 33.0098 33.7475 33.0048 33.0904C32.9998 33.6456 32.9297 34.1703 32.524 34.3028Z" fill="#EE4230"/>
<path d="M34.597 31.4656C34.4117 32.0005 33.6806 31.3026 33.1998 31.6286C33.0045 31.761 32.9995 32.1838 33.0045 32.6576C33.0095 32.3163 33.0445 32.0361 33.1998 31.9342C33.6806 31.6133 34.4117 32.3061 34.597 31.7712C34.6271 31.6897 34.6271 31.5522 34.6121 31.3892C34.6121 31.4147 34.6071 31.4452 34.597 31.4605V31.4656Z" fill="#EE4230"/>
</g>
<defs>
<linearGradient id="paint0_linear_1_1765" x1="30.285" y1="38.8924" x2="30.285" y2="13" gradientUnits="userSpaceOnUse">
<stop stop-color="#C46D1D"/>
<stop offset="0.05" stop-color="#C77020"/>
<stop offset="0.68" stop-color="#EB9F47"/>
<stop offset="1" stop-color="#FAB157"/>
</linearGradient>
<linearGradient id="paint1_linear_1_1765" x1="30.3153" y1="37.6036" x2="30.3153" y2="14.0748" gradientUnits="userSpaceOnUse">
<stop stop-color="#330600"/>
<stop offset="0.22" stop-color="#4A0F04"/>
<stop offset="0.46" stop-color="#5C1607"/>
<stop offset="0.71" stop-color="#671A09"/>
<stop offset="1" stop-color="#6B1C0A"/>
</linearGradient>
<linearGradient id="paint2_linear_1_1765" x1="39.21" y1="20.4725" x2="38.2204" y2="19.0691" gradientUnits="userSpaceOnUse">
<stop stop-color="#D3680D"/>
<stop offset="0.12" stop-color="#D97A16"/>
<stop offset="0.37" stop-color="#E49C28"/>
<stop offset="0.6" stop-color="#ECB534"/>
<stop offset="0.82" stop-color="#F1C33C"/>
<stop offset="1" stop-color="#F3C93F"/>
</linearGradient>
<linearGradient id="paint3_linear_1_1765" x1="23.8716" y1="23.8248" x2="22.882" y2="22.4214" gradientUnits="userSpaceOnUse">
<stop stop-color="#D3680D"/>
<stop offset="0.12" stop-color="#D97A16"/>
<stop offset="0.37" stop-color="#E49C28"/>
<stop offset="0.6" stop-color="#ECB534"/>
<stop offset="0.82" stop-color="#F1C33C"/>
<stop offset="1" stop-color="#F3C93F"/>
</linearGradient>
<linearGradient id="paint4_linear_1_1765" x1="35.2182" y1="18.9519" x2="35.8728" y2="17.6217" gradientUnits="userSpaceOnUse">
<stop stop-color="#D3680D"/>
<stop offset="0.12" stop-color="#D97A16"/>
<stop offset="0.37" stop-color="#E49C28"/>
<stop offset="0.6" stop-color="#ECB534"/>
<stop offset="0.82" stop-color="#F1C33C"/>
<stop offset="1" stop-color="#F3C93F"/>
</linearGradient>
<linearGradient id="paint5_linear_1_1765" x1="30.6537" y1="16.3972" x2="32.1139" y2="16.4772" gradientUnits="userSpaceOnUse">
<stop stop-color="#D3680D"/>
<stop offset="0.12" stop-color="#D97A16"/>
<stop offset="0.37" stop-color="#E49C28"/>
<stop offset="0.6" stop-color="#ECB534"/>
<stop offset="0.82" stop-color="#F1C33C"/>
<stop offset="1" stop-color="#F3C93F"/>
</linearGradient>
<linearGradient id="paint6_linear_1_1765" x1="37.0301" y1="33.367" x2="35.8525" y2="32.5923" gradientUnits="userSpaceOnUse">
<stop stop-color="#D3680D"/>
<stop offset="0.12" stop-color="#D97A16"/>
<stop offset="0.37" stop-color="#E49C28"/>
<stop offset="0.6" stop-color="#ECB534"/>
<stop offset="0.82" stop-color="#F1C33C"/>
<stop offset="1" stop-color="#F3C93F"/>
</linearGradient>
<linearGradient id="paint7_linear_1_1765" x1="35.2755" y1="17.0202" x2="34.0758" y2="17.2457" gradientUnits="userSpaceOnUse">
<stop stop-color="#D3680D"/>
<stop offset="0.12" stop-color="#D97A16"/>
<stop offset="0.37" stop-color="#E49C28"/>
<stop offset="0.6" stop-color="#ECB534"/>
<stop offset="0.82" stop-color="#F1C33C"/>
<stop offset="1" stop-color="#F3C93F"/>
</linearGradient>
<linearGradient id="paint8_linear_1_1765" x1="36.8136" y1="23.6732" x2="37.6341" y2="22.7547" gradientUnits="userSpaceOnUse">
<stop stop-color="#D3680D"/>
<stop offset="0.12" stop-color="#D97A16"/>
<stop offset="0.37" stop-color="#E49C28"/>
<stop offset="0.6" stop-color="#ECB534"/>
<stop offset="0.82" stop-color="#F1C33C"/>
<stop offset="1" stop-color="#F3C93F"/>
</linearGradient>
<linearGradient id="paint9_linear_1_1765" x1="24.0118" y1="31.6161" x2="22.9322" y2="31.038" gradientUnits="userSpaceOnUse">
<stop stop-color="#D3680D"/>
<stop offset="0.12" stop-color="#D97A16"/>
<stop offset="0.37" stop-color="#E49C28"/>
<stop offset="0.6" stop-color="#ECB534"/>
<stop offset="0.82" stop-color="#F1C33C"/>
<stop offset="1" stop-color="#F3C93F"/>
</linearGradient>
<linearGradient id="paint10_linear_1_1765" x1="38.0914" y1="35.3123" x2="38.5354" y2="34.1565" gradientUnits="userSpaceOnUse">
<stop stop-color="#D3680D"/>
<stop offset="0.12" stop-color="#D97A16"/>
<stop offset="0.37" stop-color="#E49C28"/>
<stop offset="0.6" stop-color="#ECB534"/>
<stop offset="0.82" stop-color="#F1C33C"/>
<stop offset="1" stop-color="#F3C93F"/>
</linearGradient>
<linearGradient id="paint11_linear_1_1765" x1="34.5519" y1="31.797" x2="34.9944" y2="30.6453" gradientUnits="userSpaceOnUse">
<stop stop-color="#D3680D"/>
<stop offset="0.12" stop-color="#D97A16"/>
<stop offset="0.37" stop-color="#E49C28"/>
<stop offset="0.6" stop-color="#ECB534"/>
<stop offset="0.82" stop-color="#F1C33C"/>
<stop offset="1" stop-color="#F3C93F"/>
</linearGradient>
<linearGradient id="paint12_linear_1_1765" x1="36.8223" y1="31.2102" x2="37.2664" y2="30.0544" gradientUnits="userSpaceOnUse">
<stop stop-color="#D3680D"/>
<stop offset="0.12" stop-color="#D97A16"/>
<stop offset="0.37" stop-color="#E49C28"/>
<stop offset="0.6" stop-color="#ECB534"/>
<stop offset="0.82" stop-color="#F1C33C"/>
<stop offset="1" stop-color="#F3C93F"/>
</linearGradient>
<linearGradient id="paint13_linear_1_1765" x1="41.314" y1="26.5404" x2="41.7581" y2="25.3845" gradientUnits="userSpaceOnUse">
<stop stop-color="#D3680D"/>
<stop offset="0.12" stop-color="#D97A16"/>
<stop offset="0.37" stop-color="#E49C28"/>
<stop offset="0.6" stop-color="#ECB534"/>
<stop offset="0.82" stop-color="#F1C33C"/>
<stop offset="1" stop-color="#F3C93F"/>
</linearGradient>
<linearGradient id="paint14_linear_1_1765" x1="19.8274" y1="25.0513" x2="20.2714" y2="23.8954" gradientUnits="userSpaceOnUse">
<stop stop-color="#D3680D"/>
<stop offset="0.12" stop-color="#D97A16"/>
<stop offset="0.37" stop-color="#E49C28"/>
<stop offset="0.6" stop-color="#ECB534"/>
<stop offset="0.82" stop-color="#F1C33C"/>
<stop offset="1" stop-color="#F3C93F"/>
</linearGradient>
<linearGradient id="paint15_linear_1_1765" x1="39.5327" y1="28.1257" x2="40.1087" y2="27.0368" gradientUnits="userSpaceOnUse">
<stop stop-color="#D3680D"/>
<stop offset="0.12" stop-color="#D97A16"/>
<stop offset="0.37" stop-color="#E49C28"/>
<stop offset="0.6" stop-color="#ECB534"/>
<stop offset="0.82" stop-color="#F1C33C"/>
<stop offset="1" stop-color="#F3C93F"/>
</linearGradient>
<linearGradient id="paint16_linear_1_1765" x1="27.819" y1="19.1203" x2="26.9677" y2="18.2312" gradientUnits="userSpaceOnUse">
<stop stop-color="#D3680D"/>
<stop offset="0.12" stop-color="#D97A16"/>
<stop offset="0.37" stop-color="#E49C28"/>
<stop offset="0.6" stop-color="#ECB534"/>
<stop offset="0.82" stop-color="#F1C33C"/>
<stop offset="1" stop-color="#F3C93F"/>
</linearGradient>
<linearGradient id="paint17_linear_1_1765" x1="27.4091" y1="33.7825" x2="26.5887" y2="33.0573" gradientUnits="userSpaceOnUse">
<stop stop-color="#D3680D"/>
<stop offset="0.12" stop-color="#D97A16"/>
<stop offset="0.37" stop-color="#E49C28"/>
<stop offset="0.6" stop-color="#ECB534"/>
<stop offset="0.82" stop-color="#F1C33C"/>
<stop offset="1" stop-color="#F3C93F"/>
</linearGradient>
<linearGradient id="paint18_linear_1_1765" x1="40.125" y1="31.8693" x2="39.3084" y2="31.1475" gradientUnits="userSpaceOnUse">
<stop stop-color="#D3680D"/>
<stop offset="0.12" stop-color="#D97A16"/>
<stop offset="0.37" stop-color="#E49C28"/>
<stop offset="0.6" stop-color="#ECB534"/>
<stop offset="0.82" stop-color="#F1C33C"/>
<stop offset="1" stop-color="#F3C93F"/>
</linearGradient>
<linearGradient id="paint19_linear_1_1765" x1="41.5288" y1="30.228" x2="40.7122" y2="29.5062" gradientUnits="userSpaceOnUse">
<stop stop-color="#D3680D"/>
<stop offset="0.12" stop-color="#D97A16"/>
<stop offset="0.37" stop-color="#E49C28"/>
<stop offset="0.6" stop-color="#ECB534"/>
<stop offset="0.82" stop-color="#F1C33C"/>
<stop offset="1" stop-color="#F3C93F"/>
</linearGradient>
<linearGradient id="paint20_linear_1_1765" x1="39.8819" y1="23.8464" x2="40.8793" y2="23.4073" gradientUnits="userSpaceOnUse">
<stop stop-color="#D3680D"/>
<stop offset="0.12" stop-color="#D97A16"/>
<stop offset="0.37" stop-color="#E49C28"/>
<stop offset="0.6" stop-color="#ECB534"/>
<stop offset="0.82" stop-color="#F1C33C"/>
<stop offset="1" stop-color="#F3C93F"/>
</linearGradient>
<linearGradient id="paint21_linear_1_1765" x1="38.8873" y1="22.3595" x2="38.0707" y2="21.6377" gradientUnits="userSpaceOnUse">
<stop stop-color="#D3680D"/>
<stop offset="0.12" stop-color="#D97A16"/>
<stop offset="0.37" stop-color="#E49C28"/>
<stop offset="0.6" stop-color="#ECB534"/>
<stop offset="0.82" stop-color="#F1C33C"/>
<stop offset="1" stop-color="#F3C93F"/>
</linearGradient>
<linearGradient id="paint22_linear_1_1765" x1="36.261" y1="22.0471" x2="35.4406" y2="21.3219" gradientUnits="userSpaceOnUse">
<stop stop-color="#D3680D"/>
<stop offset="0.12" stop-color="#D97A16"/>
<stop offset="0.37" stop-color="#E49C28"/>
<stop offset="0.6" stop-color="#ECB534"/>
<stop offset="0.82" stop-color="#F1C33C"/>
<stop offset="1" stop-color="#F3C93F"/>
</linearGradient>
<linearGradient id="paint23_linear_1_1765" x1="38.3067" y1="27.8087" x2="37.4901" y2="27.0868" gradientUnits="userSpaceOnUse">
<stop stop-color="#D3680D"/>
<stop offset="0.12" stop-color="#D97A16"/>
<stop offset="0.37" stop-color="#E49C28"/>
<stop offset="0.6" stop-color="#ECB534"/>
<stop offset="0.82" stop-color="#F1C33C"/>
<stop offset="1" stop-color="#F3C93F"/>
</linearGradient>
<linearGradient id="paint24_linear_1_1765" x1="24.7395" y1="30.6449" x2="25.6283" y2="30.0175" gradientUnits="userSpaceOnUse">
<stop stop-color="#D3680D"/>
<stop offset="0.12" stop-color="#D97A16"/>
<stop offset="0.37" stop-color="#E49C28"/>
<stop offset="0.6" stop-color="#ECB534"/>
<stop offset="0.82" stop-color="#F1C33C"/>
<stop offset="1" stop-color="#F3C93F"/>
</linearGradient>
<linearGradient id="paint25_linear_1_1765" x1="27.6198" y1="16.3037" x2="28.8143" y2="15.3745" gradientUnits="userSpaceOnUse">
<stop stop-color="#D3680D"/>
<stop offset="0.12" stop-color="#D97A16"/>
<stop offset="0.37" stop-color="#E49C28"/>
<stop offset="0.6" stop-color="#ECB534"/>
<stop offset="0.82" stop-color="#F1C33C"/>
<stop offset="1" stop-color="#F3C93F"/>
</linearGradient>
<linearGradient id="paint26_linear_1_1765" x1="24.1083" y1="21.0612" x2="24.6245" y2="19.7349" gradientUnits="userSpaceOnUse">
<stop stop-color="#D3680D"/>
<stop offset="0.12" stop-color="#D97A16"/>
<stop offset="0.37" stop-color="#E49C28"/>
<stop offset="0.6" stop-color="#ECB534"/>
<stop offset="0.82" stop-color="#F1C33C"/>
<stop offset="1" stop-color="#F3C93F"/>
</linearGradient>
<linearGradient id="paint27_linear_1_1765" x1="22.117" y1="19.3192" x2="21.63" y2="17.987" gradientUnits="userSpaceOnUse">
<stop stop-color="#D3680D"/>
<stop offset="0.12" stop-color="#D97A16"/>
<stop offset="0.37" stop-color="#E49C28"/>
<stop offset="0.6" stop-color="#ECB534"/>
<stop offset="0.82" stop-color="#F1C33C"/>
<stop offset="1" stop-color="#F3C93F"/>
</linearGradient>
<linearGradient id="paint28_linear_1_1765" x1="20.2574" y1="21.1332" x2="21.7779" y2="20.0203" gradientUnits="userSpaceOnUse">
<stop stop-color="#D3680D"/>
<stop offset="0.12" stop-color="#D97A16"/>
<stop offset="0.37" stop-color="#E49C28"/>
<stop offset="0.6" stop-color="#ECB534"/>
<stop offset="0.82" stop-color="#F1C33C"/>
<stop offset="1" stop-color="#F3C93F"/>
</linearGradient>
<linearGradient id="paint29_linear_1_1765" x1="38.7725" y1="29.9406" x2="39.6958" y2="28.8668" gradientUnits="userSpaceOnUse">
<stop offset="0.05" stop-color="#CCEDED"/>
<stop offset="0.63" stop-color="#E5F4F4"/>
<stop offset="1" stop-color="#F0F8F8"/>
</linearGradient>
<linearGradient id="paint30_linear_1_1765" x1="26.208" y1="31.9838" x2="27.128" y2="30.9139" gradientUnits="userSpaceOnUse">
<stop offset="0.05" stop-color="#CCEDED"/>
<stop offset="0.63" stop-color="#E5F4F4"/>
<stop offset="1" stop-color="#F0F8F8"/>
</linearGradient>
<linearGradient id="paint31_linear_1_1765" x1="25.1838" y1="18.7957" x2="24.212" y2="17.7743" gradientUnits="userSpaceOnUse">
<stop offset="0.05" stop-color="#CCEDED"/>
<stop offset="0.63" stop-color="#E5F4F4"/>
<stop offset="1" stop-color="#F0F8F8"/>
</linearGradient>
<linearGradient id="paint32_linear_1_1765" x1="22.3485" y1="21.918" x2="23.2947" y2="20.8651" gradientUnits="userSpaceOnUse">
<stop offset="0.05" stop-color="#CCEDED"/>
<stop offset="0.63" stop-color="#E5F4F4"/>
<stop offset="1" stop-color="#F0F8F8"/>
</linearGradient>
<linearGradient id="paint33_linear_1_1765" x1="32.7149" y1="19.3245" x2="33.4076" y2="18.5536" gradientUnits="userSpaceOnUse">
<stop offset="0.05" stop-color="#CCEDED"/>
<stop offset="0.63" stop-color="#E5F4F4"/>
<stop offset="1" stop-color="#F0F8F8"/>
</linearGradient>
<linearGradient id="paint34_linear_1_1765" x1="33.6839" y1="16.242" x2="32.8554" y2="15.6165" gradientUnits="userSpaceOnUse">
<stop offset="0.05" stop-color="#CCEDED"/>
<stop offset="0.63" stop-color="#E5F4F4"/>
<stop offset="1" stop-color="#F0F8F8"/>
</linearGradient>
<linearGradient id="paint35_linear_1_1765" x1="23.4684" y1="29.6761" x2="24.1231" y2="28.3459" gradientUnits="userSpaceOnUse">
<stop stop-color="#D3680D"/>
<stop offset="0.12" stop-color="#D97A16"/>
<stop offset="0.37" stop-color="#E49C28"/>
<stop offset="0.6" stop-color="#ECB534"/>
<stop offset="0.82" stop-color="#F1C33C"/>
<stop offset="1" stop-color="#F3C93F"/>
</linearGradient>
<linearGradient id="paint36_linear_1_1765" x1="28.4211" y1="33.9301" x2="29.0758" y2="32.5999" gradientUnits="userSpaceOnUse">
<stop stop-color="#D3680D"/>
<stop offset="0.12" stop-color="#D97A16"/>
<stop offset="0.37" stop-color="#E49C28"/>
<stop offset="0.6" stop-color="#ECB534"/>
<stop offset="0.82" stop-color="#F1C33C"/>
<stop offset="1" stop-color="#F3C93F"/>
</linearGradient>
<linearGradient id="paint37_linear_1_1765" x1="18.9011" y1="27.1182" x2="20.3613" y2="27.1982" gradientUnits="userSpaceOnUse">
<stop stop-color="#D3680D"/>
<stop offset="0.12" stop-color="#D97A16"/>
<stop offset="0.37" stop-color="#E49C28"/>
<stop offset="0.6" stop-color="#ECB534"/>
<stop offset="0.82" stop-color="#F1C33C"/>
<stop offset="1" stop-color="#F3C93F"/>
</linearGradient>
<linearGradient id="paint38_linear_1_1765" x1="23.5283" y1="27.756" x2="22.3286" y2="27.9814" gradientUnits="userSpaceOnUse">
<stop stop-color="#D3680D"/>
<stop offset="0.12" stop-color="#D97A16"/>
<stop offset="0.37" stop-color="#E49C28"/>
<stop offset="0.6" stop-color="#ECB534"/>
<stop offset="0.82" stop-color="#F1C33C"/>
<stop offset="1" stop-color="#F3C93F"/>
</linearGradient>
<linearGradient id="paint39_linear_1_1765" x1="20.9601" y1="30.0501" x2="21.6562" y2="29.2754" gradientUnits="userSpaceOnUse">
<stop offset="0.05" stop-color="#CCEDED"/>
<stop offset="0.63" stop-color="#E5F4F4"/>
<stop offset="1" stop-color="#F0F8F8"/>
</linearGradient>
<linearGradient id="paint40_linear_1_1765" x1="21.9119" y1="26.9924" x2="21.0834" y2="26.3669" gradientUnits="userSpaceOnUse">
<stop offset="0.05" stop-color="#CCEDED"/>
<stop offset="0.63" stop-color="#E5F4F4"/>
<stop offset="1" stop-color="#F0F8F8"/>
</linearGradient>
<linearGradient id="paint41_linear_1_1765" x1="34.6815" y1="36.3603" x2="35.3361" y2="35.0301" gradientUnits="userSpaceOnUse">
<stop stop-color="#D3680D"/>
<stop offset="0.12" stop-color="#D97A16"/>
<stop offset="0.37" stop-color="#E49C28"/>
<stop offset="0.6" stop-color="#ECB534"/>
<stop offset="0.82" stop-color="#F1C33C"/>
<stop offset="1" stop-color="#F3C93F"/>
</linearGradient>
<linearGradient id="paint42_linear_1_1765" x1="30.1214" y1="33.8051" x2="31.5766" y2="33.8848" gradientUnits="userSpaceOnUse">
<stop stop-color="#D3680D"/>
<stop offset="0.12" stop-color="#D97A16"/>
<stop offset="0.37" stop-color="#E49C28"/>
<stop offset="0.6" stop-color="#ECB534"/>
<stop offset="0.82" stop-color="#F1C33C"/>
<stop offset="1" stop-color="#F3C93F"/>
</linearGradient>
<linearGradient id="paint43_linear_1_1765" x1="34.7433" y1="34.4422" x2="33.5436" y2="34.6676" gradientUnits="userSpaceOnUse">
<stop stop-color="#D3680D"/>
<stop offset="0.12" stop-color="#D97A16"/>
<stop offset="0.37" stop-color="#E49C28"/>
<stop offset="0.6" stop-color="#ECB534"/>
<stop offset="0.82" stop-color="#F1C33C"/>
<stop offset="1" stop-color="#F3C93F"/>
</linearGradient>
<linearGradient id="paint44_linear_1_1765" x1="32.2" y1="36.7523" x2="32.8962" y2="35.9777" gradientUnits="userSpaceOnUse">
<stop offset="0.05" stop-color="#CCEDED"/>
<stop offset="0.63" stop-color="#E5F4F4"/>
<stop offset="1" stop-color="#F0F8F8"/>
</linearGradient>
<linearGradient id="paint45_linear_1_1765" x1="33.1315" y1="33.6762" x2="32.303" y2="33.0507" gradientUnits="userSpaceOnUse">
<stop offset="0.05" stop-color="#CCEDED"/>
<stop offset="0.63" stop-color="#E5F4F4"/>
<stop offset="1" stop-color="#F0F8F8"/>
</linearGradient>
<linearGradient id="paint46_linear_1_1765" x1="26.8425" y1="16.8835" x2="26.5423" y2="15.8795" gradientUnits="userSpaceOnUse">
<stop offset="0.05" stop-color="#CCEDED"/>
<stop offset="0.63" stop-color="#E5F4F4"/>
<stop offset="1" stop-color="#F0F8F8"/>
</linearGradient>
<linearGradient id="paint47_linear_1_1765" x1="21.8799" y1="23.5481" x2="21.1484" y2="22.7793" gradientUnits="userSpaceOnUse">
<stop offset="0.05" stop-color="#CCEDED"/>
<stop offset="0.63" stop-color="#E5F4F4"/>
<stop offset="1" stop-color="#F0F8F8"/>
</linearGradient>
<linearGradient id="paint48_linear_1_1765" x1="40.386" y1="21.6967" x2="41.2898" y2="21.1495" gradientUnits="userSpaceOnUse">
<stop offset="0.05" stop-color="#CCEDED"/>
<stop offset="0.63" stop-color="#E5F4F4"/>
<stop offset="1" stop-color="#F0F8F8"/>
</linearGradient>
<linearGradient id="paint49_linear_1_1765" x1="37.4117" y1="17.4221" x2="36.774" y2="16.0879" gradientUnits="userSpaceOnUse">
<stop offset="0.05" stop-color="#CCEDED"/>
<stop offset="0.63" stop-color="#E5F4F4"/>
<stop offset="1" stop-color="#F0F8F8"/>
</linearGradient>
<linearGradient id="paint50_linear_1_1765" x1="23.6316" y1="25.0965" x2="24.1966" y2="24.7546" gradientUnits="userSpaceOnUse">
<stop offset="0.05" stop-color="#CCEDED"/>
<stop offset="0.63" stop-color="#E5F4F4"/>
<stop offset="1" stop-color="#F0F8F8"/>
</linearGradient>
<linearGradient id="paint51_linear_1_1765" x1="36.8568" y1="20.2025" x2="37.425" y2="19.8586" gradientUnits="userSpaceOnUse">
<stop offset="0.05" stop-color="#CCEDED"/>
<stop offset="0.63" stop-color="#E5F4F4"/>
<stop offset="1" stop-color="#F0F8F8"/>
</linearGradient>
<linearGradient id="paint52_linear_1_1765" x1="37.6827" y1="25.3778" x2="38.2476" y2="25.0359" gradientUnits="userSpaceOnUse">
<stop offset="0.05" stop-color="#CCEDED"/>
<stop offset="0.63" stop-color="#E5F4F4"/>
<stop offset="1" stop-color="#F0F8F8"/>
</linearGradient>
<linearGradient id="paint53_linear_1_1765" x1="25.0674" y1="17.0264" x2="25.6324" y2="16.6844" gradientUnits="userSpaceOnUse">
<stop offset="0.05" stop-color="#CCEDED"/>
<stop offset="0.63" stop-color="#E5F4F4"/>
<stop offset="1" stop-color="#F0F8F8"/>
</linearGradient>
<linearGradient id="paint54_linear_1_1765" x1="26.9356" y1="35.4864" x2="26.0873" y2="34.6005" gradientUnits="userSpaceOnUse">
<stop stop-color="#D3680D"/>
<stop offset="0.12" stop-color="#D97A16"/>
<stop offset="0.37" stop-color="#E49C28"/>
<stop offset="0.6" stop-color="#ECB534"/>
<stop offset="0.82" stop-color="#F1C33C"/>
<stop offset="1" stop-color="#F3C93F"/>
</linearGradient>
<linearGradient id="paint55_linear_1_1765" x1="20.0231" y1="31.1314" x2="19.1748" y2="30.2455" gradientUnits="userSpaceOnUse">
<stop stop-color="#D3680D"/>
<stop offset="0.12" stop-color="#D97A16"/>
<stop offset="0.37" stop-color="#E49C28"/>
<stop offset="0.6" stop-color="#ECB534"/>
<stop offset="0.82" stop-color="#F1C33C"/>
<stop offset="1" stop-color="#F3C93F"/>
</linearGradient>
<linearGradient id="paint56_linear_1_1765" x1="39.5214" y1="18.4812" x2="38.6701" y2="17.5921" gradientUnits="userSpaceOnUse">
<stop stop-color="#D3680D"/>
<stop offset="0.12" stop-color="#D97A16"/>
<stop offset="0.37" stop-color="#E49C28"/>
<stop offset="0.6" stop-color="#ECB534"/>
<stop offset="0.82" stop-color="#F1C33C"/>
<stop offset="1" stop-color="#F3C93F"/>
</linearGradient>
<linearGradient id="paint57_linear_1_1765" x1="22.2562" y1="25.743" x2="21.4049" y2="24.854" gradientUnits="userSpaceOnUse">
<stop stop-color="#D3680D"/>
<stop offset="0.12" stop-color="#D97A16"/>
<stop offset="0.37" stop-color="#E49C28"/>
<stop offset="0.6" stop-color="#ECB534"/>
<stop offset="0.82" stop-color="#F1C33C"/>
<stop offset="1" stop-color="#F3C93F"/>
</linearGradient>
<linearGradient id="paint58_linear_1_1765" x1="24.3148" y1="35.1569" x2="23.3394" y2="34.1319" gradientUnits="userSpaceOnUse">
<stop offset="0.05" stop-color="#CCEDED"/>
<stop offset="0.63" stop-color="#E5F4F4"/>
<stop offset="1" stop-color="#F0F8F8"/>
</linearGradient>
<linearGradient id="paint59_linear_1_1765" x1="22.5079" y1="32.0071" x2="21.5326" y2="30.9821" gradientUnits="userSpaceOnUse">
<stop offset="0.05" stop-color="#CCEDED"/>
<stop offset="0.63" stop-color="#E5F4F4"/>
<stop offset="1" stop-color="#F0F8F8"/>
</linearGradient>
<linearGradient id="paint60_linear_1_1765" x1="25.96" y1="33.2457" x2="25.6599" y2="32.2417" gradientUnits="userSpaceOnUse">
<stop offset="0.05" stop-color="#CCEDED"/>
<stop offset="0.63" stop-color="#E5F4F4"/>
<stop offset="1" stop-color="#F0F8F8"/>
</linearGradient>
<linearGradient id="paint61_linear_1_1765" x1="24.2425" y1="33.3927" x2="24.8074" y2="33.0508" gradientUnits="userSpaceOnUse">
<stop offset="0.05" stop-color="#CCEDED"/>
<stop offset="0.63" stop-color="#E5F4F4"/>
<stop offset="1" stop-color="#F0F8F8"/>
</linearGradient>
<linearGradient id="paint62_linear_1_1765" x1="21.9345" y1="33.5739" x2="21.0832" y2="32.6849" gradientUnits="userSpaceOnUse">
<stop stop-color="#D3680D"/>
<stop offset="0.12" stop-color="#D97A16"/>
<stop offset="0.37" stop-color="#E49C28"/>
<stop offset="0.6" stop-color="#ECB534"/>
<stop offset="0.82" stop-color="#F1C33C"/>
<stop offset="1" stop-color="#F3C93F"/>
</linearGradient>
<linearGradient id="paint63_linear_1_1765" x1="30.0094" y1="37.4043" x2="29.0341" y2="36.3793" gradientUnits="userSpaceOnUse">
<stop offset="0.05" stop-color="#CCEDED"/>
<stop offset="0.63" stop-color="#E5F4F4"/>
<stop offset="1" stop-color="#F0F8F8"/>
</linearGradient>
<linearGradient id="paint64_linear_1_1765" x1="36.8881" y1="29.1234" x2="36.5879" y2="28.1194" gradientUnits="userSpaceOnUse">
<stop offset="0.05" stop-color="#CCEDED"/>
<stop offset="0.63" stop-color="#E5F4F4"/>
<stop offset="1" stop-color="#F0F8F8"/>
</linearGradient>
<linearGradient id="paint65_linear_1_1765" x1="29.9322" y1="35.6585" x2="30.4971" y2="35.3165" gradientUnits="userSpaceOnUse">
<stop offset="0.05" stop-color="#CCEDED"/>
<stop offset="0.63" stop-color="#E5F4F4"/>
<stop offset="1" stop-color="#F0F8F8"/>
</linearGradient>
<linearGradient id="paint66_linear_1_1765" x1="38.7861" y1="25.8977" x2="39.0025" y2="25.0311" gradientUnits="userSpaceOnUse">
<stop offset="0.05" stop-color="#CCEDED"/>
<stop offset="0.63" stop-color="#E5F4F4"/>
<stop offset="1" stop-color="#F0F8F8"/>
</linearGradient>
<linearGradient id="paint67_linear_1_1765" x1="34.8735" y1="33.0519" x2="35.0889" y2="32.1891" gradientUnits="userSpaceOnUse">
<stop offset="0.05" stop-color="#CCEDED"/>
<stop offset="0.63" stop-color="#E5F4F4"/>
<stop offset="1" stop-color="#F0F8F8"/>
</linearGradient>
<linearGradient id="paint68_linear_1_1765" x1="36.392" y1="35.709" x2="36.6083" y2="34.8425" gradientUnits="userSpaceOnUse">
<stop offset="0.05" stop-color="#CCEDED"/>
<stop offset="0.63" stop-color="#E5F4F4"/>
<stop offset="1" stop-color="#F0F8F8"/>
</linearGradient>
<linearGradient id="paint69_linear_1_1765" x1="42.0775" y1="28.7929" x2="41.6145" y2="28.0374" gradientUnits="userSpaceOnUse">
<stop offset="0.05" stop-color="#CCEDED"/>
<stop offset="0.63" stop-color="#E5F4F4"/>
<stop offset="1" stop-color="#F0F8F8"/>
</linearGradient>
<linearGradient id="paint70_linear_1_1765" x1="30.6892" y1="15.2548" x2="30.2262" y2="14.4993" gradientUnits="userSpaceOnUse">
<stop offset="0.05" stop-color="#CCEDED"/>
<stop offset="0.63" stop-color="#E5F4F4"/>
<stop offset="1" stop-color="#F0F8F8"/>
</linearGradient>
<linearGradient id="paint71_linear_1_1765" x1="26.2651" y1="20.5289" x2="25.5833" y2="19.9646" gradientUnits="userSpaceOnUse">
<stop offset="0.05" stop-color="#CCEDED"/>
<stop offset="0.63" stop-color="#E5F4F4"/>
<stop offset="1" stop-color="#F0F8F8"/>
</linearGradient>
<linearGradient id="paint72_linear_1_1765" x1="30.3147" y1="18.6139" x2="29.6358" y2="18.052" gradientUnits="userSpaceOnUse">
<stop offset="0.05" stop-color="#CCEDED"/>
<stop offset="0.63" stop-color="#E5F4F4"/>
<stop offset="1" stop-color="#F0F8F8"/>
</linearGradient>
<linearGradient id="paint73_linear_1_1765" x1="39.4741" y1="33.0749" x2="38.6128" y2="32.4674" gradientUnits="userSpaceOnUse">
<stop offset="0.05" stop-color="#CCEDED"/>
<stop offset="0.63" stop-color="#E5F4F4"/>
<stop offset="1" stop-color="#F0F8F8"/>
</linearGradient>
<linearGradient id="paint74_linear_1_1765" x1="35.2973" y1="20.437" x2="34.433" y2="19.8273" gradientUnits="userSpaceOnUse">
<stop offset="0.05" stop-color="#CCEDED"/>
<stop offset="0.63" stop-color="#E5F4F4"/>
<stop offset="1" stop-color="#F0F8F8"/>
</linearGradient>
<linearGradient id="paint75_linear_1_1765" x1="39.2666" y1="24.4529" x2="38.6076" y2="23.6191" gradientUnits="userSpaceOnUse">
<stop offset="0.05" stop-color="#CCEDED"/>
<stop offset="0.63" stop-color="#E5F4F4"/>
<stop offset="1" stop-color="#F0F8F8"/>
</linearGradient>
<linearGradient id="paint76_linear_1_1765" x1="22.9135" y1="41.0015" x2="22.9135" y2="26.5195" gradientUnits="userSpaceOnUse">
<stop stop-color="#D3680D"/>
<stop offset="0.12" stop-color="#D97A16"/>
<stop offset="0.37" stop-color="#E49C28"/>
<stop offset="0.6" stop-color="#ECB534"/>
<stop offset="0.82" stop-color="#F1C33C"/>
<stop offset="1" stop-color="#F3C93F"/>
</linearGradient>
<linearGradient id="paint77_linear_1_1765" x1="22.8181" y1="39.5242" x2="22.8181" y2="25.9234" gradientUnits="userSpaceOnUse">
<stop stop-color="#A80909"/>
<stop offset="0.86" stop-color="#E53B2B"/>
<stop offset="1" stop-color="#F04431"/>
</linearGradient>
</defs>
</svg>
