<svg width="46" height="46" viewBox="0 0 46 46" fill="none" xmlns="http://www.w3.org/2000/svg">
<path d="M23.3852 45.2C35.8668 45.2 45.9852 35.0816 45.9852 22.6C45.9852 10.1184 35.8668 0 23.3852 0C10.9035 0 0.785156 10.1184 0.785156 22.6C0.785156 35.0816 10.9035 45.2 23.3852 45.2Z" fill="white"/>
<path d="M11.1152 13.1C10.9952 13.17 10.8852 13.24 10.7652 13.31C10.5652 13.44 10.4152 13.62 10.2852 13.82C11.1452 14.55 11.8852 15.43 12.3252 16.48C12.4752 16.4 12.8752 16.31 13.0252 16.23C12.6852 15.09 11.9852 13.94 11.1352 13.12C11.1352 13.12 11.1352 13.12 11.1252 13.11L11.1152 13.1Z" fill="url(#paint0_radial_1_1053)"/>
<path d="M8.91505 17.98C8.00505 19.43 7.88505 21.35 8.60505 22.9C9.30505 24.4 10.7451 25.51 12.3451 25.94C13.9451 26.37 15.6851 26.16 17.2051 25.5C17.7251 25.27 18.2251 24.99 18.6551 24.63C20.2651 23.3 20.8351 20.99 20.4551 18.93C20.2451 17.78 19.7551 16.67 18.9451 15.83C18.1351 14.99 16.9751 14.46 15.8151 14.54C14.5451 14.62 13.4351 15.39 12.2051 15.68C10.8551 16 9.64505 16.79 8.89505 17.97L8.91505 17.98Z" fill="#BE2626"/>
<g style="mix-blend-mode:multiply">
<path d="M19.5353 16.55C19.5353 16.55 19.5553 16.62 19.5553 16.66C19.8753 18.43 19.3853 20.43 17.9953 21.58C17.6153 21.89 17.1853 22.13 16.7453 22.33C15.4353 22.9 13.9353 23.08 12.5553 22.71C11.1753 22.34 9.93529 21.38 9.32529 20.09C9.01529 19.43 8.88529 18.69 8.92529 17.96C8.92529 17.96 8.91529 17.98 8.90529 17.98C7.99529 19.43 7.87529 21.35 8.59529 22.9C9.29529 24.4 10.7353 25.51 12.3353 25.94C13.9353 26.37 15.6753 26.16 17.1953 25.5C17.7153 25.27 18.2153 24.99 18.6453 24.63C20.2553 23.3 20.8253 20.99 20.4453 18.93C20.2953 18.09 19.9853 17.26 19.5153 16.55H19.5353Z" fill="#B82601"/>
</g>
<path d="M12.3255 15.59C11.9855 15.66 11.7255 15.79 11.3755 15.63C11.0955 15.5 10.8855 15.31 10.5555 15.26C10.4855 15.25 10.4055 15.24 10.3355 15.23C10.0655 15.17 9.82553 15.01 9.59553 14.85C9.66553 15.04 9.73553 15.23 9.84553 15.4C10.0455 15.71 10.2855 15.8 10.6155 15.88C10.9655 15.96 11.2855 16.13 11.6455 16.18C11.4155 16.79 10.9955 17.33 10.4655 17.7C10.1455 17.93 9.77553 18.09 9.41553 18.26C9.96553 18.37 10.5455 18.26 11.0355 17.99C11.5255 17.73 11.9455 17.33 12.2655 16.88C12.4255 16.65 12.5755 16.38 12.5555 16.1C12.8355 16.65 13.3755 17.05 13.9755 17.17C14.5755 17.29 15.2255 17.11 15.6955 16.7C15.2955 16.79 14.8955 16.6 14.5255 16.42C14.0555 16.19 13.5855 15.95 13.1155 15.72C13.3855 15.8 13.6755 15.78 13.9555 15.72C14.4255 15.64 14.8855 15.49 15.2655 15.21C15.6455 14.93 15.9255 14.49 15.9455 14.02C15.1955 14.72 14.1455 14.96 13.1355 15.17C13.5955 15.03 13.9355 14.59 13.9755 14.11C13.9955 13.83 13.9155 13.56 13.8255 13.3C13.6755 12.87 13.4755 12.45 13.2855 12.03C13.3055 12.38 13.3355 12.74 13.2355 13.08C13.1355 13.43 13.0555 13.61 13.1855 13.98C13.2355 14.12 13.2855 14.27 13.2655 14.42C13.2455 14.59 13.1555 14.74 13.0555 14.88C12.9155 15.07 12.7655 15.32 12.5455 15.43C12.4155 15.5 12.0255 15.69 11.9055 15.6L12.3055 15.58L12.3255 15.59Z" fill="url(#paint1_radial_1_1053)"/>
<g style="mix-blend-mode:screen" opacity="0.44">
<path d="M13.8251 17.91C13.5051 18.27 13.2351 18.75 13.3351 19.22C13.4351 19.69 13.8951 20.02 14.3651 20.1C14.8351 20.19 15.3151 20.07 15.7751 19.93C16.5551 19.69 17.3351 19.36 17.8751 18.75C18.4151 18.14 18.6451 17.2 18.2451 16.49C18.1751 16.37 18.0951 16.26 18.0051 16.16C17.4651 15.57 16.2151 15.1 15.4451 15.52C15.0351 15.74 14.9851 16.14 14.8151 16.53C14.5751 17.09 14.2251 17.44 13.8251 17.9V17.91Z" fill="#E84133"/>
</g>
<g style="mix-blend-mode:screen" opacity="0.44">
<path d="M10.6055 17.2C10.2555 17.17 9.87552 17.31 9.68552 17.61C9.56552 17.8 9.53552 18.03 9.55552 18.25C9.59552 18.77 9.88552 19.26 10.3255 19.54C10.7055 19.78 11.2055 19.85 11.6055 19.65C12.0055 19.45 12.2455 18.94 12.0755 18.52C11.8055 17.86 11.3655 17.25 10.6055 17.19V17.2Z" fill="#E84133"/>
</g>
<path d="M36.4154 34.04C36.4954 34.18 36.5554 34.33 36.6454 34.46C36.6454 34.47 36.6654 34.48 36.6754 34.48C36.6854 34.48 36.6854 34.46 36.6854 34.45C36.6854 34.34 36.6454 34.23 36.5954 34.12C36.5554 34.04 36.5154 33.96 36.4754 33.88C36.6654 33.92 36.7854 34.1 36.8754 34.27C36.8954 34.31 36.9154 34.34 36.9354 34.37C36.9554 34.4 36.9854 34.42 37.0254 34.43C37.0354 34.43 37.0054 34.2 36.9954 34.17C36.9554 34.08 36.8854 33.99 36.8054 33.93C36.7254 33.87 36.6354 33.81 36.6354 33.71C36.7954 33.83 36.9454 33.96 37.1054 34.08C37.1054 33.96 37.0454 33.85 36.9554 33.76C36.8754 33.67 36.7754 33.6 36.6754 33.54C36.7154 33.51 36.7654 33.53 36.8154 33.54C36.9754 33.59 37.1354 33.64 37.2954 33.69C37.1954 33.51 36.9854 33.42 36.7754 33.37C36.6554 33.34 36.5254 33.32 36.4154 33.26C36.3154 33.21 36.2554 33.14 36.1454 33.1C36.0554 33.07 35.9554 33.05 35.8654 33.09C35.7554 33.14 35.6954 33.29 35.7454 33.39C35.8054 33.5 35.9754 33.55 36.0654 33.64C36.1954 33.76 36.3054 33.88 36.3954 34.03C36.3954 34.03 36.3954 34.04 36.4054 34.05L36.4154 34.04Z" fill="#CEBD33"/>
<path d="M24.2954 32.61C24.5554 32.65 24.8154 32.71 25.1054 32.8C26.3754 33.2 27.6354 33.65 28.8754 34.15C30.3154 34.72 31.8054 35.35 33.2954 35.29C35.4354 35.2 36.7954 33.58 36.5054 31.25C36.3954 30.4 36.1054 29.54 35.4854 28.97C34.9854 28.5 34.8854 27.71 34.3054 27.32C34.0954 27.17 33.8354 27.11 33.5954 27.01C32.8654 26.68 32.3054 25.91 31.4954 25.9C31.3154 25.9 31.1154 25.93 30.9754 25.81C30.8954 25.74 30.8654 25.62 30.8054 25.53C30.4854 25.03 29.6154 25.33 29.1854 24.93C29.0454 24.81 28.9754 24.63 28.8354 24.5C28.4854 24.19 27.9154 24.38 27.4854 24.22C27.0854 24.07 26.8654 23.82 26.4254 23.78C26.0754 23.74 25.7354 23.78 25.3854 23.69C25.0754 23.62 24.7654 23.53 24.4554 23.64C24.3554 23.68 24.2554 23.73 24.1554 23.75C23.7954 23.81 23.5254 23.4 23.1754 23.29C22.7654 23.16 22.3254 23.44 21.9054 23.37C21.5754 23.31 21.2954 23.04 20.9554 23.03C20.6054 23.02 20.2854 23.3 19.9354 23.25C19.7154 23.22 19.5254 23.07 19.3154 22.99C18.7154 22.78 18.0654 23.24 17.4354 23.14C17.0454 23.08 16.6754 22.81 16.2954 22.91C16.1554 22.95 16.0354 23.04 15.8954 23.08C15.4054 23.24 14.8354 22.81 14.3754 23.04C14.2354 23.11 14.1254 23.24 13.9754 23.29C13.8654 23.33 13.7454 23.32 13.6254 23.29C13.4754 23.26 13.3354 23.21 13.1854 23.21C12.7354 23.19 12.3754 23.57 11.9354 23.66C11.5554 23.75 11.1454 23.62 10.7654 23.73C10.4854 23.82 10.2554 24.03 9.98543 24.15C9.62543 24.32 9.21543 24.32 8.82543 24.39C8.15543 24.51 7.55543 25.11 7.07543 25.57C6.58543 26.04 6.15543 26.59 5.89543 27.22C5.28543 28.67 5.83543 30.09 6.98543 31.08C7.53543 31.55 8.56543 32.18 9.31543 32.06C9.64543 32.01 9.99543 31.89 10.3154 31.97C10.5554 32.03 10.7654 32.19 11.0054 32.24C11.5154 32.34 11.9854 31.95 12.4954 31.88C12.9854 31.81 13.4754 32.04 13.9654 32C14.5154 31.95 15.0054 31.57 15.5454 31.6C15.8754 31.61 16.1854 31.77 16.5154 31.75C16.8654 31.73 17.1754 31.51 17.5154 31.49C17.8754 31.48 18.2054 31.68 18.5654 31.69C18.8954 31.69 19.2154 31.53 19.5454 31.53C20.2354 31.52 20.8154 32.19 21.5054 32.14C21.7454 32.12 21.9754 32.02 22.2154 32.03C22.7154 32.06 23.0454 32.52 23.5554 32.54C23.9054 32.55 24.1954 32.58 24.5054 32.7C24.8454 32.83 25.1054 32.98 25.4954 32.92C25.6454 32.9 25.8054 32.85 25.9554 32.87C26.3754 32.93 26.5754 33.45 26.9754 33.61C27.3254 33.75 27.7254 33.56 28.0954 33.65C28.4354 33.73 28.6854 34.02 28.9954 34.17C29.5654 34.45 30.2654 34.25 30.8754 34.44C31.1954 34.54 31.4754 34.75 31.7754 34.89C32.0854 35.03 32.4654 35.08 32.7354 34.89L24.3054 32.61H24.2954Z" fill="url(#paint2_linear_1_1053)"/>
<path d="M35.4854 28.96C34.9854 28.49 34.8854 27.7 34.3054 27.31C34.0954 27.16 33.8354 27.1 33.5954 27C32.8654 26.67 32.3054 25.9 31.4954 25.89C31.3154 25.89 31.1154 25.92 30.9754 25.8C30.8954 25.73 30.8654 25.61 30.8054 25.52C30.4854 25.02 29.6154 25.32 29.1854 24.92C29.0454 24.8 28.9754 24.62 28.8354 24.49C28.4854 24.18 27.9154 24.37 27.4854 24.21C27.0854 24.06 26.8654 23.81 26.4254 23.77C26.0754 23.73 25.7354 23.77 25.3854 23.68C25.0754 23.61 24.7654 23.52 24.4554 23.63C24.3554 23.67 24.2554 23.72 24.1554 23.74C23.7954 23.8 23.5254 23.39 23.1754 23.28C22.7654 23.15 22.3254 23.43 21.9054 23.36C21.5754 23.3 21.2954 23.03 20.9554 23.02C20.6054 23.01 20.2854 23.29 19.9354 23.24C19.7154 23.21 19.5254 23.06 19.3154 22.98C18.7154 22.77 18.0654 23.23 17.4354 23.13C17.0454 23.07 16.6754 22.8 16.2954 22.9C16.1554 22.94 16.0354 23.03 15.8954 23.07C15.4054 23.23 14.8354 22.8 14.3754 23.03C14.2354 23.1 14.1254 23.23 13.9754 23.28C13.8654 23.32 13.7454 23.31 13.6254 23.28C13.4754 23.25 13.3354 23.2 13.1854 23.2C12.7354 23.18 12.3754 23.56 11.9354 23.65C11.5554 23.74 11.1454 23.61 10.7654 23.72C10.4854 23.81 10.2554 24.02 9.98543 24.14C9.62543 24.31 9.21543 24.31 8.82543 24.38C8.15543 24.5 7.55543 25.1 7.07543 25.56C6.58543 26.03 6.15543 26.58 5.89543 27.21C5.28543 28.66 5.83543 30.08 6.98543 31.07C7.53543 31.54 8.56543 32.17 9.31543 32.05C9.64543 32 9.99543 31.88 10.3154 31.96C10.5554 32.02 10.7654 32.18 11.0054 32.23C11.5154 32.33 11.9854 31.94 12.4954 31.87C12.9854 31.8 13.4754 32.03 13.9654 31.99C14.5154 31.94 15.0054 31.56 15.5454 31.59C15.8754 31.6 16.1854 31.76 16.5154 31.74C16.8654 31.72 17.1754 31.5 17.5154 31.48C17.8754 31.47 18.2054 31.67 18.5654 31.68C18.8954 31.68 19.2154 31.52 19.5454 31.52C20.2354 31.51 20.8154 32.18 21.5054 32.13C21.7454 32.11 21.9754 32.01 22.2154 32.02C22.7854 32.05 23.0154 32.64 23.5654 32.67C23.8854 32.69 24.2154 32.53 24.5354 32.62C24.9654 32.74 25.2354 33.28 25.6754 33.25C25.8154 33.24 25.9454 33.17 26.0854 33.16C26.5554 33.12 26.8354 33.72 27.2954 33.82C27.6554 33.9 28.0554 33.65 28.3954 33.8C28.6854 33.93 28.8054 34.3 29.1054 34.42C29.4954 34.57 30.0154 34.2 30.3354 34.47C30.4654 34.58 30.5154 34.76 30.6454 34.87C30.9154 35.09 31.3154 34.89 31.6554 34.94C31.9054 34.98 32.1154 35.16 32.3454 35.26C33.2954 35.66 34.8754 35.06 35.5754 34.38C36.4154 33.57 36.6554 32.37 36.5154 31.25C36.4054 30.4 36.1154 29.54 35.4954 28.97L35.4854 28.96Z" fill="url(#paint3_linear_1_1053)"/>
<path d="M28.8354 27.9C28.7354 27.94 28.6654 28.03 28.6454 28.12C28.6154 28.21 28.6454 28.32 28.7154 28.4C28.8154 28.49 28.9854 28.49 29.0754 28.41C29.2554 28.26 29.1754 27.74 28.8354 27.9Z" fill="url(#paint4_radial_1_1053)"/>
<path d="M25.8456 28.78C25.7456 28.82 25.6756 28.91 25.6556 29C25.6256 29.09 25.6556 29.2 25.7256 29.28C25.8256 29.37 25.9956 29.37 26.0856 29.29C26.2656 29.14 26.1856 28.62 25.8456 28.78Z" fill="url(#paint5_radial_1_1053)"/>
<path d="M32.7856 27.82C32.6856 27.86 32.6156 27.95 32.5956 28.04C32.5656 28.13 32.5956 28.24 32.6656 28.32C32.7656 28.41 32.9356 28.41 33.0256 28.33C33.2056 28.18 33.1256 27.66 32.7856 27.82Z" fill="url(#paint6_radial_1_1053)"/>
<path d="M27.3857 25.89C27.2857 25.93 27.2157 26.02 27.1957 26.11C27.1657 26.2 27.1957 26.31 27.2657 26.39C27.3657 26.48 27.5357 26.48 27.6257 26.4C27.8057 26.25 27.7257 25.73 27.3857 25.89Z" fill="url(#paint7_radial_1_1053)"/>
<path d="M25.9355 31.22C25.8355 31.26 25.7655 31.35 25.7455 31.44C25.7155 31.53 25.7455 31.64 25.8155 31.72C25.9155 31.81 26.0855 31.81 26.1755 31.73C26.3555 31.58 26.2755 31.06 25.9355 31.22Z" fill="url(#paint8_radial_1_1053)"/>
<path d="M20.2953 29.47C20.1953 29.51 20.1253 29.6 20.1053 29.69C20.0753 29.78 20.1053 29.89 20.1753 29.97C20.2753 30.06 20.4453 30.06 20.5353 29.98C20.7153 29.83 20.6353 29.31 20.2953 29.47Z" fill="url(#paint9_radial_1_1053)"/>
<path d="M8.14543 26.29C8.04543 26.33 7.97543 26.42 7.95543 26.51C7.92543 26.6 7.95543 26.71 8.02543 26.79C8.12543 26.88 8.29543 26.88 8.38543 26.8C8.56543 26.65 8.48543 26.13 8.14543 26.29Z" fill="url(#paint10_radial_1_1053)"/>
<path d="M33.6357 29.51C33.5357 29.55 33.4657 29.64 33.4457 29.73C33.4157 29.82 33.4457 29.93 33.5157 30.01C33.6157 30.1 33.7857 30.1 33.8757 30.02C34.0557 29.87 33.9757 29.35 33.6357 29.51Z" fill="url(#paint11_radial_1_1053)"/>
<path d="M35.1254 31.41C35.0254 31.45 34.9554 31.54 34.9354 31.63C34.9054 31.72 34.9354 31.83 35.0054 31.91C35.1054 32 35.2754 32 35.3654 31.92C35.5454 31.77 35.4654 31.25 35.1254 31.41Z" fill="url(#paint12_radial_1_1053)"/>
<path d="M31.4052 31.03C31.3052 31.07 31.2352 31.16 31.2152 31.25C31.1852 31.34 31.2152 31.45 31.2852 31.53C31.3852 31.62 31.5552 31.62 31.6452 31.54C31.8252 31.39 31.7452 30.87 31.4052 31.03Z" fill="url(#paint13_radial_1_1053)"/>
<path d="M13.1654 27.78C13.0654 27.82 12.9955 27.91 12.9755 28C12.9455 28.09 12.9755 28.2 13.0455 28.28C13.1455 28.37 13.3155 28.37 13.4055 28.29C13.5855 28.14 13.5054 27.62 13.1654 27.78Z" fill="url(#paint14_radial_1_1053)"/>
<path d="M16.9955 29.42C16.8955 29.46 16.8255 29.55 16.8055 29.64C16.7755 29.73 16.8055 29.84 16.8755 29.92C16.9755 30.01 17.1455 30.01 17.2355 29.93C17.4155 29.78 17.3355 29.26 16.9955 29.42Z" fill="url(#paint15_radial_1_1053)"/>
<path d="M9.37541 29.99C9.27541 30.03 9.20541 30.12 9.18541 30.21C9.15541 30.3 9.18541 30.41 9.25541 30.49C9.35541 30.58 9.52541 30.58 9.61541 30.5C9.79541 30.35 9.71541 29.83 9.37541 29.99Z" fill="url(#paint16_radial_1_1053)"/>
<path d="M24.4252 25.76C24.3252 25.8 24.2552 25.89 24.2352 25.98C24.2052 26.07 24.2352 26.18 24.3052 26.26C24.4052 26.35 24.5752 26.35 24.6652 26.27C24.8452 26.12 24.7652 25.6 24.4252 25.76Z" fill="url(#paint17_radial_1_1053)"/>
<path d="M20.3554 26.35C20.2554 26.39 20.1854 26.48 20.1654 26.57C20.1354 26.66 20.1654 26.77 20.2354 26.85C20.3354 26.94 20.5054 26.94 20.5954 26.86C20.7754 26.71 20.6954 26.19 20.3554 26.35Z" fill="url(#paint18_radial_1_1053)"/>
<path d="M33.8256 33.77C33.7256 33.81 33.6556 33.9 33.6356 33.99C33.6056 34.08 33.6356 34.19 33.7056 34.27C33.8056 34.36 33.9756 34.36 34.0656 34.28C34.2456 34.13 34.1656 33.61 33.8256 33.77Z" fill="url(#paint19_radial_1_1053)"/>
<path d="M18.0155 24.88C17.9155 24.92 17.8455 25.01 17.8255 25.1C17.7955 25.19 17.8255 25.3 17.8955 25.38C17.9955 25.47 18.1655 25.47 18.2555 25.39C18.4355 25.24 18.3555 24.72 18.0155 24.88Z" fill="url(#paint20_radial_1_1053)"/>
<path d="M23.8857 28.92C23.7857 28.96 23.7157 29.05 23.6957 29.14C23.6657 29.23 23.6957 29.34 23.7657 29.42C23.8657 29.51 24.0357 29.51 24.1257 29.43C24.3057 29.28 24.2257 28.76 23.8857 28.92Z" fill="url(#paint21_radial_1_1053)"/>
<path d="M16.3456 26.57C16.2456 26.61 16.1756 26.7 16.1556 26.79C16.1256 26.88 16.1556 26.99 16.2256 27.07C16.3256 27.16 16.4956 27.16 16.5856 27.08C16.7656 26.93 16.6856 26.41 16.3456 26.57Z" fill="url(#paint22_radial_1_1053)"/>
<path d="M13.6454 24.54C13.5454 24.58 13.4754 24.67 13.4554 24.76C13.4254 24.85 13.4554 24.96 13.5254 25.04C13.6254 25.13 13.7954 25.13 13.8854 25.05C14.0654 24.9 13.9854 24.38 13.6454 24.54Z" fill="url(#paint23_radial_1_1053)"/>
<path d="M28.8154 31.11C28.7154 31.15 28.6454 31.24 28.6254 31.33C28.5954 31.42 28.6254 31.53 28.6954 31.61C28.7954 31.7 28.9654 31.7 29.0554 31.62C29.2354 31.47 29.1554 30.95 28.8154 31.11Z" fill="url(#paint24_radial_1_1053)"/>
<path style="mix-blend-mode:screen" opacity="0.65" d="M35.4853 28.96C34.9853 28.49 34.8853 27.7 34.3053 27.31C34.0953 27.16 33.8353 27.1 33.5953 27C32.8653 26.67 32.3053 25.9 31.4953 25.89C31.3153 25.89 31.1153 25.92 30.9753 25.8C30.8953 25.73 30.8653 25.61 30.8053 25.52C30.4853 25.02 29.6153 25.32 29.1853 24.92C29.0453 24.8 28.9753 24.62 28.8353 24.49C28.4853 24.18 27.9153 24.37 27.4853 24.21C27.0853 24.06 26.8653 23.81 26.4253 23.77C26.0753 23.73 25.7353 23.77 25.3853 23.68C25.0753 23.61 24.7653 23.52 24.4553 23.63C24.3553 23.67 24.2553 23.72 24.1553 23.74C23.7953 23.8 23.5253 23.39 23.1753 23.28C22.7653 23.15 22.3253 23.43 21.9053 23.36C21.5753 23.3 21.2953 23.03 20.9553 23.02C20.6053 23.01 20.2853 23.29 19.9353 23.24C19.7153 23.21 19.5253 23.06 19.3153 22.98C18.7153 22.77 18.0653 23.23 17.4353 23.13C17.0453 23.07 16.6753 22.8 16.2953 22.9C16.1553 22.94 16.0353 23.03 15.8953 23.07C15.4053 23.23 14.8353 22.8 14.3753 23.03C14.2353 23.1 14.1253 23.23 13.9753 23.28C13.8653 23.32 13.7453 23.31 13.6253 23.28C13.4753 23.25 13.3353 23.2 13.1853 23.2C12.7353 23.18 12.3753 23.56 11.9353 23.65C11.5553 23.74 11.1453 23.61 10.7653 23.72C10.4853 23.81 10.2553 24.02 9.98526 24.14C9.62526 24.31 9.21526 24.31 8.82526 24.38C8.15526 24.5 7.55526 25.1 7.07526 25.56C6.58526 26.03 6.15526 26.58 5.89526 27.21C5.68526 27.7 5.61527 28.18 5.65527 28.64C5.68527 28.33 5.75526 28.01 5.89526 27.7C6.16526 27.07 6.58526 26.52 7.07526 26.05C7.55526 25.58 8.15526 24.99 8.82526 24.87C9.21526 24.8 9.62526 24.8 9.98526 24.63C10.2553 24.5 10.4753 24.29 10.7653 24.21C11.1453 24.1 11.5553 24.23 11.9353 24.14C12.3753 24.04 12.7353 23.67 13.1853 23.69C13.3353 23.69 13.4753 23.74 13.6253 23.77C13.7453 23.79 13.8653 23.8 13.9753 23.77C14.1253 23.72 14.2353 23.59 14.3753 23.52C14.8353 23.29 15.4053 23.72 15.8953 23.56C16.0353 23.52 16.1553 23.43 16.2953 23.39C16.6753 23.28 17.0453 23.56 17.4353 23.62C18.0653 23.72 18.7153 23.26 19.3153 23.47C19.5253 23.54 19.7153 23.7 19.9353 23.73C20.2853 23.77 20.6053 23.5 20.9553 23.51C21.2953 23.52 21.5753 23.79 21.9053 23.85C22.3253 23.92 22.7653 23.64 23.1753 23.77C23.5253 23.89 23.7953 24.3 24.1553 24.23C24.2653 24.21 24.3553 24.15 24.4553 24.12C24.7653 24.01 25.0853 24.1 25.3853 24.17C25.7253 24.25 26.0753 24.22 26.4253 24.26C26.8653 24.3 27.0953 24.55 27.4853 24.7C27.9253 24.87 28.4853 24.68 28.8353 24.98C28.9753 25.1 29.0553 25.28 29.1853 25.41C29.6253 25.81 30.4953 25.51 30.8053 26.01C30.8653 26.1 30.8953 26.22 30.9753 26.29C31.1053 26.41 31.3153 26.38 31.4953 26.38C32.2953 26.38 32.8553 27.16 33.5953 27.49C33.8353 27.6 34.0953 27.66 34.3053 27.8C34.8853 28.19 34.9853 28.99 35.4853 29.45C36.1053 30.03 36.3953 30.88 36.5053 31.73C36.5253 31.86 36.5353 31.99 36.5353 32.12C36.5553 31.83 36.5353 31.53 36.5053 31.24C36.3953 30.39 36.1053 29.53 35.4853 28.96Z" fill="url(#paint25_linear_1_1053)"/>
<path d="M25.4553 32.92L25.5753 32.95C25.5753 32.95 25.5053 32.93 25.4653 32.91C25.4653 32.91 25.4553 32.91 25.4453 32.91L25.4553 32.92Z" fill="url(#paint26_linear_1_1053)"/>
<g style="mix-blend-mode:multiply" opacity="0.43">
<path d="M35.3653 33.05C35.2053 33.18 35.0253 33.27 34.8453 33.2C34.6853 33.14 34.5753 32.97 34.4153 32.93C34.3053 32.9 34.1853 32.93 34.0753 32.97C33.5853 33.13 33.0253 33.25 32.5653 33.01C32.4253 32.94 32.3053 32.83 32.1653 32.78C31.6753 32.58 31.0153 32.94 30.6353 32.58C30.4453 32.4 30.4053 32.1 30.1853 31.97C29.7953 31.72 29.1853 32.2 28.8453 31.88C28.7653 31.8 28.7153 31.68 28.6453 31.59C28.3053 31.17 27.5653 31.43 27.1053 31.32C26.4853 31.18 26.1853 30.51 25.5653 30.36C25.2353 30.28 24.8753 30.39 24.5553 30.28C24.0553 30.11 23.7953 29.48 23.2853 29.4C23.0153 29.36 22.7253 29.49 22.4553 29.4C22.0753 29.28 21.9153 28.77 21.5253 28.67C21.2353 28.6 20.9453 28.79 20.6353 28.81C20.2453 28.84 19.8853 28.57 19.4853 28.58C19.0753 28.58 18.7253 28.88 18.3253 28.98C17.6253 29.16 16.8853 28.71 16.1753 28.81C15.5553 28.9 14.9553 29.38 14.3653 29.17C14.2053 29.11 14.0653 29.01 13.9053 28.96C13.4153 28.81 12.9253 29.22 12.4153 29.3C11.8153 29.39 11.2053 29.01 10.6153 29.14C10.2653 29.22 9.94535 29.47 9.58535 29.46C9.24535 29.46 8.96535 29.22 8.64535 29.11C8.12535 28.93 7.54535 29.07 7.02535 28.9C6.41535 28.7 6.28535 28.04 5.70535 27.84C5.31535 29.02 6.10535 30.35 6.97535 31.1C7.52535 31.57 8.55535 32.2 9.30535 32.08C9.63535 32.03 9.98535 31.91 10.3053 31.99C10.5453 32.05 10.7553 32.21 10.9953 32.26C11.5053 32.36 11.9753 31.97 12.4853 31.9C12.9753 31.83 13.4653 32.06 13.9553 32.02C14.5053 31.97 14.9953 31.59 15.5353 31.62C15.8653 31.63 16.1753 31.79 16.5053 31.77C16.8553 31.75 17.1653 31.53 17.5053 31.51C17.8653 31.5 18.1953 31.7 18.5553 31.71C18.8853 31.71 19.2053 31.55 19.5353 31.55C20.2253 31.54 20.8053 32.21 21.4953 32.16C21.7353 32.14 21.9653 32.04 22.2053 32.05C22.7753 32.08 23.0053 32.67 23.5553 32.7C23.8753 32.72 24.2053 32.56 24.5253 32.65C24.9553 32.77 25.2253 33.31 25.6653 33.28C25.8053 33.27 25.9353 33.2 26.0753 33.19C26.5453 33.15 26.8253 33.75 27.2853 33.85C27.6453 33.93 28.0453 33.68 28.3853 33.83C28.6753 33.96 28.7953 34.33 29.0953 34.45C29.4853 34.6 30.0053 34.23 30.3253 34.5C30.4553 34.61 30.5053 34.79 30.6353 34.9C30.9053 35.12 31.3053 34.92 31.6453 34.97C31.8953 35.01 32.1053 35.19 32.3353 35.29C33.2853 35.69 34.8653 35.09 35.5653 34.41C35.7853 34.2 35.9653 33.96 36.1053 33.7C36.2753 33.27 36.4053 32.78 36.3453 32.32C36.0153 32.46 35.7753 32.64 35.5353 32.92C35.4853 32.98 35.4353 33.03 35.3753 33.08L35.3653 33.05Z" fill="#30791A"/>
</g>
<path d="M19.5551 27.31C19.6251 27.53 19.7351 27.73 19.8851 27.89C19.9851 28 20.1251 28.08 20.2251 28.19C20.3051 28.27 20.3651 28.35 20.4351 28.43C20.6551 28.66 20.9451 28.85 21.2351 28.96C21.4951 29.06 21.7751 29.1 22.0551 29.06C22.9251 28.94 23.7751 28.14 24.4651 27.64C25.1451 27.15 25.7451 26.55 26.3851 26.01C28.1051 24.53 30.0551 23.32 32.1151 22.4C32.1751 22.37 32.2351 22.35 32.3051 22.32C32.4351 22.26 33.8751 21.71 33.8751 21.7C33.7451 21.08 33.6151 20.45 33.4851 19.83C33.4551 19.66 33.4051 19.47 33.2451 19.39C33.0851 19.31 32.8951 19.39 32.7351 19.45C31.2251 20.13 29.7151 20.81 28.2051 21.49C27.7051 21.72 26.9551 21.86 26.7451 21.35C26.6651 21.17 26.6951 20.97 26.7351 20.77C27.0751 18.85 27.5851 16.97 28.2651 15.15C28.3051 15.05 26.8751 14.97 26.7451 14.98C26.3451 15.02 25.8451 15.09 25.5451 15.38C25.2451 15.66 25.1551 16.14 25.0351 16.51C24.8351 17.09 24.6151 17.66 24.3851 18.23C24.2151 18.64 24.0351 19.04 23.8451 19.43C23.7551 19.61 23.6451 19.79 23.6051 19.98C23.5651 20.16 23.4951 20.34 23.4351 20.51C23.3051 20.86 23.1451 21.21 22.9551 21.54C22.5851 22.21 22.1451 22.83 21.6451 23.41C21.4351 23.66 21.2151 23.9 20.9851 24.14C20.4151 24.74 19.7751 25.35 19.5351 26.14C19.4251 26.5 19.4251 26.91 19.5351 27.27L19.5551 27.31Z" fill="url(#paint27_radial_1_1053)"/>
<g style="mix-blend-mode:multiply" opacity="0.32">
<path d="M33.5554 20.09C32.6754 20.29 31.8154 20.59 31.0054 20.96C29.7154 21.54 28.4554 22.89 26.9154 22.55C25.3654 22.21 25.7954 20.66 26.1254 19.57C26.4054 18.68 26.4154 17.73 26.6154 16.83C26.7554 16.21 26.9654 15.61 27.1754 15.01C26.9654 15 26.8054 14.99 26.7654 15C26.5154 15.03 26.2154 15.07 25.9554 15.17C25.7454 15.66 25.5954 16.24 25.3954 16.64C25.0954 17.26 24.8454 17.87 24.6454 18.53C24.2554 19.85 23.8254 21.12 23.1554 22.32C22.4854 23.53 21.5954 24.5 20.6554 25.49C20.1854 25.99 19.7554 26.5 19.5054 27.08C19.5154 27.16 19.5354 27.23 19.5554 27.31C19.6254 27.53 19.7354 27.73 19.8854 27.89C19.9854 28 20.1254 28.08 20.2254 28.19C20.3054 28.27 20.3654 28.35 20.4354 28.43C20.6554 28.66 20.9454 28.85 21.2354 28.96C21.2354 28.96 21.2554 28.96 21.2654 28.96C23.2954 28.28 25.0854 25.98 26.5654 24.84C27.8654 23.84 29.2754 23.23 30.7354 22.51C31.7354 22.02 32.7154 21.5 33.7754 21.2C33.6954 20.83 33.6254 20.45 33.5454 20.08L33.5554 20.09Z" fill="#6A9C29"/>
</g>
<g style="mix-blend-mode:multiply" opacity="0.32">
<path d="M33.555 20.09C32.675 20.29 31.815 20.59 31.005 20.96C30.945 20.99 30.905 21.02 30.855 21.05C30.795 21.08 30.725 21.1 30.655 21.12C30.525 21.16 30.385 21.17 30.245 21.17C30.145 21.17 30.035 21.16 29.935 21.2C29.785 21.26 29.695 21.44 29.555 21.51C29.365 21.6 29.125 21.51 28.925 21.58C28.695 21.67 28.605 21.97 28.375 22.06C28.175 22.14 27.945 22.04 27.725 22.08C27.585 22.11 27.455 22.2 27.315 22.23C27.065 22.28 26.815 22.12 26.635 21.93C26.415 21.71 26.235 21.42 26.265 21.11C26.285 20.95 26.355 20.79 26.375 20.63C26.405 20.32 26.235 20.01 26.285 19.7C26.335 19.41 26.575 19.15 26.535 18.86C26.515 18.7 26.405 18.56 26.365 18.4C26.365 18.36 26.345 18.32 26.365 18.28C26.365 18.25 26.395 18.23 26.395 18.2C26.415 18.14 26.415 18.07 26.425 18.01C26.445 17.88 26.455 17.75 26.475 17.62C26.515 17.36 26.555 17.1 26.605 16.84C26.745 16.22 26.955 15.62 27.165 15.02C26.955 15.01 26.795 15 26.755 15.01C26.505 15.04 26.205 15.08 25.945 15.18C25.735 15.67 25.585 16.25 25.385 16.65C25.285 16.86 25.185 17.08 25.085 17.29C25.035 17.4 24.975 17.51 24.955 17.63C24.945 17.69 24.935 17.75 24.905 17.81C24.815 17.99 24.725 18.16 24.635 18.33C24.455 18.68 24.295 19.04 24.155 19.4C24.095 19.55 24.045 19.71 23.995 19.87C23.885 20.23 23.815 20.6 23.705 20.96C23.435 21.85 22.955 22.67 22.315 23.34C21.955 23.72 21.545 24.05 21.235 24.46C21.015 24.75 20.845 25.07 20.605 25.34C20.385 25.59 20.015 25.83 19.955 26.18C19.925 26.33 19.885 26.42 19.805 26.55C19.695 26.72 19.605 26.89 19.525 27.07C19.525 27.07 19.505 27.1 19.515 27.1C19.525 27.18 19.545 27.25 19.565 27.33C19.635 27.55 19.745 27.75 19.895 27.91C19.995 28.02 20.135 28.1 20.235 28.21C20.315 28.29 20.375 28.37 20.445 28.45C20.665 28.68 20.955 28.87 21.245 28.98C21.245 28.98 21.265 28.98 21.275 28.98C21.315 28.99 21.445 28.92 21.485 28.91C21.555 28.88 21.625 28.85 21.685 28.82C21.825 28.76 21.965 28.69 22.095 28.62C22.255 28.53 22.405 28.45 22.565 28.37C22.735 28.29 22.905 28.21 23.065 28.12C23.395 27.95 23.705 27.74 23.965 27.48C24.175 27.27 24.355 27.02 24.565 26.81C24.825 26.55 25.145 26.35 25.415 26.1C25.495 26.03 25.565 25.97 25.625 25.89C25.675 25.82 25.745 25.78 25.825 25.76C25.935 25.73 26.045 25.72 26.145 25.67C26.325 25.58 26.405 25.36 26.545 25.22C26.715 25.06 26.965 25.02 27.145 24.89C27.415 24.7 27.545 24.34 27.845 24.2C28.065 24.1 28.345 24.14 28.545 24C28.715 23.88 28.785 23.66 28.955 23.53C29.175 23.36 29.485 23.39 29.725 23.25C29.975 23.1 30.105 22.79 30.385 22.7C30.535 22.65 30.715 22.68 30.855 22.61C30.955 22.56 31.025 22.45 31.105 22.37C31.195 22.29 31.295 22.23 31.405 22.19C31.505 22.15 31.615 22.14 31.705 22.09C31.945 21.98 32.195 21.86 32.445 21.75C32.455 21.75 32.465 21.74 32.485 21.73C32.905 21.54 33.325 21.34 33.775 21.22C33.695 20.85 33.625 20.47 33.545 20.1L33.555 20.09Z" fill="#6A9C29"/>
</g>
<g opacity="0.55">
<path opacity="0.55" d="M22.6651 25.16C23.0151 24.71 23.3251 24.25 23.6151 23.76C23.6651 23.67 23.7451 23.6 23.7951 23.51C23.9651 23.21 24.0751 22.85 24.1951 22.53C24.3151 22.21 24.4251 21.88 24.5351 21.55C24.9751 20.2 25.3351 18.83 25.8551 17.51C26.2051 16.62 26.6251 15.75 26.9751 14.85C27.0751 14.59 27.1751 14.3 27.0951 14.02C27.0751 13.97 27.0551 13.91 27.0051 13.89C26.9251 13.85 26.8251 13.93 26.7651 14C26.5051 14.33 26.3851 14.76 26.2651 15.17C25.4251 18.08 24.1151 20.82 22.8151 23.55C22.5651 24.07 22.3151 24.6 21.9951 25.07C21.6951 25.52 21.3251 25.91 20.9451 26.29C20.7651 26.47 20.5451 26.63 20.3851 26.83C20.3351 26.89 20.3051 26.95 20.2751 27.01C20.1351 27.24 19.8851 27.42 19.7051 27.61C19.7551 27.69 19.8051 27.77 19.8751 27.85C20.0151 27.75 20.1551 27.65 20.2951 27.55C21.1851 26.86 21.9951 26.05 22.6851 25.16H22.6651Z" fill="url(#paint28_radial_1_1053)"/>
<path opacity="0.55" d="M21.2049 27.45C22.0749 26.68 22.9349 25.9 23.6749 25C24.0349 24.56 24.3649 24.09 24.6449 23.6C24.7849 23.35 24.9049 23.1 25.0149 22.83C25.0649 22.7 25.1249 22.56 25.1649 22.43C25.2449 22.18 25.2649 21.91 25.3349 21.66C25.4149 21.36 25.5049 21.07 25.6149 20.78C25.7949 20.3 26.0049 19.82 26.1949 19.35C26.2749 19.14 26.4249 18.89 26.4349 18.67C26.4549 18.25 26.6349 17.8 26.7849 17.4C27.0249 16.76 27.3249 16.15 27.6649 15.56C27.9049 15.15 28.1649 14.73 28.1749 14.26C27.8449 14.26 27.6349 14.6 27.5049 14.91C26.9649 16.15 26.4349 17.39 25.8949 18.63C25.6349 19.24 25.3649 19.85 25.1349 20.47C25.0149 20.79 24.9049 21.12 24.7949 21.45C24.7449 21.61 24.6949 21.78 24.6549 21.95C24.6149 22.09 24.5549 22.25 24.5549 22.39C24.5449 22.64 24.4849 22.86 24.3949 23.1C24.2049 23.6 23.9049 24.06 23.5849 24.49C22.8949 25.43 22.1049 26.29 21.2249 27.06C20.8349 27.41 20.4249 27.73 20.0049 28.03C20.0749 28.08 20.1349 28.14 20.2049 28.19C20.3249 28.11 20.4449 28.03 20.5549 27.95C20.7749 27.8 21.0049 27.65 21.2049 27.47V27.45Z" fill="url(#paint29_radial_1_1053)"/>
<path opacity="0.55" d="M33.6552 20.54C33.6252 20.39 33.5952 20.24 33.5652 20.09C32.6852 20.29 31.8252 20.59 31.0152 20.96C29.9152 21.46 28.8252 22.52 27.5752 22.6C27.2952 22.75 27.0152 22.88 26.7352 23.02C26.4652 23.16 26.1952 23.3 25.9452 23.47C25.3252 23.88 24.7952 24.42 24.2752 24.95C23.0652 26.18 21.8352 27.42 20.3652 28.32C20.3952 28.36 20.4252 28.4 20.4652 28.43C20.4952 28.46 20.5252 28.49 20.5552 28.51C21.0252 28.18 21.4352 27.76 21.9052 27.43C22.4852 27.03 23.1552 26.77 23.6852 26.31C23.9352 26.09 24.1452 25.84 24.3652 25.6C24.8752 25.05 25.4452 24.57 26.0652 24.14C26.6752 23.71 27.3252 23.33 27.9952 22.99C28.1652 22.9 28.3352 22.83 28.4952 22.74C28.5552 22.71 28.6052 22.65 28.6652 22.62C28.7452 22.57 28.8252 22.53 28.9152 22.48C29.2452 22.3 29.5752 22.13 29.9152 21.97C30.5852 21.64 31.2752 21.35 31.9752 21.09C32.5252 20.89 33.0952 20.7 33.6652 20.54H33.6552Z" fill="url(#paint30_radial_1_1053)"/>
</g>
<path opacity="0.55" d="M33.795 21.22C33.795 21.22 33.785 21.17 33.775 21.14C33.625 21.19 33.485 21.24 33.335 21.29C32.945 21.42 32.545 21.55 32.145 21.67C31.745 21.8 31.355 21.92 30.965 22.06C30.575 22.2 30.185 22.34 29.815 22.51C29.765 22.53 29.715 22.55 29.675 22.57C28.155 23.26 26.815 24.25 25.485 25.25C25.155 25.5 24.825 25.75 24.505 25.99C24.485 26 24.475 26.01 24.455 26.03C24.275 26.16 24.095 26.3 23.935 26.46C23.785 26.61 23.655 26.77 23.495 26.9C23.195 27.15 22.805 27.28 22.455 27.46C22.115 27.63 21.805 27.85 21.515 28.1C21.495 28.12 21.465 28.13 21.435 28.14C21.395 28.15 21.355 28.17 21.325 28.2C21.235 28.25 21.145 28.3 21.045 28.35C20.895 28.43 20.745 28.51 20.605 28.59C20.715 28.68 20.825 28.76 20.945 28.83C21.015 28.78 21.085 28.73 21.165 28.69C21.195 28.67 21.235 28.65 21.265 28.62C21.285 28.6 21.295 28.59 21.325 28.57C21.405 28.53 21.475 28.49 21.555 28.45C21.595 28.43 21.635 28.41 21.665 28.39C21.695 28.38 21.755 28.36 21.765 28.34C22.155 28.14 22.545 27.94 22.935 27.73C23.155 27.62 23.375 27.5 23.575 27.36C23.825 27.18 24.035 26.96 24.265 26.75C24.455 26.57 24.665 26.4 24.875 26.23C25.035 26.11 25.185 25.99 25.355 25.88C25.435 25.83 25.515 25.78 25.585 25.72C25.755 25.58 25.915 25.41 26.085 25.26C26.245 25.12 26.405 24.98 26.575 24.85C27.545 24.1 28.565 23.58 29.635 23.06C29.915 22.9 30.195 22.74 30.475 22.59C30.875 22.38 31.295 22.2 31.725 22.04C32.395 21.72 33.075 21.42 33.785 21.21L33.795 21.22Z" fill="url(#paint31_radial_1_1053)"/>
<path d="M36.2949 10.85C36.2649 10.68 36.2749 10.49 36.1649 10.36C35.9549 10.1 35.5049 10.25 35.2449 10.05C35.1149 9.94999 35.0549 9.79001 34.9649 9.66001C34.8049 9.43001 34.5549 9.26999 34.2749 9.23999C34.1049 9.21999 33.9249 9.23998 33.7549 9.19998C33.4049 9.09998 33.2049 8.70001 32.8549 8.60001C32.5449 8.51001 32.2149 8.67999 31.8949 8.60999C31.5149 8.52999 31.1649 8.13999 30.8149 8.29999C30.6349 8.38999 30.5349 8.60998 30.3449 8.66998C30.0949 8.75998 29.8349 8.55001 29.5749 8.57001C29.3149 8.59001 29.1649 8.82001 29.0849 9.04001C29.0449 9.15001 29.0349 9.30001 28.9749 9.41001C28.9549 9.45001 28.9149 9.47999 28.8849 9.51999C28.6749 9.76999 28.5049 10.05 28.2649 10.29C28.0449 10.51 27.7949 10.71 27.6849 11C27.5449 11.38 27.6849 11.8 27.8449 12.17C28.0449 12.66 28.2549 13.18 28.6949 13.48C28.9149 13.63 29.1849 13.72 29.4149 13.86C29.9049 14.15 30.2249 14.65 30.5949 15.09C30.9649 15.53 31.4549 15.94 32.0249 15.92C32.5449 15.91 33.0049 15.55 33.5149 15.52C34.2849 15.48 35.1049 16.16 35.7549 15.74C35.9249 15.63 36.0449 15.46 36.2049 15.34C36.4449 15.17 36.7549 15.13 36.9949 14.97C37.1649 14.86 37.2949 14.69 37.3649 14.5C37.3949 14.41 37.4249 14.32 37.4249 14.22C37.4249 14.16 37.4149 14.1 37.4249 14.03C37.4549 13.73 37.7749 13.55 37.7749 13.24C37.7749 12.9 37.3249 12.69 37.3049 12.35C37.3049 12.23 37.3549 12.11 37.3449 11.99C37.3249 11.51 36.5349 11.47 36.3349 11.04C36.3049 10.98 36.2949 10.93 36.2849 10.86L36.2949 10.85Z" fill="url(#paint32_radial_1_1053)"/>
<path d="M34.1953 18.91C33.7653 18.91 32.6753 18.34 32.2953 18.88C31.9853 19.31 32.4153 19.6 32.4753 20.01C32.5453 20.52 31.8853 20.99 32.0853 21.46C32.2053 21.73 32.5753 21.87 32.6053 22.16C32.6253 22.37 32.4553 22.55 32.4553 22.76C32.4553 23.02 32.6753 23.22 32.9053 23.34C33.1353 23.46 33.3953 23.54 33.5553 23.75C33.7253 23.97 33.7453 24.28 33.9353 24.47C34.3153 24.86 34.9653 24.63 35.3853 24.96C35.5953 25.13 35.7753 25.35 36.0153 25.47C36.2553 25.59 36.6153 25.57 36.7353 25.32C36.7653 25.26 36.7753 25.19 36.8253 25.14C36.8853 25.07 36.9853 25.05 37.0653 25.02C37.3153 24.94 37.5353 24.75 37.6453 24.51C37.7153 24.36 37.7153 24.29 37.8553 24.19C37.9953 24.09 38.1353 24 38.2753 23.9C38.5453 23.7 38.7953 23.38 38.7253 23.05C38.6953 22.91 38.6153 22.78 38.6153 22.64C38.6153 22.47 38.7353 22.32 38.8253 22.17C39.0753 21.8 39.1853 21.23 38.8453 20.94C38.7453 20.86 38.6153 20.8 38.5353 20.7C38.4253 20.55 38.4653 20.34 38.4653 20.16C38.4553 19.82 38.2353 19.52 37.9453 19.36C37.7853 19.27 37.6453 19.27 37.4653 19.25C37.3053 19.23 37.2153 19.14 37.0753 19.04C36.7453 18.81 36.4053 18.63 36.0053 18.58C35.3753 18.5 34.8353 18.91 34.2153 18.9L34.1953 18.91Z" fill="url(#paint33_radial_1_1053)"/>
<path d="M28.8453 9.32997C28.8453 9.32997 28.7953 9.22998 28.7653 9.17998C28.6453 8.98998 28.4852 8.80999 28.2653 8.74999C27.8153 8.62999 27.3353 9.04998 26.8953 8.86998C26.6353 8.76998 26.4353 8.45999 26.1553 8.50999C25.9753 8.54999 25.8653 8.72997 25.6953 8.79997C25.2553 8.99997 24.7153 8.39998 24.2953 8.64998C24.1853 8.70998 24.1653 8.79999 24.0853 8.87999C24.0253 8.92999 23.9553 8.96998 23.8853 8.98998C23.7253 9.03998 23.5553 9.04997 23.3853 9.04997C23.0853 9.04997 22.7153 9.14999 22.6753 9.43999C22.6653 9.53999 22.6853 9.63998 22.6753 9.73998C22.6253 10.15 21.9853 10.2 21.8053 10.58C21.6753 10.85 21.8253 11.18 21.6953 11.45C21.6153 11.62 21.4453 11.73 21.3653 11.9C21.1853 12.25 21.4553 12.67 21.4153 13.05C21.3953 13.21 21.3253 13.37 21.3653 13.53C21.4453 13.82 21.8353 13.88 22.0353 14.11C22.1853 14.29 22.2053 14.57 22.3853 14.72C22.5453 14.86 22.7953 14.86 22.9853 14.97C23.2253 15.11 23.3353 15.41 23.5753 15.55C23.6753 15.61 23.7953 15.63 23.9153 15.65C24.1753 15.7 24.4353 15.75 24.6953 15.8C24.9253 15.84 25.1853 15.86 25.3853 15.98C25.6753 16.17 26.0553 15.87 26.3353 16.07C26.4453 16.15 26.5153 16.3 26.6453 16.31C26.7353 16.32 26.8053 16.27 26.8953 16.24C27.2753 16.11 27.7053 16.5 28.0853 16.35C28.3053 16.26 28.4353 16.01 28.6753 15.97C28.8853 15.94 29.1153 16.09 29.3053 16C29.4753 15.92 29.5153 15.68 29.6653 15.57C29.8353 15.45 30.0753 15.51 30.2553 15.41C30.4353 15.32 30.4753 15.11 30.6053 14.97C30.6853 14.88 30.7953 14.84 30.8753 14.75C30.9853 14.63 31.0553 14.45 31.0453 14.29C31.0453 14.11 30.9253 13.97 30.8853 13.8C30.8353 13.57 30.9653 13.35 31.0753 13.14C31.1853 12.93 31.2653 12.67 31.1453 12.47C31.0553 12.33 30.8953 12.26 30.8153 12.11C30.6753 11.85 30.8853 11.5 30.7453 11.23C30.6753 11.1 30.5353 11.03 30.4053 10.98C30.3453 10.96 30.2853 10.94 30.2353 10.92C30.1053 10.86 29.9653 10.85 29.8253 10.81C29.5953 10.75 29.5553 10.69 29.4853 10.47C29.4053 10.22 29.2953 9.97999 29.1553 9.75999C29.0853 9.64999 28.9953 9.55999 28.9353 9.43999C28.9153 9.38999 28.8853 9.33999 28.8653 9.28999L28.8453 9.32997Z" fill="url(#paint34_radial_1_1053)"/>
<path d="M32.7351 14.69C32.7351 14.69 32.6751 14.72 32.6551 14.74C32.3851 14.98 32.6851 15.44 32.3451 15.64C32.2251 15.71 32.0751 15.76 32.0051 15.89C31.8951 16.1 32.0851 16.34 32.0951 16.58C32.0951 16.97 31.5851 17.34 31.8051 17.66C31.8751 17.76 31.9951 17.81 32.0751 17.91C32.2951 18.2 31.9751 18.72 32.2651 18.93C32.3451 18.99 32.4551 19 32.5451 19.05C32.9151 19.24 32.9051 19.88 33.2951 20C33.4451 20.04 33.6051 20 33.7551 20.02C34.2351 20.12 34.3851 20.95 34.8651 20.88C34.9951 20.86 35.1151 20.77 35.2451 20.77C35.4751 20.77 35.6651 21.08 35.8751 20.98C35.9751 20.93 36.0151 20.81 36.1051 20.75C36.2451 20.65 36.4251 20.72 36.5751 20.75C36.6551 20.77 36.7351 20.79 36.8251 20.78C36.9451 20.76 37.0151 20.67 37.1051 20.59C37.2851 20.45 37.4651 20.45 37.6751 20.43C37.7851 20.42 37.8851 20.38 37.9751 20.32C38.1051 20.24 38.1451 20.11 38.2251 19.98C38.2251 19.97 38.2451 19.95 38.2551 19.94C38.3951 19.75 38.6451 19.67 38.7851 19.48C38.9151 19.3 38.9251 19.03 39.1051 18.9C39.1951 18.83 39.3051 18.81 39.3851 18.74C39.5451 18.62 39.5751 18.4 39.5751 18.2C39.5751 18 39.5351 17.8 39.6151 17.61C39.6851 17.45 39.8251 17.29 39.7851 17.12C39.7551 17.01 39.6551 16.93 39.6051 16.83C39.5251 16.67 39.5851 16.47 39.5951 16.29C39.6151 15.86 39.0351 15.74 38.8751 15.4C38.8051 15.24 38.8051 15.08 38.6951 14.93C38.6151 14.82 38.5251 14.71 38.4351 14.62C38.3551 14.54 38.2751 14.5 38.1651 14.49C38.0351 14.48 37.8951 14.52 37.7651 14.49C37.4851 14.41 37.4151 13.99 37.1051 13.97C37.0051 13.97 36.9151 14.01 36.8251 14.03C36.6051 14.08 36.3951 14.02 36.2051 13.92C36.1551 13.89 36.1151 13.86 36.0551 13.86C35.9951 13.86 35.9251 13.89 35.8651 13.88C35.7351 13.88 35.6051 13.82 35.4851 13.77C35.2751 13.68 34.9951 13.53 34.7951 13.71C34.7251 13.77 34.6951 13.86 34.6251 13.92C34.3351 14.19 33.7851 13.76 33.4751 14.02C33.3051 14.16 33.3151 14.45 33.1351 14.58C33.0251 14.66 32.8751 14.66 32.7551 14.71L32.7351 14.69Z" fill="url(#paint35_radial_1_1053)"/>
<path d="M26.0751 18.54C26.0951 18.63 26.1351 18.72 26.1951 18.8C26.4251 19.07 26.8751 19.02 27.1651 19.22C27.5951 19.52 27.5851 20.32 28.0951 20.44C28.2551 20.48 28.4351 20.43 28.5951 20.49C28.8651 20.59 28.9951 20.92 29.2651 21.06C29.4751 21.16 29.6551 21.17 29.8751 21.12C30.0651 21.08 30.2251 21.05 30.4151 21.12C30.6751 21.21 30.9051 21.39 31.1951 21.32C31.6051 21.22 31.8251 20.65 32.2551 20.66C32.4651 20.66 32.6651 20.82 32.8751 20.81C33.1851 20.8 33.3751 20.48 33.4451 20.18C33.5251 19.88 33.5551 19.55 33.7651 19.34C33.8851 19.22 34.0351 19.15 34.1651 19.05C34.4251 18.84 34.5251 18.48 34.4651 18.15C34.4351 17.99 34.3651 17.83 34.2651 17.71C34.2151 17.65 34.1451 17.62 34.1051 17.57C33.9951 17.44 33.9251 17.25 33.8251 17.1C33.6751 16.87 33.5051 16.66 33.2951 16.48C33.1351 16.34 32.9551 16.22 32.8651 16.03C32.7951 15.88 32.7951 15.72 32.7551 15.56C32.6551 15.21 32.3451 14.94 31.9851 14.89C31.7751 14.86 31.5451 14.91 31.3651 14.8C31.1551 14.68 31.0851 14.41 30.9851 14.19C30.7951 13.76 30.4251 13.43 29.9951 13.25C29.8451 13.19 29.6951 13.19 29.5451 13.14C29.4351 13.1 29.3351 13.01 29.2251 12.96C29.0051 12.86 28.7551 12.82 28.5151 12.83C28.0351 12.85 27.5451 13.07 27.2751 13.48C27.2051 13.58 27.1451 13.7 27.0251 13.75C26.9051 13.8 26.7751 13.75 26.6451 13.73C26.2651 13.65 25.8651 13.69 25.5151 13.86C25.3251 13.95 25.1451 14.11 25.1451 14.31C25.1451 14.46 25.2651 14.6 25.2751 14.75C25.2951 15.06 24.9051 15.23 24.7851 15.51C24.6951 15.71 24.7751 15.96 24.7451 16.17C24.7251 16.33 24.7251 16.48 24.7651 16.63C24.8351 16.92 25.0251 17.19 25.2851 17.34C25.4851 17.46 25.7251 17.52 25.8651 17.71C26.0351 17.94 25.9851 18.27 26.0551 18.54H26.0751Z" fill="url(#paint36_radial_1_1053)"/>
<path d="M32.5151 10.33C32.2051 10.16 31.7551 10.12 31.5351 10.41C31.4451 10.52 31.4051 10.68 31.2851 10.75C31.1551 10.83 30.9851 10.79 30.8351 10.78C30.3851 10.74 29.9151 11.02 29.7651 11.44C29.6151 11.86 29.8251 12.4 30.2451 12.57C30.6651 12.74 31.2251 12.57 31.5551 12.89C31.7451 13.07 31.8051 13.38 32.0251 13.52C32.2751 13.68 32.6051 13.57 32.8951 13.62C33.4451 13.71 33.7351 14.34 34.2451 14.56C34.6351 14.73 35.1251 14.63 35.4151 14.31C35.6351 14.06 35.6851 14.14 35.9851 14.17C36.1751 14.19 36.3351 14.07 36.4151 13.9C36.6351 13.47 36.2251 12.94 36.0751 12.54C35.8151 11.85 35.6451 10.86 34.8551 10.58C34.3951 10.42 33.6151 10.39 33.3851 10.91C33.0551 10.81 32.8051 10.49 32.5051 10.33H32.5151Z" fill="#3C6B30"/>
<path d="M25.555 10.27C25.395 10.34 25.225 10.24 25.075 10.15C24.415 9.75999 23.455 9.67999 22.985 10.28C22.855 10.44 22.785 10.67 22.875 10.85C22.915 10.92 22.975 10.98 23.015 11.05C23.125 11.23 23.095 11.47 23.055 11.68C22.975 12.08 22.895 12.48 22.985 12.88C23.075 13.27 23.395 13.65 23.795 13.66C23.945 13.66 24.105 13.62 24.245 13.66C24.625 13.78 24.615 14.39 24.975 14.55C25.235 14.67 25.545 14.48 25.825 14.55C26.065 14.61 26.215 14.84 26.395 15C26.815 15.37 27.445 15.39 27.985 15.23C28.325 15.13 28.675 14.95 28.805 14.62C28.935 14.29 28.725 13.83 28.365 13.84C28.865 13.51 28.975 12.73 28.585 12.28C28.325 11.98 28.045 11.84 28.065 11.4C28.085 11.06 28.135 10.73 28.005 10.39C27.775 9.77998 27.065 9.58 26.465 9.63C26.275 9.65 26.085 9.7 25.935 9.82C25.785 9.94 25.715 10.17 25.545 10.24L25.555 10.27Z" fill="#3C6B30"/>
<path d="M33.3851 17.88C33.4351 17.83 33.4951 17.78 33.5451 17.73C33.7751 17.5 33.8551 17.13 33.7551 16.82C33.6751 16.59 33.4951 16.36 33.5651 16.13C33.6051 15.99 33.7351 15.88 33.7651 15.74C33.8251 15.47 33.5151 15.26 33.4051 15.01C33.3651 14.91 33.3451 14.79 33.2851 14.7C33.1951 14.55 33.0251 14.49 32.8651 14.46C32.6751 14.43 32.5751 14.44 32.4051 14.52C32.2051 14.62 31.9651 14.54 31.7851 14.42C31.6051 14.3 31.4451 14.14 31.2551 14.03C31.0651 13.93 30.8051 13.9 30.6351 14.03C30.5551 14.1 30.5051 14.2 30.4151 14.25C30.2051 14.38 29.8551 14.22 29.7451 14.44C29.6851 14.56 29.7651 14.71 29.7651 14.84C29.7651 15.1 29.4951 15.26 29.2551 15.34C29.0151 15.42 28.7351 15.46 28.5851 15.67C28.4551 15.85 28.4351 16.13 28.2251 16.2C28.0051 16.28 27.8051 16.05 27.5851 15.98C27.3551 15.91 27.0751 16.03 26.9851 16.26C26.9551 16.33 26.9351 16.4 26.8751 16.44C26.8051 16.48 26.7151 16.44 26.6351 16.44C26.4351 16.42 26.2751 16.63 26.2851 16.83C26.2951 17.03 26.4451 17.2 26.6151 17.29C26.7851 17.39 26.9851 17.43 27.1751 17.48C27.2251 17.49 27.2851 17.51 27.3251 17.55C27.3751 17.6 27.3851 17.67 27.3951 17.73C27.4351 17.99 27.4951 18.28 27.6951 18.44C27.9351 18.63 28.2751 18.59 28.5451 18.74C28.7751 18.87 28.9051 19.11 29.1051 19.28C29.3051 19.45 29.6551 19.51 29.7951 19.28C29.8451 19.41 29.9451 19.51 30.0651 19.58C30.1251 19.61 30.1851 19.64 30.2551 19.65C30.3151 19.66 30.3351 19.65 30.3851 19.62C30.5951 19.54 30.7851 19.81 30.9851 19.82C31.0851 19.82 31.1851 19.76 31.2851 19.76C31.5851 19.75 31.7851 20.2 32.0751 20.13C32.3751 20.06 32.3651 19.54 32.6651 19.47C32.7351 19.46 32.8151 19.47 32.8751 19.44C32.9251 19.41 32.9651 19.36 32.9951 19.3C33.1251 19.05 33.1951 18.78 33.2051 18.5C33.2051 18.31 33.2051 18.1 33.2951 17.94C33.3151 17.91 33.3351 17.88 33.3551 17.86L33.3851 17.88Z" fill="#3C6B30"/>
<path d="M37.095 23.33C37.135 23.19 37.125 23.03 37.205 22.91C37.245 22.85 37.315 22.8 37.365 22.74C37.455 22.63 37.465 22.49 37.485 22.35C37.485 22.31 37.485 22.27 37.475 22.23C37.445 22.17 37.355 22.16 37.305 22.11C37.235 22.05 37.245 21.93 37.305 21.85C37.355 21.77 37.425 21.71 37.485 21.64C37.545 21.56 37.555 21.48 37.585 21.39C37.675 21.13 37.615 20.86 37.465 20.63C37.395 20.52 37.315 20.43 37.215 20.36C37.115 20.28 37.105 20.13 37.125 20.02C37.155 19.88 37.205 19.74 37.185 19.61C37.175 19.53 37.125 19.46 37.135 19.38C37.155 19.2 37.385 19.15 37.495 19.01C37.665 18.81 37.555 18.45 37.775 18.3C37.855 18.24 37.945 18.23 38.035 18.2C38.235 18.12 38.375 17.92 38.375 17.7C38.375 17.34 38.015 17.08 37.885 16.74C37.855 16.67 37.845 16.59 37.815 16.51C37.795 16.43 37.755 16.36 37.725 16.28C37.725 16.25 37.725 16.24 37.725 16.21C37.725 16.15 37.705 16.08 37.685 16.02C37.645 15.9 37.565 15.79 37.475 15.71C37.285 15.54 37.025 15.44 36.775 15.51C36.655 15.54 36.545 15.6 36.425 15.59C36.215 15.59 36.045 15.42 35.875 15.3C35.815 15.26 35.735 15.24 35.665 15.23C35.515 15.2 35.365 15.21 35.215 15.26C34.995 15.35 34.835 15.57 34.845 15.8C34.845 15.89 34.885 15.98 34.895 16.08C34.915 16.23 34.875 16.4 34.785 16.52C34.665 16.69 34.445 16.87 34.535 17.05C34.575 17.13 34.655 17.17 34.725 17.23C34.865 17.35 34.905 17.56 34.865 17.74C34.825 17.92 34.705 18.07 34.555 18.19C34.455 18.27 34.325 18.33 34.265 18.45C34.215 18.54 34.225 18.65 34.225 18.75C34.225 19.09 34.215 19.45 33.985 19.7C33.885 19.81 33.755 19.89 33.675 20.01C33.515 20.24 33.595 20.6 33.835 20.74C33.725 20.77 33.725 20.95 33.815 21.02C33.905 21.09 34.025 21.11 34.135 21.15C34.215 21.18 34.345 21.25 34.345 21.35C34.345 21.39 34.325 21.44 34.315 21.48C34.305 21.55 34.285 21.61 34.265 21.68C34.195 21.88 34.105 22.12 34.225 22.3C34.345 22.47 34.605 22.49 34.725 22.66C34.805 22.78 34.795 22.94 34.805 23.09C34.835 23.43 35.095 23.79 35.425 23.75C35.515 23.75 35.595 23.7 35.685 23.7C35.825 23.7 35.945 23.8 36.085 23.85C36.215 23.91 36.405 23.9 36.455 23.76C36.475 23.72 36.475 23.67 36.505 23.64C36.545 23.6 36.615 23.61 36.675 23.61C36.735 23.61 36.775 23.6 36.825 23.58C36.955 23.55 37.035 23.46 37.065 23.33H37.095Z" fill="#3C6B30"/>
<path d="M26.2753 11.63C26.2553 11.78 26.0853 11.86 26.0653 12.01C26.0353 12.16 26.1653 12.37 26.0653 12.48C26.0253 12.52 25.9553 12.53 25.9153 12.57C25.7153 12.7 25.8553 13.07 25.6753 13.22C25.6153 13.26 25.5453 13.28 25.4753 13.31C25.3453 13.37 25.2653 13.49 25.1553 13.58C25.0553 13.67 24.8953 13.74 24.7453 13.68C24.6853 13.66 24.6353 13.6 24.6353 13.55C24.6353 13.45 24.7953 13.47 24.8753 13.43C24.9953 13.37 24.9653 13.18 25.0653 13.09C25.1353 13.03 25.2553 13.04 25.3153 12.98C25.3953 12.9 25.3453 12.74 25.3653 12.63C25.4153 12.39 25.7753 12.33 25.8053 12.09C25.8153 11.98 25.7553 11.86 25.8053 11.76C25.8253 11.72 25.8553 11.69 25.8553 11.65C25.8553 11.59 25.7853 11.54 25.7253 11.49C25.5153 11.31 25.4953 11.01 25.4453 10.78C25.4253 10.65 25.3653 10.49 25.3753 10.37C25.3753 10.32 25.4053 10.3 25.4653 10.3C25.5953 10.31 25.7453 10.45 25.7953 10.56C25.8353 10.65 25.8053 10.73 25.8153 10.82C25.8153 10.93 25.8653 11.03 25.9353 11.12C26.0553 11.27 26.3053 11.44 26.2753 11.64V11.63Z" fill="#33532C"/>
<path d="M32.4149 10.98C32.3249 11.12 32.4649 11.31 32.4149 11.47C32.3749 11.61 32.2049 11.69 32.2049 11.84C32.2049 11.87 32.2049 11.9 32.2049 11.93C32.2049 12.03 32.1449 12.12 32.0849 12.21C31.9749 12.37 31.8749 12.54 31.7949 12.72C31.7749 12.76 31.7649 12.8 31.7749 12.84C31.7749 12.86 31.7949 12.88 31.8049 12.9L31.9449 13.09C31.9449 13.09 31.9649 13.12 31.9849 13.13C32.0149 13.14 32.0549 13.13 32.0749 13.1C32.2249 12.95 32.1549 12.69 32.2649 12.51C32.3249 12.4 32.4449 12.33 32.4849 12.22C32.4949 12.17 32.4949 12.13 32.5149 12.08C32.5549 11.9 32.7549 11.79 32.8049 11.61C32.8049 11.57 32.8149 11.53 32.8249 11.5C32.8449 11.46 32.8749 11.42 32.9049 11.38C32.9849 11.26 32.9449 11.06 32.8249 10.97C32.7249 10.9 32.4949 10.88 32.4149 10.99V10.98Z" fill="#33532C"/>
<path d="M32.9453 11.9C32.8953 11.96 32.8553 12.04 32.8853 12.11C32.9153 12.2 33.0353 12.23 33.1253 12.21C33.2153 12.19 33.3053 12.14 33.3953 12.12C33.5753 12.08 33.7653 12.18 33.8453 12.34C33.9753 12.27 34.1353 12.27 34.2653 12.34C34.3353 12.39 34.3953 12.45 34.4653 12.51C34.6153 12.64 34.8053 12.71 34.9953 12.78C35.1253 12.83 35.2753 12.87 35.3853 12.8C35.4653 12.75 35.5053 12.66 35.5553 12.58C35.6053 12.5 35.6853 12.43 35.7753 12.45C35.8253 12.46 35.8753 12.5 35.9253 12.49C35.9653 12.49 35.9953 12.45 36.0153 12.42C36.0653 12.32 36.0353 12.18 35.9453 12.11C35.8553 12.04 35.7153 12.05 35.6253 12.12C35.5553 12.18 35.4953 12.3 35.4053 12.28C35.3753 12.28 35.3453 12.25 35.3153 12.25C35.1953 12.23 35.1653 12.43 35.0553 12.5C34.8953 12.5 34.7353 12.43 34.6353 12.3C34.5753 12.22 34.5053 12.1 34.4053 12.13C34.3753 12.13 34.3453 12.16 34.3053 12.16C34.2653 12.16 34.2453 12.13 34.2153 12.1C34.0553 11.94 33.8453 11.87 33.6253 11.81C33.4753 11.77 33.3753 11.71 33.2153 11.74C33.1053 11.76 33.0053 11.81 32.9353 11.9H32.9453Z" fill="#33532C"/>
<path d="M35.5953 16.56C35.7253 16.63 35.8653 16.76 35.9953 16.7C36.0353 16.68 36.0653 16.65 36.1053 16.64C36.2253 16.6 36.3153 16.73 36.4353 16.77C36.5753 16.81 36.7453 16.71 36.8653 16.79C36.9153 16.82 36.9453 16.87 36.9953 16.89C37.0853 16.92 37.1653 16.85 37.2553 16.82C37.3753 16.77 37.5353 16.81 37.6253 16.91C37.6953 16.98 37.7253 17.08 37.7653 17.17C37.8053 17.26 37.8853 17.35 37.9853 17.36C37.9453 17.48 37.8753 17.62 37.7453 17.63C37.6453 17.63 37.5753 17.56 37.5053 17.49C37.3753 17.37 37.2253 17.26 37.0753 17.18C37.0053 17.14 36.9353 17.11 36.8553 17.13C36.7953 17.14 36.7353 17.19 36.6753 17.2C36.5653 17.22 36.4653 17.14 36.3553 17.11C36.2253 17.08 36.0853 17.14 35.9653 17.09C35.8853 17.05 35.8253 16.97 35.7453 16.95C35.6853 16.93 35.6153 16.95 35.5453 16.98C35.4253 17.02 35.2953 17.07 35.1753 17.11C35.0553 17.15 34.9053 17.19 34.8153 17.09C34.6753 16.94 34.8653 16.79 34.9653 16.7C35.0653 16.61 35.1653 16.55 35.3053 16.53C35.4053 16.51 35.5053 16.53 35.5953 16.57V16.56Z" fill="#33532C"/>
<path d="M35.0351 19.29C35.1151 19.43 34.9751 19.64 35.1051 19.74C35.1551 19.78 35.2251 19.78 35.2751 19.81C35.4051 19.89 35.3651 20.12 35.4851 20.21C35.5351 20.25 35.5951 20.26 35.6451 20.29C35.7251 20.34 35.7551 20.44 35.8151 20.51C35.8951 20.62 36.0151 20.68 36.1251 20.74C36.3051 20.83 36.5051 20.93 36.6951 20.86C36.8951 20.79 36.9851 20.57 37.0551 20.37C37.0651 20.34 37.0751 20.31 37.0551 20.28C37.0351 20.24 36.9851 20.23 36.9651 20.19C36.9351 20.14 36.9651 20.06 36.9251 20.02C36.9051 20 36.8651 20.01 36.8451 20.02C36.7151 20.07 36.6551 20.24 36.5251 20.26C36.4051 20.29 36.2851 20.18 36.1651 20.16C36.0851 20.15 35.9951 20.18 35.9151 20.16C35.7751 20.12 35.7151 19.96 35.6651 19.82C35.6051 19.64 35.5151 19.47 35.3951 19.31C35.2951 19.18 35.1851 19.05 35.1051 18.91C35.0651 18.84 35.0251 18.77 35.0051 18.7C34.9851 18.65 34.9851 18.6 34.9351 18.58C34.7651 18.49 34.5451 18.75 34.5951 18.9C34.6251 18.99 34.6951 19.07 34.7751 19.13C34.8551 19.18 34.9751 19.2 35.0251 19.29H35.0351Z" fill="#33532C"/>
<path d="M30.7349 17.78C30.7349 17.78 30.6649 17.81 30.6449 17.84C30.6149 17.87 30.6049 17.89 30.5949 17.92C30.5649 17.98 30.5149 18.05 30.4449 18.07C30.4249 18.07 30.4149 18.07 30.3949 18.09C30.3349 18.13 30.3749 18.23 30.3349 18.29C30.2949 18.35 30.2149 18.34 30.1649 18.38C30.0849 18.44 30.1049 18.57 30.0449 18.64C29.9849 18.7 29.8649 18.69 29.8149 18.77C29.7749 18.83 29.7849 18.91 29.7349 18.96C29.6849 19 29.6149 18.98 29.5549 19.01C29.4649 19.06 29.4749 19.21 29.3849 19.27C29.3449 19.3 29.2849 19.3 29.2449 19.27C29.2049 19.24 29.1849 19.18 29.1949 19.13C29.2149 19.06 29.2849 19.02 29.2949 18.95C29.2949 18.92 29.2949 18.88 29.3149 18.85C29.3349 18.81 29.3849 18.79 29.4249 18.76C29.5249 18.68 29.5449 18.53 29.6449 18.45C29.7449 18.36 29.9049 18.34 29.9349 18.21C29.9349 18.18 29.9349 18.15 29.9449 18.12C29.9649 18.08 30.0049 18.05 30.0349 18.02C30.1249 17.95 30.1849 17.83 30.1749 17.71C30.1749 17.68 30.1649 17.64 30.1749 17.61C30.1749 17.57 30.2149 17.54 30.2349 17.5C30.2549 17.44 30.2349 17.36 30.1749 17.33C30.1549 17.32 30.1249 17.31 30.1149 17.29C30.1149 17.28 30.1149 17.26 30.1149 17.24C30.1149 17.15 30.0549 17.06 29.9649 17.02C29.9349 17.01 29.9049 17 29.8749 16.98C29.8449 16.97 29.8249 16.94 29.8049 16.92C29.7449 16.84 29.6849 16.77 29.5949 16.71C29.5149 16.66 29.4249 16.64 29.3449 16.6C29.1849 16.53 29.0549 16.41 28.9649 16.26C28.9149 16.18 28.8849 16.1 28.8649 16.02C28.8549 15.96 28.8149 15.82 28.8449 15.76C28.8649 15.73 28.9249 15.71 28.9649 15.68C28.9949 15.65 29.0249 15.62 29.0649 15.6C29.1249 15.58 29.1749 15.63 29.1949 15.68C29.2749 15.83 29.2549 16.02 29.3849 16.14C29.5349 16.28 29.7549 16.32 29.8849 16.48C29.9349 16.55 29.9649 16.63 30.0349 16.69C30.2049 16.85 30.4849 16.76 30.6949 16.86C30.8049 16.92 30.8949 17.03 31.0149 17.05C31.1649 17.07 31.3049 16.93 31.4649 16.94C31.6849 16.96 31.8149 17.28 32.0349 17.26C32.1749 17.25 32.2849 17.1 32.4249 17.1C32.4949 17.1 32.5649 17.14 32.6349 17.11C32.7449 17.07 32.7649 16.88 32.8849 16.86C32.9449 16.85 33.0049 16.89 33.0649 16.89C33.1849 16.89 33.2349 16.72 33.3449 16.66C33.4749 16.58 33.6949 16.74 33.6249 16.89C33.6049 16.94 33.5949 17.01 33.5649 17.06C33.5349 17.11 33.4649 17.14 33.4149 17.13C33.3949 17.13 33.3749 17.11 33.3549 17.11C33.2549 17.11 33.2349 17.3 33.1349 17.3C33.1049 17.3 33.0849 17.28 33.0549 17.27C32.9649 17.24 32.8749 17.3 32.8149 17.38C32.7949 17.4 32.7849 17.42 32.7649 17.43C32.7049 17.46 32.6249 17.41 32.5549 17.43C32.4749 17.45 32.4349 17.55 32.3549 17.55C32.3049 17.55 32.2649 17.51 32.2149 17.5C32.1149 17.49 32.0349 17.61 31.9349 17.61C31.8749 17.61 31.8249 17.57 31.7749 17.55C31.7249 17.53 31.6449 17.55 31.6349 17.6C31.5949 17.6 31.5849 17.54 31.5449 17.53C31.5149 17.53 31.4949 17.53 31.4649 17.55C31.4149 17.57 31.3549 17.57 31.3049 17.55C31.2849 17.54 31.2549 17.52 31.2449 17.5C31.2449 17.49 31.2349 17.48 31.2149 17.47C31.1949 17.47 31.1749 17.46 31.1549 17.46C31.1049 17.46 31.0349 17.48 31.0149 17.53C31.0149 17.55 31.0149 17.58 30.9949 17.6C30.9649 17.63 30.9149 17.63 30.8849 17.65C30.8549 17.68 30.8549 17.74 30.8149 17.76C30.7949 17.77 30.7849 17.77 30.7649 17.78H30.7349Z" fill="#33532C"/>
<path d="M35.9851 20.83C35.9851 20.83 35.8951 20.89 35.8351 20.89C35.8051 20.89 35.7651 20.89 35.7351 20.89C35.6551 20.9 35.5951 20.99 35.5751 21.07C35.5451 21.15 35.5251 21.24 35.4651 21.3C35.3451 21.4 35.1351 21.34 35.0251 21.46C34.9251 21.56 34.9551 21.76 34.8251 21.82C34.7851 21.84 34.7251 21.84 34.6951 21.87C34.6251 21.94 34.6951 22.05 34.6551 22.14C34.6251 22.22 34.5251 22.26 34.6051 22.35C34.6451 22.4 34.7151 22.42 34.7651 22.37C34.8151 22.31 34.8351 22.25 34.8951 22.2C34.9351 22.16 34.9851 22.13 35.0451 22.11C35.1451 22.06 35.2651 22.01 35.2951 21.89C35.3051 21.85 35.2951 21.81 35.3251 21.77C35.3651 21.69 35.4751 21.7 35.5651 21.67C35.6751 21.63 35.7551 21.53 35.8151 21.44C35.9251 21.29 36.0351 21.14 36.1351 20.99C36.1651 20.95 36.2051 20.9 36.2551 20.89C36.3651 20.87 36.4351 21.01 36.4251 21.11C36.4251 21.22 36.3751 21.33 36.4251 21.43C36.4651 21.5 36.5451 21.56 36.5451 21.64C36.5451 21.7 36.5051 21.74 36.4851 21.79C36.4151 21.96 36.5551 22.18 36.4451 22.32C36.4251 22.35 36.3851 22.37 36.3751 22.4C36.3651 22.43 36.3751 22.47 36.3751 22.5C36.4051 22.64 36.4251 22.77 36.4551 22.91C36.4551 22.94 36.4651 22.97 36.4851 23C36.5351 23.05 36.6251 23.02 36.6851 23.05C36.7451 23.07 36.7751 23.13 36.8351 23.16C36.9151 23.19 37.0051 23.13 37.0551 23.05C37.1051 22.97 37.1251 22.88 37.1951 22.82C37.1951 22.77 37.1451 22.74 37.0851 22.74C36.9851 22.74 36.8951 22.77 36.8251 22.68C36.7851 22.63 36.7851 22.57 36.8151 22.52C36.8551 22.44 36.9251 22.37 36.9751 22.3C37.0151 22.24 37.0551 22.16 37.0051 22.09C36.9851 22.06 36.9451 22.04 36.9251 22.02C36.8751 21.95 36.9051 21.85 36.9451 21.78C36.9851 21.71 37.0451 21.63 37.0351 21.55C37.0251 21.47 36.9551 21.42 36.8951 21.37C36.8651 21.34 36.8451 21.32 36.8251 21.28C36.7951 21.21 36.7351 21.17 36.6951 21.11C36.6551 21.05 36.6551 20.98 36.6451 20.91C36.6151 20.76 36.5151 20.63 36.3851 20.55C36.3351 20.52 36.2751 20.48 36.2151 20.49C36.1251 20.49 36.1351 20.6 36.1151 20.67C36.1051 20.71 36.0751 20.76 36.0451 20.8C36.0251 20.83 36.0051 20.86 35.9751 20.88L35.9851 20.83Z" fill="#33532C"/>
<path d="M27.1152 11.39C27.1152 11.39 27.0552 11.44 27.0052 11.45C26.9252 11.45 26.8552 11.38 26.7752 11.37C26.6952 11.37 26.6452 11.43 26.5752 11.46C26.4352 11.51 26.1952 11.4 26.1352 11.53C26.1152 11.57 26.1252 11.63 26.1352 11.68C26.1352 11.78 26.0952 11.88 26.0652 11.97C25.9752 12.18 25.8952 12.39 25.8052 12.6C25.7752 12.68 25.7352 12.77 25.7452 12.87C25.7452 12.97 25.8252 13.07 25.9252 13.1C25.9752 13.11 26.0352 13.1 26.0852 13.11C26.2852 13.15 26.3552 13.4 26.5152 13.53C26.6652 13.66 26.9052 13.68 27.0352 13.83C27.1552 13.96 27.1952 14.19 27.3652 14.2C27.4052 14.2 27.4452 14.18 27.4952 14.18C27.6452 14.18 27.7652 14.35 27.8852 14.46C27.9752 14.55 28.0952 14.61 28.2052 14.67C28.3152 14.73 28.4352 14.78 28.5352 14.74C28.6152 14.71 28.6452 14.62 28.6252 14.54C28.6152 14.49 28.5652 14.43 28.5052 14.41C28.4552 14.4 28.3952 14.45 28.3552 14.41C28.3452 14.4 28.3452 14.39 28.3352 14.37C28.3052 14.33 28.2452 14.35 28.1952 14.33C28.1352 14.3 28.1352 14.21 28.0852 14.16C28.0252 14.11 27.9252 14.13 27.8752 14.07C27.8552 14.04 27.8552 14 27.8452 13.96C27.8452 13.93 27.8152 13.9 27.7852 13.87C27.7752 13.86 27.7552 13.85 27.7452 13.84C27.7352 13.84 27.7252 13.84 27.7052 13.82C27.6652 13.8 27.6252 13.79 27.5852 13.79C27.5152 13.79 27.4352 13.82 27.3752 13.77C27.3552 13.75 27.3352 13.72 27.3052 13.7C27.2652 13.67 27.2252 13.64 27.1852 13.61C27.1652 13.6 27.1452 13.59 27.1352 13.57C27.1052 13.53 27.1052 13.49 27.0652 13.45C27.0052 13.39 26.9052 13.41 26.8452 13.36C26.7852 13.31 26.7752 13.21 26.7052 13.17C26.6352 13.12 26.5352 13.17 26.4752 13.11C26.4152 13.06 26.4352 12.96 26.3752 12.91C26.3352 12.88 26.2852 12.87 26.2452 12.86C26.1252 12.84 26.0452 12.69 26.0552 12.59C26.0752 12.44 26.3152 12.42 26.3452 12.27C26.3652 12.2 26.3252 12.1 26.3652 12.04C26.4052 11.99 26.4852 11.99 26.5352 11.94C26.6052 11.88 26.5852 11.75 26.6552 11.7C26.7252 11.65 26.8452 11.7 26.9352 11.68C26.9852 11.67 27.0252 11.63 27.0652 11.62C27.2052 11.59 27.3552 11.74 27.4952 11.71C27.5552 11.7 27.5852 11.65 27.6452 11.64C27.7052 11.64 27.7652 11.67 27.8352 11.67C27.9252 11.67 28.0052 11.61 27.9952 11.52C27.9752 11.4 27.8052 11.29 27.6852 11.28C27.5952 11.28 27.5452 11.32 27.5352 11.4C27.4052 11.32 27.2452 11.29 27.1252 11.37L27.1152 11.39Z" fill="#33532C"/>
<path d="M31.8449 11.01C31.7849 11.09 31.6749 11.11 31.5949 11.05C31.5149 10.99 31.4949 10.88 31.5549 10.8C31.6149 10.72 31.7249 10.7 31.8049 10.76C31.8849 10.82 31.9049 10.93 31.8449 11.01Z" fill="#2B4E22"/>
<path d="M31.6554 12.07C31.6154 12.12 31.5254 12.12 31.4554 12.07C31.3854 12.02 31.3554 11.94 31.3954 11.88C31.4354 11.83 31.5254 11.83 31.5954 11.88C31.6654 11.93 31.6954 12.01 31.6554 12.07Z" fill="#2B4E22"/>
<path d="M30.535 11.54C30.535 11.54 30.435 11.6 30.385 11.56C30.335 11.53 30.325 11.46 30.365 11.41C30.395 11.36 30.465 11.35 30.515 11.39C30.565 11.42 30.575 11.49 30.535 11.54Z" fill="#2B4E22"/>
<path d="M33.4852 13.53C33.4452 13.58 33.3652 13.58 33.2852 13.53C33.2152 13.48 33.1852 13.39 33.2152 13.34C33.2552 13.29 33.3352 13.29 33.4152 13.34C33.4852 13.39 33.5152 13.48 33.4852 13.53Z" fill="#2B4E22"/>
<path d="M35.1549 13.6C35.1149 13.66 35.0349 13.67 34.9749 13.63C34.9149 13.59 34.9049 13.51 34.9449 13.45C34.9849 13.39 35.0649 13.38 35.1249 13.42C35.1849 13.46 35.1949 13.54 35.1549 13.6Z" fill="#2B4E22"/>
<path d="M34.9351 11.35C34.8851 11.42 34.7951 11.43 34.7351 11.38C34.6651 11.33 34.6551 11.24 34.7051 11.18C34.7551 11.11 34.8451 11.1 34.9051 11.15C34.9751 11.2 34.9851 11.29 34.9351 11.35Z" fill="#2B4E22"/>
<path d="M27.8452 12.78C27.7952 12.85 27.6752 12.85 27.5852 12.78C27.4952 12.71 27.4552 12.6 27.5052 12.53C27.5552 12.46 27.6752 12.46 27.7652 12.53C27.8552 12.6 27.8952 12.71 27.8452 12.78Z" fill="#2B4E22"/>
<path d="M28.285 13.72C28.235 13.78 28.155 13.8 28.095 13.75C28.035 13.7 28.015 13.62 28.065 13.56C28.115 13.5 28.195 13.48 28.255 13.53C28.315 13.58 28.335 13.66 28.285 13.72Z" fill="#2B4E22"/>
<path d="M26.785 12.82C26.735 12.88 26.655 12.9 26.595 12.85C26.535 12.8 26.515 12.72 26.565 12.66C26.615 12.6 26.695 12.58 26.755 12.63C26.815 12.68 26.835 12.76 26.785 12.82Z" fill="#2B4E22"/>
<path d="M27.515 11.14C27.475 11.2 27.385 11.2 27.315 11.16C27.245 11.12 27.225 11.02 27.265 10.97C27.305 10.91 27.395 10.91 27.465 10.95C27.535 11 27.555 11.09 27.515 11.14Z" fill="#2B4E22"/>
<path d="M26.285 10.83C26.245 10.89 26.155 10.89 26.085 10.85C26.015 10.8 25.995 10.71 26.035 10.66C26.075 10.6 26.165 10.6 26.235 10.64C26.305 10.69 26.325 10.78 26.285 10.83Z" fill="#2B4E22"/>
<path d="M27.1652 10.49C27.1152 10.56 27.0152 10.58 26.9452 10.53C26.8752 10.48 26.8552 10.38 26.9052 10.31C26.9552 10.24 27.0552 10.22 27.1252 10.27C27.1952 10.32 27.2152 10.42 27.1652 10.49Z" fill="#2B4E22"/>
<path d="M25.1952 11.41C25.1452 11.48 25.0352 11.5 24.9652 11.45C24.8952 11.4 24.8752 11.29 24.9252 11.22C24.9752 11.14 25.0852 11.13 25.1552 11.18C25.2252 11.23 25.2452 11.34 25.1952 11.41Z" fill="#2B4E22"/>
<path d="M25.0049 12.66C24.9449 12.74 24.8449 12.75 24.7649 12.7C24.6849 12.64 24.6749 12.54 24.7249 12.46C24.7849 12.38 24.8849 12.37 24.9649 12.42C25.0449 12.48 25.0549 12.58 25.0049 12.66Z" fill="#2B4E22"/>
<path d="M24.4152 11.06C24.3352 11.17 24.1952 11.21 24.0952 11.14C24.0052 11.07 23.9952 10.92 24.0752 10.81C24.1552 10.7 24.2952 10.66 24.3952 10.73C24.4852 10.8 24.4952 10.95 24.4152 11.06Z" fill="#2B4E22"/>
<path d="M24.775 12.11C24.775 12.11 24.655 12.16 24.595 12.11C24.525 12.06 24.505 11.98 24.535 11.94C24.565 11.89 24.655 11.89 24.715 11.94C24.785 11.99 24.805 12.07 24.775 12.11Z" fill="#2B4E22"/>
<path d="M23.7553 12.38C23.7153 12.44 23.6252 12.44 23.5552 12.39C23.4852 12.34 23.4653 12.25 23.5053 12.19C23.5453 12.13 23.6353 12.13 23.7053 12.18C23.7753 12.23 23.7953 12.32 23.7553 12.38Z" fill="#2B4E22"/>
<path d="M26.605 14.27C26.555 14.33 26.465 14.35 26.405 14.3C26.345 14.25 26.325 14.16 26.375 14.1C26.425 14.04 26.515 14.02 26.575 14.07C26.635 14.12 26.655 14.21 26.605 14.27Z" fill="#2B4E22"/>
<path d="M24.0752 13.2C24.0252 13.26 23.9352 13.28 23.8752 13.23C23.8152 13.18 23.7952 13.09 23.8452 13.03C23.8952 12.97 23.9852 12.95 24.0452 13C24.1052 13.05 24.1252 13.14 24.0752 13.2Z" fill="#2B4E22"/>
<path d="M27.6049 14.75C27.5549 14.82 27.4449 14.84 27.3749 14.79C27.3049 14.74 27.2849 14.63 27.3349 14.56C27.3849 14.49 27.4949 14.47 27.5649 14.52C27.6349 14.57 27.6549 14.68 27.6049 14.75Z" fill="#2B4E22"/>
<path d="M32.8551 15.37C32.7951 15.45 32.6851 15.46 32.5951 15.39C32.5051 15.32 32.4751 15.21 32.5351 15.13C32.5951 15.05 32.7051 15.04 32.7951 15.11C32.8851 15.18 32.9151 15.29 32.8551 15.37Z" fill="#2B4E22"/>
<path d="M31.0349 15.56C30.9649 15.66 30.8149 15.69 30.7149 15.61C30.6149 15.54 30.5849 15.39 30.6649 15.29C30.7349 15.19 30.8849 15.16 30.9849 15.24C31.0849 15.31 31.1149 15.46 31.0349 15.56Z" fill="#2B4E22"/>
<path d="M32.0054 16.55C31.9654 16.61 31.8554 16.6 31.7654 16.54C31.6754 16.48 31.6354 16.38 31.6854 16.32C31.7354 16.26 31.8354 16.27 31.9254 16.32C32.0154 16.38 32.0554 16.48 32.0054 16.54V16.55Z" fill="#2B4E22"/>
<path d="M32.9153 16.54C32.9153 16.54 32.8253 16.57 32.7653 16.53C32.7053 16.49 32.6853 16.43 32.7053 16.39C32.7353 16.36 32.7953 16.36 32.8553 16.4C32.9153 16.44 32.9353 16.5 32.9153 16.54Z" fill="#2B4E22"/>
<path d="M32.0953 15.51C32.0453 15.58 31.9253 15.59 31.8353 15.51C31.7453 15.43 31.7053 15.33 31.7653 15.26C31.8153 15.19 31.9353 15.18 32.0253 15.26C32.1153 15.33 32.1553 15.44 32.0953 15.51Z" fill="#2B4E22"/>
<path d="M31.1253 14.57C31.0853 14.62 31.0053 14.62 30.9353 14.57C30.8653 14.52 30.8453 14.44 30.8753 14.39C30.9153 14.34 30.9953 14.34 31.0653 14.39C31.1353 14.44 31.1553 14.52 31.1253 14.57Z" fill="#2B4E22"/>
<path d="M30.1353 16.17C30.0853 16.24 29.9953 16.25 29.9353 16.2C29.8653 16.15 29.8553 16.06 29.9053 16C29.9553 15.93 30.0453 15.92 30.1053 15.97C30.1653 16.02 30.1853 16.11 30.1353 16.17Z" fill="#2B4E22"/>
<path d="M30.9749 16.49C30.9749 16.49 30.8749 16.52 30.8149 16.48C30.7549 16.43 30.7249 16.37 30.7549 16.33C30.7849 16.29 30.8549 16.3 30.9149 16.34C30.9749 16.39 31.0049 16.45 30.9749 16.49Z" fill="#2B4E22"/>
<path d="M31.415 18.6C31.365 18.67 31.255 18.69 31.185 18.64C31.115 18.59 31.095 18.48 31.145 18.41C31.195 18.34 31.305 18.32 31.375 18.37C31.445 18.42 31.465 18.53 31.415 18.6Z" fill="#2B4E22"/>
<path d="M32.3651 18.69C32.3251 18.75 32.2351 18.75 32.1651 18.7C32.0951 18.65 32.0751 18.56 32.1151 18.51C32.1551 18.45 32.2451 18.45 32.3151 18.5C32.3851 18.55 32.4051 18.64 32.3651 18.69Z" fill="#2B4E22"/>
<path d="M32.0651 19.55C32.0251 19.61 31.9451 19.62 31.8851 19.58C31.8251 19.54 31.8151 19.46 31.8551 19.4C31.8951 19.34 31.9751 19.33 32.0351 19.37C32.0951 19.41 32.1051 19.49 32.0651 19.55Z" fill="#2B4E22"/>
<path d="M29.5349 17.71C29.4949 17.77 29.3949 17.77 29.3149 17.71C29.2349 17.65 29.2049 17.56 29.2549 17.5C29.2949 17.44 29.3949 17.44 29.4649 17.5C29.5449 17.56 29.5649 17.65 29.5249 17.71H29.5349Z" fill="#2B4E22"/>
<path d="M28.3353 17.33C28.3353 17.33 28.2153 17.38 28.1453 17.33C28.0753 17.28 28.0453 17.2 28.0853 17.15C28.1153 17.1 28.2053 17.1 28.2753 17.15C28.3453 17.2 28.3753 17.28 28.3353 17.33Z" fill="#2B4E22"/>
<path d="M28.655 18.22C28.605 18.28 28.495 18.28 28.405 18.22C28.315 18.16 28.285 18.05 28.325 17.99C28.375 17.93 28.485 17.93 28.575 17.99C28.665 18.05 28.695 18.16 28.655 18.22Z" fill="#2B4E22"/>
<path d="M30.5953 19.24C30.5453 19.31 30.4253 19.32 30.3353 19.24C30.2453 19.17 30.2053 19.06 30.2653 18.99C30.3253 18.92 30.4353 18.91 30.5253 18.99C30.6153 19.06 30.6553 19.17 30.5953 19.24Z" fill="#2B4E22"/>
<path d="M31.2753 19.43C31.2753 19.43 31.1853 19.46 31.1253 19.43C31.0653 19.4 31.0453 19.33 31.0753 19.29C31.1053 19.25 31.1653 19.26 31.2253 19.29C31.2853 19.33 31.3053 19.39 31.2753 19.43Z" fill="#2B4E22"/>
<path d="M32.9849 18.28C32.9849 18.28 32.8849 18.33 32.8249 18.28C32.7649 18.24 32.7549 18.17 32.7849 18.13C32.8149 18.08 32.8849 18.08 32.9449 18.13C33.0049 18.17 33.0149 18.24 32.9849 18.28Z" fill="#2B4E22"/>
<path d="M32.3551 17.86C32.3551 17.86 32.2751 17.89 32.2251 17.86C32.1751 17.82 32.1551 17.77 32.1751 17.74C32.1951 17.71 32.2551 17.71 32.3051 17.74C32.3551 17.78 32.3751 17.83 32.3551 17.86Z" fill="#2B4E22"/>
<path d="M36.8054 18.76C36.7454 18.84 36.6254 18.84 36.5354 18.78C36.4354 18.71 36.4054 18.59 36.4654 18.51C36.5254 18.43 36.6454 18.43 36.7354 18.49C36.8354 18.56 36.8654 18.68 36.8054 18.76Z" fill="#2B4E22"/>
<path d="M37.065 17.93C37.025 17.99 36.925 17.98 36.845 17.93C36.765 17.87 36.735 17.78 36.775 17.72C36.815 17.66 36.915 17.67 36.995 17.72C37.075 17.77 37.105 17.87 37.065 17.93Z" fill="#2B4E22"/>
<path d="M37.0951 16.15C37.0551 16.2 36.9651 16.2 36.8951 16.15C36.8251 16.1 36.7951 16.01 36.8251 15.96C36.8651 15.91 36.9551 15.91 37.0251 15.96C37.0951 16.01 37.1251 16.1 37.0951 16.15Z" fill="#2B4E22"/>
<path d="M35.925 16.21C35.885 16.27 35.785 16.28 35.715 16.22C35.645 16.17 35.615 16.08 35.665 16.02C35.705 15.96 35.805 15.95 35.875 16.01C35.945 16.06 35.975 16.15 35.925 16.21Z" fill="#2B4E22"/>
<path d="M35.8654 18.05C35.8154 18.12 35.7154 18.13 35.6254 18.07C35.5354 18.01 35.5154 17.91 35.5654 17.84C35.6154 17.77 35.7154 17.76 35.8054 17.82C35.8854 17.88 35.9154 17.98 35.8654 18.05Z" fill="#2B4E22"/>
<path d="M35.9951 19.41C35.9451 19.48 35.8451 19.49 35.7651 19.43C35.6851 19.37 35.6651 19.27 35.7051 19.2C35.7551 19.13 35.8551 19.12 35.9351 19.18C36.0151 19.24 36.0351 19.34 35.9951 19.41Z" fill="#2B4E22"/>
<path d="M37.4052 21.2C37.3652 21.26 37.2751 21.26 37.2051 21.21C37.1351 21.16 37.1152 21.07 37.1552 21.01C37.1952 20.95 37.2852 20.95 37.3552 21C37.4252 21.05 37.4452 21.14 37.4052 21.2Z" fill="#2B4E22"/>
<path d="M34.4251 20.19C34.3851 20.25 34.2851 20.24 34.2051 20.19C34.1251 20.13 34.0851 20.04 34.1251 19.98C34.1651 19.92 34.2651 19.93 34.3451 19.98C34.4251 20.03 34.4651 20.13 34.4251 20.19Z" fill="#2B4E22"/>
<path d="M34.7751 20.92C34.7251 20.99 34.6251 21.01 34.5551 20.96C34.4851 20.91 34.4651 20.81 34.5151 20.74C34.5651 20.67 34.6651 20.65 34.7351 20.7C34.8051 20.75 34.8251 20.85 34.7751 20.92Z" fill="#2B4E22"/>
<path d="M35.4449 20.82C35.3949 20.88 35.3049 20.89 35.2349 20.84C35.1649 20.79 35.1449 20.69 35.1849 20.63C35.2249 20.57 35.3249 20.56 35.3949 20.61C35.4649 20.66 35.4849 20.76 35.4449 20.82Z" fill="#2B4E22"/>
<path d="M36.1251 22.21C36.0851 22.26 36.0051 22.26 35.9351 22.21C35.8651 22.16 35.8451 22.08 35.8851 22.03C35.9251 21.98 36.0051 21.98 36.0751 22.03C36.1451 22.08 36.1651 22.16 36.1251 22.21Z" fill="#2B4E22"/>
<path d="M36.3753 23.4C36.3253 23.46 36.2253 23.46 36.1453 23.4C36.0653 23.34 36.0353 23.24 36.0753 23.18C36.1253 23.12 36.2253 23.12 36.3053 23.18C36.3853 23.24 36.4153 23.34 36.3753 23.4Z" fill="#2B4E22"/>
<path d="M35.5953 23.2C35.5553 23.25 35.4753 23.26 35.4053 23.2C35.3353 23.15 35.3153 23.07 35.3553 23.02C35.3953 22.97 35.4753 22.96 35.5453 23.02C35.6153 23.07 35.6353 23.15 35.5953 23.2Z" fill="#2B4E22"/>
<path d="M35.505 22.45C35.465 22.5 35.375 22.5 35.305 22.45C35.235 22.4 35.205 22.31 35.245 22.26C35.285 22.21 35.375 22.21 35.445 22.26C35.515 22.31 35.545 22.4 35.505 22.45Z" fill="#2B4E22"/>
<path d="M34.3352 12.99C34.2852 13.05 34.1852 13.06 34.1052 12.99C34.0252 12.93 33.9952 12.83 34.0352 12.77C34.0752 12.71 34.1852 12.7 34.2652 12.77C34.3452 12.83 34.3752 12.93 34.3352 12.99Z" fill="#2B4E22"/>
<path d="M33.1554 12.76C33.1054 12.83 33.0054 12.83 32.9154 12.76C32.8254 12.7 32.7954 12.6 32.8454 12.53C32.8954 12.46 32.9954 12.46 33.0854 12.53C33.1754 12.59 33.2054 12.69 33.1554 12.76Z" fill="#2B4E22"/>
<path d="M34.2654 14C34.2154 14.07 34.1054 14.07 34.0154 14C33.9254 13.94 33.8954 13.83 33.9354 13.76C33.9854 13.69 34.0954 13.69 34.1854 13.76C34.2754 13.82 34.3054 13.93 34.2654 14Z" fill="#2B4E22"/>
<path d="M34.125 11.51C34.075 11.57 33.975 11.58 33.895 11.51C33.815 11.44 33.785 11.36 33.835 11.29C33.885 11.23 33.985 11.22 34.065 11.29C34.145 11.35 34.175 11.44 34.125 11.51Z" fill="#2B4E22"/>
<path d="M36.1753 13.78C36.1253 13.85 36.0053 13.85 35.9153 13.78C35.8253 13.71 35.7853 13.6 35.8353 13.53C35.8853 13.46 36.0053 13.46 36.0953 13.53C36.1853 13.6 36.2253 13.71 36.1753 13.78Z" fill="#2B4E22"/>
<defs>
<radialGradient id="paint0_radial_1_1053" cx="0" cy="0" r="1" gradientUnits="userSpaceOnUse" gradientTransform="translate(7.94132 13.219) rotate(-19.93) scale(5.81 5.81001)">
<stop stop-color="#1D8426"/>
<stop offset="1" stop-color="#237918"/>
</radialGradient>
<radialGradient id="paint1_radial_1_1053" cx="0" cy="0" r="1" gradientUnits="userSpaceOnUse" gradientTransform="translate(12.35 15.2265) rotate(-19.93) scale(3.28 3.28)">
<stop stop-color="#1D8426"/>
<stop offset="1" stop-color="#237918"/>
</radialGradient>
<linearGradient id="paint2_linear_1_1053" x1="7.46554" y1="34.4445" x2="34.6777" y2="25.4186" gradientUnits="userSpaceOnUse">
<stop stop-color="#30791A"/>
<stop offset="1" stop-color="#54AE4F"/>
</linearGradient>
<linearGradient id="paint3_linear_1_1053" x1="7.46869" y1="34.454" x2="-51.3123" y2="53.9508" gradientUnits="userSpaceOnUse">
<stop stop-color="#30791A"/>
<stop offset="1" stop-color="#54AE4F"/>
</linearGradient>
<radialGradient id="paint4_radial_1_1053" cx="0" cy="0" r="1" gradientUnits="userSpaceOnUse" gradientTransform="translate(28.4153 27.9607) rotate(29.8501) scale(0.324001 0.270002)">
<stop stop-color="#30791A"/>
<stop offset="1" stop-color="#499E3F"/>
</radialGradient>
<radialGradient id="paint5_radial_1_1053" cx="0" cy="0" r="1" gradientUnits="userSpaceOnUse" gradientTransform="translate(25.4222 28.8371) rotate(29.8502) scale(0.324001 0.270002)">
<stop stop-color="#30791A"/>
<stop offset="1" stop-color="#499E3F"/>
</radialGradient>
<radialGradient id="paint6_radial_1_1053" cx="0" cy="0" r="1" gradientUnits="userSpaceOnUse" gradientTransform="translate(32.3555 27.8697) rotate(29.8496) scale(0.323999 0.269997)">
<stop stop-color="#30791A"/>
<stop offset="1" stop-color="#499E3F"/>
</radialGradient>
<radialGradient id="paint7_radial_1_1053" cx="0" cy="0" r="1" gradientUnits="userSpaceOnUse" gradientTransform="translate(26.9562 25.9472) rotate(29.8501) scale(0.324001 0.270002)">
<stop stop-color="#30791A"/>
<stop offset="1" stop-color="#499E3F"/>
</radialGradient>
<radialGradient id="paint8_radial_1_1053" cx="0" cy="0" r="1" gradientUnits="userSpaceOnUse" gradientTransform="translate(25.5158 31.2775) rotate(29.8503) scale(0.323999 0.270001)">
<stop stop-color="#30791A"/>
<stop offset="1" stop-color="#499E3F"/>
</radialGradient>
<radialGradient id="paint9_radial_1_1053" cx="0" cy="0" r="1" gradientUnits="userSpaceOnUse" gradientTransform="translate(19.8778 29.5295) rotate(29.8501) scale(0.324001 0.270002)">
<stop stop-color="#30791A"/>
<stop offset="1" stop-color="#499E3F"/>
</radialGradient>
<radialGradient id="paint10_radial_1_1053" cx="0" cy="0" r="1" gradientUnits="userSpaceOnUse" gradientTransform="translate(7.73871 26.3565) rotate(29.8496) scale(0.323999 0.269997)">
<stop stop-color="#30791A"/>
<stop offset="1" stop-color="#499E3F"/>
</radialGradient>
<radialGradient id="paint11_radial_1_1053" cx="0" cy="0" r="1" gradientUnits="userSpaceOnUse" gradientTransform="translate(33.2173 29.5748) rotate(29.8495) scale(0.323999 0.269997)">
<stop stop-color="#30791A"/>
<stop offset="1" stop-color="#499E3F"/>
</radialGradient>
<radialGradient id="paint12_radial_1_1053" cx="0" cy="0" r="1" gradientUnits="userSpaceOnUse" gradientTransform="translate(34.7049 31.4663) rotate(29.8496) scale(0.323999 0.269997)">
<stop stop-color="#30791A"/>
<stop offset="1" stop-color="#499E3F"/>
</radialGradient>
<radialGradient id="paint13_radial_1_1053" cx="0" cy="0" r="1" gradientUnits="userSpaceOnUse" gradientTransform="translate(30.9819 31.0824) rotate(29.8501) scale(0.324001 0.270002)">
<stop stop-color="#30791A"/>
<stop offset="1" stop-color="#499E3F"/>
</radialGradient>
<radialGradient id="paint14_radial_1_1053" cx="0" cy="0" r="1" gradientUnits="userSpaceOnUse" gradientTransform="translate(12.754 27.8394) rotate(29.8502) scale(0.324001 0.270002)">
<stop stop-color="#30791A"/>
<stop offset="1" stop-color="#499E3F"/>
</radialGradient>
<radialGradient id="paint15_radial_1_1053" cx="0" cy="0" r="1" gradientUnits="userSpaceOnUse" gradientTransform="translate(16.5733 29.4777) rotate(29.8501) scale(0.324001 0.270002)">
<stop stop-color="#30791A"/>
<stop offset="1" stop-color="#499E3F"/>
</radialGradient>
<radialGradient id="paint16_radial_1_1053" cx="0" cy="0" r="1" gradientUnits="userSpaceOnUse" gradientTransform="translate(8.96332 30.0569) rotate(29.8502) scale(0.324001 0.270002)">
<stop stop-color="#30791A"/>
<stop offset="1" stop-color="#499E3F"/>
</radialGradient>
<radialGradient id="paint17_radial_1_1053" cx="0" cy="0" r="1" gradientUnits="userSpaceOnUse" gradientTransform="translate(23.9995 25.8187) rotate(29.8496) scale(0.323999 0.269997)">
<stop stop-color="#30791A"/>
<stop offset="1" stop-color="#499E3F"/>
</radialGradient>
<radialGradient id="paint18_radial_1_1053" cx="0" cy="0" r="1" gradientUnits="userSpaceOnUse" gradientTransform="translate(19.9357 26.4151) rotate(29.8496) scale(0.323999 0.269997)">
<stop stop-color="#30791A"/>
<stop offset="1" stop-color="#499E3F"/>
</radialGradient>
<radialGradient id="paint19_radial_1_1053" cx="0" cy="0" r="1" gradientUnits="userSpaceOnUse" gradientTransform="translate(33.4079 33.8233) rotate(29.8502) scale(0.324001 0.270002)">
<stop stop-color="#30791A"/>
<stop offset="1" stop-color="#499E3F"/>
</radialGradient>
<radialGradient id="paint20_radial_1_1053" cx="0" cy="0" r="1" gradientUnits="userSpaceOnUse" gradientTransform="translate(17.6017 24.9372) rotate(29.8496) scale(0.323999 0.269997)">
<stop stop-color="#30791A"/>
<stop offset="1" stop-color="#499E3F"/>
</radialGradient>
<radialGradient id="paint21_radial_1_1053" cx="0" cy="0" r="1" gradientUnits="userSpaceOnUse" gradientTransform="translate(23.4643 28.9702) rotate(29.8501) scale(0.324001 0.270002)">
<stop stop-color="#30791A"/>
<stop offset="1" stop-color="#499E3F"/>
</radialGradient>
<radialGradient id="paint22_radial_1_1053" cx="0" cy="0" r="1" gradientUnits="userSpaceOnUse" gradientTransform="translate(15.9366 26.6335) rotate(29.8496) scale(0.323999 0.269997)">
<stop stop-color="#30791A"/>
<stop offset="1" stop-color="#499E3F"/>
</radialGradient>
<radialGradient id="paint23_radial_1_1053" cx="0" cy="0" r="1" gradientUnits="userSpaceOnUse" gradientTransform="translate(13.2416 24.6028) rotate(29.8496) scale(0.323999 0.269997)">
<stop stop-color="#30791A"/>
<stop offset="1" stop-color="#499E3F"/>
</radialGradient>
<radialGradient id="paint24_radial_1_1053" cx="0" cy="0" r="1" gradientUnits="userSpaceOnUse" gradientTransform="translate(28.4005 31.169) rotate(29.8501) scale(0.324001 0.270002)">
<stop stop-color="#30791A"/>
<stop offset="1" stop-color="#499E3F"/>
</radialGradient>
<linearGradient id="paint25_linear_1_1053" x1="7.21394" y1="33.4005" x2="-51.6524" y2="52.9257" gradientUnits="userSpaceOnUse">
<stop stop-color="#30791A"/>
<stop offset="1" stop-color="#54AE4F"/>
</linearGradient>
<linearGradient id="paint26_linear_1_1053" x1="25.4831" y1="32.988" x2="25.5875" y2="32.9534" gradientUnits="userSpaceOnUse">
<stop stop-color="#30791A"/>
<stop offset="1" stop-color="#54AE4F"/>
</linearGradient>
<radialGradient id="paint27_radial_1_1053" cx="0" cy="0" r="1" gradientUnits="userSpaceOnUse" gradientTransform="translate(28.2194 21.4932) rotate(35.89) scale(9.76 9.75999)">
<stop stop-color="#C4F07F"/>
<stop offset="0.42" stop-color="#95C94B"/>
<stop offset="1" stop-color="#ACDC65"/>
</radialGradient>
<radialGradient id="paint28_radial_1_1053" cx="0" cy="0" r="1" gradientUnits="userSpaceOnUse" gradientTransform="translate(26.5572 22.7838) rotate(35.89) scale(7.68 7.68001)">
<stop stop-color="#C4F07F"/>
<stop offset="0.42" stop-color="#95C94B"/>
<stop offset="1" stop-color="#ACDC65"/>
</radialGradient>
<radialGradient id="paint29_radial_1_1053" cx="0" cy="0" r="1" gradientUnits="userSpaceOnUse" gradientTransform="translate(26.557 22.7838) rotate(35.89) scale(7.68)">
<stop stop-color="#C4F07F"/>
<stop offset="0.42" stop-color="#95C94B"/>
<stop offset="1" stop-color="#ACDC65"/>
</radialGradient>
<radialGradient id="paint30_radial_1_1053" cx="0" cy="0" r="1" gradientUnits="userSpaceOnUse" gradientTransform="translate(25.9489 23.2323) rotate(35.89) scale(6.72 6.72001)">
<stop stop-color="#C4F07F"/>
<stop offset="0.42" stop-color="#95C94B"/>
<stop offset="1" stop-color="#ACDC65"/>
</radialGradient>
<radialGradient id="paint31_radial_1_1053" cx="0" cy="0" r="1" gradientUnits="userSpaceOnUse" gradientTransform="translate(26.0418 23.7687) rotate(35.89) scale(6.54)">
<stop stop-color="#C4F07F"/>
<stop offset="0.42" stop-color="#95C94B"/>
<stop offset="1" stop-color="#ACDC65"/>
</radialGradient>
<radialGradient id="paint32_radial_1_1053" cx="0" cy="0" r="1" gradientUnits="userSpaceOnUse" gradientTransform="translate(34.3082 10.7415) rotate(35.89) scale(4.42)">
<stop stop-color="#3A6B30"/>
<stop offset="1" stop-color="#305126"/>
</radialGradient>
<radialGradient id="paint33_radial_1_1053" cx="0" cy="0" r="1" gradientUnits="userSpaceOnUse" gradientTransform="translate(35.3261 21.4636) rotate(35.8901) scale(3.61 3.61)">
<stop stop-color="#3A6B30"/>
<stop offset="1" stop-color="#305126"/>
</radialGradient>
<radialGradient id="paint34_radial_1_1053" cx="0" cy="0" r="1" gradientUnits="userSpaceOnUse" gradientTransform="translate(26.4901 12.5394) rotate(35.89) scale(4.55)">
<stop stop-color="#3A6B30"/>
<stop offset="1" stop-color="#305126"/>
</radialGradient>
<radialGradient id="paint35_radial_1_1053" cx="0" cy="0" r="1" gradientUnits="userSpaceOnUse" gradientTransform="translate(35.7193 17.2183) rotate(35.8901) scale(3.8 3.80001)">
<stop stop-color="#3A6B30"/>
<stop offset="1" stop-color="#305126"/>
</radialGradient>
<radialGradient id="paint36_radial_1_1053" cx="0" cy="0" r="1" gradientUnits="userSpaceOnUse" gradientTransform="translate(29.4646 17.1112) rotate(35.8901) scale(4.42 4.42001)">
<stop stop-color="#3A6B30"/>
<stop offset="1" stop-color="#305126"/>
</radialGradient>
</defs>
</svg>
