<svg width="29" height="29" viewBox="0 0 29 29" fill="none" xmlns="http://www.w3.org/2000/svg">
<circle cx="14.5" cy="14.5" r="14.5" fill="url(#paint0_linear_1_2003)"/>
<path d="M5.18664 15.9053C5.06655 15.6231 4.99984 15.3141 4.99984 14.9916C4.99984 14.6691 5.06655 14.3601 5.18664 14.0779C5.30672 13.7957 5.48018 13.527 5.69367 13.312L11.271 7.69536C12.1916 6.76821 13.686 6.76821 14.6067 7.69536C15.5274 8.62251 15.5274 10.1274 14.6067 11.0546L13.0456 12.6267H21.3048C22.5991 12.6267 23.6665 13.6882 23.6665 15.005C23.6665 16.3219 22.6124 17.3834 21.3048 17.3834H13.0456L14.6067 18.9421C15.5274 19.8692 15.5274 21.3741 14.6067 22.3013C14.153 22.7581 13.5526 23 12.9388 23C12.3251 23 11.738 22.7716 11.271 22.3013L5.69367 16.6847C5.48018 16.4697 5.30672 16.2144 5.18664 15.9187V15.9053Z" fill="white"/>
<defs>
<linearGradient id="paint0_linear_1_2003" x1="14.5" y1="0" x2="14.5" y2="29" gradientUnits="userSpaceOnUse">
<stop stop-color="#FFC224"/>
<stop offset="0.521534" stop-color="#FF8D11"/>
<stop offset="1" stop-color="#FF5C00"/>
</linearGradient>
</defs>
</svg>
