<svg width="89" height="87" viewBox="0 0 89 87" fill="none" xmlns="http://www.w3.org/2000/svg">
<path d="M73.7134 0H14.2985C6.40164 0 0 6.40164 0 14.2985V72.131C0 80.0278 6.40164 86.4295 14.2985 86.4295H73.7134C81.6102 86.4295 88.0118 80.0278 88.0118 72.131V14.2985C88.0118 6.40164 81.6102 0 73.7134 0Z" fill="#E8672B"/>
<path d="M22.1816 20.4181L24.6696 17.0437H66.1637L66.8786 19.8653V63.4756L65.3344 65.5632L62.5129 68.0702L22.1816 20.4181Z" fill="white"/>
<path d="M63.3804 15.0132H24.6793L19.6843 20.4181V72.2071H58.3855C60.6637 72.2071 62.513 70.3579 62.513 68.0796V24.5551C62.513 22.2769 60.6637 20.4276 58.3855 20.4276H22.1818L24.6793 17.0532H63.247C64.6196 17.0532 65.7254 18.1589 65.7254 19.5316V64.057C65.7254 64.7243 65.449 65.3725 64.9628 65.8395L64.0191 66.7451C65.9923 66.4306 67.5079 64.7433 67.5079 62.6748V19.1503C67.5079 16.8625 65.6587 15.0132 63.3804 15.0132Z" fill="#5A5A5A"/>
<path d="M62.5129 68.07V24.5454C62.5129 22.2672 60.6636 20.418 58.3854 20.418H40.8459V72.207H58.3854C60.6636 72.207 62.5129 70.3577 62.5129 68.0795V68.07Z" fill="#787878"/>
<path d="M34.7548 37.2906C35.3934 37.2906 35.9844 37.4622 36.5183 37.7386C36.8614 35.651 38.663 34.0496 40.8555 34.0496C43.0479 34.0496 44.8495 35.651 45.1926 37.7386C45.7169 37.4622 46.3175 37.2906 46.9561 37.2906C49.0532 37.2906 50.7405 38.9873 50.7405 41.0749C50.7405 43.1625 49.0437 44.8592 46.9561 44.8592V53.6957H34.7643V44.8592C32.6767 44.8592 30.98 43.1625 30.98 41.0749C30.98 38.9873 32.6767 37.2906 34.7643 37.2906H34.7548Z" fill="white"/>
</svg>
