<svg width="78" height="191" viewBox="0 0 78 191" fill="none" xmlns="http://www.w3.org/2000/svg">
<path d="M77.7868 69.5268C77.7351 59.5244 70.3601 49.0838 62.9333 38.7721C57.3697 31.0898 56.5158 19.5923 56.464 14.256H57.1368C60.3456 14.256 62.9333 12.0389 62.9333 9.30633V4.9754C62.9333 2.21702 60.3456 0 57.1368 0H20.65C17.4412 0 14.8535 2.21702 14.8535 4.9754V9.30633C14.8535 12.0389 17.4412 14.256 20.65 14.256H21.3228C21.2711 19.5923 20.4171 31.0641 14.8535 38.7721C7.42676 49.0838 0.0517544 59.5244 0 69.5268C0 69.6041 0.0258778 69.6814 0.0258778 69.7588C0.0258778 69.8361 0 69.8619 0 69.9135V172.206C0 181.203 14.5171 190.715 38.8158 190.741H38.9711C63.2697 190.715 77.7868 181.177 77.7868 172.206V69.9135C77.7868 69.9135 77.761 69.8361 77.761 69.7588C77.761 69.6814 77.7868 69.6041 77.7868 69.5268Z" fill="#CAECF4"/>
<path d="M8.20312 71.2798V172.335C8.20312 178.315 21.9957 183.162 38.997 183.162C55.9983 183.162 69.7908 178.315 69.7908 172.335V71.2798H8.20312Z" fill="#4DBFD9"/>
<path d="M69.765 71.2798C69.765 74.1928 55.9724 76.5645 38.9711 76.5645C21.9698 76.5645 8.17725 74.1928 8.17725 71.2798C8.17725 68.3667 21.9698 65.995 38.9711 65.995C55.9724 65.995 69.765 68.3667 69.765 71.2798Z" fill="#95D8E9"/>
<path d="M57.8096 0H19.6408C16.7825 0 14.4653 2.30836 14.4653 5.15586V11.0078C14.4653 13.8553 16.7825 16.1636 19.6408 16.1636H57.8096C60.668 16.1636 62.9851 13.8553 62.9851 11.0078V5.15586C62.9851 2.30836 60.668 0 57.8096 0Z" fill="#4DBFD9"/>
<path d="M45.7767 21.0101H44.664C41.8056 21.0101 39.4885 23.3185 39.4885 26.166V54.1365C39.4885 56.984 41.8056 59.2924 44.664 59.2924H45.7767C48.635 59.2924 50.9521 56.984 50.9521 54.1365V26.166C50.9521 23.3185 48.635 21.0101 45.7767 21.0101Z" fill="#374B93"/>
<path d="M58.5601 84.2983H56.5158C53.6575 84.2983 51.3403 86.6067 51.3403 89.4542V156.403C51.3403 159.251 53.6575 161.559 56.5158 161.559H58.5601C61.4184 161.559 63.7355 159.251 63.7355 156.403V89.4542C63.7355 86.6067 61.4184 84.2983 58.5601 84.2983Z" fill="#374B93"/>
<path d="M48.5196 141.631C48.5196 144.261 46.3718 146.401 43.7323 146.401C41.0929 146.401 38.9709 144.261 38.9709 141.631C38.9709 139.002 41.1187 136.888 43.7323 136.888C46.3459 136.888 48.5196 139.028 48.5196 141.631Z" fill="#95D8E9"/>
<path d="M43.4996 117.167C43.4996 119.796 41.3518 121.936 38.7123 121.936C36.0729 121.936 33.9509 119.796 33.9509 117.167C33.9509 114.537 36.0987 112.398 38.7123 112.398C41.3259 112.398 43.4996 114.537 43.4996 117.167Z" fill="#95D8E9"/>
<path d="M28.5943 86.5153C28.5943 89.1448 26.4465 91.2845 23.8071 91.2845C21.1676 91.2845 19.0457 89.1448 19.0457 86.5153C19.0457 83.8858 21.1935 81.7462 23.8071 81.7462C26.4207 81.7462 28.5943 83.8858 28.5943 86.5153Z" fill="#95D8E9"/>
<path d="M49.9947 91.2845C49.9947 93.914 47.8469 96.0537 45.2074 96.0537C42.568 96.0537 40.446 93.914 40.446 91.2845C40.446 88.655 42.5938 86.5153 45.2074 86.5153C47.821 86.5153 49.9947 88.655 49.9947 91.2845Z" fill="#95D8E9"/>
<path d="M53.307 172.36C53.307 174.99 51.1592 177.13 48.5197 177.13C45.8802 177.13 43.7583 174.99 43.7583 172.36C43.7583 169.731 45.9061 167.591 48.5197 167.591C51.1333 167.591 53.307 169.731 53.307 172.36Z" fill="#95D8E9"/>
<path d="M38.971 163.518C38.971 166.148 36.8232 168.287 34.1838 168.287C31.5443 168.287 29.4224 166.148 29.4224 163.518C29.4224 160.889 31.5702 158.749 34.1838 158.749C36.7974 158.749 38.971 160.889 38.971 163.518Z" fill="#95D8E9"/>
</svg>
