<svg width="29" height="30" viewBox="0 0 29 30" fill="none" xmlns="http://www.w3.org/2000/svg">
<circle cx="14.5" cy="14.7739" r="14.5" fill="url(#paint0_linear_1_2136)"/>
<path d="M17.6875 13.1802C17.6875 13.0393 17.7435 12.9042 17.8431 12.8045C17.9427 12.7049 18.0779 12.6489 18.2188 12.6489H19.2812C19.4221 12.6489 19.5573 12.7049 19.6569 12.8045C19.7565 12.9042 19.8125 13.0393 19.8125 13.1802V14.2427C19.8125 14.3836 19.7565 14.5187 19.6569 14.6183C19.5573 14.718 19.4221 14.7739 19.2812 14.7739H18.2188C18.0779 14.7739 17.9427 14.718 17.8431 14.6183C17.7435 14.5187 17.6875 14.3836 17.6875 14.2427V13.1802Z" fill="white"/>
<path d="M9.71875 6.27393C9.85965 6.27393 9.99477 6.3299 10.0944 6.42953C10.194 6.52915 10.25 6.66428 10.25 6.80518V7.33643H18.75V6.80518C18.75 6.66428 18.806 6.52915 18.9056 6.42953C19.0052 6.3299 19.1404 6.27393 19.2812 6.27393C19.4221 6.27393 19.5573 6.3299 19.6569 6.42953C19.7565 6.52915 19.8125 6.66428 19.8125 6.80518V7.33643H20.875C21.4386 7.33643 21.9791 7.56031 22.3776 7.95882C22.7761 8.35734 23 8.89784 23 9.46143V21.1489C23 21.7125 22.7761 22.253 22.3776 22.6515C21.9791 23.05 21.4386 23.2739 20.875 23.2739H8.125C7.56141 23.2739 7.02091 23.05 6.6224 22.6515C6.22388 22.253 6 21.7125 6 21.1489V9.46143C6 8.89784 6.22388 8.35734 6.6224 7.95882C7.02091 7.56031 7.56141 7.33643 8.125 7.33643H9.1875V6.80518C9.1875 6.66428 9.24347 6.52915 9.3431 6.42953C9.44273 6.3299 9.57785 6.27393 9.71875 6.27393ZM7.0625 10.5239V21.1489C7.0625 21.4307 7.17444 21.701 7.3737 21.9002C7.57296 22.0995 7.84321 22.2114 8.125 22.2114H20.875C21.1568 22.2114 21.427 22.0995 21.6263 21.9002C21.8256 21.701 21.9375 21.4307 21.9375 21.1489V10.5239H7.0625Z" fill="white"/>
<defs>
<linearGradient id="paint0_linear_1_2136" x1="14.5" y1="0.273926" x2="14.5" y2="29.2739" gradientUnits="userSpaceOnUse">
<stop stop-color="#FFC224"/>
<stop offset="0.521534" stop-color="#FF8D11"/>
<stop offset="1" stop-color="#FF5C00"/>
</linearGradient>
</defs>
</svg>
