<svg width="274" height="406" viewBox="0 0 274 406" fill="none" xmlns="http://www.w3.org/2000/svg">
<g opacity="0.25" clip-path="url(#clip0_1_8600)">
<path d="M103.47 84.94L28.08 89.44C23.38 106.18 22.71 122.33 27.84 138.92C29.3 143.65 31.47 148.65 36.44 151.4C40.89 153.86 46.67 154.01 52.09 153.95C78.36 153.67 104.62 150.59 129.96 144.81C124.97 142.04 122.1 136.96 122.76 132.07C124.92 136.86 131.05 140.13 137.37 140.33C143.69 140.53 149.94 137.86 153.81 133.79C132.37 124.03 103.99 104.88 103.48 84.94H103.47Z" fill="#38361E"/>
<path d="M153.35 116.6C153.35 116.6 153.12 116.62 152.69 116.62C152.26 116.61 151.63 116.61 150.81 116.56C149.18 116.48 146.82 116.31 143.93 115.91C138.18 115.12 130.13 113.36 122.31 108.95C118.43 106.73 115.06 104.06 112.37 101.28C109.68 98.49 107.64 95.62 106.25 93.05C104.85 90.48 104.02 88.25 103.58 86.67C103.32 85.89 103.22 85.26 103.12 84.85C103.03 84.43 102.99 84.21 103 84.2C103.05 84.19 103.27 85.06 103.77 86.61C104.27 88.15 105.15 90.34 106.57 92.87C107.98 95.4 110.03 98.21 112.71 100.95C115.39 103.69 118.73 106.31 122.57 108.51C130.3 112.87 138.27 114.68 143.99 115.56C146.86 116 149.21 116.23 150.83 116.37C151.6 116.44 152.22 116.49 152.7 116.53C153.13 116.57 153.35 116.6 153.35 116.62V116.6Z" fill="#38361E"/>
<path d="M166.39 262.47C166.11 262.54 144.15 255.56 144.15 255.56L137.25 261.01L156.08 269.19C156.08 269.19 164.39 270.14 168.38 272.49C172.36 274.84 166.4 262.47 166.4 262.47H166.39Z" fill="#263238"/>
<path d="M163.02 263.83C163.02 263.83 163.06 264.05 163.16 264.44C163.8 266.73 166.93 274.91 179.92 279.63C195.14 285.15 228.32 286.69 233.83 285.83C244.49 284.15 254.44 275.84 254.02 273.76" fill="#263238"/>
<path d="M254.03 273.75C253.66 277.13 232.99 277.65 207.86 274.91C182.73 272.17 162.66 267.2 163.02 263.82C163.39 260.44 184.06 259.92 209.19 262.66C234.32 265.4 254.39 270.37 254.03 273.75Z" fill="#455A64"/>
<path d="M222.11 271.4C223.78 269.72 226.15 268.72 224.91 266.77C224.57 267.43 222.9 267.41 222.32 267.92C221.74 268.43 220.13 267.82 219.34 267.62C218.36 267.36 217.83 266.38 217.89 265.49C217.95 264.6 218.46 263.79 218.97 263.02C220.01 261.45 221.11 259.91 222.27 258.41C222.69 257.86 223.13 257.29 223.23 256.64C223.33 255.99 222.98 255.23 222.25 255.04C221.6 254.87 220.93 255.19 220.37 255.51C217.88 256.92 215.44 258.71 214.53 261.18C213.96 262.73 214.04 264.44 213.34 265.96C212.65 267.48 210.65 268.78 208.97 268.05C207.94 267.6 207.45 266.56 207.18 265.58C206.91 264.6 206.76 263.56 206.08 262.74C205.4 261.92 203.96 261.48 203.09 262.14C201.6 263.26 203.5 265.72 202.23 267.03C201.69 267.59 200.72 267.69 199.92 267.47C199.12 267.25 198.46 266.76 197.85 266.26C193.66 262.85 190.58 258.42 189.06 253.6C188.87 252.98 188.69 252.35 188.28 251.82C187.87 251.29 187.17 250.88 186.44 250.96C185.29 251.09 184.77 252.31 184.77 253.33C184.77 256.2 186.87 258.7 188.89 260.98C191.21 263.59 193.53 266.21 195.84 268.82L199 272.47L212.58 275.46L221.77 273.56L222.12 271.4H222.11Z" fill="#9A82FF"/>
<g opacity="0.6">
<path d="M222.11 271.4C223.78 269.72 226.15 268.72 224.91 266.77C224.57 267.43 222.9 267.41 222.32 267.92C221.74 268.43 220.13 267.82 219.34 267.62C218.36 267.36 217.83 266.38 217.89 265.49C217.95 264.6 218.46 263.79 218.97 263.02C220.01 261.45 221.11 259.91 222.27 258.41C222.69 257.86 223.13 257.29 223.23 256.64C223.33 255.99 222.98 255.23 222.25 255.04C221.6 254.87 220.93 255.19 220.37 255.51C217.88 256.92 215.44 258.71 214.53 261.18C213.96 262.73 214.04 264.44 213.34 265.96C212.65 267.48 210.65 268.78 208.97 268.05C207.94 267.6 207.45 266.56 207.18 265.58C206.91 264.6 206.76 263.56 206.08 262.74C205.4 261.92 203.96 261.48 203.09 262.14C201.6 263.26 203.5 265.72 202.23 267.03C201.69 267.59 200.72 267.69 199.92 267.47C199.12 267.25 198.46 266.76 197.85 266.26C193.66 262.85 190.58 258.42 189.06 253.6C188.87 252.98 188.69 252.35 188.28 251.82C187.87 251.29 187.17 250.88 186.44 250.96C185.29 251.09 184.77 252.31 184.77 253.33C184.77 256.2 186.87 258.7 188.89 260.98C191.21 263.59 193.53 266.21 195.84 268.82L199 272.47L212.58 275.46L221.77 273.56L222.12 271.4H222.11Z" fill="white"/>
</g>
<path d="M225.96 276.71C226.26 274.88 227.92 273.28 229.98 272.84C230.67 272.69 231.42 272.66 232.04 272.35C232.66 272.04 233.09 271.3 232.69 270.78C232.3 270.27 231.44 270.31 230.74 270.41C229.15 270.64 227.57 270.87 225.98 271.09C227.26 269.81 228.54 268.52 229.81 267.24C230.32 266.73 230.85 266.04 230.48 265.44C230.13 264.87 229.2 264.85 228.47 264.98C225.97 265.42 223.69 266.7 222.18 268.48C220.83 270.08 220.06 272.08 218.35 273.38C216.8 274.56 214.55 274.99 212.57 274.5C210.59 274.01 208.93 272.61 208.31 270.89C208.05 270.16 207.94 269.35 207.36 268.78C206.27 267.69 204.05 268.16 203.09 269.34C202.14 270.52 202.12 272.08 202.25 273.53C197.88 267.84 193.01 261.9 185.72 259.39C184.44 258.95 183.05 258.62 181.69 258.83C180.34 259.04 179.04 259.91 178.82 261.09C178.57 262.47 179.77 263.73 181.08 264.54C183.57 266.08 186.62 266.75 189.31 268.01C192 269.27 194.92 271.15 194.75 273.81C194.75 273.81 207.87 275.8 214.37 275.97C220.87 276.14 225.95 276.68 225.95 276.68L225.96 276.71Z" fill="#9A82FF"/>
<g opacity="0.8">
<path d="M225.96 276.71C226.26 274.88 227.92 273.28 229.98 272.84C230.67 272.69 231.42 272.66 232.04 272.35C232.66 272.04 233.09 271.3 232.69 270.78C232.3 270.27 231.44 270.31 230.74 270.41C229.15 270.64 227.57 270.87 225.98 271.09C227.26 269.81 228.54 268.52 229.81 267.24C230.32 266.73 230.85 266.04 230.48 265.44C230.13 264.87 229.2 264.85 228.47 264.98C225.97 265.42 223.69 266.7 222.18 268.48C220.83 270.08 220.06 272.08 218.35 273.38C216.8 274.56 214.55 274.99 212.57 274.5C210.59 274.01 208.93 272.61 208.31 270.89C208.05 270.16 207.94 269.35 207.36 268.78C206.27 267.69 204.05 268.16 203.09 269.34C202.14 270.52 202.12 272.08 202.25 273.53C197.88 267.84 193.01 261.9 185.72 259.39C184.44 258.95 183.05 258.62 181.69 258.83C180.34 259.04 179.04 259.91 178.82 261.09C178.57 262.47 179.77 263.73 181.08 264.54C183.57 266.08 186.62 266.75 189.31 268.01C192 269.27 194.92 271.15 194.75 273.81C194.75 273.81 207.87 275.8 214.37 275.97C220.87 276.14 225.95 276.68 225.95 276.68L225.96 276.71Z" fill="white"/>
</g>
<path d="M177.89 284.93C177.88 284.99 177.14 284.93 176 284.61C174.86 284.29 173.32 283.64 171.82 282.59C170.33 281.54 169.19 280.32 168.49 279.36C167.79 278.4 167.49 277.72 167.54 277.69C167.68 277.59 169.19 280.14 172.12 282.16C175.02 284.22 177.94 284.76 177.89 284.92V284.93Z" fill="#263238"/>
<path d="M175.41 287.29C175.4 287.35 174.66 287.29 173.52 286.97C172.38 286.65 170.84 286 169.34 284.95C167.85 283.9 166.71 282.68 166.01 281.72C165.31 280.76 165.01 280.08 165.06 280.05C165.2 279.95 166.71 282.5 169.64 284.52C172.54 286.58 175.46 287.12 175.41 287.28V287.29Z" fill="#263238"/>
<path d="M263.33 277.34C263.33 277.34 263.27 277.63 263.08 278.11C262.89 278.6 262.56 279.28 262.11 280.1C261.21 281.74 259.71 283.89 257.65 285.89C255.58 287.88 253.39 289.32 251.72 290.16C250.89 290.59 250.19 290.89 249.7 291.06C249.21 291.24 248.93 291.32 248.92 291.29C248.89 291.21 249.95 290.76 251.55 289.83C253.15 288.91 255.27 287.46 257.29 285.51C259.31 283.55 260.83 281.48 261.79 279.91C262.76 278.34 263.25 277.29 263.33 277.33V277.34Z" fill="#263238"/>
<path d="M268.14 279.4C268.2 279.42 267.99 280.12 267.48 281.17C266.97 282.22 266.11 283.61 264.92 284.95C263.73 286.29 262.47 287.32 261.49 287.97C260.51 288.62 259.85 288.91 259.82 288.85C259.73 288.71 262.23 287.25 264.53 284.61C266.86 281.99 267.99 279.32 268.14 279.4Z" fill="#263238"/>
<path d="M244.06 213.51L253.35 210.94C253.35 210.94 261.02 212.1 263 210.63C264.98 209.16 264.04 208.31 264.04 208.31C268.22 206.73 266.73 204.88 266.73 204.88C266.73 204.88 270.88 204.56 270.96 201.29C271 199.38 255.13 196.22 255.13 196.22C255.13 196.22 255.28 194.17 256.9 193.01C258.52 191.85 267.88 194.1 270.75 193.22C273.62 192.35 273.42 189.52 273.42 189.52C273.42 189.52 253.78 185.53 249.65 187.25C245.51 188.97 225.66 197.25 222.63 201.26L229.23 215.03C229.23 215.03 229.63 215.24 232.92 216.13C236.21 217.03 244.08 213.52 244.08 213.52L244.06 213.51Z" fill="#FFBF9D"/>
<path d="M233.39 210.11C233.39 210.03 234.15 210.05 235.5 209.86C236.84 209.67 238.79 209.24 240.93 208.12C242 207.56 243.1 206.82 244.15 205.88C244.68 205.42 245.18 204.88 245.66 204.31C246.15 203.73 246.62 203.08 247.25 202.48C247.85 201.89 248.78 201.37 249.75 201.41C250.67 201.42 251.53 201.6 252.41 201.78C254.17 202.14 255.89 202.74 257.65 202.48C258.79 202.33 259.89 201.88 260.7 201.16C261.52 200.48 262.02 199.36 261.6 198.66L261.85 198.85C256.26 197.5 251.27 196.9 247.75 196.38C246.11 196.14 244.74 195.94 243.61 195.78C242.65 195.62 242.12 195.52 242.13 195.47C242.13 195.42 242.67 195.43 243.64 195.5C244.61 195.57 246.03 195.69 247.81 195.86C251.36 196.24 256.37 196.72 262.05 198.04L262.21 198.08L262.3 198.23C262.69 198.86 262.63 199.63 262.39 200.24C262.15 200.86 261.74 201.38 261.26 201.81C260.3 202.67 259.04 203.18 257.75 203.35C256.76 203.49 255.78 203.39 254.85 203.23C253.96 203.03 253.08 202.82 252.22 202.63C251.37 202.45 250.52 202.27 249.74 202.26C248.99 202.22 248.34 202.58 247.78 203.09C247.22 203.6 246.75 204.23 246.23 204.82C245.71 205.41 245.18 205.96 244.61 206.44C243.49 207.41 242.32 208.14 241.19 208.69C238.93 209.79 236.9 210.13 235.52 210.22C234.13 210.3 233.37 210.17 233.37 210.13L233.39 210.11Z" fill="#FF9A6C"/>
<path d="M252.38 202.43C252.6 202.51 252.15 204.36 251.14 206.47C250.13 208.58 248.97 210.09 248.77 209.97C248.56 209.84 249.38 208.16 250.36 206.1C251.35 204.04 252.15 202.35 252.38 202.43Z" fill="#FF9A6C"/>
<path d="M263.16 207.92C263.11 208.16 260.54 207.85 257.38 207.5C254.21 207.14 251.64 206.88 251.65 206.63C251.65 206.4 254.28 206.28 257.48 206.64C260.68 206.99 263.21 207.68 263.17 207.91L263.16 207.92Z" fill="#FF9A6C"/>
<path d="M267.93 205.05C267.9 205.29 264.61 205.01 260.59 204.44C256.57 203.87 253.34 203.22 253.37 202.98C253.4 202.74 256.69 203.02 260.71 203.59C264.73 204.16 267.96 204.81 267.93 205.05Z" fill="#FF9A6C"/>
<path d="M254.75 191.7C254.98 191.7 255.16 192.9 254.98 194.36C254.81 195.82 254.35 196.94 254.12 196.89C253.89 196.84 253.96 195.67 254.12 194.26C254.29 192.85 254.5 191.7 254.74 191.7H254.75Z" fill="#FF9A6C"/>
<path d="M144.4 196.2L171.6 210.63L224.7 200.33L232.24 215.94C232.24 215.94 183.71 237.2 170.16 237.44C156.61 237.67 131.97 221.7 131.97 221.7L144.39 196.2H144.4Z" fill="#FFBF9D"/>
<path d="M209.99 211.35C209.99 211.35 203.54 210.1 202.37 214.92C201.2 219.74 206.99 220.95 206.99 220.95C206.99 220.95 205.92 224.28 211.5 226.02C217.07 227.76 218.16 221.71 218.16 221.71C218.16 221.71 223.4 223.43 223.8 220.05C224.39 215.04 220.32 214.64 220.32 214.64C220.32 214.64 224.34 209.74 217.77 207.8C211.2 205.86 209.99 211.35 209.99 211.35ZM216.96 209.92C220.75 210.72 218.26 215.45 218.26 215.45C218.26 215.45 222.55 216.43 221.7 218.96C220.85 221.49 216.63 219.84 216.63 219.84C216.63 219.84 218.18 224.16 212.98 224.21C207.78 224.26 209.93 219.79 209.93 219.79C209.93 219.79 205.71 220.18 204.82 216.17C203.92 212.16 211.21 213.35 211.21 213.35C211.43 209.95 213.16 209.12 216.96 209.92Z" fill="#FF9482"/>
<g opacity="0.3">
<path d="M209.99 211.35C209.99 211.35 203.54 210.1 202.37 214.92C201.2 219.74 206.99 220.95 206.99 220.95C206.99 220.95 205.92 224.28 211.5 226.02C217.07 227.76 218.16 221.71 218.16 221.71C218.16 221.71 223.4 223.43 223.8 220.05C224.39 215.04 220.32 214.64 220.32 214.64C220.32 214.64 224.34 209.74 217.77 207.8C211.2 205.86 209.99 211.35 209.99 211.35ZM216.96 209.92C220.75 210.72 218.26 215.45 218.26 215.45C218.26 215.45 222.55 216.43 221.7 218.96C220.85 221.49 216.63 219.84 216.63 219.84C216.63 219.84 218.18 224.16 212.98 224.21C207.78 224.26 209.93 219.79 209.93 219.79C209.93 219.79 205.71 220.18 204.82 216.17C203.92 212.16 211.21 213.35 211.21 213.35C211.43 209.95 213.16 209.12 216.96 209.92Z" fill="black"/>
</g>
<path d="M210.09 210.1C210.09 210.1 203.64 208.84 202.47 213.66C201.3 218.48 207.09 219.69 207.09 219.69C207.09 219.69 206.02 223.02 211.6 224.76C217.17 226.5 218.27 220.45 218.27 220.45C218.27 220.45 223.51 222.17 223.91 218.79C224.5 213.78 220.43 213.38 220.43 213.38C220.43 213.38 224.45 208.48 217.88 206.54C211.31 204.6 210.1 210.09 210.1 210.09L210.09 210.1ZM217.06 208.67C220.86 209.48 218.36 214.21 218.36 214.21C218.36 214.21 222.65 215.19 221.8 217.71C220.95 220.24 216.73 218.59 216.73 218.59C216.73 218.59 218.28 222.91 213.08 222.97C207.88 223.03 210.03 218.54 210.03 218.54C210.03 218.54 205.81 218.93 204.92 214.93C204.02 210.92 211.31 212.11 211.31 212.11C211.51 208.71 213.26 207.88 217.06 208.68V208.67Z" fill="#FF9482"/>
<path d="M213.02 165.39C213.02 165.39 206.53 166.41 207.08 171.34C207.63 176.27 213.48 175.43 213.48 175.43C213.48 175.43 213.62 178.92 219.45 178.66C225.28 178.4 224.24 172.33 224.24 172.33C224.24 172.33 229.75 172.16 228.97 168.85C227.82 163.94 223.85 164.95 223.85 164.95C223.85 164.95 225.96 158.97 219.12 159.39C212.28 159.8 213.02 165.38 213.02 165.38V165.39ZM219.08 161.67C222.92 161.13 222.19 166.43 222.19 166.43C222.19 166.43 226.55 165.88 226.62 168.55C226.69 171.22 222.15 171.11 222.15 171.11C222.15 171.11 225.08 174.64 220.21 176.47C215.34 178.29 215.83 173.35 215.83 173.35C215.83 173.35 212 175.16 209.79 171.69C207.58 168.22 214.84 166.86 214.84 166.86C213.89 163.59 215.23 162.22 219.08 161.68V161.67Z" fill="#FF9482"/>
<g opacity="0.3">
<path d="M213.02 165.39C213.02 165.39 206.53 166.41 207.08 171.34C207.63 176.27 213.48 175.43 213.48 175.43C213.48 175.43 213.62 178.92 219.45 178.66C225.28 178.4 224.24 172.33 224.24 172.33C224.24 172.33 229.75 172.16 228.97 168.85C227.82 163.94 223.85 164.95 223.85 164.95C223.85 164.95 225.96 158.97 219.12 159.39C212.28 159.8 213.02 165.38 213.02 165.38V165.39ZM219.08 161.67C222.92 161.13 222.19 166.43 222.19 166.43C222.19 166.43 226.55 165.88 226.62 168.55C226.69 171.22 222.15 171.11 222.15 171.11C222.15 171.11 225.08 174.64 220.21 176.47C215.34 178.29 215.83 173.35 215.83 173.35C215.83 173.35 212 175.16 209.79 171.69C207.58 168.22 214.84 166.86 214.84 166.86C213.89 163.59 215.23 162.22 219.08 161.68V161.67Z" fill="black"/>
</g>
<path d="M212.69 164.19C212.69 164.19 206.2 165.21 206.75 170.14C207.3 175.07 213.15 174.23 213.15 174.23C213.15 174.23 213.29 177.72 219.12 177.46C224.95 177.2 223.92 171.14 223.92 171.14C223.92 171.14 229.43 170.97 228.65 167.66C227.5 162.75 223.53 163.76 223.53 163.76C223.53 163.76 225.64 157.78 218.8 158.2C211.96 158.61 212.69 164.19 212.69 164.19ZM218.75 160.47C222.6 159.93 221.86 165.23 221.86 165.23C221.86 165.23 226.22 164.68 226.29 167.35C226.36 170.01 221.82 169.91 221.82 169.91C221.82 169.91 224.75 173.45 219.89 175.27C215.02 177.1 215.51 172.15 215.51 172.15C215.51 172.15 211.68 173.96 209.47 170.5C207.26 167.04 214.52 165.67 214.52 165.67C213.55 162.41 214.91 161.03 218.75 160.48V160.47Z" fill="#FF9482"/>
<path d="M202.87 189.12C202.87 189.12 198.77 189.3 198.53 192.27C198.28 195.24 199.43 200.1 206.55 201.16C213.66 202.22 214.52 193.36 214.52 193.36C214.52 193.36 212.47 188.72 202.87 189.12Z" fill="#E0E0E0"/>
<g opacity="0.21">
<path d="M206.91 197.13C210.85 197.31 213.19 195.61 214.36 194.36C214.48 193.75 214.53 193.37 214.53 193.37C214.53 193.37 212.47 188.73 202.88 189.13C202.88 189.13 198.78 189.31 198.54 192.28C198.54 192.48 198.54 192.69 198.51 192.89C200.01 194.53 202.87 196.94 206.92 197.13H206.91Z" fill="#382634"/>
</g>
<path d="M203.66 187.18L202.49 192.31C202.49 192.31 204.53 194.72 207.51 194.55C210.49 194.38 210.48 193.27 210.48 193.27L211.71 188.01C211.71 188.01 209.08 186.08 206.19 186C203.3 185.92 203.67 187.17 203.67 187.17L203.66 187.18Z" fill="#E0E0E0"/>
<path d="M181.49 223.7C181.49 223.7 178.89 226.87 180.94 229.03C182.99 231.19 187.38 233.58 192.91 228.98C198.44 224.38 192.41 217.84 192.41 217.84C192.41 217.84 187.58 216.28 181.48 223.69L181.49 223.7Z" fill="#E0E0E0"/>
<g opacity="0.21">
<path d="M190.15 226.02C192.91 223.21 193.21 220.33 193.06 218.62C192.68 218.12 192.43 217.83 192.43 217.83C192.43 217.83 187.6 216.27 181.5 223.69C181.5 223.69 178.9 226.86 180.95 229.02C181.1 229.15 181.26 229.29 181.39 229.45C183.61 229.43 187.31 228.9 190.16 226.01L190.15 226.02Z" fill="#382634"/>
</g>
<path d="M180.57 221.82L183.62 226.12C183.62 226.12 186.78 226.2 188.64 223.88C190.5 221.55 189.66 220.81 189.66 220.81L186.56 216.39C186.56 216.39 183.37 217.07 181.39 219.17C179.4 221.27 180.58 221.83 180.58 221.83L180.57 221.82Z" fill="#E0E0E0"/>
<path d="M227.51 223.47C227.51 223.47 230.29 225.43 231.94 223.61C233.6 221.79 235.31 218.02 231.18 213.72C227.05 209.42 222.01 214.8 222.01 214.8C222.01 214.8 221.02 218.89 227.51 223.47Z" fill="#E0E0E0"/>
<g opacity="0.21">
<path d="M228.91 216.19C227.22 214.62 224.91 213.9 222.62 214.23C222.24 214.56 222.01 214.8 222.01 214.8C222.01 214.8 221.02 218.89 227.51 223.47C227.51 223.47 230.29 225.43 231.94 223.61C232.05 223.49 232.16 223.35 232.27 223.21C232.11 220.52 230.9 217.99 228.9 216.19H228.91Z" fill="#382634"/>
</g>
<path d="M226.01 224.38L229.37 221.6C229.26 220.02 228.47 218.56 227.21 217.59C225.17 216.2 224.62 216.93 224.62 216.93L221.15 219.76C221.64 221.34 222.54 222.76 223.75 223.87C225.62 225.35 226 224.37 226 224.37L226.01 224.38Z" fill="#E0E0E0"/>
<path d="M211.32 257.83C211.32 257.83 204.25 260.64 199.53 251.69C194.81 242.73 195.52 234.35 201.93 232.45C208.34 230.54 210.44 233.75 211.75 236.07C213.06 238.39 216.2 243.57 216.77 248.26C217.06 250.9 215.6 256.52 211.32 257.84V257.83Z" fill="#AE4E3C"/>
<path opacity="0.3" d="M211.21 255.24C212.58 254.62 213.71 253.57 214.42 252.24L214.39 252.29L214.44 252.22L214.55 252.05C214.62 251.94 214.67 251.8 214.72 251.68L214.78 251.58L214.73 251.66C215.14 250.48 215.24 249.22 215.03 247.99C214.95 247.25 214.77 246.53 214.49 245.85C214.21 245.17 213.68 244.61 213.01 244.3C212.24 244.01 211.37 244.09 210.67 244.53C209.98 244.97 209.45 245.61 209.15 246.38C208.86 247.08 208.74 247.83 208.48 248.54C208.27 249.27 207.77 249.89 207.11 250.26C206.54 250.52 205.88 250.48 205.29 250.69C204.25 251.11 203.68 252.23 203.95 253.32C204.22 254.31 205.15 254.98 206.1 255.35C207.76 255.99 209.6 255.95 211.23 255.25L211.21 255.24Z" fill="#6F4032"/>
<path opacity="0.3" d="M203.96 233.47C202.47 233.69 201.1 234.4 200.07 235.48L200.1 235.43L200.05 235.5L199.91 235.65C199.84 235.77 199.73 235.86 199.65 235.96L199.59 236.06L199.64 235.98C198.92 236.99 198.46 238.16 198.31 239.39C198.18 240.11 198.15 240.85 198.24 241.58C198.33 242.32 198.68 242.99 199.24 243.48C199.9 243.97 200.75 244.13 201.54 243.91C202.32 243.68 203.01 243.2 203.51 242.55C203.98 241.96 204.3 241.27 204.73 240.65C205.14 240.01 205.78 239.55 206.53 239.38C207.14 239.29 207.77 239.51 208.4 239.46C209.51 239.34 210.37 238.43 210.42 237.31C210.43 236.28 209.73 235.39 208.91 234.77C207.49 233.72 205.72 233.26 203.97 233.49L203.96 233.47Z" fill="#6F4032"/>
<path opacity="0.3" d="M205.11 245.19C204.83 245.19 204.55 245.25 204.29 245.36L202.67 245.91C202.25 246.05 201.78 246.25 201.64 246.69C201.56 246.98 201.66 247.29 201.91 247.46C202.15 247.63 202.45 247.69 202.73 247.61H202.66C203.55 247.57 204.41 247.3 205.16 246.82C205.38 246.7 205.56 246.53 205.71 246.32C205.85 246.11 205.88 245.85 205.79 245.61C205.66 245.36 205.4 245.19 205.11 245.19Z" fill="#6F4032"/>
<path d="M198.25 236.83C198.25 236.83 198.08 237.36 197.86 238.23C197.29 240.5 197.35 242.88 198.03 245.11C198.29 245.97 198.52 246.47 198.49 246.49C198.41 246.39 198.35 246.27 198.3 246.15C198.14 245.83 198.01 245.5 197.89 245.16C197.12 242.91 197.06 240.48 197.72 238.19C197.82 237.85 197.94 237.51 198.08 237.18C198.12 237.05 198.18 236.94 198.26 236.83H198.25Z" fill="white"/>
<path d="M200.16 234.43C200.16 234.43 200 234.75 199.7 235.06C199.41 235.37 199.14 235.57 199.08 235.53C199.02 235.49 199.24 235.21 199.54 234.9C199.84 234.59 200.12 234.39 200.16 234.43Z" fill="white"/>
<path d="M201.86 253.22C201.19 252.81 200.71 252.15 200.53 251.38C200.77 251.67 200.99 251.98 201.18 252.31C201.43 252.6 201.65 252.9 201.86 253.22Z" fill="white"/>
<path d="M220.44 189.58C220.44 189.58 214.9 186.98 217.55 179.27C220.21 171.56 225.52 167.37 230.17 170.07C234.82 172.78 234.09 175.78 233.46 177.83C232.82 179.88 231.51 184.58 229.07 187.49C227.68 189.12 223.58 191.35 220.44 189.57V189.58Z" fill="#AE4E3C"/>
<path opacity="0.3" d="M221.89 188.08C223.01 188.55 224.25 188.63 225.42 188.31H225.37H225.44L225.6 188.28C225.71 188.26 225.81 188.21 225.91 188.17L226 188.15H225.92C226.84 187.75 227.63 187.12 228.24 186.32C228.63 185.87 228.95 185.37 229.2 184.82C229.44 184.28 229.48 183.66 229.29 183.09C229.04 182.48 228.51 182.01 227.87 181.84C227.23 181.67 226.56 181.72 225.95 181.97C225.38 182.18 224.87 182.53 224.31 182.77C223.76 183.05 223.13 183.1 222.54 182.91C222.08 182.72 221.74 182.31 221.28 182.08C220.46 181.7 219.49 181.98 219 182.74C218.57 183.44 218.68 184.36 219 185.12C219.54 186.44 220.57 187.5 221.88 188.07L221.89 188.08Z" fill="#6F4032"/>
<path opacity="0.3" d="M230.68 171.83C229.73 171.08 228.56 170.67 227.35 170.65H227.4H227.33H227.17C227.06 170.67 226.95 170.65 226.84 170.67L226.75 170.69H226.83C225.84 170.81 224.9 171.19 224.09 171.77C223.59 172.09 223.15 172.48 222.76 172.93C222.38 173.39 222.17 173.97 222.2 174.57C222.27 175.23 222.65 175.82 223.22 176.16C223.79 176.49 224.45 176.63 225.1 176.57C225.7 176.52 226.29 176.33 226.89 176.24C227.49 176.12 228.12 176.25 228.63 176.59C229.02 176.9 229.24 177.39 229.61 177.73C230.29 178.32 231.3 178.32 231.99 177.73C232.6 177.17 232.74 176.27 232.65 175.44C232.49 174.03 231.78 172.73 230.68 171.83Z" fill="#6F4032"/>
<path opacity="0.3" d="M224.44 178.97C224.28 178.81 224.1 178.68 223.89 178.58L222.67 177.93C222.36 177.76 221.98 177.59 221.65 177.75C221.44 177.86 221.31 178.09 221.34 178.33C221.37 178.56 221.5 178.77 221.71 178.89L221.67 178.85C222.18 179.35 222.82 179.7 223.51 179.88C223.7 179.94 223.9 179.96 224.1 179.93C224.3 179.9 224.47 179.77 224.56 179.59C224.64 179.37 224.59 179.13 224.44 178.96V178.97Z" fill="#6F4032"/>
<path d="M225.56 170.33C225.56 170.33 225.15 170.52 224.53 170.87C222.89 171.78 221.52 173.13 220.58 174.76C220.22 175.38 220.05 175.8 220.03 175.79C220.05 175.69 220.08 175.58 220.12 175.49C220.22 175.22 220.34 174.96 220.48 174.71C221.38 173.02 222.77 171.64 224.48 170.77C224.73 170.64 225 170.52 225.27 170.43C225.37 170.38 225.47 170.35 225.57 170.34L225.56 170.33Z" fill="white"/>
<path d="M228.02 170.13C228.02 170.13 227.74 170.21 227.4 170.21C227.06 170.21 226.79 170.16 226.78 170.1C226.77 170.04 227.06 170.02 227.41 170.02C227.76 170.02 228.03 170.08 228.03 170.12L228.02 170.13Z" fill="white"/>
<path d="M217.93 181.49C217.8 180.87 217.93 180.22 218.28 179.7C218.24 180 218.18 180.3 218.09 180.59C218.06 180.89 218.01 181.19 217.93 181.49Z" fill="white"/>
<path d="M197.37 189.94C194.13 191.68 190.08 190.47 188.34 187.22C186.6 183.98 187.81 179.93 191.06 178.19C194.29 176.45 198.31 177.65 200.07 180.87C201.83 184.1 200.64 188.15 197.41 189.92C197.4 189.92 197.38 189.93 197.37 189.94Z" fill="#D2FF6C"/>
<g opacity="0.5">
<path d="M197.37 189.94C194.13 191.68 190.08 190.47 188.34 187.22C186.6 183.98 187.81 179.93 191.06 178.19C194.29 176.45 198.31 177.65 200.07 180.87C201.83 184.1 200.64 188.15 197.41 189.92C197.4 189.92 197.38 189.93 197.37 189.94Z" fill="#FF9482"/>
</g>
<path d="M196.75 188.8C193.51 190.54 189.46 189.33 187.72 186.08C185.98 182.84 187.19 178.79 190.44 177.05C193.67 175.31 197.69 176.51 199.45 179.73C201.21 182.96 200.02 187.01 196.79 188.78C196.78 188.78 196.76 188.79 196.75 188.8Z" fill="#D2FF6C"/>
<g opacity="0.3">
<path d="M195.45 186.42C193.56 187.44 191.2 186.75 190.18 184.86C189.16 182.97 189.85 180.61 191.74 179.59C193.63 178.57 195.99 179.26 197.01 181.15C198.03 183.04 197.33 185.39 195.45 186.42Z" fill="white"/>
</g>
<path d="M194.78 185.15C192.91 185.52 191.4 185.07 191.42 184.15C190.77 182.95 191.22 181.44 192.42 180.79C193.62 180.14 195.13 180.59 195.78 181.79C196.43 182.99 195.99 184.49 194.79 185.14C194.79 185.14 194.79 185.14 194.78 185.14V185.15Z" fill="#D2FF6C"/>
<path d="M233.16 193.74C236.1 192.29 239.67 193.5 241.12 196.44C242.57 199.38 241.36 202.95 238.42 204.4C235.48 205.85 231.91 204.64 230.46 201.7C229.01 198.76 230.22 195.19 233.16 193.74Z" fill="#D2FF6C"/>
<g opacity="0.5">
<path d="M233.16 193.74C236.1 192.29 239.67 193.5 241.12 196.44C242.57 199.38 241.36 202.95 238.42 204.4C235.48 205.85 231.91 204.64 230.46 201.7C229.01 198.76 230.22 195.19 233.16 193.74Z" fill="#FF9482"/>
</g>
<path d="M238.07 203.31C235.19 204.86 231.59 203.78 230.04 200.89C228.49 198.01 229.57 194.41 232.46 192.86C235.33 191.32 238.91 192.38 240.47 195.24C242.04 198.11 240.98 201.72 238.11 203.28C238.1 203.28 238.09 203.29 238.08 203.3L238.07 203.31Z" fill="#D2FF6C"/>
<g opacity="0.3">
<path d="M231.97 197.15C232.52 195.33 234.44 194.29 236.26 194.84C238.08 195.39 239.12 197.31 238.57 199.13C238.02 200.95 236.1 201.99 234.28 201.44C232.46 200.89 231.42 198.97 231.97 197.15Z" fill="white"/>
</g>
<path d="M236.32 200.07C235.25 200.65 233.91 200.25 233.34 199.18C232.76 198.11 233.16 196.77 234.23 196.2C235.3 195.62 236.63 196.02 237.21 197.09C237.79 198.16 237.4 199.5 236.33 200.08L236.32 200.07Z" fill="#D2FF6C"/>
<path d="M178.74 235.77C178.44 238.95 179.65 242.09 182.01 244.24C184.25 246.36 187.37 247.26 190.39 246.65C190.65 240.89 186.2 236.01 180.45 235.75C179.88 235.72 179.31 235.75 178.74 235.81V235.78V235.77Z" fill="#64455E"/>
<path d="M181.35 237.96C181.45 237.88 183.25 240.22 185.86 242.72C188.47 245.22 190.87 246.95 190.79 247.05C190.2 246.79 189.64 246.45 189.14 246.04C186.61 244.21 184.34 242.03 182.42 239.57C181.98 239.09 181.62 238.55 181.34 237.96H181.35Z" fill="#382634"/>
<path d="M200.35 156.88C198.21 159.25 197.31 162.49 197.91 165.62C198.44 168.66 200.41 171.24 203.2 172.56C206.85 168.1 206.2 161.53 201.74 157.88C201.3 157.52 200.83 157.19 200.33 156.91L200.35 156.88Z" fill="#64455E"/>
<path d="M201.13 160.2C201.26 160.2 201.3 163.15 201.91 166.71C202.52 170.27 203.39 173.1 203.28 173.13C202.96 172.57 202.72 171.96 202.56 171.34C201.62 168.36 201.11 165.26 201.04 162.14C200.98 161.49 201.01 160.84 201.14 160.21L201.13 160.2Z" fill="#382634"/>
<path d="M262.36 213.22C259.1 210.7 254.84 209.86 250.87 210.94C247.01 211.93 243.86 214.73 242.44 218.45C248.57 222.72 257 221.22 261.27 215.09C261.68 214.5 262.05 213.87 262.36 213.22Z" fill="#64455E"/>
<path d="M258.2 214.56C258.22 214.73 254.43 215.05 249.89 216.21C245.35 217.37 241.81 218.77 241.74 218.61C242.44 218.14 243.2 217.77 244 217.51C245.87 216.75 247.79 216.13 249.75 215.65C251.71 215.15 253.7 214.8 255.71 214.58C256.54 214.46 257.37 214.45 258.2 214.56Z" fill="#382634"/>
<path d="M195.24 207.76C195.22 209.18 193.01 210.3 190.31 210.26C187.61 210.22 185.44 209.03 185.46 207.62C185.41 208.16 185.4 208.71 185.43 209.25C185.41 210.67 187.58 211.86 190.28 211.9C192.98 211.95 195.19 210.83 195.21 209.4C195.25 208.85 195.26 208.3 195.24 207.76Z" fill="#64455E"/>
<path d="M190.36 206.73C192.52 206.76 194.34 207.53 194.97 208.57C195.14 208.33 195.23 208.05 195.24 207.76C195.26 206.34 193.09 205.15 190.39 205.11C187.69 205.06 185.48 206.18 185.45 207.62C185.45 207.91 185.53 208.19 185.69 208.44C186.36 207.42 188.2 206.7 190.36 206.74V206.73Z" fill="#382634"/>
<path d="M224.07 195.1C224.63 195.64 224.25 196.95 223.22 198.02C222.19 199.09 220.89 199.52 220.33 198.98C220.53 199.2 220.74 199.41 220.97 199.6C221.53 200.14 222.83 199.72 223.86 198.65C224.89 197.58 225.27 196.27 224.71 195.72C224.51 195.5 224.29 195.29 224.06 195.09L224.07 195.1Z" fill="#64455E"/>
<path d="M221.83 196.67C222.66 195.81 223.65 195.37 224.3 195.5C224.27 195.34 224.19 195.2 224.07 195.09C223.51 194.55 222.21 194.97 221.18 196.04C220.15 197.11 219.77 198.42 220.34 198.97C220.46 199.08 220.6 199.15 220.76 199.18C220.6 198.53 221 197.52 221.83 196.66V196.67Z" fill="#382634"/>
<path d="M231.6 144.59C231.98 145.7 230.59 147.18 228.49 147.9C226.39 148.62 224.38 148.31 224 147.22C224.11 147.65 224.26 148.08 224.43 148.49C224.81 149.6 226.82 149.9 228.92 149.18C231.02 148.46 232.41 146.97 232.03 145.87C231.91 145.44 231.77 145.01 231.59 144.59H231.6Z" fill="#64455E"/>
<path d="M227.55 145.16C229.23 144.58 230.85 144.66 231.62 145.29C231.68 145.06 231.67 144.82 231.6 144.59C231.22 143.48 229.21 143.18 227.11 143.9C225.01 144.62 223.62 146.11 224 147.22C224.08 147.44 224.22 147.64 224.41 147.78C224.64 146.8 225.86 145.74 227.54 145.16H227.55Z" fill="#382634"/>
<path d="M235.88 226.36L222.04 237.52C221.61 237.86 221.53 238.48 221.84 238.93C222.73 240.21 224.1 241.43 226.07 242.52C236.07 248.05 242.35 237.68 240.96 231.64C240.51 229.7 239.13 227.72 237.13 226.32C236.75 226.05 236.24 226.08 235.88 226.37V226.36Z" fill="#FF9482"/>
<path opacity="0.3" d="M235.88 226.36L222.04 237.52C221.61 237.86 221.53 238.48 221.84 238.93C222.73 240.21 224.1 241.43 226.07 242.52C236.07 248.05 242.35 237.68 240.96 231.64C240.51 229.7 239.13 227.72 237.13 226.32C236.75 226.05 236.24 226.08 235.88 226.37V226.36Z" fill="black"/>
<path d="M235.14 225.69L221.3 236.85C220.87 237.19 220.79 237.81 221.1 238.26C221.99 239.54 223.36 240.76 225.33 241.85C235.33 247.38 241.61 237.01 240.22 230.97C239.77 229.03 238.39 227.05 236.39 225.65C236.01 225.38 235.5 225.41 235.14 225.7V225.69Z" fill="#FF9482"/>
<path opacity="0.3" d="M233.98 227.02C234.34 226.5 238.85 228.12 238.83 231.89C238.81 235.65 237.75 238.46 236.08 238.55C234.41 238.64 232.32 235.57 232.24 232.76C232.16 229.95 233.55 227.64 233.98 227.02Z" fill="black"/>
<path opacity="0.3" d="M222.74 236.65C222.77 235.92 226.57 233.84 229.09 234.31C231.62 234.78 234.54 238.95 234.43 240.06C234.32 241.21 229.61 241.82 227.26 241.02C224.91 240.22 222.69 237.73 222.73 236.65H222.74Z" fill="black"/>
<path d="M227.35 235.51C227.05 235.19 224.14 237.11 224.79 237.77C225.44 238.43 228 236.2 227.35 235.51Z" fill="#FF9482"/>
<path d="M231.11 237.06C231.52 236.94 232.95 240.05 231.89 240.1C230.83 240.14 230.71 237.18 231.11 237.06Z" fill="#FF9482"/>
<path d="M229.4 236.18C229.9 236.28 229.45 240.34 228.08 240.2C226.71 240.06 228.9 236.08 229.4 236.18Z" fill="#FF9482"/>
<path d="M233.81 231.51C233.56 230.74 237.3 229.82 237.41 230.63C237.52 231.44 234.14 232.54 233.81 231.51Z" fill="#FF9482"/>
<path d="M233.78 230.02C234.2 230.36 236.11 228.82 235.56 228.34C235.01 227.86 233.36 229.68 233.78 230.02Z" fill="#FF9482"/>
<path d="M233.59 233.09C233.56 233.4 236.91 234.17 236.8 233.51C236.7 232.85 233.67 232.32 233.59 233.09Z" fill="#FF9482"/>
<path d="M233.15 234.36C232.78 234.95 234.8 237.19 235.32 236.72C235.84 236.24 233.67 233.52 233.15 234.36Z" fill="#FF9482"/>
<path d="M232.38 228.4C232.38 228.4 232.31 228.5 232.15 228.67C232 228.84 231.77 229.08 231.49 229.37C230.92 229.95 230.1 230.72 229.15 231.52C228.2 232.32 227.29 232.98 226.62 233.44C226.28 233.67 226.01 233.85 225.81 233.97C225.62 234.09 225.51 234.15 225.5 234.15C225.5 234.15 225.6 234.07 225.78 233.93C225.98 233.78 226.25 233.59 226.56 233.37C227.22 232.89 228.11 232.22 229.06 231.42C230.01 230.63 230.84 229.87 231.42 229.3C231.7 229.03 231.93 228.81 232.11 228.63C232.27 228.47 232.37 228.39 232.37 228.39L232.38 228.4Z" fill="white"/>
<path d="M101.53 146.54C101.53 146.54 115.47 157.62 119.9 164.51C124.33 171.41 159.79 195.56 159.3 196.41C158.81 197.26 137.63 232.23 137.63 232.23L125.86 226.29L101.53 147.77" fill="#9A82FF"/>
<path d="M51.9901 275.74C51.9901 275.74 25.5501 317.46 22.8801 333.35L51.9901 345.27V275.74Z" fill="#9A82FF"/>
<path d="M34.43 140.77C34.43 141.82 29.45 154.92 29.45 154.92L3.5 183.5L53.56 265.02L58.54 277.34L135.6 272.88C135.6 272.88 124.59 214.43 123.81 204.73C123.02 195.03 101.53 146.54 101.53 146.54L75.58 149.42L67.98 146.8L34.43 140.77Z" fill="#9A82FF"/>
<path d="M50.39 276.14C49.42 275.75 44.38 292.58 35.82 323.36C27.26 354.14 33.12 417.03 33.12 417.03H166.01C166.01 417.03 157.22 347.4 145.74 313.54C134.41 280.13 135.01 259.13 132.49 259.35C129.97 259.57 50.39 276.13 50.39 276.13V276.14Z" fill="#263238"/>
<path d="M127.64 229.16C127.64 229.16 127.61 229.09 127.57 228.94C127.53 228.76 127.48 228.54 127.42 228.28C127.3 227.69 127.12 226.83 126.86 225.73C126.34 223.52 125.53 220.34 124.22 216.5C122.92 212.67 121.2 208.14 118.7 203.41C116.07 198.75 112.83 193.81 109.15 188.85C101.8 178.89 94.06 170.72 88.02 165.32C85.02 162.59 82.42 160.59 80.63 159.2C79.74 158.55 79.04 158.04 78.52 157.67C78.3 157.51 78.12 157.37 77.98 157.26C77.86 157.17 77.8 157.11 77.8 157.11C77.8 157.11 77.87 157.14 78 157.22C78.16 157.32 78.34 157.44 78.57 157.59C79.1 157.95 79.83 158.43 80.74 159.05C82.57 160.4 85.22 162.35 88.26 165.06C94.38 170.4 102.2 178.56 109.56 188.56C113.25 193.55 116.49 198.5 119.11 203.21C121.61 207.99 123.3 212.55 124.56 216.41C125.83 220.28 126.59 223.48 127.05 225.71C127.28 226.82 127.43 227.69 127.52 228.28C127.56 228.55 127.59 228.77 127.62 228.95C127.64 229.1 127.64 229.18 127.64 229.18V229.16Z" fill="#263238"/>
<path d="M3.50008 183.5C3.50008 183.5 -1.38992 189.14 0.400079 201.85C2.19008 214.56 22.8801 272.15 22.8801 272.15L68.2401 256.85L44.2001 209.06L27.5401 188.18L3.49008 183.5H3.50008Z" fill="#9A82FF"/>
<path d="M125.85 216.96C125.85 216.96 125.78 216.81 125.69 216.51C125.59 216.15 125.47 215.72 125.33 215.2C125 213.98 124.57 212.35 124.04 210.37C122.93 206.3 121.32 200.7 119.3 194.6C117.27 188.49 115.23 183.04 113.69 179.11C112.94 177.21 112.31 175.64 111.85 174.47C111.66 173.97 111.49 173.55 111.36 173.2C111.25 172.91 111.2 172.75 111.22 172.74C111.24 172.74 111.32 172.88 111.45 173.15C111.61 173.49 111.8 173.89 112.03 174.38C112.53 175.45 113.21 177.02 114.03 178.96C115.66 182.85 117.77 188.3 119.8 194.42C121.82 200.54 123.39 206.17 124.4 210.27C124.91 212.32 125.29 213.98 125.53 215.14C125.64 215.67 125.72 216.11 125.8 216.47C125.86 216.78 125.88 216.94 125.86 216.94L125.85 216.96Z" fill="#263238"/>
<path d="M22.8801 272.14C22.8801 272.14 22.9501 272.1 23.0901 272.05C23.2501 271.99 23.4601 271.91 23.7201 271.81C24.3101 271.6 25.1401 271.31 26.2001 270.93C28.4001 270.17 31.5601 269.08 35.5401 267.71C43.5701 264.98 54.9001 261.12 68.1701 256.61L68.0301 256.95C64.1501 249.31 59.9001 240.92 55.4401 232.14C53.0801 227.48 50.7701 222.93 48.5501 218.53C47.4801 216.3 46.2201 214.25 45.0701 212.17C43.9001 210.11 42.7401 208.1 41.5901 206.15C39.2901 202.26 36.9901 198.62 34.5701 195.42C33.3501 193.83 32.1001 192.35 30.7801 191.04C29.4701 189.72 28.0301 188.67 26.5801 187.78C23.6801 185.99 20.7601 184.9 18.1301 184.26C15.5001 183.61 13.1601 183.41 11.2501 183.39C9.34009 183.36 7.86009 183.56 6.86009 183.67C6.38009 183.75 6.01009 183.8 5.73009 183.85C5.47009 183.89 5.34009 183.9 5.34009 183.89C5.34009 183.89 5.47009 183.85 5.72009 183.79C6.00009 183.73 6.37009 183.66 6.85009 183.56C7.85009 183.42 9.33009 183.18 11.2501 183.18C13.1701 183.17 15.5301 183.34 18.2001 183.97C20.8601 184.59 23.8301 185.66 26.7701 187.46C28.2401 188.35 29.7201 189.42 31.0601 190.75C32.4001 192.07 33.6701 193.56 34.9101 195.16C37.3601 198.38 39.6801 202.02 42.0001 205.91C43.1601 207.86 44.3201 209.87 45.4901 211.93C46.6401 214 47.9201 216.07 48.9901 218.29C51.2201 222.69 53.5301 227.24 55.8901 231.9C60.3401 240.69 64.5801 249.08 68.4501 256.73L68.5801 256.98L68.3101 257.07C55.0201 261.51 43.6701 265.3 35.6201 267.99C31.6201 269.31 28.4501 270.35 26.2401 271.08C25.1701 271.42 24.3301 271.69 23.7401 271.88C23.4701 271.96 23.2601 272.03 23.0901 272.08C22.9401 272.12 22.8701 272.14 22.8701 272.13L22.8801 272.14Z" fill="#263238"/>
<path d="M65.8602 173.54C65.7902 173.67 57.6202 169.59 47.6202 164.43C37.6102 159.27 29.5502 154.98 29.6102 154.86C29.6802 154.73 37.8402 158.81 47.8602 163.97C57.8702 169.13 65.9302 173.42 65.8702 173.54H65.8602Z" fill="#263238"/>
<path d="M75.7201 150.08C75.8601 150.07 76.3001 154.39 76.7101 159.72C77.1101 165.06 77.3201 169.39 77.1801 169.4C77.0401 169.41 76.6001 165.1 76.1901 159.76C75.7901 154.43 75.5801 150.09 75.7201 150.08Z" fill="#263238"/>
<path d="M87.81 168.04C87.81 168.04 87.7 168.09 87.49 168.16C87.25 168.24 86.94 168.34 86.54 168.47C85.7 168.73 84.48 169.13 82.9 169.67C79.75 170.75 75.23 172.42 69.73 174.7C64.23 176.98 57.75 179.85 50.65 183.26C48.89 184.16 46.93 184.77 45.25 185.88C44.43 186.44 43.7 187.17 43.4 188.12C43.07 189.05 43.19 190.11 43.57 191.05C44.38 192.97 46.07 194.43 47.55 196.07C48.3 196.88 49.06 197.7 49.83 198.53C50.56 199.39 51.29 200.25 52.03 201.12C54.93 204.63 57.61 208.19 60 211.75C62.43 215.29 64.6 218.82 66.61 222.21C70.59 229.02 73.84 235.33 76.45 240.69C79.05 246.05 81.04 250.45 82.37 253.5C83.02 255.01 83.53 256.19 83.89 257.02C84.05 257.4 84.17 257.71 84.27 257.94C84.35 258.15 84.39 258.26 84.38 258.26C84.38 258.26 84.32 258.16 84.22 257.96C84.11 257.73 83.97 257.43 83.79 257.06C83.41 256.23 82.87 255.07 82.18 253.58C80.79 250.56 78.75 246.19 76.11 240.85C73.46 235.52 70.19 229.23 66.19 222.45C64.18 219.07 62 215.56 59.58 212.03C57.19 208.48 54.52 204.94 51.64 201.44C50.91 200.58 50.18 199.72 49.45 198.87C48.69 198.05 47.93 197.23 47.18 196.42C45.72 194.8 43.99 193.32 43.1 191.24C42.68 190.21 42.54 189.02 42.92 187.95C43.27 186.86 44.11 186.05 44.97 185.46C46.75 184.3 48.7 183.7 50.44 182.82C57.56 179.44 64.06 176.6 69.58 174.36C75.1 172.12 79.65 170.5 82.82 169.48C84.41 168.97 85.65 168.6 86.49 168.37C86.89 168.26 87.21 168.18 87.45 168.11C87.67 168.05 87.78 168.03 87.78 168.04H87.81Z" fill="#263238"/>
<path opacity="0.3" d="M66.0801 203.8C67.9965 203.8 69.5501 202.246 69.5501 200.33C69.5501 198.414 67.9965 196.86 66.0801 196.86C64.1637 196.86 62.6101 198.414 62.6101 200.33C62.6101 202.246 64.1637 203.8 66.0801 203.8Z" fill="black"/>
<path opacity="0.3" d="M98.5901 190.36C100.507 190.36 102.06 188.806 102.06 186.89C102.06 184.974 100.507 183.42 98.5901 183.42C96.6737 183.42 95.1201 184.974 95.1201 186.89C95.1201 188.806 96.6737 190.36 98.5901 190.36Z" fill="black"/>
<path opacity="0.3" d="M87.8101 233.98C87.8101 235.89 86.2601 237.45 84.3401 237.45C82.4201 237.45 80.8701 235.9 80.8701 233.98C80.8701 232.06 82.4201 230.51 84.3401 230.51C86.2601 230.51 87.8101 232.06 87.8101 233.98Z" fill="black"/>
<path opacity="0.3" d="M116.5 226.4C118.416 226.4 119.97 224.846 119.97 222.93C119.97 221.014 118.416 219.46 116.5 219.46C114.584 219.46 113.03 221.014 113.03 222.93C113.03 224.846 114.584 226.4 116.5 226.4Z" fill="black"/>
<path d="M140.79 276.92C140.85 276.78 141.88 277.13 143.17 277.47C144.45 277.82 145.52 278.05 145.5 278.2C145.49 278.34 144.36 278.34 143.03 277.98C141.7 277.62 140.73 277.05 140.79 276.92Z" fill="#FF9A6C"/>
<path d="M30.04 269.73C30.21 270.63 44.81 291.33 56.49 291.33C68.17 291.33 125.73 274.08 125.73 274.08L119.07 256.24L61.47 264.9L58.63 260.09L30.04 269.73Z" fill="#FFBF9D"/>
<path d="M119.08 256.24C119.38 255.99 130.07 251.37 135.97 250.08C141.87 248.79 145.73 249.33 149.62 251.39C153.51 253.45 162.03 255.77 163.88 257.66C165.28 259.1 164 261.6 161.38 261.34C158.76 261.09 148.69 258.84 148.48 258.86C148.44 258.86 148.38 258.97 148.33 259.13C147.88 260.42 148.27 261.86 149.27 262.8L156.09 269.19C156.09 269.19 156.19 272.05 154.3 272.58C152.41 273.11 150.88 273.92 150.88 273.92C150.88 273.92 150.11 277.78 147.13 278.11C144.14 278.44 135.08 275.54 134.64 275.48C134.2 275.42 125.74 274.07 125.74 274.07L119.08 256.23V256.24Z" fill="#FFBF9D"/>
<path d="M144.16 272.42C144.22 272.28 145.67 272.85 147.51 273.33C149.35 273.82 150.89 274.03 150.88 274.19C150.88 274.33 149.27 274.34 147.38 273.84C145.48 273.35 144.1 272.55 144.16 272.43V272.42Z" fill="#FF9A6C"/>
<path d="M131.37 274.47C134.6 275.98 137.84 277.48 141.07 278.99C141.76 279.31 142.52 279.64 143.27 279.49C144.39 279.26 145.02 278.09 145.49 277.04" fill="#FFBF9D"/>
<path d="M36.7699 60.3C46.8099 52.6 56.9499 51.25 69.7899 51.44C77.0299 51.55 78.1499 47.4 83.3199 48.96C88.4899 50.52 93.0999 53.45 96.0699 57.93C99.5999 63.25 102.51 69.18 103.01 75.54C103.52 82.07 104.03 88.64 103.33 95.15C103.33 95.22 103.32 95.28 103.31 95.35C102.17 105.59 94.1099 113.7 83.9099 115.13L79.7999 115.71C70.5599 115.73 61.1899 115.73 52.2699 113.36C43.3399 110.98 39.1299 134.9 35.7599 126.35C24.3599 97.44 26.6099 68.1 36.7699 60.31V60.3Z" fill="#38361E"/>
<path d="M73.7999 54.21L67.1299 53.22L41.1699 62.6C37.4599 62.67 34.4199 65.57 34.1699 69.27L36.1799 141.38L68.1499 161.54V172.56L76.3399 169.83L72.5799 160.44C72.6099 153.65 72.5399 145.02 72.5399 145.02C72.5399 145.02 89.7499 143.89 94.7099 123.93C97.1799 114 98.1099 97.46 98.4299 83.89C98.7199 71.68 88.8499 54.73 73.7799 54.2L73.7999 54.21Z" fill="#FFBF9D"/>
<path d="M88.8001 100.5C88.7301 101.88 87.5101 102.95 86.0701 102.9C84.6401 102.85 83.5301 101.7 83.6001 100.33C83.6701 98.96 84.8901 97.88 86.3301 97.93C87.7701 97.98 88.8801 99.13 88.8101 100.5H88.8001Z" fill="#38361E"/>
<path d="M74.96 111.9C74.96 111.74 76.72 111.59 79.57 111.48C80.29 111.47 80.98 111.38 81.14 110.91C81.35 110.41 81.12 109.61 80.85 108.76C80.33 106.98 79.78 105.11 79.21 103.15C76.95 95.16 75.38 88.62 75.71 88.53C76.03 88.44 78.13 94.84 80.38 102.83C80.92 104.8 81.44 106.67 81.93 108.47C82.13 109.3 82.51 110.26 82.06 111.3C81.82 111.82 81.26 112.16 80.8 112.24C80.33 112.34 79.93 112.31 79.57 112.3C76.73 112.21 74.97 112.07 74.97 111.91L74.96 111.9Z" fill="#38361E"/>
<path d="M72.5899 145C72.5899 145 58.8999 144.7 46.1099 135.42C46.1099 135.42 52.1099 150.07 72.5299 149.94L72.5799 145H72.5899Z" fill="#FF9A6C"/>
<path d="M93.34 86.09C92.81 86.73 90.71 86.09 88.2 86.09C85.68 86 83.56 86.56 83.06 85.9C82.84 85.58 83.17 84.94 84.1 84.33C85.01 83.72 86.54 83.22 88.27 83.25C90 83.29 91.5 83.85 92.38 84.49C93.28 85.14 93.57 85.79 93.34 86.1V86.09Z" fill="#38361E"/>
<path d="M57.7199 98.5C57.5999 99.87 58.6699 101.1 60.0999 101.25C61.5299 101.4 62.7799 100.41 62.8999 99.04C63.0199 97.67 61.9499 96.44 60.5199 96.29C59.0899 96.14 57.8399 97.13 57.7199 98.51V98.5Z" fill="#38361E"/>
<path d="M55.1399 84.95C55.6599 85.61 57.8499 85.06 60.4499 85.16C63.0499 85.18 65.2299 85.82 65.7699 85.18C66.0099 84.87 65.6899 84.21 64.7599 83.56C63.8399 82.91 62.2799 82.35 60.4899 82.31C58.6999 82.27 57.1299 82.77 56.1899 83.38C55.2399 83.99 54.9099 84.63 55.1299 84.95H55.1399Z" fill="#38361E"/>
<path d="M36.58 103.44C36.71 101.93 35.27 98.23 33.81 97.87C29.89 96.91 22.7 96.6 21.75 106.69C20.46 120.48 36.53 118.69 36.59 118.29C36.64 117.98 36.14 108.64 36.59 103.44H36.58Z" fill="#FFBF9D"/>
<path d="M31.3 113.14C31.24 113.09 31.04 113.29 30.62 113.43C30.21 113.57 29.51 113.64 28.82 113.3C27.41 112.63 26.4 110.2 26.57 107.71C26.65 106.45 27.03 105.28 27.56 104.33C28.08 103.36 28.79 102.72 29.54 102.66C30.29 102.56 30.76 103.05 30.9 103.45C31.05 103.85 30.94 104.12 31.01 104.15C31.05 104.19 31.33 103.95 31.27 103.37C31.24 103.09 31.11 102.75 30.81 102.45C30.5 102.15 30.03 101.97 29.51 101.97C28.44 101.94 27.39 102.83 26.8 103.87C26.15 104.91 25.7 106.22 25.61 107.64C25.44 110.43 26.62 113.16 28.56 113.92C29.51 114.26 30.34 114.05 30.79 113.76C31.25 113.46 31.35 113.16 31.3 113.13V113.14Z" fill="#FF9A6C"/>
<path d="M33.2399 98.28L36.6399 102.03C52.2599 88 83.0399 52.6 81.3199 54.72C81.3199 54.72 71.0699 50.12 59.7399 51.68C48.4099 53.24 26.8399 58.21 26.7499 71.51C26.6599 84.82 33.2499 98.28 33.2499 98.28H33.2399Z" fill="#38361E"/>
<path d="M99.2601 66.18C98.0901 63.62 99.3701 60.53 101.55 58.65C103.73 56.77 106.63 55.83 109.45 54.99C112.27 54.15 115.18 53.33 117.51 51.61C122.12 48.19 123.34 42 122.7 36.51C121.47 26.02 114.62 16.54 105.52 10.39C96.4201 4.25 85.2701 1.21 74.1101 0.279996C50.9001 -1.64 30.0001 6.38 12.2201 20.6C9.30005 22.93 7.47005 26.52 7.30005 30.12C7.17005 32.98 8.85005 35.6 10.5901 37.94C15.9401 45.15 22.2201 50.13 29.5801 55.53L27.5101 67.31L99.2501 66.17L99.2601 66.18Z" fill="#9A82FF"/>
<path d="M116.13 31.43C116.13 31.43 115.91 31.78 115.4 32.3C114.89 32.83 114.1 33.54 113.06 34.33C112.01 35.12 110.71 35.97 109.24 36.87C107.77 37.77 106.14 38.72 104.51 39.83C102.88 40.94 101.43 42.14 100.31 43.41C99.1799 44.68 98.3799 46 97.8799 47.18C96.8699 49.56 97.0599 51.24 96.9499 51.22C96.9299 51.22 96.8499 50.82 96.8799 50.08C96.9099 49.35 97.0699 48.28 97.5399 47.04C98.0099 45.81 98.8099 44.42 99.9499 43.1C101.09 41.77 102.57 40.54 104.22 39.41C105.87 38.28 107.52 37.34 109 36.47C110.48 35.6 111.79 34.79 112.85 34.05C114.98 32.57 116.07 31.38 116.14 31.44L116.13 31.43Z" fill="#38361E"/>
<path d="M104.84 19.66C104.9 19.75 103.2 20.74 100.84 22.8C100.25 23.32 99.61 23.89 98.98 24.56C98.31 25.2 97.69 25.95 97 26.73C95.69 28.33 94.38 30.2 93.22 32.28C92.08 34.38 91.22 36.49 90.57 38.45C90.28 39.44 89.98 40.38 89.8 41.28C89.57 42.17 89.43 43.02 89.31 43.79C88.84 46.89 88.92 48.85 88.81 48.85C88.77 48.85 88.75 48.36 88.73 47.48C88.71 47.04 88.71 46.5 88.76 45.87C88.8 45.24 88.82 44.52 88.95 43.74C89.05 42.95 89.17 42.09 89.38 41.18C89.54 40.26 89.83 39.31 90.12 38.3C90.76 36.3 91.62 34.15 92.78 32.02C93.96 29.9 95.31 28.02 96.65 26.41C97.35 25.63 98 24.87 98.69 24.24C99.34 23.57 100 23.01 100.62 22.51C101.21 21.98 101.81 21.58 102.32 21.21C102.82 20.83 103.28 20.54 103.66 20.32C104.42 19.86 104.84 19.62 104.86 19.66H104.84Z" fill="#38361E"/>
<path d="M78.82 14.3C78.82 14.3 78.83 14.76 78.75 15.58C78.67 16.4 78.57 17.58 78.46 19.04C78.24 21.96 78.07 26 78.22 30.46C78.38 34.92 78.83 38.94 79.25 41.84C79.46 43.29 79.65 44.46 79.78 45.27C79.91 46.08 79.97 46.53 79.93 46.54C79.89 46.54 79.77 46.11 79.58 45.31C79.38 44.51 79.14 43.35 78.88 41.9C78.36 39.01 77.85 34.97 77.69 30.48C77.54 25.99 77.77 21.93 78.09 19.01C78.25 17.55 78.41 16.37 78.55 15.56C78.69 14.75 78.78 14.3 78.82 14.31V14.3Z" fill="#38361E"/>
<path d="M61.8399 9.16C61.8399 9.16 61.8899 9.73 61.8799 10.77C61.8599 11.8 61.8599 13.29 61.8799 15.13C61.9199 18.81 62.1699 23.9 62.8999 29.47C63.6299 35.04 64.6899 40.03 65.5899 43.6C66.0399 45.39 66.4199 46.83 66.6999 47.82C66.9699 48.81 67.1099 49.37 67.0799 49.38C67.0499 49.39 66.8399 48.86 66.5099 47.88C66.1699 46.9 65.7299 45.47 65.2299 43.69C64.2399 40.13 63.1099 35.14 62.3699 29.54C61.6399 23.94 61.4499 18.82 61.4999 15.13C61.5199 13.28 61.5799 11.79 61.6599 10.76C61.7299 9.73 61.7899 9.16 61.8299 9.16H61.8399Z" fill="#38361E"/>
<path d="M29.78 20.91C29.78 20.91 30.19 21.27 30.85 21.99C31.52 22.7 32.45 23.76 33.57 25.1C35.82 27.77 38.79 31.57 41.79 35.97C44.78 40.38 47.23 44.54 48.88 47.61C49.71 49.15 50.35 50.4 50.77 51.28C51.19 52.16 51.41 52.65 51.38 52.67C51.35 52.69 51.07 52.22 50.59 51.38C50.06 50.45 49.38 49.24 48.56 47.79C46.83 44.77 44.34 40.66 41.36 36.26C38.37 31.87 35.46 28.05 33.29 25.33C32.24 24.03 31.37 22.95 30.7 22.12C30.09 21.36 29.76 20.93 29.79 20.91H29.78Z" fill="#38361E"/>
<path d="M28.0701 89.44C24.2601 76.4 26.2601 67.32 28.7601 58.02C28.7601 58.02 59.6301 39.6 85.0701 45.42C85.0701 45.42 100.96 48.61 103.01 56.86L103.46 84.95C103.46 84.95 101.73 73.84 78.5901 72.96C55.4501 72.08 28.0701 89.45 28.0701 89.45V89.44Z" fill="#9A82FF"/>
<path d="M65.13 114.1C65.53 114.13 65.2 116.78 67.23 118.95C69.26 121.13 72.12 121.19 72.1 121.56C72.12 121.73 71.41 121.99 70.21 121.88C69.03 121.77 67.37 121.18 66.13 119.85C64.89 118.52 64.49 116.91 64.54 115.81C64.58 114.69 64.96 114.07 65.14 114.11L65.13 114.1Z" fill="#38361E"/>
<path d="M102.36 56.96C102.36 56.96 102.2 56.72 101.95 56.25C101.82 56.02 101.69 55.72 101.47 55.39C101.25 55.06 101 54.69 100.73 54.27C99.55 52.64 97.43 50.53 94.23 48.86C91.05 47.16 86.87 45.9 82.14 45.26C77.41 44.61 72.11 44.52 66.64 45.26C63.9 45.62 61.26 46.17 58.74 46.82C56.22 47.47 53.84 48.28 51.56 49.03C47.02 50.56 42.98 52.1 39.61 53.46C36.24 54.81 33.55 55.98 31.68 56.78C30.78 57.16 30.07 57.47 29.53 57.7C29.04 57.91 28.77 58.01 28.77 57.99C28.77 57.97 29.01 57.84 29.49 57.6C30.02 57.35 30.72 57.01 31.6 56.59C33.44 55.73 36.12 54.51 39.47 53.11C42.82 51.71 46.85 50.13 51.4 48.57C53.67 47.8 56.06 46.98 58.6 46.32C61.14 45.66 63.8 45.09 66.56 44.73C72.08 43.99 77.43 44.09 82.2 44.77C86.97 45.44 91.19 46.75 94.4 48.52C97.63 50.26 99.75 52.45 100.9 54.13C101.16 54.56 101.4 54.94 101.61 55.29C101.81 55.63 101.93 55.94 102.05 56.18C102.27 56.67 102.38 56.93 102.37 56.93L102.36 56.96Z" fill="#38361E"/>
</g>
<defs>
<clipPath id="clip0_1_8600">
<rect width="273.4" height="417.04" fill="white"/>
</clipPath>
</defs>
</svg>
