<svg width="147" height="67" viewBox="0 0 147 67" fill="none" xmlns="http://www.w3.org/2000/svg">
<path d="M92.599 8.64915L129.871 8.56004C129.871 3.83422 133.705 0 138.431 0C143.156 0 146.991 3.83422 146.991 8.56004V19.6166C146.991 24.3424 143.201 28.1766 138.475 28.1766C133.749 28.1766 129.915 24.3424 129.915 19.6166L92.6436 19.7058C92.6436 24.4317 88.8094 28.2657 84.0836 28.2657C79.3578 28.2657 75.5237 24.4317 75.5237 19.7058V8.64915C75.5237 3.92333 79.3133 0.0892535 84.0391 0.0892535C88.7649 0.0892535 92.599 3.92333 92.599 8.64915Z" fill="#8695C2"/>
<path d="M17.0753 46.8126L54.347 46.7235C54.347 41.9976 58.181 38.1634 62.9069 38.1634C67.6327 38.1634 71.4669 41.9976 71.4669 46.7235V57.78C71.4669 62.5058 67.6773 66.34 62.9515 66.34C58.2257 66.34 54.3916 62.5058 54.3916 57.78L17.1199 57.8693C17.1199 62.5951 13.2859 66.4292 8.56004 66.4292C3.83422 66.4292 0 62.5951 0 57.8693V46.8126C0 42.0868 3.78959 38.2527 8.51541 38.2527C13.2412 38.2527 17.0753 42.0868 17.0753 46.8126Z" fill="#8695C2"/>
<path d="M92.599 46.8126L129.871 46.7235C129.871 41.9976 133.705 38.1634 138.431 38.1634C143.156 38.1634 146.991 41.9976 146.991 46.7235V57.78C146.991 62.5058 143.201 66.34 138.475 66.34C133.749 66.34 129.915 62.5058 129.915 57.78L92.6436 57.8693C92.6436 62.5951 88.8094 66.4292 84.0836 66.4292C79.3577 66.4292 75.5237 62.5951 75.5237 57.8693V46.8126C75.5237 42.0868 79.3132 38.2527 84.0391 38.2527C88.7649 38.2527 92.599 42.0868 92.599 46.8126Z" fill="#8695C2"/>
<path d="M143.201 36.1574H3.7896C1.69419 36.1574 0 34.4632 0 32.3678C0 30.0495 1.69419 28.3553 3.7896 28.3553H143.201C145.297 28.3553 146.991 30.0494 146.991 32.1448C146.991 34.4631 145.297 36.1574 143.201 36.1574Z" fill="#C6C6C6"/>
</svg>
