<svg width="31" height="58" viewBox="0 0 31 58" fill="none" xmlns="http://www.w3.org/2000/svg">
<path d="M17.2329 4.53453L9.54681 30.3739C8.91583 32.4872 9.96519 34.7379 11.9833 35.6178C14.1126 36.551 16.6035 35.6437 17.6401 33.5661L29.7768 9.21671C30.6963 7.37586 29.789 5.14376 27.848 4.45617L21.659 2.27619C19.8089 1.62181 17.7964 2.65117 17.2421 4.52818L17.2329 4.53453Z" fill="#EBEBEB"/>
<path d="M13.465 52.2857C11.2029 55.1198 7.07184 55.59 4.23768 53.3279C1.40351 51.0658 0.933378 46.9347 3.19548 44.1005C5.45758 41.2664 9.58866 40.7962 12.4228 43.0583C15.257 45.3204 15.7271 49.4515 13.465 52.2857Z" fill="#EBEBEB"/>
</svg>
