<svg width="51" height="56" viewBox="0 0 51 56" fill="none" xmlns="http://www.w3.org/2000/svg">
<path d="M8.13954 11.0148L22.4239 33.8776C23.5906 35.7492 25.9723 36.4521 27.9676 35.5215C30.0764 34.5428 31.0447 32.0751 30.1732 29.9229L19.9514 4.70968C19.1798 2.80208 16.906 2.00504 15.106 3.00506L9.3758 6.20205C7.66078 7.15598 7.10061 9.34588 8.14091 11.0037L8.13954 11.0148Z" fill="#EBEBEB"/>
<path d="M41.4437 45.4417C42.0713 49.0132 39.6898 52.4213 36.1182 53.0489C32.5467 53.6765 29.1386 51.2949 28.511 47.7234C27.8834 44.1519 30.2649 40.7438 33.8365 40.1162C37.408 39.4886 40.8161 41.8702 41.4437 45.4417Z" fill="#EBEBEB"/>
</svg>
