<svg width="45" height="32" viewBox="0 0 45 32" fill="none" xmlns="http://www.w3.org/2000/svg">
<g clip-path="url(#clip0_1_2014)">
<path d="M26.9673 15.4278V20.4582L31.5886 20.7397V15.1463L26.9673 15.4278Z" fill="#545353"/>
<path d="M45.0002 17.8696C45.0002 16.719 44.1011 15.7521 42.9253 15.6359C42.6109 15.6053 42.2903 15.5991 41.957 15.6114L31.5889 16.0398V18.0103H45.0002V17.8634V17.8696Z" fill="#898483"/>
<path d="M31.5889 18.0164V19.8401L41.957 20.2685C42.2903 20.2807 42.6109 20.2685 42.9253 20.244C44.1011 20.1339 45.0002 19.1669 45.0002 18.0103H31.5889V18.0164Z" fill="#7A7675"/>
<path d="M28.885 17.943C28.885 25.7089 22.4214 32 14.4425 32C6.4636 32 0 25.7028 0 17.943C0 10.1832 6.4636 3.88602 14.4425 3.88602C22.4214 3.88602 28.885 10.1771 28.885 17.943Z" fill="#A29A97"/>
<path d="M28.1869 17.943C28.1869 25.3295 22.0314 31.3207 14.4423 31.3207C6.85327 31.3207 0.697754 25.3295 0.697754 17.943C0.697754 10.5565 6.85327 4.56531 14.4423 4.56531C22.0314 4.56531 28.1869 10.5565 28.1869 17.943Z" fill="#545353"/>
<path d="M24.8987 17.943C24.8987 23.567 20.2145 28.1201 14.4425 28.1201C8.67055 28.1201 3.98633 23.5609 3.98633 17.943C3.98633 12.3251 8.66427 7.76593 14.4425 7.76593C20.2208 7.76593 24.8987 12.3251 24.8987 17.943Z" fill="#686767"/>
<path d="M26.9671 16.4376C26.9671 16.7925 26.8288 17.0801 26.6528 17.0801C26.4767 17.0801 26.3384 16.7925 26.3384 16.4376C26.3384 16.0826 26.4767 15.795 26.6528 15.795C26.8288 15.795 26.9671 16.0826 26.9671 16.4376Z" fill="#686767"/>
<path d="M26.9671 19.4484C26.9671 19.8034 26.8288 20.091 26.6528 20.091C26.4767 20.091 26.3384 19.8034 26.3384 19.4484C26.3384 19.0935 26.4767 18.8059 26.6528 18.8059C26.8288 18.8059 26.9671 19.0935 26.9671 19.4484Z" fill="#686767"/>
<path d="M14.1532 6.86632L12.0469 5.26296L14.1155 4.9019L12.6756 3.18225L14.6374 2.83955L13.6376 1.06483L15.7943 1.76248L15.3982 0.642572C14.9014 0.495699 14.3733 0.385544 13.8263 0.324347C10.3996 -0.0611952 7.40039 1.53605 7.12374 3.88602C7.09859 4.09409 7.09859 4.29604 7.11745 4.49799C7.30608 6.6093 9.70163 8.48193 12.8265 8.83075C13.0403 8.85523 13.2541 8.87359 13.4616 8.87971L12.3864 7.82712L14.1595 6.8602L14.1532 6.86632Z" fill="#EBA851"/>
<path d="M23.7797 2.22758C23.7106 2.03787 23.6163 1.84816 23.5094 1.67681C22.4468 -0.0183543 19.8752 -0.452854 17.335 0.483463L18.3536 1.13215L16.2158 1.87264L18.1209 2.67432L16.788 4.11857L19.0138 4.61427L17.6054 6.13808L20.2776 6.15032L19.4916 7.96788L21.0069 8.15147C23.3333 6.54198 24.4777 4.08186 23.786 2.22758H23.7797Z" fill="#EBA851"/>
<path d="M11.3363 2.57027C11.6821 3.11493 11.3489 3.92885 10.5881 4.38783C9.8273 4.84069 8.93446 4.76725 8.58236 4.2226C8.23654 3.67794 8.56979 2.86402 9.33058 2.40504C10.0914 1.95218 10.9842 2.02562 11.33 2.57027H11.3363Z" fill="#374B93"/>
<path d="M19.8936 12.062C18.787 11.3092 17.3911 11.04 16.0393 11.0461C12.6818 11.0645 9.38709 12.7719 7.50083 15.4768C6.61428 16.7497 6.02325 18.3653 6.53255 19.8218C7.16759 21.6271 9.26134 22.5512 11.2105 22.7225C13.1596 22.8939 15.1276 22.5267 17.0768 22.7164C18.9882 22.9 21.0882 23.5854 22.7104 22.5879C24.0748 21.7495 24.5338 19.938 24.2006 18.402C23.8736 16.8598 22.9179 15.5257 21.9622 14.2589C21.3586 13.4573 20.7298 12.6433 19.8873 12.0681L19.8936 12.062Z" fill="#374B93"/>
<path d="M23.4019 18.2735C23.1064 16.8721 22.2387 15.6604 21.3647 14.5037C20.8114 13.7694 20.2392 13.035 19.4784 12.5148C18.5353 11.8723 17.3595 11.6152 16.2026 11.5908C18.353 12.3374 20.1386 14.2222 20.7485 16.4437C21.4653 18.7814 20.6354 20.8927 19.0509 22.4961C20.1198 22.6246 21.1572 22.6307 22.0438 22.0861C23.2887 21.3211 23.6974 19.6749 23.4019 18.2735Z" fill="#E0E0E0"/>
<path d="M20.755 16.4437C20.1389 14.2222 18.3595 12.3374 16.2091 11.5908C16.1337 11.5908 16.0519 11.5908 15.9765 11.5908C12.9207 11.603 9.92158 13.1635 8.20508 15.6237C7.40028 16.7803 6.85955 18.249 7.32483 19.577C7.90328 21.2171 9.80841 22.0616 11.5815 22.2146C13.3546 22.3737 15.1465 22.0371 16.9196 22.2085C17.6175 22.2758 18.3406 22.4165 19.0511 22.5022C20.6356 20.8988 21.4655 18.7875 20.7487 16.4498L20.755 16.4437Z" fill="#F2F2F2"/>
<path d="M17.649 17.6187C17.649 19.6933 15.9199 21.3701 13.7947 21.3701C12.9836 21.3701 12.2354 21.1253 11.6129 20.7091C10.6006 20.0298 9.94043 18.8977 9.94043 17.6126C9.94043 15.538 11.6695 13.8612 13.7947 13.8612C14.1279 13.8612 14.4549 13.904 14.763 13.9775C16.4229 14.3936 17.6553 15.8623 17.6553 17.6126L17.649 17.6187Z" fill="#F9BF3B"/>
<path d="M16.4355 17.074C16.4355 19.1486 14.7064 20.8254 12.5812 20.8254C12.248 20.8254 11.921 20.7826 11.6129 20.7091C10.6006 20.0299 9.94043 18.8977 9.94043 17.6126C9.94043 15.538 11.6695 13.8612 13.7947 13.8612C14.1279 13.8612 14.4549 13.904 14.763 13.9775C15.7753 14.6506 16.4355 15.7889 16.4355 17.074Z" fill="#FED45C"/>
<path d="M10.7389 17.8573C10.7389 16.0704 12.1914 14.6139 14.0147 14.5221C13.8513 14.4915 13.6878 14.4792 13.518 14.4792C11.8518 14.4792 10.5 15.8684 10.5 17.5758C10.5 18.3836 10.8018 19.1241 11.2985 19.6749C10.9464 19.1547 10.7389 18.5244 10.7389 17.8573Z" fill="#374B93"/>
</g>
<defs>
<clipPath id="clip0_1_2014">
<rect width="45" height="32" fill="white"/>
</clipPath>
</defs>
</svg>
