<svg width="191" height="344" viewBox="0 0 191 344" fill="none" xmlns="http://www.w3.org/2000/svg">
<g clip-path="url(#clip0_1_17)">
<path d="M23.2518 80.0564L12.0845 88.7421C29.9211 111.679 66.3699 122.81 93.914 130.081L96.6055 116.158C71.0777 109.389 38.1323 99.1977 23.2518 80.0564Z" fill="#FF5951"/>
<path d="M166.784 158.008C160.626 141.13 149.76 135.957 149.76 135.957C152.953 145.947 162.56 174.887 160.151 184.166C159.786 186.173 159.239 188.125 158.509 190.023C158.491 190.078 158.482 190.105 158.482 190.105C157.305 193.116 155.672 195.999 153.555 198.691C136.64 220.295 79.8729 224.319 34.2549 227.558C28.1421 227.996 22.3669 228.397 16.6099 228.853L17.7047 242.958C23.4069 242.511 29.1639 242.11 35.2494 241.672C88.6589 237.886 140.28 233.579 161.073 207.03C170.972 194.384 172.122 172.679 166.766 158.018L166.784 158.008Z" fill="#FF5951"/>
<path d="M158.509 190.023C158.509 190.023 158.491 190.069 158.482 190.096C158.482 190.096 158.482 190.078 158.509 190.023Z" fill="#FF5951"/>
<path d="M122.243 137.918C129.624 140.628 154.066 150.7 158.91 166.731C160.744 172.807 161.146 178.673 160.151 184.157C161.2 180.106 162.532 174.403 163.417 168.446C165.443 154.906 159.111 141.513 147.433 134.369C139.669 129.616 131.959 126.413 127.106 124.634C121.777 122.682 114.333 120.757 105.711 118.531C102.819 117.782 99.7621 116.998 96.5962 116.149L93.9048 130.072C96.7696 130.829 99.534 131.541 102.18 132.225C110.437 134.351 117.562 136.194 122.234 137.909L122.243 137.918Z" fill="#FF5951"/>
<g opacity="0.3">
<path d="M146.867 134.022C139.295 129.461 131.85 126.368 127.115 124.634C121.787 122.682 114.342 120.757 105.72 118.531C102.828 117.782 99.7714 116.998 96.6055 116.149L93.9141 130.072C96.7789 130.829 99.5433 131.541 102.189 132.225C110.446 134.351 117.572 136.194 122.243 137.909C129.624 140.619 153.464 149.341 158.299 165.38C160.133 171.457 161.146 178.664 160.151 184.157C168.545 157.862 163.08 143.785 146.858 134.013L146.867 134.022Z" fill="black"/>
</g>
<path d="M145.718 211.555C145.581 211.573 145.335 210.323 144.988 208.799C144.651 207.276 144.341 206.035 144.468 205.999C144.587 205.953 145.107 207.148 145.454 208.699C145.8 210.25 145.846 211.546 145.718 211.564V211.555Z" fill="#380C19"/>
<path d="M142.315 212.686C142.196 212.732 141.731 211.746 141.421 210.442C141.111 209.137 141.074 208.051 141.202 208.033C141.339 208.015 141.576 209.055 141.877 210.332C142.178 211.6 142.443 212.64 142.315 212.686Z" fill="#380C19"/>
<path d="M139.377 218.224C139.249 218.261 138.684 216.472 138.118 214.246C137.552 212.011 137.197 210.177 137.324 210.15C137.452 210.113 138.018 211.901 138.583 214.128C139.149 216.363 139.505 218.197 139.377 218.224Z" fill="#380C19"/>
<path d="M156.63 202.714C156.493 202.732 156.247 201.482 155.9 199.959C155.562 198.435 155.252 197.194 155.38 197.158C155.499 197.112 156.019 198.307 156.365 199.858C156.712 201.409 156.758 202.705 156.63 202.723V202.714Z" fill="#380C19"/>
<path d="M153.464 204.739C153.345 204.785 152.88 203.8 152.57 202.495C152.26 201.19 152.223 200.105 152.351 200.086C152.488 200.068 152.725 201.108 153.026 202.386C153.327 203.654 153.592 204.694 153.464 204.739Z" fill="#380C19"/>
<path d="M150.791 210.943C150.663 210.98 150.097 209.192 149.532 206.966C148.966 204.73 148.61 202.896 148.738 202.869C148.866 202.833 149.431 204.621 149.997 206.847C150.563 209.082 150.918 210.916 150.791 210.943Z" fill="#380C19"/>
<path d="M135.053 216.226C134.925 216.263 134.56 215.305 134.232 214.082C133.903 212.869 133.739 211.847 133.867 211.819C133.994 211.783 134.359 212.741 134.688 213.963C135.016 215.177 135.18 216.199 135.053 216.226Z" fill="#380C19"/>
<path d="M131.658 218.279C131.531 218.315 131.12 217.257 130.746 215.916C130.372 214.575 130.162 213.452 130.29 213.416C130.418 213.379 130.828 214.438 131.202 215.779C131.576 217.12 131.786 218.242 131.658 218.279Z" fill="#380C19"/>
<path d="M129.569 222.722C129.442 222.759 128.803 220.989 128.146 218.762C127.489 216.536 127.051 214.702 127.179 214.666C127.307 214.629 127.945 216.399 128.602 218.626C129.259 220.852 129.697 222.686 129.569 222.722Z" fill="#380C19"/>
<path d="M125.226 221.189C125.099 221.217 124.716 220.067 124.36 218.626C124.013 217.175 123.831 215.98 123.958 215.943C124.086 215.916 124.469 217.065 124.825 218.507C125.172 219.958 125.354 221.153 125.226 221.189Z" fill="#380C19"/>
<path d="M121.659 222.494C121.541 222.54 121.03 221.49 120.628 220.122C120.227 218.753 120.108 217.595 120.236 217.567C120.364 217.54 120.692 218.635 121.085 219.994C121.477 221.344 121.778 222.448 121.659 222.494Z" fill="#380C19"/>
<path d="M118.94 227.466C118.812 227.503 118.192 225.532 117.562 223.078C116.924 220.624 116.513 218.598 116.641 218.571C116.769 218.534 117.389 220.505 118.019 222.959C118.657 225.414 119.068 227.439 118.94 227.466Z" fill="#380C19"/>
<path d="M159.714 202.24C159.586 202.267 158.938 200.013 158.272 197.203C157.597 194.393 157.159 192.085 157.287 192.058C157.415 192.03 158.062 194.284 158.728 197.094C159.394 199.904 159.841 202.212 159.714 202.24Z" fill="#380C19"/>
<path d="M161.082 194.649C160.955 194.685 160.434 193.244 159.924 191.437C159.413 189.622 159.093 188.125 159.221 188.089C159.349 188.052 159.869 189.494 160.38 191.3C160.891 193.107 161.21 194.612 161.082 194.64V194.649Z" fill="#380C19"/>
<path d="M163.39 190.069C163.262 190.096 162.715 188.363 162.031 186.219C161.347 184.074 160.79 182.341 160.909 182.295C161.027 182.25 161.803 183.919 162.487 186.073C163.18 188.226 163.527 190.032 163.399 190.06L163.39 190.069Z" fill="#380C19"/>
<path d="M165.699 187.459C165.571 187.496 164.722 185.078 163.801 182.067C162.879 179.047 162.232 176.575 162.359 176.529C162.487 176.493 163.336 178.91 164.257 181.921C165.179 184.941 165.826 187.414 165.699 187.459Z" fill="#380C19"/>
<path d="M167.469 166.84C167.35 166.867 166.575 164.769 165.48 162.223C164.376 159.669 163.792 157.461 163.929 157.424C164.047 157.397 164.823 159.486 165.918 162.041C167.022 164.596 167.606 166.803 167.469 166.84Z" fill="#380C19"/>
<path d="M166.255 178.974C166.137 179.029 165.398 177.396 164.604 175.334C163.81 173.272 163.272 171.566 163.39 171.52C163.518 171.475 164.257 173.108 165.042 175.161C165.836 177.214 166.374 178.92 166.255 178.974Z" fill="#380C19"/>
<path d="M166.784 172.57C166.666 172.624 165.899 170.918 165.069 168.774C164.248 166.63 163.673 164.851 163.801 164.805C163.929 164.76 164.695 166.466 165.516 168.601C166.337 170.736 166.903 172.515 166.784 172.57Z" fill="#380C19"/>
<path d="M12.2776 71.2462C19.248 37.8173 25.2879 -0.976229 73.6885 0.0182429C73.6885 0.0182429 103.705 4.22422 118.932 25.4366C127.892 37.9177 137.919 93.1702 141.586 137.027V137.046C141.732 138.834 141.623 151.342 141.769 153.085L14.6406 170.219L4.11198 171.387C4.11198 171.387 2.63395 151.05 4.11198 116.864C5.10645 93.8545 9.79598 83.0704 12.2593 71.2371L12.2776 71.2462Z" fill="#380C19"/>
<path d="M80.7504 12.2621L77.5845 9.5433L45.6428 24.3418C40.935 24.8436 37.4041 28.858 37.4954 33.5931L43.1976 139.819C43.5261 147.027 45.2869 153.194 49.9308 158.714L54.8211 164.526C65.961 177.782 87.3832 175.547 94.8828 159.937C95.4029 158.842 95.7587 157.893 95.8955 157.127C96.0233 156.169 96.2514 155.53 96.2605 154.727C96.7988 146.133 96.4703 138.715 96.4703 138.715C96.5707 129.3 96.5707 125.44 96.5707 125.532C96.5707 125.532 116.424 122.22 120.52 96.3087C122.555 83.4262 121.159 65.9089 119.517 48.6836C117.254 24.8436 99.9464 11.2585 80.7504 12.2621Z" fill="#FFAD90"/>
<path d="M96.5704 125.532C96.5704 125.532 79.1444 126.672 61.8643 116.308C61.8643 116.308 70.6047 134.235 96.5339 131.79L96.5704 125.532Z" fill="#FF855F"/>
<path d="M40.4603 78.9009C40.4603 78.9009 54.4103 76.9667 77.9036 37.06C86.4615 22.5353 89.746 8.92286 89.746 8.92286L77.5751 7.79153C77.5751 7.79153 42.0752 19.7708 41.4913 20.2635C40.9074 20.747 33.353 39.3592 33.353 39.3592L40.4603 78.91V78.9009Z" fill="#380C19"/>
<path d="M44.8761 76.994C44.8761 75.0689 42.6317 70.5163 40.734 70.2243C35.643 69.4397 26.4738 69.8502 26.4008 82.7693C26.3005 100.433 44.055 96.8926 44.0915 96.3817C44.1188 95.9894 44.9035 83.6542 44.8852 76.9849L44.8761 76.994Z" fill="#FFAD90"/>
<path d="M38.7269 89.6576C38.6539 89.6029 38.4167 89.8675 37.8967 90.1047C37.3857 90.3328 36.5099 90.4879 35.5975 90.1412C33.7363 89.4478 32.1853 86.4735 32.1123 83.2894C32.0758 81.6836 32.4225 80.1509 32.9973 78.8918C33.5447 77.6054 34.3841 76.7021 35.3238 76.547C36.2635 76.3372 36.9204 76.9029 37.1394 77.3955C37.3766 77.8882 37.258 78.244 37.3492 78.2714C37.3949 78.317 37.7324 77.9794 37.5956 77.2495C37.5226 76.8937 37.3219 76.4832 36.9022 76.1365C36.4825 75.7898 35.8621 75.6073 35.2052 75.6803C33.8458 75.7715 32.605 77.0123 31.9754 78.3991C31.2638 79.795 30.8441 81.5103 30.8806 83.3167C30.9719 86.8749 32.7783 90.2142 35.3238 90.9714C36.5646 91.2999 37.6047 90.9349 38.143 90.5153C38.6904 90.0864 38.7908 89.685 38.7269 89.6576Z" fill="#FF855F"/>
<path d="M15.5985 143.14C15.5985 143.14 15.5712 142.994 15.5438 142.711C15.5164 142.41 15.4799 141.991 15.4343 141.461C15.3431 140.339 15.2062 138.724 15.0237 136.644C14.6314 132.447 14.0658 126.398 13.3724 118.944C13.0439 115.204 12.7064 111.107 12.4691 106.7C12.2593 102.294 12.0859 97.5586 12.4691 92.5954C12.6425 90.1138 12.9801 87.5774 13.4545 85.0228C13.9198 82.4591 14.5767 79.868 15.4343 77.3042C17.1222 72.1585 19.7589 67.0676 23.5361 62.7065C27.3132 58.318 32.021 55.0974 36.6193 52.2964C41.2358 49.4773 45.8341 47.023 49.9033 44.2038C58.1054 38.6384 64.4463 32.2245 69.0993 26.3672C73.7706 20.5007 76.8088 15.209 78.7247 11.4957C79.6553 9.61625 80.367 8.15648 80.8049 7.13463C81.0239 6.65108 81.1972 6.26789 81.3249 5.99418C81.4436 5.73872 81.5165 5.61099 81.5165 5.61099C81.5165 5.61099 81.4709 5.74785 81.3706 6.01243C81.252 6.29526 81.0969 6.67845 80.887 7.17113C80.4765 8.20209 79.7922 9.68012 78.8798 11.5687C77.0095 15.3185 74.0078 20.6558 69.3548 26.5679C64.72 32.4709 58.37 38.9395 50.1405 44.5596C46.0531 47.4062 41.4457 49.8787 36.8474 52.6888C32.2582 55.4897 27.6052 58.683 23.8828 63.0075C20.1512 67.3139 17.551 72.3501 15.8631 77.4411C15.0055 79.9866 14.3486 82.5503 13.8833 85.0958C13.4089 87.6413 13.0713 90.1503 12.8888 92.6227C12.4874 97.5586 12.6425 102.276 12.8341 106.673C13.0531 111.08 13.3633 115.176 13.6735 118.908C14.303 126.38 14.8686 132.429 15.1788 136.617C15.334 138.706 15.4434 140.339 15.4982 141.443C15.5255 141.981 15.5438 142.392 15.5529 142.702C15.562 142.985 15.5529 143.131 15.5529 143.131L15.5985 143.14Z" fill="#64111B"/>
<path d="M157.963 343.54L137.772 260.159C137.772 260.159 138.074 255.634 142.59 238.819C147.106 222.005 138.074 202.927 138.074 202.927L130.191 149.527C126.651 145.914 98.0757 143.031 98.0757 143.031C98.0757 143.031 95.0466 156.041 74.3543 158.048C53.662 160.055 42.2028 143.031 42.2028 143.031C27.459 142.264 9.86873 142.264 9.86873 142.264L11.1095 191.933L14.3302 266.126L0.398438 343.531H157.963V343.54Z" fill="#64111B"/>
<path d="M11.1009 142.274C11.1009 142.274 -14.2171 144.846 -13.8431 179.297C-13.5237 208.383 -10.1663 241.055 -10.1663 241.055L38.4625 221.439L24.6038 173.212C24.6038 172.272 11.1009 142.274 11.1009 142.274Z" fill="#64111B"/>
<path d="M156.33 173.202C151.431 162.838 148 157.875 141.778 153.094C138.84 150.831 123.102 146.853 123.102 146.853V193.366L132.508 239.905L178.555 225.38C178.555 225.38 162.762 186.824 156.33 173.212V173.202Z" fill="#64111B"/>
<path d="M126.523 185.547C126.523 185.547 126.715 185.711 127.034 186.067C127.353 186.422 127.846 186.924 128.412 187.627C129.589 189.004 131.204 191.075 132.964 193.803C136.504 199.214 140.464 207.461 142.188 217.242C143.064 222.114 143.356 226.858 143.137 231.146C142.927 235.434 142.271 239.257 141.641 242.423C140.993 245.598 140.364 248.134 139.917 249.895C139.689 250.735 139.515 251.401 139.378 251.912C139.251 252.368 139.178 252.605 139.159 252.605C139.141 252.605 139.187 252.359 139.287 251.884C139.397 251.373 139.552 250.698 139.734 249.85C140.126 248.08 140.71 245.534 141.313 242.359C141.906 239.184 142.517 235.38 142.699 231.119C142.891 226.858 142.599 222.16 141.723 217.315C140.017 207.598 136.13 199.396 132.682 193.968C130.966 191.24 129.397 189.141 128.266 187.727C127.718 187.006 127.244 186.486 126.952 186.112C126.651 185.738 126.505 185.537 126.514 185.528L126.523 185.547Z" fill="#380C19"/>
<path d="M129.671 189.725C129.543 189.689 130.209 187.317 131.149 184.434C132.089 181.55 132.955 179.251 133.083 179.288C133.211 179.324 132.545 181.696 131.605 184.58C130.665 187.463 129.799 189.762 129.671 189.725Z" fill="#380C19"/>
<path d="M20.407 169.58C20.5347 169.544 24.4488 181.277 29.1565 195.792C33.8643 210.317 37.5867 222.114 37.459 222.15C37.3313 222.187 33.4173 210.454 28.7095 195.938C24.0017 181.423 20.2793 169.617 20.407 169.58Z" fill="#380C19"/>
<g opacity="0.3">
<path d="M12.7158 286.335C21.0365 288.88 34.0286 294.555 42.3493 297.092C51.0532 299.756 60.9249 302.31 68.8533 297.831C70.9244 296.663 72.8403 295.021 75.1942 294.701C77.612 294.373 79.9567 295.513 82.1647 296.544C101.543 305.595 126.724 304.765 147.827 301.289L142.444 288.99L72.7491 272.066L20.5347 277.941L12.7158 286.344V286.335Z" fill="black"/>
</g>
<path d="M58.8534 261.127C58.8534 261.127 35.1686 249.029 29.5667 247.633C23.9739 246.237 6.38363 250.142 6.18291 254.384C5.98219 258.627 6.18291 261.136 6.18291 261.136C6.18291 261.136 0.982461 264.831 3.18125 268.626C5.38004 272.422 7.57882 272.431 7.57882 272.431C7.57882 272.431 4.37644 275.222 6.18291 277.823C7.98026 280.423 9.77761 283.616 9.77761 283.616C9.77761 283.616 9.02035 287.01 11.0914 288.415C13.1716 289.811 27.3588 292.01 37.559 291.417C47.75 290.815 52.7498 289.419 52.7498 289.419L58.8534 261.145V261.127Z" fill="#FFAD90"/>
<path d="M174.76 226.576C175.581 228.829 182.825 270.132 182.25 284.474C181.657 299.199 174.057 306.881 159.122 305.522C144.186 304.163 75.9419 294.729 58.972 278.781L49.1367 272.723L59.6471 249.074C59.6471 249.074 75.2576 257.067 85.7771 260.123C96.2966 263.179 142.946 260.287 142.946 260.287L141.367 244.458L142.407 236.785L174.76 226.576Z" fill="#FFAD90"/>
<path d="M162.224 280.916C162.124 280.934 162.005 279.164 161.12 276.491C160.253 273.836 158.447 270.277 155.372 267.294C152.288 264.301 148.684 262.604 146.002 261.811C143.311 260.999 141.541 260.935 141.55 260.835C141.55 260.807 141.988 260.798 142.782 260.871C143.575 260.944 144.716 261.117 146.093 261.482C148.84 262.203 152.544 263.891 155.701 266.947C158.848 270.004 160.646 273.662 161.439 276.39C161.85 277.759 162.06 278.89 162.151 279.684C162.242 280.478 162.251 280.916 162.224 280.916Z" fill="#FF855F"/>
<path d="M67.1469 147.155L43.3344 234.057L36.9296 222.059L-3.49707 238.372C-1.38952 243.646 1.51179 251.729 6.95857 262.139C24.3482 295.349 47.44 297.283 61.7275 292.776C76.0151 288.278 85.0383 240.288 88.1221 219.742C91.6803 196.002 92.2551 144.928 92.2551 144.928L67.1469 147.155Z" fill="#FFAD90"/>
<path d="M39.4933 271.911C39.4933 271.911 39.256 271.4 38.9093 270.442C38.7269 269.967 38.517 269.374 38.3437 268.672C38.1612 267.969 37.9058 267.176 37.7598 266.272C37.5864 265.378 37.3857 264.393 37.2762 263.325C37.1211 262.258 37.0573 261.117 36.9934 259.904C36.9204 257.486 36.966 254.822 37.3218 252.058C37.997 246.511 39.4476 241.639 40.7797 238.245C41.099 237.387 41.4183 236.63 41.7194 235.973C42.0114 235.307 42.2668 234.741 42.504 234.285C42.9602 233.373 43.2339 232.88 43.2613 232.889C43.2887 232.907 43.0788 233.427 42.6774 234.358C42.4676 234.823 42.2395 235.398 41.9749 236.073C41.7012 236.739 41.4001 237.506 41.1081 238.363C39.8673 241.766 38.4805 246.62 37.8054 252.112C37.4587 254.859 37.3948 257.495 37.4404 259.886C37.4952 261.081 37.5408 262.221 37.6777 263.28C37.7689 264.338 37.9422 265.314 38.0973 266.208C38.2251 267.112 38.4532 267.896 38.6083 268.599C38.7542 269.301 38.9367 269.903 39.0918 270.387C39.3838 271.354 39.5389 271.902 39.5024 271.911H39.4933Z" fill="#FF855F"/>
<path d="M82.493 247.469C82.493 247.469 82.493 247.642 82.4565 247.979C82.4109 248.308 82.3471 248.801 82.2467 249.421C82.0551 250.671 81.7358 252.477 81.2796 254.694C80.3672 259.129 78.8619 265.223 76.6357 271.774C74.4278 278.343 71.4352 283.954 68.5704 287.503C67.1563 289.282 65.7695 290.532 64.7294 291.262C64.2185 291.645 63.7805 291.882 63.4795 292.028C63.1875 292.183 63.0233 292.256 63.0142 292.247C63.0142 292.229 63.151 292.129 63.4247 291.946C63.7076 291.773 64.1181 291.508 64.6108 291.116C65.6053 290.349 66.9282 289.081 68.2967 287.293C71.0612 283.744 73.9807 278.151 76.1795 271.619C78.3965 265.086 79.9476 259.028 80.942 254.621C81.4438 252.414 81.8088 250.625 82.0551 249.385C82.1737 248.81 82.2741 248.335 82.3471 247.961C82.42 247.633 82.4657 247.469 82.4839 247.469H82.493Z" fill="#FF855F"/>
<path d="M91.8902 162.062C91.8902 162.062 92.5198 147.346 92.8208 141.534C93.1219 135.723 83.6972 112.859 83.4965 112.357C83.2958 111.855 82.1918 104.639 82.1918 104.639C82.1918 104.639 84.2629 105.706 86.2336 102.951C87.3832 101.345 85.5037 96.2175 83.7976 95.1135C82.0915 94.0096 79.1811 95.0131 79.1811 95.0131C79.1811 95.0131 79.1811 91.7013 74.1631 91.8016C74.1631 91.8016 73.4606 86.6833 63.0323 88.3894C63.0323 88.3894 63.1326 87.0847 60.0215 87.2855C56.9103 87.4862 47.9875 89.393 47.3853 91.5006C46.7832 93.6081 49.2921 106.144 49.2921 109.647C49.2921 113.151 49.3925 113.461 50.8979 116.563C52.4033 119.674 64.5559 139.573 67.4755 143.916L64.0906 158.285" fill="#FFAD90"/>
<path d="M64.0999 158.285C64.0999 158.285 64.0999 158.203 64.1364 158.039C64.1729 157.857 64.2277 157.619 64.2915 157.318C64.4375 156.661 64.6474 155.722 64.9211 154.508C65.4867 152.036 66.317 148.441 67.3662 143.888L67.3844 143.989C65.1857 140.686 62.7223 136.699 59.9487 132.201C57.2025 127.685 54.0822 122.694 50.962 117.111C50.5879 116.399 50.2503 115.678 49.9128 114.921C49.5752 114.182 49.3015 113.361 49.2011 112.521C49.0095 110.834 49.1829 109.173 48.9274 107.485C48.5351 104.1 47.9512 100.624 47.4859 97.0386C47.3764 96.1445 47.2578 95.2321 47.1848 94.3198C47.1118 93.3983 47.0114 92.4951 47.1757 91.4915C47.3217 90.9349 47.7596 90.5882 48.1428 90.3145C48.5442 90.0408 48.973 89.8127 49.4018 89.6211C50.2686 89.2288 51.1718 88.9186 52.075 88.6358C53.8998 88.0884 55.7701 87.6596 57.6861 87.3402C58.644 87.1851 59.6111 87.0392 60.6056 87.03C61.1074 87.03 61.6183 87.0665 62.1201 87.2125C62.5946 87.3585 63.2332 87.6504 63.2788 88.4077L63.0051 88.1522C63.5708 88.0792 64.1638 87.9971 64.7751 87.9241C65.3864 87.8785 66.0068 87.8329 66.6272 87.8147C68.1782 87.7964 69.7475 87.9515 71.2164 88.4989C72.6488 89.0737 74.0355 90.1229 74.4096 91.7743L74.1724 91.5736C75.3037 91.5553 76.4807 91.6831 77.5208 92.2305C78.5609 92.7596 79.3637 93.7997 79.4276 95.0223L79.1174 94.8033C79.902 94.557 80.6867 94.411 81.4987 94.3836C82.3015 94.3563 83.15 94.4658 83.8799 94.9037C84.6007 95.3872 85.0295 96.0715 85.4218 96.7467C85.805 97.4309 86.1061 98.1517 86.3433 98.8816C86.5805 99.6115 86.7538 100.369 86.8086 101.144C86.8268 101.537 86.8268 101.929 86.7447 102.321C86.6717 102.713 86.4345 103.124 86.1973 103.389C85.7229 103.982 85.139 104.529 84.4091 104.821C83.6883 105.131 82.8581 105.168 82.1008 104.839L82.4201 104.611C82.7486 106.746 83.077 108.854 83.4237 110.897C83.5241 111.399 83.588 111.947 83.7339 112.375C83.9255 112.85 84.1171 113.324 84.3087 113.799C84.6828 114.748 85.0569 115.687 85.4218 116.609C86.8724 120.322 88.1954 123.889 89.3723 127.274C90.5401 130.668 91.5802 133.88 92.3101 136.927C92.4652 137.693 92.6751 138.432 92.7663 139.19C92.821 139.564 92.8849 139.929 92.9305 140.303C92.9488 140.677 92.9579 141.051 92.9761 141.416C92.9305 142.857 92.8484 144.226 92.7845 145.531C92.52 150.731 92.3192 154.864 92.1733 157.711C92.0912 159.106 92.0364 160.192 91.9908 160.949C91.9634 161.305 91.9452 161.579 91.9361 161.78C91.9178 161.971 91.9087 162.063 91.9087 162.063C91.9087 162.063 91.9087 161.962 91.9087 161.78C91.9087 161.57 91.9178 161.296 91.9269 160.94C91.9543 160.183 91.9908 159.097 92.0364 157.692C92.1459 154.837 92.3192 150.704 92.52 145.503C92.5747 144.199 92.6203 142.83 92.6842 141.388C92.6659 141.033 92.6568 140.677 92.6386 140.321C92.5929 139.965 92.5291 139.6 92.4743 139.226C92.3831 138.487 92.1641 137.748 92.009 136.991C91.27 133.962 90.2117 130.759 89.0347 127.384C87.8487 124.008 86.5075 120.45 85.0569 116.746C84.6919 115.824 84.3178 114.884 83.9347 113.936C83.7431 113.461 83.5515 112.987 83.3599 112.512C83.1774 111.965 83.1227 111.472 83.0223 110.952C82.6665 108.899 82.338 106.801 82.0004 104.657L81.9366 104.265L82.3198 104.429C82.8946 104.675 83.6336 104.666 84.2449 104.392C84.8744 104.137 85.4035 103.644 85.8506 103.088C86.3342 102.568 86.4163 101.883 86.3615 101.153C86.3068 100.433 86.1426 99.7027 85.9145 99.0002C85.6864 98.2977 85.3853 97.6043 85.0295 96.9474C84.6645 96.3087 84.2266 95.6518 83.6518 95.2686C83.0405 94.9037 82.2833 94.7942 81.5351 94.8216C80.787 94.849 80.0115 94.9949 79.2907 95.223L78.9988 95.3143L78.9805 95.0041C78.9258 94.0278 78.2507 93.0881 77.32 92.6319C76.3894 92.1484 75.2855 92.0115 74.1998 92.0389H74.0082L73.9626 91.8382C73.8257 91.1995 73.4151 90.5517 72.9042 90.0682C72.3842 89.5755 71.7364 89.2197 71.0613 88.9369C69.6836 88.4259 68.16 88.2708 66.6546 88.2891C66.0433 88.3165 65.4411 88.353 64.839 88.3986C64.2459 88.4807 63.662 88.5537 63.1055 88.6267L62.8318 88.6632V88.3712C62.8318 88.0884 62.4303 87.769 62.0015 87.6687C61.5727 87.5409 61.0983 87.5045 60.6239 87.5045C59.675 87.5136 58.717 87.6596 57.7773 87.8147C55.8887 88.134 54.0275 88.5537 52.2301 89.092C51.336 89.3657 50.451 89.6759 49.6117 90.0499C49.192 90.2415 48.7905 90.4514 48.4256 90.7068C48.0607 90.9532 47.7231 91.2634 47.641 91.6192C47.5041 92.4494 47.5862 93.3983 47.6592 94.2924C47.7322 95.1957 47.8508 96.0989 47.9603 96.993C48.4165 100.569 49.0004 104.046 49.3836 107.449C49.6299 109.155 49.4566 110.879 49.639 112.476C49.8306 114.072 50.67 115.514 51.3452 116.928C54.4198 122.484 57.531 127.502 60.2589 132.028C63.0142 136.535 65.4502 140.54 67.6217 143.852L67.649 143.897V143.952C66.5359 148.487 65.6692 152.072 65.0762 154.545C64.7751 155.749 64.547 156.689 64.3828 157.336C64.3007 157.638 64.2459 157.875 64.2003 158.048C64.1547 158.212 64.1273 158.285 64.1273 158.285H64.0999Z" fill="#FF855F"/>
<path d="M81.4985 100.15C81.5441 100.113 81.7722 100.314 82.0003 100.743C82.2284 101.162 82.42 101.81 82.4747 102.531C82.566 103.963 82.4565 105.076 82.347 105.086C82.1919 105.104 82.0915 103.936 82.0003 102.567C81.9273 101.19 81.389 100.223 81.4985 100.141V100.15Z" fill="#FF855F"/>
<path d="M79.1816 95.0132C79.2181 95.0588 78.3879 95.6701 76.8916 96.3178C76.1617 96.6645 75.2494 97.0112 74.556 97.7594C73.8261 98.4984 73.525 99.6023 73.4794 100.825C73.379 103.261 73.7987 105.478 74.0998 107.056C74.4191 108.644 74.7019 109.602 74.6381 109.62C74.5833 109.638 74.1819 108.708 73.7713 107.129C73.379 105.551 72.8955 103.325 72.9958 100.798C73.0323 100.168 73.1053 99.5476 73.306 98.9637C73.5067 98.3706 73.8352 97.8688 74.2275 97.4583C75.0304 96.628 76.0066 96.3087 76.7456 96.0076C78.2601 95.442 79.1269 94.9493 79.1725 95.0132H79.1816Z" fill="#FF855F"/>
<path d="M74.1449 91.8199C74.1449 91.8199 73.8164 91.9568 73.2142 92.121C72.603 92.2852 71.7271 92.5042 70.6323 92.7596C69.5009 93.0242 68.2054 93.3253 66.7912 93.6537C66.0887 93.8271 65.3771 94.1008 64.9391 94.703C64.5012 95.296 64.3552 96.1171 64.3461 96.9474C64.337 97.7776 64.4373 98.617 64.4921 99.4199C64.5559 100.223 64.6107 100.998 64.6654 101.746C64.7658 103.197 64.857 104.52 64.9391 105.688C65.0121 106.81 65.0577 107.713 65.0851 108.343C65.1125 108.972 65.1034 109.319 65.076 109.319C65.0395 109.319 64.9848 108.981 64.9026 108.352C64.8205 107.731 64.7202 106.828 64.6107 105.706C64.5012 104.547 64.3735 103.224 64.2366 101.774C64.1728 101.026 64.0998 100.25 64.0268 99.4472C63.9629 98.6444 63.8626 97.8141 63.8717 96.9291C63.8808 96.0624 64.0359 95.1409 64.5742 94.4201C65.1125 93.6811 65.9701 93.3892 66.6909 93.2249C68.1142 92.933 69.4188 92.6684 70.5593 92.4312C71.6632 92.2122 72.5573 92.048 73.1777 91.9385C73.7981 91.829 74.1449 91.7925 74.154 91.8199H74.1449Z" fill="#FF855F"/>
<path d="M68.0138 119.063C67.9956 119.118 67.6033 119.036 67.0832 118.689C66.5632 118.351 65.9337 117.694 65.5778 116.791C65.222 115.888 65.2403 114.976 65.3862 114.373C65.5322 113.762 65.7603 113.443 65.8059 113.461C65.9428 113.488 65.3589 114.957 66.0158 116.618C66.6636 118.278 68.096 118.954 68.0138 119.072V119.063Z" fill="#FF855F"/>
<path d="M78.798 118.598C78.7706 118.652 78.3874 118.543 77.8674 118.187C77.3473 117.831 76.7087 117.193 76.2616 116.326C75.8145 115.459 75.6594 114.565 75.6777 113.935C75.6868 113.297 75.8237 112.932 75.8784 112.941C76.0244 112.941 75.8237 114.492 76.6813 116.107C77.5024 117.74 78.8801 118.479 78.798 118.598Z" fill="#FF855F"/>
<path d="M60.7516 120.422C60.7516 120.422 60.3046 120.258 59.7754 119.747C59.2462 119.236 58.635 118.388 58.2609 117.311C57.896 116.235 57.8595 115.185 57.9598 114.456C58.0602 113.726 58.2609 113.306 58.3156 113.324C58.4616 113.343 57.9872 115.122 58.708 117.156C59.3831 119.2 60.8429 120.313 60.7425 120.422H60.7516Z" fill="#FF855F"/>
<path d="M63.4249 88.3347C63.4249 88.3347 63.0964 88.4624 62.5034 88.6722C61.9104 88.8821 61.0619 89.2196 60.0309 89.6667C59.5017 89.8948 58.9361 90.1503 58.343 90.4148C57.7409 90.6703 57.1387 91.0079 56.5822 91.4732C55.46 92.3764 54.6115 93.8727 54.8396 95.5514C55.0494 97.2211 55.4235 98.8542 55.6607 100.314C55.9162 101.755 56.1442 103.069 56.345 104.228C56.5366 105.341 56.6734 106.244 56.7647 106.874C56.8559 107.503 56.8833 107.85 56.8559 107.859C56.8194 107.859 56.7282 107.531 56.5822 106.91C56.4362 106.29 56.2446 105.396 56.0165 104.292C55.7884 103.142 55.5238 101.838 55.2319 100.396C54.9673 98.918 54.5841 97.3488 54.3651 95.5879C54.2739 94.7121 54.3925 93.7814 54.7757 93.0151C55.1407 92.2396 55.7063 91.6192 56.2994 91.1265C56.9015 90.6429 57.5584 90.2871 58.1788 90.0408C58.7901 89.7944 59.3558 89.5663 59.894 89.3474C62.0016 88.4989 63.4066 88.2525 63.4158 88.3255L63.4249 88.3347Z" fill="#FF855F"/>
<path d="M37.1761 292.247C37.1761 292.247 37.0028 292.201 36.6835 292.083C36.3185 291.937 35.8532 291.754 35.2876 291.526C34.065 291.07 32.3771 290.231 30.3243 289.127C26.2643 286.855 21.0091 282.923 16.5203 277.366C12.0224 271.828 8.9386 266.126 6.80368 262.002C5.73622 259.931 4.9151 258.243 4.35856 257.066C4.1031 256.519 3.89325 256.063 3.72903 255.707C3.59217 255.397 3.51919 255.223 3.53743 255.223C3.55568 255.223 3.64692 255.369 3.81114 255.671C4.00274 256.017 4.23082 256.455 4.52278 256.984C5.16143 258.189 6.0373 259.84 7.10476 261.847C9.31267 265.925 12.4329 271.573 16.8944 277.065C21.3376 282.576 26.5015 286.508 30.4977 288.835C32.514 289.975 34.1745 290.851 35.3697 291.362C35.9171 291.618 36.3641 291.827 36.72 292.001C37.0302 292.156 37.1853 292.238 37.1761 292.256V292.247Z" fill="#FF855F"/>
<path d="M41.2362 98.3797C41.2362 101.071 39.0557 103.252 36.3642 103.252C33.6727 103.252 31.4922 101.071 31.4922 98.3797C31.4922 95.6883 33.6727 93.5077 36.3642 93.5077C39.0557 93.5077 41.2362 95.6883 41.2362 98.3797Z" fill="#64111B"/>
<path d="M150.218 161.552C145.939 153.203 142.545 143.478 140.975 130.011L96.5343 130.842C96.9723 147.227 93.7973 166.779 93.4141 182.207C109.49 183.804 121.998 183.558 138.494 181.295C138.886 176.824 136.158 172.682 136.55 168.212C137.882 171.46 142.335 174.37 143.667 177.618C148.074 175.876 156.02 170.748 156.02 170.748C156.02 171.25 152.28 165.593 150.208 161.552H150.218Z" fill="#380C19"/>
<path d="M119.106 176.35C119.106 176.35 119.051 176.131 118.996 175.711C118.933 175.246 118.86 174.626 118.759 173.868C118.559 172.263 118.321 169.936 118.084 167.062C117.601 161.305 117.181 153.322 117.245 144.5C117.318 135.677 117.847 127.703 118.413 121.946C118.695 119.072 118.96 116.746 119.188 115.149C119.298 114.383 119.38 113.771 119.453 113.306C119.517 112.886 119.562 112.667 119.571 112.667C119.59 112.667 119.571 112.895 119.544 113.315C119.498 113.79 119.444 114.401 119.371 115.167C119.206 116.773 118.987 119.099 118.75 121.973C118.267 127.721 117.792 135.686 117.719 144.5C117.655 153.304 118.02 161.278 118.422 167.035C118.622 169.918 118.805 172.244 118.942 173.85C119.006 174.617 119.051 175.237 119.088 175.702C119.115 176.131 119.124 176.35 119.106 176.35Z" fill="#64111B"/>
<path d="M146.431 168.686C146.431 168.686 146.376 168.622 146.303 168.495C146.212 168.339 146.103 168.139 145.975 167.902C145.674 167.345 145.263 166.579 144.743 165.612C144.205 164.617 143.557 163.394 142.864 161.944C142.161 160.493 141.331 158.869 140.519 157.017C139.68 155.174 138.767 153.158 137.882 150.95C136.943 148.76 136.067 146.379 135.109 143.879C133.284 138.852 131.468 133.25 129.863 127.283C128.293 121.307 127.089 115.541 126.177 110.268C125.766 107.622 125.347 105.113 125.073 102.75C124.744 100.396 124.535 98.1881 124.352 96.1718C124.133 94.1555 124.051 92.3308 123.941 90.725C123.823 89.1193 123.777 87.7416 123.75 86.6103C123.723 85.5063 123.704 84.6396 123.686 84.0101C123.686 83.7363 123.686 83.5174 123.686 83.3349C123.686 83.1798 123.686 83.1068 123.704 83.1068C123.704 83.1068 123.723 83.1889 123.741 83.3349C123.759 83.5174 123.768 83.7363 123.796 84.0101C123.832 84.6396 123.887 85.5063 123.951 86.6103C124.005 87.7416 124.078 89.1193 124.224 90.7159C124.361 92.3125 124.462 94.1372 124.708 96.1444C124.918 98.1516 125.146 100.35 125.483 102.704C125.766 105.058 126.204 107.567 126.624 110.195C127.564 115.45 128.768 121.198 130.337 127.165C131.934 133.113 133.731 138.706 135.528 143.733C136.468 146.233 137.335 148.614 138.256 150.804C139.123 153.012 140.017 155.037 140.838 156.88C141.623 158.741 142.435 160.375 143.119 161.834C143.785 163.294 144.406 164.526 144.917 165.539C145.409 166.524 145.793 167.299 146.075 167.874C146.194 168.121 146.285 168.321 146.367 168.485C146.431 168.622 146.459 168.695 146.449 168.704L146.431 168.686Z" fill="#64111B"/>
<g opacity="0.3">
<path d="M152.261 323.669L111.652 316.817L56.9195 311.087L10.2614 302.484L7.11377 306.097C15.325 317.811 44.484 322.401 62.6126 323.632C78.1136 324.691 93.2588 325.868 108.796 326.278C124.334 326.68 144.232 327.866 155.619 338.44L152.252 323.678L152.261 323.669Z" fill="black"/>
</g>
<path d="M112.985 68.1025C112.904 69.7674 111.501 71.0583 109.845 70.998C108.2 70.9376 106.923 69.5503 107.004 67.8974C107.084 66.2446 108.487 64.9417 110.144 65.002C111.8 65.0623 113.077 66.4497 112.996 68.1025H112.985Z" fill="#38361E"/>
<path d="M97 81.5149C97 81.3265 98.9259 81.1499 102.045 81.0204C102.832 81.0086 103.587 80.9027 103.763 80.3493C103.992 79.7607 103.741 78.8188 103.445 77.8181C102.876 75.7225 102.274 73.5209 101.651 71.2134C99.1776 61.8067 97.4596 54.1071 97.8207 54.0011C98.1709 53.8951 100.469 61.4299 102.931 70.8367C103.522 73.156 104.091 75.3575 104.627 77.4767C104.846 78.4539 105.262 79.5841 104.769 80.8085C104.507 81.4207 103.894 81.821 103.39 81.9151C102.876 82.0329 102.438 81.9976 102.045 81.9858C98.9368 81.8798 97.0109 81.715 97.0109 81.5266L97 81.5149Z" fill="#38361E"/>
<path d="M117.913 51.636C117.303 52.455 114.885 51.636 111.994 51.636C109.093 51.5208 106.651 52.2375 106.076 51.3929C105.822 50.9834 106.202 50.1643 107.273 49.3837C108.321 48.6031 110.083 47.9633 112.075 48.0016C114.067 48.0528 115.794 48.7695 116.808 49.5885C117.844 50.4203 118.178 51.2521 117.913 51.6488V51.636Z" fill="#38361E"/>
<path d="M77.0106 65.6754C76.8721 67.3226 78.1071 68.8016 79.7576 68.9819C81.4081 69.1623 82.8509 67.9719 82.9894 66.3246C83.1279 64.6774 81.8929 63.1984 80.2424 63.0181C78.5919 62.8377 77.1491 64.0281 77.0106 65.6874V65.6754Z" fill="#38361E"/>
<path d="M74.091 49.5117C74.7179 50.1391 77.3584 49.6162 80.4932 49.7113C83.6281 49.7303 86.2565 50.3387 86.9076 49.7303C87.1969 49.4356 86.8111 48.8082 85.6898 48.1904C84.5806 47.5725 82.6997 47.0402 80.5415 47.0021C78.3833 46.9641 76.4903 47.4394 75.357 48.0193C74.2115 48.5991 73.8137 49.2075 74.0789 49.5117H74.091Z" fill="#38361E"/>
<path d="M85.6283 84C86.0513 84.0346 85.7023 87.0898 87.8492 89.5916C89.9961 92.105 93.0207 92.1742 92.9996 92.6007C93.0207 92.7967 92.2698 93.0965 91.0008 92.9697C89.7528 92.8429 87.9973 92.1626 86.6859 90.6293C85.3745 89.0959 84.9515 87.2397 85.0043 85.9715C85.0466 84.6802 85.4485 83.9654 85.6389 84.0115L85.6283 84Z" fill="#38361E"/>
</g>
<defs>
<clipPath id="clip0_1_17">
<rect width="240.589" height="343.54" fill="white" transform="translate(-50)"/>
</clipPath>
</defs>
</svg>
