<svg width="23" height="30" viewBox="0 0 23 30" fill="none" xmlns="http://www.w3.org/2000/svg">
<path d="M0.9021 1.85608L2.48746 25.7451C2.48746 26.7651 5.77708 29.1348 11.7856 29.1348C17.7941 29.1348 21.0837 26.7727 21.0837 25.7451L22.6691 1.85608H0.9021Z" fill="#95D8E9"/>
<path d="M22.6692 1.8559C22.6692 2.87588 17.7942 3.71181 11.7857 3.71181C5.7772 3.71181 0.902222 2.88355 0.902222 1.8559C0.902222 0.828253 5.7772 0 11.7857 0C17.7942 0 22.6692 0.828253 22.6692 1.8559Z" fill="#CAECF4"/>
<path d="M21.6624 1.74838C21.6624 2.51529 17.0569 3.12881 11.8649 3.12881C6.6728 3.12881 1.89294 2.50762 1.89294 1.74838C1.89294 0.989151 6.6728 0.360291 11.8649 0.360291C17.0569 0.360291 21.6624 0.981482 21.6624 1.74838Z" fill="#95D8E9"/>
<path d="M3.03455 8.30554L3.83515 24.7019C3.83515 26.4198 7.26746 27.8155 11.865 27.8155C16.4625 27.8155 19.7363 26.4274 19.7363 24.7019L20.529 8.30554H3.03455Z" fill="#11AACC"/>
<path d="M20.5211 8.58905C20.5211 9.42497 16.4467 10.0998 11.8571 10.0998C7.26746 10.0998 3.03455 9.42497 3.03455 8.58905C3.03455 7.75312 7.25953 7.07825 11.8571 7.07825C16.4546 7.07825 20.5211 7.75312 20.5211 8.58905Z" fill="#4DBFD9"/>
<path d="M15.8996 12.9602H15.5587C14.6832 12.9602 13.9734 13.6469 13.9734 14.494V22.8149C13.9734 23.662 14.6832 24.3487 15.5587 24.3487H15.8996C16.7752 24.3487 17.485 23.662 17.485 22.8149V14.494C17.485 13.6469 16.7752 12.9602 15.8996 12.9602Z" fill="white"/>
<path d="M8.39301 12.6077C8.39301 13.3899 7.73508 14.0264 6.92655 14.0264C6.11801 14.0264 5.46802 13.3899 5.46802 12.6077C5.46802 11.8254 6.12594 11.1889 6.92655 11.1889C7.72716 11.1889 8.39301 11.8254 8.39301 12.6077Z" fill="#95D8E9"/>
<path d="M12.7527 16.1128C12.7527 16.895 12.0948 17.5316 11.2863 17.5316C10.4778 17.5316 9.82776 16.895 9.82776 16.1128C9.82776 15.3306 10.4857 14.694 11.2863 14.694C12.0869 14.694 12.7527 15.3306 12.7527 16.1128Z" fill="#95D8E9"/>
<path d="M7.86188 19.4717C7.86188 20.2539 7.20395 20.8905 6.39542 20.8905C5.58689 20.8905 4.93689 20.2539 4.93689 19.4717C4.93689 18.6894 5.59481 18.0529 6.39542 18.0529C7.19603 18.0529 7.86188 18.6894 7.86188 19.4717Z" fill="#95D8E9"/>
<path d="M11.2944 23.5211C11.2944 24.3033 10.6364 24.9398 9.82792 24.9398C9.01938 24.9398 8.36938 24.3033 8.36938 23.5211C8.36938 22.7388 9.02731 22.11 9.82792 22.11C10.6285 22.11 11.2944 22.7465 11.2944 23.5211Z" fill="#95D8E9"/>
</svg>
