<svg width="72" height="98" viewBox="0 0 72 98" fill="none" xmlns="http://www.w3.org/2000/svg">
<g opacity="0.24">
<path d="M0 6.23858L5.17544 86.5411C5.17544 89.9697 15.9145 97.9355 35.5294 97.9355C55.1443 97.9355 65.8833 89.9955 65.8833 86.5411L71.0588 6.23858H0Z" fill="#95D8E9"/>
<path d="M71.0588 6.23859C71.0588 9.66723 55.1443 12.4772 35.5294 12.4772C15.9145 12.4772 0 9.69301 0 6.23859C0 2.78416 15.9145 0 35.5294 0C55.1443 0 71.0588 2.78416 71.0588 6.23859Z" fill="#CAECF4"/>
<path d="M67.7723 5.87768C67.7723 8.45561 52.7377 10.5179 35.7881 10.5179C18.8386 10.5179 3.23462 8.42983 3.23462 5.87768C3.23462 3.32553 18.8386 1.21162 35.7881 1.21162C52.7377 1.21162 67.7723 3.29975 67.7723 5.87768Z" fill="#95D8E9"/>
<path d="M6.96094 27.919L9.57453 83.0351C9.57453 88.8097 20.7794 93.5015 35.7881 93.5015C50.7969 93.5015 61.4842 88.8355 61.4842 83.0351L64.0719 27.919H6.96094Z" fill="#11AACC"/>
<path d="M64.046 28.8728C64.046 31.6828 50.7451 33.9513 35.7623 33.9513C20.7794 33.9513 6.96094 31.6828 6.96094 28.8728C6.96094 26.0629 20.7535 23.7943 35.7623 23.7943C50.771 23.7943 64.046 26.0629 64.046 28.8728Z" fill="#4DBFD9"/>
<path d="M48.9595 43.567H47.8468C44.9885 43.567 42.6714 45.8754 42.6714 48.7229V76.6934C42.6714 79.5409 44.9885 81.8493 47.8468 81.8493H48.9595C51.8179 81.8493 54.135 79.5409 54.135 76.6934V48.7229C54.135 45.8754 51.8179 43.567 48.9595 43.567Z" fill="#374B93"/>
<path d="M24.454 42.3812C24.454 45.0107 22.3061 47.1503 19.6667 47.1503C17.0272 47.1503 14.9053 45.0107 14.9053 42.3812C14.9053 39.7517 17.0531 37.612 19.6667 37.612C22.2803 37.612 24.454 39.7517 24.454 42.3812Z" fill="#95D8E9"/>
<path d="M38.6864 54.1623C38.6864 56.7918 36.5386 58.9315 33.8991 58.9315C31.2596 58.9315 29.1377 56.7918 29.1377 54.1623C29.1377 51.5328 31.2855 49.3931 33.8991 49.3931C36.5127 49.3931 38.6864 51.5328 38.6864 54.1623Z" fill="#95D8E9"/>
<path d="M22.7201 65.4536C22.7201 68.0831 20.5723 70.2228 17.9328 70.2228C15.2933 70.2228 13.1714 68.0831 13.1714 65.4536C13.1714 62.8241 15.3192 60.6845 17.9328 60.6845C20.5464 60.6845 22.7201 62.8241 22.7201 65.4536Z" fill="#95D8E9"/>
<path d="M33.9249 79.0651C33.9249 81.6946 31.7771 83.8343 29.1376 83.8343C26.4982 83.8343 24.3762 81.6946 24.3762 79.0651C24.3762 76.4356 26.524 74.3217 29.1376 74.3217C31.7512 74.3217 33.9249 76.4614 33.9249 79.0651Z" fill="#95D8E9"/>
</g>
</svg>
