<svg width="111" height="214" viewBox="0 0 111 214" fill="none" xmlns="http://www.w3.org/2000/svg">
<path d="M111 286V111.28C111 49.8223 59.1119 0 -4.89806 0H-42V286H111Z" fill="#BAD9FF"/>
<g clip-path="url(#clip0_1_9033)">
<path d="M1 207L1 205.969C51.662 205.969 92.8782 168.076 92.8782 121.5C92.8782 74.9236 51.662 37.0314 1.00001 37.0314L1.00001 36C25.8402 36 49.1968 44.8929 66.7619 61.0415C84.327 77.1901 94 98.663 94 121.5C94 144.337 84.327 165.81 66.7619 181.958C49.1968 198.107 25.843 207 1 207Z" fill="#293342"/>
<path d="M0.999879 195.591L0.999879 194.559C44.8187 194.559 80.4678 161.785 80.4678 121.5C80.4678 81.215 44.8187 48.4408 0.999886 48.4408L0.999886 47.4095C22.5251 47.4095 42.7629 55.1163 57.9862 69.1093C73.2067 83.1024 81.5896 101.708 81.5896 121.5C81.5896 141.292 73.2067 159.895 57.9862 173.891C42.7657 187.884 22.5279 195.591 0.999879 195.591Z" fill="#293342"/>
</g>
<defs>
<clipPath id="clip0_1_9033">
<rect width="171" height="93" fill="white" transform="translate(94 36) rotate(90)"/>
</clipPath>
</defs>
</svg>
