<svg width="143" height="148" viewBox="0 0 143 148" fill="none" xmlns="http://www.w3.org/2000/svg">
<g clip-path="url(#clip0_1_1911)">
<path d="M92.1838 127.694C81.3764 130.871 70.3542 130.182 60.59 126.434L51.093 131.562L50.1619 120.933C41.1851 114.734 34.193 105.527 30.8779 94.2389C23.1888 68.074 38.1679 40.6223 64.3329 32.9331C90.4978 25.2439 117.947 40.2164 125.639 66.3881C133.331 92.5597 118.355 120.002 92.1838 127.694Z" fill="white"/>
<path d="M92.1836 127.694C92.1836 127.694 92.4445 127.589 92.9662 127.419C93.48 127.228 94.2666 127.022 95.2566 126.625C97.2593 125.907 100.162 124.665 103.637 122.604C105.352 121.536 107.232 120.301 109.139 118.744C111.039 117.19 113.013 115.374 114.929 113.239C118.757 108.979 122.374 103.382 124.755 96.5576C125.935 93.1495 126.835 89.4499 127.235 85.5312C127.63 81.6153 127.621 77.4882 126.987 73.2934C125.77 64.9145 122.236 56.1991 116.118 48.8615C110.039 41.524 101.377 35.6646 91.3607 32.8951C81.3752 30.0667 70.0851 30.5876 59.8673 34.6927C50.3692 38.4626 42.4246 45.2354 37.1496 53.3215C31.8264 61.4036 29.1607 70.7493 29.0506 79.6914C28.9486 88.6535 31.3259 97.1572 35.2141 104.201C39.1131 111.271 44.527 116.834 50.2486 120.821L50.3035 120.861L50.3076 120.929C50.6306 124.658 50.9308 128.195 51.2227 131.556L51.0339 131.454C54.4314 129.625 57.5922 127.923 60.5389 126.345L60.5857 126.327L60.6299 126.34C65.3781 128.171 69.8847 129.05 73.8274 129.433C77.7795 129.782 81.1771 129.638 83.9028 129.33C86.6352 129.018 88.6983 128.548 90.0884 128.239C90.7694 128.059 91.2912 127.928 91.6484 127.831C92.0017 127.744 92.1796 127.703 92.1796 127.703C92.1796 127.703 92.0003 127.76 91.6525 127.86C91.2953 127.957 90.7788 128.102 90.0965 128.298C88.7077 128.63 86.646 129.123 83.9123 129.45C81.1786 129.778 77.7729 129.94 73.8035 129.606C69.8461 129.244 65.3168 128.366 60.5418 126.546L60.6328 126.541C57.6914 128.132 54.5333 129.841 51.1412 131.682L50.9686 131.775L50.9524 131.579C50.6538 128.221 50.3376 124.683 50.0078 120.956L50.0641 121.058C44.301 117.064 38.8376 111.475 34.9065 104.363C30.9861 97.2779 28.5807 88.7234 28.6719 79.6957C28.7712 70.6881 31.4556 61.2727 36.8069 53.1251C42.1193 44.9774 50.1227 38.1577 59.6917 34.3516C69.987 30.2076 81.3641 29.6906 91.422 32.5444C101.511 35.3393 110.233 41.2521 116.349 48.6445C122.508 56.0436 126.049 64.818 127.265 73.2517C127.896 77.4786 127.893 81.6338 127.491 85.5685C127.076 89.5086 126.168 93.2269 124.97 96.6498C122.564 103.508 118.913 109.118 115.056 113.382C113.127 115.522 111.144 117.334 109.228 118.887C107.311 120.44 105.412 121.667 103.688 122.731C100.194 124.784 97.2674 126.005 95.2567 126.702C94.264 127.093 93.472 127.286 92.9529 127.463C92.4285 127.627 92.1609 127.695 92.1609 127.695L92.1836 127.694Z" fill="#263238"/>
<path d="M39.8599 72.0261C39.8599 72.0261 48.5951 69.6259 55.3427 73.1315C62.0904 76.6372 64.905 80.1128 64.905 80.1128C64.905 80.1128 67.7438 79.0987 70.5655 75.2342C73.3938 71.367 73.5702 67.9343 73.5702 67.9343C73.5702 67.9343 70.4217 66.8209 64.0532 62.1694C57.6846 57.5179 57.7215 47.5802 57.7215 47.5802L53.281 48.7242C53.281 48.7242 54.1304 56.1091 56.0533 60.5945L47.6078 54.4232L43.4268 60.145L52.3021 66.6331C46.679 65.2542 40.3121 67.1319 40.3121 67.1319L39.8693 72.0301L39.8599 72.0261Z" fill="#44B981"/>
<g opacity="0.3">
<path d="M39.8599 72.0261C39.8599 72.0261 48.5951 69.6259 55.3427 73.1315C62.0904 76.6372 64.905 80.1128 64.905 80.1128C64.905 80.1128 67.7438 79.0987 70.5655 75.2342C73.3938 71.367 73.5702 67.9343 73.5702 67.9343C73.5702 67.9343 70.4217 66.8209 64.0532 62.1694C57.6846 57.5179 57.7215 47.5802 57.7215 47.5802L53.281 48.7242C53.281 48.7242 54.1304 56.1091 56.0533 60.5945L47.6078 54.4232L43.4268 60.145L52.3021 66.6331C46.679 65.2542 40.3121 67.1319 40.3121 67.1319L39.8693 72.0301L39.8599 72.0261Z" fill="black"/>
</g>
<path d="M42.4155 77.702C39.0081 83.6105 32.4446 84.146 28.4975 80.2472C26.9238 81.8798 20.3482 83.8955 16.1474 78.9959C12.5868 74.8411 14.4846 68.8081 17.8596 65.8009C14.1068 63.7419 11.939 59.1296 12.7155 54.8506C13.492 50.5717 17.1622 46.9259 21.4265 46.1942C19.4297 41.3115 20.855 35.1651 24.8117 31.5753C28.7751 27.9828 34.9838 27.2013 39.5947 29.7158C39.5214 25.3118 43.57 21.196 47.9526 21.2243C52.3353 21.2527 56.1729 25.4206 55.881 29.8236C59.1944 28.231 63.4506 29.0088 65.9232 31.651C68.3985 34.2999 68.9121 38.6206 67.135 41.8566C65.358 45.0926 62.2979 47.1039 58.7189 46.4659C58.8629 48.9161 56.5659 51.3202 54.3735 52.4555C52.1812 53.5909 49.3573 53.2869 47.5011 51.7174C48.9662 54.4996 48.201 57.8967 46.6269 60.6708C45.097 63.3807 43.0594 64.0114 39.1791 64.5969C44.0579 68.8054 45.3285 72.6517 42.4155 77.702Z" fill="#44B981"/>
<g opacity="0.3">
<path d="M44.8616 38.8233C44.8349 38.8728 44.4587 38.651 43.7331 38.4295C43.0063 38.224 41.8941 38.0256 40.5534 38.2837C39.2368 38.5244 37.661 39.2417 36.5676 40.6584C35.4875 42.0699 35.0397 44.1672 35.5459 46.146C35.8292 47.2592 36.3948 48.2436 37.1461 48.975L37.8761 49.6916L36.8776 49.4864C35.3036 49.1626 33.7036 49.7421 32.6873 50.6543C31.6349 51.5732 31.2051 52.8248 31.1243 53.8433C30.9856 55.9564 31.946 57.0155 31.827 57.0477C31.8029 57.0651 31.5658 56.8418 31.2857 56.3175C31.0149 55.7971 30.7037 54.9436 30.7442 53.8248C30.7794 52.7315 31.2024 51.3273 32.3471 50.2705C33.4515 49.2297 35.2027 48.5431 37.0069 48.8988L36.7357 49.4036C35.9026 48.604 35.2714 47.5139 34.9639 46.3018C34.4174 44.145 34.9199 41.8549 36.1337 40.3122C37.3702 38.7682 39.0879 38.0561 40.4955 37.8488C41.9272 37.6241 43.0904 37.9108 43.8173 38.1939C44.5455 38.4997 44.8803 38.7925 44.8656 38.8139L44.8616 38.8233Z" fill="black"/>
</g>
<g opacity="0.3">
<path d="M26.9603 77.9441C26.9202 77.999 26.4824 77.7786 26.0469 77.138C25.6075 76.5067 25.2626 75.4338 25.3901 74.2413C25.5175 73.0488 26.0814 72.054 26.6497 71.5156C27.2153 70.9705 27.6929 70.8255 27.717 70.8857C27.768 70.974 27.3908 71.2339 26.963 71.7937C26.5326 72.3467 26.1038 73.233 25.9843 74.2903C25.8714 75.3449 26.1064 76.2989 26.4148 76.9128C26.7124 77.5389 27.0285 77.8624 26.9576 77.9374L26.9603 77.9441Z" fill="black"/>
</g>
<path d="M85.5961 42.6838C85.8419 40.5277 85.1855 38.2907 83.8017 36.6018C82.4179 34.9128 80.3333 33.7998 78.1331 33.5796C77.931 33.5597 77.7022 33.5505 77.5336 33.6724C77.2996 33.8439 77.2999 34.1932 77.3416 34.4715C77.6271 36.5388 78.5963 38.5105 80.063 40.0188C81.5363 41.5243 83.5017 42.5531 85.5963 42.9166" fill="#44B981"/>
<path d="M74.4476 58.3893C76.7435 62.5853 79.9055 65.3394 83.6846 65.3147C84.442 65.306 84.9889 64.7917 85.7088 64.7282C86.0768 64.7359 86.5133 64.9724 86.9309 65.1232C87.1545 65.1966 87.37 65.25 87.5653 65.2337C91.4539 64.8624 94.6658 62.0293 96.7228 57.4388C99.5783 51.0062 98.3414 44.2813 93.9585 42.4129C93.3373 42.1418 92.7456 41.9443 92.1714 41.8096C91.466 41.6576 90.7755 41.6007 90.0208 41.6549C88.6947 41.7363 87.1922 42.1525 85.1735 42.9464C85.1066 42.9732 85.033 43.0027 84.9661 43.0296C81.408 41.669 78.6179 41.7784 75.9641 43.1765C71.7466 45.4189 71.0659 52.2217 74.4476 58.3893Z" fill="#FF7F09"/>
<path d="M74.2628 52.0035C74.2628 52.0035 73.9988 51.5581 73.8549 50.754C73.711 49.9499 73.7194 48.7896 74.1131 47.5835C74.5095 46.3841 75.1992 45.4321 75.8023 44.8642C76.4026 44.2895 76.8681 44.0563 76.8856 44.0804C76.9177 44.1218 76.4991 44.4139 75.959 45.0032C75.4162 45.5858 74.7867 46.5137 74.4036 47.6689C74.0272 48.8215 73.984 49.9336 74.0743 50.7204C74.158 51.5098 74.3257 51.9861 74.2762 51.9982L74.2628 52.0035Z" fill="#FAFAFA"/>
<path d="M75.1727 54.9696C75.0964 54.9924 74.9396 54.6981 74.8349 54.3208C74.7275 53.9368 74.7058 53.6117 74.7848 53.5955C74.861 53.5727 75.0178 53.867 75.1226 54.2443C75.2299 54.6283 75.2516 54.9534 75.1727 54.9696Z" fill="#FAFAFA"/>
<path d="M94.0605 31.9989C94.0819 32.0524 93.2686 32.3863 92.0863 33.1555C91.4924 33.5333 90.8264 34.0411 90.1297 34.6466C89.4478 35.2694 88.7405 36.0034 88.0855 36.8484C87.4399 37.6973 86.9187 38.5663 86.5019 39.3856C86.0944 40.209 85.7886 40.9761 85.5818 41.6413C85.1654 42.9652 85.0618 43.8298 85.0042 43.8218C84.9815 43.8232 85.0027 43.605 85.0479 43.2142C85.0704 43.0188 85.0997 42.7819 85.161 42.5089C85.2223 42.2358 85.2742 41.92 85.3797 41.5826C85.5584 40.9053 85.8535 40.1115 86.2529 39.2681C86.6683 38.426 87.1908 37.541 87.8445 36.6733C88.5102 35.8162 89.2375 35.0742 89.9422 34.45C90.659 33.8365 91.3531 33.3408 91.971 32.9843C92.272 32.7859 92.5676 32.6519 92.8177 32.5205C93.0652 32.3825 93.2899 32.2846 93.4799 32.2162C93.8478 32.0686 94.0551 31.9855 94.0632 32.0056L94.0605 31.9989Z" fill="#263238"/>
<path d="M85.576 87.7095C86.7484 84.747 86.2066 80.2979 85.4693 77.2006C84.7292 74.0966 83.0085 71.2383 80.622 69.1206C80.4532 68.9708 80.2617 68.8225 80.0382 68.8267C79.8014 68.8362 79.6182 69.0184 79.4618 69.1898C76.8401 72.1201 75.9271 76.4848 77.1615 80.2214C78.3959 83.958 81.7279 86.9233 85.5827 87.7069" fill="#44B981"/>
<path d="M88.9382 77.5255C90.8881 76.1147 92.3495 73.0596 93.1384 70.7866C93.9246 68.5069 93.9934 65.987 93.3277 63.6685C93.2793 63.5092 93.223 63.33 93.0717 63.2431C92.9177 63.1496 92.7264 63.1952 92.5578 63.2396C89.6947 64.0383 87.3455 66.4477 86.616 69.3336C85.8838 72.2127 86.8033 75.4544 88.9449 77.5228" fill="#44B981"/>
<path d="M90.7918 85.3619C90.5656 83.7522 89.2838 82.395 87.751 81.845C86.2183 81.2949 84.4935 81.4664 82.9765 82.0592C81.6467 82.5769 80.419 83.4264 79.5889 84.59C78.7589 85.7536 78.3453 87.2394 78.6008 88.651C78.9275 90.4145 80.2991 91.8987 81.9751 92.5544C83.6485 93.2033 85.5674 93.0705 87.2302 92.3959C88.6255 91.8287 89.9106 90.8319 90.513 89.449C91.1153 88.0661 91.3481 86.4199 90.7945 85.3686" fill="#FF7F09"/>
<path d="M106.949 83.6966C113.041 82.4495 116.164 73.8755 115.891 69.2254C115.864 68.7316 115.757 68.1764 115.332 67.9278C114.878 67.6673 114.302 67.8979 113.848 68.1579C111.211 69.6577 109.07 72.0228 107.842 74.79C106.611 77.5665 106.298 80.7357 106.949 83.6966Z" fill="#44B981"/>
<path d="M112.099 78.0288C111.873 76.4191 110.591 75.0619 109.058 74.5119C107.525 73.9619 105.801 74.1333 104.284 74.7261C102.954 75.2438 101.726 76.0933 100.896 77.2569C100.066 78.4205 99.6525 79.9063 99.9079 81.3179C100.235 83.0814 101.606 84.5657 103.282 85.2213C104.956 85.8702 106.874 85.7374 108.537 85.0629C109.933 84.4956 111.218 83.4989 111.82 82.116C112.422 80.7331 112.655 79.0869 112.102 78.0355" fill="#FF7F09"/>
<path d="M66.9207 85.7798C66.7012 84.1675 65.4127 82.813 63.88 82.2629C62.3472 81.7129 60.6224 81.8843 59.1054 82.4771C57.7756 82.9948 56.5479 83.8443 55.7178 85.008C54.8878 86.1716 54.4742 87.6574 54.7297 89.069C55.0564 90.8325 56.428 92.3167 58.104 92.9723C59.7801 93.628 61.6963 93.4885 63.3591 92.8139C64.7544 92.2466 66.0395 91.2499 66.6419 89.867C67.2442 88.4841 67.477 86.8379 66.9234 85.7865" fill="#FF7F09"/>
<path d="M83.2154 91.0009C81.9804 88.0566 78.4892 85.256 75.7966 83.5561C73.0946 81.8522 69.8688 81.0106 66.6839 81.1618C66.4631 81.1727 66.2183 81.201 66.0632 81.3564C65.8974 81.5238 65.8949 81.7888 65.9045 82.0257C66.0752 85.9559 68.4685 89.7169 71.9641 91.5218C75.4557 93.3361 79.9132 93.1248 83.2221 90.9982" fill="#44B981"/>
<path d="M60.4536 94.2041C58.8362 93.3075 57.2028 92.4097 55.7806 91.2252C54.3544 90.0502 53.1287 88.5618 52.5424 86.8092C52.4538 86.5497 52.3853 86.2433 52.5336 86.013C52.6753 85.7854 52.975 85.7195 53.2373 85.6765C56.7148 85.1128 60.3619 85.669 63.5081 87.2414C66.6543 88.8138 69.2901 91.3983 70.9281 94.5149L71.4266 95.2933C69.336 98.0572 66.3932 99.6255 62.9706 100.229C60.316 100.696 57.5621 100.876 54.9279 100.271C52.2965 99.6724 49.7901 98.2239 48.3041 95.9703C51.8189 93.6214 56.4044 92.955 60.4375 94.2028L60.4536 94.2041Z" fill="#44B981"/>
<path d="M93.8819 75.0228C95.4564 71.2236 98.5532 68.2581 101.914 65.8933C103.874 69.4633 104.344 73.8322 103.178 77.7394C102.012 81.6467 99.2354 85.0428 95.6399 86.9582L95.2555 86.6387C92.5416 83.5498 92.3074 78.822 93.8819 75.0228Z" fill="#44B981"/>
<path d="M116.724 75.0794C116.724 75.0794 118.924 88.639 114.54 102.703C108.129 123.272 77.9754 130.309 65.375 121.269C60.5357 117.798 45.7456 103.627 45.7456 103.627L116.722 75.0727L116.724 75.0794Z" fill="white"/>
<path d="M116.724 75.0794C116.724 75.0794 116.235 75.2913 115.317 75.6748C114.31 76.0865 112.97 76.639 111.294 77.3189C107.697 78.7847 102.644 80.8419 96.3743 83.3872C83.6282 88.545 65.9578 95.6929 45.8353 103.832L45.9112 103.46C50.2385 107.571 54.7493 111.811 59.4822 116.023C60.7049 117.117 61.937 118.176 63.1704 119.219C64.4038 120.261 65.6679 121.245 67.0657 121.981C69.8143 123.511 72.8823 124.385 75.935 124.659C82.0499 125.367 88.063 124.331 93.3728 122.45C98.6999 120.554 103.391 117.711 107.009 114.225C110.646 110.748 113.091 106.623 114.419 102.558C116.921 94.3336 117.202 87.2876 117.179 82.5062C117.157 80.1081 117.023 78.2441 116.913 76.9836C116.825 76.087 116.773 75.5491 116.725 75.0634C116.725 75.0634 117.243 77.6899 117.357 82.5047C117.428 87.2901 117.2 94.3695 114.728 102.651C113.406 106.769 110.944 110.97 107.271 114.493C103.629 118.034 98.8863 120.922 93.515 122.843C88.1544 124.752 82.0878 125.81 75.8792 125.101C72.7783 124.823 69.6528 123.941 66.8358 122.376C65.3979 121.617 64.1164 120.609 62.8763 119.569C61.6335 118.523 60.3988 117.457 59.176 116.363C54.4405 112.144 49.927 107.898 45.597 103.78L45.3452 103.539L45.673 103.408C65.9012 95.3196 83.652 88.2171 96.4597 83.0967C102.722 80.609 107.777 78.5973 111.365 77.1663C113.033 76.5051 114.36 75.9808 115.36 75.5878C116.265 75.2324 116.732 75.0607 116.732 75.0607L116.724 75.0794Z" fill="#263238"/>
<path d="M116.701 88.5366C116.749 88.657 103.15 94.2036 86.3258 100.927C69.5022 107.649 55.8275 113.009 55.7792 112.888C55.7309 112.768 69.3305 107.221 86.1542 100.498C102.978 93.7755 116.653 88.4162 116.701 88.5366Z" fill="#FF7F09"/>
<path d="M117.229 86.2906C117.277 86.411 103.189 92.1534 85.7703 99.1151C68.3446 106.079 54.1883 111.632 54.1401 111.511C54.0918 111.391 68.1729 105.651 85.5986 98.687C103.018 91.7253 117.181 86.1702 117.222 86.2933L117.229 86.2906Z" fill="#FF7F09"/>
</g>
<defs>
<clipPath id="clip0_1_1911">
<rect width="107.125" height="116.09" fill="white" transform="translate(0 39.8708) rotate(-21.8507)"/>
</clipPath>
</defs>
</svg>
