<svg width="192" height="301" viewBox="0 0 192 301" fill="none" xmlns="http://www.w3.org/2000/svg">
<mask id="mask0_1_267" style="mask-type:luminance" maskUnits="userSpaceOnUse" x="0" y="0" width="187" height="225">
<path d="M0 0H186.719V225H0V0Z" fill="white"/>
</mask>
<g mask="url(#mask0_1_267)">
<path d="M42.3047 96.2813C21.4297 82.2578 6.23438 60.0078 0.78125 35.461C9.71875 37.25 18.2891 40.2969 26.4922 44.2813C29.9062 45.9375 33.2734 47.8047 36.0547 50.3907C42.3594 56.2578 44.9297 65.1641 45.6719 73.7422C46.4141 82.3282 45.6172 90.9922 46.5078 99.5625L42.3125 96.2813H42.3047Z" fill="#20392A"/>
<path d="M24.8907 87.7969H102.961C103.625 95.3594 103.93 102.953 103.789 110.555C103.531 123.797 98.7657 134.969 90.4063 143.836C83.8047 150.836 74.5938 155.391 65 156.086C55.4063 156.789 45.5235 153.563 38.3829 147.109C25.4063 135.375 23.9844 117.039 24.4688 100.625C24.5079 99.2657 24.5547 93.7188 24.8985 87.8047L24.8907 87.7969Z" fill="#E8A252"/>
<path d="M24.9141 87.3828C25.3828 79.5312 26.3828 71.2031 28.5859 71.2891C28.6016 71.2891 101.391 74.1484 101.391 74.1484C101.984 78.3438 102.578 82.5547 103.055 86.7734L24.9219 87.375L24.9141 87.3828Z" stroke="white" stroke-width="1.46875" stroke-linecap="round" stroke-linejoin="round"/>
<path d="M63.7188 73.0156L36.2734 36.1797C34.9688 40.9063 32.4922 45.6172 32.0469 50.5469C31.0547 61.5938 35 72.1797 45.4297 77.25C52.1484 80.5156 56.8516 80.3047 63.9375 79.6406C65.0469 79.5391 67.8203 79.0078 68.4375 78.8984C66.9062 76.9141 65.2188 75.0391 63.7188 73.0235V73.0156Z" fill="#F0C92F"/>
<path d="M52.4844 57.3672L39.2422 70.5" stroke="white" stroke-width="0.585938" stroke-linecap="round" stroke-linejoin="round"/>
<path d="M50.6328 55.6719L34.5391 60.7344" stroke="white" stroke-width="0.585938" stroke-linecap="round" stroke-linejoin="round"/>
<path d="M50.4141 55.5078C50.4141 55.5078 34.4219 46.8437 35.0547 47.1328" stroke="white" stroke-width="0.585938" stroke-linecap="round" stroke-linejoin="round"/>
<path d="M52.7109 57.5313L52.6094 78.4297" stroke="white" stroke-width="0.585938" stroke-linecap="round" stroke-linejoin="round"/>
<path d="M37.3437 37.625C36.2422 40.7422 35.3594 43.9297 34.6875 47.1719C33.4609 53.1328 33.0156 59.5391 35.4297 65.1172C37.9766 71.0157 43.5078 75.2891 49.5859 77.375C55.3125 79.336 61.6406 79.5235 67.4766 77.8985" stroke="white" stroke-width="0.59375" stroke-linecap="round" stroke-linejoin="round"/>
<path d="M59.6117 65.8136L73.2042 57.9659C75.0314 56.911 77.3679 57.537 78.4229 59.3642L86.2705 72.9568C87.3255 74.784 86.6994 77.1205 84.8722 78.1754L71.2796 86.0231C69.4524 87.078 67.1159 86.452 66.061 84.6247L58.2133 71.0322C57.1584 69.205 57.7844 66.8685 59.6117 65.8136Z" stroke="white" stroke-width="1.22656" stroke-linecap="round" stroke-linejoin="round"/>
<path d="M67.164 89.2891L94.6093 52.4532C95.914 57.1797 98.3906 61.8907 98.8359 66.8203C99.8281 77.8594 95.8828 88.4531 85.4531 93.5235C78.7343 96.7891 74.0312 96.5781 66.9453 95.9141C65.8359 95.8125 63.0624 95.2813 62.4453 95.1719C63.9765 93.1875 65.664 91.3125 67.164 89.2969V89.2891Z" fill="#F0C92F"/>
<path d="M78.3984 73.6407L91.6406 86.7657" stroke="white" stroke-width="0.585938" stroke-linecap="round" stroke-linejoin="round"/>
<path d="M80.25 71.9453L96.3438 77.0078" stroke="white" stroke-width="0.585938" stroke-linecap="round" stroke-linejoin="round"/>
<path d="M80.469 71.7813C80.469 71.7813 96.4612 63.1172 95.8284 63.4063" stroke="white" stroke-width="0.585938" stroke-linecap="round" stroke-linejoin="round"/>
<path d="M78.1797 73.8047L78.2812 94.6953" stroke="white" stroke-width="0.585938" stroke-linecap="round" stroke-linejoin="round"/>
<path d="M93.5465 53.8906C94.6481 57.0078 95.5309 60.1953 96.2028 63.4375C97.4294 69.3985 97.8747 75.8047 95.4606 81.3828C92.9137 87.2813 87.3825 91.5547 81.3044 93.6406C75.5778 95.6016 69.2497 95.7891 63.4137 94.1641" stroke="white" stroke-width="0.59375" stroke-linecap="round" stroke-linejoin="round"/>
<path d="M31.5675 86.8213L44.8368 73.5519C46.6186 71.7702 49.5074 71.7702 51.2892 73.5519L64.5585 86.8212C66.3402 88.603 66.3402 91.4918 64.5585 93.2736L51.2892 106.543C49.5074 108.325 46.6186 108.325 44.8368 106.543L31.5675 93.2736C29.7857 91.4918 29.7857 88.603 31.5675 86.8213Z" stroke="white" stroke-width="1.46875" stroke-linecap="round" stroke-linejoin="round"/>
<path d="M72.2344 143.352C70.8359 141.961 69.2734 142.164 66.2578 140.25C63.8828 138.742 61.8672 137.219 59.5625 135.609C54.9609 132.383 50.4766 128.961 46.3359 125.164C42.7031 121.828 38.7656 117.984 36.5078 113.523C35.6172 111.766 33.6719 107.047 36.7109 106.18C38.0547 105.797 39.3203 106.789 40.2578 107.609C40.9922 108.242 41.6953 108.914 42.3906 109.594C43.5547 110.727 45.6875 113.5 46.8906 114.578C51.1172 118.367 54.6015 121.453 59.289 124.648C64.8359 128.43 73.125 131.289 75.6719 131.953C76.9609 132.289 78.1484 132.242 78.9766 131.586C79.2109 131.398 77.7031 130.555 76.6641 130.18C75.7656 129.852 74.1953 128.852 73.3438 128.406C71.6016 127.508 70.4922 126.758 68.8359 125.711C63.9297 122.602 59.3906 118.938 55.1016 115.023C51.2891 111.555 47.6406 107.836 44.4688 103.773C42.8828 101.734 38.6484 96.0781 40.8516 93.2344C43.2109 90.1953 47.3203 95.6328 48.7578 96.9844C53.1484 101.133 59.2109 108.227 64.1641 111.688C80.5 123.117 89.4219 122.211 89.6641 122.016C77.4141 114.078 64.5391 105.258 54.9609 94.2344C54.5234 93.7266 54.0703 93.1953 53.6328 92.6641C51.7344 90.336 49.9922 87.7266 49.4531 84.7813C49.0703 82.6563 49.7031 80.3203 52.3125 81.0234C53.8438 81.4375 54.9297 82.8672 56.0078 83.9219C57.7266 85.6094 59.5 87.25 61.3203 88.8359C65.1719 92.1953 69.4609 95.0078 73.4453 98.2031C83.1953 106.031 101.5 112.727 101.57 112.563C102.812 109.656 103.359 103.68 103.453 100.609C109.469 104.984 111.852 105.008 116.18 111.125C121.32 118.383 124.258 127.063 125.477 134.922C125.867 137.445 146.156 152.68 153.344 157C161.32 161.797 169.484 166.32 177.695 170.773C183.82 174.086 189.969 177.352 196.094 180.648V214.172H159.078C153.688 206.984 148.148 199.898 142.445 192.945C138.609 188.266 135.242 184.266 129.312 182.266C123.781 180.406 118.258 178.625 112.805 176.516C97.3984 170.563 81.7891 164.766 67.5156 156.344C64.1875 154.383 60.8359 152.398 57.8594 149.922C54.7422 147.32 52.2031 144.117 49.4297 141.172C48.0937 139.75 46.9297 138.047 45.789 136.477C44.5859 134.82 42.7031 132.867 41.8047 130.945C41.1016 129.438 40.8672 126.625 43.5469 127.164C45.5469 127.563 47.0234 129.102 48.4688 130.422C50.0703 131.891 51.8438 133.195 53.5938 134.492C58.1484 137.883 62.7656 141.914 68.1562 143.758C71.1484 144.781 72.3594 143.445 72.25 143.344L72.2344 143.352Z" fill="#D8A890"/>
<path d="M129.297 227.211C133.914 204.437 154.531 170.062 177.016 164.219C183.164 167.859 189.539 171.109 196.094 173.953V226.687C196.094 226.687 129.898 227.922 129.297 227.211Z" fill="#ECE7C4"/>
<path d="M56.1014 85.9375C56.4295 86.6484 56.4998 87.5234 56.1248 88.2109C55.5936 89.1797 54.2498 89.5234 53.2186 89.125C52.1873 88.7266 51.4607 87.7422 51.1326 86.6797C50.7342 85.4062 50.2342 82.6797 52.2029 82.75C53.742 82.8047 55.5232 84.6641 56.1092 85.9453L56.1014 85.9375Z" fill="#713318"/>
<path d="M47.4686 97.7813C47.7967 98.4922 47.867 99.3672 47.492 100.055C46.9607 101.023 45.617 101.367 44.5857 100.969C43.5545 100.57 42.8279 99.586 42.4998 98.5235C42.1014 97.25 41.6014 94.5235 43.5701 94.5938C45.1092 94.6485 46.8904 96.5078 47.4764 97.7891L47.4686 97.7813Z" fill="#713318"/>
<path d="M41.4925 110.844C41.8206 111.555 41.8909 112.43 41.5159 113.117C40.9847 114.086 39.6409 114.43 38.6097 114.031C37.5784 113.633 36.8519 112.648 36.5237 111.586C36.1253 110.312 35.6253 107.586 37.5941 107.656C39.1331 107.711 40.9144 109.57 41.5003 110.852L41.4925 110.844Z" fill="#713318"/>
<path d="M46.0078 130.313C46.2578 130.773 46.3515 131.352 46.1328 131.828C45.8203 132.5 44.9453 132.797 44.2343 132.578C43.5234 132.359 42.9921 131.734 42.7265 131.047C42.3984 130.219 41.9374 128.422 43.2499 128.375C44.2812 128.336 45.5624 129.492 46.0156 130.32L46.0078 130.313Z" fill="#713318"/>
<path d="M90.1641 99.5156C90.1641 100.617 91.0547 101.508 92.1562 101.508C93.2578 101.508 94.1484 100.617 94.1484 99.5156C94.1484 98.4141 93.2578 97.5235 92.1562 97.5235C91.0547 97.5235 90.1641 98.4141 90.1641 99.5156Z" stroke="white" stroke-width="1.22656" stroke-linecap="round" stroke-linejoin="round"/>
<path d="M35.7109 125.75C34.4252 125.75 33.3828 124.708 33.3828 123.422C33.3828 122.136 34.4252 121.094 35.7109 121.094C36.9967 121.094 38.0391 122.136 38.0391 123.422C38.0391 124.708 36.9967 125.75 35.7109 125.75Z" stroke="white" stroke-width="1.22656" stroke-linecap="round" stroke-linejoin="round"/>
<path d="M37.0391 137.039C37.0391 137.406 37.3359 137.703 37.7031 137.703C38.0703 137.703 38.3672 137.406 38.3672 137.039C38.3672 136.672 38.0703 136.375 37.7031 136.375C37.3359 136.375 37.0391 136.672 37.0391 137.039Z" stroke="white" stroke-width="1.22656" stroke-linecap="round" stroke-linejoin="round"/>
<path d="M30.7656 112.75C30.7656 113.117 31.0625 113.414 31.4297 113.414C31.7969 113.414 32.0938 113.117 32.0938 112.75C32.0938 112.383 31.7969 112.086 31.4297 112.086C31.0625 112.086 30.7656 112.383 30.7656 112.75Z" stroke="white" stroke-width="1.22656" stroke-linecap="round" stroke-linejoin="round"/>
<path d="M97.7734 94.5703C97.7734 94.9375 98.0703 95.2344 98.4375 95.2344C98.8047 95.2344 99.1016 94.9375 99.1016 94.5703C99.1016 94.2032 98.8047 93.9063 98.4375 93.9063C98.0703 93.9063 97.7734 94.2032 97.7734 94.5703Z" stroke="white" stroke-width="1.22656" stroke-linecap="round" stroke-linejoin="round"/>
</g>
<path d="M132.307 221.997L173.893 180.32C182.303 171.893 195.94 171.893 204.356 180.32L245.948 221.997C254.357 230.424 254.357 244.089 245.948 252.522L204.356 294.193C195.946 302.619 182.309 302.619 173.893 294.193L132.307 252.522C123.898 244.095 123.898 230.43 132.307 221.997Z" fill="#ECE7C4"/>
</svg>
