<svg width="237" height="200" viewBox="0 0 237 200" fill="none" xmlns="http://www.w3.org/2000/svg">
<path d="M102.196 151.524C69.3944 149.625 34.0572 142.957 16.5337 136.468C0.138329 130.393 -18.3568 121.625 -29.6035 98.6964C-33.3338 91.6602 -34.875 87.2151 -36.3381 80.1566C-38.9404 68.2956 -43.3855 40.754 -36.0924 14.5191C-41.6878 19.6678 -46.1776 29.5855 -49.3048 44.797C-54.7885 71.4451 -51.371 92.7212 -43.8545 108.424C-33.2221 130.638 -9.14272 146.822 7.15217 152.227C38.3906 162.603 66.4683 166.646 101.113 168.645C147.686 171.337 200.435 176.709 223.9 197.962L234.633 186.112C206.086 160.246 154.42 154.55 102.196 151.535V151.524Z" fill="#FF5951"/>
<path d="M2.74031 138.065C2.58395 138.065 2.47227 136.48 2.69564 134.547C2.91901 132.615 3.38809 131.096 3.54445 131.13C3.7008 131.163 3.48861 132.705 3.2764 134.614C3.05303 136.513 2.90784 138.065 2.74031 138.065Z" fill="#380C19"/>
<path d="M7.02927 139.004C6.87291 138.97 7.0516 137.675 7.25264 136.089C7.46484 134.503 7.6212 133.207 7.77756 133.207C7.93392 133.207 8.03444 134.536 7.82223 136.167C7.61003 137.786 7.17446 139.048 7.0181 139.015L7.02927 139.004Z" fill="#380C19"/>
<path d="M11.3178 145.359C11.1614 145.336 11.3513 143.058 11.7534 140.266C12.1554 137.474 12.6134 135.229 12.7697 135.262C12.9261 135.285 12.7362 137.563 12.3341 140.355C11.9321 143.147 11.4742 145.381 11.3178 145.359Z" fill="#380C19"/>
<path d="M16.3215 142.376C16.1651 142.354 16.2321 141.092 16.4667 139.573C16.7124 138.054 17.0363 136.837 17.1926 136.859C17.349 136.882 17.282 138.144 17.0474 139.663C16.8017 141.181 16.4778 142.399 16.3215 142.376Z" fill="#380C19"/>
<path d="M20.7106 144.432C20.5542 144.409 20.6548 143.013 20.9451 141.338C21.2355 139.651 21.5929 138.311 21.7493 138.334C21.9056 138.356 21.8051 139.752 21.5147 141.427C21.2244 143.114 20.867 144.454 20.7106 144.432Z" fill="#380C19"/>
<path d="M23.8382 149.569C23.6819 149.536 23.9723 147.257 24.486 144.465C24.9998 141.673 25.547 139.439 25.7034 139.462C25.8597 139.495 25.5693 141.773 25.0556 144.566C24.5418 147.358 23.9946 149.591 23.8382 149.569Z" fill="#380C19"/>
<path d="M28.9308 147.146C28.7745 147.123 28.8415 145.638 29.076 143.829C29.3106 142.019 29.6345 140.567 29.802 140.59C29.9584 140.612 29.8913 142.097 29.6568 143.907C29.4223 145.716 29.0984 147.168 28.9308 147.146Z" fill="#380C19"/>
<path d="M33.4429 148.274C33.2865 148.229 33.5099 146.844 33.8115 145.146C34.113 143.449 34.3699 142.075 34.5374 142.086C34.6938 142.097 34.6938 143.527 34.3811 145.247C34.0795 146.967 33.5881 148.307 33.4317 148.262L33.4429 148.274Z" fill="#380C19"/>
<path d="M37.3853 153.981C37.2289 153.958 37.4634 151.445 37.9213 148.374C38.3793 145.303 38.8707 142.823 39.0382 142.857C39.1946 142.879 38.96 145.392 38.5021 148.463C38.0442 151.535 37.5528 154.003 37.3853 153.981Z" fill="#380C19"/>
<path d="M43.9187 150.987C43.7624 150.965 43.8182 149.502 44.0528 147.726C44.2873 145.939 44.6112 144.51 44.7675 144.532C44.9239 144.554 44.8681 146.017 44.6335 147.793C44.399 149.58 44.0751 151.01 43.9187 150.987Z" fill="#380C19"/>
<path d="M48.308 151.736C48.1517 151.724 48.1852 150.139 48.3751 148.195C48.5761 146.252 48.8665 144.699 49.0228 144.711C49.1792 144.722 49.1457 146.308 48.9558 148.251C48.7548 150.194 48.4644 151.747 48.308 151.736Z" fill="#380C19"/>
<path d="M53.4123 156.036C53.2559 156.013 53.4123 153.824 53.7585 151.144C54.1159 148.463 54.5291 146.308 54.6855 146.33C54.8418 146.352 54.6855 148.541 54.3393 151.222C53.9819 153.902 53.5686 156.058 53.4123 156.036Z" fill="#380C19"/>
<path d="M60.292 153.88C60.1356 153.88 60.1021 152.328 60.225 150.44C60.3478 148.553 60.5712 147.034 60.7387 147.045C60.9062 147.056 60.9286 148.597 60.8057 150.485C60.6829 152.372 60.4595 153.891 60.292 153.88Z" fill="#380C19"/>
<path d="M65.1839 154.539C65.0275 154.517 65.0722 153.02 65.2956 151.177C65.5189 149.346 65.8317 147.871 65.988 147.883C66.1444 147.905 66.0997 149.401 65.8763 151.244C65.653 153.076 65.3402 154.55 65.1839 154.528V154.539Z" fill="#380C19"/>
<path d="M69.6735 159.319C69.5171 159.297 69.6735 156.896 70.0197 153.947C70.366 150.999 70.7792 148.62 70.9467 148.642C71.1031 148.665 70.9467 151.066 70.6005 154.014C70.2543 156.963 69.841 159.33 69.6735 159.319Z" fill="#380C19"/>
<path d="M76.4084 156.594C76.2521 156.594 76.2185 154.919 76.3526 152.875C76.4754 150.831 76.71 149.189 76.8663 149.2C77.0227 149.2 77.0562 150.876 76.9222 152.92C76.7993 154.963 76.5648 156.605 76.4084 156.594Z" fill="#380C19"/>
<path d="M82.4837 156.885C82.3273 156.873 82.3385 155.366 82.506 153.534C82.6735 151.702 82.9527 150.217 83.1091 150.239C83.2655 150.262 83.2543 151.758 83.0868 153.59C82.9192 155.421 82.64 156.907 82.4837 156.885Z" fill="#380C19"/>
<path d="M87.7554 162.123C87.5879 162.1 87.8225 159.509 88.057 156.304C88.3027 153.11 88.4702 150.507 88.6378 150.507C88.7941 150.507 88.8835 153.132 88.6378 156.348C88.3921 159.565 87.9118 162.145 87.7554 162.123Z" fill="#380C19"/>
<path d="M94.8249 157.912C94.6686 157.912 94.6015 156.371 94.6797 154.483C94.7579 152.596 94.9478 151.077 95.1153 151.077C95.2717 151.077 95.3387 152.618 95.2605 154.506C95.1823 156.393 94.9925 157.912 94.8249 157.912Z" fill="#380C19"/>
<path d="M101.482 158.66C101.325 158.66 101.247 157.097 101.314 155.187C101.381 153.277 101.56 151.724 101.727 151.736C101.884 151.736 101.962 153.299 101.895 155.209C101.828 157.119 101.649 158.671 101.482 158.66Z" fill="#380C19"/>
<path d="M107.501 164.088C107.345 164.077 107.479 161.307 107.803 157.923C108.127 154.528 108.518 151.803 108.674 151.814C108.83 151.825 108.696 154.584 108.372 157.979C108.049 161.363 107.658 164.099 107.501 164.088Z" fill="#380C19"/>
<path d="M115.208 159.688C115.051 159.688 114.929 158.091 114.951 156.125C114.973 154.159 115.118 152.573 115.275 152.573C115.431 152.573 115.554 154.17 115.532 156.136C115.509 158.102 115.364 159.688 115.208 159.688Z" fill="#380C19"/>
<path d="M121.44 160.626C121.283 160.626 121.183 158.939 121.395 156.884C121.596 154.818 122.032 153.199 122.188 153.221C122.344 153.255 122.177 154.908 121.976 156.94C121.764 158.973 121.607 160.626 121.451 160.626H121.44Z" fill="#380C19"/>
<path d="M126.019 164.557C125.863 164.535 126.008 162.033 126.343 158.951C126.678 155.868 127.08 153.389 127.248 153.411C127.404 153.433 127.259 155.935 126.924 159.018C126.589 162.1 126.186 164.58 126.019 164.557Z" fill="#380C19"/>
<path d="M132.608 161.832C132.452 161.821 132.463 159.989 132.642 157.733C132.82 155.488 133.088 153.668 133.245 153.679C133.401 153.69 133.39 155.522 133.211 157.778C133.032 160.023 132.764 161.843 132.608 161.832Z" fill="#380C19"/>
<path d="M138.907 161.564C138.751 161.542 138.807 159.978 139.042 158.068C139.276 156.158 139.589 154.617 139.745 154.64C139.901 154.662 139.846 156.225 139.611 158.135C139.377 160.045 139.064 161.586 138.907 161.564Z" fill="#380C19"/>
<path d="M144.715 165.775C144.559 165.741 144.849 163.463 145.173 160.659C145.497 157.845 145.731 155.567 145.899 155.578C146.055 155.578 146.078 157.901 145.754 160.726C145.43 163.563 144.871 165.808 144.726 165.775H144.715Z" fill="#380C19"/>
<path d="M151.115 162.871C150.958 162.848 151.036 161.24 151.282 159.274C151.539 157.309 151.874 155.734 152.03 155.756C152.187 155.779 152.109 157.387 151.863 159.353C151.606 161.318 151.271 162.893 151.115 162.871Z" fill="#380C19"/>
<path d="M157.246 164.177C157.09 164.155 157.157 162.491 157.403 160.447C157.648 158.403 157.972 156.762 158.129 156.784C158.285 156.806 158.218 158.47 157.972 160.514C157.726 162.558 157.403 164.2 157.246 164.177Z" fill="#380C19"/>
<path d="M161.781 168.678C161.624 168.656 161.87 166.188 162.328 163.161C162.786 160.135 163.288 157.7 163.445 157.733C163.601 157.756 163.355 160.224 162.897 163.251C162.439 166.277 161.937 168.712 161.781 168.678Z" fill="#380C19"/>
<path d="M167.387 165.305C167.231 165.272 167.454 163.753 167.778 161.899C168.102 160.045 168.403 158.537 168.56 158.56C168.716 158.582 168.671 160.123 168.347 162C168.024 163.876 167.543 165.35 167.387 165.305Z" fill="#380C19"/>
<path d="M172.983 166.333C172.826 166.311 172.893 164.769 173.15 162.882C173.407 160.994 173.731 159.487 173.898 159.498C174.055 159.52 173.988 161.062 173.731 162.949C173.474 164.836 173.15 166.344 172.983 166.333Z" fill="#380C19"/>
<path d="M176.936 171.94C176.78 171.917 177.026 169.404 177.495 166.333C177.964 163.262 178.466 160.793 178.623 160.816C178.779 160.838 178.533 163.351 178.064 166.422C177.595 169.494 177.093 171.962 176.936 171.94Z" fill="#380C19"/>
<path d="M182.152 168.299C181.996 168.276 182.13 166.78 182.442 164.971C182.766 163.161 183.157 161.709 183.313 161.743C183.47 161.776 183.336 163.262 183.023 165.071C182.699 166.88 182.308 168.332 182.152 168.299Z" fill="#380C19"/>
<path d="M187.457 169.706C187.301 169.684 187.401 168.176 187.68 166.333C187.96 164.49 188.317 163.027 188.473 163.05C188.63 163.072 188.529 164.58 188.25 166.422C187.971 168.265 187.613 169.728 187.457 169.706Z" fill="#380C19"/>
<path d="M192.405 173.637C192.248 173.615 192.46 171.571 192.874 169.092C193.298 166.612 193.767 164.613 193.923 164.647C194.08 164.669 193.868 166.713 193.454 169.192C193.03 171.672 192.561 173.671 192.405 173.637Z" fill="#380C19"/>
<path d="M197.498 172.062C197.341 172.029 197.442 170.678 197.732 169.047C198.023 167.416 198.38 166.11 198.536 166.132C198.693 166.154 198.592 167.506 198.302 169.147C198.011 170.789 197.654 172.096 197.498 172.062Z" fill="#380C19"/>
<path d="M202.579 174.196C202.422 174.162 202.579 172.755 202.925 171.046C203.271 169.337 203.684 167.975 203.841 168.008C203.997 168.042 203.841 169.449 203.495 171.158C203.148 172.867 202.735 174.229 202.579 174.196Z" fill="#380C19"/>
<path d="M205.092 179.601C204.936 179.557 205.383 177.267 206.075 174.486C206.768 171.705 207.46 169.483 207.628 169.516C207.784 169.55 207.348 171.839 206.645 174.631C205.941 177.424 205.249 179.646 205.092 179.601Z" fill="#380C19"/>
<path d="M210.777 178.027C210.62 177.971 211.011 176.575 211.447 174.855C211.883 173.135 212.218 171.728 212.374 171.75C212.53 171.772 212.452 173.246 212.005 175C211.559 176.753 210.922 178.082 210.777 178.027Z" fill="#380C19"/>
<path d="M215.669 180.003C215.512 179.959 215.725 178.63 216.138 177.021C216.551 175.413 217.02 174.14 217.176 174.184C217.333 174.229 217.121 175.558 216.707 177.166C216.294 178.775 215.825 180.048 215.669 180.003Z" fill="#380C19"/>
<path d="M218.617 184.571C218.472 184.504 219.153 182.807 219.98 180.729C220.817 178.652 221.488 176.954 221.644 177.01C221.789 177.055 221.365 178.853 220.527 180.953C219.689 183.052 218.762 184.65 218.617 184.583V184.571Z" fill="#380C19"/>
<path d="M218.617 194.366L226.949 180.003L236.442 187.185L224.123 199.716L218.617 194.366Z" fill="#E0D5D8"/>
</svg>
