<svg width="196" height="241" viewBox="0 0 196 241" fill="none" xmlns="http://www.w3.org/2000/svg">
<path d="M196 408V158.75C196 71.0751 121.729 0 30.1067 0H-23V408H196Z" fill="#E3E7EC"/>
<path d="M-3 123V247.308H120.973C120.973 178.654 65.4686 123 -3 123Z" fill="#E8662B"/>
<g clip-path="url(#clip0_1_162)">
<path d="M-21 274L-21 272.577C40.0123 272.577 89.649 220.281 89.649 156C89.649 91.7192 40.0123 39.4234 -21 39.4234L-21 38C8.91508 38 37.0434 50.2733 58.1971 72.5602C79.3508 94.8471 91 124.482 91 156C91 187.518 79.3508 217.153 58.1971 239.44C37.0434 261.727 8.91845 274 -21 274Z" fill="#293342"/>
<path d="M-21.0001 258.254L-21.0001 256.83C31.771 256.83 74.7032 211.598 74.7032 156C74.7032 100.402 31.771 55.1698 -21.0001 55.1698L-21.0001 53.7464C4.92272 53.7464 29.2952 64.3827 47.6286 83.6947C65.9587 103.007 76.0542 128.685 76.0542 156C76.0542 183.315 65.9587 208.99 47.6286 228.305C29.2986 247.617 4.92609 258.254 -21.0001 258.254Z" fill="#293342"/>
</g>
<defs>
<clipPath id="clip0_1_162">
<rect width="236" height="112" fill="white" transform="translate(91 38) rotate(90)"/>
</clipPath>
</defs>
</svg>
