<svg width="55" height="41" viewBox="0 0 55 41" fill="none" xmlns="http://www.w3.org/2000/svg">
<path d="M38.5742 10.9161L10.2339 21.1416L13.2186 29.414L41.559 19.1884L38.5742 10.9161Z" fill="#E0E0E0"/>
<path d="M10.0245 12.7488L1.21947 15.9257C0.546041 16.1687 0.197096 16.9116 0.440077 17.585L8.3755 39.5783C8.61848 40.2518 9.36137 40.6007 10.0348 40.3577L18.8398 37.1808C19.5132 36.9378 19.8622 36.1949 19.6192 35.5215L11.6838 13.5282C11.4408 12.8547 10.6979 12.5058 10.0245 12.7488Z" fill="#E0E0E0"/>
<path d="M18.8484 37.1533C18.8484 37.1533 19.1214 37.085 19.4147 36.6962C19.5512 36.5051 19.6808 36.2186 19.6535 35.8638C19.6262 35.5227 19.4215 35.1406 19.2783 34.704C18.6301 32.9369 17.7022 30.4125 16.5561 27.3014C15.4167 24.163 14.059 20.4379 12.5512 16.3034C12.3601 15.7848 12.1759 15.2595 11.9781 14.7342C11.8826 14.4681 11.787 14.202 11.6915 13.9359L11.5483 13.5334C11.5073 13.4106 11.4391 13.3014 11.3572 13.2059C11.0229 12.8034 10.4362 12.6737 9.92447 12.9193C9.37184 13.1172 8.81238 13.3219 8.25292 13.5266C6.00146 14.3384 3.66814 15.1845 1.27341 16.0509C0.73442 16.2351 0.406936 16.856 0.550211 17.4018C0.741244 17.9681 0.966392 18.5685 1.17107 19.1484C1.58725 20.3151 2.00341 21.4613 2.41277 22.587C3.22466 24.8453 4.00245 27.0149 4.75294 29.0889C5.49661 31.163 6.19933 33.1347 6.86113 34.9769C7.18861 35.8979 7.50927 36.7917 7.81629 37.6445C7.96638 38.0743 8.11648 38.4905 8.26658 38.8999C8.34163 39.1045 8.40984 39.3092 8.48489 39.5071C8.55312 39.6913 8.66229 39.855 8.79875 39.9915C9.07847 40.2507 9.481 40.3667 9.83577 40.2917C10.1905 40.1962 10.5658 40.0392 10.9138 39.9232C11.6233 39.6708 12.2851 39.4388 12.9128 39.2137C14.1545 38.7771 15.2325 38.395 16.1126 38.088C16.9791 37.7878 17.6613 37.5558 18.1389 37.3852C18.3572 37.3102 18.5346 37.2556 18.6711 37.2078C18.7939 37.1669 18.8553 37.1533 18.8553 37.1601C18.8553 37.1601 18.8007 37.1942 18.6847 37.242C18.5551 37.2965 18.3845 37.3579 18.1662 37.4466C17.6886 37.624 17.0132 37.8765 16.1603 38.2039C15.2802 38.5314 14.2159 38.9203 12.9742 39.3774C12.3533 39.6026 11.6915 39.8482 10.982 40.1075C10.6204 40.2303 10.2861 40.3804 9.87671 40.4963C9.46053 40.585 8.98976 40.4622 8.65545 40.1552C8.49171 40.0051 8.35527 39.8073 8.28022 39.5889C8.20517 39.3911 8.13013 39.1864 8.05508 38.9817C7.90499 38.5724 7.75488 38.1562 7.59796 37.7264C7.28412 36.8735 6.96347 35.9866 6.62916 35.0655C5.96054 33.2234 5.24417 31.2585 4.49368 29.1845C3.74319 27.1104 2.95858 24.9408 2.13987 22.6893C1.73051 21.5636 1.31433 20.4174 0.89815 19.2507C0.686649 18.664 0.475153 18.0977 0.263652 17.4769C0.0794414 16.7878 0.495618 16.01 1.17788 15.778C3.56579 14.9184 5.89913 14.0724 8.15742 13.2605C8.72369 13.0558 9.28314 12.858 9.83577 12.6601C10.3952 12.3804 11.1866 12.5236 11.5824 13.0353C11.6847 13.1581 11.7666 13.2946 11.8212 13.4447L11.9713 13.8472C12.0668 14.1133 12.1623 14.3794 12.2578 14.6455C12.4488 15.1776 12.6399 15.703 12.8241 16.2215C14.3046 20.3628 15.6418 24.0948 16.7675 27.24C17.8728 30.3648 18.7734 32.9028 19.4011 34.6767C19.4761 34.895 19.5512 35.1065 19.6194 35.2975C19.6876 35.4885 19.7559 35.6864 19.7559 35.8706C19.7695 36.2459 19.6262 36.546 19.4761 36.7439C19.3192 36.9418 19.1555 37.0441 19.0395 37.0987C18.9235 37.1533 18.8621 37.1669 18.8621 37.1669L18.8484 37.1533Z" fill="#EBEBEB"/>
<path d="M43.995 0.440096L35.1906 3.61858C34.5172 3.86168 34.1684 4.60464 34.4115 5.27803L42.3507 27.2699C42.5938 27.9433 43.3368 28.2921 44.0102 28.049L52.8146 24.8706C53.488 24.6275 53.8369 23.8845 53.5938 23.2111L45.6545 1.2192C45.4114 0.545816 44.6684 0.196998 43.995 0.440096Z" fill="#E0E0E0"/>
<path d="M52.8116 24.893C52.8116 24.893 53.0845 24.8247 53.3779 24.4359C53.5143 24.2448 53.6439 23.9583 53.6167 23.6035C53.5894 23.2624 53.3847 22.8803 53.2414 22.4437C52.5933 20.6766 51.6654 18.1522 50.5192 15.0411C49.3798 11.9027 48.0221 8.17757 46.5143 4.04307C46.3233 3.52455 46.1391 2.99921 45.9412 2.47386C45.8457 2.20778 45.7502 1.9417 45.6547 1.67562L45.5114 1.27309C45.4705 1.15028 45.4022 1.04111 45.3204 0.945595C44.9861 0.543061 44.3993 0.413433 43.8876 0.659047C43.335 0.856903 42.7755 1.06158 42.2161 1.26626C39.9646 2.07815 37.6313 2.92416 35.2365 3.79063C34.6976 3.97484 34.3701 4.5957 34.5133 5.14151C34.7044 5.70778 34.9295 6.30817 35.1342 6.88809C35.5504 8.05476 35.9665 9.20096 36.3759 10.3267C37.1878 12.585 37.9656 14.7546 38.7161 16.8286C39.4597 18.9027 40.1625 20.8744 40.8243 22.7166C41.1517 23.6376 41.4724 24.5314 41.7794 25.3842C41.9295 25.814 42.0796 26.2302 42.2297 26.6396C42.3048 26.8442 42.373 27.0489 42.448 27.2468C42.5163 27.431 42.6254 27.5947 42.7619 27.7312C43.0416 27.9904 43.4441 28.1064 43.7989 28.0314C44.1537 27.9359 44.5289 27.7789 44.8769 27.6629C45.5864 27.4105 46.2482 27.1785 46.8759 26.9534C48.1176 26.5168 49.1956 26.1347 50.0757 25.8277C50.9422 25.5275 51.6245 25.2955 52.102 25.1249C52.3204 25.0499 52.4977 24.9953 52.6342 24.9475C52.757 24.9066 52.8184 24.893 52.8184 24.8998C52.8184 24.8998 52.7638 24.9339 52.6478 24.9817C52.5182 25.0362 52.3476 25.0976 52.1293 25.1863C51.6517 25.3637 50.9763 25.6162 50.1235 25.9436C49.2434 26.2711 48.179 26.66 46.9373 27.1171C46.3165 27.3423 45.6547 27.5879 44.9451 27.8472C44.5835 27.97 44.2492 28.1201 43.8398 28.236C43.4237 28.3247 42.9529 28.2019 42.6186 27.8949C42.4549 27.7448 42.3184 27.547 42.2434 27.3286C42.1683 27.1308 42.0933 26.9261 42.0182 26.7214C41.8681 26.3121 41.718 25.8959 41.5611 25.4661C41.2473 24.6132 40.9266 23.7263 40.5923 22.8052C39.9237 20.9631 39.2073 18.9982 38.4568 16.9242C37.7063 14.8501 36.9217 12.6805 36.103 10.429C35.6936 9.3033 35.2775 8.1571 34.8613 6.99043C34.6498 6.40369 34.4383 5.83741 34.2268 5.21656C34.0426 4.52747 34.4588 3.74969 35.141 3.51772C37.5289 2.65807 39.8623 1.81207 42.1206 1.00018C42.6868 0.795499 43.2463 0.59765 43.7989 0.399795C44.3584 0.120068 45.1498 0.263334 45.5455 0.77503C45.6478 0.897837 45.7297 1.03429 45.7843 1.18439L45.9344 1.58692C46.0299 1.853 46.1254 2.11909 46.2209 2.38517C46.412 2.91733 46.603 3.44268 46.7872 3.9612C48.2677 8.10252 49.605 11.8345 50.7307 14.9797C51.8359 18.1045 52.7365 20.6425 53.3642 22.4164C53.4393 22.6347 53.5143 22.8462 53.5825 23.0372C53.6508 23.2282 53.719 23.4261 53.719 23.6103C53.7326 23.9856 53.5894 24.2857 53.4393 24.4836C53.2823 24.6815 53.1186 24.7838 53.0026 24.8384C52.8866 24.893 52.8252 24.9066 52.8252 24.9066L52.8116 24.893Z" fill="#EBEBEB"/>
<path d="M47.5375 6.96318C47.5648 7.03823 45.1428 7.98657 42.1272 9.07819C39.1116 10.1698 36.6418 10.9885 36.6145 10.9066C36.5872 10.8316 39.0092 9.88325 42.0248 8.79163C45.0404 7.70001 47.5102 6.88131 47.5375 6.96318Z" fill="#EBEBEB"/>
<path d="M51.2286 17.1903C51.2559 17.2653 48.8338 18.2136 45.8182 19.3053C42.8027 20.3969 40.3329 21.2156 40.3056 21.1337C40.2783 21.0587 42.7003 20.1103 45.7159 19.0187C48.7315 17.9271 51.2013 17.1084 51.2286 17.1903Z" fill="#EBEBEB"/>
<path d="M13.6087 19.2097C13.636 19.2848 11.2139 20.2331 8.19833 21.3247C5.18274 22.4164 2.71294 23.2351 2.68565 23.1532C2.65836 23.0781 5.08041 22.1298 8.096 21.0382C11.1116 19.9466 13.5814 19.1279 13.6087 19.2097Z" fill="#EBEBEB"/>
<path d="M17.2998 29.4368C17.3271 29.5119 14.9051 30.4602 11.8895 31.5518C8.8739 32.6434 6.40411 33.4621 6.37682 33.3803C6.34952 33.3052 8.77157 32.3569 11.7872 31.2653C14.8028 30.1736 17.2725 29.3549 17.2998 29.4368Z" fill="#EBEBEB"/>
</svg>
