<svg width="37" height="197" viewBox="0 0 37 197" fill="none" xmlns="http://www.w3.org/2000/svg">
<g opacity="0.64" clip-path="url(#clip0_1_243)">
<path d="M14.2895 152.684C17.5578 155.959 17.5578 161.269 14.2895 164.544C11.0212 167.819 5.72224 167.819 2.45393 164.544C-0.814377 161.269 -0.814376 155.959 2.45394 152.684C5.72225 149.409 11.0212 149.409 14.2895 152.684Z" fill="#95D8E9"/>
<path d="M16.5132 126.639C17.575 131.147 14.7889 135.664 10.2904 136.728C5.79194 137.791 1.28448 135 0.222744 130.492C-0.838996 125.984 1.94704 121.468 6.44553 120.404C10.944 119.34 15.4515 122.132 16.5132 126.639Z" fill="#95D8E9"/>
<path d="M14.291 92.5878C17.5593 95.8628 17.5593 101.173 14.291 104.448C11.0227 107.722 5.72371 107.722 2.4554 104.448C-0.812913 101.173 -0.812915 95.8628 2.4554 92.5878C5.72371 89.3128 11.0227 89.3128 14.291 92.5878Z" fill="#95D8E9"/>
<path d="M16.7381 68.4729C16.7381 63.8402 12.9923 60.0868 8.36903 60.0868C3.74575 60.0868 0 63.8402 0 68.4729C0 73.1056 3.74575 76.859 8.36903 76.859C12.9923 76.859 16.7381 73.1056 16.7381 68.4729Z" fill="#95D8E9"/>
<path d="M16.5132 36.5082C17.575 41.0158 14.7889 45.5325 10.2904 46.5964C5.79193 47.6603 1.28448 44.8686 0.222744 40.3609C-0.838996 35.8532 1.94703 31.3366 6.44552 30.2727C10.944 29.2088 15.4515 32.0005 16.5132 36.5082Z" fill="#95D8E9"/>
<path d="M14.2803 2.45203C17.5486 5.727 17.5486 11.0368 14.2803 14.3118C11.0119 17.5867 5.71297 17.5867 2.44466 14.3118C-0.823655 11.0368 -0.823653 5.727 2.44466 2.45203C5.71297 -0.822946 11.0119 -0.822947 14.2803 2.45203Z" fill="#95D8E9"/>
<path d="M41.8701 187.266C42.6107 191.838 39.5125 196.146 34.9501 196.888C30.3877 197.63 26.0888 194.525 25.3483 189.954C24.6077 185.382 27.7059 181.074 32.2682 180.332C36.8306 179.59 41.1295 182.695 41.8701 187.266Z" fill="#95D8E9"/>
<path d="M36.8039 150.823C41.0741 152.596 43.1019 157.501 41.3332 161.78C39.5644 166.059 34.6687 168.091 30.3985 166.319C26.1282 164.546 24.1004 159.641 25.8692 155.362C27.638 151.083 32.5336 149.051 36.8039 150.823Z" fill="#95D8E9"/>
<path d="M41.875 127.174C42.6155 131.746 39.5174 136.054 34.955 136.796C30.3926 137.538 26.0937 134.433 25.3531 129.862C24.6126 125.29 27.7107 120.982 32.2731 120.24C36.8355 119.498 41.1344 122.603 41.875 127.174Z" fill="#95D8E9"/>
<path d="M36.8087 90.727C41.079 92.4994 43.1068 97.405 41.338 101.684C39.5692 105.963 34.6736 107.995 30.4034 106.222C26.1331 104.45 24.1053 99.5445 25.8741 95.2655C27.6429 90.9865 32.5385 88.9546 36.8087 90.727Z" fill="#95D8E9"/>
<path d="M33.6059 60.046C38.2279 60.046 41.9749 63.8006 41.9749 68.4321C41.9749 73.0636 38.2279 76.8182 33.6059 76.8182C28.9838 76.8182 25.2368 73.0636 25.2368 68.4321C25.2368 63.8006 28.9838 60.046 33.6059 60.046Z" fill="#95D8E9"/>
<path d="M41.9749 38.3887C41.9749 33.756 38.2291 30.0026 33.6059 30.0026C28.9826 30.0026 25.2368 33.756 25.2368 38.3887C25.2368 43.0214 28.9826 46.7748 33.6059 46.7748C38.2291 46.7748 41.9749 43.0214 41.9749 38.3887Z" fill="#95D8E9"/>
</g>
<defs>
<clipPath id="clip0_1_243">
<rect width="41.9752" height="197" fill="white" transform="matrix(1 0 0 -1 0 197)"/>
</clipPath>
</defs>
</svg>
