<svg width="59" height="108" viewBox="0 0 59 108" fill="none" xmlns="http://www.w3.org/2000/svg">
<g clip-path="url(#clip0_1_9907)">
<path d="M-34 171L-34 169.969C16.662 169.969 57.8782 132.076 57.8782 85.5C57.8782 38.9236 16.662 1.03136 -34 1.03136L-34 -4.06516e-06C-9.1598 -2.97936e-06 14.1968 8.89293 31.7619 25.0415C49.327 41.1901 59 62.663 59 85.5C59 108.337 49.327 129.81 31.7619 145.958C14.1968 162.107 -9.157 171 -34 171Z" fill="#293342"/>
<path d="M-34 159.59L-34 158.559C9.81882 158.559 45.4679 125.785 45.4679 85.5C45.4679 45.2149 9.81882 12.4408 -34 12.4408L-34 11.4094C-12.4748 11.4094 7.76307 19.1163 22.9863 33.1093C38.2068 47.1023 46.5897 65.7081 46.5897 85.5C46.5897 105.292 38.2068 123.895 22.9863 137.891C7.76586 151.884 -12.472 159.59 -34 159.59Z" fill="#293342"/>
</g>
<defs>
<clipPath id="clip0_1_9907">
<rect width="171" height="93" fill="white" transform="translate(59) rotate(90)"/>
</clipPath>
</defs>
</svg>
