<svg width="77" height="84" viewBox="0 0 77 84" fill="none" xmlns="http://www.w3.org/2000/svg">
<path d="M-27 2C-11.1498 29.3074 16.96 49.1595 47.9696 54.949" stroke="#E8662B" stroke-width="2.78" stroke-linecap="round" stroke-linejoin="round"/>
<path d="M-0.601618 33.2687C-6.20834 45.6756 -3.84682 61.2871 5.18285 71.4746C9.98716 58.956 8.14873 43.4156 -0.601618 33.2687Z" fill="#E8662B" stroke="white" stroke-width="2.78" stroke-linecap="round" stroke-linejoin="round"/>
<path d="M18.018 44C12.4113 56.4069 14.7728 72.0184 23.8025 82.206C28.6068 69.6873 26.7684 54.147 18.018 44Z" fill="#E8662B" stroke="white" stroke-width="2.78" stroke-linecap="round" stroke-linejoin="round"/>
<path d="M54.8208 32.8218C41.713 29.1855 26.6704 33.9238 18.0063 44.4262C31.0989 47.255 46.1517 43.0449 54.8208 32.8218Z" fill="#E8662B" stroke="white" stroke-width="2.78" stroke-linecap="round" stroke-linejoin="round"/>
<path d="M35.7759 21.4966C22.6681 17.8603 7.62544 22.5986 -1.03857 33.1011C12.0539 35.9298 27.1068 31.7197 35.7759 21.4966Z" fill="#E8662B" stroke="white" stroke-width="2.78" stroke-linecap="round" stroke-linejoin="round"/>
<path d="M37.1572 52.1609C47.5683 60.9265 63.2153 62.8766 75.4546 56.9347C64.7236 48.9157 49.2848 46.478 37.1572 52.1609Z" fill="#E8662B" stroke="white" stroke-width="2.78" stroke-linecap="round" stroke-linejoin="round"/>
</svg>
