<svg width="89" height="97" viewBox="0 0 89 97" fill="none" xmlns="http://www.w3.org/2000/svg">
<path d="M73.7134 10H14.2985C6.40164 10 0 16.4016 0 24.2985V82.131C0 90.0278 6.40164 96.4295 14.2985 96.4295H73.7134C81.6102 96.4295 88.0118 90.0278 88.0118 82.131V24.2985C88.0118 16.4016 81.6102 10 73.7134 10Z" fill="#F26929"/>
<path d="M53.9531 7.57L56.2131 0L69.4931 4.39L66.0931 13.12L53.9531 7.57Z" fill="#95D8E9"/>
<path d="M66.2032 41.59C66.2032 41.59 66.2032 41.65 66.1932 41.66L49.8132 84.37C49.0932 86.24 46.8432 87.6 43.5032 88C40.1732 88.4 35.7432 87.85 30.6932 85.93L30.6332 85.91C20.5332 82.01 16.0232 75.72 17.4632 71.97L33.8432 29.26C33.8432 29.26 33.8632 29.23 33.8832 29.2C33.8832 29.18 33.8832 29.14 33.9032 29.11C35.5232 24.94 40.2632 21.76 45.0032 18.64C48.1832 16.56 50.2632 12.61 51.2932 10.21C51.4132 9.92001 51.5232 9.67001 51.6132 9.43001L51.3332 9.32001C49.9932 8.81001 49.2732 7.47001 49.7132 6.33001L50.4032 4.52001C50.8432 3.37001 52.2732 2.86001 53.6132 3.37001L68.7832 9.19001C69.7832 9.57001 70.4432 10.42 70.5232 11.3C70.5432 11.6 70.5032 11.9 70.3932 12.19L69.7032 14C69.2632 15.14 67.8332 15.65 66.5032 15.14L66.2232 15.03C66.1332 15.27 66.0432 15.53 65.9432 15.82C65.1032 18.29 64.0132 22.62 64.9832 26.29C66.4232 31.78 67.8132 37.32 66.2332 41.5C66.2232 41.53 66.1932 41.56 66.1932 41.58L66.2032 41.59Z" fill="#FAFAFA"/>
<path d="M66.2031 41.59C66.2031 41.59 66.2631 41.44 66.3431 41.14C66.4431 40.85 66.5531 40.4 66.6731 39.8C66.8931 38.61 66.9931 36.8 66.6831 34.49C66.3931 32.18 65.7131 29.41 64.8531 26.19C64.4331 24.56 64.4031 22.73 64.6331 20.84C64.8631 18.95 65.3631 16.98 66.0931 14.98L66.1431 14.85L66.2731 14.9C66.8331 15.14 67.4231 15.26 68.0231 15.15C68.6131 15.04 69.1731 14.7 69.4631 14.17C69.7131 13.61 69.9331 12.96 70.1831 12.35C70.4631 11.76 70.4531 11.09 70.1331 10.52C69.8231 9.94998 69.2731 9.51998 68.6331 9.29998C67.9731 9.04998 67.3131 8.79998 66.6431 8.53998C65.3031 8.02998 63.9231 7.49998 62.5231 6.96998C59.7231 5.89998 56.8031 4.77998 53.7731 3.62998C53.0531 3.30998 52.2431 3.24998 51.5331 3.57998C51.1931 3.74998 50.8931 3.99998 50.7031 4.31998C50.5231 4.62998 50.3931 5.06998 50.2431 5.44998C50.1031 5.82998 49.9231 6.24998 49.8131 6.60998C49.7231 6.97998 49.7531 7.37998 49.9031 7.73998C50.1931 8.47998 50.8631 9.00998 51.6731 9.25998L51.8531 9.31998L51.7831 9.49998C51.1031 11.2 50.2731 12.87 49.2331 14.46C48.1831 16.03 46.9231 17.54 45.2931 18.67C43.6831 19.75 42.0331 20.82 40.4531 22.01C38.8731 23.2 37.3131 24.48 36.0231 26.03C35.3831 26.8 34.8031 27.64 34.3631 28.55C33.9531 29.46 33.6031 30.46 33.2231 31.42C32.4731 33.36 31.7231 35.33 30.9631 37.31C29.4431 41.27 27.8931 45.31 26.3231 49.4C23.5631 56.59 20.8631 63.61 18.2631 70.4C17.9531 71.25 17.5431 72.09 17.4231 72.92C17.2931 73.77 17.4931 74.65 17.7931 75.45C18.4131 77.08 19.5131 78.49 20.7431 79.69C21.9831 80.9 23.3731 81.92 24.8131 82.82C26.2431 83.73 27.7631 84.48 29.2831 85.14C32.3231 86.46 35.4731 87.38 38.5831 87.77C40.1431 87.95 41.6931 88.01 43.2031 87.86C44.7031 87.71 46.1831 87.35 47.4531 86.65C48.0931 86.3 48.6531 85.84 49.0931 85.29C49.5331 84.75 49.7431 84.06 50.0031 83.39C50.5131 82.05 51.0231 80.74 51.5231 79.46C52.5131 76.89 53.4631 74.42 54.3731 72.07C58.0131 62.66 60.9531 55.05 62.9931 49.77C65.0331 44.51 66.1931 41.61 66.1931 41.61C66.2131 41.61 66.1531 41.8 66.0231 42.16C65.8831 42.53 65.6931 43.06 65.4331 43.75C64.9031 45.15 64.1331 47.2 63.1431 49.83C61.1331 55.12 58.2231 62.75 54.6431 72.18C53.7431 74.54 52.8031 77.01 51.8231 79.58C51.3331 80.87 50.8331 82.18 50.3231 83.52C50.1931 83.85 50.0631 84.19 49.9331 84.53C49.7931 84.88 49.5931 85.2 49.3631 85.51C48.8931 86.1 48.2931 86.59 47.6331 86.96C46.3031 87.7 44.7831 88.07 43.2431 88.23C41.7031 88.39 40.1231 88.34 38.5431 88.15C35.3831 87.76 32.2131 86.84 29.1331 85.51C27.5931 84.84 26.0631 84.09 24.6131 83.17C23.1531 82.26 21.7431 81.23 20.4731 79.99C19.2131 78.76 18.0831 77.31 17.4331 75.6C17.1231 74.75 16.9031 73.82 17.0431 72.87C17.1831 71.91 17.5931 71.11 17.9031 70.26C20.5031 63.48 23.1931 56.45 25.9531 49.26C27.5231 45.17 29.0731 41.14 30.5931 37.17C31.3531 35.19 32.1031 33.22 32.8531 31.28C33.2331 30.3 33.5731 29.35 34.0031 28.38C34.4631 27.43 35.0531 26.57 35.7131 25.78C37.0431 24.19 38.6231 22.9 40.2131 21.7C41.8131 20.5 43.4731 19.43 45.0731 18.36C46.6431 17.28 47.8831 15.81 48.9131 14.26C49.9431 12.71 50.7631 11.05 51.4331 9.37998L51.5431 9.61998C50.7131 9.35998 49.8931 8.74998 49.5631 7.87998C49.3931 7.44998 49.3531 6.96998 49.4631 6.51998C49.6031 6.06998 49.7631 5.71998 49.9031 5.31998C50.0731 4.92998 50.1631 4.54998 50.3931 4.13998C50.6231 3.74998 50.9831 3.44998 51.3831 3.25998C52.1931 2.87998 53.1431 2.96998 53.8931 3.30998C56.9131 4.46998 59.8331 5.59998 62.6331 6.66998C64.0331 7.20998 65.4031 7.73998 66.7431 8.25998C67.4131 8.51998 68.0731 8.76998 68.7331 9.02998C69.4131 9.26998 70.0331 9.74998 70.3831 10.4C70.7531 11.03 70.7531 11.86 70.4431 12.48C70.1931 13.11 69.9931 13.71 69.7031 14.34C69.3631 14.96 68.7131 15.34 68.0631 15.46C67.4031 15.59 66.7231 15.44 66.1631 15.19L66.3331 15.11C64.8931 19.04 64.2631 22.94 65.0431 26.17C65.8731 29.39 66.5431 32.18 66.8131 34.51C67.0931 36.83 66.9731 38.65 66.7331 39.85C66.6031 40.45 66.4731 40.89 66.3631 41.19C66.2631 41.49 66.1931 41.63 66.1831 41.62L66.2031 41.59Z" fill="#95D8E9"/>
<path d="M65.413 14.6C65.373 14.71 62.313 13.63 58.583 12.2C54.853 10.77 51.863 9.52 51.903 9.42C51.943 9.31 55.003 10.39 58.733 11.82C62.463 13.25 65.453 14.5 65.413 14.6Z" fill="#95D8E9"/>
<path d="M62.663 46.78C61.633 45.37 59.693 45.07 57.963 45.2C56.233 45.33 54.4729 45.77 52.7829 45.42C50.7929 45 49.193 43.53 47.893 41.95C46.593 40.37 45.463 38.61 43.913 37.28C40.943 34.74 36.513 34.13 32.903 35.79L18.833 72.46C18.833 72.46 18.453 79.49 33.013 83.95C47.573 88.41 48.853 81.72 48.853 81.72L62.673 46.79L62.663 46.78Z" fill="#95D8E9"/>
</svg>
