<svg width="31" height="32" viewBox="0 0 31 32" fill="none" xmlns="http://www.w3.org/2000/svg">
<path d="M12.5456 4.09799C12.5456 4.09799 4.92881 1.12932 2.09585 6.34852C-0.737101 11.5677 -2.55223 21.3671 9.58254 29.0235C21.7173 36.6798 30.4084 21.2088 30.4084 21.2088C30.4084 21.2088 30.3745 11.0814 12.5456 4.09799Z" fill="#E0E0E0"/>
<g opacity="0.21">
<path d="M13.4842 21.9439C20.5242 25.4497 26.1618 24.2227 29.3171 22.8882C30.0183 21.8986 30.4141 21.2144 30.4141 21.2144C30.4141 21.2144 30.3802 11.087 12.5512 4.1036C12.5512 4.1036 4.93448 1.13494 2.10152 6.35413C1.90926 6.70472 1.72831 7.08358 1.54736 7.47374C2.96101 11.6468 6.25765 18.3475 13.4842 21.9495V21.9439Z" fill="#292C38"/>
</g>
<path d="M15.5426 1.19716L9.27734 9.62251C9.27734 9.62251 11.0642 15.6616 16.634 17.7538C22.2037 19.846 23.0802 17.7991 23.0802 17.7991L29.5265 9.18711C29.5265 9.18711 26.2751 3.54947 21.0672 1.07841C15.8593 -1.387 15.5426 1.19716 15.5426 1.19716Z" fill="#E0E0E0"/>
</svg>
