<svg width="57" height="53" viewBox="0 0 57 53" fill="none" xmlns="http://www.w3.org/2000/svg">
<g clip-path="url(#clip0_1_1895)">
<path d="M4.4478 7.2855C6.39279 6.81708 7.59738 4.82845 7.13832 2.84378C6.67926 0.85911 4.73039 -0.370049 2.7854 0.0983755C0.840401 0.5668 -0.364186 2.55543 0.0948743 4.5401C0.553935 6.52477 2.50281 7.75392 4.4478 7.2855Z" fill="#374B93"/>
<path d="M32.1157 3.76887C32.1572 1.73011 30.5712 0.0430352 28.5732 0.000685266C26.5752 -0.0416647 24.9218 1.57675 24.8803 3.61551C24.8388 5.65427 26.4249 7.34134 28.4229 7.38369C30.4209 7.42604 32.0742 5.80763 32.1157 3.76887Z" fill="#374B93"/>
<path d="M53.3778 7.38459C55.3762 7.38459 56.9962 5.7315 56.9962 3.6923C56.9962 1.6531 55.3762 0 53.3778 0C51.3793 0 49.7593 1.6531 49.7593 3.6923C49.7593 5.7315 51.3793 7.38459 53.3778 7.38459Z" fill="#374B93"/>
<path d="M4.44829 30.0939C6.39328 29.6255 7.59787 27.6369 7.13881 25.6522C6.67975 23.6675 4.73088 22.4384 2.78588 22.9068C0.84089 23.3752 -0.363698 25.3638 0.0953623 27.3485C0.554423 29.3332 2.50329 30.5623 4.44829 30.0939Z" fill="#374B93"/>
<path d="M32.1143 26.5769C32.1558 24.5382 30.5697 22.8511 28.5717 22.8087C26.5737 22.7664 24.9204 24.3848 24.8789 26.4235C24.8374 28.4623 26.4234 30.1494 28.4214 30.1917C30.4194 30.2341 32.0728 28.6157 32.1143 26.5769Z" fill="#374B93"/>
<path d="M53.3778 30.1923C55.3762 30.1923 56.9962 28.5392 56.9962 26.5C56.9962 24.4608 55.3762 22.8077 53.3778 22.8077C51.3793 22.8077 49.7593 24.4608 49.7593 26.5C49.7593 28.5392 51.3793 30.1923 53.3778 30.1923Z" fill="#374B93"/>
<path d="M4.44878 52.9023C6.39377 52.4338 7.59836 50.4452 7.1393 48.4605C6.68024 46.4759 4.73137 45.2467 2.78637 45.7151C0.841378 46.1836 -0.36321 48.1722 0.0958503 50.1569C0.554911 52.1415 2.50378 53.3707 4.44878 52.9023Z" fill="#374B93"/>
<path d="M32.1133 49.385C32.1548 47.3463 30.5687 45.6592 28.5707 45.6168C26.5727 45.5745 24.9194 47.1929 24.8779 49.2317C24.8364 51.2704 26.4224 52.9575 28.4204 52.9998C30.4184 53.0422 32.0718 51.4238 32.1133 49.385Z" fill="#374B93"/>
<path d="M53.3778 53C55.3762 53 56.9962 51.3469 56.9962 49.3077C56.9962 47.2685 55.3762 45.6154 53.3778 45.6154C51.3793 45.6154 49.7593 47.2685 49.7593 49.3077C49.7593 51.3469 51.3793 53 53.3778 53Z" fill="#374B93"/>
</g>
<defs>
<clipPath id="clip0_1_1895">
<rect width="57" height="53" fill="white"/>
</clipPath>
</defs>
</svg>
