<svg width="44" height="71" viewBox="0 0 44 71" fill="none" xmlns="http://www.w3.org/2000/svg">
<path d="M4.68833 4.74107C2.99427 7.51833 2.73362 10.9532 2.52005 14.2341C1.96984 22.7387 1.41603 31.2434 0.865824 39.7518C0.663116 42.856 0.46401 45.9827 0.82599 49.0719C1.69474 56.4566 5.96612 63.334 12.0872 67.2011C18.2083 71.072 26.0524 71.8499 32.7707 69.2605C35.6376 68.1557 38.3597 66.4119 40.1624 63.8489C42.3813 60.6958 43.3225 57.3811 43.565 53.4877C43.7206 50.9472 43.4274 47.6551 43.0944 45.1372C41.9723 36.6137 36.9625 29.2328 31.7138 22.5771C26.7908 16.3349 23.381 10.4722 19.2037 3.71886C16.0111 -1.44104 7.70001 -0.193344 4.68833 4.74107Z" fill="#2F3D33"/>
<path d="M3.77969 14.2228C3.2512 23.0958 2.71909 31.9725 2.28471 40.8529C2.1363 43.9008 1.99873 46.9937 2.65392 49.9701C3.55163 54.0702 4.6991 57.5766 6.97596 61.0566C8.01484 62.6463 10.2555 64.3412 11.7324 65.4987C12.9161 66.427 14.3133 67.017 15.7178 67.5243C19.7973 68.9975 24.1628 69.8581 28.4486 69.3019C32.7345 68.7457 36.9443 66.6449 39.5361 63.0559C42.1604 59.4293 42.9134 54.634 42.4935 50.1204C42.0772 45.6069 41.9107 41.6759 40.4302 37.4105C39.4782 34.6708 37.1941 31.514 35.6846 29.0562C34.2439 26.7111 32.3508 24.7155 30.5771 22.6298C26.8523 18.2478 23.7574 13.3359 20.952 8.26622C19.6525 5.91739 18.1793 3.21906 16.6698 2.48246C15.2545 1.78721 13.716 1.37758 12.1523 1.43771C5.17332 1.70829 4.13081 8.34138 3.77969 14.2191V14.2228Z" fill="#83A335"/>
<path d="M4.52899 15.1473C4.02221 23.6332 3.51544 32.119 3.09916 40.6086C2.95437 43.5249 2.82766 46.4826 3.45027 49.3275C4.30816 53.2472 5.4086 56.5994 7.5841 59.9254C8.57954 61.4437 10.7188 63.0634 12.1306 64.1721C13.2636 65.0627 14.5993 65.6264 15.9422 66.1112C19.8444 67.5205 24.018 68.3436 28.1156 67.8099C32.2132 67.2763 36.2384 65.2694 38.718 61.8383C41.2265 58.3695 41.9469 53.7846 41.5487 49.4703C41.1505 45.1522 40.9912 41.3978 39.5759 37.3165C38.6637 34.6971 36.481 31.6755 35.0367 29.3305C33.6575 27.0906 31.8476 25.1778 30.1535 23.1859C26.5917 18.9956 23.6307 14.298 20.9484 9.45376C19.7068 7.2064 18.2951 4.62833 16.8544 3.9218C15.5006 3.26037 14.031 2.86577 12.536 2.92214C5.86107 3.18145 4.86561 9.5214 4.53259 15.1436L4.52899 15.1473Z" fill="#D0C584"/>
<path d="M32.188 38.801C30.2406 36.2642 27.3158 34.5392 24.2064 34.2123L21.6978 34.4979C20.7096 34.3551 19.7033 34.5918 18.7513 34.9038C16.4274 35.6667 14.1976 36.9294 12.6411 38.8799C10.0638 42.1119 9.76336 46.9674 11.5443 50.733C13.3252 54.4986 16.9631 57.1444 20.9051 58.0651C22.1793 58.362 23.5041 58.4935 24.7928 58.2868C27.1456 57.9035 29.1908 56.4303 31.0659 54.9083C32.1301 54.0439 33.1907 53.1269 33.8857 51.9281C34.5843 50.718 34.8667 49.2936 34.9355 47.8843C35.0911 44.6448 34.1282 41.3414 32.1808 38.8047L32.188 38.801Z" fill="#BD8A45"/>
<path d="M12.6518 49.7221C13.5676 51.0825 14.9358 52.0296 16.2969 52.9014C17.419 53.6192 18.5701 54.3107 19.8226 54.7279C21.9872 55.4495 24.3618 55.3142 26.5445 54.649C28.7273 53.9838 30.7363 52.815 32.6258 51.4997C33.1869 51.1088 33.7624 50.6691 34.0267 50.0227C34.2764 49.4139 34.2294 48.651 34.6819 48.1812C34.3271 51.5711 32.4376 54.7542 29.6829 56.6107C26.9283 58.4672 23.3591 58.9633 20.2316 57.9223C18.0344 57.1932 16.1159 55.7726 14.3422 54.2393C13.7848 53.7545 13.2309 53.2509 12.7965 52.6459C12.3549 52.0296 12.0509 51.3268 11.7468 50.6278C11.2473 49.4778 10.7405 48.2977 10.6428 47.0388C10.5885 46.3736 10.65 45.7084 10.7115 45.047C10.7984 44.1262 10.7079 42.8973 11.1097 42.0668C11.6382 42.7583 11.2183 45.0282 11.3414 45.9827C11.5151 47.3094 11.9025 48.6134 12.6481 49.7183L12.6518 49.7221Z" fill="#A3723E"/>
<path d="M31.2287 48.9967C30.7654 49.0531 30.8523 49.801 31.3156 49.7446C31.779 49.6882 31.6921 48.9404 31.2287 48.9967Z" fill="#AF7D41"/>
<path d="M29.0784 51.0487C28.9155 50.9134 28.702 50.9622 28.5716 51.1126C28.4486 51.2516 28.3074 51.3568 28.1228 51.3606C27.9273 51.3606 27.7862 51.5898 27.8079 51.7778C27.8332 51.9957 28.0142 52.1085 28.2097 52.1047C28.5825 52.0972 28.8974 51.8454 29.14 51.5748C29.2739 51.4245 29.2232 51.1652 29.0784 51.0487Z" fill="#AF7D41"/>
<path d="M26.0053 52.0822C25.542 52.1386 25.6289 52.8864 26.0922 52.8301C26.5555 52.7737 26.4687 52.0258 26.0053 52.0822Z" fill="#AF7D41"/>
<path d="M30.7363 49.8198C30.273 49.8762 30.3598 50.624 30.8232 50.5677C31.2865 50.5113 31.1996 49.7634 30.7363 49.8198Z" fill="#AF7D41"/>
<path d="M31.9419 47.5386C31.4785 47.595 31.5654 48.3428 32.0287 48.2865C32.4921 48.2301 32.4052 47.4822 31.9419 47.5386Z" fill="#AF7D41"/>
<path d="M31.6016 49.023C31.6161 49.4289 31.5907 49.8348 31.5944 50.2444C31.5944 50.4474 31.8152 50.5939 31.9962 50.5714C32.2061 50.5451 32.3147 50.3572 32.3111 50.1542C32.3038 49.7484 32.3328 49.3425 32.3183 48.9329C32.3002 48.4481 31.5799 48.542 31.598 49.023H31.6016Z" fill="#AF7D41"/>
<path d="M28.6443 52.0596C28.1809 52.116 28.2678 52.8638 28.7311 52.8075C29.1945 52.7511 29.1076 52.0032 28.6443 52.0596Z" fill="#AF7D41"/>
<path d="M23.8335 52.349C23.3701 52.4054 23.457 53.1532 23.9203 53.0969C24.3837 53.0405 24.2968 52.2926 23.8335 52.349Z" fill="#AF7D41"/>
<path d="M21.9873 52.8827C21.5239 52.939 21.6108 53.6869 22.0741 53.6305C22.5375 53.5742 22.4506 52.8263 21.9873 52.8827Z" fill="#AF7D41"/>
<path d="M19.4426 52.4354C18.9793 52.4918 19.0661 53.2396 19.5295 53.1833C19.9928 53.1269 19.9059 52.379 19.4426 52.4354Z" fill="#AF7D41"/>
<path d="M16.6154 50.8044C16.1521 50.8608 16.239 51.6087 16.7023 51.5523C17.1657 51.4959 17.0788 50.7481 16.6154 50.8044Z" fill="#AF7D41"/>
<path d="M17.5495 51.3005C17.0862 51.3569 17.1731 52.1048 17.6364 52.0484C18.0997 51.992 18.0129 51.2441 17.5495 51.3005Z" fill="#AF7D41"/>
<path d="M23.5727 53.9049C23.1094 53.9613 23.1963 54.7091 23.6596 54.6527C24.1229 54.5964 24.0361 53.8485 23.5727 53.9049Z" fill="#AF7D41"/>
<path d="M27.428 52.9728C26.8307 53.0405 26.2298 53.0743 25.6253 53.0555C25.1656 53.0442 25.0534 53.7846 25.5167 53.7996C26.1864 53.8184 26.8488 53.7959 27.5112 53.717C27.9746 53.6643 27.8877 52.9165 27.4244 52.9691L27.428 52.9728Z" fill="#AF7D41"/>
<path d="M25.6615 53.3562C25.4081 53.2848 25.1547 53.2171 24.905 53.1457C24.7167 53.0931 24.5213 53.2773 24.4923 53.4614C24.4597 53.6794 24.6081 53.8372 24.7964 53.8898C25.0498 53.9612 25.3031 54.0289 25.5529 54.1003C25.7411 54.1529 25.9366 53.9688 25.9656 53.7846C25.9981 53.5666 25.8497 53.4088 25.6615 53.3562Z" fill="#AF7D41"/>
<path d="M23.6272 54.3558C23.1638 54.4122 23.2507 55.1601 23.7141 55.1037C24.1774 55.0473 24.0905 54.2994 23.6272 54.3558Z" fill="#AF7D41"/>
<path d="M21.5385 52.785C21.0752 52.8413 21.1621 53.5892 21.6254 53.5328C22.0888 53.4764 22.0019 52.7286 21.5385 52.785Z" fill="#AF7D41"/>
<path d="M19.6054 52.567C19.1421 52.6234 19.229 53.3712 19.6923 53.3149C20.1556 53.2585 20.0688 52.5106 19.6054 52.567Z" fill="#AF7D41"/>
<path d="M16.2138 51.1614C15.7505 51.2178 15.8374 51.9657 16.3007 51.9093C16.764 51.8529 16.6772 51.105 16.2138 51.1614Z" fill="#AF7D41"/>
<path d="M13.1045 48.3466C12.6411 48.403 12.728 49.1508 13.1913 49.0945C13.6547 49.0381 13.5678 48.2902 13.1045 48.3466Z" fill="#AF7D41"/>
<path d="M12.7097 47.4785C12.2464 47.5349 12.3332 48.2827 12.7966 48.2264C13.2599 48.17 13.173 47.4221 12.7097 47.4785Z" fill="#AF7D41"/>
<path d="M15.9675 50.2783C15.5042 50.3347 15.591 51.0825 16.0544 51.0262C16.5177 50.9698 16.4308 50.2219 15.9675 50.2783Z" fill="#AF7D41"/>
<path d="M22.8705 55.1112C21.7918 54.6038 20.9628 53.6869 20.0506 52.9277C19.685 52.6233 19.2398 53.2171 19.6018 53.5177C20.5646 54.3182 21.437 55.2615 22.5772 55.7989C23.0044 55.9981 23.2903 55.3104 22.8668 55.1112H22.8705Z" fill="#AF7D41"/>
<path d="M21.2778 55.3067C20.4561 54.9797 19.7358 54.4573 18.9973 53.9725C18.6064 53.717 18.1539 54.3032 18.5485 54.5626C19.3412 55.0812 20.1086 55.6486 20.9882 55.9944C21.4226 56.1673 21.7122 55.4795 21.2778 55.3067Z" fill="#AF7D41"/>
<path d="M23.1239 54.773C22.3673 54.4911 21.6036 54.2318 20.8325 53.9913C20.3909 53.8522 20.0977 54.54 20.543 54.679C21.314 54.9196 22.0777 55.1789 22.8343 55.4607C23.2723 55.6223 23.5619 54.9346 23.1239 54.773Z" fill="#AF7D41"/>
<path d="M25.0824 53.3148C24.9014 53.4388 24.7204 53.5629 24.5394 53.6869C24.1485 53.9537 24.5865 54.5512 24.9774 54.2882C25.1584 54.1642 25.3394 54.0401 25.5204 53.9161C25.9113 53.6493 25.4733 53.0518 25.0824 53.3148Z" fill="#AF7D41"/>
<path d="M27.1203 52.8564C26.657 52.9127 26.7439 53.6606 27.2072 53.6042C27.6705 53.5479 27.5837 52.8 27.1203 52.8564Z" fill="#AF7D41"/>
<path d="M29.3283 52.8902C28.865 52.9465 28.9519 53.6944 29.4152 53.638C29.8786 53.5817 29.7917 52.8338 29.3283 52.8902Z" fill="#AF7D41"/>
<path d="M28.3546 54.9496C27.9347 54.6339 27.4642 54.4047 27.0153 54.1416C26.8416 54.0439 26.6135 54.1642 26.5375 54.337C26.4506 54.5362 26.5556 54.7354 26.7257 54.8331C27.1239 55.0624 27.5366 55.2653 27.9058 55.5434C28.2823 55.8253 28.7311 55.2352 28.3546 54.9534V54.9496Z" fill="#AF7D41"/>
<path d="M26.8234 55.8027C26.4904 55.7313 26.1682 55.6298 25.8497 55.5058C25.4153 55.3329 25.1257 56.0207 25.5601 56.1935C25.9365 56.3439 26.3202 56.4604 26.7148 56.5468C27.1709 56.6445 27.2795 55.9004 26.8234 55.8027Z" fill="#AF7D41"/>
<path d="M25.9148 55.1376C25.4514 55.1939 25.5383 55.9418 26.0016 55.8854C26.465 55.829 26.3781 55.0812 25.9148 55.1376Z" fill="#AF7D41"/>
<path d="M31.446 52.1686C30.7799 52.3227 30.1175 52.4843 29.437 52.5707C28.9736 52.6271 29.0605 53.375 29.5239 53.3186C30.2044 53.2359 30.8668 53.0705 31.5328 52.9165C31.9817 52.8112 31.9021 52.0671 31.446 52.1686Z" fill="#AF7D41"/>
<path d="M31.5363 51.2554C31.3481 51.3305 31.1635 51.4019 30.9753 51.4771C30.5409 51.65 30.8123 52.3452 31.2503 52.1723C31.4386 52.0972 31.6232 52.0258 31.8114 51.9506C32.2458 51.7777 31.9743 51.0825 31.5363 51.2554Z" fill="#AF7D41"/>
<path d="M32.3799 50.0716C31.9165 50.1279 32.0034 50.8758 32.4667 50.8194C32.9301 50.7631 32.8432 50.0152 32.3799 50.0716Z" fill="#AF7D41"/>
<path d="M32.6657 49.2485C32.5065 50.2256 32.5137 51.3906 31.9273 52.2212C31.6522 52.612 32.2205 53.078 32.4956 52.6872C33.1725 51.7326 33.1978 50.4887 33.3824 49.365C33.4585 48.8877 32.7454 48.775 32.6657 49.2523V49.2485Z" fill="#AF7D41"/>
<path d="M29.6105 54.2581C29.5309 54.4197 29.4513 54.5813 29.3716 54.7429C29.1617 55.1751 29.8241 55.472 30.0341 55.0435C30.1137 54.8819 30.1933 54.7203 30.273 54.5587C30.4829 54.1266 29.8205 53.8297 29.6105 54.2581Z" fill="#AF7D41"/>
<path d="M30.6206 53.9462C30.1572 54.0026 30.2441 54.7505 30.7074 54.6941C31.1708 54.6377 31.0839 53.8898 30.6206 53.9462Z" fill="#AF7D41"/>
<path d="M34.0232 50.3271C33.5598 50.3835 33.6467 51.1314 34.11 51.075C34.5734 51.0186 34.4865 50.2708 34.0232 50.3271Z" fill="#AF7D41"/>
<path d="M20.8653 36.719C20.4417 36.7791 20.0291 36.8843 19.6309 37.0384C19.1929 37.2038 19.468 37.9028 19.906 37.7336C20.2463 37.6021 20.5938 37.5157 20.9521 37.4668C21.4119 37.4029 21.3286 36.6551 20.8653 36.719Z" fill="#CC985A"/>
<path d="M24.0324 36.1741C23.5691 36.2304 23.656 36.9783 24.1193 36.9219C24.5826 36.8655 24.4958 36.1177 24.0324 36.1741Z" fill="#CC985A"/>
<path d="M26.4323 36.6401C25.969 36.6964 26.0559 37.4443 26.5192 37.3879C26.9826 37.3315 26.8957 36.5837 26.4323 36.6401Z" fill="#CC985A"/>
<path d="M23.1928 37.805C22.7295 37.8614 22.8164 38.6093 23.2797 38.5529C23.743 38.4965 23.6562 37.7487 23.1928 37.805Z" fill="#CC985A"/>
<path d="M22.1213 38.6957C21.658 38.7521 21.7448 39.5 22.2082 39.4436C22.6715 39.3872 22.5846 38.6393 22.1213 38.6957Z" fill="#CC985A"/>
<path d="M21.2925 37.884C20.8291 37.9403 20.916 38.6882 21.3793 38.6318C21.8427 38.5754 21.7558 37.8276 21.2925 37.884Z" fill="#CC985A"/>
<path d="M22.0815 35.8057C21.6182 35.8621 21.7051 36.6099 22.1684 36.5536C22.6317 36.4972 22.5448 35.7493 22.0815 35.8057Z" fill="#CC985A"/>
<path d="M22.99 34.7798C22.5266 34.8361 22.6135 35.584 23.0768 35.5276C23.5402 35.4713 23.4533 34.7234 22.99 34.7798Z" fill="#CC985A"/>
<path d="M17.1476 37.3691C17.039 37.2226 16.782 37.1549 16.6408 37.2977C16.4888 37.4518 16.3585 37.6209 16.2173 37.7863C16.1485 37.8652 16.0834 37.9441 16.0037 38.0155C15.9711 38.0456 15.9313 38.0681 15.9024 38.0982C15.8988 38.102 15.9205 38.0982 15.8879 38.102C15.4246 38.1508 15.5114 38.8987 15.9748 38.8498C16.2535 38.8198 16.4635 38.6093 16.6481 38.4101C16.7422 38.3087 16.829 38.2034 16.9159 38.0982C16.9557 38.0531 16.9919 38.0043 17.0318 37.9592C17.0426 37.9479 17.1476 37.8314 17.0788 37.9028C17.22 37.7637 17.2779 37.5533 17.1476 37.3767V37.3691Z" fill="#CC985A"/>
<path d="M16.6699 37.2376C16.2066 37.294 16.2934 38.0418 16.7568 37.9855C17.2201 37.9291 17.1332 37.1812 16.6699 37.2376Z" fill="#CC985A"/>
<path d="M21.5566 36.3281C21.0933 36.3845 21.1802 37.1323 21.6435 37.076C22.1068 37.0196 22.0199 36.2717 21.5566 36.3281Z" fill="#CC985A"/>
<path d="M21.9983 37.6472C21.5349 37.7036 21.6218 38.4514 22.0851 38.3951C22.5485 38.3387 22.4616 37.5908 21.9983 37.6472Z" fill="#CC985A"/>
<path d="M20.5683 37.9742C20.105 38.0305 20.1919 38.7784 20.6552 38.722C21.1185 38.6657 21.0317 37.9178 20.5683 37.9742Z" fill="#CC985A"/>
<path d="M26.1284 36.5273C25.6651 36.5836 25.7519 37.3315 26.2153 37.2751C26.6786 37.2188 26.5917 36.4709 26.1284 36.5273Z" fill="#CC985A"/>
<path d="M30.2116 39.1768C29.5926 38.7183 28.9447 38.3087 28.304 37.8877C27.913 37.6322 27.4606 38.2185 27.8551 38.4778C28.4958 38.8987 29.1474 39.3046 29.7627 39.7668C30.1428 40.0487 30.5917 39.4586 30.2116 39.1768Z" fill="#CC985A"/>
<path d="M27.8513 39.7142C27.3844 39.4662 26.9138 39.2219 26.4469 38.9738C26.0306 38.7559 25.7446 39.4436 26.1573 39.6616C26.6242 39.9096 27.0948 40.1539 27.5618 40.4019C27.978 40.6199 28.264 39.9322 27.8513 39.7142Z" fill="#CC985A"/>
<path d="M25.6543 40.09C25.1909 40.1464 25.2778 40.8942 25.7411 40.8379C26.2045 40.7815 26.1176 40.0336 25.6543 40.09Z" fill="#CC985A"/>
<path d="M30.4142 38.3913C29.5744 37.8201 28.6912 37.3278 27.8116 36.8242C27.4026 36.5912 27.1166 37.2827 27.522 37.5119C28.3473 37.9817 29.1763 38.4402 29.9654 38.9776C30.3527 39.2406 30.8016 38.6544 30.4142 38.3875V38.3913Z" fill="#CC985A"/>
<path d="M30.226 40.2854C29.7627 40.3418 29.8496 41.0896 30.3129 41.0332C30.7763 40.9769 30.6894 40.229 30.226 40.2854Z" fill="#CC985A"/>
<path d="M27.312 40.7551C26.7147 40.3042 26.0125 40.0561 25.3573 39.7179C24.9374 39.5037 24.6514 40.1914 25.0677 40.4056C25.665 40.7138 26.3165 40.9318 26.8631 41.3414C27.2396 41.627 27.6884 41.037 27.312 40.7514V40.7551Z" fill="#CC985A"/>
<path d="M24.7275 40.9656C24.2642 41.022 24.351 41.7699 24.8144 41.7135C25.2777 41.6571 25.1908 40.9092 24.7275 40.9656Z" fill="#CC985A"/>
<path d="M30.226 40.2854C29.7627 40.3418 29.8496 41.0896 30.3129 41.0332C30.7763 40.9769 30.6894 40.229 30.226 40.2854Z" fill="#CC985A"/>
<path d="M32.8214 41.9165C32.6947 41.6797 32.5717 41.4392 32.445 41.2024C32.3508 41.0258 32.1698 40.913 31.9744 40.9957C31.8079 41.0671 31.6812 41.3076 31.7753 41.4843C31.902 41.721 32.0251 41.9616 32.1518 42.1983C32.2459 42.3749 32.4269 42.4877 32.6223 42.405C32.7888 42.3336 32.9155 42.0931 32.8214 41.9165Z" fill="#CC985A"/>
<path d="M31.6775 39.6203C31.4857 39.1806 30.8124 39.4624 31.0079 39.9059C31.5291 41.0934 32.1807 42.3449 32.416 43.6452C32.2567 43.8857 32.387 44.3029 32.7345 44.2352C32.778 44.2277 32.8178 44.2202 32.8612 44.2127C33.0494 44.1751 33.2087 44.006 33.1761 43.7955C32.9698 42.3336 32.2531 40.9506 31.6739 39.624L31.6775 39.6203Z" fill="#CC985A"/>
<path d="M30.3888 43.7429C30.3128 43.4986 30.2332 43.2544 30.1571 43.0101C30.0956 42.8184 29.8567 42.732 29.6866 42.8034C29.4947 42.8861 29.4259 43.1003 29.4875 43.2919C29.5635 43.5362 29.6431 43.7805 29.7191 44.0248C29.7807 44.2164 30.0196 44.3029 30.1897 44.2315C30.3816 44.1488 30.4503 43.9346 30.3888 43.7429Z" fill="#CC985A"/>
<path d="M31.2722 44.269C30.8089 44.3254 30.8957 45.0733 31.3591 45.0169C31.8224 44.9605 31.7355 44.2127 31.2722 44.269Z" fill="#CC985A"/>
</svg>
