<svg width="89" height="87" viewBox="0 0 89 87" fill="none" xmlns="http://www.w3.org/2000/svg">
<path d="M73.7134 0H14.2985C6.40164 0 0 6.40164 0 14.2985V72.131C0 80.0278 6.40164 86.4295 14.2985 86.4295H73.7134C81.6102 86.4295 88.0118 80.0278 88.0118 72.131V14.2985C88.0118 6.40164 81.6102 0 73.7134 0Z" fill="#F26929"/>
<path d="M46.2699 24.6697C33.611 24.6697 23.3542 34.9265 23.3542 47.5854C23.3542 60.2443 33.611 70.501 46.2699 70.501C58.9288 70.501 69.1856 60.2443 69.1856 47.5854C69.1856 34.9265 58.9288 24.6697 46.2699 24.6697Z" fill="white"/>
<path d="M46.2699 64.8769C36.728 64.8769 28.9688 57.1176 28.9688 47.5757C28.9688 38.0339 36.728 30.2746 46.2699 30.2746C55.8117 30.2746 63.571 38.0339 63.571 47.5757C63.571 57.1176 55.8117 64.8769 46.2699 64.8769Z" fill="#F26929"/>
<path d="M20.7234 37.6909H18.3879V69.7957H20.7234V37.6909Z" fill="#787878"/>
<path d="M73.1987 20.504H70.8633V69.7955H73.1987V20.504Z" fill="#787878"/>
<path d="M22.1531 19.0838V30.4749H21.2666V19.0838H19.9988V30.4749H19.1123V19.0838H17.7778V30.4749H16.8913V19.0838H15.6902V32.8103C15.6902 35.508 17.1582 37.6909 18.9693 37.6909H20.1322C21.9434 37.6909 23.4209 35.508 23.4209 32.8103V19.0838H22.1531Z" fill="#787878"/>
<path d="M70.8633 18.0638C76.4969 18.874 85.381 43.4197 70.8633 48.2431V18.0638Z" fill="#787878"/>
<path d="M46.2698 32.1239C37.7479 32.1239 30.8179 39.0539 30.8179 47.5758C30.8179 56.0977 37.7479 63.0277 46.2698 63.0277C54.7916 63.0277 61.7216 56.0977 61.7216 47.5758C61.7216 39.0539 54.7916 32.1239 46.2698 32.1239Z" fill="white"/>
</svg>
