<svg width="41" height="198" viewBox="0 0 41 198" fill="none" xmlns="http://www.w3.org/2000/svg">
<g clip-path="url(#clip0_1_1956)">
<path d="M20.5001 258C17.9365 258 15.5447 256.998 13.7583 255.182C11.972 253.365 11.0316 250.971 11.1046 248.438L15.7293 91.6393C15.8238 88.4348 13.943 85.4723 10.9328 84.0844C4.04082 80.9096 -0.244689 74.4625 0.0129561 67.6588C0.712893 45.6138 4.7751 1.21812 4.81805 0.772468L4.89105 0H10.7095V61.7168C10.7095 62.1412 10.8813 62.5317 11.1948 62.8203C11.5039 63.1089 11.9205 63.2575 12.3413 63.2235C13.14 63.1726 13.7669 62.4765 13.7669 61.6361V0H18.9757V61.7168C18.9757 62.137 19.1474 62.5317 19.4609 62.8203C19.7744 63.1089 20.1823 63.2532 20.6074 63.2235C21.4061 63.1726 22.0331 62.4765 22.0331 61.6361V0H27.2418V61.7168C27.2418 62.1412 27.4136 62.5317 27.727 62.8203C28.0362 63.1089 28.4484 63.2532 28.8736 63.2235C29.6723 63.1726 30.2992 62.4765 30.2992 61.6361V0H36.1177L36.1907 0.772468C36.2293 1.21812 40.2958 45.6138 40.9958 67.6631C41.2491 74.4625 36.9636 80.9096 30.0716 84.0844C27.0657 85.468 25.1849 88.4348 25.2794 91.6393L29.9041 248.438C29.9771 250.971 29.0367 253.365 27.2504 255.182C25.464 256.998 23.0722 258 20.5087 258H20.5001ZM6.45839 1.69773C5.91304 7.72043 2.37471 47.32 1.7263 67.714C1.49442 73.8386 5.39345 79.6576 11.6585 82.5437C15.287 84.216 17.5586 87.8067 17.4427 91.686L12.8179 248.484C12.7578 250.555 13.5265 252.512 14.9865 253.998C16.4464 255.483 18.4046 256.302 20.4958 256.302C22.587 256.302 24.5494 255.483 26.0051 253.998C27.4651 252.512 28.2337 250.555 28.1736 248.484L23.5489 91.686C23.4329 87.8024 25.7045 84.216 29.333 82.5437C35.5981 79.6576 39.4971 73.8386 39.2653 67.7183C38.6168 47.3158 35.0785 7.71619 34.5332 1.69349H31.9996V61.6361C31.9996 63.3678 30.6685 64.8109 28.968 64.917C28.062 64.9764 27.1946 64.6708 26.5333 64.0554C25.8806 63.4527 25.507 62.5996 25.507 61.7125V1.69773H23.7335V61.6361C23.7335 63.3678 22.4024 64.8109 20.7019 64.917C19.7915 64.9764 18.9284 64.6708 18.2671 64.0554C17.6144 63.4527 17.2409 62.5996 17.2409 61.7125V1.69773H15.4674V61.6361C15.4674 63.3678 14.1362 64.8109 12.4358 64.917C11.5254 64.9764 10.6623 64.6708 10.001 64.0554C9.34831 63.4527 8.97473 62.5996 8.97473 61.7125V1.69773H6.44121H6.45839Z" fill="#374B93"/>
</g>
<defs>
<clipPath id="clip0_1_1956">
<rect width="41" height="258" fill="white"/>
</clipPath>
</defs>
</svg>
