<svg width="90" height="88" viewBox="0 0 90 88" fill="none" xmlns="http://www.w3.org/2000/svg">
<path d="M74.7714 0H14.5037C6.49353 0 0 6.49353 0 14.5037V73.1663C0 81.1765 6.49353 87.67 14.5037 87.67H74.7714C82.7816 87.67 89.2751 81.1765 89.2751 73.1663V14.5037C89.2751 6.49353 82.7816 0 74.7714 0Z" fill="#FF6428"/>
<path d="M25.2171 39.4404C25.2171 39.4404 9.81417 32.9524 27.354 20.2665C27.354 20.2665 18.439 29.8583 25.2171 39.4404Z" fill="#FFE095"/>
<path d="M27.354 27.5183C27.354 27.5183 35.0603 20.7692 28.1179 10.4136C28.1179 10.4136 41.848 19.6379 27.354 27.5183Z" fill="#FFE095"/>
<path d="M69.2599 46.3827L66.8426 49.0901V44.0428H69.1922V41.4805H20.1794V44.0428H22.5966V49.0901L20.1794 46.3827H12.7825V51.1496H20.1794L22.5966 53.9247V69.0085C22.5966 71.3677 24.5111 73.2726 26.8607 73.2726H62.5785C64.9378 73.2726 66.8426 71.3581 66.8426 69.0085V53.9247L69.2599 51.1496H76.6568V46.3827H69.2599Z" fill="#DCDCDC"/>
<path d="M30.1291 46.3827H25.0818V70.4975H30.1291V46.3827Z" fill="white"/>
<path d="M44.8516 22.8434L44.5957 24.4573L54.0118 25.9504L54.2677 24.3365L44.8516 22.8434Z" fill="#5A5A5A"/>
<path d="M44.8403 22.8338L44.0547 27.8392L45.1054 28.0041L45.891 22.9988L44.8403 22.8338Z" fill="#5A5A5A"/>
<path d="M53.2204 24.1671L52.4304 29.1718L53.481 29.3376L54.271 24.333L53.2204 24.1671Z" fill="#5A5A5A"/>
<path d="M48.7904 28.3016C25.7102 24.637 25.4395 34.5382 25.4395 34.5382L69.1439 41.4709C69.1439 41.4709 71.8803 31.9662 48.8001 28.3016H48.7904Z" fill="#5A5A5A"/>
<path d="M33.2424 33.465L28.2532 32.6721C28.2532 32.6721 32.614 26.9577 48.6067 29.491C37.4679 27.7215 33.2424 33.465 33.2424 33.465Z" fill="white"/>
<path d="M49.516 23.5785L49.2598 25.1924L54.0059 25.9458L54.2621 24.3319L49.516 23.5785Z" fill="#646464"/>
<path d="M69.1342 41.4711C69.1342 41.4711 71.8706 31.9663 48.7903 28.3017L47.2529 37.9998L69.1439 41.4711H69.1342Z" fill="#787878"/>
<path d="M62.5691 73.2726C64.9284 73.2726 66.8332 71.3581 66.8332 69.0085V53.9247L69.2504 51.1496H76.6473V46.3827H69.2504L66.8332 49.0901V44.0428H69.1828V41.4805H44.7102V73.2822H62.5691V73.2726Z" fill="white"/>
<path d="M66.8428 44.0236H22.5872V44.8648H66.8428V44.0236Z" fill="#B4B4B4"/>
</svg>
