<svg width="127" height="152" viewBox="0 0 127 152" fill="none" xmlns="http://www.w3.org/2000/svg">
<path d="M45.0365 47.3254C45.0365 47.3254 44.6649 48.996 44.0317 51.4883C42.9306 55.8292 41.0174 62.6623 38.8839 67.3729C38.1682 68.9477 37.4387 70.2897 36.6816 71.2209C32.7175 76.2054 16.8199 64.7848 14.7828 63.3059C14.6451 63.1964 14.48 63.1553 14.3148 63.1553C13.1861 63.1553 8.72652 62.9088 8.78157 59.814C8.86416 56.4454 11.2041 52.2003 16.3106 56.9931C19.4626 59.9373 30.5978 63.6072 30.5978 63.6072L34.2178 40.2868C34.4105 39.0133 35.9659 38.4793 36.9019 39.3693C38.8977 41.2454 41.9671 44.2032 45.0227 47.3391L45.0365 47.3254Z" fill="#F5A784"/>
<path d="M44.0317 51.4746C42.9305 55.8155 41.0173 62.6486 38.8839 67.3593C38.8288 60.6357 38.6636 51.3787 38.6636 51.3787C40.6182 50.4339 42.435 50.6667 44.0317 51.4609V51.4746Z" fill="#E0855C"/>
<path d="M56.7086 88.3106C53.7492 90.3921 50.4734 92.3913 47.2112 94.3632C45.6559 95.3081 44.1694 96.253 42.7516 97.1704C35.6768 101.854 30.7768 106.044 30.7768 106.044C32.4147 108.002 34.1352 112.521 35.6906 117.656C38.8013 127.954 41.2926 140.812 41.2926 140.812C38.471 143.373 36.0898 142.25 36.0898 142.25C33.8737 137.978 29.1113 128.953 25.1059 120.587C21.3621 112.768 18.2926 105.537 18.5817 103.237C18.8707 100.977 24.9683 94.2948 31.2998 87.9135C38.292 80.8612 45.5595 74.1513 45.5595 74.1513C45.5595 74.1513 49.7852 69.5092 54.6577 66.6472C58.0162 64.6753 61.705 63.5524 64.5129 65.3874C65.6966 66.1679 66.7427 67.4825 67.5272 69.4818C67.6236 69.7283 67.7199 69.9748 67.7887 70.2213C69.9635 77.0955 64.3752 82.929 56.6673 88.3106H56.7086Z" fill="#F5A784"/>
<path d="M113.706 116.081C105.971 116.451 97.9186 117.314 91.4219 117.834C85.8061 118.272 81.3327 118.478 79.1993 117.834C75.0287 116.629 68.2292 106.797 63.7421 99.6216C61.058 95.3355 59.1861 91.9805 59.1861 91.9805C59.1861 91.9805 58.0712 90.5153 56.7223 88.2969C53.1436 82.3676 47.9545 71.0429 58.1676 67.9755C62.5308 66.6609 65.4901 67.6331 67.8438 70.1939C70.982 73.6173 73.0604 79.889 76.006 87.3794C76.7492 89.2692 84.0993 107.4 84.0993 107.4C86.1777 106.92 88.6828 106.729 91.3531 106.742C101.621 106.797 114.298 109.851 114.298 109.851C116.638 112.85 113.72 116.081 113.72 116.081H113.706Z" fill="#F5A784"/>
<path d="M42.1185 25.4429C45.0778 24.6213 48.0371 23.7585 50.9689 22.8137C52.6894 22.2522 54.5888 22.2249 55.222 20.253C55.7313 18.6782 55.3046 16.7063 54.3411 15.4191C53.4051 14.1867 51.9736 13.365 50.4596 13.009C48.9455 12.653 47.3489 12.7214 45.821 13.009C43.6463 13.4335 41.4165 14.4331 40.3154 16.3366C39.5583 17.6512 39.4482 19.1849 39.5446 20.6638C39.6547 22.1427 40.1227 23.0328 40.8522 24.3063C40.9485 24.4706 41.5954 25.8126 41.9395 25.6757C42.0359 25.6346 42.0909 25.4429 42.1185 25.4292V25.4429Z" fill="#3B2645"/>
<path d="M41.3201 23.1012C41.3201 23.1012 39.8198 21.9373 38.9389 23.6079C38.058 25.2785 40.6595 27.5791 42.2423 27.3737C42.2423 27.3737 41.6367 23.6764 41.3201 23.1012Z" fill="#E0855C"/>
<path d="M67.073 34.8915C66.7564 36.7402 65.5727 43.4364 65.6002 49.0782C65.6002 49.5301 65.6002 49.9409 65.6277 50.3517C65.7792 53.2684 67.2794 67.0169 67.5134 69.1805C67.5272 69.3585 67.5547 69.4681 67.5547 69.4681C58.0712 74.3704 47.1149 74.165 45.7247 74.1513C45.6283 74.1513 45.5733 74.1513 45.5733 74.1513C45.5458 74.0281 45.4769 73.8501 45.3806 73.5625C44.5272 71.0292 41.2651 60.6083 38.6224 51.4061C38.5811 51.2692 38.5398 51.1322 38.4985 50.9816C37.1358 46.2299 35.1125 42.6284 34.5757 39.8623C34.3692 38.849 37.6176 37.6713 39.1867 37.0962C39.4207 37.014 39.6547 36.9319 39.9024 36.8497C41.155 36.4115 42.435 36.0555 43.4536 35.7816C44.073 35.631 45.5733 35.2886 45.5733 35.2886L44.9126 29.729C45.0915 29.729 45.298 29.729 45.4769 29.7016C45.8486 29.7016 46.2064 29.6468 46.5368 29.592C47.0048 29.5099 47.4315 29.4277 47.8169 29.3045C48.0233 29.236 48.216 29.1812 48.3949 29.1128C48.6565 29.0169 48.9318 28.9074 49.1795 28.7978C49.5924 28.6198 50.0054 28.4144 50.3632 28.1953C50.4733 28.1268 50.5972 28.072 50.6936 27.9899C50.7349 27.9899 50.7624 27.9625 50.7762 27.9351C50.8587 27.8803 50.9551 27.8256 51.0377 27.7708C51.5607 27.4148 52.0149 27.045 52.359 26.7301C52.593 26.511 52.7857 26.3329 52.9371 26.1686C52.9922 26.1138 53.006 26.0865 53.0335 26.0591C53.1161 25.9632 53.1849 25.8948 53.2262 25.8263C53.295 25.7441 53.3501 25.6893 53.3638 25.662V25.7852C53.3638 25.8811 53.3638 25.9632 53.3776 26.0454C53.4464 26.9629 53.5703 28.1405 53.7768 29.2908C53.8869 30.085 54.0245 30.8793 54.1484 31.5639C54.3686 32.7416 54.5476 33.5906 54.5476 33.5906C54.7953 33.5358 55.0706 33.4811 55.3321 33.4537C55.3459 33.4537 55.3872 33.4263 55.4147 33.44C55.5661 33.4126 55.7037 33.3989 55.8414 33.3852C56.8737 33.2346 57.8923 33.1524 58.842 33.125C59.2687 33.125 59.6678 33.125 60.067 33.125C63.2741 33.2072 65.669 33.8645 66.6325 34.1931C66.9216 34.289 67.0868 34.5766 67.0317 34.8778L67.073 34.8915Z" fill="#F5A784"/>
<path d="M53.4327 25.6757C53.3914 32.2349 46.9635 33.1387 45.298 32.6321L44.9539 29.7427C50.4045 29.6879 53.4327 25.6757 53.4327 25.6757Z" fill="#E0855C"/>
<path d="M40.7145 18.9247C40.0951 19.9106 40.4255 21.7593 40.7971 23.8133C41.912 30.0166 44.1831 31.5366 47.4177 31.2079C50.6523 30.8793 53.6942 28.9622 53.1574 23.115C52.8821 20.1845 52.6756 17.4732 51.368 16.4598C49.4135 14.9535 42.6002 15.8984 40.7145 18.9247Z" fill="#F5A784"/>
<path d="M52.538 22.3755C52.538 22.3755 52.9509 19.6231 54.7678 20.6501C56.5847 21.6771 55.3046 25.9769 52.9096 26.1823C52.9096 26.1823 51.9737 23.4025 52.538 22.3755Z" fill="#F5A784"/>
<path d="M43.4811 23.0875C43.4811 23.0875 42.9856 23.4025 42.8617 22.4439C42.7516 21.5812 43.1646 21.6086 43.1646 21.6086C43.1646 21.6086 43.5362 21.5265 43.6325 22.2796C43.7289 23.0328 43.4811 23.0875 43.4811 23.0875Z" fill="#3B2645"/>
<path d="M48.9042 21.9373C48.9042 21.9373 48.4087 22.2522 48.2848 21.2937C48.1747 20.431 48.5877 20.4584 48.5877 20.4584C48.5877 20.4584 48.9593 20.3762 49.0556 21.1293C49.152 21.8825 48.9042 21.9373 48.9042 21.9373Z" fill="#3B2645"/>
<path d="M46.4542 25.0868C46.1789 25.1005 45.5871 25.4018 45.3944 25.1279C45.243 24.9088 45.3668 23.3888 45.3806 23.1286C45.4081 22.1975 45.5182 21.5539 45.4632 20.4584C45.4632 20.4036 45.3806 20.4036 45.3668 20.4584C45.0365 22.0058 45.1879 23.7996 45.1191 25.3744C45.1191 25.4566 45.2017 25.5387 45.2843 25.5114C45.6834 25.4155 46.0826 25.4155 46.4817 25.3333C46.6194 25.3059 46.6056 25.0868 46.468 25.0868H46.4542Z" fill="#E0855C"/>
<path d="M43.4536 20.1023C43.0269 19.9928 42.2974 20.1023 42.1047 20.5405C42.0634 20.6227 42.1598 20.7185 42.2424 20.6911C42.4351 20.6364 42.5727 20.5131 42.7654 20.4584C42.9719 20.4036 43.1783 20.4036 43.3848 20.4173C43.5775 20.431 43.6326 20.1434 43.4536 20.0886V20.1023Z" fill="#3B2645"/>
<path d="M49.1933 19.3766C48.863 18.8836 47.8995 19.0342 47.5691 19.4587C47.4865 19.5546 47.5829 19.6915 47.693 19.6915C47.9408 19.7189 48.1747 19.5683 48.4225 19.5409C48.6427 19.5135 48.8354 19.5683 49.0419 19.5957C49.152 19.6094 49.2484 19.4724 49.1933 19.3766Z" fill="#3B2645"/>
<path d="M48.161 26.0865C47.5554 26.4014 47.2388 26.8533 46.523 26.9902C46.1652 27.0587 45.8073 27.0587 45.4494 26.9629C45.243 26.9081 45.2567 26.867 45.0503 26.867C44.9814 26.867 44.9539 26.9492 44.9677 27.0039C45.1328 27.6065 46.0963 27.4969 46.5643 27.4284C47.3076 27.3189 47.982 26.9492 48.3261 26.2508C48.3674 26.1686 48.2711 26.0317 48.1747 26.0865H48.161Z" fill="#E0855C"/>
<path d="M78.1395 92.7474C77.7265 93.0487 77.3136 93.3362 76.9282 93.6101C76.5979 93.8429 76.2813 94.062 75.9647 94.2674C70.7205 97.7182 66.4399 99.0739 63.7421 99.6216C61.0581 95.3355 59.1861 91.9805 59.1861 91.9805C59.1861 91.9805 58.0712 90.5153 56.7223 88.2969C53.763 90.3784 50.4871 92.3777 47.225 94.3496C45.6697 95.2944 44.1831 96.2393 42.7654 97.1568C41.4303 96.3488 40.219 95.5546 39.1179 94.7878C35.085 91.9532 32.635 89.4472 31.3411 87.8998C38.3333 80.8476 45.6009 74.1377 45.6009 74.1377C45.6009 74.1377 49.8265 69.4955 54.699 66.6335C58.0712 65.6476 61.6637 64.9903 64.5542 65.3737C65.7379 66.1542 66.784 67.4688 67.5685 69.4681C67.6649 69.7146 67.7612 69.9611 67.8301 70.2076C70.9683 73.631 73.0467 79.9027 75.9922 87.3932C76.7355 89.2829 77.4512 91.0768 78.1257 92.7611L78.1395 92.7474Z" fill="#AB8DA8"/>
<path d="M41.3064 140.799C38.4847 143.359 36.1035 142.236 36.1035 142.236C33.8875 137.964 29.1251 128.94 25.1197 120.573C27.5835 120.176 31.3686 119.354 35.6906 117.643C38.8013 127.94 41.2926 140.799 41.2926 140.799H41.3064Z" fill="#E8CEE5"/>
<path d="M42.7792 142.661C42.7792 142.798 42.7929 142.921 42.7792 143.058C42.7103 143.661 42.3249 144.222 41.8569 144.633C41.2789 145.112 40.5493 145.4 39.8474 145.674C37.0532 146.796 34.617 148.412 31.6439 149.206C29.8546 149.672 26.1795 150.521 25.3812 148.111C25.3812 148.111 25.3812 148.07 25.3537 147.988C25.3261 147.837 25.2848 147.577 25.3124 147.235C25.3124 147.057 25.3537 146.837 25.4225 146.632C25.684 145.701 26.5098 144.564 28.7947 143.825C29.2902 143.661 29.7169 143.483 30.0885 143.263C30.295 143.154 30.4739 143.031 30.6391 142.907C30.6804 142.88 30.7217 142.839 30.7492 142.812C30.9832 142.606 31.1622 142.442 31.3273 142.264L31.5063 142.045C31.5063 142.045 31.5613 141.99 31.5751 141.963C31.6439 141.867 31.7265 141.757 31.7815 141.661C31.8917 141.483 31.988 141.305 32.0706 141.127C32.0844 141.114 32.0981 141.072 32.1119 141.059C32.2771 140.73 32.3734 140.47 32.4835 140.223C32.8276 139.32 33.0754 138.608 33.8462 138.402C35.6768 137.937 38.3746 138.361 38.4434 140.251C38.4434 140.251 40.7283 139.977 40.921 138.621C41.0449 137.759 41.5128 138.43 41.6918 138.881C42.0084 139.635 41.9671 140.511 42.2974 141.292C42.3387 141.401 42.3938 141.497 42.435 141.593C42.5865 141.921 42.7379 142.236 42.7792 142.579C42.7792 142.606 42.7929 142.647 42.7929 142.675L42.7792 142.661Z" fill="#3B2645"/>
<path d="M113.706 116.081C105.971 116.451 97.9186 117.314 91.4219 117.834C91.8624 115.534 92.0688 113.192 91.9449 110.864C91.8624 109.618 91.7935 108.043 91.3531 106.756C101.621 106.811 114.298 109.865 114.298 109.865C116.638 112.863 113.72 116.095 113.72 116.095L113.706 116.081Z" fill="#E8CEE5"/>
<path d="M120.809 121.751C120.698 123.586 120.382 127.324 117.822 127.338C117.822 127.338 117.78 127.338 117.698 127.324C117.505 127.31 117.189 127.255 116.789 127.064C116.665 127.009 116.542 126.941 116.404 126.858C115.606 126.324 114.766 125.174 114.766 122.805C114.766 122.285 114.725 121.819 114.628 121.408C114.573 121.189 114.518 120.984 114.449 120.778C114.422 120.737 114.408 120.696 114.394 120.641C114.284 120.381 114.188 120.19 114.092 120.012C114.037 119.902 113.954 119.779 113.899 119.683C113.871 119.642 113.871 119.628 113.844 119.601C113.803 119.546 113.761 119.477 113.706 119.423C113.541 119.217 113.376 119.026 113.197 118.861C113.183 118.848 113.156 118.82 113.142 118.806C113.114 118.779 113.087 118.752 113.059 118.738C112.853 118.546 112.646 118.368 112.454 118.204C111.71 117.588 111.091 117.136 111.132 116.342C111.242 114.466 112.509 112.042 114.312 112.562C114.312 112.562 114.766 110.316 113.527 109.714C112.743 109.317 113.527 109.098 114.009 109.057C114.835 108.988 115.647 109.317 116.514 109.235C116.624 109.221 116.734 109.207 116.858 109.194C117.216 109.152 117.56 109.111 117.904 109.18C117.946 109.18 117.973 109.18 118.001 109.18C118.771 109.358 119.308 109.988 119.583 110.672C119.859 111.371 119.914 112.138 119.955 112.891C120.162 115.89 120.96 118.683 120.795 121.751H120.809Z" fill="#3B2645"/>
<path d="M32.7726 144.948C32.1532 144.304 31.5889 143.619 30.942 142.99C30.8731 142.921 30.8043 142.853 30.7217 142.784C30.9557 142.592 31.1347 142.414 31.2998 142.236C31.3824 142.319 31.4512 142.401 31.5338 142.469C32.167 143.072 32.7864 143.729 33.2681 144.455C33.4746 144.77 33.0479 145.222 32.7588 144.92L32.7726 144.948Z" fill="#E8CEE5"/>
<path d="M34.4243 143.085C34.5344 143.318 34.2591 143.565 34.0252 143.455C33.3507 143.113 32.869 142.497 32.2909 142.031C32.1257 141.894 31.9468 141.771 31.7678 141.648C31.8779 141.47 31.9743 141.292 32.0569 141.114C32.0706 141.1 32.0844 141.059 32.0982 141.045C32.3184 141.114 32.5111 141.25 32.69 141.374C33.3507 141.839 34.1077 142.332 34.4243 143.085Z" fill="#E8CEE5"/>
<path d="M42.7792 143.058C42.7103 143.661 42.3249 144.222 41.8569 144.633C41.2789 145.112 40.5493 145.4 39.8474 145.674C37.0532 146.796 34.617 148.412 31.6439 149.206C29.8546 149.672 26.1795 150.521 25.3812 148.111C25.3812 148.111 25.3812 148.07 25.3537 147.988C25.3261 147.837 25.2848 147.577 25.3124 147.235C28.8498 149.604 32.2358 147.454 35.8282 146.303C38.5122 145.441 41.1687 144.948 42.7929 143.072L42.7792 143.058Z" fill="#E8CEE5"/>
<path d="M115.564 117.67C115.44 117.971 115.206 118.094 114.959 118.259C114.67 118.478 114.394 118.683 114.133 118.93C113.981 119.08 113.844 119.245 113.734 119.409C113.569 119.204 113.403 119.012 113.224 118.848C113.211 118.834 113.183 118.806 113.169 118.793C113.142 118.765 113.114 118.738 113.087 118.724C113.183 118.587 113.279 118.464 113.403 118.341C113.83 117.889 114.656 117.04 115.33 117.232C115.523 117.286 115.647 117.465 115.564 117.67Z" fill="#E8CEE5"/>
<path d="M116.211 119.286C115.771 119.847 114.972 120.162 114.408 120.641C114.298 120.381 114.202 120.19 114.105 120.012C114.615 119.519 115.303 118.916 116.005 118.902C116.211 118.902 116.349 119.108 116.211 119.286Z" fill="#E8CEE5"/>
<path d="M120.808 121.751C120.698 123.586 120.382 127.324 117.822 127.338C117.822 127.338 117.78 127.338 117.698 127.324C117.505 127.31 117.188 127.256 116.789 127.064C120.547 125.612 119.707 120.737 119.363 117.273C119.088 114.52 119.115 111.741 118.056 109.207C118.785 109.372 119.322 109.988 119.597 110.686C119.872 111.385 119.928 112.151 119.969 112.905C120.175 115.903 120.974 118.697 120.808 121.764V121.751Z" fill="#E8CEE5"/>
<path d="M76.9144 93.6101C76.5841 93.8429 76.2675 94.062 75.9509 94.2674C72.5098 86.0511 69.3991 77.5885 64.8294 69.9611C64.5954 69.5639 65.146 69.1531 65.4213 69.5366C68.2705 73.3982 69.9635 78.1499 71.9593 82.4771C73.6523 86.1607 75.359 89.8717 76.9144 93.6101Z" fill="#E8CEE5"/>
<path d="M56.7086 88.3106C53.7492 90.392 50.4734 92.3913 47.2112 94.3632C45.6559 95.3081 44.1694 96.253 42.7516 97.1704C41.4165 96.3625 40.2053 95.5683 39.1041 94.8014C49.1795 89.0775 56.5021 88.338 56.7086 88.3106Z" fill="#826B80"/>
<path d="M67.5685 69.4681C58.0849 74.3704 47.1286 74.1924 45.7384 74.1513C45.6834 74.1513 45.6283 74.1239 45.5733 74.1102C45.5595 74.0281 45.4907 73.8501 45.3943 73.5625C44.541 71.0292 41.2788 60.6083 38.6361 51.4061C40.0814 46.6955 39.9988 39.3967 39.9162 36.8634C41.1687 36.4252 42.4488 36.0692 43.4673 35.7953C43.5362 38.2602 44.1968 44.4086 48.9593 44.5729C54.5751 44.7647 55.6762 36.8497 55.8827 33.4126C56.915 33.262 57.9335 33.1798 58.8833 33.1524C59.31 33.1524 59.7091 33.1524 60.1083 33.1524C59.7917 35.7405 59.9293 38.0547 60.3423 40.1088C61.3195 45.0933 63.9072 48.5304 65.6277 50.3654C65.6966 51.8443 66.1232 56.0483 66.5362 60.1427C66.9629 64.1823 67.5547 69.4818 67.5547 69.4818L67.5685 69.4681Z" fill="#FF5C00"/>
<path d="M65.6415 50.3928C65.7103 51.8443 66.137 56.0483 66.55 60.129C59.5165 50.1326 60.3423 40.1088 60.3423 40.1088C61.3196 45.0933 63.9072 48.5304 65.6278 50.3654V50.4065L65.6415 50.3928Z" fill="white"/>
<path d="M17.8935 58.6364C17.3429 60.6083 16.3656 62.3885 15.76 64.3193C15.4572 65.3189 16.8887 65.7434 17.4805 65.0998C18.9533 63.484 19.6828 61.1013 20.2471 59.0335C20.6463 57.5546 18.3064 57.1712 17.8935 58.6227V58.6364Z" fill="#AB8DA8"/>
<path d="M42.7379 32.8101C43.0682 33.2757 43.4261 33.7002 43.7839 34.1384C43.9078 34.289 44.0317 34.4533 44.1418 34.6039C46.2753 37.5755 46.6469 40.9989 47.7067 44.2854C47.8306 44.0937 47.9683 43.902 48.0921 43.6966C47.7756 42.4094 47.514 41.1221 47.1699 39.8623C47.6792 37.8904 48.0921 36.0966 49.5236 34.4807C50.4045 33.4674 51.4644 32.591 52.1526 31.427C52.8408 30.2767 53.0886 28.9348 53.2262 27.6202C53.3638 26.2919 53.3501 24.9773 53.9144 23.7448C53.9695 23.6353 54.0108 23.5258 54.0245 23.4162C54.052 23.1286 53.8869 22.8548 53.6667 22.6904C53.5703 22.622 53.474 22.5535 53.3501 22.5535C53.24 22.5535 53.1023 22.5946 53.061 22.7041C53.0335 22.7726 53.0335 22.8548 53.0473 22.9232C53.1161 23.7448 52.9922 24.5665 52.9096 25.3744C52.8133 26.2371 52.772 27.0998 52.6756 27.9625C52.4279 30.1535 51.5057 31.6187 50.0467 33.1935C48.3399 35.0421 47.2525 36.8223 46.9635 39.1913C46.6194 38.0411 46.1927 36.9045 45.5733 35.8227C44.7474 34.3848 43.6188 33.1935 42.7103 31.8104C42.0772 30.8519 41.6643 29.7838 41.4165 28.6746C41.3064 28.1816 41.1412 27.5928 41.1687 27.0861C41.21 26.5658 41.4165 25.4976 41.0862 25.0458C40.5769 24.3474 40.3704 25.169 40.4392 25.6483C40.6044 26.7027 40.5906 27.7845 40.8246 28.8389C41.0999 30.085 41.678 31.2901 42.4213 32.413C42.5176 32.5499 42.614 32.7005 42.7103 32.8375L42.7379 32.8101Z" fill="#AB8DA8"/>
<path d="M54.2998 59.8825C53.4189 60.8822 53.5978 62.635 53.6116 63.8674C53.6116 64.8944 53.9419 65.9214 53.8043 66.9485C53.6942 67.729 53.4326 68.8793 52.6618 69.2764C52.3866 69.4133 52.0837 69.4544 51.7809 69.4818C51.5194 69.5092 51.2441 69.5229 50.9964 69.4407C50.611 69.3175 50.3082 69.0025 50.0604 68.6876C49.0694 67.4551 49.2758 66.3596 49.207 64.8944C49.1382 63.4977 48.6565 62.676 47.7067 61.6764C45.1328 58.9924 46.4817 56.6919 47.2525 53.6793C48.2573 49.7766 48.6152 44.7921 46.9497 41.0263C46.9497 40.9989 46.8946 41.0126 46.8946 41.0263C47.1011 43.4912 47.6104 45.8328 47.5003 48.3387C47.3764 51.0912 46.6469 53.4739 45.9174 56.1031C45.5044 57.5546 45.2016 59.1431 45.9724 60.5261C46.2615 61.0465 46.7019 61.4436 47.1149 61.8681C48.5601 63.3333 48.5601 64.5932 48.6702 66.5103C48.7941 68.6191 50.8725 71.1524 53.1573 69.5366C54.1484 68.8382 54.3548 67.551 54.3411 66.4281C54.3411 65.4285 54.1208 64.4288 54.0796 63.4292C54.052 62.5802 53.9419 61.7175 54.1897 60.8685C54.231 60.7042 54.2998 60.5398 54.4099 60.4029C54.6026 60.1564 54.9192 60.0605 55.222 59.9647C55.3872 59.9099 55.5661 59.8688 55.7313 59.8962C55.9515 59.9373 56.1167 60.0879 56.2681 60.2523C56.681 60.7041 56.9563 61.2382 57.204 61.7859C57.2591 61.9092 57.3004 62.1831 57.4518 62.2241C57.6032 62.2652 57.8097 62.1557 57.7684 61.9777C57.4518 60.5261 55.9377 57.9654 54.286 59.8551L54.2998 59.8825Z" fill="#AB8DA8"/>
<path d="M59.8 60.5374L56.5719 62.1058C55.8342 62.4642 55.5282 63.3498 55.8885 64.0837L59.7966 72.0448C60.1569 72.7788 61.047 73.0832 61.7847 72.7247L65.0127 71.1563C65.7505 70.7979 66.0564 69.9123 65.6961 69.1784L61.788 61.2173C61.4278 60.4833 60.5377 60.1789 59.8 60.5374Z" fill="#E8CEE5"/>
<path d="M66.0407 34.2342C66.4949 34.1384 66.9629 34.2753 67.2932 34.5903C70.046 37.2332 83.59 50.475 84.7875 56.2537C86.0401 62.2789 67.6511 66.9211 65.2836 67.4962C65.1185 67.5373 64.9808 67.6195 64.8707 67.7427C64.1687 68.5643 61.2094 71.7139 58.9521 69.742C56.4745 67.5921 54.7815 63.2238 61.5122 62.4295C65.669 61.9366 75.3177 55.9935 75.3177 55.9935L63.7283 47.1474C63.7283 47.1474 59.9569 35.5625 66.0269 34.2205L66.0407 34.2342Z" fill="#F5A784"/>
<path d="M81.0162 107.441C75.4967 107.126 69.8809 107.4 64.3477 107.413C58.8145 107.441 53.1987 107.194 47.6792 107.591C47.5278 107.591 47.5278 107.824 47.6792 107.838C53.1987 108.221 58.8145 107.988 64.3477 108.016C69.8809 108.043 75.4829 108.317 81.0162 107.988C81.3603 107.975 81.374 107.468 81.0162 107.441Z" fill="#E8CEE5"/>
<path d="M120.919 85.2296C114.794 84.9146 108.627 85.1337 102.502 85.1474C96.4045 85.1474 90.1556 84.764 84.0856 85.298C83.7965 85.3254 83.7965 85.7225 84.0856 85.7499C90.1556 86.284 96.4183 85.9005 102.502 85.9142C108.627 85.9142 114.807 86.147 120.919 85.8321C121.304 85.8184 121.304 85.2569 120.919 85.2432V85.2296Z" fill="#E8CEE5"/>
<path d="M27.0329 77.3146C22.8623 77.0818 18.6505 77.2598 14.4799 77.2598C10.3369 77.2598 6.04248 76.9859 1.92698 77.4515C1.76181 77.4652 1.76181 77.6843 1.92698 77.698C6.05624 78.1636 10.3369 77.8897 14.4799 77.8897C18.6505 77.8897 22.8761 78.0814 27.0329 77.8349C27.377 77.8212 27.3908 77.3146 27.0329 77.2872V77.3146Z" fill="#E8CEE5"/>
<path d="M31.2585 80.3957C26.9503 80.1492 22.1329 79.9027 17.8659 80.56C17.7971 80.56 17.7971 80.6832 17.8659 80.6969C22.1466 81.3542 26.9503 81.1214 31.2585 80.8612C31.5613 80.8476 31.5613 80.4094 31.2585 80.3957Z" fill="#E8CEE5"/>
<path d="M104.718 25.2238C98.9096 24.9088 93.0461 25.1279 87.2376 25.1416C81.4291 25.1416 75.5518 24.9499 69.757 25.3607C69.5368 25.3744 69.5368 25.6757 69.757 25.7031C75.5518 26.1139 81.4291 25.9085 87.2376 25.9222C93.0461 25.9222 98.9234 26.155 104.718 25.84C105.117 25.8126 105.117 25.2512 104.718 25.2375V25.2238Z" fill="#E8CEE5"/>
</svg>
