<svg width="28" height="28" viewBox="0 0 28 28" fill="none" xmlns="http://www.w3.org/2000/svg">
<path style="mix-blend-mode:screen" d="M27.5463 17.7802L25.2023 16.4767C25.3721 15.6473 25.457 14.7839 25.44 13.9036C25.4231 12.871 25.2532 11.8892 24.9814 10.9412L27.2915 9.5192C27.5463 9.34991 27.6482 9.02828 27.5293 8.79128L26.748 7.09845C26.6461 6.84452 26.3403 6.70909 26.0346 6.79374L23.3848 7.62323C22.4335 6.26897 21.2106 5.13477 19.7837 4.30528L20.599 1.47824C20.684 1.19046 20.5481 0.868829 20.2933 0.784188L18.5947 0.0562691C18.3569 -0.0791575 18.0172 0.0393434 17.8643 0.310197L16.3016 2.95101V2.96794C15.4862 2.79866 14.62 2.71401 13.7537 2.74787C12.9383 2.7648 12.157 2.86637 11.4096 3.05258C11.4096 3.03565 11.4096 3.01872 11.3926 3.00179L9.69405 0.428694C9.52419 0.174769 9.20146 0.0731912 8.96366 0.208618L7.29901 1.02118C7.04422 1.12275 6.92532 1.44439 7.02723 1.73217L7.97844 4.4915C6.50066 5.40562 5.24369 6.67524 4.30946 8.14801L1.43882 7.38624C1.13308 7.3016 0.827374 7.45395 0.742444 7.7248L0.0460119 9.45148C-0.07289 9.68848 0.0460182 10.0101 0.317794 10.1625L2.88264 11.5845C2.66183 12.4986 2.55994 13.4635 2.59391 14.4453C2.6109 15.2918 2.7298 16.1043 2.91665 16.8999L0.453659 18.4235C0.198869 18.5928 0.0799425 18.9144 0.21583 19.1514L0.997224 20.8443C1.08215 21.0982 1.40486 21.2336 1.71061 21.132L4.37742 20.2856C5.36261 21.8092 6.68751 23.0957 8.25023 24.0099L7.5878 26.583C7.51985 26.8877 7.65571 27.1924 7.92749 27.277L9.66009 27.9541C9.89789 28.0726 10.2206 27.9541 10.3735 27.6833L11.6644 25.3472C12.5307 25.5334 13.4309 25.618 14.3482 25.6011C15.1975 25.5672 16.0298 25.4657 16.8282 25.2625L18.204 27.4971C18.3569 27.7679 18.6966 27.8695 18.9344 27.7341L20.633 26.9723C20.8878 26.8877 21.0237 26.566 20.9388 26.2782L20.1914 23.8575C21.7711 22.8587 23.096 21.5045 24.0302 19.8793L26.5611 20.5395C26.8499 20.6242 27.1726 20.4718 27.2576 20.201L27.954 18.4912C28.0729 18.2542 27.954 17.9157 27.6822 17.7802H27.5463ZM14.1614 22.2493C9.69405 22.3509 5.97411 18.8298 5.8722 14.3607C5.77028 9.90855 9.30337 6.20125 13.7877 6.09968C18.255 5.99811 21.9749 9.5192 22.0768 13.9883C22.1788 18.4574 18.6457 22.1477 14.1614 22.2493ZM13.8216 7.7248C10.2546 7.80944 7.41791 10.755 7.50284 14.3268C7.58777 17.8818 10.5433 20.6919 14.1274 20.6242C17.6944 20.5395 20.5311 17.594 20.4462 14.0221C20.3612 10.4672 17.3887 7.64016 13.8216 7.7248ZM14.0255 16.5445C12.7175 16.5783 11.6304 15.5288 11.5965 14.2253C11.5795 12.9049 12.6156 11.8215 13.9235 11.8045C15.2484 11.7707 16.3355 12.8033 16.3525 14.1068C16.3865 15.4272 15.3504 16.5106 14.0255 16.5445Z" fill="white"/>
</svg>
