<svg width="51" height="61" viewBox="0 0 51 61" fill="none" xmlns="http://www.w3.org/2000/svg">
<path d="M12.6406 3.80852L4.23353 45.8345C3.76089 47.5984 8.18763 53.1768 18.2787 55.8807C28.3698 58.5846 34.9892 55.9802 35.4654 54.203L49.1976 13.6039L12.6406 3.80852Z" fill="#95D8E9"/>
<path d="M49.1975 13.604C48.7248 15.3679 40.1501 14.6198 30.059 11.9158C19.9679 9.21195 12.1643 5.5858 12.6405 3.80863C13.1167 2.03146 21.6879 2.79292 31.779 5.49683C41.8701 8.20073 49.6737 11.8269 49.1975 13.604Z" fill="#CAECF4"/>
<path d="M47.5565 12.9653C47.2011 14.2916 39.1821 13.28 30.4622 10.9436C21.7423 8.60707 14.0025 5.38182 14.3543 4.06884C14.7062 2.75586 23.0252 3.81933 31.7451 6.15582C40.465 8.4923 47.9119 11.6391 47.5565 12.9653Z" fill="#95D8E9"/>
<path d="M13.2329 15.9218L6.97978 44.6372C6.18376 47.608 11.3014 51.5663 19.0229 53.6353C26.7443 55.7042 32.8857 54.777 33.6853 51.7929L42.6143 23.7945L13.2329 15.9218Z" fill="#11AACC"/>
<path d="M42.4695 24.2817C42.0821 25.7273 34.9266 25.0609 27.2185 22.9955C19.5104 20.9301 12.7141 17.8582 13.1014 16.4126C13.4888 14.967 20.8972 15.7012 28.6187 17.7701C36.3401 19.8391 42.8568 22.8361 42.4695 24.2817Z" fill="#4DBFD9"/>
<path d="M32.6828 29.7617L32.1103 29.6083C30.6398 29.2143 29.1295 30.0825 28.737 31.5474L24.8813 45.9372C24.4888 47.4021 25.3626 48.9091 26.8331 49.3031L27.4056 49.4565C28.8761 49.8505 30.3863 48.9823 30.7789 47.5174L34.6346 33.1277C35.0271 31.6627 34.1533 30.1557 32.6828 29.7617Z" fill="#374B93"/>
<path d="M20.2389 25.7735C19.8764 27.1263 18.4765 27.931 17.1186 27.5672C15.7607 27.2033 14.964 25.81 15.3265 24.4572C15.6889 23.1045 17.0888 22.2998 18.4334 22.66C19.778 23.0203 20.6014 24.4208 20.2389 25.7735Z" fill="#95D8E9"/>
<path d="M25.9369 33.7963C25.5744 35.1491 24.1745 35.9538 22.8166 35.59C21.4587 35.2261 20.662 33.8328 21.0245 32.48C21.3869 31.1273 22.7868 30.3226 24.1314 30.6828C25.476 31.0431 26.2994 32.4436 25.9369 33.7963Z" fill="#95D8E9"/>
<path d="M16.1664 37.4044C15.8039 38.7572 14.404 39.5619 13.0461 39.198C11.6882 38.8342 10.8915 37.4409 11.254 36.0881C11.6164 34.7353 13.0163 33.9306 14.3609 34.2909C15.7055 34.6512 16.5288 36.0516 16.1664 37.4044Z" fill="#95D8E9"/>
<path d="M20.0545 45.9517C19.692 47.3044 18.2921 48.1091 16.9342 47.7453C15.5762 47.3814 14.7796 45.9882 15.142 44.6354C15.5045 43.2826 16.9009 42.4912 18.2455 42.8515C19.59 43.2117 20.4134 44.6122 20.0545 45.9517Z" fill="#95D8E9"/>
</svg>
