<svg width="131" height="53" viewBox="0 0 131 53" fill="none" xmlns="http://www.w3.org/2000/svg">
<g opacity="0.15">
<g clip-path="url(#clip0_1_1959)">
<path d="M83.5288 53C94.1885 53 106.054 50.1522 115.274 45.3808C125.414 40.1335 131 33.4269 131 26.5C131 19.5731 125.414 12.8665 115.274 7.61922C106.058 2.84788 94.1886 2.72994e-05 83.5288 2.63675e-05C60.8822 2.43877e-05 54.0242 11.1515 51.9516 17.7991C51.1631 20.3284 48.8251 22.0316 46.2255 21.9686L-98.2099 17.8896C-100.544 17.8227 -102.742 18.6841 -104.412 20.3205C-106.083 21.9568 -107.004 24.1517 -107.004 26.4961C-107.004 28.8404 -106.083 31.0393 -104.412 32.6717C-102.742 34.308 -100.536 35.1694 -98.2099 35.1026L46.1904 31.0236C48.7861 30.9645 51.1202 32.6599 51.9126 35.1852C53.993 41.8367 60.8666 52.9961 83.5249 52.9961L83.5288 53ZM83.5288 1.57343C104.325 1.57343 129.439 12.6934 129.439 26.5C129.439 40.3066 104.325 51.4266 83.5288 51.4266C62.7323 51.4266 55.3591 40.9556 53.4075 34.7171C52.4083 31.527 49.4184 29.3597 46.1553 29.458L-98.245 33.537C-100.158 33.5921 -101.949 32.888 -103.315 31.5506C-104.681 30.2132 -105.435 28.4196 -105.435 26.5039C-105.435 24.5883 -104.681 22.7907 -103.315 21.4573C-101.949 20.1199 -100.154 19.4158 -98.245 19.4708L46.1904 23.5499C49.4574 23.6404 52.4512 21.473 53.4465 18.279C55.3904 12.0444 61.8814 1.58129 83.5327 1.58129L83.5288 1.57343Z" fill="#374B93"/>
</g>
</g>
<defs>
<clipPath id="clip0_1_1959">
<rect width="238" height="53" fill="white" transform="matrix(-1 -8.74228e-08 -8.74228e-08 1 131 3.05176e-05)"/>
</clipPath>
</defs>
</svg>
