<svg width="76" height="81" viewBox="0 0 76 81" fill="none" xmlns="http://www.w3.org/2000/svg">
<g clip-path="url(#clip0_1_2076)">
<path d="M75.857 44.8526C75.857 52.9474 72.9639 60.4122 68.1033 66.3852L69.8172 73.9721L61.8031 72.4611C55.304 77.399 47.0224 80.3502 38.0073 80.3502C17.0978 80.3566 0.150818 64.4628 0.150818 44.8526C0.150818 25.2425 17.0978 9.35504 38.0073 9.35504C58.9169 9.35504 75.8639 25.2489 75.8639 44.8591L75.857 44.8526Z" fill="white"/>
<path d="M75.857 44.8526C75.857 44.8526 75.8365 44.6533 75.809 44.2611C75.7816 43.8624 75.7473 43.2838 75.6993 42.5251C75.6788 42.1393 75.6514 41.715 75.6239 41.2456C75.5485 40.7763 75.4594 40.2683 75.3703 39.7154C75.2812 39.1624 75.1783 38.5709 75.0686 37.9344C74.9384 37.3043 74.7259 36.6485 74.5407 35.9412C74.4448 35.5876 74.3419 35.2276 74.2391 34.8611C74.1843 34.6746 74.1363 34.4882 74.0814 34.3017C74.006 34.1152 73.9375 33.9288 73.862 33.7423C73.5673 32.9836 73.2519 32.1928 72.9297 31.3634C72.1413 29.7624 71.3186 28.0007 70.1052 26.2776C67.7949 22.7864 64.4699 19.1601 59.9726 16.1318C59.6984 15.9389 59.4173 15.746 59.1363 15.5467C58.8346 15.3731 58.5398 15.2059 58.2382 15.0323C57.6349 14.6915 57.0247 14.3444 56.4009 13.9907C56.0992 13.8043 55.7702 13.65 55.4411 13.5085C55.112 13.3606 54.783 13.2128 54.447 13.0584C53.7752 12.7691 53.1171 12.4283 52.4178 12.1712C51.7117 11.9268 50.9918 11.6825 50.272 11.4382C49.9086 11.316 49.5453 11.1939 49.1819 11.0717C48.8049 10.9817 48.4278 10.8917 48.0508 10.8017C47.2898 10.6216 46.5288 10.4352 45.7542 10.2487C44.9726 10.1137 44.1705 10.0173 43.3684 9.8951C36.9516 8.96281 29.8012 9.75365 23.0759 12.4155C19.7304 13.785 16.5357 15.6753 13.6015 17.9706C12.8954 18.575 12.1824 19.1794 11.4694 19.7902C10.8044 20.446 10.1668 21.1275 9.50184 21.8026C8.80943 22.452 8.2884 23.2364 7.67826 23.963L6.79389 25.0753L6.0192 26.2648L5.24452 27.4606C5.11427 27.66 4.98401 27.8593 4.86061 28.065L4.5384 28.7016C4.11335 29.5503 3.65403 30.3925 3.24269 31.2541C2.89306 32.1414 2.55028 33.0351 2.20064 33.9352C2.00183 34.3789 1.90585 34.8482 1.7756 35.3111L1.39169 36.7064C0.473038 40.4484 0.137115 44.3832 0.527883 48.3246C0.959785 51.9637 1.92642 55.4999 3.38666 58.7983C4.9086 62.0774 6.95842 65.0671 9.31674 67.7354C9.9406 68.3784 10.5576 69.0149 11.1746 69.6514C11.8122 70.2686 12.5183 70.8152 13.1833 71.4002C13.5261 71.6831 13.8414 71.9853 14.2048 72.2489L15.288 73.0076L16.3643 73.7663L16.899 74.1457C17.0841 74.2614 17.2761 74.3643 17.468 74.4736C18.229 74.9108 18.99 75.3416 19.7441 75.7723C20.505 76.1903 21.3209 76.5053 22.1024 76.8782L23.2816 77.4119C23.686 77.5662 24.0974 77.6948 24.5019 77.8362C25.3177 78.1127 26.1198 78.4085 26.9287 78.6592C27.7583 78.8585 28.5809 79.0578 29.4036 79.2572C29.8149 79.3472 30.2194 79.4758 30.6376 79.5336C31.0558 79.5915 31.4671 79.6558 31.8785 79.7137C32.708 79.823 33.5238 79.9708 34.3465 80.048C35.1691 80.0866 35.9918 80.1252 36.8076 80.1637C40.0709 80.3309 43.2519 79.9773 46.2683 79.3729C52.3012 78.1191 57.5595 75.5152 61.7277 72.3775L61.7757 72.339L61.8374 72.3518C64.6481 72.8855 67.315 73.3934 69.8515 73.8756L69.7076 74.0106C69.0974 71.2974 68.5353 68.7706 68.0074 66.4173V66.3723L68.0279 66.3338C70.4 63.434 72.0247 60.5086 73.1559 57.866C74.2665 55.2106 74.8972 52.8445 75.2606 50.9028C75.6239 48.9547 75.7268 47.4373 75.8022 46.415C75.8227 45.9071 75.8364 45.5213 75.8433 45.2512C75.857 44.9876 75.8639 44.859 75.8639 44.859C75.8639 44.859 75.8707 44.9941 75.8639 45.2512C75.8639 45.5213 75.857 45.9071 75.8502 46.415C75.7953 47.4373 75.7131 48.9611 75.3634 50.9157C75.0138 52.8638 74.4036 55.2492 73.2999 57.9239C72.1756 60.5793 70.5577 63.5305 68.1856 66.4559L68.2062 66.3723C68.7409 68.7256 69.3168 71.2459 69.9338 73.9592L69.9749 74.1264L69.7967 74.0942C67.2601 73.6184 64.5933 73.1169 61.7757 72.5897L61.8853 72.564C57.7034 75.7338 52.4109 78.3699 46.33 79.6429C43.293 80.2537 40.0846 80.6202 36.7939 80.4531C35.9712 80.4145 35.1417 80.3759 34.3122 80.3373C33.4827 80.2537 32.66 80.1123 31.8236 80.003C31.4054 79.9451 30.9872 79.8808 30.569 79.823C30.1509 79.7651 29.7395 79.6365 29.3282 79.5465C28.4987 79.3472 27.6691 79.1479 26.8328 78.9485C26.0101 78.6914 25.2011 78.3956 24.3785 78.1191C23.9671 77.9777 23.5558 77.8427 23.1444 77.6884L21.9516 77.1483C21.1632 76.7754 20.3405 76.4603 19.5658 76.036C18.8049 75.5987 18.037 75.168 17.2692 74.7243C17.0773 74.615 16.8784 74.5121 16.6933 74.39L16.1518 74.0106L15.0617 73.2455L13.9648 72.4804C13.6015 72.2168 13.2793 71.9082 12.9365 71.6253C12.2646 71.0402 11.5517 70.4873 10.9072 69.8636C10.2834 69.2206 9.65952 68.5777 9.0288 67.9283C6.64306 65.2343 4.57953 62.2188 3.04388 58.9076C1.56993 55.5771 0.589583 52.0087 0.150826 48.331C-0.239942 44.3575 0.0959813 40.3841 1.02834 36.6035L1.41225 35.1954C1.54936 34.7261 1.64534 34.2503 1.84415 33.8066C2.20064 32.9001 2.55028 31.9999 2.89991 31.1062C3.31125 30.2318 3.77743 29.3831 4.20933 28.528L4.5384 27.8914C4.6618 27.6857 4.79891 27.4864 4.92917 27.2806L5.7107 26.0719L6.49224 24.8695L7.38347 23.7508C7.99361 23.0178 8.52835 22.227 9.22076 21.5712C9.88575 20.8896 10.5302 20.2017 11.2089 19.5459C11.9287 18.9286 12.6486 18.3178 13.3615 17.7134C16.3231 15.4052 19.5453 13.5021 22.9251 12.1197C29.7189 9.44503 36.9242 8.66062 43.389 9.60577C44.1979 9.72793 45 9.82437 45.7884 9.96582C46.57 10.1523 47.3378 10.3387 48.1056 10.5252C48.4895 10.6152 48.8666 10.7117 49.2437 10.8017C49.6139 10.9238 49.9772 11.0524 50.3405 11.1746C51.0672 11.4253 51.7871 11.6761 52.5001 11.9204C53.2062 12.1776 53.8643 12.5248 54.543 12.8141C54.8789 12.9684 55.208 13.1163 55.5439 13.2642C55.8799 13.4121 56.2089 13.5599 56.5106 13.7528C57.1344 14.1065 57.7446 14.4601 58.3547 14.8073C58.6564 14.9809 58.958 15.1545 59.2597 15.3281C59.5407 15.5274 59.8218 15.7203 60.1029 15.9196C64.6207 18.9801 67.9457 22.6385 70.256 26.1555C71.4626 27.8914 72.2853 29.6724 73.0668 31.2798C73.389 32.1157 73.6975 32.9129 73.9923 33.6716C74.0677 33.8645 74.1363 34.0509 74.2117 34.2374C74.2665 34.4303 74.3145 34.6167 74.3694 34.8032C74.4722 35.1761 74.5682 35.5362 74.6642 35.8898C74.8424 36.5971 75.0549 37.2593 75.1783 37.8958C75.2812 38.5323 75.3703 39.1303 75.4594 39.6897C75.5485 40.2426 75.6239 40.757 75.6993 41.2263C75.7199 41.6957 75.7405 42.1265 75.761 42.5122C75.7953 43.2709 75.8227 43.856 75.8365 44.2547C75.8502 44.6469 75.8502 44.8462 75.8502 44.8462L75.857 44.8526Z" fill="#263238"/>
<path d="M43.5809 11.2003L43.9237 7.5676C44.1294 5.38155 42.9776 3.3048 40.9826 2.2825C39.3853 1.45952 36.6636 0.591529 32.7491 1.09946C28.2998 1.67812 25.4822 3.78059 23.9122 5.44584C22.1572 7.30399 21.9173 10.0558 23.3432 12.1326L25.8044 15.7267C22.0749 19.6166 20.4433 25.1396 22.0064 30.5661C24.4538 39.0789 33.798 44.1196 42.8748 41.8243C51.9516 39.5289 57.3263 30.7654 54.8789 22.2527C53.3158 16.8069 48.9214 12.7948 43.5809 11.2003ZM28.8003 13.2642L26.6613 10.133C26.1814 9.43217 26.2637 8.53846 26.8601 7.90194C28.5055 6.15953 30.6718 5.10508 33.2907 4.76431C36.1357 4.39783 38.0142 4.97649 39.0836 5.52943C39.6938 5.84448 40.0571 6.53244 39.9954 7.24612L39.6869 10.5059C37.8222 10.3773 35.9095 10.5188 34.0105 11.001C32.091 11.4832 30.3496 12.274 28.8003 13.2706V13.2642Z" fill="#E0E0E0"/>
<path d="M44.8286 62.4824L46.1175 61.0615C46.8922 60.2064 47.0636 59.0169 46.5563 58.0396C46.1518 57.2552 45.288 56.1365 43.4918 55.262C41.4488 54.2719 39.6115 54.3683 38.4255 54.6255C37.1024 54.9148 36.1426 55.995 36.0809 57.2616L35.9712 59.4477C33.1879 60.0392 30.7678 61.8909 29.7052 64.5913C28.0393 68.8284 30.3565 73.522 34.8743 75.0844C39.3922 76.6467 44.3967 74.4736 46.0627 70.2365C47.1253 67.5296 46.5563 64.6299 44.8286 62.4889V62.4824ZM38.0005 59.2419L38.0965 57.3388C38.117 56.9144 38.4324 56.5608 38.8849 56.4644C40.1257 56.1943 41.3597 56.3551 42.5594 56.9402C43.862 57.5767 44.4653 58.3354 44.7395 58.869C44.8972 59.1712 44.8286 59.557 44.575 59.8399L43.4164 61.1129C42.676 60.5407 41.8328 60.0713 40.8867 59.7434C39.9338 59.4155 38.9603 59.2612 37.9936 59.2484L38.0005 59.2419Z" fill="#E0E0E0"/>
<path d="M72.3196 40.8213C73.6839 48.4339 69.9956 55.3585 64.0792 56.2908C61.6523 56.6701 55.2766 57.6474 55.2766 57.6474C52.2533 55.5321 51.7117 48.6718 50.9096 44.1839C50.1692 40.0369 47.5572 33.2215 49.3534 30.3411C49.3534 30.3411 56.4558 29.1388 59.1432 28.7208C65.0527 27.7886 70.9485 33.2087 72.3127 40.8213H72.3196Z" fill="#FF6F31"/>
<g opacity="0.3">
<path d="M72.3196 40.8213C73.6839 48.4339 69.9956 55.3585 64.0792 56.2908C61.6523 56.6701 55.2766 57.6474 55.2766 57.6474C52.2533 55.5321 51.7117 48.6718 50.9096 44.1839C50.1692 40.0369 47.5572 33.2215 49.3534 30.3411C49.3534 30.3411 56.4558 29.1388 59.1432 28.7208C65.0527 27.7886 70.9485 33.2087 72.3127 40.8213H72.3196Z" fill="black"/>
</g>
<path d="M61.0627 42.5637C62.427 50.1763 59.8356 56.9273 55.2766 57.6474C50.7245 58.3611 45.9256 52.7738 44.5613 45.1612C43.1971 37.5486 45.7885 30.7976 50.3474 30.0775C54.9064 29.3638 59.6984 34.9511 61.0627 42.5637Z" fill="#FF6F31"/>
<path d="M57.3045 40.7045L27.2309 45.4345C25.9613 45.6341 25.1047 46.7613 25.3176 47.952L25.8255 50.7927C26.0385 51.9834 27.2403 52.7868 28.5099 52.5871L58.5835 47.8571C59.8531 47.6575 60.7097 46.5303 60.4968 45.3396L59.9888 42.4989C59.7759 41.3082 58.5741 40.5048 57.3045 40.7045Z" fill="#FF6F31"/>
<path d="M32.1732 48.1895C33.5375 55.8021 29.8492 62.7268 23.9328 63.6591C21.5059 64.0384 15.1303 65.0157 15.1303 65.0157C12.1069 62.9004 11.5654 56.04 10.7633 51.5522C10.0228 47.4051 7.41087 40.5898 9.20704 37.7094C9.20704 37.7094 16.3094 36.507 18.9968 36.0891C24.9063 35.1568 30.8021 40.577 32.1664 48.1895H32.1732Z" fill="#FF6F31"/>
<g opacity="0.3">
<path d="M32.1732 48.1895C33.5375 55.8021 29.8492 62.7268 23.9328 63.6591C21.5059 64.0384 15.1303 65.0157 15.1303 65.0157C12.1069 62.9004 11.5654 56.04 10.7633 51.5522C10.0228 47.4051 7.41087 40.5898 9.20704 37.7094C9.20704 37.7094 16.3094 36.507 18.9968 36.0891C24.9063 35.1568 30.8021 40.577 32.1664 48.1895H32.1732Z" fill="black"/>
</g>
<path d="M15.1368 65.0137C19.6924 64.2972 22.2818 57.5444 20.9204 49.931C19.5591 42.3175 14.7624 36.7264 10.2068 37.443C5.65122 38.1595 3.06181 44.9122 4.4232 52.5257C5.78458 60.1391 10.5812 65.7302 15.1368 65.0137Z" fill="#FF6F31"/>
<path d="M19.7098 50.1248C19.7098 50.1248 19.6892 50.0734 19.6618 49.9705C19.6344 49.8483 19.5932 49.7005 19.5453 49.514C19.463 49.1154 19.2985 48.5303 19.0791 47.7844C18.9488 47.4115 18.8048 47.0065 18.654 46.5564C18.4621 46.1192 18.2907 45.6305 18.0302 45.1419C17.5571 44.1389 16.9127 43.033 16.0009 41.9464C15.5347 41.4192 15.0206 40.8791 14.3899 40.4162C13.7797 39.934 13.0462 39.5482 12.2372 39.3231C11.4282 39.0981 10.5233 39.0917 9.68007 39.381C8.83684 39.6703 8.10329 40.249 7.52056 40.9563C6.3414 42.3836 5.71069 44.2675 5.42276 46.2221C5.12797 48.1831 5.21023 50.2663 5.55987 52.343C5.95064 54.4133 6.59506 56.4065 7.55484 58.1746C8.51462 59.9299 9.76234 61.518 11.3734 62.5081C12.1686 62.9968 13.0667 63.3247 13.9648 63.3375C14.8629 63.3568 15.7198 63.0675 16.4054 62.611C17.091 62.1545 17.6531 61.563 18.0576 60.92C18.4895 60.2964 18.7911 59.6213 19.0448 58.9847C19.5315 57.686 19.7509 56.4386 19.8538 55.3456C19.9292 54.7991 19.9155 54.2847 19.9497 53.8154C19.9429 53.346 19.936 52.9152 19.9292 52.523C19.8812 51.7515 19.8332 51.1471 19.7715 50.742C19.7509 50.5556 19.7372 50.4013 19.7235 50.2791C19.7166 50.1762 19.7098 50.1184 19.7235 50.1184C19.7235 50.1184 19.7441 50.1698 19.7646 50.2727C19.7852 50.3948 19.8195 50.5492 19.8538 50.7292C19.936 51.1342 20.0114 51.7322 20.08 52.5102C20.1074 52.9024 20.1143 53.3332 20.1348 53.8089C20.1143 54.2847 20.1348 54.7991 20.0663 55.352C19.984 56.4579 19.7783 57.7245 19.2985 59.0555C19.0448 59.7177 18.7432 60.4057 18.3044 61.055C17.8931 61.7237 17.3103 62.341 16.5836 62.836C15.857 63.3311 14.9383 63.6462 13.9648 63.6333C12.9913 63.6204 12.0315 63.2797 11.1952 62.7653C9.50183 61.7366 8.21983 60.1035 7.23949 58.3161C6.25914 56.5158 5.59415 54.4969 5.20338 52.388C4.84689 50.2791 4.76462 48.1702 5.07312 46.1642C5.38162 44.171 6.01919 42.2422 7.26691 40.7505C7.88391 40.0111 8.66545 39.3939 9.58409 39.0853C10.4959 38.7766 11.4831 38.7895 12.3332 39.0338C13.1901 39.2781 13.958 39.6896 14.5818 40.1911C15.2262 40.6734 15.7473 41.2327 16.2203 41.7792C17.1389 42.8916 17.7697 44.0232 18.2358 45.0455C18.4895 45.547 18.6472 46.042 18.8323 46.4857C18.9831 46.9422 19.1202 47.3537 19.2299 47.733C19.4287 48.4917 19.5727 49.0832 19.6344 49.4883C19.6687 49.6747 19.6892 49.8226 19.7098 49.9512C19.7235 50.0541 19.7304 50.1119 19.7235 50.1119L19.7098 50.1248Z" fill="#263238"/>
<path d="M12.676 52.6838L12.1824 52.7931L12.3949 53.6161L11.7162 53.7704L11.5037 52.9474L9.88577 53.3139L9.72809 52.7031L10.5028 49.8805L11.2363 49.7133L10.5302 52.3816L11.3392 52.1951L11.1472 51.4557L11.8053 51.3079L11.9973 52.0472L12.4909 51.9379L12.6828 52.6773L12.676 52.6838Z" fill="#263238"/>
<path d="M13.9237 52.0151L13.7112 52.5038L13.91 53.2753L13.2381 53.4296L12.1618 49.2568L12.8337 49.1025L13.4438 51.4622L14.1088 50.022L14.9109 49.8419L14.2802 51.3465L15.7816 52.851L14.9657 53.0374L13.9305 52.0151H13.9237Z" fill="#263238"/>
<path d="M38.3386 17.4001L17.4816 7.77069L14.484 13.4815L35.341 23.1109L38.3386 17.4001Z" fill="#455A64"/>
<path d="M14.1448 0.626932L6.17852 15.8038C5.93437 16.2689 6.1385 16.8316 6.63445 17.0606L13.1111 20.0508C13.6071 20.2798 14.2071 20.0883 14.4512 19.6232L22.4175 4.44632C22.6616 3.98119 22.4575 3.4185 21.9616 3.18953L15.4849 0.199327C14.9889 -0.0296474 14.3889 0.1618 14.1448 0.626932Z" fill="#455A64"/>
<path d="M13.1147 20.0538C13.1147 20.0538 13.2998 20.1631 13.6701 20.1181C13.8483 20.0924 14.0814 20.0152 14.2596 19.8288C14.4379 19.6423 14.5339 19.3465 14.7052 19.0508C15.336 17.8227 16.2409 16.0739 17.3584 13.9136C18.4895 11.7468 19.8332 9.16856 21.3209 6.3074C21.506 5.94735 21.6979 5.58729 21.8899 5.22081C21.9859 5.04078 22.0818 4.85432 22.1778 4.66787L22.3218 4.3914C22.3629 4.30781 22.3904 4.2178 22.4041 4.12778C22.452 3.74844 22.2052 3.38195 21.8008 3.2405C21.3963 3.05405 20.985 2.86116 20.5668 2.6747C18.9077 1.90959 17.187 1.11875 15.4319 0.308626C15.0412 0.115739 14.5201 0.257189 14.2939 0.610815C14.0814 0.990159 13.8689 1.41451 13.6563 1.81314C13.2313 2.61684 12.82 3.40767 12.4086 4.18565C11.5928 5.7416 10.7976 7.23969 10.0503 8.66705C9.29619 10.0944 8.58321 11.4511 7.91136 12.7241C7.57544 13.3606 7.25323 13.9714 6.93787 14.563C6.78019 14.8587 6.62937 15.148 6.47855 15.4309C6.40313 15.5724 6.32772 15.7138 6.25917 15.8489C6.19061 15.9775 6.15633 16.1189 6.15633 16.2539C6.15633 16.5304 6.31401 16.794 6.5471 16.9419C6.78705 17.0769 7.07498 17.1991 7.32864 17.3212C7.84281 17.5656 8.33641 17.7906 8.78888 18.0028C9.70067 18.4271 10.4822 18.8 11.1266 19.1022C11.7573 19.4044 12.2509 19.6359 12.6006 19.803C12.7583 19.8802 12.8817 19.9445 12.9845 19.9895C13.0668 20.0345 13.1147 20.0538 13.1079 20.0602C13.1079 20.0602 13.0599 20.0474 12.9708 20.0088C12.8748 19.9638 12.7445 19.9123 12.58 19.8416C12.2235 19.6809 11.7231 19.4623 11.0855 19.1729C10.4342 18.8772 9.64582 18.5171 8.72718 18.1056C8.26785 17.8935 7.77425 17.6749 7.25323 17.437C6.99271 17.3084 6.7322 17.2119 6.44427 17.0576C6.17004 16.884 5.98494 16.5754 5.97809 16.2539C5.97809 16.0932 6.01237 15.926 6.09463 15.7781C6.17004 15.6367 6.2386 15.5017 6.31401 15.3602C6.46483 15.0773 6.6088 14.788 6.76648 14.4922C7.07498 13.9007 7.39719 13.2835 7.72626 12.6469C8.39125 11.3739 9.09738 10.0108 9.84464 8.58347C10.5919 7.14968 11.3803 5.65159 12.1961 4.09564C12.6006 3.31766 13.0188 2.52682 13.437 1.72313C13.6495 1.31807 13.8483 0.925864 14.0814 0.501513C14.3625 0.0578732 15.0206 -0.115725 15.5142 0.122169C17.2761 0.932293 18.99 1.72956 20.649 2.49468C21.0604 2.68756 21.4717 2.87402 21.883 3.06691C22.3355 3.22122 22.6851 3.70343 22.6097 4.16636C22.596 4.28209 22.5617 4.3914 22.5069 4.5007L22.3629 4.7836C22.2669 4.97006 22.171 5.15008 22.075 5.33654C21.883 5.70302 21.6911 6.06308 21.506 6.42314C19.9978 9.27786 18.6403 11.8433 17.4955 14.01C16.3506 16.1575 15.4251 17.8999 14.7738 19.1151C14.6915 19.263 14.6161 19.4044 14.5476 19.5394C14.479 19.668 14.4036 19.803 14.3008 19.8995C14.102 20.0988 13.8552 20.1695 13.6701 20.1888C13.4781 20.2081 13.3273 20.1695 13.2381 20.1374C13.149 20.1052 13.1079 20.0795 13.1079 20.0795L13.1147 20.0538Z" fill="#263238"/>
<path d="M31.163 27.3456L39.1293 12.1687C39.3715 11.7073 39.9712 11.5111 40.4694 11.7411L46.9522 14.7342C47.4443 14.9614 47.6534 15.5237 47.4081 15.991L39.4419 31.1678C39.1996 31.6293 38.6 31.8255 38.1018 31.5954L31.619 28.6024C31.1269 28.3752 30.9178 27.8129 31.163 27.3456Z" fill="#455A64"/>
<path d="M38.1033 31.5948C38.1033 31.5948 38.2884 31.7041 38.6586 31.6591C38.8369 31.6334 39.07 31.5562 39.2482 31.3698C39.4265 31.1833 39.5224 30.8876 39.6938 30.5918C40.3245 29.3638 41.2295 27.6149 42.3469 25.4546C43.4781 23.2878 44.8218 20.7096 46.3095 17.8484C46.4946 17.4884 46.6865 17.1283 46.8785 16.7618C46.9745 16.5818 47.0704 16.3953 47.1664 16.2089L47.3104 15.9324C47.3515 15.8488 47.3789 15.7588 47.3926 15.6688C47.4406 15.2895 47.1938 14.923 46.7894 14.7815C46.3849 14.5951 45.9735 14.4022 45.5554 14.2157C43.8963 13.4506 42.1756 12.6598 40.4205 11.8496C40.0298 11.6568 39.5087 11.7982 39.2825 12.1518C39.07 12.5312 38.8575 12.9555 38.6449 13.3542C38.2199 14.1579 37.8085 14.9487 37.3972 15.7267C36.5814 17.2826 35.7862 18.7807 35.0389 20.2081C34.2848 21.6354 33.5718 22.9921 32.9 24.2651C32.564 24.9016 32.2418 25.5125 31.9265 26.104C31.7688 26.3997 31.618 26.6891 31.4671 26.972C31.3917 27.1134 31.3163 27.2549 31.2478 27.3899C31.1792 27.5185 31.1449 27.6599 31.1449 27.7949C31.1449 28.0714 31.3026 28.335 31.5357 28.4829C31.7756 28.6179 32.0636 28.7401 32.3172 28.8623C32.8314 29.1066 33.325 29.3316 33.7775 29.5438C34.6893 29.9681 35.4708 30.341 36.1152 30.6432C36.7459 30.9454 37.2395 31.1769 37.5892 31.3441C37.7468 31.4212 37.8702 31.4855 37.9731 31.5305C38.0553 31.5755 38.1033 31.5948 38.0965 31.6012C38.0965 31.6012 38.0485 31.5884 37.9594 31.5498C37.8634 31.5048 37.7331 31.4534 37.5686 31.3826C37.2121 31.2219 36.7117 31.0033 36.0741 30.714C35.4228 30.4182 34.6344 30.0581 33.7158 29.6467C33.2564 29.4345 32.7628 29.2159 32.2418 28.978C31.9813 28.8494 31.7208 28.7529 31.4329 28.5986C31.1586 28.425 30.9735 28.1164 30.9667 27.7949C30.9667 27.6342 31.001 27.467 31.0832 27.3192C31.1586 27.1777 31.2272 27.0427 31.3026 26.9012C31.4534 26.6183 31.5974 26.329 31.7551 26.0332C32.0636 25.4417 32.3858 24.8245 32.7149 24.188C33.3798 22.9149 34.086 21.5518 34.8332 20.1245C35.5805 18.6907 36.3689 17.1926 37.1847 15.6367C37.5892 14.8587 38.0074 14.0678 38.4255 13.2641C38.6381 12.8591 38.8369 12.4669 39.07 12.0425C39.3511 11.5989 40.0092 11.4253 40.5028 11.6632C42.2647 12.4733 43.9786 13.2706 45.6376 14.0357C46.049 14.2286 46.4603 14.415 46.8716 14.6079C47.3241 14.7622 47.6737 15.2444 47.5983 15.7074C47.5846 15.8231 47.5503 15.9324 47.4955 16.0417L47.3515 16.3246C47.2555 16.5111 47.1596 16.6911 47.0636 16.8776C46.8716 17.244 46.6797 17.6041 46.4946 17.9642C44.9863 20.8189 43.6289 23.3843 42.4841 25.551C41.3392 27.6985 40.4137 29.4409 39.7624 30.6561C39.6801 30.804 39.6047 30.9454 39.5362 31.0805C39.4676 31.209 39.3922 31.3441 39.2894 31.4405C39.0905 31.6398 38.8437 31.7105 38.6586 31.7298C38.4667 31.7491 38.3159 31.7105 38.2267 31.6784C38.1376 31.6462 38.0965 31.6205 38.0965 31.6205L38.1033 31.5948Z" fill="#263238"/>
<path d="M45.24 19.8416C45.2126 19.8931 43.389 19.1087 41.1678 18.0864C38.9466 17.0641 37.171 16.1896 37.1984 16.1318C37.2259 16.0739 39.0494 16.8647 41.2707 17.8935C43.4919 18.9158 45.2675 19.7902 45.24 19.8481V19.8416Z" fill="#263238"/>
<path d="M41.5312 26.9013C41.5037 26.9527 39.6802 26.1683 37.459 25.146C35.2377 24.1237 33.4621 23.2493 33.4896 23.1914C33.517 23.14 35.3406 23.9244 37.5618 24.9531C39.783 25.9754 41.5586 26.8498 41.5312 26.9077V26.9013Z" fill="#263238"/>
<path d="M20.272 8.31338C20.2446 8.36482 18.421 7.58041 16.1998 6.55168C13.9786 5.52939 12.203 4.65497 12.2304 4.5971C12.2578 4.53923 14.0814 5.33007 16.3026 6.3588C18.5238 7.3811 20.2994 8.25552 20.272 8.31338Z" fill="#263238"/>
<path d="M16.57 15.3731C16.5426 15.4245 14.719 14.6401 12.4978 13.6178C10.2766 12.5955 8.50097 11.7211 8.52839 11.6632C8.55581 11.6118 10.3794 12.3962 12.6006 13.4249C14.8218 14.4472 16.5974 15.3216 16.57 15.3795V15.3731Z" fill="#263238"/>
</g>
<defs>
<clipPath id="clip0_1_2076">
<rect width="75.8639" height="80.4852" fill="white"/>
</clipPath>
</defs>
</svg>
