<svg width="361" height="280" viewBox="0 0 361 280" fill="none" xmlns="http://www.w3.org/2000/svg">
<path d="M358.098 276.537C354.692 276.163 351.287 275.881 347.819 275.725C346.85 275.694 67.8128 275.569 67.8128 275.569C67.5941 275.569 67.4066 275.569 67.1879 275.6C66.8755 275.6 66.5631 275.663 66.2506 275.694C66.1257 275.694 -41.2588 275.569 -41.2588 275.569C-41.4775 275.569 -41.665 275.569 -41.8837 275.6C-43.3834 275.694 -44.8831 275.819 -46.3515 276.006C-50.1945 276.412 -50.1945 281.536 -46.3515 281.943C-44.8518 282.099 -43.3834 282.224 -41.8837 282.349C-41.6962 282.349 -41.4775 282.349 -41.2901 282.38C-41.2901 282.38 66.0007 282.224 66.0632 282.224C66.4381 282.255 66.813 282.286 67.1879 282.318C67.3754 282.318 67.5941 282.318 67.7816 282.349C67.7816 282.349 346.85 282.224 347.85 282.193C351.318 282.036 354.723 281.755 358.098 281.38C361.222 281.037 361.253 276.85 358.098 276.506V276.537Z" fill="#C6C6C6"/>
<path d="M77.2799 235.452L103.4 235.389C103.4 232.078 106.087 229.391 109.398 229.391C112.71 229.391 115.397 232.078 115.397 235.389V243.138C115.397 246.45 112.741 249.137 109.43 249.137C106.118 249.137 103.431 246.45 103.431 243.138L77.3112 243.2C77.3112 246.512 74.6242 249.199 71.3124 249.199C68.0006 249.199 65.3136 246.512 65.3136 243.2V235.452C65.3136 232.14 67.9693 229.453 71.2811 229.453C74.593 229.453 77.2799 232.14 77.2799 235.452Z" fill="#8695C2"/>
<path d="M130.176 235.452L156.295 235.389C156.295 232.078 158.982 229.391 162.294 229.391C165.606 229.391 168.293 232.078 168.293 235.389V243.138C168.293 246.45 165.637 249.137 162.325 249.137C159.013 249.137 156.327 246.45 156.327 243.138L130.207 243.2C130.207 246.512 127.52 249.199 124.208 249.199C120.896 249.199 118.209 246.512 118.209 243.2V235.452C118.209 232.14 120.865 229.453 124.177 229.453C127.489 229.453 130.176 232.14 130.176 235.452Z" fill="#8695C2"/>
<path d="M77.2802 262.166L103.4 262.103C103.4 258.791 106.087 256.104 109.399 256.104C112.71 256.104 115.397 258.791 115.397 262.103V269.851C115.397 273.163 112.742 275.85 109.43 275.85C106.118 275.85 103.431 273.163 103.431 269.851L77.3114 269.914C77.3114 273.226 74.6245 275.913 71.3126 275.913C68.0008 275.913 65.3138 273.226 65.3138 269.914V262.166C65.3138 258.854 67.9696 256.167 71.2814 256.167C74.5932 256.167 77.2802 258.854 77.2802 262.166Z" fill="#8695C2"/>
<path d="M130.176 262.166L156.295 262.103C156.295 258.791 158.982 256.104 162.294 256.104C165.606 256.104 168.293 258.791 168.293 262.103V269.851C168.293 273.163 165.637 275.85 162.325 275.85C159.013 275.85 156.327 273.163 156.327 269.851L130.207 269.914C130.207 273.226 127.52 275.913 124.208 275.913C120.896 275.913 118.209 273.226 118.209 269.914V262.166C118.209 258.854 120.865 256.167 124.177 256.167C127.489 256.167 130.176 258.854 130.176 262.166Z" fill="#8695C2"/>
<path d="M165.637 254.698H67.9382C66.4697 254.698 65.2825 253.511 65.2825 252.043C65.2825 250.418 66.4697 249.231 67.9382 249.231H165.637C167.106 249.231 168.293 250.418 168.293 251.886C168.293 253.511 167.106 254.698 165.637 254.698Z" fill="#C6C6C6"/>
<path d="M110.335 27.2127C110.991 21.4327 109.804 16.1525 112.085 10.4349C115.897 0.968068 129.456 -1.12526 138.486 0.499412C142.516 1.21802 146.89 3.28009 147.921 7.21679C148.234 8.34157 148.234 9.56007 148.734 10.5911C149.609 12.372 151.733 13.1843 153.014 14.684C155.295 17.3398 154.576 21.4327 153.108 24.6195C151.202 28.7749 148.265 32.4304 144.672 35.2111C143.016 36.4609 141.173 37.6481 140.267 39.5228C139.079 41.991 139.611 45.584 137.174 46.8963C135.236 47.9273 132.706 46.4276 131.893 44.3655C131.081 42.3347 131.456 40.0227 131.862 37.8668C126.238 36.6483 109.335 36.3359 110.335 27.2127Z" fill="#3B2645"/>
<path d="M288.018 251.98C285.768 253.073 282.863 252.636 280.332 252.074C271.334 250.136 262.304 248.574 253.275 246.856C249.245 246.106 230.061 242.325 224.843 241.232C209.565 238.014 195.162 234.515 187.945 231.609C176.259 226.86 152.827 200.397 135.986 179.682C124.832 165.966 116.553 154.75 116.553 154.125C116.553 154.125 116.803 146.751 121.677 140.877C125.863 135.878 129.925 119.132 143.672 121.85C173.447 127.724 192.787 203.99 204.097 206.552C219.532 210.082 233.623 218.174 248.401 223.454C251.994 224.735 255.4 226.016 258.586 227.235C264.71 229.516 270.959 231.64 276.895 234.327C280.863 236.139 286.487 238.576 289.236 242.044C291.361 244.731 291.736 249.105 289.112 251.324C288.768 251.605 288.424 251.824 288.049 252.011L288.018 251.98Z" fill="#F5A784"/>
<path d="M253.244 246.887C249.213 246.137 230.03 242.357 224.812 241.263C209.534 238.045 195.131 234.546 187.913 231.64C176.228 226.891 152.796 200.428 135.955 179.713C124.801 165.997 116.522 154.781 116.522 154.156C116.522 154.156 116.772 146.782 121.646 140.908C125.77 135.972 129.769 119.694 143.016 121.756C143.235 121.756 143.422 121.819 143.641 121.85C153.608 123.818 162.419 133.691 170.136 146.032C185.476 170.527 196.537 204.833 204.066 206.551C219.501 210.082 233.592 218.174 248.37 223.454C251.963 224.735 255.368 226.016 258.555 227.235C259.086 233.983 256.524 240.951 253.244 246.918V246.887Z" fill="#8695C2"/>
<path d="M157.013 145.689C153.389 152.969 146.078 158.718 138.985 162.342C136.08 163.841 133.049 165.091 129.956 166.154C125.176 167.809 120.239 169.09 115.334 170.278C105.43 172.683 95.4943 174.902 85.5276 176.901C76.4357 178.745 67.2813 181.463 58.1581 182.806C56.5959 183.025 55.3774 184.369 55.3774 185.931C55.3774 192.117 52.5967 203.521 48.9725 216.05C48.3476 218.205 47.6915 220.361 47.0041 222.548C39.8493 245.856 30.6637 270.414 30.6637 270.414C25.0086 273.382 17.9163 267.071 17.9163 267.071C17.9163 267.071 20.2908 238.951 23.2902 212.269C23.3839 211.238 23.5089 210.238 23.6339 209.239C25.0086 197.303 26.2896 185.243 28.8203 173.465C31.0386 163.092 37.4436 160.561 46.5667 155.812C71.1555 143.002 96.0254 130.567 122.176 121.288C128.394 119.069 136.455 117.226 143.11 118.444C146.296 119.038 149.171 120.85 151.483 123.068C157.044 128.536 160.731 138.284 157.044 145.658L157.013 145.689Z" fill="#F5A784"/>
<path d="M32.8513 271.194C32.8513 271.569 32.8513 271.913 32.8513 272.257C32.8513 272.725 32.7888 273.163 32.695 273.569C32.695 273.663 32.695 273.725 32.6638 273.788C32.1639 275.443 30.633 276.568 28.9771 277.099C27.3524 277.599 25.5715 277.568 23.8843 277.537C17.0732 277.443 10.5745 278.693 3.66968 277.755C-0.454481 277.193 -8.89027 275.725 -8.45286 269.976C-8.45286 269.976 -8.45286 269.882 -8.42162 269.695C-8.35913 269.413 -8.2654 268.945 -8.01545 268.414C-7.79674 267.945 -7.51555 267.414 -7.07814 266.883C-5.79715 265.289 -3.36014 263.79 1.32641 263.852C1.67009 263.852 2.04501 263.883 2.41994 263.915C3.29476 263.977 4.13834 264.008 4.88818 263.915C5.10689 263.915 5.35684 263.915 5.60679 263.852C6.13793 263.821 6.63783 263.696 7.07524 263.602C7.23146 263.571 7.35643 263.508 7.48141 263.446C7.88758 263.321 8.2625 263.196 8.63743 263.04C8.98111 262.884 9.32479 262.727 9.63722 262.571C9.69971 262.54 9.79344 262.509 9.85593 262.477C10.1684 262.29 10.4496 262.071 10.7308 261.884C11.0432 261.665 11.3556 261.415 11.6368 261.165C11.6993 261.165 11.7306 261.071 11.793 261.071C12.3554 260.571 12.8241 260.103 13.2927 259.634C14.8237 258.041 15.9484 256.76 17.7293 257.01C21.9785 257.603 27.2274 260.884 25.6965 264.883C25.6965 264.883 30.6955 266.32 32.2889 263.633C33.3199 261.915 33.6949 263.758 33.6949 264.852C33.6949 266.695 32.82 268.507 32.8513 270.413C32.8513 270.694 32.8513 270.944 32.8513 271.194Z" fill="#FF4590"/>
<path d="M296.891 277.537H296.422C295.829 277.537 294.766 277.349 293.61 276.724C291.704 275.693 289.549 273.287 289.049 267.882C288.986 267.226 288.893 266.601 288.768 266.039C288.674 265.57 288.549 265.133 288.424 264.758C288.299 264.321 288.143 263.914 287.986 263.539C287.986 263.477 287.924 263.414 287.893 263.352C287.83 263.227 287.768 263.071 287.674 262.977C287.33 262.227 286.862 261.571 286.393 261.009C286.362 260.946 286.299 260.852 286.237 260.821C285.768 260.29 285.331 259.884 284.831 259.509C284.768 259.415 284.675 259.353 284.612 259.29C284.612 259.259 284.518 259.197 284.487 259.165C283.894 258.697 283.362 258.322 282.831 257.947C280.988 256.728 279.519 255.853 279.426 254.041C279.426 253.354 279.426 252.635 279.551 251.917C280.051 248.105 282.238 244.137 285.799 244.793C285.799 244.793 286.331 239.607 283.394 238.545C282.206 238.107 282.488 237.638 283.081 237.326C283.425 237.139 283.925 237.014 284.331 236.951C286.174 236.607 288.08 237.139 289.986 236.795C290.236 236.764 290.486 236.701 290.736 236.639C291.517 236.451 292.329 236.295 293.11 236.357H293.329C293.548 236.357 293.798 236.451 294.017 236.514C295.36 236.92 296.485 238.013 297.172 239.294C297.36 239.701 297.547 240.138 297.735 240.575C298.172 241.794 298.359 243.075 298.578 244.356C299.734 251.104 302.109 257.259 302.421 264.227C302.577 268.382 302.671 276.943 296.922 277.537H296.891Z" fill="#FF4590"/>
<path d="M157.607 146.032C153.389 153.156 145.703 158.905 138.985 162.342C136.08 163.841 133.049 165.091 129.956 166.153C128.8 166.56 127.613 166.934 126.425 167.309C122.77 168.434 119.052 169.403 115.303 170.309C105.398 172.715 95.4629 174.933 85.4962 176.932C81.9031 177.651 78.2789 178.526 74.6546 179.401C69.1557 180.713 63.6256 182.025 58.1267 182.837C56.5645 183.056 55.346 184.4 55.346 185.962C55.346 192.148 52.5653 203.552 48.9411 216.081C48.3162 218.237 47.6601 220.392 46.9727 222.579C38.8494 219.705 30.9135 216.268 23.2275 212.3C23.3213 211.269 23.4462 210.269 23.5712 209.27C24.9459 197.335 26.2269 185.275 28.7577 173.496C30.976 163.123 37.3809 160.592 46.5041 155.843C71.0928 143.033 95.9628 130.598 122.114 121.319C131.456 117.976 146.109 116.288 154.607 122.818C162.543 128.911 162.293 138.034 157.575 146.064L157.607 146.032Z" fill="#8695C2"/>
<path d="M107.648 81.1079C107.054 70.5788 105.805 59.7372 103.336 60.7058C98.556 62.5491 92.0886 74.9529 86.246 93.1679C80.4034 111.383 73.1236 116.351 73.1236 116.351C63.5631 115.913 54.0338 115.445 44.4732 115.007C37.1622 114.695 29.9449 115.663 24.2586 110.258C22.3839 108.446 20.5718 106.509 18.2285 105.384C15.8853 104.259 12.7921 104.197 10.9488 106.009C7.0433 109.821 7.73066 118.538 12.7609 120.6C20.9155 123.943 29.8512 125.849 38.4744 127.661C50.9094 130.285 63.5631 132.66 76.2793 133.347C80.9033 133.722 88.6517 125.755 95.3691 117.476C102.368 108.884 108.21 99.979 108.21 99.979C108.21 99.979 108.21 90.6684 107.648 81.1079ZM27.133 114.851C27.133 114.851 27.0392 114.789 26.9768 114.726C27.0392 114.726 27.1017 114.789 27.1642 114.789L27.133 114.851Z" fill="#F5A784"/>
<path d="M108.242 99.9484C108.242 99.9484 102.399 108.853 95.4008 117.445C98.6189 99.6672 97.2442 86.7323 97.2442 86.7323C97.0255 79.6088 104.212 80.3586 107.68 81.1085C108.242 90.669 108.242 99.9796 108.242 99.9796V99.9484Z" fill="#E0855C"/>
<path d="M149.796 103.135C149.764 105.322 150.202 120.975 151.202 123.755C151.295 124.005 151.389 124.162 151.483 124.162C145.015 125.974 139.079 127.099 133.705 127.755C126.207 128.692 119.739 128.661 114.397 128.192C109.835 126.317 109.21 125.036 109.21 125.036C108.742 124.755 107.679 120.756 107.586 120.225C107.117 117.069 105.399 114.07 104.836 110.914C103.649 104.666 104.211 98.1669 100.493 92.5431C99.6497 91.2933 98.6499 90.1373 97.9625 88.7938C96.1504 85.2008 96.9315 80.9829 98.0562 77.1087C98.15 76.89 98.2125 76.64 98.2749 76.4213C99.6809 72.2347 99.4934 68.2355 100.306 64.0488C100.899 61.0182 103.836 60.2059 106.742 59.706C107.304 59.6122 109.398 59.2061 109.835 59.1123C111.616 58.7687 113.428 58.5187 114.99 58.3312C117.334 58.0188 119.083 57.8626 119.083 57.8626L121.27 43.2718C121.739 36.367 137.486 35.1172 137.486 35.1172L135.611 57.5502C135.611 57.7064 136.455 57.7689 138.017 57.8001H138.298C139.235 57.8001 140.391 57.8938 141.766 57.9251C141.86 57.9251 141.922 57.9251 142.047 57.9251C142.391 57.9251 142.703 57.9251 143.047 57.9563C143.672 57.9876 144.328 58.0188 145.015 58.0813C146.39 58.1125 147.827 58.2375 149.171 58.5187C151.17 58.9874 152.889 59.8309 153.67 61.6118C153.826 61.9243 153.92 62.268 154.014 62.6741C155.013 67.7668 153.358 73.2345 152.326 78.171C151.639 81.3891 151.202 84.5134 150.827 87.7003C150.733 88.7001 150.639 89.6687 150.546 90.6685C150.233 94.199 150.014 97.7608 149.858 101.291C149.858 101.822 149.796 102.291 149.765 102.853V103.01L149.796 103.135Z" fill="#F5A784"/>
<path d="M136.924 42.4907C131.363 49.833 124.677 51.6451 120.052 51.8638L121.333 43.3343C121.802 36.4295 137.549 35.1797 137.549 35.1797L136.924 42.4907Z" fill="#E0855C"/>
<path d="M145.078 26.6505C144.985 22.3076 141.954 23.7448 140.173 24.9633C140.423 20.8391 140.173 17.3399 139.173 14.8716C135.986 6.96696 119.99 4.40498 112.335 14.3717C110.585 16.6525 109.929 20.9954 109.585 26.1193C108.523 41.6162 115.803 47.5837 120.896 47.7712C125.52 47.9274 134.737 46.5214 138.33 36.2423C140.673 34.7426 145.172 31.2433 145.078 26.6505Z" fill="#F5A784"/>
<path d="M116.709 27.4001C116.709 27.4001 115.335 27.8376 115.647 25.4943C115.897 23.3697 116.866 23.6821 116.866 23.6821C116.866 23.6821 117.803 23.6821 117.584 25.588C117.365 27.4626 116.741 27.4314 116.741 27.4314L116.709 27.4001Z" fill="#3B2645"/>
<path d="M129.425 28.15C129.425 28.15 128.05 28.5874 128.363 26.2441C128.613 24.1195 129.581 24.432 129.581 24.432C129.581 24.432 130.518 24.432 130.3 26.3379C130.081 28.2125 129.456 28.1812 129.456 28.1812L129.425 28.15Z" fill="#3B2645"/>
<path d="M123.489 32.774C122.802 32.6491 121.239 32.9927 120.958 32.2429C120.708 31.618 121.927 28.0562 122.114 27.4314C122.302 26.7753 122.489 26.1504 122.677 25.5568C122.614 25.5255 122.552 25.463 122.489 25.4318C122.333 25.338 122.208 25.3068 122.052 25.2443C121.333 27.7126 120.771 30.2745 120.115 32.5866C120.052 32.8053 120.208 33.024 120.427 33.024C121.427 33.024 122.395 33.3052 123.364 33.3364C123.708 33.3364 123.801 32.8053 123.458 32.7428L123.489 32.774Z" fill="#E0855C"/>
<path d="M118.459 20.2143C117.521 19.6832 115.709 19.4957 114.991 20.4643C114.866 20.6517 114.991 20.9329 115.241 20.9329C115.709 20.9329 116.147 20.7142 116.615 20.683C117.146 20.683 117.615 20.8079 118.115 20.9642C118.552 21.1204 118.865 20.433 118.459 20.2143Z" fill="#3B2645"/>
<path d="M131.644 22.1822C131.144 20.8075 128.769 20.5888 127.707 21.4011C127.457 21.5886 127.613 21.9635 127.863 22.0572C128.457 22.2759 129.082 22.0572 129.707 22.151C130.238 22.2135 130.675 22.4634 131.175 22.6821C131.425 22.7758 131.769 22.4946 131.675 22.2447L131.644 22.1822Z" fill="#3B2645"/>
<path d="M124.988 36.5231C124.02 36.9605 123.301 37.4604 122.176 37.4917C121.302 37.4917 120.396 37.0542 119.583 37.3042C119.458 37.3354 119.365 37.4917 119.427 37.6479C120.021 38.5852 121.645 38.7414 122.676 38.7102C123.77 38.6477 125.082 38.304 125.676 37.3042C125.957 36.8355 125.457 36.3356 124.988 36.5543V36.5231Z" fill="#E0855C"/>
<path d="M142.766 13.0592C145.265 16.2773 142.672 20.5264 140.923 23.4634C140.766 23.7133 140.516 23.9945 140.235 23.9008C140.11 22.8697 140.173 21.8074 140.048 20.7764C139.892 19.7454 139.454 18.6831 138.579 18.1207C137.392 17.3708 135.799 17.4646 134.518 16.9334C131.393 15.6837 131.862 11.3408 129.081 10.0286C126.051 8.62261 121.864 11.0284 119.739 12.9342C117.302 15.1525 115.178 17.902 112.116 19.1517C110.054 19.9953 107.742 20.0266 105.523 19.9016C103.399 19.7766 101.243 19.5267 99.3685 18.5269C97.7751 17.6833 94.8069 14.6526 96.869 13.5279C97.8375 12.9967 100.181 13.4029 101.306 13.3092C102.68 13.1842 104.024 12.9967 105.305 12.4968C108.648 11.2471 109.773 8.6851 112.147 6.43555C114.397 4.31098 117.615 2.81129 120.614 2.31139C123.582 1.81149 127.113 2.2489 129.894 3.49865C133.112 4.9671 135.955 7.15416 138.642 9.46619C139.892 10.5285 141.672 11.622 142.735 13.028L142.766 13.0592Z" fill="#3B2645"/>
<path d="M144.859 68.423C143.078 72.7347 143.078 76.8276 144.203 81.1704C144.734 83.1388 145.453 85.0759 146.578 86.7943C146.953 87.3567 150.577 90.606 150.577 90.731C150.483 91.6996 150.421 92.6994 150.358 93.6992C150.171 96.2611 149.827 103.103 149.827 103.103C149.827 103.478 149.858 104.197 149.921 105.134C150.077 107.884 150.296 110.633 150.577 113.383C150.702 114.945 151.264 116.976 151.358 118.788C151.389 119.444 151.358 120.069 151.264 120.6C151.233 120.819 151.17 121.006 151.108 121.194C150.983 121.537 150.827 121.912 150.639 122.225C148.171 126.474 141.079 129.442 136.923 130.598C132.955 131.691 128.863 132.004 124.738 131.91C122.832 131.91 120.895 131.754 119.021 131.566C116.771 131.348 114.49 131.035 112.428 130.098C104.992 126.724 106.117 117.601 104.899 110.914C103.711 104.666 104.274 98.167 100.556 92.5431C99.7122 91.2934 98.7124 90.1374 98.025 88.7939C96.2129 85.2009 96.994 80.983 98.1187 77.1088L106.836 59.7061C107.398 59.6123 107.96 59.4873 108.554 59.3936C108.992 59.2999 109.491 59.2061 109.929 59.1124C111.71 58.7687 113.522 58.5188 115.084 58.3313C112.928 64.5176 109.616 78.0773 118.177 79.5458C124.926 80.7018 130.05 74.4843 133.08 69.3603C135.111 65.9548 136.236 61.362 138.392 57.8002C139.329 57.8002 140.485 57.8939 141.86 57.9252C141.954 57.9252 142.016 57.9252 142.141 57.9252C142.485 57.9252 142.797 57.9252 143.141 57.9564C143.766 57.9876 144.422 58.0189 145.109 58.0814C146.484 58.1126 147.921 58.2376 149.265 58.5188C151.264 58.9874 152.983 59.831 153.764 61.6119C153.139 61.6744 152.514 61.7056 151.92 61.8619C148.671 62.518 146.171 65.2674 144.922 68.3293L144.859 68.423Z" fill="#FF4590"/>
<path d="M149.89 105.166C139.361 95.449 143.172 75.6718 143.297 74.6407C143.579 81.1394 145.359 87.5444 150.546 90.7625C150.265 94.3242 150.046 97.8235 149.859 101.385C149.859 101.916 149.796 102.416 149.765 102.947C149.765 103.197 149.765 103.979 149.859 105.166H149.89Z" fill="#DE3C7C"/>
<path d="M17.7917 99.6044L13.5113 125.443C10.2308 124.912 7.13764 127.13 6.57525 130.411C6.04411 133.691 8.26241 136.784 11.543 137.347L19.2289 138.628C22.5095 139.159 25.6026 136.941 26.165 133.66C26.7274 130.379 24.4779 127.286 21.1973 126.724L25.4777 100.885C28.7583 101.416 31.8514 99.1982 32.4138 95.9176C32.9449 92.637 30.7266 89.5439 27.446 88.9815L19.7601 87.7005C16.4795 87.1694 13.3864 89.3877 12.824 92.6683C12.2928 95.9489 14.5111 99.042 17.7917 99.6044Z" fill="#3B2645"/>
<path d="M89.371 139.159L96.9945 164.216C93.8076 165.185 92.0267 168.559 92.9953 171.715C93.9638 174.901 97.3381 176.682 100.494 175.714L107.961 173.433C111.148 172.464 112.929 169.09 111.96 165.934C110.992 162.748 107.617 160.967 104.462 161.935L96.8382 136.878C100.025 135.909 101.806 132.535 100.837 129.379C99.8689 126.192 96.4946 124.412 93.339 125.38L85.8717 127.661C82.6849 128.629 80.904 132.004 81.8725 135.159C82.8411 138.346 86.2154 140.127 89.371 139.159Z" fill="#3B2645"/>
<path d="M25.8208 114.914C26.0708 113.945 26.3207 112.914 26.1957 111.914C26.0083 110.477 25.071 109.259 24.1337 108.165C22.509 106.259 20.7281 104.416 18.4161 103.447C16.104 102.479 13.1984 102.635 11.4487 104.416C7.91819 108.04 8.32436 114.633 13.3858 116.007C17.635 117.163 24.3524 120.819 25.8521 114.883L25.8208 114.914Z" fill="#F5A784"/>
<path d="M292.299 255.479C291.549 256.854 289.643 257.635 288.487 258.697C288.081 259.041 287.019 259.947 286.269 260.822C285.8 260.322 285.363 259.884 284.863 259.51C285.05 259.228 285.206 258.978 285.331 258.822C286.238 257.635 287.237 256.635 288.362 255.729C289.299 255.01 290.299 254.104 291.549 254.136C292.205 254.136 292.611 254.854 292.268 255.448L292.299 255.479Z" fill="white"/>
<path d="M294.423 260.415C292.642 262.352 290.455 263.695 288.925 265.883C288.893 265.976 288.831 266.039 288.768 266.07C288.675 265.601 288.55 265.164 288.425 264.789C288.3 264.352 288.143 263.945 287.987 263.571C289.487 261.633 291.455 259.759 293.861 259.384C294.455 259.29 294.892 259.946 294.455 260.415H294.423Z" fill="white"/>
<path d="M8.32499 271.257C8.23126 271.913 7.2627 272.069 6.91902 271.632C5.63803 270.101 4.98192 267.976 4.07585 267.133C3.04481 266.133 2.13875 265.039 1.29517 263.915C1.63885 263.915 2.01377 263.946 2.3887 263.977C3.26352 264.04 4.10709 264.071 4.85694 263.977C6.95027 266.008 8.63743 268.914 8.32499 271.288V271.257Z" fill="white"/>
<path d="M13.7297 268.914C13.6672 269.57 12.8861 269.789 12.5112 269.258C11.074 267.227 10.1367 265.008 8.66821 263.071C9.01189 262.915 9.35557 262.759 9.66801 262.603C9.7305 262.571 9.82423 262.54 9.88671 262.509C10.1992 262.321 10.4803 262.103 10.7615 261.915C12.6049 263.884 14.0109 266.352 13.7609 268.945L13.7297 268.914Z" fill="white"/>
<path d="M170.136 146.033C143.329 142.752 117.959 150.563 117.959 150.563L143.016 121.725C143.235 121.725 143.422 121.788 143.641 121.819C153.608 123.787 162.419 133.66 170.136 146.002V146.033Z" fill="#6B779C"/>
<path d="M151.327 118.82L151.234 120.632C151.202 120.85 151.14 121.038 151.077 121.225C150.952 121.569 150.796 121.944 150.609 122.256C148.141 126.506 141.048 129.474 136.893 130.63C132.925 131.723 128.832 132.036 124.708 131.942C141.111 117.382 139.798 79.4838 139.798 79.4838L150.359 93.7309C150.171 96.2929 149.828 103.135 149.828 103.135C149.828 103.51 149.859 104.229 149.921 105.166C150.078 107.916 150.296 110.665 150.578 113.414C150.702 114.977 151.265 117.007 151.359 118.82H151.327Z" fill="#DE3C7C"/>
<path d="M140.798 66.7988C140.548 68.3297 140.423 69.9231 140.204 71.6415C139.642 76.0469 139.705 80.4835 140.079 84.8889C140.861 93.6996 142.923 102.292 144.141 111.04C144.266 111.883 145.891 119.819 144.766 120.507C136.549 125.381 128.332 130.255 120.115 135.129C113.835 138.878 108.336 143.658 100.619 142.252C97.5568 141.69 94.4324 140.877 91.3706 141.846C89.3085 142.502 87.5588 144.096 87.1214 146.22C86.0904 151.532 91.4018 158.249 96.682 157.218C105.336 155.531 113.866 152.219 122.083 149.001C133.893 144.346 145.922 139.628 156.764 132.942C161.606 129.942 163.262 123.725 164.012 118.445C165.324 109.134 164.293 99.4796 162.919 90.2315C162.231 85.6075 161.356 80.9834 160.388 76.4218C159.451 71.954 158.419 66.7363 156.17 62.7683C154.295 59.4878 149.984 57.1132 146.203 58.1443C145.703 58.3005 145.172 58.488 144.735 58.8004C144.11 59.2378 143.641 59.8314 143.204 60.4563C141.767 62.5809 141.173 64.6742 140.829 66.83L140.798 66.7988ZM105.493 144.502C105.493 144.502 105.368 144.502 105.305 144.502C105.368 144.502 105.43 144.502 105.493 144.439V144.502Z" fill="#F5A784"/>
<path d="M133.675 90.9183C131.05 92.6992 128.488 94.0114 125.208 93.7614C122.677 93.574 120.74 91.8556 118.334 91.6994C118.271 91.6994 118.178 91.7931 118.209 91.8556C119.115 94.4488 123.239 95.2611 125.645 95.3549C128.894 95.4799 132.519 94.4488 134.299 91.5744C134.549 91.1995 134.05 90.6683 133.643 90.9183H133.675Z" fill="#DE3C7C"/>
<path d="M216.345 91.9187C211.44 89.7004 206.066 88.6381 200.88 87.3571C196.412 86.2324 190.819 83.8266 186.226 84.2328C185.789 84.264 185.476 84.6389 185.57 85.0764C185.57 85.2013 185.633 85.3263 185.664 85.42C185.664 85.5138 185.758 85.5762 185.851 85.5762C187.945 85.5138 190.538 86.7947 192.569 87.3571C195.443 88.1695 198.349 88.9193 201.255 89.6692C206.129 90.9814 211.003 92.5124 216.064 92.9185C216.595 92.9498 216.814 92.1374 216.345 91.9187Z" fill="#C1CAE3"/>
<path d="M260.586 58.0191C247.151 56.0508 233.248 56.1445 219.688 55.7383C205.566 55.3322 191.069 54.4261 176.978 55.5196C176.353 55.5821 176.353 56.4257 176.978 56.4882C190.756 57.9254 204.847 57.7067 218.688 58.2378C232.498 58.769 246.526 60.2062 260.367 59.7063C261.273 59.675 261.586 58.1753 260.586 58.0191Z" fill="#C1CAE3"/>
<path d="M207.566 22.4013C202.192 23.3698 196.912 24.9008 191.538 25.9943C186.945 26.9316 181.696 27.0566 177.447 29.0874C177.353 29.1187 177.385 29.2437 177.447 29.2749C181.759 30.3372 186.82 29.1187 191.163 28.3688C196.849 27.369 202.598 26.1505 207.941 23.9635C208.878 23.5886 208.535 22.2451 207.503 22.4325L207.566 22.4013Z" fill="#C1CAE3"/>
</svg>
