<svg width="279" height="354" viewBox="0 0 279 354" fill="none" xmlns="http://www.w3.org/2000/svg">
<g clip-path="url(#clip0_1_2179)">
<path d="M162.41 155.174C162.204 159.343 161.675 164.216 160.881 169.529C159.469 178.982 157.293 189.726 154.941 200.147C149.5 224.131 143.149 246.265 143.149 246.265C142.884 259.211 140.826 274.387 138.297 288.39C138.032 289.917 137.738 291.414 137.473 292.911C136.562 297.725 135.621 302.393 134.68 306.679C131.327 321.944 128.328 332.952 128.328 332.952L113.684 330.193C113.007 321.885 112.713 313.988 112.743 306.561C112.743 301.923 112.86 297.52 113.066 293.292C113.155 291.091 113.302 288.918 113.449 286.834C115.184 261.559 119.565 244.826 119.594 241.48C119.712 224.571 120.682 209.805 122.065 197.241C125.829 162.572 132.563 144.518 132.563 144.518C142.031 122.765 156.234 124.263 160.939 140.291C162.145 144.401 162.733 149.391 162.439 155.233L162.41 155.174Z" fill="#F5A784"/>
<path d="M209.018 311.288C208.93 317.305 208.636 323.617 208.107 330.193L193.462 332.952C193.462 332.952 190.875 323.499 187.846 309.937C186.729 304.947 185.582 299.428 184.435 293.615C184.111 291.942 183.817 290.269 183.494 288.566C180.965 274.534 178.848 259.299 178.612 246.294C178.612 246.294 172.202 223.984 166.762 199.912C164.439 189.579 162.263 178.893 160.881 169.529C160.087 164.216 159.557 159.343 159.381 155.174C159.116 149.362 159.704 144.312 160.91 140.232C165.644 124.204 179.818 122.736 189.287 144.459C189.287 144.459 195.962 162.425 199.726 196.947C201.108 209.57 202.108 224.424 202.225 241.45C202.255 244.797 206.578 261.207 208.342 286.13C208.489 288.214 208.607 290.357 208.724 292.529C209.018 298.4 209.136 304.653 209.048 311.258L209.018 311.288Z" fill="#F5A784"/>
<path d="M208.313 286.13C200.608 287.333 192.169 288.097 183.494 288.537C180.965 274.505 178.848 259.269 178.612 246.265C178.612 246.265 172.202 223.954 166.762 199.883C164.439 189.55 162.263 178.864 160.881 169.5C159.498 178.923 157.293 189.696 154.941 200.118C149.5 224.101 143.149 246.235 143.149 246.235C142.884 259.181 140.826 274.358 138.297 288.361C129.151 287.95 120.653 287.363 113.419 286.776C115.154 261.5 119.536 244.768 119.565 241.421C119.683 224.512 120.653 209.746 122.035 197.182C125.799 162.513 132.533 144.459 132.533 144.459C142.002 122.707 156.205 124.204 160.91 140.232C164.498 127.991 173.643 124.263 181.965 132.834C184.552 135.506 187.052 139.322 189.287 144.459C189.287 144.459 191.404 150.154 193.933 161.28C195.903 169.911 198.109 181.858 199.726 196.947C201.108 209.57 202.108 224.424 202.225 241.45C202.255 244.797 206.578 261.207 208.342 286.13H208.313Z" fill="#AB8DA8"/>
<path d="M193.904 161.28C185.67 152.327 149.53 149.978 149.53 149.978L181.935 132.834C184.523 135.506 187.023 139.322 189.257 144.459C189.257 144.459 191.375 150.154 193.904 161.28Z" fill="#826B80"/>
<path d="M130.21 347.689C130.21 347.835 130.21 348.011 130.181 348.129C129.681 354.881 124.182 353.853 115.977 353.971C109.449 354.059 105.95 350.331 106.362 346.397C106.45 345.311 106.862 344.166 107.597 343.109C109.832 339.88 111.067 335.917 111.625 333.627C112.008 332.13 112.831 330.75 114.037 329.782C119.183 325.642 124.123 328.813 126.593 331.103C127.681 332.101 128.446 333.392 128.769 334.831C129.387 337.531 130.269 342.639 130.181 347.659L130.21 347.689Z" fill="#3B2645"/>
<path d="M205.813 354C197.432 353.883 191.727 354.969 191.58 347.718C191.58 347.512 191.58 347.307 191.58 347.101C191.463 342.493 192.286 337.913 192.904 335.242C193.286 333.598 194.109 332.101 195.374 330.985C197.785 328.842 202.255 326.083 206.989 329.283C208.607 330.369 209.753 332.071 210.224 333.979C210.812 336.269 212.047 340.056 214.194 343.138C214.605 343.726 214.929 344.342 215.135 344.958C216.634 349.391 213.164 354.117 205.813 354Z" fill="#3B2645"/>
<path d="M175.966 38.8669C176.819 37.9275 177.26 36.7239 177.466 35.5791C177.789 33.6709 177.642 31.6748 178.495 29.9428C178.936 29.0621 179.612 28.2695 179.847 27.3008C180.083 26.332 179.759 25.2459 179.053 24.5413C178.554 24.0129 177.818 23.6607 177.583 22.9561C177.436 22.5451 177.524 22.0755 177.495 21.6645C177.407 20.3435 176.407 19.228 175.231 18.6115C174.054 17.995 172.731 17.7895 171.408 17.5253C170.085 17.2611 168.761 16.9382 167.732 16.1456C167.232 15.764 166.821 15.2943 166.291 15.0301C165.35 14.531 164.203 14.6191 163.145 14.7952C161.145 15.1475 159.204 15.7053 157.352 16.5272C156.646 16.8208 155.97 17.1731 155.205 17.2611C154.088 17.4079 152.911 17.0556 151.794 17.2611C150.088 17.584 148.912 19.1399 148.089 20.6664C147.854 21.1067 147.618 21.5764 147.177 21.87C146.707 22.1929 146.148 22.2222 145.619 22.3984C144.207 22.8387 143.237 24.1891 142.855 25.5981C142.443 27.0953 142.59 28.5924 142.766 30.0896C142.913 31.5867 142.884 33.0251 143.266 34.4929C146.295 46.5874 147.148 43.1528 147.148 43.1528C150.206 42.8593 153.235 42.5657 156.264 42.2134C160.351 41.7731 164.439 41.3034 168.497 40.7163C170.114 40.4815 171.731 40.1585 173.349 39.8943C174.437 39.7182 175.231 39.6889 176.025 38.8669H175.966Z" fill="#3B2645"/>
<path d="M146.324 37.9275C146.324 37.9275 143.619 34.9039 141.12 38.0743C138.62 41.2741 143.207 47.1158 146.619 47.2626C146.619 47.2626 146.766 39.2485 146.324 37.9275Z" fill="#E0855C"/>
<path d="M195.933 72.6259C194.609 76.0312 190.316 87.6267 188.022 98.6937C187.787 99.8386 187.581 100.925 187.405 102.04C187.228 103.009 187.081 103.919 186.964 104.8C186.905 105.328 186.817 106.033 186.728 106.884C185.817 115.837 184.052 140.907 183.729 145.164C183.729 145.545 183.7 145.78 183.7 145.78C160.351 152.972 135.738 147.248 135.738 147.248C135.738 147.248 135.709 146.808 135.562 145.927C135.033 141.759 129.975 97.4608 129.798 95.6701C128.769 85.1314 128.005 75.4441 127.946 69.3968C127.946 68.5161 128.74 67.9877 129.916 67.6648C131.827 67.1364 134.503 67.019 136.591 66.6667C140.973 65.9035 145.707 65.5512 148.442 65.4338C148.824 65.4338 149.118 65.4044 149.412 65.3751C149.618 65.3457 149.824 65.3457 150 65.3457C150.471 65.3457 150.735 65.3457 150.735 65.3457L151.471 53.3686C151.853 53.4567 152.265 53.5154 152.647 53.5154C153.441 53.6328 154.205 53.6915 154.941 53.6915C155.94 53.6915 156.852 53.6621 157.734 53.5447C158.175 53.486 158.616 53.4567 159.028 53.3686C159.645 53.2805 160.234 53.1631 160.792 53.0457C161.733 52.8108 162.645 52.5466 163.498 52.1944C163.762 52.1063 164.027 52.0476 164.292 51.9008C164.38 51.9008 164.439 51.8715 164.497 51.8127C164.703 51.7247 164.909 51.6366 165.115 51.5485C166.379 50.9908 167.438 50.4037 168.291 49.8459C168.85 49.4936 169.32 49.1707 169.702 48.8772C169.849 48.7598 169.908 48.7304 169.967 48.6717C170.173 48.5249 170.349 48.4075 170.496 48.2607C170.673 48.1139 170.79 48.0259 170.82 47.9965C170.761 48.4368 170.732 48.613 170.702 48.7891C170.467 50.7559 170.32 53.3099 170.261 55.8051C170.202 57.5371 170.202 59.2397 170.173 60.7369C170.173 63.2908 170.232 65.1696 170.232 65.1696C170.702 65.1696 171.143 65.1696 171.614 65.1696C171.702 65.1696 171.82 65.1696 171.937 65.1696C171.996 65.1402 172.084 65.1402 172.143 65.1696C174.701 65.1989 177.201 65.4338 179.436 65.786C185.905 66.8135 190.287 67.9877 192.874 69.0152C193.551 69.2794 194.021 69.5436 194.433 69.7491C194.992 70.072 196.197 71.9801 195.991 72.5672L195.933 72.6259Z" fill="#F5A784"/>
<path d="M170.79 47.9672C168.173 61.7937 154.323 61.2653 151.029 59.5627L151.412 53.3393C162.88 55.3061 170.79 47.9672 170.79 47.9672Z" fill="#E0855C"/>
<path d="M146.648 28.886C144.972 30.7354 144.942 34.7571 144.942 39.2192C144.942 52.7228 149.089 56.8032 156.029 57.3316C162.939 57.86 170.085 54.9832 171.202 42.4483C171.761 36.1662 172.378 30.3831 169.996 27.7411C166.468 23.8074 151.794 23.2203 146.648 28.886Z" fill="#F5A784"/>
<path d="M170.173 40.687C170.173 40.687 172.114 35.0507 175.525 37.8982C178.936 40.7457 174.613 49.3469 169.497 48.8772C169.497 48.8772 168.614 42.6538 170.173 40.7163V40.687Z" fill="#F5A784"/>
<path d="M174.054 40.4815C173.319 40.6282 172.584 41.3621 172.084 41.8612C171.555 42.3896 170.908 43.0648 170.643 43.7987C170.555 44.0335 170.879 44.1509 171.026 44.0041C171.437 43.5932 171.79 43.0941 172.172 42.6538C172.467 42.9473 172.761 43.2702 173.172 43.3877C173.496 43.5051 173.702 43.0941 173.555 42.8593C173.378 42.5364 173.055 42.3309 172.731 42.1254C173.261 41.7144 173.878 41.3621 174.29 40.8631C174.466 40.6869 174.29 40.4227 174.054 40.4815Z" fill="#E0855C"/>
<path d="M150.853 38.7201C150.853 38.7201 149.706 39.1898 149.824 37.1056C149.912 35.2562 150.765 35.4616 150.765 35.4616C150.765 35.4616 151.588 35.4323 151.5 37.0468C151.441 38.6614 150.853 38.6908 150.853 38.6908V38.7201Z" fill="#3B2645"/>
<path d="M162.704 38.3679C162.704 38.3679 161.557 38.8375 161.674 36.7533C161.763 34.9039 162.615 35.1094 162.615 35.1094C162.615 35.1094 163.439 35.08 163.351 36.6946C163.292 38.3091 162.704 38.3385 162.704 38.3385V38.3679Z" fill="#3B2645"/>
<path d="M156.323 44.0629C155.734 44.0041 154.382 44.3858 154.088 43.7693C153.852 43.2409 154.705 40.0705 154.823 39.5421C155.235 37.5752 155.705 36.2542 155.999 33.9351C155.999 33.8471 155.823 33.7884 155.793 33.8764C154.529 37.0175 154.117 40.8337 153.411 44.1509C153.382 44.3271 153.5 44.5325 153.705 44.5032C154.558 44.4738 155.411 44.6206 156.293 44.5913C156.587 44.5913 156.646 44.0922 156.352 44.0629H156.323Z" fill="#E0855C"/>
<path d="M153.176 32.5261C152.47 32.3499 151.735 32.5261 151.03 32.438C150.265 32.3793 149.53 32.0564 148.765 32.1445C148.383 32.1738 148.148 32.6141 148.442 32.9077C149.442 33.8764 152.088 34.2287 153.323 33.5829C153.764 33.348 153.647 32.6729 153.176 32.5554V32.5261Z" fill="#3B2645"/>
<path d="M165.88 30.9115C164.762 31.3812 163.851 31.939 162.586 31.9977C161.822 32.027 160.939 31.8509 160.322 32.3793C160.234 32.4674 160.204 32.6435 160.263 32.7609C161.439 34.4636 165.262 32.4674 166.174 31.2638C166.35 31.0289 166.027 30.8528 165.85 30.9409L165.88 30.9115Z" fill="#3B2645"/>
<path d="M160.822 47.5855C159.616 47.292 158.234 47.4387 156.999 47.4975C156.117 47.4975 154.882 47.3507 154.264 48.0552C154.94 48.701 156.117 48.4368 156.999 48.4075C158.263 48.4075 159.587 48.5249 160.822 48.2901C161.175 48.2314 161.175 47.6736 160.822 47.5855Z" fill="#E0855C"/>
<path d="M263.802 203.934H52.8133C51.7253 203.934 50.8431 203.053 50.8431 201.967C50.8431 200.881 51.7253 200 52.8133 200H263.802C264.89 200 265.772 200.881 265.772 201.967C265.772 203.053 264.89 203.934 263.802 203.934Z" fill="#3B2645"/>
<path d="M59.4885 212.065C57.6359 212.065 56.1362 210.568 56.1362 208.719V195.245C56.1362 193.395 57.6359 191.898 59.4885 191.898C61.341 191.898 62.8408 193.395 62.8408 195.245V208.719C62.8408 210.568 61.341 212.065 59.4885 212.065Z" fill="#3B2645"/>
<path d="M66.193 223.837C64.3405 223.837 62.8408 222.34 62.8408 220.49V183.444C62.8408 181.594 64.3405 180.097 66.193 180.097C68.0456 180.097 69.5453 181.594 69.5453 183.444V220.49C69.5453 222.34 68.0456 223.837 66.193 223.837Z" fill="#291B30"/>
<path d="M72.8682 229.444C71.0156 229.444 69.5159 227.947 69.5159 226.097V178.952C69.5159 177.103 71.0156 175.606 72.8682 175.606C74.7208 175.606 76.2205 177.103 76.2205 178.952V226.097C76.2205 227.947 74.7208 229.444 72.8682 229.444Z" fill="#3B2645"/>
<path d="M254.215 212.065C256.068 212.065 257.568 210.568 257.568 208.719V195.245C257.568 193.395 256.068 191.898 254.215 191.898C252.363 191.898 250.863 193.395 250.863 195.245V208.719C250.863 210.568 252.363 212.065 254.215 212.065Z" fill="#3B2645"/>
<path d="M247.511 223.837C249.363 223.837 250.863 222.34 250.863 220.49V183.444C250.863 181.594 249.363 180.097 247.511 180.097C245.658 180.097 244.159 181.594 244.159 183.444V220.49C244.159 222.34 245.658 223.837 247.511 223.837Z" fill="#291B30"/>
<path d="M240.836 229.444C242.688 229.444 244.188 227.947 244.188 226.097V178.952C244.188 177.103 242.688 175.606 240.836 175.606C238.983 175.606 237.483 177.103 237.483 178.952V226.097C237.483 227.947 238.983 229.444 240.836 229.444Z" fill="#3B2645"/>
<path d="M140.826 92.0594C139.796 96.404 137.709 100.396 135.738 104.389C134.856 106.179 131.327 113.812 131.21 114.105C125.74 126.171 118.006 143.784 117.418 145.898C115.595 152.679 111.919 192.015 111.89 192.045C108.126 197.681 100.98 194.951 100.98 194.951C100.98 194.951 100.833 193.747 100.657 191.722C99.8335 182.974 97.9221 158.403 100.157 143.901C100.775 139.85 103.245 130.134 106.156 119.096C108.538 109.966 109.626 101.541 112.478 92.7639C114.625 86.1589 117.771 79.319 123.211 71.8333C124.241 70.3949 128.034 67.8703 129.857 67.6648C130.975 67.5474 131.445 69.1032 132.386 69.5142C135.003 70.6885 137.209 72.8021 138.502 75.3854C141.002 80.4345 142.149 86.5699 140.826 92.0887V92.0594Z" fill="#F5A784"/>
<path d="M100.245 199.237C100.363 197.887 100.51 196.536 100.569 195.245C100.628 193.16 100.598 191.81 100.598 191.81C102.362 189.256 108.008 188.64 110.479 190.254C111.243 190.753 111.831 191.428 112.478 192.045C113.654 193.19 115.066 194.1 116.183 195.303C117.301 196.507 118.124 198.151 117.83 199.765C116.36 200.03 115.066 200.441 114.125 201.644C113.007 203.024 113.478 204.286 112.949 205.813C112.537 207.016 111.096 207.515 109.802 207.691C105.95 208.249 100.451 208.455 100.128 203.464C100.039 202.084 100.128 200.675 100.275 199.237H100.245Z" fill="#F5A784"/>
<path d="M220.634 191.722C220.457 193.747 220.31 194.951 220.31 194.951C220.31 194.951 213.135 197.681 209.371 192.045C209.371 192.015 205.666 152.679 203.843 145.898C203.549 144.753 201.196 139.205 198.256 132.482C195.168 125.437 185.846 105.064 185.523 104.418C183.553 100.426 181.465 96.4334 180.436 92.0887C179.142 86.5699 180.289 80.4345 182.759 75.3854C184.023 72.8021 186.229 70.6885 188.875 69.5142C189.787 69.1032 190.816 68.8097 191.845 68.8978C192.169 68.8978 192.492 68.9858 192.816 69.0739C193.404 69.25 193.904 69.5142 194.374 69.8078C195.109 70.2775 195.815 70.8939 196.432 71.5398C201.99 77.1173 205.519 84.1627 208.048 91.7071C211.106 100.719 212.841 110.407 215.105 119.096C218.017 130.134 220.457 139.88 221.104 143.901C223.368 158.403 221.428 183.003 220.604 191.722H220.634Z" fill="#F5A784"/>
<path d="M220.898 199.237C220.81 197.74 220.722 196.36 220.693 195.245C220.634 193.16 220.663 191.81 220.663 191.81C218.899 189.256 213.253 188.64 210.783 190.254C210.018 190.753 209.43 191.428 208.783 192.045C207.607 193.19 206.195 194.1 205.078 195.303C203.96 196.507 203.137 198.151 203.431 199.765C203.431 199.883 206.901 200.646 207.372 201.145C208.518 202.29 207.636 203.288 207.636 204.609C207.636 206.458 208.93 207.075 210.518 207.398C211.635 207.603 212.782 207.838 213.9 208.014C215.693 208.278 217.634 208.425 219.222 207.545C219.457 207.398 219.722 207.251 219.869 207.016C220.016 206.811 220.104 206.546 220.163 206.312C220.84 203.934 221.016 201.732 220.84 199.296L220.898 199.237Z" fill="#F5A784"/>
<path d="M188.022 98.6644L189.698 145.663C161.939 156.495 131.886 146.397 131.886 146.397L131.21 101.336C130.916 101.248 130.592 101.16 130.298 101.072C128.946 100.661 127.505 100.191 126.034 99.6038C125.182 99.2809 124.299 98.9286 123.447 98.5176C119.683 96.8444 115.86 94.7601 112.478 92.7346C114.625 86.1295 117.771 79.2897 123.211 71.804C124.241 70.3655 128.034 67.841 129.857 67.6355C131.769 67.1071 134.444 66.9896 136.532 66.6374C140.914 65.8741 145.648 65.5219 148.383 65.4044L159.322 92.4116C159.322 92.4116 167.556 76.8825 171.584 65.1696C171.673 65.1696 171.79 65.1696 171.908 65.1696C171.967 65.1402 172.055 65.1402 172.114 65.1696C174.672 65.1989 177.171 65.4338 179.406 65.7861C185.876 66.8135 190.257 67.9877 192.845 69.0152C193.433 69.1913 193.933 69.4555 194.403 69.7491C195.139 70.2188 195.844 70.8352 196.462 71.4811C202.02 77.0586 205.548 84.104 208.077 91.6484C204.549 93.2923 200.52 94.7895 196.991 95.9343C191.992 97.6076 188.022 98.6057 188.022 98.6057V98.6644Z" fill="#3B2645"/>
<path d="M131.21 85.8066V101.336C130.916 101.248 130.592 101.16 130.298 101.072C128.946 100.661 127.505 100.191 126.034 99.6038C128.975 92.9694 131.21 85.8066 131.21 85.8066Z" fill="#27192E"/>
<path d="M123.535 337.326C121.153 336.005 116.713 335.007 114.36 336.827C114.213 336.944 114.184 337.15 114.243 337.326C114.243 337.385 114.243 337.443 114.272 337.502C114.301 337.737 114.595 337.796 114.772 337.708C114.86 337.649 114.919 337.708 114.978 337.649C115.507 337.326 116.095 337.179 116.713 337.12C117.477 337.062 118.271 337.209 119.036 337.355C120.477 337.649 121.859 338.119 123.358 338.089C123.741 338.089 123.917 337.561 123.564 337.355L123.535 337.326Z" fill="#27192E"/>
<path d="M125.064 341.583C123.917 340.291 121.859 340.085 120.183 339.88C118.624 339.704 116.419 339.44 115.066 340.408C114.831 340.584 114.713 341.025 115.066 341.172C116.389 341.759 117.918 341.465 119.359 341.612C121.094 341.817 122.917 342.698 124.652 342.493C125.123 342.434 125.387 341.935 125.035 341.553L125.064 341.583Z" fill="#27192E"/>
<path d="M206.019 335.711C203.666 333.774 197.668 334.39 195.786 336.798C195.492 337.179 195.609 337.942 196.227 337.884C197.785 337.737 199.167 336.974 200.755 336.827C202.373 336.651 203.902 337.238 205.49 337.062C206.078 337.003 206.636 336.211 206.048 335.711H206.019Z" fill="#27192E"/>
<path d="M207.283 339.674C205.401 338.97 203.078 339.293 201.108 339.352C199.697 339.381 198.109 339.352 197.138 340.555C196.697 341.084 197.079 342.082 197.873 341.817C200.873 340.761 204.284 342.346 207.254 341.26C208.018 340.966 208.018 339.997 207.254 339.704L207.283 339.674Z" fill="#27192E"/>
<path d="M280.607 314.699C280.49 314.464 280.431 314.376 280.372 314.258C279.813 313.172 278.608 309.914 279.725 303.954C279.843 303.25 280.019 302.516 280.195 301.723C281.107 298.113 282.371 283.464 257.582 283.229C232.822 283.494 234.057 298.113 234.969 301.723C235.204 302.663 235.381 303.543 235.528 304.395C236.498 310.09 235.322 313.202 234.792 314.258C234.734 314.376 234.675 314.493 234.616 314.581C232.499 318.427 231.323 322.713 231.323 327.292C231.323 341.794 243.085 353.507 257.582 353.507C272.079 353.507 283.842 341.765 283.842 327.292C283.842 322.713 282.666 318.427 280.607 314.699ZM271.609 302.545C271.609 302.545 271.55 302.81 271.521 302.927C271.197 303.543 270.756 304.013 270.256 304.307C268.58 305.334 265.992 304.953 262.728 303.954C258.435 302.633 255.935 302.604 250.201 304.483C247.349 305.422 245.732 305.011 244.82 304.395C244.291 304.043 243.997 303.602 243.85 303.279C243.703 302.927 243.585 302.516 243.526 302.046C243.379 301.136 243.32 300.05 243.408 298.759C243.908 289.776 257.641 290.715 257.641 290.715C257.641 290.715 271.374 289.776 271.874 298.759C271.962 300.285 271.874 301.547 271.638 302.545H271.609Z" fill="#AB8DA8"/>
<path d="M280.195 301.723C279.99 302.516 279.843 303.25 279.725 303.954C276.549 304.013 273.667 303.279 271.609 302.545C271.844 301.547 271.932 300.314 271.844 298.759C271.344 289.776 257.612 290.715 257.612 290.715C257.612 290.715 243.908 289.776 243.379 298.759C243.32 300.05 243.35 301.166 243.497 302.046C240.733 303.221 237.91 303.954 235.557 304.365C235.41 303.543 235.234 302.633 234.998 301.694C234.057 298.083 232.822 283.435 257.612 283.2C282.401 283.464 281.136 298.083 280.225 301.694L280.195 301.723Z" fill="#826B80"/>
<path d="M257.582 336.246C262.519 336.246 266.522 332.25 266.522 327.322C266.522 322.393 262.519 318.397 257.582 318.397C252.645 318.397 248.643 322.393 248.643 327.322C248.643 332.25 252.645 336.246 257.582 336.246Z" fill="#826B80"/>
<path d="M242.997 314.023C239.203 316.401 238.409 322.683 238.909 326.705C238.998 327.351 240.027 327.674 240.203 326.881C240.644 324.621 240.585 322.302 241.144 320.071C241.644 318.075 242.673 316.489 243.703 314.728C243.938 314.288 243.438 313.759 242.997 314.023Z" fill="#E8CEE5"/>
<path d="M276.079 334.602C276.02 334.132 275.343 333.839 275.108 334.338C274.226 336.07 273.785 337.802 272.462 339.299C271.521 340.385 269.903 341.324 269.786 342.821C269.786 342.939 269.903 343.056 270.021 343.056C271.638 342.968 273.226 340.943 274.138 339.768C275.226 338.359 276.255 336.422 276.079 334.602Z" fill="#E8CEE5"/>
<path d="M103.509 45.8242C93.3642 47.703 82.8369 46.1178 72.9858 49.9046C72.3389 50.1688 72.3389 51.2844 73.1623 51.2256C79.1317 50.8734 85.0423 49.6698 91.0411 49.3175C95.3638 49.0533 100.48 49.9634 104.391 47.8204C105.568 47.1746 104.715 45.56 103.539 45.7948L103.509 45.8242Z" fill="#E8CEE5"/>
<path d="M107.185 31.7335C102.245 29.2676 97.1282 26.9485 91.9233 25.1285C91.0118 24.8056 90.4824 26.1853 91.2764 26.6256C95.952 29.385 100.922 31.7628 105.891 33.9352C107.362 34.581 108.655 32.4967 107.185 31.7335Z" fill="#E8CEE5"/>
<path d="M262.85 18.5169L251.164 58.7204L241.51 47.4251L224.807 75.0589L236.275 27.2852L246.223 38.94L262.85 18.5169Z" fill="#E0E0E0"/>
</g>
<defs>
<clipPath id="clip0_1_2179">
<rect width="303" height="354" fill="white"/>
</clipPath>
</defs>
</svg>
