<svg width="281" height="76" viewBox="0 0 281 76" fill="none" xmlns="http://www.w3.org/2000/svg">
<g clip-path="url(#clip0_1_258)">
<path d="M129.5 76C89.0345 76 50.9859 60.1904 22.3718 31.4818C-6.24236 2.77322 -22 -35.401 -22 -76H-20.1725C-20.1725 6.80241 46.97 74.1665 129.5 74.1665C212.03 74.1665 279.172 6.80241 279.172 -76H281C281 -35.401 265.242 2.77322 236.628 31.4818C208.014 60.1904 169.97 76 129.5 76Z" fill="white"/>
<path d="M129.5 55.7165C94.4348 55.7165 61.4621 42.0154 36.6675 17.139C11.8728 -7.73752 -1.7832 -40.8191 -1.7832 -76H0.0442998C0.0442998 -4.38215 58.1178 53.883 129.5 53.883C200.882 53.883 258.956 -4.38215 258.956 -76H260.783C260.783 -40.8191 247.127 -7.73752 222.333 17.139C197.538 42.0154 164.57 55.7165 129.5 55.7165Z" fill="white"/>
<path d="M129.5 35.4331C99.8306 35.4331 71.9429 23.8405 50.9631 2.79613C29.9834 -18.2528 18.4336 -46.2326 18.4336 -76H20.2611C20.2611 -15.5667 69.2656 33.5995 129.5 33.5995C189.735 33.5995 238.739 -15.5667 238.739 -76H240.567C240.567 -46.2326 229.012 -18.2528 208.037 2.79613C187.057 23.8451 159.17 35.4331 129.5 35.4331Z" fill="white"/>
<path d="M129.5 15.1542C79.4034 15.1542 38.6455 -25.7382 38.6455 -76H40.473C40.473 -26.7513 80.4085 13.3206 129.5 13.3206C178.591 13.3206 218.527 -26.7513 218.527 -76H220.354C220.354 -25.7382 179.596 15.1542 129.5 15.1542Z" fill="white"/>
</g>
<defs>
<clipPath id="clip0_1_258">
<rect width="303" height="152" fill="white" transform="translate(-22 -76)"/>
</clipPath>
</defs>
</svg>
