<svg width="109" height="168" viewBox="0 0 109 168" fill="none" xmlns="http://www.w3.org/2000/svg">
<path d="M79.4112 112.397C78.7228 113.997 77.7762 115.478 77.2082 117.13C76.8468 118.197 76.6575 119.316 76.1928 120.331C75.7626 121.243 75.1258 122.035 74.3341 122.672C73.5424 123.308 72.5958 123.756 71.6148 123.962C68.2587 124.634 64.4035 122.689 61.5465 124.565C61.4261 124.651 61.3228 124.72 61.2023 124.823C60.6516 125.236 60.1868 125.752 59.6189 126.148C57.175 127.886 53.7673 127.06 51.048 125.77C48.3459 124.479 45.661 122.723 42.6492 122.758C41.5993 122.758 40.5322 123.016 39.4996 122.895C37.5892 122.706 35.9886 121.415 34.7838 119.952C29.8099 113.929 30.4812 103.843 35.0248 97.7678C35.8509 96.6491 36.7975 95.5648 37.0901 94.2224C37.3654 92.9316 36.9868 91.5719 37.1933 90.2639C37.4687 88.4567 38.8112 87.0455 39.8954 85.5826C41.2723 83.7411 42.3221 81.6585 43.0106 79.4555C43.2343 78.7155 43.4236 77.9755 43.5785 77.2354C44.0777 74.6538 44.1465 71.8312 45.7987 69.8004C48.6212 66.3582 54.7655 65.6353 58.8788 66.3926C63.5429 67.2876 67.8112 69.3873 69.343 74.2579C70.1175 76.7363 70.0142 79.3867 70.1863 81.9511C70.3584 84.5327 70.8919 87.252 72.6646 89.128C73.4908 90.0058 74.5578 90.6769 75.0914 91.7268C75.9519 93.3962 75.2463 95.3755 75.143 97.2515C75.0914 98.0948 75.1602 98.9553 75.3495 99.7986C75.6077 100.883 76.0723 101.933 76.7263 102.828C76.9157 103.086 77.105 103.327 77.2943 103.568C78.2925 104.773 79.4801 105.857 79.9792 107.32C80.5299 108.972 80.0996 110.796 79.4112 112.38V112.397Z" fill="#3B2645"/>
<path d="M77.2947 103.585C77.2947 103.585 77.2947 103.671 77.2947 103.706C77.0193 105.1 76.2276 106.322 75.5908 107.595C73.6115 111.485 72.992 116.028 73.8353 120.297C73.9902 121.088 74.1967 121.897 74.3516 122.706C73.5599 123.343 72.6133 123.791 71.6323 123.997C68.2762 124.668 64.421 122.723 61.5641 124.599C61.4436 124.685 61.3403 124.754 61.2199 124.858C60.6003 122.069 60.9789 119.04 61.6501 116.218C61.7534 115.788 61.8222 115.254 61.4608 114.996C61.2371 114.841 60.9617 114.875 60.6863 114.875C58.7243 114.893 57.0032 113.361 56.2804 111.536C55.5575 109.712 55.6436 107.681 55.9534 105.736C56.246 103.809 56.7278 101.881 56.7622 99.9193C56.7622 96.9762 55.7124 94.0676 56.0222 91.1418C56.3148 88.302 57.9326 85.6344 60.2905 84.0682C60.9789 83.6035 63.7326 82.1062 64.4899 82.9839C64.9202 83.483 63.9735 86.3228 63.9219 87.0285C63.7326 89.9543 64.3866 93.035 66.3142 95.324C68.3279 97.7163 71.4086 98.9727 74.4549 99.6095C74.7475 99.6611 75.0573 99.73 75.3326 99.816C75.5908 100.9 76.0555 101.95 76.7095 102.845C76.8988 103.103 77.0881 103.344 77.2774 103.585H77.2947Z" fill="#291B30"/>
<path d="M89.9272 149.607C81.0293 152.98 70.0661 155.785 61.3402 157.093C60.2043 157.627 53.0619 165.337 48.5871 158.04C48.415 157.747 48.2429 157.437 48.0708 157.093C45.9883 156.783 43.8025 156.388 41.5307 155.923C33.1147 154.185 23.7521 151.448 16.4031 148.367C8.12473 144.891 2.39353 140.95 3.40896 137.387C4.25229 134.392 11.0161 133.36 19.5698 133.36C31.4624 133.36 46.8488 135.253 54.6969 136.337C61.0477 135.459 72.3379 134.031 82.7504 133.549C94.402 132.981 104.918 133.601 106.002 137.404C107.121 141.38 99.8062 145.855 89.91 149.624L89.9272 149.607Z" fill="#3B2645"/>
<path d="M67.8628 122.379C67.7424 127.405 68.2931 132.034 68.9127 134.805C66.8991 136.44 62.1317 137.146 55.0064 137.146C47.8812 137.146 42.3394 134.805 42.3394 134.805C43.286 128.609 42.8729 121.261 41.5993 117.457C41.3755 116.82 41.1346 116.269 40.8937 115.856C40.4462 115.151 39.9126 114.497 39.5684 113.739C38.5874 111.623 39.1898 109.144 39.9471 106.941C40.0159 106.752 40.0676 106.545 40.1364 106.356C40.756 104.274 40.8076 102.26 41.2895 100.16C41.6165 98.6972 42.9245 98.2326 44.353 97.9744C44.8693 97.8884 45.3684 97.8195 45.8503 97.7335C46.1257 97.6819 46.4011 97.6302 46.6421 97.5958C47.778 97.4065 48.9483 97.3032 49.8776 97.2171C50.6177 97.1483 51.2201 97.0966 51.5127 97.0966C51.6504 97.0794 51.7364 97.0622 51.7364 97.0622C51.7364 97.0278 51.8225 96.6148 51.8225 96.6148C51.8225 96.5803 52.0807 95.1347 52.0807 95.1347L53.1821 89.0593C53.4059 86.8047 56.2456 86.2712 58.483 86.2195C60.032 86.1851 61.2883 86.3572 61.2883 86.3572L60.8237 97.1655C60.8237 97.1655 60.8925 97.2344 61.0474 97.2516C61.3744 97.3032 62.0801 97.3204 63.0955 97.3893C63.4225 97.4065 63.8011 97.4409 64.2142 97.4753C64.2658 97.4753 64.3174 97.4753 64.3691 97.4753C64.5584 97.4753 64.7305 97.5097 64.9198 97.5269C65.9181 97.6302 67.14 97.6646 68.2243 97.9228C69.5839 98.2498 70.651 98.9038 70.8747 100.298C71.3394 103.12 70.3412 106.115 69.7044 108.8C69.2741 110.555 68.9643 112.277 68.7234 114.032C68.7234 114.118 68.7062 114.221 68.689 114.325C68.362 116.7 68.1554 119.092 67.9489 121.501C67.9317 121.794 67.8801 122.069 67.8801 122.345L67.8628 122.379Z" fill="#F5A784"/>
<path d="M62.2181 51.0406C62.2181 51.0406 62.2869 51.0922 62.3213 51.1094C62.3041 51.0577 62.2697 51.0578 62.2181 51.0406ZM86.8638 68.3718C84.9534 65.5148 82.2169 63.0364 79.4632 60.713C78.0691 59.5082 76.6751 58.3551 75.3842 57.202C72.9059 54.9474 70.4448 52.6928 68.1041 50.3005C66.1938 48.3213 63.2507 45.7913 62.373 43.158C62.1836 42.6245 62.1492 42.0565 62.1148 41.4886C61.9255 39.6298 61.478 37.7883 60.7896 36.05C60.6691 35.723 60.497 35.3616 60.1872 35.1551C59.8946 34.9657 59.3955 35.0002 59.2406 35.3272C59.189 35.4476 59.189 35.5853 59.189 35.723C59.189 38.9759 58.2424 43.8292 59.6709 46.8239C60.5142 48.5966 62.1665 50.2144 63.2679 51.8495C65.2472 54.7581 66.9166 57.7355 69.0163 60.5236C70.3588 62.2963 76.1932 70.1789 77.811 72.3302C77.811 72.3302 75.8145 79.008 71.0816 85.9955C70.6857 86.5979 70.135 87.0453 69.722 87.5789C65.1439 93.2928 62.373 95.6679 61.0305 97.2685C60.2388 98.2151 59.929 98.9035 59.9979 99.8157C60.8928 111.106 68.7065 114.066 68.7065 114.066C68.7065 114.066 91.5968 75.5314 86.8638 68.3718Z" fill="#F5A784"/>
<path d="M50.566 51.0751C50.566 51.0751 50.652 51.0751 50.6692 51.0407C50.6348 51.0407 50.6004 51.0579 50.566 51.0751ZM43.8538 60.5238C45.9707 57.7356 47.6402 54.7582 49.6022 51.8496C50.7037 50.2146 52.3731 48.5967 53.2164 46.824C54.6449 43.8294 53.6983 38.976 53.6811 35.7232C53.6811 35.5855 53.6811 35.4478 53.6295 35.3273C53.4746 35.0003 52.9927 34.9487 52.6829 35.1552C52.3731 35.3617 52.2182 35.7231 52.0805 36.0501C51.4093 37.7884 50.9618 39.63 50.7725 41.4887C50.7209 42.0567 50.6865 42.6246 50.5143 43.1582C49.6194 45.7914 46.6936 48.3214 44.766 50.3006C42.4425 52.6929 39.9642 54.9475 37.5031 57.2021C36.5737 58.0454 35.5926 58.8715 34.5772 59.7148C31.4793 62.3653 28.1748 65.1191 26.0235 68.3719C22.6846 73.4318 33.4585 94.4461 40.1018 106.373C42.8728 111.347 44.9209 114.737 44.9209 114.737C44.9209 114.737 51.6847 111.14 52.8722 100.091C52.8722 100.005 52.8722 99.9191 52.8894 99.8158C52.9926 98.852 52.614 98.1464 51.7191 97.131C50.2734 95.4787 47.5541 93.0692 43.1653 87.579C42.7351 87.0455 42.2016 86.598 41.7885 85.9956C37.0728 79.0081 35.0591 72.3303 35.0591 72.3303C36.8146 69.9897 42.649 62.1243 43.8538 60.5238Z" fill="#F5A784"/>
<path d="M68.9133 134.805C66.8996 136.44 62.1322 137.145 55.007 137.145C47.8818 137.145 42.3399 134.805 42.3399 134.805C43.2865 128.609 42.8734 121.26 41.5998 117.456C41.3761 116.82 41.1352 116.269 40.8943 115.856C40.4468 115.15 39.9132 114.496 39.569 113.739C38.588 111.622 39.1904 109.144 39.9476 106.941C40.0165 106.751 40.0681 106.545 40.137 106.355C33.4936 94.4285 22.7197 73.4142 26.0586 68.3543C28.2099 65.0842 31.5144 62.3305 34.6123 59.6973C35.6622 60.7127 39.8444 64.8432 40.309 65.3079C38.5708 67.6314 36.8497 69.9892 35.0942 72.3127C35.0942 72.3471 37.0907 79.0249 41.8064 85.9952C42.2195 86.5976 42.753 87.0451 43.1833 87.5786C47.5892 93.0516 50.2913 95.4783 51.7026 97.0789C52.0812 98.0083 52.4942 99.0409 52.8901 100.074C53.5785 101.967 54.1981 103.912 54.3702 105.082L60.8242 96.8036V97.1822C60.8242 97.1822 60.8759 97.251 61.0308 97.2682C62.3904 95.6676 65.1441 93.2753 69.7222 87.5786C70.1525 87.0451 70.686 86.5976 71.0818 85.9952C75.8148 79.0077 77.8112 72.3299 77.8112 72.3299C76.2106 70.1786 74.61 68.0272 73.0094 65.8587L79.4462 60.6955C82.2 63.0361 84.9536 65.4973 86.8468 68.3543C91.5798 75.5139 68.6895 114.049 68.6895 114.049C68.6895 114.135 68.6723 114.238 68.6551 114.341C68.3281 116.716 68.1216 119.109 67.915 121.518C67.8978 121.811 67.8462 122.086 67.8462 122.361C67.7257 127.387 68.2765 132.017 68.8961 134.788L68.9133 134.805Z" fill="#FF4590"/>
<path d="M61.2713 86.3912L61.0476 91.3995C57.5022 94.05 54.0772 94.05 52.3045 93.8091L53.1479 89.0933C53.3716 86.8387 56.2113 86.3052 58.4487 86.2535C59.9977 86.2191 61.2541 86.3912 61.2541 86.3912H61.2713Z" fill="#E0855C"/>
<path d="M66.5725 80.557C65.9873 79.1973 64.9719 79.421 64.1286 79.9374C64.3007 77.6483 64.1802 75.7036 63.6467 74.3267C61.9428 69.9552 53.1481 68.4406 48.8627 73.8792C47.8816 75.1184 47.503 77.5107 47.2793 80.3332C46.5909 88.8697 50.5665 92.2086 53.3547 92.3463C55.8847 92.4668 60.9102 91.7611 62.9927 86.2365C64.731 86.0128 67.5363 82.8288 66.5725 80.5742V80.557Z" fill="#F5A784"/>
<path d="M54.8862 84.0849C54.5076 84.0161 53.6471 84.1882 53.4922 83.7751C53.3545 83.4309 54.0601 81.4689 54.1634 81.1419C54.2667 80.7805 54.3871 80.4363 54.4904 80.1265C54.456 80.1093 54.4216 80.0748 54.3871 80.0576C54.3183 80.006 54.2322 79.9716 54.1462 79.9543C53.7331 81.2968 53.4061 82.7081 53.0275 83.9989C52.9931 84.1193 53.0791 84.2398 53.1996 84.2398C53.7503 84.257 54.2839 84.3947 54.8174 84.4291C55.0067 84.4291 55.0755 84.1366 54.8862 84.1021V84.0849Z" fill="#E0855C"/>
<path d="M52.2007 77.1492C51.6844 76.8566 50.7034 76.7361 50.2903 77.2697C50.2215 77.3729 50.2904 77.5278 50.4108 77.5278C50.669 77.5278 50.9099 77.4074 51.1853 77.4074C51.4779 77.4074 51.736 77.4762 52.0114 77.5794C52.2524 77.6655 52.4417 77.3041 52.2007 77.1664V77.1492Z" fill="#3B2645"/>
<path d="M59.4469 78.3199C59.1888 77.5626 57.8807 77.4249 57.2956 77.8552C57.1579 77.9584 57.2267 78.1649 57.3644 78.2166C57.6914 78.337 58.0356 78.2166 58.3798 78.2683C58.6724 78.3027 58.9134 78.4575 59.1715 78.5608C59.3092 78.6124 59.4986 78.4576 59.4469 78.3199Z" fill="#3B2645"/>
<path d="M55.6952 86.1675C55.1617 86.3912 54.7659 86.6837 54.1463 86.6665C53.6644 86.6665 53.1653 86.4084 52.7178 86.5461C52.649 86.5633 52.5973 86.6493 52.6317 86.7182C52.9587 87.2517 53.8537 87.3378 54.4044 87.3205C55.0068 87.3033 55.7297 87.114 56.0739 86.5633C56.2288 86.3051 55.9534 86.0298 55.6952 86.1502V86.1675Z" fill="#E0855C"/>
<path d="M52.3733 80.0921C51.7709 80.2987 51.203 80.488 50.5662 80.2642C50.1703 80.1265 49.8949 79.7995 49.5163 79.6447C49.4647 80.1782 50.0326 80.5052 50.4629 80.6601C51.1341 80.901 51.9258 80.815 52.5626 80.4708C52.7864 80.3503 52.6314 79.9889 52.3905 80.0749L52.3733 80.0921Z" fill="#3B2645"/>
<path d="M59.8942 80.712C59.0509 80.9701 57.6396 81.5381 57.1921 80.3333C57.1233 80.144 56.8824 80.1784 56.848 80.385C56.7619 81.0562 57.588 81.4176 58.1388 81.5036C58.81 81.6069 59.6361 81.5037 60.0664 80.9357C60.1524 80.8324 60.0147 80.6948 59.9115 80.7292L59.8942 80.712Z" fill="#3B2645"/>
<path d="M64.3005 70.0067C63.3539 69.2494 62.3212 68.5782 61.1853 68.1824C59.2921 67.5628 57.2613 67.8037 55.2821 68.0275C53.1996 68.2684 51.031 68.5266 49.2239 69.5764C47.5889 70.5402 45.2998 73.4833 46.8144 75.4453C48.2773 77.3557 51.9776 73.7587 53.0447 72.6744C53.5438 74.034 55.1616 74.6192 56.6073 74.7224C58.053 74.8257 59.5675 74.6364 60.9099 75.1699C61.8049 75.5313 62.4589 76.2714 63.0957 76.9771C63.3367 77.2524 63.5948 77.545 63.7669 77.872C64.0767 78.4744 64.1456 79.1628 64.1972 79.834C64.4554 79.4382 64.9717 79.3521 65.4364 79.3177C65.9011 79.2833 66.4002 79.2661 66.7616 78.9563C67.0198 78.7326 67.123 78.4055 67.2263 78.0785C67.5533 76.9598 67.2607 75.583 67.2263 74.4299C67.1402 72.3646 65.9355 71.2459 64.3521 69.9723L64.3005 70.0067Z" fill="#3B2645"/>
<path d="M53.0446 159.382L16.4202 148.367C8.14182 144.891 2.41062 140.95 3.42605 137.387C4.26938 134.392 11.0332 133.36 19.5869 133.36C27.6932 136.251 39.0523 144.134 53.0446 159.382Z" fill="#291B30"/>
<path d="M89.9272 149.606C82.2684 149.038 75.3153 147.265 75.3153 147.265C75.3153 147.265 83.8002 141.242 82.7675 133.548C94.4192 132.981 104.935 133.6 106.019 137.404C107.138 141.379 99.8233 145.854 89.9272 149.623V149.606Z" fill="#291B30"/>
<path d="M92.0616 156.8C88.9809 158.418 84.4028 159.898 78.62 161.309C72.3725 162.824 64.7654 164.235 56.1601 165.612C46.6425 167.127 39.7238 169.502 39.1903 165.147C38.6912 161.051 50.9624 159.743 54.7488 159.141C55.4888 159.02 56.9173 158.298 58.8105 157.162C66.3832 152.618 81.3565 141.5 89.6349 136.801C95.5726 133.445 100.271 133.944 103.18 134.977C105.847 135.924 107.964 138.54 108.188 141.775C108.773 150.398 96.0028 154.735 92.0788 156.783L92.0616 156.8Z" fill="#F5A784"/>
<path d="M78.6369 161.292C72.4066 162.824 64.7822 164.218 56.1769 165.595C46.6593 167.109 39.7406 169.484 39.2071 165.13C38.708 161.034 50.9793 159.726 54.7656 159.124C55.5057 159.003 56.9341 158.28 58.8273 157.144C63.1644 158.797 71.3567 161.447 78.654 161.275L78.6369 161.292Z" fill="#E0855C"/>
<path d="M0.982238 141.793C1.20598 138.557 3.32285 135.941 5.99051 134.995C8.89912 133.962 13.5977 133.446 19.5354 136.819C29.8618 142.671 50.6523 158.556 54.4215 159.141C58.1906 159.727 70.4619 161.035 69.9627 165.148C69.4292 169.502 62.5105 167.127 52.993 165.613C36.4019 162.979 23.511 160.174 17.0914 156.801C13.1674 154.735 0.397073 150.415 0.982238 141.793Z" fill="#F5A784"/>
<path d="M62.717 114.118C61.0992 116.596 56.6589 115.219 54.4903 114.686C54.2838 114.634 54.1289 114.858 54.2149 115.03C55.0755 116.648 57.5194 116.596 59.1028 116.51C60.8411 116.424 62.6482 116.235 63.6808 114.669C64.0767 114.066 63.1129 113.498 62.717 114.101V114.118Z" fill="#DE3C7C"/>
<path d="M77.8105 72.3302C76.2099 70.1788 74.6093 68.0275 73.0087 65.8589L75.3838 63.9486C76.6401 65.6869 78.3612 68.8536 77.8105 72.313V72.3302Z" fill="#DE3C7C"/>
<path d="M40.3085 65.3082C38.5702 67.6316 36.8491 69.9895 35.0936 72.313C35.2485 71.9343 37.331 66.7023 38.5014 63.5183C39.207 64.2239 39.8438 64.8435 40.3085 65.3082Z" fill="#DE3C7C"/>
<path d="M36.7113 38.3219C34.7321 38.253 32.7184 38.735 30.7564 39.0448C28.5362 39.389 26.23 39.5955 24.0959 40.3183C23.6828 40.456 23.7517 41.0756 24.1991 41.0928C26.1784 41.1617 28.192 40.7486 30.1369 40.4905C32.357 40.1807 34.7149 40.0602 36.8318 39.3373C37.3653 39.148 37.2793 38.3563 36.6941 38.3391L36.7113 38.3219Z" fill="#C1CAE3"/>
<path d="M41.72 26.5324C38.9835 25.2588 36.7461 23.8992 34.3022 22.0921C32.3057 20.612 30.2232 19.1319 27.6933 18.8909C27.263 18.8565 27.0737 19.5449 27.4695 19.717C30.206 20.939 32.409 22.488 34.7841 24.3123C36.7289 25.8096 38.8802 27.4962 41.393 27.72C42.0126 27.7716 42.2707 26.8078 41.72 26.5497V26.5324Z" fill="#C1CAE3"/>
<path d="M55.6263 10.4233C55.3682 7.10161 55.3681 3.76271 55.0411 0.458258C54.9895 -0.144117 54.1462 -0.161328 54.0945 0.458258C53.7675 3.91761 54.0085 7.49747 54.2494 10.974C54.4732 14.1236 54.628 17.428 55.4197 20.4916C55.5918 21.1456 56.6417 21.0251 56.6245 20.3367C56.5212 17.0322 55.8672 13.7277 55.6091 10.4233H55.6263Z" fill="#C1CAE3"/>
<path d="M75.384 14.313C71.9591 16.9118 68.4998 19.9409 65.5395 23.0732C65.092 23.5379 65.6944 24.4328 66.2624 24.0198C69.7562 21.5242 73.2327 18.5124 76.279 15.4833C76.847 14.9153 76.0725 13.7966 75.384 14.313Z" fill="#C1CAE3"/>
<path d="M93.0595 38.1324C90.3058 37.2375 87.0014 37.4268 84.1272 37.3063C81.253 37.1858 78.0346 36.8072 75.2464 37.6161C74.9711 37.7021 74.9711 38.098 75.2464 38.184C78.0346 39.0102 81.2358 38.7348 84.1272 38.8897C87.053 39.0274 90.1681 39.6469 93.0595 39.2511C93.6791 39.165 93.5587 38.2873 93.0595 38.1324Z" fill="#C1CAE3"/>
</svg>
