<svg width="33" height="76" viewBox="0 0 33 76" fill="none" xmlns="http://www.w3.org/2000/svg">
<path d="M13.7294 30.271C13.7294 30.271 4.38237 -0.998895 2.211 0.0245871C0.0452934 1.04807 10.5007 28.4276 10.1897 27.9922C9.87865 27.5568 2.00179 15.8009 0.181006 17.9553C-1.63412 20.1097 10.8003 31.7017 10.8003 31.7017L13.7294 30.2654V30.271Z" fill="#4A5064"/>
<path d="M8.13681 39.9461C8.9963 42.0722 10.2856 44.4358 12.0498 47.0596C13.8197 49.7738 15.8044 52.4314 18.2246 55.2474C20.6109 58.0408 23.0536 60.6645 25.2533 63.1299C26.3559 64.3626 27.3964 65.5557 28.3577 66.698C29.3925 67.9194 30.2293 69.1238 30.9192 70.2038C31.6034 71.3347 32.2084 72.3356 32.7174 73.2177C32.8191 69.2312 31.0379 61.0603 28.6517 52.7481C28.4029 51.8886 28.1541 51.0347 27.894 50.1752C26.1184 44.2831 24.1054 38.5437 22.3185 34.4272C21.804 33.2397 21.312 32.2106 20.8484 31.3285C20.5713 30.8082 20.3112 30.3502 20.0567 29.9544C19.8079 29.5642 19.5704 29.2193 19.3499 28.9648C18.8523 28.3937 18.4282 28.1845 18.1059 28.405C18.1059 28.405 8.37429 28.3824 5.17944 33.0248C5.46217 33.3471 5.76187 33.8221 6.06722 34.4668C6.72881 35.8012 7.29992 37.8539 8.13681 39.9461Z" fill="#FFA379"/>
<path d="M27.4361 73.0312C26.6614 72.2792 25.8471 71.4932 24.9763 70.7185C26.4182 72.3018 27.7414 73.591 28.8723 74.4732C28.9967 74.5693 29.1042 74.6428 29.2229 74.7276C28.6518 74.2017 28.0581 73.6419 27.4361 73.0312Z" fill="#FFA379"/>
<g opacity="0.3">
<path d="M29.2229 74.7277C29.9128 75.2309 30.5348 75.5872 31.038 75.7172C30.5348 75.5872 29.9184 75.2366 29.2229 74.7277Z" fill="black"/>
</g>
<path d="M29.2229 74.7276C29.9184 75.2308 30.5348 75.5871 31.038 75.7171C31.4282 75.8189 31.7618 75.7963 32.0163 75.638C32.2707 75.4796 32.4517 75.146 32.5704 74.6597C32.6609 74.2752 32.7005 73.7776 32.7174 73.2178C32.2029 72.3357 31.6035 71.3348 30.9193 70.2039C30.2294 69.1239 29.3925 67.9251 28.3577 66.698C27.4021 65.5558 26.356 64.3627 25.2534 63.13C23.0481 60.6646 20.6109 58.0465 18.2247 55.2475C15.8045 52.4315 13.8254 49.7682 12.0499 47.0596C10.2856 44.4359 8.99638 42.0666 8.13689 39.9461C7.3 37.8539 6.73454 35.8013 6.0673 34.4668C5.76195 33.8222 5.4566 33.3472 5.17952 33.0249C4.46139 34.0653 4.07123 35.3376 4.20129 36.904C4.43878 39.8387 7.31697 45.6347 11.1564 51.8717C11.8576 53.0083 12.5871 54.1561 13.3391 55.304C14.0912 56.4519 14.8659 57.5998 15.6519 58.7364C16.4378 59.8729 17.2351 60.9926 18.0324 62.0839C18.8297 63.1752 19.6327 64.2383 20.4243 65.2561C21.216 66.274 22.002 67.2522 22.7653 68.1682C23.523 69.0786 24.2638 69.9325 24.9819 70.7185C25.8528 71.4931 26.667 72.2735 27.4417 73.0312C28.0637 73.6475 28.6574 74.2017 29.2285 74.7276H29.2229Z" fill="#FFA379"/>
<g opacity="0.3">
<path d="M29.2229 74.7276C29.9184 75.2308 30.5348 75.5871 31.038 75.7171C31.4282 75.8189 31.7618 75.7963 32.0163 75.638C32.2707 75.4796 32.4517 75.146 32.5704 74.6597C32.6609 74.2752 32.7005 73.7776 32.7174 73.2178C32.2029 72.3357 31.6035 71.3348 30.9193 70.2039C30.2294 69.1239 29.3925 67.9251 28.3577 66.698C27.4021 65.5558 26.356 64.3627 25.2534 63.13C23.0481 60.6646 20.6109 58.0465 18.2247 55.2475C15.8045 52.4315 13.8254 49.7682 12.0499 47.0596C10.2856 44.4359 8.99638 42.0666 8.13689 39.9461C7.3 37.8539 6.73454 35.8013 6.0673 34.4668C5.76195 33.8222 5.4566 33.3472 5.17952 33.0249C4.46139 34.0653 4.07123 35.3376 4.20129 36.904C4.43878 39.8387 7.31697 45.6347 11.1564 51.8717C11.8576 53.0083 12.5871 54.1561 13.3391 55.304C14.0912 56.4519 14.8659 57.5998 15.6519 58.7364C16.4378 59.8729 17.2351 60.9926 18.0324 62.0839C18.8297 63.1752 19.6327 64.2383 20.4243 65.2561C21.216 66.274 22.002 67.2522 22.7653 68.1682C23.523 69.0786 24.2638 69.9325 24.9819 70.7185C25.8528 71.4931 26.667 72.2735 27.4417 73.0312C28.0637 73.6475 28.6574 74.2017 29.2285 74.7276H29.2229Z" fill="black"/>
</g>
<g opacity="0.24">
<path d="M22.6185 39.7481C22.8843 40.0025 20.5546 42.2418 16.93 43.401C13.3619 44.5658 10.4328 45.0182 10.3311 44.7298C10.2067 44.3566 13.0679 43.3331 16.5115 42.2022C19.9665 41.0939 22.3867 39.488 22.6185 39.7424V39.7481Z" fill="white"/>
</g>
<g opacity="0.24">
<path d="M15.7935 36.2084C15.8613 36.5307 14.2554 37.328 12.1067 38.148C9.9353 38.9848 7.93923 38.9961 7.91661 38.6343C7.88834 38.295 9.57908 37.7634 11.6769 36.9548C13.7918 36.1406 15.7143 35.8409 15.7935 36.2028V36.2084Z" fill="white"/>
</g>
<g opacity="0.24">
<path d="M19.2711 34.8683C19.3729 35.2019 19.0732 35.5921 18.5926 35.7391C18.1176 35.8861 17.6426 35.7391 17.5408 35.3998C17.439 35.0662 17.7387 34.676 18.2194 34.529C18.6944 34.382 19.1637 34.529 19.2711 34.8683Z" fill="white"/>
</g>
<g opacity="0.24">
<path d="M19.9325 47.252C19.8194 46.9071 21.0465 46.2738 22.5845 45.8384C24.1169 45.4143 25.3383 45.1146 25.5136 45.4143C25.6946 45.7253 24.5467 46.6131 22.9408 47.0541C21.3518 47.5008 20.04 47.5743 19.9325 47.252Z" fill="white"/>
</g>
<g opacity="0.24">
<path d="M19.0845 48.4674C19.1919 48.801 18.2759 49.3269 17.0432 49.6435C15.8048 49.9602 14.7587 49.9319 14.7022 49.587C14.6456 49.2421 15.5617 48.7162 16.7435 48.4108C17.931 48.1111 18.9771 48.1338 19.0845 48.4674Z" fill="white"/>
</g>
<g opacity="0.24">
<path d="M17.4558 53.5736C17.4841 53.3078 19.4519 53.0647 21.7816 52.0638C24.1113 51.1025 26.1187 50.3731 26.2374 50.6728C26.3336 50.9159 24.5976 52.0468 22.1661 53.0477C19.7233 54.1051 17.3993 53.9015 17.4558 53.5736Z" fill="white"/>
</g>
<g opacity="0.24">
<path d="M26.1187 56.2594C26.4014 56.4855 26.1187 57.1245 25.5363 57.3563C24.9878 57.5769 24.5524 57.4525 24.3828 57.1528C24.2075 56.8418 24.5807 56.3724 25.0387 56.1915C25.4741 56.0219 25.8473 56.0388 26.1187 56.265V56.2594Z" fill="white"/>
</g>
<g opacity="0.24">
<path d="M29.1835 60.7153C29.4266 60.9924 28.5784 62.0894 27.2044 62.2138C25.8699 62.3778 24.7955 62.0442 24.7446 61.7219C24.6881 61.36 25.7342 61.1281 26.9386 60.9754C28.16 60.8567 28.9743 60.4665 29.1778 60.7153H29.1835Z" fill="white"/>
</g>
</svg>
